<?xml version="1.0" encoding="utf-8"?>
<!DOCTYPE svg PUBLIC "-//W3C//DTD SVG 1.1//EN" "http://www.w3.org/Graphics/SVG/1.1/DTD/svg11.dtd">
<svg version="1.1" id="Auréole" xmlns="http://www.w3.org/2000/svg" xmlns:xlink="http://www.w3.org/1999/xlink" x="0px" y="0px"
	 width="340px" height="160px" viewBox="0 0 340 160" enable-background="new 0 0 340 160" xml:space="preserve">
<path fill="#FFFFFF" stroke="#000000" stroke-miterlimit="10" d="M248.586,50.791c-0.308-17.899-26.928-35.105-44.328-35.348
	c0,0-6.668,4-9.701,6.775C223.171,25.629,237.931,37.06,248.586,50.791z"/>
<path fill="#FFFFFF" stroke="#000000" stroke-miterlimit="10" d="M264.793,159.19c11.849-9.624,17.369-42.113,14.212-58.432
	c0,0-5.188,5.919-11.579,6.316C272.164,119.181,272.164,135.502,264.793,159.19z"/>
<path fill="#F89838" stroke="#000000" stroke-miterlimit="10" d="M334.537,31.219c0.174,0.706,0.309,1.418,0.378,2.142
	c2.641,27.021-69.02,56.139-160.059,65.038C83.815,107.298,7.871,92.609,5.23,65.59c-0.219-2.244,0.084-4.502,0.858-6.762
	c-2.282,3.746-3.323,7.51-2.958,11.234c2.674,27.354,79.477,42.232,171.545,33.232c92.067-9,164.534-38.471,161.86-65.824
	C336.324,35.307,335.647,33.222,334.537,31.219z"/>
<path fill="#F1E877" d="M333.692,29.322c7.391,28.592-68.64,56.31-158.78,65.902C83.499,104.951-5.874,90.299,6.892,57.899
	c-18.713,27.977,58.032,51.36,167.985,41.141C268.974,90.293,349.007,56.424,333.692,29.322z"/>
<path fill="#EDCC19" stroke="#000000" stroke-miterlimit="10" d="M337.081,36.808C335.276,18.351,299.655,5.584,248.345,2
	c3.76,2.318,7.401,4.81,10.913,7.465c33.838,4.016,56.092,12.998,57.302,25.385c2.137,21.85-61.979,45.998-143.206,53.939
	C92.128,96.73,24.55,85.454,22.414,63.604C21.233,51.52,40.331,38.734,71.367,28.375c2.917-3.299,5.983-6.463,9.197-9.472
	C32.516,32.322,1.301,51.355,3.071,69.459c2.674,27.354,79.612,42.218,171.847,33.202C267.152,93.645,339.756,64.16,337.081,36.808z
	"/>
</svg>
