<?xml version="1.0" encoding="utf-8"?>
<!DOCTYPE svg PUBLIC "-//W3C//DTD SVG 1.1//EN" "http://www.w3.org/Graphics/SVG/1.1/DTD/svg11.dtd">
<svg version="1.1" id="btn-soins" xmlns="http://www.w3.org/2000/svg" xmlns:xlink="http://www.w3.org/1999/xlink" x="0px" y="0px"
	 width="32px" height="32px" viewBox="0 0 32 32" enable-background="new 0 0 32 32" xml:space="preserve">
<path fill="#ED427E" d="M29.859,8.014C25.45,0.359,15.668-2.271,8.013,2.139C0.358,6.55-2.272,16.333,2.139,23.987
	c4.411,7.654,14.192,10.285,21.847,5.873C31.643,25.452,34.271,15.669,29.859,8.014z M3.177,23.653
	C-0.962,16.471,1.506,7.295,8.688,3.157c7.181-4.138,16.357-1.67,20.496,5.512c4.139,7.18,1.672,16.358-5.511,20.496
	C16.491,33.303,7.314,30.834,3.177,23.653z"/>
<path fill="#ED427E" d="M16.088,12.844c0.407,0.434,0.813,0.926,1.206,1.461l1.04-1.964c0.408,0.214,0.872,0.333,1.364,0.333
	c1.631,0,2.956-1.322,2.956-2.953c0-1.632-1.322-2.953-2.956-2.953c-1.63,0-2.954,1.321-2.954,2.953
	c0,0.707,0.247,1.355,0.662,1.863C16.973,11.925,16.527,12.352,16.088,12.844z M19.682,8.155c0.768,0,1.391,0.621,1.391,1.391
	s-0.623,1.391-1.391,1.391c-0.771,0-1.394-0.623-1.394-1.391C18.29,8.776,18.911,8.155,19.682,8.155z"/>
<path fill="#ED427E" d="M13.963,15.785c-1.899,3.184-3.223,7.138-2.574,9.65l3.846-7.252L13.963,15.785z"/>
<path fill="#ED427E" d="M11.596,12.696c0.493,0,0.956-0.121,1.364-0.334l6.946,13.096c1.007-3.905-2.744-11.287-6.019-13.852
	c0.209-0.258,0.376-0.551,0.49-0.869l0.764-0.176c-0.58-0.528-0.942-1.289-0.942-2.136c0-0.354,0.064-0.694,0.181-1.009
	l-0.761,0.175c-0.528-0.498-1.24-0.803-2.024-0.803c-1.631,0-2.954,1.321-2.954,2.954C8.643,11.374,9.964,12.696,11.596,12.696z
	 M11.614,8.174c0.769,0,1.392,0.623,1.392,1.393s-0.623,1.392-1.392,1.392c-0.768,0-1.391-0.623-1.391-1.392
	C10.223,8.797,10.846,8.174,11.614,8.174z"/>
</svg>
