<?xml version="1.0" encoding="utf-8"?>
<!DOCTYPE svg PUBLIC "-//W3C//DTD SVG 1.1//EN" "http://www.w3.org/Graphics/SVG/1.1/DTD/svg11.dtd">
<svg version="1.1" id="btn-contact" xmlns="http://www.w3.org/2000/svg" xmlns:xlink="http://www.w3.org/1999/xlink" x="0px"
	 y="0px" width="32px" height="32px" viewBox="0 0 32 32" enable-background="new 0 0 32 32" xml:space="preserve">
<path fill="#ED427E" d="M2.173,7.954c-4.444,7.637-1.856,17.429,5.779,21.873c7.636,4.443,17.43,1.855,21.873-5.78
	c4.444-7.635,1.856-17.427-5.778-21.872C16.41-2.271,6.617,0.317,2.173,7.954z M29.018,23.313
	c-4.166,7.162-13.354,9.59-20.518,5.422C1.337,24.566-1.09,15.38,3.078,8.216c4.169-7.164,13.355-9.591,20.52-5.422
	C30.76,6.961,33.188,16.149,29.018,23.313z"/>
<path fill="#ED427E" d="M20.066,7.164c-0.211,0-7.922,0-8.132,0c-0.517,0-1.156,0.599-1.156,1.338
	c0,0.741,0.055,14.723,0.055,15.264c0,0.539,0.457,1.07,1.102,1.07c0.258,0,7.874,0,8.131,0c0.646,0,1.101-0.531,1.101-1.07
	c0-0.541,0.056-14.523,0.056-15.264C21.221,7.762,20.583,7.164,20.066,7.164z M14.452,7.966h3.095c0.145,0,0.26,0.181,0.26,0.402
	s-0.115,0.401-0.26,0.401h-3.095c-0.143,0-0.259-0.182-0.259-0.401C14.194,8.147,14.309,7.966,14.452,7.966z M15.999,24.434
	c-0.665,0-1.205-0.539-1.205-1.205c0-0.664,0.541-1.205,1.205-1.205c0.666,0,1.206,0.541,1.206,1.205S16.665,24.434,15.999,24.434z
	 M19.621,20.719c0,0.391-0.458,0.773-1.102,0.773c-0.121,0-4.92,0-5.042,0c-0.645,0-1.101-0.385-1.101-0.773
	c0-0.391-0.055-9.605-0.055-10.141s0.64-0.968,1.156-0.968c0.102,0,4.94,0,5.042,0c0.516,0,1.155,0.432,1.155,0.968
	C19.677,11.112,19.621,20.328,19.621,20.719z"/>
</svg>
