<?xml version="1.0" encoding="utf-8"?>
<!DOCTYPE svg PUBLIC "-//W3C//DTD SVG 1.1//EN" "http://www.w3.org/Graphics/SVG/1.1/DTD/svg11.dtd">
<svg version="1.1" id="btn-home" xmlns="http://www.w3.org/2000/svg" xmlns:xlink="http://www.w3.org/1999/xlink" x="0px" y="0px"
	 width="32px" height="32px" viewBox="0 0 32 32" enable-background="new 0 0 32 32" xml:space="preserve">
<path fill="#ED427E" d="M23.182,14.713L16,7.411V7.372l-0.019,0.019l-0.019-0.019v0.039l-7.183,7.302
	c-0.309,0.342-0.544,0.59-0.544,1.051c0,0.594,0.429,1.055,0.99,1.055l0.994-0.61l0.61,6.925c0,0.58,0.445,1.053,0.991,1.053h2.352
	l-0.61-6.205c0,0-0.064-2.537,2.419-2.652c2.484,0.115,2.417,2.652,2.417,2.652l-0.609,6.205h2.352c0.547,0,0.992-0.473,0.992-1.053
	l0.609-6.925l0.992,0.61c0.561,0,0.99-0.461,0.99-1.055C23.727,15.303,23.491,15.055,23.182,14.713z"/>
<path fill="#ED427E" d="M16,0C7.164,0,0,7.164,0,16c0,8.837,7.164,16,16,16c8.837,0,16-7.163,16-16C32,7.164,24.837,0,16,0z
	 M16.229,30.934c-8.289,0-15.01-6.72-15.01-15.01s6.72-15.01,15.01-15.01c8.291,0,15.009,6.721,15.009,15.01
	C31.238,24.214,24.52,30.934,16.229,30.934z"/>
</svg>
