<?xml version="1.0" encoding="utf-8"?>
<!DOCTYPE svg PUBLIC "-//W3C//DTD SVG 1.1//EN" "http://www.w3.org/Graphics/SVG/1.1/DTD/svg11.dtd">
<svg version="1.1" id="btn-contact" xmlns="http://www.w3.org/2000/svg" xmlns:xlink="http://www.w3.org/1999/xlink" x="0px"
	 y="0px" width="48px" height="48px" viewBox="0 2 48 48" enable-background="new 0 2 48 48" xml:space="preserve">
<path fill="#ED427E" d="M3.26,13.93c-6.666,11.455-2.785,26.145,8.669,32.81c11.455,6.667,26.145,2.784,32.81-8.669
	c6.667-11.455,2.785-26.144-8.669-32.81C24.615-1.406,9.925,2.476,3.26,13.93z M43.528,36.968
	c-6.252,10.746-20.033,14.387-30.778,8.135C2.005,38.85-1.636,25.068,4.617,14.323C10.871,3.578,24.65-0.063,35.396,6.19
	C46.141,12.442,49.782,26.224,43.528,36.968z"/>
<path fill="#ED427E" d="M30.099,12.744c-0.316,0-11.882,0-12.198,0c-0.775,0-1.734,0.898-1.734,2.008
	c0,1.111,0.082,22.086,0.082,22.897c0,0.809,0.685,1.606,1.653,1.606c0.387,0,11.81,0,12.198,0c0.967,0,1.65-0.798,1.65-1.606
	c0-0.811,0.082-21.787,0.082-22.897C31.832,13.643,30.874,12.744,30.099,12.744z M21.678,13.949h4.643
	c0.214,0,0.387,0.271,0.387,0.604c0,0.332-0.173,0.601-0.387,0.601h-4.643c-0.214,0-0.388-0.27-0.388-0.601
	C21.291,14.22,21.464,13.949,21.678,13.949z M23.999,38.651c-0.997,0-1.808-0.809-1.808-1.807s0.811-1.809,1.808-1.809
	c0.998,0,1.808,0.811,1.808,1.809C25.806,37.84,24.997,38.651,23.999,38.651z M29.431,33.079c0,0.584-0.686,1.16-1.651,1.16
	c-0.18,0-7.38,0-7.561,0c-0.967,0-1.652-0.576-1.652-1.16c0-0.586-0.083-14.41-0.083-15.214c0-0.803,0.961-1.451,1.734-1.451
	c0.152,0,7.41,0,7.561,0c0.774,0,1.734,0.648,1.734,1.451C29.515,18.669,29.431,32.493,29.431,33.079z"/>
</svg>
