<?xml version="1.0" encoding="utf-8"?>
<!DOCTYPE svg PUBLIC "-//W3C//DTD SVG 1.1//EN" "http://www.w3.org/Graphics/SVG/1.1/DTD/svg11.dtd">
<svg version="1.1" id="btn-soins" xmlns="http://www.w3.org/2000/svg" xmlns:xlink="http://www.w3.org/1999/xlink" x="0px" y="0px"
	 width="48px" height="48px" viewBox="0 2 48 48" enable-background="new 0 2 48 48" xml:space="preserve">
<path fill="#ED427E" d="M44.791,14.02C38.176,2.538,23.502-1.408,12.02,5.208C0.537,11.825-3.408,26.498,3.208,37.98
	c6.616,11.481,21.289,15.428,32.772,8.811C47.464,40.177,51.407,25.503,44.791,14.02z M4.766,37.479
	C-1.442,26.707,2.26,12.943,13.032,6.735c10.771-6.207,24.536-2.505,30.743,8.268c6.208,10.771,2.507,24.537-8.266,30.743
	C24.736,51.952,10.972,48.25,4.766,37.479z"/>
<path fill="#ED427E" d="M24.132,21.266c0.61,0.65,1.217,1.387,1.81,2.189l1.559-2.944c0.612,0.319,1.308,0.5,2.046,0.5
	c2.447,0,4.433-1.983,4.433-4.43c0-2.447-1.983-4.431-4.433-4.431c-2.446,0-4.431,1.984-4.431,4.431c0,1.06,0.371,2.033,0.993,2.795
	C25.458,19.887,24.792,20.528,24.132,21.266z M29.521,14.231c1.152,0,2.087,0.934,2.087,2.086c0,1.153-0.935,2.087-2.087,2.087
	c-1.154,0-2.089-0.935-2.089-2.087C27.435,15.164,28.366,14.231,29.521,14.231z"/>
<path fill="#ED427E" d="M20.945,25.677c-2.849,4.774-4.834,10.706-3.861,14.475l5.769-10.878L20.945,25.677z"/>
<path fill="#ED427E" d="M17.394,21.043c0.739,0,1.434-0.181,2.046-0.5l10.419,19.642c1.511-5.857-4.116-16.929-9.028-20.776
	c0.314-0.386,0.565-0.826,0.735-1.304l1.146-0.264c-0.869-0.792-1.413-1.934-1.413-3.203c0-0.531,0.096-1.041,0.271-1.512
	l-1.141,0.262c-0.792-0.748-1.86-1.205-3.036-1.205c-2.447,0-4.43,1.984-4.43,4.431C12.964,19.06,14.947,21.043,17.394,21.043z
	 M17.422,14.261c1.153,0,2.087,0.935,2.087,2.088s-0.935,2.087-2.087,2.087c-1.152,0-2.087-0.935-2.087-2.087
	C15.334,15.196,16.269,14.261,17.422,14.261z"/>
</svg>
