<?xml version="1.0" encoding="utf-8"?>
<!DOCTYPE svg PUBLIC "-//W3C//DTD SVG 1.1//EN" "http://www.w3.org/Graphics/SVG/1.1/DTD/svg11.dtd">
<svg version="1.1" id="btn-horaires" xmlns="http://www.w3.org/2000/svg" xmlns:xlink="http://www.w3.org/1999/xlink" x="0px"
	 y="0px" width="32px" height="32px" viewBox="0 0 32 32" enable-background="new 0 0 32 32" xml:space="preserve">
<circle fill="#ED427E" cx="16.153" cy="3.965" r="1.371"/>
<circle fill="#ED427E" cx="17.143" cy="28.417" r="1.114"/>
<circle fill="#ED427E" cx="29.179" cy="16.838" r="1.085"/>
<circle fill="#ED427E" cx="3.66" cy="16.001" r="1.219"/>
<circle fill="#ED427E" cx="23.542" cy="5.563" r="0.743"/>
<circle fill="#ED427E" cx="27.884" cy="10.516" r="0.607"/>
<circle fill="#ED427E" cx="27.578" cy="22.247" r="0.685"/>
<circle fill="#ED427E" cx="23.161" cy="26.818" r="0.762"/>
<circle fill="#ED427E" cx="10.744" cy="27.502" r="0.628"/>
<circle fill="#ED427E" cx="5.945" cy="23.009" r="0.915"/>
<circle fill="#ED427E" cx="5.335" cy="10.516" r="0.609"/>
<circle fill="#ED427E" cx="9.296" cy="5.946" r="0.762"/>
<polygon fill="#ED427E" points="14.425,15.85 14.425,18.438 18.51,18.509 23.061,16.914 18.188,15.798 "/>
<polygon fill="#ED427E" points="15.018,19.175 17.904,19.175 17.876,15.507 16.316,6.25 14.933,15.604 "/>
<path fill="#ED427E" d="M8.6,1.818C0.768,5.905-2.269,15.566,1.818,23.4c4.087,7.832,13.75,10.869,21.583,6.781
	c7.834-4.089,10.869-13.75,6.782-21.582S16.432-2.27,8.6,1.818z M23.109,29.129c-7.347,3.835-16.413,0.986-20.247-6.359
	C-0.971,15.421,1.877,6.357,9.225,2.523c7.348-3.833,16.412-0.986,20.246,6.36C33.304,16.232,30.457,25.296,23.109,29.129z"/>
</svg>
