<?xml version="1.0" encoding="utf-8"?>
<!DOCTYPE svg PUBLIC "-//W3C//DTD SVG 1.1//EN" "http://www.w3.org/Graphics/SVG/1.1/DTD/svg11.dtd">
<svg version="1.1" id="btn-home" xmlns="http://www.w3.org/2000/svg" xmlns:xlink="http://www.w3.org/1999/xlink" x="0px" y="0px"
	 width="48px" height="48px" viewBox="0 2 48 48" enable-background="new 0 2 48 48" xml:space="preserve">
<path fill="#ED427E" d="M34.774,24.069L24,13.116v-0.058l-0.029,0.028l-0.028-0.028v0.058L13.169,24.069
	c-0.463,0.513-0.817,0.885-0.816,1.578c-0.001,0.889,0.643,1.579,1.485,1.579l1.49-0.915l0.915,10.387
	c0,0.87,0.667,1.579,1.487,1.58h3.528l-0.915-9.309c0,0-0.096-3.807,3.628-3.981c3.726,0.174,3.627,3.981,3.627,3.981l-0.914,9.309
	h3.528c0.819-0.001,1.487-0.71,1.487-1.58l0.914-10.387l1.489,0.915c0.842,0,1.485-0.69,1.485-1.579
	C35.591,24.954,35.236,24.581,34.774,24.069z"/>
<path fill="#ED427E" d="M24,2C10.746,2,0,12.746,0,26c0,13.255,10.746,24,24,24c13.255,0,24-10.745,24-24C48,12.746,37.255,2,24,2z
	 M24.343,48.4c-12.434,0-22.515-10.079-22.515-22.515c0-12.434,10.08-22.514,22.515-22.514c12.435,0,22.514,10.081,22.514,22.514
	C46.857,38.321,36.777,48.4,24.343,48.4z"/>
</svg>
