<?xml version="1.0" encoding="utf-8"?>
<!DOCTYPE svg PUBLIC "-//W3C//DTD SVG 1.1//EN" "http://www.w3.org/Graphics/SVG/1.1/DTD/svg11.dtd">
<svg version="1.1" id="bulles02_01" xmlns="http://www.w3.org/2000/svg" xmlns:xlink="http://www.w3.org/1999/xlink" x="0px"
	 y="0px" width="1908px" height="930px" viewBox="0 0 1908 930" enable-background="new 0 0 1908 930" xml:space="preserve">
<circle fill="#EFDAE6" cx="1619.331" cy="280.286" r="29.09"/>
<path opacity="0.7" fill="#FFFFFF" enable-background="new    " d="M1631.549,269.087c-1.494,3.44-5.889,4.847-9.818,3.143
	c-3.932-1.705-5.906-5.874-4.416-9.313c1.49-3.44,5.887-4.847,9.816-3.142C1631.061,261.479,1633.037,265.649,1631.549,269.087z"/>
<path opacity="0.3" enable-background="new    " d="M1640.355,275.962c0.873,2.925,1.174,6.067,0.771,9.29
	c-1.015,8.073-6.143,14.62-13.012,17.814l-1.025,2.215c8.391-3.085,14.812-10.626,15.997-20.108
	c0.517-4.132-0.034-8.145-1.412-11.786L1640.355,275.962z"/>
<circle opacity="0.8" fill="none" stroke="#000000" stroke-miterlimit="10" enable-background="new    " cx="1619.331" cy="280.286" r="29.09"/>
<circle fill="#EFDAE6" cx="373.247" cy="161.01" r="27.792"/>
<ellipse transform="matrix(-0.9176 -0.3976 0.3976 -0.9176 666.5344 432.903)" opacity="0.7" fill="#FFFFFF" enable-background="new    " cx="378.145" cy="147.354" rx="7.411" ry="6.484"/>
<path opacity="0.3" enable-background="new    " d="M393.334,156.88c0.833,2.795,1.12,5.796,0.738,8.875
	c-0.969,7.713-5.868,13.966-12.433,17.018l-0.979,2.116c8.015-2.947,14.146-10.151,15.283-19.21
	c0.491-3.946-0.033-7.781-1.353-11.259L393.334,156.88z"/>
<circle fill="none" stroke="#000000" stroke-miterlimit="10" cx="373.247" cy="161.01" r="27.792"/>
<circle fill="#EFDAE6" cx="227.144" cy="642.18" r="27.142"/>
<path fill="#FFFFFF" d="M239.437,632.797c-1.677,3.071-5.88,4.01-9.387,2.099c-3.511-1.912-4.999-5.953-3.326-9.021
	c1.675-3.073,5.878-4.012,9.389-2.098C239.62,625.687,241.107,629.728,239.437,632.797z"/>
<path opacity="0.3" enable-background="new    " d="M247.044,639.925c0.565,2.791,0.581,5.735-0.06,8.696
	c-1.619,7.418-6.934,13.07-13.584,15.464l-1.138,1.971c8.054-2.163,14.651-8.631,16.55-17.346c0.825-3.793,0.65-7.57-0.326-11.068
	L247.044,639.925z"/>
<circle fill="none" stroke="#000000" stroke-miterlimit="10" cx="227.144" cy="642.18" r="27.142"/>
<circle fill="#EFDAE6" cx="1590.688" cy="637.653" r="18.052"/>
<circle fill="none" stroke="#000000" stroke-miterlimit="10" cx="1589.843" cy="638.198" r="18.052"/>
<path d="M1598.848,629.233c0.07-2.438-3.438-4.943-5.803-5.086c0,0-0.933,0.5-1.361,0.857
	C1595.551,625.652,1597.485,627.3,1598.848,629.233z"/>
<path d="M1599.994,643.132c1.613-1.31,2.363-5.729,1.934-7.952c0,0-0.707,0.808-1.576,0.859
	C1600.997,637.687,1600.997,639.908,1599.994,643.132z"/>
<circle fill="#EFDAE6" cx="304.241" cy="723.169" r="16.104"/>
<path d="M312.274,715.172c0.063-2.173-3.068-4.41-5.18-4.537c0,0-0.831,0.446-1.214,0.769
	C309.333,711.978,311.059,713.446,312.274,715.172z"/>
<path d="M313.296,727.57c1.439-1.169,2.109-5.113,1.728-7.096c0,0-0.633,0.721-1.406,0.769
	C314.191,722.713,314.191,724.694,313.296,727.57z"/>
<circle fill="none" stroke="#000000" stroke-miterlimit="10" cx="304.604" cy="722.975" r="16.104"/>
<circle fill="#EFDAE6" cx="382.427" cy="310.312" r="14.805"/>
<path d="M389.813,302.959c0.059-1.998-2.819-4.055-4.761-4.171c0,0-0.764,0.41-1.116,0.705
	C387.108,300.023,388.694,301.373,389.813,302.959z"/>
<path d="M390.751,314.358c1.323-1.075,1.939-4.701,1.587-6.521c0,0-0.58,0.661-1.293,0.705
	C391.574,309.893,391.574,311.714,390.751,314.358z"/>
<circle fill="none" stroke="#000000" stroke-miterlimit="10" cx="381.413" cy="308.832" r="14.805"/>
<path fill="#EFDAE6" d="M302.386,452.77c0,23.958-19.418,43.376-43.372,43.376c-23.959,0-43.381-19.418-43.381-43.376
	c0-23.951,19.422-43.375,43.381-43.375C282.968,409.393,302.386,428.816,302.386,452.77z"/>
<path d="M280.647,431.229c0.17-5.854-8.264-11.879-13.943-12.223c0,0-2.243,1.203-3.271,2.064
	C272.725,422.623,277.372,426.582,280.647,431.229z"/>
<path d="M283.403,464.625c3.873-3.146,5.678-13.773,4.646-19.109c0,0-1.698,1.938-3.787,2.066
	C285.809,451.539,285.809,456.879,283.403,464.625z"/>
<path fill="none" stroke="#000000" stroke-miterlimit="10" d="M302.711,451.574c0,23.96-19.418,43.378-43.372,43.378
	c-23.959,0-43.381-19.418-43.381-43.378c0-23.953,19.422-43.375,43.381-43.375C283.293,408.199,302.711,427.621,302.711,451.574z"/>
<circle fill="#EFDAE6" cx="933.2" cy="374.968" r="20.671"/>
<circle fill="none" stroke="#000000" stroke-miterlimit="10" cx="933.415" cy="374.618" r="20.671"/>
<path opacity="0.7" fill="#FFFFFF" enable-background="new    " d="M942.543,371.454c-1.78,2.013-5.227,1.875-7.699-0.312
	c-2.472-2.186-3.035-5.588-1.254-7.601c1.781-2.018,5.23-1.879,7.701,0.307C943.763,366.033,944.326,369.438,942.543,371.454z"/>
<circle fill="#EFDAE6" cx="917.128" cy="266.395" r="27.671"/>
<circle fill="none" stroke="#000000" stroke-miterlimit="10" cx="917.128" cy="266.519" r="27.671"/>
<path opacity="0.7" fill="#FFFFFF" enable-background="new    " d="M934.951,264.639c0,0.481-0.024,0.955-0.066,1.426l4.811-0.329
	c0.061-0.626,0.09-1.262,0.09-1.905c0-7.81-4.6-14.504-11.138-17.307l-2.183,4.079C931.501,253.214,934.951,258.519,934.951,264.639
	z"/>
</svg>
