<?xml version="1.0" encoding="utf-8"?>
<!DOCTYPE svg PUBLIC "-//W3C//DTD SVG 1.1//EN" "http://www.w3.org/Graphics/SVG/1.1/DTD/svg11.dtd">
<svg version="1.1" xmlns="http://www.w3.org/2000/svg" xmlns:xlink="http://www.w3.org/1999/xlink" x="0px" y="0px" width="1908px"
	 height="930px" viewBox="0 0 1908 930" enable-background="new 0 0 1908 930" xml:space="preserve">
<g id="Calque_27">
</g>
<g id="b01">
</g>
<g id="b01_-_copie">
</g>
<g id="b01_-_copie_2">
</g>
<g id="b01_-_copie_3">
</g>
<g id="b01_-_copie_4">
</g>
<g id="b01_-_copie_6">
</g>
<g id="b01_-_copie_5">
</g>
<g id="Calque_25">
</g>
<g id="Calque_8">
</g>
<g id="Calque_8_-_copie">
</g>
<g id="Calque_8_-_copie_3">
</g>
<g id="Calque_8_-_copie_4">
</g>
<g id="Calque_8_-_copie_5">
</g>
<g id="Calque_8_-_copie_2">
</g>
<g id="Calque_8_-_copie_6">
</g>
<g id="Calque_14">
</g>
<g id="Calque_14_-_copie_7">
</g>
<g id="Calque_14_-_copie_5">
</g>
<g id="Calque_14_-_copie_6">
</g>
<g id="Calque_14_-_copie">
</g>
<g id="Calque_14_-_copie_2">
</g>
<g id="Calque_14_-_copie_3">
</g>
<g id="Calque_14_-_copie_4">
</g>
<g id="Calque_20">
</g>
<g id="Calque_20_-_copie_2">
	<path fill="#A4D0C4" d="M990.608,161.169c0,27.288-22.12,49.406-49.405,49.406c-27.289,0-49.406-22.118-49.406-49.406
		c0-27.288,22.117-49.407,49.406-49.407C968.488,111.763,990.608,133.881,990.608,161.169z"/>
	<path opacity="0.7" fill="#FFFFFF" d="M969.203,149.472c-4.416,4.998-12.967,4.653-19.104-0.767
		c-6.133-5.422-7.527-13.867-3.107-18.863c4.416-5,12.971-4.657,19.104,0.766C972.23,136.025,973.622,144.473,969.203,149.472z"/>
	<circle fill="none" stroke="#000000" stroke-miterlimit="10" cx="941.004" cy="160.312" r="49.406"/>
	<circle fill="#D9EAE5" cx="1707.102" cy="307.286" r="29.09"/>
	<path opacity="0.7" fill="#FFFFFF" d="M1719.32,296.087c-1.494,3.44-5.889,4.847-9.818,3.143c-3.932-1.705-5.908-5.874-4.417-9.313
		c1.491-3.44,5.886-4.847,9.817-3.142C1718.832,288.479,1720.809,292.649,1719.32,296.087z"/>
	<path opacity="0.3" d="M1728.127,302.962c0.873,2.925,1.174,6.067,0.773,9.29c-1.015,8.073-6.143,14.62-13.012,17.814l-1.025,2.215
		c8.389-3.085,14.81-10.626,15.997-20.108c0.517-4.132-0.034-8.145-1.412-11.786L1728.127,302.962z"/>
	<circle opacity="0.8" fill="none" stroke="#000000" stroke-miterlimit="10" cx="1707.102" cy="307.286" r="29.09"/>
	<circle fill="#C4E1D6" cx="1643.725" cy="441.702" r="21.948"/>
	
		<ellipse transform="matrix(0.9175 0.3976 -0.3976 0.9175 307.1885 -619.5806)" opacity="0.7" fill="#FFFFFF" cx="1647.573" cy="430.926" rx="5.853" ry="5.121"/>
	<path opacity="0.3" d="M1659.588,438.44c0.658,2.207,0.885,4.577,0.583,7.009c-0.765,6.091-4.634,11.029-9.816,13.439l-0.773,1.671
		c6.329-2.327,11.173-8.017,12.069-15.171c0.389-3.116-0.026-6.145-1.066-8.892L1659.588,438.44z"/>
	<circle fill="none" stroke="#000000" stroke-miterlimit="10" cx="1643.725" cy="441.702" r="21.948"/>
	<circle fill="#D9EAE5" cx="241.019" cy="218.01" r="27.792"/>
	
		<ellipse transform="matrix(0.9176 0.3976 -0.3976 0.9176 101.5285 -80.9192)" opacity="0.7" fill="#FFFFFF" cx="245.891" cy="204.364" rx="7.411" ry="6.484"/>
	<path opacity="0.3" d="M261.105,213.88c0.833,2.795,1.12,5.796,0.738,8.875c-0.969,7.713-5.868,13.966-12.431,17.018l-0.979,2.116
		c8.015-2.947,14.148-10.151,15.283-19.21c0.492-3.946-0.033-7.781-1.351-11.259L261.105,213.88z"/>
	<circle fill="none" stroke="#000000" stroke-miterlimit="10" cx="241.019" cy="218.01" r="27.792"/>
	<path fill="#C4E1D6" d="M203.875,640.736c0,22.884-18.551,41.43-41.43,41.43c-22.88,0-41.427-18.546-41.427-41.43
		c0-22.878,18.547-41.427,41.427-41.427C185.324,599.31,203.875,617.858,203.875,640.736z"/>
	<path opacity="0.7" fill="#FFFFFF" d="M179.847,624.787c-2.127,4.9-8.388,6.903-13.981,4.477c-5.6-2.427-8.414-8.366-6.292-13.26
		c2.125-4.9,8.385-6.904,13.983-4.475C179.152,613.954,181.967,619.894,179.847,624.787z"/>
	<path opacity="0.3" d="M192.39,634.58c1.241,4.166,1.669,8.64,1.101,13.229c-1.444,11.497-8.748,20.818-18.53,25.369l-1.46,3.152
		c11.947-4.393,21.09-15.13,22.782-28.637c0.733-5.881-0.05-11.598-2.014-16.782L192.39,634.58z"/>
	<path fill="none" stroke="#000000" stroke-miterlimit="10" d="M203.875,640.736c0,22.884-18.551,41.43-41.43,41.43
		c-22.88,0-41.427-18.546-41.427-41.43c0-22.878,18.547-41.427,41.427-41.427C185.324,599.31,203.875,617.858,203.875,640.736z"/>
	<circle fill="#D9EAE5" cx="94.916" cy="699.18" r="27.142"/>
	<path fill="#FFFFFF" d="M107.208,689.797c-1.677,3.071-5.88,4.01-9.387,2.098c-3.511-1.913-4.999-5.954-3.326-9.022
		c1.675-3.073,5.878-4.012,9.389-2.098C107.392,682.687,108.879,686.728,107.208,689.797z"/>
	<path opacity="0.3" d="M114.815,696.925c0.565,2.791,0.581,5.735-0.06,8.696c-1.619,7.418-6.934,13.07-13.584,15.464l-1.138,1.971
		c8.054-2.163,14.651-8.631,16.55-17.346c0.825-3.793,0.65-7.57-0.326-11.068L114.815,696.925z"/>
	<circle fill="none" stroke="#000000" stroke-miterlimit="10" cx="94.916" cy="699.18" r="27.142"/>
	<circle fill="#C4E1D6" cx="184.669" cy="283.453" r="18.702"/>
	<path opacity="0.7" fill="#FFFFFF" d="M193.139,276.988c-1.156,2.116-4.052,2.763-6.468,1.445
		c-2.419-1.318-3.444-4.103-2.292-6.216c1.154-2.118,4.05-2.764,6.469-1.445C193.265,272.089,194.289,274.873,193.139,276.988z"/>
	<path opacity="0.3" d="M198.38,281.899c0.39,1.923,0.4,3.952-0.041,5.992c-1.116,5.111-4.777,9.005-9.359,10.655l-0.784,1.358
		c5.549-1.491,10.095-5.947,11.403-11.952c0.568-2.613,0.448-5.216-0.225-7.626L198.38,281.899z"/>
	<circle fill="none" stroke="#000000" stroke-miterlimit="10" cx="184.669" cy="283.453" r="18.702"/>
	<circle fill="#C4E1D6" cx="106.932" cy="795.024" r="16.754"/>
	
		<ellipse transform="matrix(0.8782 0.4784 -0.4784 0.8782 389.9977 42.9949)" opacity="0.7" fill="#FFFFFF" cx="110.596" cy="787.095" rx="4.468" ry="3.909"/>
	<path opacity="0.3" d="M119.215,793.632c0.35,1.723,0.359,3.54-0.036,5.368c-0.999,4.578-4.28,8.067-8.385,9.545l-0.702,1.217
		c4.971-1.336,9.043-5.328,10.215-10.707c0.51-2.342,0.402-4.673-0.201-6.832L119.215,793.632z"/>
	<circle fill="none" stroke="#000000" stroke-miterlimit="10" cx="106.932" cy="795.024" r="16.754"/>
	<circle fill="#C4E1D6" cx="1747.167" cy="559.428" r="16.104"/>
	
		<ellipse transform="matrix(0.9175 0.3977 -0.3977 0.9175 363.6084 -650.0863)" opacity="0.7" fill="#FFFFFF" cx="1748.99" cy="551.521" rx="4.295" ry="3.757"/>
	<path opacity="0.3" d="M1757.807,556.034c0.482,1.619,0.649,3.358,0.428,5.143c-0.562,4.469-3.4,8.094-7.203,9.861l-0.567,1.227
		c4.644-1.708,8.198-5.883,8.856-11.132c0.285-2.287-0.02-4.509-0.783-6.523L1757.807,556.034z"/>
	<circle opacity="0.8" fill="none" stroke="#000000" stroke-miterlimit="10" cx="1745.907" cy="559.688" r="16.104"/>
	<circle fill="#D9EAE5" cx="1678.458" cy="664.653" r="18.052"/>
	<circle fill="none" stroke="#000000" stroke-miterlimit="10" cx="1677.614" cy="665.198" r="18.052"/>
	<path d="M1686.619,656.233c0.07-2.436-3.439-4.943-5.803-5.086c0,0-0.933,0.501-1.361,0.859
		C1683.322,652.652,1685.257,654.3,1686.619,656.233z"/>
	<path d="M1687.766,670.132c1.613-1.31,2.363-5.731,1.934-7.952c0,0-0.707,0.806-1.576,0.859
		C1688.769,664.687,1688.769,666.908,1687.766,670.132z"/>
	<circle fill="#A4D0C4" cx="991.278" cy="359.174" r="17.263"/>
	<path d="M999.89,350.602c0.068-2.33-3.289-4.728-5.551-4.864c0,0-0.891,0.479-1.302,0.822
		C996.737,347.176,998.587,348.753,999.89,350.602z"/>
	<path d="M1000.985,364.849c1.543-1.253,2.262-5.481,1.85-7.604c0,0-0.677,0.769-1.509,0.821
		C1001.946,359.643,1001.946,361.767,1000.985,364.849z"/>
	<circle fill="none" stroke="#000000" stroke-miterlimit="10" cx="991.03" cy="357.957" r="17.264"/>
	<circle fill="#D9EAE5" cx="172.013" cy="780.169" r="16.104"/>
	<path d="M180.046,772.172c0.063-2.173-3.068-4.41-5.178-4.537c0,0-0.831,0.446-1.214,0.767
		C177.104,768.978,178.83,770.446,180.046,772.172z"/>
	<path d="M181.067,784.57c1.439-1.169,2.109-5.113,1.726-7.094c0,0-0.631,0.719-1.406,0.767
		C181.963,779.713,181.963,781.694,181.067,784.57z"/>
	<circle fill="none" stroke="#000000" stroke-miterlimit="10" cx="172.376" cy="779.975" r="16.104"/>
	<circle fill="#A4D0C4" cx="262.272" cy="305.493" r="19.35"/>
	<path d="M271.925,295.884c0.075-2.611-3.687-5.299-6.222-5.452c0,0-0.998,0.536-1.459,0.921
		C268.391,292.045,270.464,293.811,271.925,295.884z"/>
	<path d="M273.152,310.782c1.729-1.404,2.534-6.144,2.073-8.524c0,0-0.758,0.864-1.689,0.921
		C274.229,304.945,274.229,307.326,273.152,310.782z"/>
	<circle fill="none" stroke="#000000" stroke-miterlimit="10" cx="262.247" cy="306.272" r="19.35"/>
	<circle fill="#D9EAE5" cx="250.198" cy="367.312" r="14.805"/>
	<path d="M257.584,359.959c0.057-1.998-2.821-4.055-4.761-4.171c0,0-0.764,0.41-1.116,0.705
		C254.88,357.023,256.466,358.373,257.584,359.959z"/>
	<path d="M258.522,371.358c1.323-1.075,1.939-4.701,1.587-6.521c0,0-0.58,0.661-1.293,0.705
		C259.346,366.893,259.346,368.714,258.522,371.358z"/>
	<circle fill="none" stroke="#000000" stroke-miterlimit="10" cx="249.185" cy="365.832" r="14.805"/>
	<path fill="#D9EAE5" d="M170.158,509.77c0,23.958-19.418,43.376-43.372,43.376c-23.959,0-43.381-19.418-43.381-43.376
		c0-23.953,19.422-43.377,43.381-43.377C150.74,466.393,170.158,485.816,170.158,509.77z"/>
	<path d="M148.418,488.229c0.17-5.854-8.264-11.879-13.943-12.221c0,0-2.243,1.203-3.271,2.064
		C140.497,479.623,145.143,483.582,148.418,488.229z"/>
	<path d="M151.174,521.625c3.873-3.146,5.678-13.773,4.646-19.109c0,0-1.698,1.938-3.787,2.066
		C153.581,508.539,153.581,513.879,151.174,521.625z"/>
	<path fill="none" stroke="#000000" stroke-miterlimit="10" d="M170.483,508.574c0,23.96-19.418,43.378-43.372,43.378
		c-23.959,0-43.381-19.418-43.381-43.378c0-23.953,19.422-43.375,43.381-43.375C151.065,465.199,170.483,484.621,170.483,508.574z"
		/>
	<circle fill="#D9EAE5" cx="930.972" cy="401.968" r="20.671"/>
	<circle fill="none" stroke="#000000" stroke-miterlimit="10" cx="931.186" cy="401.618" r="20.671"/>
	<path opacity="0.7" fill="#FFFFFF" d="M940.314,398.454c-1.78,2.013-5.227,1.875-7.699-0.312c-2.472-2.186-3.035-5.588-1.254-7.601
		c1.781-2.018,5.23-1.879,7.701,0.307C941.534,393.033,942.098,396.438,940.314,398.454z"/>
	<circle fill="#C4E1D6" cx="1776.334" cy="146.417" r="64"/>
	<circle fill="none" stroke="#000000" stroke-miterlimit="10" cx="1776.75" cy="145.989" r="64"/>
	<path opacity="0.7" fill="#FFFFFF" d="M1817.967,141.64c0,1.113-0.051,2.214-0.148,3.302l11.121-0.762
		c0.141-1.448,0.213-2.918,0.213-4.404c0-18.065-10.645-33.544-25.768-40.031l-5.043,9.435
		C1809.994,115.219,1817.967,127.487,1817.967,141.64z"/>
	<circle fill="#C4E1D6" cx="996.829" cy="640.753" r="18.546"/>
	<path opacity="0.7" fill="#FFFFFF" d="M1008.773,639.492c0,0.322-0.016,0.642-0.043,0.956l3.221-0.221
		c0.041-0.419,0.063-0.846,0.063-1.276c0-5.234-3.084-9.72-7.467-11.6l-1.461,2.734
		C1006.463,631.836,1008.773,635.391,1008.773,639.492z"/>
	<circle fill="none" stroke="#000000" stroke-miterlimit="10" cx="997.738" cy="639.025" r="18.545"/>
	<circle fill="#C4E1D6" cx="868.378" cy="236.839" r="23.325"/>
	<circle fill="none" stroke="#000000" stroke-miterlimit="10" cx="868.725" cy="236.964" r="23.324"/>
	<path opacity="0.7" fill="#FFFFFF" d="M883.746,235.378c0,0.406-0.019,0.808-0.053,1.203l4.053-0.277
		c0.051-0.527,0.078-1.063,0.078-1.605c0-6.584-3.882-12.226-9.393-14.59l-1.836,3.438
		C880.841,225.75,883.746,230.221,883.746,235.378z"/>
	<circle fill="#A4D0C4" cx="1799.79" cy="352.886" r="22.442"/>
	<circle fill="none" stroke="#000000" stroke-miterlimit="10" cx="1799.478" cy="353.521" r="22.442"/>
	<path opacity="0.7" fill="#FFFFFF" d="M1813.93,351.997c0,0.39-0.018,0.776-0.051,1.158l3.898-0.267
		c0.05-0.508,0.075-1.023,0.075-1.544c0-6.334-3.732-11.762-9.035-14.037l-1.769,3.308
		C1811.135,342.732,1813.93,347.034,1813.93,351.997z"/>
	<circle fill="#C4E1D6" cx="996.239" cy="256.289" r="32.018"/>
	<path opacity="0.7" fill="#FFFFFF" d="M1016.86,254.113c0,0.556-0.027,1.107-0.076,1.65l5.564-0.38
		c0.071-0.726,0.105-1.46,0.105-2.204c0-9.038-5.324-16.781-12.89-20.027l-2.522,4.721
		C1012.87,240.895,1016.86,247.033,1016.86,254.113z"/>
	<circle fill="none" stroke="#000000" stroke-miterlimit="10" cx="994.972" cy="257.034" r="32.017"/>
	<circle fill="#A4D0C4" cx="159.018" cy="732.727" r="20.494"/>
	<path opacity="0.7" fill="#FFFFFF" d="M172.217,731.334c0,0.356-0.017,0.708-0.048,1.057l3.561-0.243
		c0.045-0.464,0.067-0.935,0.067-1.41c0-5.785-3.407-10.742-8.25-12.818l-1.614,3.021
		C169.663,722.873,172.217,726.803,172.217,731.334z"/>
	<circle fill="none" stroke="#000000" stroke-miterlimit="10" cx="160.096" cy="731.584" r="20.494"/>
	<circle fill="#A4D0C4" cx="142.135" cy="834.024" r="14"/>
	<path opacity="0.7" fill="#FFFFFF" d="M151.152,833.073c0,0.243-0.012,0.483-0.033,0.722l2.433-0.166
		c0.03-0.317,0.046-0.639,0.046-0.964c0-3.952-2.327-7.339-5.636-8.757l-1.103,2.063
		C149.407,827.293,151.152,829.978,151.152,833.073z"/>
	<circle fill="none" stroke="#000000" stroke-miterlimit="10" cx="143.629" cy="834.076" r="14"/>
	<circle fill="#D9EAE5" cx="914.9" cy="293.395" r="27.671"/>
	<circle fill="none" stroke="#000000" stroke-miterlimit="10" cx="914.9" cy="293.519" r="27.671"/>
	<path opacity="0.7" fill="#FFFFFF" d="M932.723,291.639c0,0.481-0.024,0.955-0.066,1.426l4.809-0.329
		c0.061-0.626,0.09-1.262,0.09-1.905c0-7.81-4.599-14.504-11.138-17.307l-2.181,4.079
		C929.272,280.214,932.723,285.519,932.723,291.639z"/>
	<circle fill="#A4D0C4" cx="1586.277" cy="231.994" r="51.662"/>
	<circle fill="none" stroke="#000000" stroke-miterlimit="10" cx="1586.213" cy="231.409" r="51.662"/>
	
		<ellipse transform="matrix(0.7493 0.6622 -0.6622 0.7493 540.4445 -1009.7664)" opacity="0.7" fill="#FFFFFF" cx="1603.879" cy="208.913" rx="15.498" ry="12.627"/>
	<circle fill="#A4D0C4" cx="1701.889" cy="778.98" r="12.701"/>
	
		<ellipse transform="matrix(0.7492 0.6623 -0.6623 0.7492 939.8298 -936.0728)" opacity="0.7" fill="#FFFFFF" cx="1706.011" cy="773.021" rx="3.81" ry="3.104"/>
	<circle fill="none" stroke="#000000" stroke-miterlimit="10" cx="1703.551" cy="778.578" r="12.701"/>
</g>
</svg>
