<?xml version="1.0" encoding="utf-8"?>
<!DOCTYPE svg PUBLIC "-//W3C//DTD SVG 1.1//EN" "http://www.w3.org/Graphics/SVG/1.1/DTD/svg11.dtd">
<svg version="1.1" id="bulles01_02" xmlns="http://www.w3.org/2000/svg" xmlns:xlink="http://www.w3.org/1999/xlink" x="0px"
	 y="0px" width="1908px" height="930px" viewBox="0 0 1908 930" enable-background="new 0 0 1908 930" xml:space="preserve">
<circle fill="#EDBCD7" cx="145.942" cy="491.025" r="21.948"/>
<ellipse transform="matrix(-0.3976 0.9176 -0.9176 -0.3976 649.9105 533.6729)" opacity="0.7" fill="#FFFFFF" enable-background="new    " cx="149.763" cy="480.187" rx="5.12" ry="5.852"/>
<path opacity="0.3" enable-background="new    " d="M161.805,487.764c0.658,2.207,0.885,4.577,0.583,7.012
	c-0.765,6.091-4.633,11.026-9.816,13.438l-0.773,1.671c6.329-2.327,11.173-8.017,12.069-15.171c0.39-3.116-0.026-6.145-1.065-8.892
	L161.805,487.764z"/>
<circle fill="none" stroke="#000000" stroke-miterlimit="10" cx="145.942" cy="491.025" r="21.948"/>
<path fill="#EDBCD7" d="M1678.408,620.894c0,22.887-18.551,41.433-41.433,41.433c-22.88,0-41.427-18.546-41.427-41.433
	c0-22.878,18.547-41.427,41.427-41.427C1659.857,579.467,1678.408,598.016,1678.408,620.894z"/>
<path opacity="0.7" fill="#FFFFFF" enable-background="new    " d="M1654.38,604.944c-2.127,4.897-8.388,6.9-13.979,4.477
	c-5.603-2.427-8.414-8.366-6.292-13.26c2.125-4.9,8.385-6.904,13.98-4.478C1653.686,594.111,1656.5,600.051,1654.38,604.944z"/>
<path opacity="0.3" enable-background="new    " d="M1666.923,614.737c1.241,4.166,1.669,8.64,1.101,13.229
	c-1.441,11.497-8.748,20.818-18.527,25.369l-1.46,3.152c11.944-4.396,21.09-15.13,22.781-28.64
	c0.731-5.881-0.052-11.598-2.016-16.779L1666.923,614.737z"/>
<path fill="none" stroke="#000000" stroke-miterlimit="10" d="M1678.408,620.894c0,22.887-18.551,41.433-41.433,41.433
	c-22.88,0-41.427-18.546-41.427-41.433c0-22.878,18.547-41.427,41.427-41.427C1659.857,579.467,1678.408,598.016,1678.408,620.894z"
	/>
<circle fill="#EDBCD7" cx="1659.202" cy="263.61" r="18.702"/>
<path opacity="0.7" fill="#FFFFFF" enable-background="new    " d="M1667.672,257.145c-1.156,2.116-4.052,2.763-6.468,1.445
	c-2.419-1.318-3.444-4.103-2.292-6.216c1.154-2.118,4.05-2.764,6.469-1.445C1667.798,252.246,1668.822,255.03,1667.672,257.145z"/>
<path opacity="0.3" enable-background="new    " d="M1672.913,262.056c0.39,1.923,0.399,3.952-0.041,5.992
	c-1.116,5.111-4.777,9.005-9.359,10.655l-0.784,1.358c5.549-1.491,10.098-5.947,11.403-11.952c0.568-2.613,0.448-5.216-0.225-7.626
	L1672.913,262.056z"/>
<circle fill="none" stroke="#000000" stroke-miterlimit="10" cx="1659.202" cy="263.61" r="18.702"/>
<circle fill="#EDBCD7" cx="1581.465" cy="775.181" r="16.754"/>
<ellipse transform="matrix(-0.4784 0.8781 -0.8781 -0.4784 3017.3523 -257.5941)" opacity="0.7" fill="#FFFFFF" enable-background="new    " cx="1585.178" cy="767.312" rx="3.909" ry="4.468"/>
<path opacity="0.3" enable-background="new    " d="M1593.748,773.789c0.35,1.723,0.359,3.54-0.036,5.368
	c-0.999,4.578-4.28,8.064-8.385,9.545l-0.702,1.217c4.971-1.336,9.043-5.328,10.215-10.707c0.51-2.342,0.402-4.673-0.201-6.832
	L1593.748,773.789z"/>
<circle fill="none" stroke="#000000" stroke-miterlimit="10" cx="1581.465" cy="775.181" r="16.754"/>
<circle fill="#EDBCD7" cx="249.384" cy="608.751" r="16.104"/>
<ellipse transform="matrix(-0.3977 0.9175 -0.9175 -0.3977 902.4186 609.3191)" opacity="0.7" fill="#FFFFFF" enable-background="new    " cx="251.212" cy="600.861" rx="3.757" ry="4.295"/>
<path opacity="0.3" enable-background="new    " d="M260.023,605.357c0.482,1.616,0.649,3.355,0.427,5.143
	c-0.561,4.469-3.399,8.094-7.202,9.861l-0.568,1.227c4.644-1.708,8.198-5.883,8.856-11.132c0.286-2.287-0.019-4.509-0.783-6.523
	L260.023,605.357z"/>
<circle opacity="0.8" fill="none" stroke="#000000" stroke-miterlimit="10" enable-background="new    " cx="248.124" cy="609.011" r="16.104"/>
<circle fill="#EDBCD7" cx="278.552" cy="195.741" r="64"/>
<circle fill="none" stroke="#000000" stroke-miterlimit="10" cx="278.967" cy="195.313" r="64"/>
<path opacity="0.7" fill="#FFFFFF" enable-background="new    " d="M320.184,190.963c0,1.113-0.052,2.214-0.146,3.302l11.12-0.762
	c0.141-1.448,0.213-2.918,0.213-4.404c0-18.065-10.646-33.544-25.77-40.031l-5.043,9.435
	C312.21,164.542,320.184,176.811,320.184,190.963z"/>
<circle fill="#EDBCD7" cx="781.696" cy="648.387" r="18.546"/>
<path opacity="0.7" fill="#FFFFFF" enable-background="new    " d="M793.639,647.126c0,0.322-0.015,0.642-0.043,0.956l3.225-0.221
	c0.041-0.419,0.063-0.849,0.063-1.276c0-5.234-3.085-9.72-7.467-11.6l-1.461,2.731C791.329,639.47,793.639,643.024,793.639,647.126z
	"/>
<circle fill="none" stroke="#000000" stroke-miterlimit="10" cx="782.604" cy="646.659" r="18.545"/>
<circle fill="#EDBCD7" cx="763.244" cy="244.473" r="23.325"/>
<circle fill="none" stroke="#000000" stroke-miterlimit="10" cx="763.591" cy="244.598" r="23.324"/>
<path opacity="0.7" fill="#FFFFFF" enable-background="new    " d="M778.612,243.012c0,0.406-0.021,0.808-0.056,1.203l4.055-0.277
	c0.051-0.527,0.078-1.063,0.078-1.605c0-6.584-3.884-12.226-9.395-14.59l-1.836,3.438
	C775.707,233.383,778.612,237.855,778.612,243.012z"/>
<circle fill="#EDBCD7" cx="891.105" cy="263.923" r="32.018"/>
<path opacity="0.7" fill="#FFFFFF" enable-background="new    " d="M911.727,261.747c0,0.556-0.024,1.107-0.073,1.65l5.563-0.38
	c0.072-0.726,0.106-1.46,0.106-2.204c0-9.038-5.324-16.781-12.893-20.027l-2.521,4.721
	C907.737,248.529,911.727,254.667,911.727,261.747z"/>
<circle fill="none" stroke="#000000" stroke-miterlimit="10" cx="889.839" cy="264.668" r="32.017"/>
</svg>
