<?xml version="1.0" encoding="utf-8"?>
<!DOCTYPE svg PUBLIC "-//W3C//DTD SVG 1.1//EN" "http://www.w3.org/Graphics/SVG/1.1/DTD/svg11.dtd">
<svg version="1.1" id="bulles01_01" xmlns="http://www.w3.org/2000/svg" xmlns:xlink="http://www.w3.org/1999/xlink" x="0px"
	 y="0px" width="1908px" height="930px" viewBox="0 0 1908 930" enable-background="new 0 0 1908 930" xml:space="preserve">
<circle fill="#EFDAE6" cx="209.319" cy="356.609" r="29.091"/>
<path opacity="0.7" fill="#FFFFFF" enable-background="new    " d="M221.537,345.411c-1.494,3.44-5.889,4.847-9.818,3.143
	c-3.932-1.705-5.909-5.874-4.417-9.313c1.492-3.44,5.886-4.847,9.818-3.142C221.049,337.803,223.026,341.972,221.537,345.411z"/>
<path opacity="0.3" enable-background="new    " d="M230.344,352.286c0.872,2.925,1.173,6.067,0.772,9.29
	c-1.014,8.073-6.142,14.62-13.011,17.814l-1.025,2.215c8.389-3.085,14.81-10.626,15.997-20.108
	c0.517-4.132-0.034-8.145-1.412-11.786L230.344,352.286z"/>
<circle opacity="0.8" fill="none" stroke="#000000" stroke-miterlimit="10" enable-background="new    " cx="209.319" cy="356.609" r="29.091"/>
<circle fill="#EFDAE6" cx="1715.552" cy="198.167" r="27.792"/>
<ellipse transform="matrix(-0.9176 -0.3976 0.3976 -0.9176 3225.8608 1037.7493)" opacity="0.7" fill="#FFFFFF" enable-background="new    " cx="1720.513" cy="184.452" rx="7.412" ry="6.484"/>
<path opacity="0.3" enable-background="new    " d="M1735.639,194.037c0.833,2.795,1.12,5.796,0.738,8.875
	c-0.969,7.713-5.868,13.966-12.431,17.018l-0.979,2.116c8.017-2.947,14.148-10.151,15.283-19.21
	c0.492-3.946-0.033-7.781-1.351-11.259L1735.639,194.037z"/>
<circle fill="none" stroke="#000000" stroke-miterlimit="10" cx="1715.552" cy="198.167" r="27.792"/>
<circle fill="#EFDAE6" cx="1569.449" cy="679.337" r="27.142"/>
<path fill="#FFFFFF" d="M1581.741,669.954c-1.677,3.071-5.88,4.01-9.388,2.098c-3.512-1.913-4.998-5.954-3.325-9.021
	c1.675-3.073,5.878-4.014,9.389-2.1C1581.925,662.844,1583.412,666.885,1581.741,669.954z"/>
<path opacity="0.3" enable-background="new    " d="M1589.349,677.082c0.565,2.791,0.581,5.735-0.06,8.696
	c-1.619,7.418-6.934,13.068-13.584,15.464l-1.138,1.971c8.054-2.163,14.649-8.631,16.55-17.346c0.825-3.793,0.65-7.57-0.326-11.068
	L1589.349,677.082z"/>
<circle fill="none" stroke="#000000" stroke-miterlimit="10" cx="1569.449" cy="679.337" r="27.142"/>
<circle fill="#EFDAE6" cx="180.675" cy="713.977" r="18.052"/>
<circle fill="none" stroke="#000000" stroke-miterlimit="10" cx="179.832" cy="714.521" r="18.052"/>
<path d="M188.836,705.557c0.07-2.436-3.439-4.941-5.803-5.086c0,0-0.933,0.501-1.361,0.859
	C185.54,701.976,187.474,703.623,188.836,705.557z"/>
<path d="M189.982,719.455c1.613-1.31,2.364-5.731,1.934-7.952c0,0-0.707,0.806-1.576,0.859
	C190.985,714.01,190.985,716.231,189.982,719.455z"/>
<circle fill="#EFDAE6" cx="1646.546" cy="760.326" r="16.104"/>
<path d="M1654.579,752.329c0.063-2.173-3.068-4.41-5.178-4.537c0,0-0.831,0.446-1.214,0.767
	C1651.638,749.135,1653.363,750.604,1654.579,752.329z"/>
<path d="M1655.601,764.728c1.439-1.169,2.109-5.111,1.728-7.094c0,0-0.631,0.719-1.406,0.769
	C1656.496,759.87,1656.496,761.852,1655.601,764.728z"/>
<circle fill="none" stroke="#000000" stroke-miterlimit="10" cx="1646.909" cy="760.132" r="16.104"/>
<circle fill="#EFDAE6" cx="1724.73" cy="347.469" r="14.805"/>
<path d="M1732.117,340.117c0.057-1.998-2.821-4.055-4.762-4.171c0,0-0.765,0.41-1.115,0.705
	C1729.413,337.18,1730.999,338.53,1732.117,340.117z"/>
<path d="M1733.056,351.515c1.323-1.075,1.939-4.701,1.587-6.521c0,0-0.578,0.661-1.293,0.705
	C1733.879,347.05,1733.879,348.871,1733.056,351.515z"/>
<circle fill="none" stroke="#000000" stroke-miterlimit="10" cx="1723.718" cy="345.989" r="14.805"/>
<path fill="#EFDAE6" d="M1829.182,561.923c0,23.959-19.418,43.377-43.371,43.377c-23.959,0-43.382-19.418-43.382-43.377
	c0-23.953,19.423-43.376,43.382-43.376C1809.764,518.547,1829.182,537.97,1829.182,561.923z"/>
<path d="M1807.442,540.382c0.17-5.853-8.266-11.879-13.943-12.221c0,0-2.243,1.203-3.271,2.063
	C1799.521,531.776,1804.167,535.735,1807.442,540.382z"/>
<path d="M1810.198,573.778c3.873-3.146,5.678-13.772,4.646-19.108c0,0-1.697,1.938-3.787,2.065
	C1812.604,560.693,1812.604,566.032,1810.198,573.778z"/>
<path fill="none" stroke="#000000" stroke-miterlimit="10" d="M1829.507,560.729c0,23.959-19.418,43.377-43.372,43.377
	c-23.959,0-43.381-19.418-43.381-43.377c0-23.953,19.422-43.378,43.381-43.378C1810.089,517.353,1829.507,536.775,1829.507,560.729z
	"/>
<circle fill="#EFDAE6" cx="825.838" cy="409.602" r="20.671"/>
<path fill="none" stroke="#000000" stroke-miterlimit="10" d="M846.723,409.251c0,11.418-9.253,20.671-20.667,20.671
	c-11.418,0-20.675-9.253-20.675-20.671c0-11.414,9.256-20.67,20.675-20.67C837.47,388.581,846.723,397.837,846.723,409.251z"/>
<path opacity="0.7" fill="#FFFFFF" enable-background="new    " d="M835.181,406.087c-1.778,2.013-5.226,1.875-7.698-0.311
	s-3.035-5.588-1.253-7.601c1.779-2.017,5.229-1.878,7.699,0.308C836.4,400.667,836.963,404.072,835.181,406.087z"/>
<circle fill="#EFDAE6" cx="809.766" cy="301.028" r="27.672"/>
<circle fill="none" stroke="#000000" stroke-miterlimit="10" cx="809.766" cy="301.153" r="27.672"/>
<path opacity="0.7" fill="#FFFFFF" enable-background="new    " d="M827.589,299.273c0,0.481-0.023,0.955-0.067,1.426l4.811-0.329
	c0.061-0.626,0.09-1.262,0.09-1.905c0-7.81-4.598-14.504-11.137-17.307l-2.182,4.079
	C824.139,287.848,827.589,293.153,827.589,299.273z"/>
</svg>
