<?xml version="1.0" encoding="utf-8"?>
<!DOCTYPE svg PUBLIC "-//W3C//DTD SVG 1.1//EN" "http://www.w3.org/Graphics/SVG/1.1/DTD/svg11.dtd">
<svg version="1.1" id="bulles01_03" xmlns="http://www.w3.org/2000/svg" xmlns:xlink="http://www.w3.org/1999/xlink" x="0px"
	 y="0px" width="1908px" height="930px" viewBox="0 0 1908 930" enable-background="new 0 0 1908 930" xml:space="preserve">
<circle fill="#E3A4C1" cx="836.069" cy="168.803" r="49.406"/>
<path opacity="0.7" fill="#FFFFFF" enable-background="new    " d="M864.07,157.105c-4.417,4.998-12.967,4.653-19.104-0.767
	c-6.134-5.422-7.525-13.867-3.106-18.863c4.416-5,12.971-4.657,19.104,0.766C867.097,143.659,868.488,152.106,864.07,157.105z"/>
<circle fill="none" stroke="#000000" stroke-miterlimit="10" cx="835.871" cy="167.946" r="49.406"/>
<circle fill="#E3A4C1" cx="886.144" cy="366.808" r="17.263"/>
<path d="M894.756,358.236c0.067-2.33-3.29-4.728-5.551-4.864c0,0-0.891,0.479-1.302,0.822
	C891.604,354.81,893.453,356.387,894.756,358.236z"/>
<path d="M895.852,372.483c1.543-1.253,2.263-5.481,1.852-7.604c0,0-0.677,0.769-1.509,0.821
	C896.813,367.276,896.813,369.401,895.852,372.483z"/>
<circle fill="none" stroke="#000000" stroke-miterlimit="10" cx="885.896" cy="365.591" r="17.263"/>
<circle fill="#E3A4C1" cx="1736.805" cy="285.65" r="19.35"/>
<path d="M1746.458,276.041c0.075-2.611-3.687-5.299-6.222-5.452c0,0-0.998,0.536-1.459,0.921
	C1742.924,272.203,1744.997,273.968,1746.458,276.041z"/>
<path d="M1747.686,290.939c1.729-1.404,2.534-6.144,2.073-8.524c0,0-0.758,0.864-1.688,0.921
	C1748.762,285.103,1748.762,287.483,1747.686,290.939z"/>
<circle fill="none" stroke="#000000" stroke-miterlimit="10" cx="1736.78" cy="286.429" r="19.35"/>
<circle fill="#E3A4C1" cx="302.006" cy="402.209" r="22.442"/>
<circle fill="none" stroke="#000000" stroke-miterlimit="10" cx="301.695" cy="402.845" r="22.442"/>
<path opacity="0.7" fill="#FFFFFF" enable-background="new    " d="M316.147,401.32c0,0.39-0.02,0.776-0.054,1.158l3.899-0.267
	c0.049-0.508,0.075-1.023,0.075-1.544c0-6.334-3.732-11.762-9.035-14.037l-1.771,3.308
	C313.351,392.056,316.147,396.357,316.147,401.32z"/>
<circle fill="#E3A4C1" cx="1633.551" cy="712.884" r="20.494"/>
<path opacity="0.7" fill="#FFFFFF" enable-background="new    " d="M1646.75,711.491c0,0.354-0.017,0.708-0.048,1.057l3.561-0.243
	c0.046-0.464,0.067-0.935,0.067-1.408c0-5.785-3.407-10.742-8.25-12.818l-1.614,3.021
	C1644.196,703.03,1646.75,706.96,1646.75,711.491z"/>
<circle fill="none" stroke="#000000" stroke-miterlimit="10" cx="1634.629" cy="711.741" r="20.494"/>
<circle fill="#E3A4C1" cx="1616.668" cy="814.182" r="14"/>
<path opacity="0.7" fill="#FFFFFF" enable-background="new    " d="M1625.686,813.229c0,0.242-0.012,0.482-0.031,0.723l2.433-0.166
	c0.03-0.317,0.046-0.639,0.046-0.964c0-3.952-2.327-7.339-5.636-8.757l-1.104,2.063
	C1623.939,807.45,1625.686,810.135,1625.686,813.229z"/>
<circle fill="none" stroke="#000000" stroke-miterlimit="10" cx="1618.163" cy="814.233" r="14"/>
<circle fill="#E3A4C1" cx="88.495" cy="281.317" r="51.662"/>
<circle fill="none" stroke="#000000" stroke-miterlimit="10" cx="88.43" cy="280.732" r="51.662"/>
<ellipse transform="matrix(-0.7493 -0.6622 0.6622 -0.7493 14.5935 521.9844)" opacity="0.7" fill="#FFFFFF" enable-background="new    " cx="106.097" cy="258.23" rx="15.498" ry="12.628"/>
<circle fill="#E3A4C1" cx="204.105" cy="828.304" r="12.701"/>
<ellipse transform="matrix(-0.7492 -0.6623 0.6623 -0.7492 -180.4044 1576.4772)" opacity="0.7" fill="#FFFFFF" enable-background="new    " cx="208.238" cy="822.391" rx="3.81" ry="3.104"/>
<circle fill="none" stroke="#000000" stroke-miterlimit="10" cx="205.768" cy="827.901" r="12.701"/>
</svg>
