<?xml version="1.0" encoding="utf-8"?>
<!DOCTYPE svg PUBLIC "-//W3C//DTD SVG 1.1//EN" "http://www.w3.org/Graphics/SVG/1.1/DTD/svg11.dtd">
<svg version="1.1" id="bulles02_03" xmlns="http://www.w3.org/2000/svg" xmlns:xlink="http://www.w3.org/1999/xlink" x="0px"
	 y="0px" width="1908px" height="930px" viewBox="0 0 1908 930" enable-background="new 0 0 1908 930" xml:space="preserve">
<path fill="#E3A4C1" d="M992.837,134.169c0,27.288-22.12,49.406-49.405,49.406c-27.289,0-49.404-22.118-49.404-49.406
	s22.115-49.407,49.404-49.407C970.717,84.763,992.837,106.881,992.837,134.169z"/>
<path opacity="0.7" fill="#FFFFFF" enable-background="new    " d="M971.432,122.472c-4.416,4.998-12.967,4.653-19.104-0.767
	c-6.133-5.422-7.527-13.867-3.107-18.863c4.416-5,12.973-4.657,19.104,0.766C974.459,109.025,975.851,117.473,971.432,122.472z"/>
<circle fill="none" stroke="#000000" stroke-miterlimit="10" cx="943.233" cy="133.312" r="49.406"/>
<circle fill="#E3A4C1" cx="993.506" cy="332.174" r="17.263"/>
<path d="M1002.118,323.602c0.066-2.33-3.289-4.728-5.551-4.864c0,0-0.893,0.479-1.304,0.822
	C998.966,320.176,1000.815,321.753,1002.118,323.602z"/>
<path d="M1003.214,337.849c1.543-1.253,2.262-5.481,1.852-7.604c0,0-0.679,0.769-1.511,0.821
	C1004.175,332.643,1004.175,334.767,1003.214,337.849z"/>
<circle fill="none" stroke="#000000" stroke-miterlimit="10" cx="993.259" cy="330.957" r="17.264"/>
<circle fill="#E3A4C1" cx="394.5" cy="248.493" r="19.35"/>
<path d="M404.153,238.884c0.075-2.611-3.688-5.299-6.224-5.452c0,0-0.998,0.536-1.459,0.921
	C400.619,235.045,402.692,236.811,404.153,238.884z"/>
<path d="M405.381,253.782c1.729-1.404,2.534-6.144,2.073-8.524c0,0-0.758,0.864-1.689,0.921
	C406.457,247.945,406.457,250.326,405.381,253.782z"/>
<circle fill="none" stroke="#000000" stroke-miterlimit="10" cx="394.475" cy="249.272" r="19.35"/>
<circle fill="#E3A4C1" cx="1712.018" cy="325.886" r="22.442"/>
<circle fill="none" stroke="#000000" stroke-miterlimit="10" cx="1711.707" cy="326.521" r="22.442"/>
<path opacity="0.7" fill="#FFFFFF" enable-background="new    " d="M1726.158,324.997c0,0.39-0.02,0.776-0.051,1.158l3.896-0.267
	c0.05-0.508,0.075-1.023,0.075-1.544c0-6.334-3.732-11.762-9.035-14.037l-1.771,3.308
	C1723.363,315.732,1726.158,320.034,1726.158,324.997z"/>
<circle fill="#E3A4C1" cx="291.247" cy="675.727" r="20.494"/>
<path opacity="0.7" fill="#FFFFFF" enable-background="new    " d="M304.445,674.334c0,0.356-0.019,0.708-0.048,1.057l3.561-0.241
	c0.045-0.466,0.067-0.937,0.067-1.41c0-5.785-3.407-10.742-8.25-12.818l-1.614,3.021
	C301.892,665.873,304.445,669.803,304.445,674.334z"/>
<circle fill="none" stroke="#000000" stroke-miterlimit="10" cx="292.325" cy="674.584" r="20.494"/>
<circle fill="#E3A4C1" cx="274.364" cy="777.024" r="14"/>
<path opacity="0.7" fill="#FFFFFF" enable-background="new    " d="M283.381,776.073c0,0.243-0.012,0.481-0.033,0.722l2.433-0.166
	c0.03-0.317,0.046-0.639,0.046-0.964c0-3.952-2.327-7.339-5.636-8.757l-1.103,2.063
	C281.636,770.293,283.381,772.978,283.381,776.073z"/>
<circle fill="none" stroke="#000000" stroke-miterlimit="10" cx="275.858" cy="777.076" r="14"/>
<circle fill="#E3A4C1" cx="1498.506" cy="204.994" r="51.662"/>
<circle fill="none" stroke="#000000" stroke-miterlimit="10" cx="1498.441" cy="204.409" r="51.662"/>
<ellipse transform="matrix(-0.7493 -0.6622 0.6622 -0.7493 2531.6404 1322.142)" opacity="0.7" fill="#FFFFFF" enable-background="new    " cx="1516.081" cy="181.871" rx="15.498" ry="12.627"/>
<circle fill="#E3A4C1" cx="1614.117" cy="751.98" r="12.701"/>
<ellipse transform="matrix(-0.7492 -0.6623 0.6623 -0.7492 2336.4575 2376.5239)" opacity="0.7" fill="#FFFFFF" enable-background="new    " cx="1618.153" cy="745.923" rx="3.81" ry="3.104"/>
<circle fill="none" stroke="#000000" stroke-miterlimit="10" cx="1615.779" cy="751.578" r="12.701"/>
</svg>
