<?xml version="1.0" encoding="utf-8"?>
<!DOCTYPE svg PUBLIC "-//W3C//DTD SVG 1.1//EN" "http://www.w3.org/Graphics/SVG/1.1/DTD/svg11.dtd">
<svg version="1.1" id="bulles02_02" xmlns="http://www.w3.org/2000/svg" xmlns:xlink="http://www.w3.org/1999/xlink" x="0px"
	 y="0px" width="1908px" height="930px" viewBox="0 0 1908 930" enable-background="new 0 0 1908 930" xml:space="preserve">
<circle fill="#EDBCD7" cx="1555.954" cy="414.702" r="21.948"/>
<ellipse transform="matrix(-0.3976 0.9176 -0.9176 -0.3976 2550.5979 -866.522)" opacity="0.7" fill="#FFFFFF" enable-background="new    " cx="1559.74" cy="403.988" rx="5.12" ry="5.853"/>
<path opacity="0.3" enable-background="new    " d="M1571.816,411.44c0.655,2.207,0.885,4.577,0.583,7.009
	c-0.768,6.091-4.637,11.026-9.816,13.438l-0.772,1.671c6.328-2.324,11.175-8.017,12.068-15.168c0.389-3.116-0.025-6.145-1.066-8.892
	L1571.816,411.44z"/>
<circle fill="none" stroke="#000000" stroke-miterlimit="10" cx="1555.954" cy="414.702" r="21.948"/>
<path fill="#EDBCD7" d="M336.104,583.736c0,22.884-18.551,41.43-41.43,41.43c-22.88,0-41.427-18.546-41.427-41.43
	c0-22.878,18.547-41.43,41.427-41.43C317.553,542.31,336.104,560.858,336.104,583.736z"/>
<path opacity="0.7" fill="#FFFFFF" enable-background="new    " d="M312.075,567.787c-2.127,4.897-8.388,6.903-13.981,4.477
	c-5.6-2.427-8.414-8.366-6.292-13.26c2.125-4.9,8.385-6.904,13.983-4.475C311.381,556.954,314.195,562.894,312.075,567.787z"/>
<path opacity="0.3" enable-background="new    " d="M324.618,577.58c1.241,4.166,1.669,8.64,1.101,13.229
	c-1.441,11.497-8.748,20.818-18.527,25.369l-1.46,3.152c11.944-4.394,21.09-15.13,22.779-28.637
	c0.733-5.884-0.05-11.601-2.014-16.782L324.618,577.58z"/>
<path fill="none" stroke="#000000" stroke-miterlimit="10" d="M336.104,583.736c0,22.884-18.551,41.43-41.43,41.43
	c-22.88,0-41.427-18.546-41.427-41.43c0-22.878,18.547-41.43,41.427-41.43C317.553,542.31,336.104,560.858,336.104,583.736z"/>
<circle fill="#EDBCD7" cx="316.897" cy="226.453" r="18.702"/>
<path opacity="0.7" fill="#FFFFFF" enable-background="new    " d="M325.367,219.988c-1.156,2.116-4.052,2.763-6.468,1.445
	c-2.419-1.318-3.444-4.103-2.292-6.216c1.151-2.118,4.05-2.764,6.469-1.445C325.493,215.089,326.518,217.873,325.367,219.988z"/>
<path opacity="0.3" enable-background="new    " d="M330.608,224.899c0.39,1.923,0.397,3.952-0.041,5.992
	c-1.116,5.111-4.777,9.005-9.359,10.655l-0.784,1.358c5.549-1.491,10.095-5.947,11.403-11.952c0.565-2.613,0.448-5.216-0.228-7.626
	L330.608,224.899z"/>
<circle fill="none" stroke="#000000" stroke-miterlimit="10" cx="316.897" cy="226.453" r="18.702"/>
<circle fill="#EDBCD7" cx="239.161" cy="738.024" r="16.754"/>
<ellipse transform="matrix(-0.4785 0.8781 -0.8781 -0.4785 1000.1338 866.2453)" opacity="0.7" fill="#FFFFFF" enable-background="new    " cx="242.821" cy="730.129" rx="3.909" ry="4.468"/>
<path opacity="0.3" enable-background="new    " d="M251.443,736.632c0.35,1.726,0.359,3.54-0.036,5.368
	c-0.999,4.578-4.28,8.067-8.385,9.545l-0.702,1.217c4.971-1.336,9.043-5.328,10.215-10.707c0.51-2.342,0.402-4.673-0.201-6.832
	L251.443,736.632z"/>
<circle fill="none" stroke="#000000" stroke-miterlimit="10" cx="239.161" cy="738.024" r="16.754"/>
<circle fill="#EDBCD7" cx="1659.396" cy="532.428" r="16.104"/>
<ellipse transform="matrix(-0.3978 0.9175 -0.9175 -0.3978 2803.2056 -790.9045)" opacity="0.7" fill="#FFFFFF" enable-background="new    " cx="1661.173" cy="524.543" rx="3.756" ry="4.295"/>
<path opacity="0.3" enable-background="new    " d="M1670.035,529.034c0.482,1.619,0.646,3.355,0.428,5.143
	c-0.562,4.469-3.4,8.094-7.203,9.861l-0.564,1.227c4.644-1.708,8.195-5.883,8.854-11.132c0.285-2.287-0.02-4.509-0.783-6.521
	L1670.035,529.034z"/>
<circle opacity="0.8" fill="none" stroke="#000000" stroke-miterlimit="10" enable-background="new    " cx="1658.136" cy="532.688" r="16.104"/>
<circle fill="#EDBCD7" cx="1688.563" cy="119.417" r="64"/>
<circle fill="none" stroke="#000000" stroke-miterlimit="10" cx="1688.979" cy="118.989" r="64"/>
<path opacity="0.7" fill="#FFFFFF" enable-background="new    " d="M1730.195,114.64c0,1.113-0.054,2.214-0.148,3.302l11.121-0.762
	c0.141-1.448,0.213-2.918,0.213-4.404c0-18.065-10.645-33.544-25.768-40.031l-5.043,9.435
	C1722.223,88.219,1730.195,100.487,1730.195,114.64z"/>
<circle fill="#EDBCD7" cx="999.058" cy="613.753" r="18.546"/>
<path opacity="0.7" fill="#FFFFFF" enable-background="new    " d="M1011.002,612.492c0,0.322-0.016,0.642-0.043,0.956l3.221-0.224
	c0.041-0.419,0.063-0.846,0.063-1.273c0-5.234-3.084-9.72-7.467-11.603l-1.461,2.734
	C1008.691,604.836,1011.002,608.391,1011.002,612.492z"/>
<circle fill="none" stroke="#000000" stroke-miterlimit="10" cx="999.967" cy="612.025" r="18.545"/>
<circle fill="#EDBCD7" cx="870.606" cy="209.839" r="23.325"/>
<circle fill="none" stroke="#000000" stroke-miterlimit="10" cx="870.953" cy="209.964" r="23.324"/>
<path opacity="0.7" fill="#FFFFFF" enable-background="new    " d="M885.975,208.378c0,0.406-0.019,0.808-0.053,1.203l4.053-0.277
	c0.054-0.527,0.078-1.063,0.078-1.605c0-6.584-3.882-12.226-9.393-14.59l-1.836,3.438
	C883.069,198.75,885.975,203.221,885.975,208.378z"/>
<circle fill="#EDBCD7" cx="998.467" cy="229.289" r="32.018"/>
<path opacity="0.7" fill="#FFFFFF" enable-background="new    " d="M1019.089,227.113c0,0.556-0.026,1.107-0.076,1.65l5.564-0.38
	c0.071-0.726,0.104-1.46,0.104-2.204c0-9.038-5.321-16.781-12.89-20.027l-2.521,4.721
	C1015.099,213.895,1019.089,220.033,1019.089,227.113z"/>
<circle fill="none" stroke="#000000" stroke-miterlimit="10" cx="997.201" cy="230.034" r="32.017"/>
</svg>
