<?xml version="1.0" encoding="utf-8"?>
<!DOCTYPE svg PUBLIC "-//W3C//DTD SVG 1.1//EN" "http://www.w3.org/Graphics/SVG/1.1/DTD/svg11.dtd">
<svg version="1.1" id="Calque_1" xmlns="http://www.w3.org/2000/svg" xmlns:xlink="http://www.w3.org/1999/xlink" x="0px" y="0px"
	 width="300px" height="333px" viewBox="0 0 300 333" enable-background="new 0 0 300 333" xml:space="preserve">
<g id="Background">
	<ellipse fill="#6FA394" cx="158.771" cy="222.98" rx="102.756" ry="102.713"/>
</g>
<g id="Personnage">
	<path fill="#881A1A" d="M242.813,209.977c-6.775-13.547,11.762-44.134-18.367-60.33c1.357-0.271,5.431-0.543,5.431-0.543
		c-16.737-12.205,4.435-46.029-27.774-37.711c-6.149-3.979-12.396-5.966-33.564-7.865c-17.2-1.547-39.808,0.711-56.001,15.281
		c-24.976-6.095-10.025,15.582-24.646,28.391c0.984,0.492,1.642,0.656,4.599,0.656c-28.75,14.944-13.635,52.055-21.028,66.014
		c5.586,0.655,8.572-0.24,8.572-0.24s4.636,53.498,22.007,63.626c-0.248,8.936-2.2,15.996-5.154,24.688
		c9.757,6.641,22.811,13.888,38.244,17.931c25.511,0.854,46.623-2.188,66.418-6.938c3.968-1.938,7.983-4.189,12.041-6.785
		c-3.429-9.424-5.114-23.627-4.794-30.699c18.613-24.608,25.698-53.537,26.963-64.934
		C237.768,210.76,243.174,210.697,242.813,209.977z"/>
	<path d="M225.623,149.551c29.766,15.288,11.579,45.674,18.096,61.408c-8.869,0.996-10.588-0.543-14.656-4.342
		c4.342,2.623,7.601,4.342,12.482,2.715c-6.514-13.294,11.129-41.509-18.094-59.791
		C223.992,149.197,225.623,149.551,225.623,149.551z"/>
	<path fill="#F9C5B5" d="M133.521,114.462c4.706-0.719,8.325-23.508,33.293-22.065c25.322,1.463,20.627,21.709,27.506,25.145
		c3.129,1.564,15.74-7.59,15.469,59.235c13.48,7.5,19.992,16.555,18.545,21.617c-1.688,5.914-10.133,9.395-16.283,16.271
		c-12.984,14.507,2.896,34.362-14.113,39.428c-4.508,1.343-22.801-2.532-37.272-2.17c-14.476,0.361-31.122,6.147-36.912-0.723
		c-5.642-6.7-3.981-18.087-8.687-29.837c-11.217-4.168-24.247-9.953-24.607-18.637c-0.362-8.682,18.637-20.252,18.637-20.252
		S112.581,117.659,133.521,114.462z"/>
	<path fill="#B72025" d="M118.142,210.148c-1.633-1.26,8.865,1.631,21.351-1.625c7.75-2.021,14.478-7.778,20.446-7.599
		c5.971,0.181,7.963,4.339,12.123,3.257c4.162-1.087,9.16-4.608,14.477-2.894c5.607,1.812,5.246,6.151,11.941,7.595
		c6.522,1.408,13.476-2.658,11.218-0.359c-9.949,10.129-10.313,18.445-16.104,22.425c-5.009,3.44-15.379,0.002-25.512,0.002
		c-10.132,0-23.343,5.063-28.951,0.901C133.522,227.693,137.141,224.803,118.142,210.148z"/>
	<path fill="#FFFBFD" d="M138.59,215.575c0,0,12.684-7.673,17.912-8.14c8.145-0.727,11.58,1.082,15.381,1.082
		c3.799,0,9.047-2.709,12.848-1.441c3.801,1.266,10.496,5.785,10.856,7.413c0.362,1.627-0.543,5.426-7.058,7.233
		c3.438,1.625,3.438,4.523-1.447,5.064c-4.885,0.543-9.408,0.723-18.273-0.002c-11.758-0.961-16.285,3.257-23.161,0.184
		C142.836,225.717,143.474,219.915,138.59,215.575z"/>
	<path d="M155.234,151.546c-3.799-19.808-7.324-39.229-19.271-38.797c-22.527,0.813-27.143,56.158-28.229,68.097
		c-9.499,8.141-19.813,14.922-19.27,23.063c0.542,8.138,21.441,16.367,26.597,17.453c-8.322-3.801-20.898-9.588-23.341-16.641
		c-2.442-7.057,12.215-18.721,17.371-22.248c2.171-14.379,6.514-65.655,26.871-66.196
		C147.66,115.965,150.62,136.622,155.234,151.546z"/>
	<path d="M179.119,154.802c3.166-19.807,6.102-38.329,16.049-38.796c17.336-0.814,15.346,48.02,16.251,59.957
		c10.312,7.055,20.019,16.256,18.364,24.239c-1.629,7.868-24.426,11.212-25.873,30.381c-3.619-17.543,21.895-25.317,23.341-31.467
		c1.683-7.146-13.165-18.816-17.461-22.341c-1.808-14.379-0.813-56.433-14.622-57.245
		C185.439,118.958,182.962,139.879,179.119,154.802z"/>
	<path d="M171.792,170.807c10.042,0,13.117,13.657,13.117,13.657s-4.521-10.796-13.117-10.673
		c-12.577,0.182-21.172,12.479-21.172,12.479S157.096,170.807,171.792,170.807z"/>
	<path d="M110.904,216.114c10.495,12.843,3.438,34.364,15.379,39.069c10.692,4.207,17.189-3.621,37.455-2.173
		c20.27,1.447,33.59,5.368,39.447,0.181c6.334-5.604,5.428-11.215,4.523-19.353c-0.904-8.14,0.725-13.928,6.875-21.163
		c-4.342,2.713-9.771,9.586-9.048,21.704c0.726,12.118,0.185,12.662-5.063,17.002c-5.248,4.339-26.6,0.361-36.912-0.543
		c-10.314-0.901-31.857,4.535-36.552,1.81C119.226,248.128,120.856,219.915,110.904,216.114z"/>
	<path d="M159.939,190.789c5.971,0.807,9.41-5.253,5.246-6.667C161.059,182.721,156.563,190.332,159.939,190.789z"/>
	<path d="M177.561,190.971c-4.619,0.787-7.277-5.113-4.06-6.488C176.695,183.111,180.174,190.527,177.561,190.971z"/>
	<path d="M143.445,223.711c0,0,14.942-4.337,27.962-3.796c13.021,0.543,18.75,3.253,18.75,3.253l-0.183-1.625
		c0,0-7.604-3.979-18.91-3.979c-11.311,0-28.136,4.154-28.136,4.154L143.445,223.711z"/>
	<path d="M189.977,208.52c-10.494-5.968-14.295,0.545-20.627-1.086c-18.832-4.838-26.237,7.235-31.848,7.776
		c2.354,2.715,3.801,5.606,4.887,7.78c1.988,10.671,10.71,3.746,26.96,4.883c18.092,1.268,25.514-0.543,21.351-5.969
		C198.76,218.188,197.361,212.719,189.977,208.52z M188.938,221.212c3.754,5.396-2.904,6.103-19.045,5.034
		c-14.496-0.961-24.97,5.243-26.056-3.801c-0.969-1.829-0.979-4.225-3.078-6.514c5.004-0.455,8.144-11.029,29.134-6.924
		c5.705,1.117,10.621-4.014,18.637,0.414C195.404,213.223,196.49,217.925,188.938,221.212z"/>
	<path d="M198.661,208.885c-6.694-1.441-6.333-5.783-11.94-7.595c-5.314-1.717-10.313,1.808-14.476,2.894
		c-4.163,1.084-6.151-3.076-12.125-3.257c-5.972-0.182-12.696,5.577-20.447,7.599c-12.484,3.256-22.983,0.365-21.352,1.625
		c19,14.652,15.381,17.545,20.991,21.703c5.609,4.162,18.819-0.901,28.952-0.901c10.131,0,20.502,3.438,25.514-0.002
		c5.789-3.979,6.15-12.295,16.104-22.425C212.137,206.227,205.186,210.293,198.661,208.885z M192.663,229.878
		c-4.743,3.177-14.563,0.004-24.161,0.004c-9.594,0-22.104,4.67-27.417,0.832c-5.31-3.837-1.151-5.778-19.143-19.296
		c-1.546-1.162,6.632,1.374,18.456-1.627c7.341-1.865,13.887-7.764,19.542-7.598c5.656,0.166,6.613,3.793,10.679,3.615
		c4.159-0.18,10.329-4.875,15.362-3.291c5.313,1.672,6.668,5.994,11.055,7.09c5.066,1.268,8.504,0.184,10.88-0.414
		C198.49,218.538,198.145,226.213,192.663,229.878z"/>
	<path d="M186.721,177.047c0,0,5.424-4.826,11.67-4.613c7.871,0.271,13.028,6.784,24.973-1.355
		c-1.357,5.156-8.223,7.658-13.027,6.785C204.363,176.775,197.85,172.977,186.721,177.047z"/>
	<path d="M145.717,176.775c2.283-2.441-5.71-6.24-13.129-5.43c-7.56,0.83-15.417,6.785-25.121,0
		c1.313,5.156,10.677,6.916,17.699,4.887C131.73,174.334,140.578,174.063,145.717,176.775z"/>
	<path d="M132.437,114.1c11.078-8.146,14.474-26.34,34.379-25.678c21.713,0.725,18.76,22.579,30.037,29.657
		c1.448,0.91-0.183,1.633-2.533,0.36c-11.104-5.998-8.688-24.592-28.59-24.959c-19.913-0.366-19.544,13.465-30.762,20.98
		C133.343,115.553,129.724,116.096,132.437,114.1z"/>
	<path d="M78.697,215.374c1.628,12.835,8.957,53.373,22.708,62.505c0-0.813-0.045-2.396-0.452-2.803
		c-11.31-9.678-18.209-39.385-20.922-61.45C79.42,214.419,78.991,215.027,78.697,215.374z"/>
	<path d="M201.105,111.482c33.476-11.573,11.31,24.326,30.578,38.164c0,0-13.843,2.711-16.558-4.342c0,0,3.256,3.797,13.026,3.256
		c-15.774-11.178,1.629-44.401-28.405-34.816C200.02,113.109,200.924,112.025,201.105,111.482z"/>
	<path d="M209.157,275.256c0,0,25.149-30.385,26.78-65.107l-1.446,0.18c0,0-2.716,34.365-26.06,63.303L209.157,275.256z"/>
	<path d="M115.429,118.809c-31.454-8.66-11.93,18.444-30.037,28.797c0,0,13.006,2.028,15.558-3.248c0,0-3.062,2.842-12.244,2.436
		c14.825-8.361-0.059-33.951,29.255-25.633C117.706,120.688,115.6,119.214,115.429,118.809z"/>
	<path d="M94.834,146.923c-30.604,9.144-18.524,51.938-24.895,67.675c8.672,0.993,10.353-0.543,14.333-4.344
		c-4.246,2.624-7.432,4.344-12.208,2.714c7.773-13.881-7.669-52.141,24.893-66.056C96.426,146.568,94.834,146.923,94.834,146.923z"
		/>
	<path fill="#F9C5B5" d="M181.738,319.6c-8.605-29.613-13.119-57.449-0.812-65.869c-13.024-1.81-26.415-2.53-37.999,0.36
		c-2.479,23.872-3.641,35.8-13.487,64.226C143.99,322.688,161.111,324.037,181.738,319.6z"/>
	<path d="M130.206,318.544c11.853-32.123,13.45-64.815,13.45-64.815l-2.173,0.726c-0.87,24.985-7.22,48.791-12.155,63.823
		C129.621,318.368,129.912,318.458,130.206,318.544z"/>
	<path d="M182.059,319.532c-5.053-17.962-13.84-56.126-0.402-65.443l-3.262-0.36c0,0-16.312,9.791,3.117,65.918
		C181.695,319.607,181.876,319.573,182.059,319.532z"/>
	<path opacity="0.2" enable-background="new    " d="M160.663,251.921c7.722-0.084,20.991,2.168,20.991,2.168
		s-10.314,3.622-8.836,21.356c-11.828,0.982-31.542-6.405-31.542-6.405l2.378-15.313
		C143.655,253.729,149.494,252.042,160.663,251.921z"/>
	<path d="M142.121,321.439c17.583-0.106,35.469-1.91,51.296-4.938c3.558-1.387,7.16-3.017,10.804-4.917
		c-28.365,6.292-52.721,8.079-72.825,7.234C134.846,319.857,138.424,320.749,142.121,321.439z"/>
	<path d="M214.904,305.288c-5.195-10.804-6.738-31.933-4.299-47.937c-5.879,20.072-0.854,39.553,2.439,49.147
		C213.664,306.107,214.286,305.695,214.904,305.288z"/>
	<path d="M96.324,301.559c0.635,0.437,1.284,0.873,1.947,1.313c4.705-13.812,8.862-35.656-4.374-54.203
		C104.311,271.21,100.868,289.098,96.324,301.559z"/>
</g>
<g id="Casque">
	<path fill="#282B33" d="M172.605,10.063c59.711,31.336,117.07,60.916,123.224,64.705c-33.654,12.825-89.931,33.076-89.931,33.076
		l-43.787-21.861l-55.368,26.233L4.692,70.239C4.691,70.239,90.096,41.396,172.605,10.063z"/>
	<path d="M173.33,4.5L3,66.355l0.062,5.155l104.043,41.87l0.724-1.457L7.587,70.334l165.019-58.779l121.598,62.758l-90.301,32.547
		l0.552,1.457L298,75.038v-5.377L173.33,4.5z M172.877,9.111L6.048,68.887L5.957,67.17L173.148,6.4l122.408,64.024l-0.002,1.898
		L172.877,9.111z"/>
	<path fill="#343944" d="M168.912,65.438c-32.003-5.026-58.35,11.322-65.799,51.842c4.806-0.43,7.444,0.522,10.401,2.003
		c1.971-2.464,10.35-11.166,18.399-7.556c28.954-9.729,59.633-3.774,69.661,0.156c1.172-0.369,3.749-1.211,5.654-1.57
		C202.415,92.509,191.242,68.943,168.912,65.438z"/>
	<polygon fill="#343944" points="4.691,70.239 172.605,11.283 295.829,74.768 296.645,69.884 173.148,5.043 4.328,66.628 	"/>
	<g>
		<path d="M112.035,118.79c0.363,0.459,1.431,0.562,2.301,0.819c3.613-2.299,11.006-12.973,16.263-5.418
			c12.321-5.584,59.713-8.703,70.053-0.99c0.402-0.145,0.087-0.646,1.244-0.979c-6.9-8.949-50.599-7.884-69.819-0.822
			C121.892,105.324,117.621,116.326,112.035,118.79z"/>
		<path d="M168.113,63.949c-31.887-4.151-57.712,12.855-65.423,53.613c0.364-0.028,0.736-0.045,1.114-0.057
			c6.927-38.197,34.037-56.238,63.295-51.931c25.854,3.806,36.405,30.893,39.604,44.386c0.354-0.072,0.709-0.143,1.074-0.207
			C203.035,90.326,191.991,67.057,168.113,63.949z"/>
	</g>
	<path opacity="0.2" enable-background="new    " d="M104.972,110.743c0,0,10.513-48.604,53.883-46.636
		c43.369,1.972,47.643,42.365,47.643,42.365s1.971-46.307-47.973-48.604C111.92,55.725,104.972,110.743,104.972,110.743z"/>
</g>
<g id="Meche">
	<path fill="#881A1A" d="M166.248,108.771c-5.787-5.688-17.486-10.728-24.825-8.147c-12.582,4.427-3.34,19.674-33.637,23.56
		C139.264,132.326,171.51,113.945,166.248,108.771z"/>
	<path d="M162.049,112.831c-4.074,4.241-12.979,9.403-24.768,12.546c-12.866,3.43-25.936,0.9-29.495-1.193
		c12.076,1.584,22.218,1.948,31.763-0.805C148.414,120.818,153.721,118.236,162.049,112.831z"/>
	<path fill="#881A1A" d="M191.086,95.725c11.624,3.924,0.217,23.233,33.154,25.448c-24,10.05-48.157-0.854-58.135-12.233
		C166.104,108.938,181.482,92.482,191.086,95.725z"/>
	<path d="M166.104,108.813c3-4.625,14.812-17.603,25.443-13.721c10.629,3.883,2.592,24.635,32.689,26.08
		c-30.965,2.143-23.055-20.102-33.813-23.339C179.66,94.598,172.918,103.339,166.104,108.813z"/>
	<path d="M172.877,111.964c0,0,5.543,8.593,19.277,11.954c13.731,3.359,28.207-0.493,32.086-2.745
		c-14.256,1.354-22.129,3.276-31.91,1.173C185.354,120.848,180.924,118.061,172.877,111.964z"/>
	<path d="M167.598,110.329c-2.74-4.554-18.479-14.99-28.269-10.519c-9.792,4.472-3.859,21.408-31.543,24.371
		c28.467,0.639,23.335-18.279,33.24-22.104C150.936,98.256,161.352,105.104,167.598,110.329z"/>
</g>
<g id="Medaille">
	<path fill="#CC4256" stroke="#000000" stroke-miterlimit="10" d="M41.56,102.204c0,0,4.601-2.298,8.872-3.94
		c0,12.151,5.914,57.803,10.185,72.251c-10.842-3.612-19.714,0-19.714,0L41.56,102.204z"/>
	<path fill="#CC4256" stroke="#000000" stroke-miterlimit="10" d="M30.718,100.893c0,31.527-4.928,58.457-8.543,69.623
		c0,0,8.543-2.953,13.142,0.328c0,0,3.615-66.012,2.3-68.968C36.302,98.921,30.718,69.364,30.718,100.893z"/>
	<path fill="#FFFFFF" stroke="#000000" stroke-miterlimit="10" d="M35.686,73.1c1.109-4.886-3.327-24.099,3.573-19.951
		c-3.859,0.449-1.971,15.147-0.082,20.074C38.357,73.305,35.686,73.1,35.686,73.1z"/>
	<path fill="#FFFFFF" stroke="#000000" stroke-miterlimit="10" d="M44.681,182.339c4.189-36.209,1.971-78.328,0.985-86.703
		c-2.957,2.464-8.132,2.71-12.814,2.464c2.957,12.563,4.189,64.534-3.942,83.748C35.317,180.859,40.492,181.105,44.681,182.339z"/>
	
		<ellipse transform="matrix(0.2157 0.9765 -0.9765 0.2157 115.7585 29.2663)" fill="#CC4256" stroke="#000000" stroke-miterlimit="10" cx="39.661" cy="86.692" rx="17.984" ry="14.441"/>
	
		<ellipse transform="matrix(0.2157 0.9765 -0.9765 0.2157 115.698 31.9416)" fill="#B32026" stroke="#000000" stroke-miterlimit="10" cx="37.966" cy="87.992" rx="17.012" ry="13.816"/>
	
		<ellipse transform="matrix(0.2157 0.9765 -0.9765 0.2157 115.6655 33.3031)" fill="#FFFFFF" stroke="#000000" stroke-miterlimit="10" cx="37.102" cy="88.653" rx="13.469" ry="10.577"/>
	
		<ellipse transform="matrix(0.2157 0.9765 -0.9765 0.2157 115.3321 33.98)" fill="#B32026" stroke="#000000" stroke-miterlimit="10" cx="36.513" cy="88.785" rx="10.419" ry="7.592"/>
	<path fill="#FFFFFF" stroke="#000000" stroke-miterlimit="10" d="M40.283,87.18c0.979,3.894-0.224,7.758-2.68,8.629
		c-2.462,0.873-5.248-1.576-6.228-5.471c-0.977-3.895,0.224-7.759,2.681-8.63C36.518,80.835,39.304,83.284,40.283,87.18z"/>
</g>
<g id="Cadre">
	<path fill="#FFFFFF" stroke="#000000" stroke-miterlimit="10" d="M223.555,139.335c1.025,3.804,2.863,7.246,6.32,9.769
		c0,0-4.07,0.271-5.43,0.543c12.052,6.479,16.313,15.261,17.525,24.333c8.154,14.162,12.82,30.586,12.82,48.102
		c0,53.32-43.251,96.555-96.596,96.555c-53.344,0-96.596-43.232-96.596-96.555c0-17.807,4.828-34.484,13.24-48.805
		c1.743-10.075,6.241-19.493,17.646-25.421c-2.957,0-3.615-0.164-4.599-0.656c2.946-2.58,4.691-5.521,5.804-8.523
		c-24.916,19.283-40.961,49.468-40.961,83.403c0,58.225,47.219,105.421,105.468,105.421c58.248,0,105.468-47.196,105.468-105.422
		C263.666,188.529,247.984,158.643,223.555,139.335z"/>
</g>
</svg>
