<?xml version="1.0" encoding="utf-8"?>
<!DOCTYPE svg PUBLIC "-//W3C//DTD SVG 1.1//EN" "http://www.w3.org/Graphics/SVG/1.1/DTD/svg11.dtd">
<svg version="1.1" id="horloge" xmlns="http://www.w3.org/2000/svg" xmlns:xlink="http://www.w3.org/1999/xlink" x="0px" y="0px"
	 width="240px" height="240px" viewBox="0 0 240 240" enable-background="new 0 0 240 240" xml:space="preserve">
<path fill="#FFFFFF" d="M240,120.488C240,187.031,187.032,240,120.487,240C53.944,240,0,187.031,0,120.488
	C0,53.944,53.944,0,120.486,0C187.03,0,240,53.944,240,120.488z"/>
<path fill="#7F9392" d="M120.487,0C53.944,0,0.001,53.944,0.001,120.488C0.001,187.031,53.945,240,120.487,240
	C187.031,240,240,187.031,240,120.488C240,53.944,187.032,0,120.487,0z M118.05,214.145c-51.995,0-94.147-42.15-94.147-94.145
	s42.152-94.147,94.147-94.147S212.193,68.006,212.193,120S170.045,214.145,118.05,214.145z"/>
<path fill="#010101" d="M120.487,0C53.944,0,0.001,53.944,0.001,120.488C0.001,187.031,53.945,240,120.487,240
	C187.031,240,240,187.031,240,120.488C240,53.944,187.032,0,120.487,0z M119.513,236.1c-64.389,0-116.585-52.201-116.585-116.588
	S55.124,2.927,119.513,2.927c64.389,0,116.583,52.198,116.583,116.585S183.901,236.1,119.513,236.1z"/>
<ellipse cx="119.001" cy="120" rx="10" ry="10"/>
<path fill="#010101" d="M119.001,110c-5.522,0-10.001,4.477-10.001,10c0,5.524,4.477,10,10.001,10c5.522,0,9.999-4.476,9.999-10
	C129,114.477,124.521,110,119.001,110z M119.001,128.826c-4.874,0-8.823-3.951-8.823-8.826c0-4.873,3.95-8.824,8.823-8.824
	c4.871,0,8.82,3.951,8.82,8.824C127.821,124.875,123.872,128.826,119.001,128.826z"/>
<path fill="#010101" d="M106.93,21.464v-0.757l0.106-0.017l0.106-0.034c0.339-0.108,0.639-0.316,0.896-0.617l0.14-0.164l0.212-0.288
	l3.073-3.986l-3.002-4.879c-0.188-0.293-0.373-0.525-0.553-0.696c-0.182-0.168-0.378-0.29-0.588-0.358h-0.123L107.09,9.63V8.822
	h6.462v0.844h-0.088c-0.28,0.033-0.42,0.179-0.42,0.434c0,0.128,0.028,0.25,0.085,0.366l0.141,0.259l1.345,2.195l1.812-2.205
	c0.13-0.162,0.221-0.291,0.268-0.387c0.047-0.097,0.07-0.188,0.07-0.267c0-0.229-0.149-0.361-0.457-0.394h-0.104V8.824h3.159v0.844
	h-0.104h-0.125c-0.199,0.062-0.363,0.138-0.499,0.229c-0.133,0.088-0.278,0.235-0.431,0.438l-0.177,0.19l-0.187,0.201l-2.568,3.226
	l3.422,5.602c0.26,0.433,0.501,0.732,0.723,0.896c0.219,0.163,0.475,0.244,0.754,0.244v0.774h-6.375v-0.74l0.088-0.034
	c0.211-0.081,0.314-0.218,0.314-0.405c0-0.179-0.092-0.414-0.28-0.708l-1.842-2.938l-2.261,2.934l-0.303,0.479
	c-0.037,0.094-0.054,0.17-0.054,0.231c0,0.237,0.151,0.373,0.456,0.406h0.106v0.774h-3.092V21.464z"/>
<path fill="#010101" d="M119.979,21.464V20.62h0.086l0.107-0.054c0.246-0.081,0.408-0.207,0.491-0.376
	c0.081-0.171,0.121-0.46,0.121-0.873v-8.6c0-0.293-0.036-0.511-0.111-0.652c-0.076-0.141-0.227-0.259-0.448-0.352l-0.107-0.052
	h-0.087V8.819h5.603v0.825l-0.104,0.018c-0.446,0.127-0.667,0.479-0.667,1.056v8.846c0,0.529,0.188,0.87,0.56,1.02l0.108,0.036
	h0.087v0.844L119.979,21.464L119.979,21.464z"/>
<path fill="#010101" d="M126.072,21.464V20.62h0.086l0.107-0.054c0.246-0.081,0.408-0.207,0.491-0.376
	c0.081-0.171,0.121-0.46,0.121-0.873v-8.6c0-0.293-0.037-0.511-0.112-0.652c-0.076-0.141-0.226-0.259-0.447-0.352l-0.107-0.052
	h-0.087V8.819h5.603v0.825l-0.104,0.018c-0.445,0.127-0.667,0.479-0.667,1.056v8.846c0,0.529,0.188,0.87,0.56,1.02l0.107,0.036
	h0.087v0.844L126.072,21.464L126.072,21.464z"/>
<path fill="#010101" d="M215.804,123.9v-0.841h0.086l0.107-0.054c0.246-0.078,0.407-0.207,0.491-0.377
	c0.08-0.168,0.121-0.459,0.121-0.873v-8.601c0-0.291-0.038-0.508-0.111-0.649c-0.08-0.141-0.228-0.259-0.449-0.352l-0.107-0.054
	h-0.086v-0.84h5.602v0.825l-0.107,0.015c-0.443,0.129-0.664,0.481-0.664,1.056V122c0,0.529,0.185,0.873,0.561,1.023l0.104,0.035
	h0.091v0.841L215.804,123.9L215.804,123.9z"/>
<path fill="#010101" d="M221.897,123.9v-0.841h0.086l0.107-0.054c0.246-0.078,0.407-0.207,0.491-0.377
	c0.082-0.168,0.122-0.459,0.122-0.873v-8.601c0-0.291-0.037-0.508-0.113-0.649c-0.079-0.141-0.224-0.259-0.447-0.352l-0.107-0.054
	h-0.086v-0.84h5.603v0.825l-0.107,0.015c-0.443,0.129-0.664,0.481-0.664,1.056V122c0,0.529,0.184,0.873,0.56,1.023l0.104,0.035h0.09
	v0.841L221.897,123.9L221.897,123.9z"/>
<path fill="#010101" d="M227.99,123.9v-0.841h0.086l0.107-0.054c0.246-0.078,0.406-0.207,0.49-0.377
	c0.08-0.168,0.121-0.459,0.121-0.873v-8.601c0-0.291-0.037-0.508-0.111-0.649c-0.079-0.141-0.227-0.259-0.448-0.352l-0.107-0.054
	h-0.087v-0.84h5.603v0.825l-0.107,0.015c-0.446,0.129-0.663,0.481-0.663,1.056V122c0,0.529,0.185,0.873,0.561,1.023l0.104,0.035
	h0.09v0.841L227.99,123.9L227.99,123.9z"/>
<path fill="#010101" d="M109.733,220.396v-0.847h5.672v0.847h-0.086c-0.258,0.101-0.386,0.275-0.386,0.521
	c0,0.145,0.034,0.317,0.105,0.528l2.466,7.337l2.629-7.336c0.068-0.198,0.104-0.366,0.104-0.51c0-0.258-0.166-0.439-0.492-0.541
	h-0.086v-0.847h2.789v0.847h-0.104l-0.104,0.049c-0.423,0.143-0.722,0.473-0.896,1.002l-3.792,10.746h-3.197l-3.617-10.744
	c-0.129-0.374-0.281-0.639-0.457-0.793c-0.094-0.093-0.211-0.171-0.352-0.225l-0.106-0.035H109.733z"/>
<path fill="#010101" d="M122.132,232.193v-0.84h0.086l0.108-0.055c0.244-0.078,0.41-0.207,0.49-0.376
	c0.08-0.171,0.125-0.461,0.125-0.876v-8.598c0-0.296-0.042-0.512-0.116-0.65c-0.074-0.143-0.227-0.259-0.447-0.354l-0.104-0.049
	h-0.091v-0.847h5.604v0.829l-0.104,0.019c-0.446,0.126-0.669,0.48-0.669,1.053v8.845c0,0.529,0.188,0.872,0.56,1.021l0.109,0.037
	h0.086v0.84H122.132z"/>
<path fill="#010101" d="M4.096,124.877v-0.841h0.088l0.105-0.054c0.246-0.084,0.409-0.207,0.491-0.377
	c0.081-0.174,0.123-0.459,0.123-0.875v-8.599c0-0.291-0.038-0.511-0.114-0.649c-0.078-0.141-0.227-0.259-0.448-0.352l-0.106-0.054
	H4.147v-0.843h5.602v0.825l-0.105,0.018c-0.446,0.129-0.667,0.481-0.667,1.056v8.845c0,0.529,0.187,0.873,0.56,1.023l0.106,0.035
	h0.088v0.841L4.096,124.877L4.096,124.877z"/>
<path fill="#010101" d="M9.61,124.877v-0.758l0.106-0.016l0.105-0.032c0.34-0.11,0.637-0.315,0.894-0.62l0.142-0.161l0.209-0.291
	l3.075-3.986l-3.003-4.877c-0.188-0.293-0.371-0.525-0.553-0.696c-0.181-0.171-0.378-0.292-0.588-0.361H9.873l-0.105-0.036v-0.808
	h6.463v0.844h-0.087c-0.282,0.036-0.422,0.182-0.422,0.434c0,0.128,0.028,0.25,0.087,0.366l0.14,0.262l1.347,2.192l1.809-2.205
	c0.13-0.161,0.221-0.288,0.268-0.387c0.048-0.097,0.072-0.185,0.072-0.264c0-0.229-0.151-0.361-0.457-0.397h-0.105v-0.844h3.161
	v0.844h-0.106h-0.123c-0.199,0.063-0.366,0.141-0.5,0.229c-0.134,0.088-0.278,0.235-0.431,0.437l-0.178,0.193l-0.187,0.201
	l-2.569,3.223l3.423,5.602c0.259,0.437,0.499,0.732,0.722,0.899c0.22,0.163,0.474,0.242,0.754,0.242v0.773h-6.374v-0.74l0.086-0.033
	c0.211-0.079,0.317-0.219,0.317-0.406c0-0.176-0.094-0.411-0.28-0.709l-1.842-2.934l-2.26,2.93l-0.305,0.48
	c-0.035,0.096-0.053,0.17-0.053,0.23c0,0.237,0.151,0.376,0.456,0.406H12.7v0.774H9.61V124.877z"/>
<ellipse fill="#FFFFFF" cx="26.342" cy="67.317" rx="6.829" ry="6.829"/>
<path fill="#010101" d="M26.342,60.488c-3.772,0-6.83,3.058-6.83,6.83c0,3.77,3.058,6.827,6.83,6.827
	c3.771,0,6.829-3.058,6.829-6.827C33.171,63.546,30.114,60.488,26.342,60.488z M25.855,72.195c-2.965,0-5.367-2.403-5.367-5.365
	c0-2.965,2.401-5.365,5.367-5.365c2.964,0,5.365,2.4,5.365,5.365C31.22,69.792,28.818,72.195,25.855,72.195z"/>
<path fill="#FFFFFF" d="M59.201,23.894c2.97-2.327,7.262-1.806,9.588,1.162c2.328,2.97,1.806,7.261-1.162,9.587
	c-2.968,2.328-7.261,1.808-9.588-1.162C55.711,30.513,56.233,26.219,59.201,23.894z"/>
<path fill="#010101" d="M58.04,33.48c2.327,2.97,6.62,3.49,9.588,1.162c2.968-2.326,3.489-6.618,1.162-9.587
	c-2.327-2.967-6.619-3.488-9.588-1.162C56.233,26.219,55.711,30.513,58.04,33.48z M67.555,26.644
	c1.828,2.333,1.422,5.705-0.912,7.532c-2.333,1.83-5.706,1.419-7.536-0.913c-1.827-2.332-1.418-5.704,0.914-7.534
	C62.354,23.902,65.727,24.311,67.555,26.644z"/>
<path fill="#FFFFFF" d="M171.413,35.491c-3.165-2.046-4.074-6.273-2.025-9.441c2.046-3.168,6.274-4.078,9.441-2.029
	c3.165,2.049,4.074,6.275,2.03,9.441C178.81,36.63,174.584,37.541,171.413,35.491z"/>
<path fill="#010101" d="M180.859,33.462c2.044-3.166,1.137-7.393-2.03-9.441s-7.396-1.139-9.441,2.029
	c-2.049,3.168-1.141,7.396,2.025,9.441C174.584,37.541,178.81,36.63,180.859,33.462z M171.291,26.698
	c1.609-2.49,4.93-3.201,7.416-1.592c2.491,1.608,3.203,4.931,1.596,7.417c-1.609,2.49-4.931,3.204-7.417,1.596
	C170.395,32.511,169.683,29.188,171.291,26.698z"/>
<ellipse fill="#FFFFFF" cx="214.147" cy="70.732" rx="6.829" ry="6.829"/>
<path fill="#010101" d="M214.147,63.903c-3.771,0-6.829,3.058-6.829,6.827c0,3.772,3.059,6.83,6.829,6.83
	c3.771,0,6.829-3.058,6.829-6.83C220.977,66.961,217.919,63.903,214.147,63.903z M213.66,75.61c-2.965,0-5.366-2.403-5.366-5.365
	c0-2.965,2.399-5.368,5.366-5.368c2.962,0,5.363,2.403,5.363,5.368C219.023,73.207,216.621,75.61,213.66,75.61z"/>
<path fill="#FFFFFF" d="M24.884,173.1c-3.733,0.543-7.197-2.044-7.74-5.776c-0.542-3.731,2.044-7.196,5.777-7.74
	c3.731-0.544,7.197,2.041,7.74,5.774C31.202,169.092,28.617,172.559,24.884,173.1z"/>
<path fill="#010101" d="M30.662,165.357c-0.543-3.733-4.01-6.32-7.741-5.774c-3.733,0.544-6.319,4.009-5.777,7.74
	c0.542,3.732,4.006,6.319,7.74,5.776C28.617,172.559,31.202,169.09,30.662,165.357z M19.004,166.559
	c-0.425-2.931,1.606-5.652,4.539-6.082c2.933-0.426,5.655,1.605,6.082,4.541c0.425,2.93-1.606,5.656-4.539,6.081
	C22.155,171.523,19.431,169.494,19.004,166.559z"/>
<path fill="#FFFFFF" d="M60.538,215.951c-3.691-0.783-6.049-4.41-5.268-8.099c0.779-3.688,4.404-6.046,8.096-5.263
	c3.688,0.777,6.046,4.404,5.266,8.093C67.851,214.371,64.227,216.729,60.538,215.951z"/>
<path fill="#010101" d="M68.634,210.682c0.78-3.688-1.578-7.315-5.268-8.092c-3.69-0.783-7.315,1.573-8.095,5.262
	c-0.782,3.688,1.575,7.315,5.268,8.099C64.229,216.729,67.851,214.371,68.634,210.682z M57.28,207.783
	c0.614-2.9,3.461-4.752,6.361-4.141c2.899,0.613,4.752,3.46,4.137,6.362c-0.613,2.901-3.46,4.754-6.36,4.136
	C58.518,213.528,56.667,210.68,57.28,207.783z"/>
<path fill="#FFFFFF" d="M172.203,218.955c-3.733,0.545-7.2-2.047-7.74-5.779c-0.545-3.733,2.04-7.197,5.773-7.736
	c3.733-0.545,7.199,2.042,7.74,5.774C178.521,214.946,175.937,218.41,172.203,218.955z"/>
<path fill="#010101" d="M177.977,211.214c-0.541-3.732-4.007-6.319-7.74-5.774c-3.733,0.539-6.318,4.002-5.773,7.736
	c0.54,3.732,4.007,6.324,7.74,5.779S178.521,214.946,177.977,211.214z M166.323,212.416c-0.427-2.936,1.603-5.656,4.537-6.081
	c2.935-0.427,5.654,1.604,6.081,4.534c0.428,2.937-1.605,5.657-4.536,6.081C169.471,217.377,166.749,215.346,166.323,212.416z"/>
<path fill="#FFFFFF" d="M204.109,169.19c1.658-3.386,5.748-4.788,9.138-3.126c3.387,1.654,4.786,5.746,3.128,9.131
	c-1.658,3.391-5.748,4.791-9.137,3.133C203.854,176.668,202.451,172.582,204.109,169.19z"/>
<path fill="#010101" d="M207.238,178.328c3.389,1.658,7.479,0.258,9.137-3.133c1.658-3.385,0.258-7.477-3.128-9.131
	c-3.39-1.664-7.478-0.26-9.138,3.126C202.451,172.582,203.854,176.668,207.238,178.328z M212.827,168.027
	c2.66,1.307,3.762,4.52,2.46,7.178c-1.305,2.662-4.519,3.762-7.18,2.461c-2.66-1.301-3.762-4.52-2.461-7.176
	C206.951,167.826,210.166,166.729,212.827,168.027z"/>
<path fill="#010101" d="M118.05,25.853c-51.995,0-94.147,42.153-94.147,94.147s42.152,94.145,94.147,94.145
	s94.144-42.15,94.144-94.145S170.045,25.853,118.05,25.853z M117.887,212.197c-50.829,0-92.033-41.209-92.033-92.037
	c0-50.827,41.203-92.03,92.033-92.03c50.827,0,92.033,41.204,92.033,92.03C209.921,170.988,168.714,212.197,117.887,212.197z"/>
</svg>
