<?xml version="1.0" encoding="utf-8"?>
<!DOCTYPE svg PUBLIC "-//W3C//DTD SVG 1.1//EN" "http://www.w3.org/Graphics/SVG/1.1/DTD/svg11.dtd">
<svg version="1.1" id="icone-mail" xmlns="http://www.w3.org/2000/svg" xmlns:xlink="http://www.w3.org/1999/xlink" x="0px" y="0px"
	 width="38px" height="38px" viewBox="0 0 38 38" enable-background="new 0 0 38 38" xml:space="preserve">
<circle fill="#6D809B" cx="18.5" cy="19.5" r="17.5"/>
<path fill="#FFFFFF" d="M20.606,37.933c10.456-0.883,18.218-10.073,17.335-20.531C37.059,6.946,27.867-0.815,17.411,0.067
	S-0.806,10.142,0.076,20.598C0.959,31.055,10.151,38.814,20.606,37.933z M17.341,2.958c9.115-0.77,17.127,5.996,17.897,15.111
	c0.77,9.115-5.996,17.128-15.111,17.897C11.013,36.735,3,29.97,2.23,20.854C1.462,11.74,8.227,3.727,17.341,2.958z"/>
<path fill="#FFFFFF" d="M19,19.063c0,0,11.539-8,7.914-8c-1.677,0-4.665-1-7.665-1c-3.484,0-6.983,1-8.46,1
	C8.039,11.063,19,19.063,19,19.063z"/>
<path fill="#FFFFFF" d="M19.062,21.16l-9.207-5.973c0,0,0,9.666,0,10.5s0.292,1.25,1.208,1.25c0.218,0,3.835-1,7.562-1
	c3.977,0,8.078,1,8.312,1c0.917,0,1.208-0.416,1.208-1.25s0-10.5,0-10.5L19.062,21.16z"/>
</svg>
