<?xml version="1.0" encoding="utf-8"?>
<!DOCTYPE svg PUBLIC "-//W3C//DTD SVG 1.1//EN" "http://www.w3.org/Graphics/SVG/1.1/DTD/svg11.dtd">
<svg version="1.1" id="icone-adresse" xmlns="http://www.w3.org/2000/svg" xmlns:xlink="http://www.w3.org/1999/xlink" x="0px"
	 y="0px" width="38px" height="38px" viewBox="0 0 38 38" enable-background="new 0 0 38 38" xml:space="preserve">
<circle fill="#6D809B" cx="19.5" cy="18.5" r="17.5"/>
<path fill="#FFFFFF" d="M11.089,13.548c0,4.382,8.076,13.695,8.076,13.695s7.924-8.999,7.924-13.695
	C27.089,2.436,11.089,2.514,11.089,13.548z M19.159,16.814c-2.209,0-4-1.792-4-4.001c0-2.208,1.791-3.999,4-3.999
	c2.21,0,4.001,1.791,4.001,3.999C23.16,15.023,21.369,16.814,19.159,16.814z"/>
<path fill="#FFFFFF" d="M19.01,0c-10.494,0-19,8.506-19,19c0,10.493,8.507,19,19,19c10.493,0,19-8.507,19-19
	C38.01,8.506,29.503,0,19.01,0z M19.323,35.125c-9.147,0-16.563-7.416-16.563-16.563C2.76,9.415,10.175,2,19.323,2
	c9.146,0,16.562,7.415,16.562,16.563C35.885,27.709,28.469,35.125,19.323,35.125z"/>
<path fill="#FFFFFF" d="M24.25,25.772c-0.146,0.169-0.291,0.333-0.438,0.497c1.704,0.343,2.803,0.875,2.803,1.474
	c0,1.035-3.273,1.875-7.313,1.875s-7.313-0.84-7.313-1.875c0-0.576,1.016-1.091,2.61-1.435c-0.177-0.197-0.354-0.396-0.531-0.598
	c-2.312,0.608-3.83,1.627-3.83,2.782c0,1.863,3.945,3.375,8.813,3.375s8.813-1.512,8.813-3.375
	C27.865,27.375,26.438,26.387,24.25,25.772z"/>
</svg>
