<?xml version="1.0" encoding="utf-8"?>
<!DOCTYPE svg PUBLIC "-//W3C//DTD SVG 1.1//EN" "http://www.w3.org/Graphics/SVG/1.1/DTD/svg11.dtd">
<svg version="1.1" id="icone-phone" xmlns="http://www.w3.org/2000/svg" xmlns:xlink="http://www.w3.org/1999/xlink" x="0px"
	 y="0px" width="38px" height="38px" viewBox="0 0 38 38" enable-background="new 0 0 38 38" xml:space="preserve">
<circle fill="#6D809B" cx="18.5" cy="19.5" r="17.5"/>
<path fill="#FFFFFF" d="M5.671,32.531c7.474,7.366,19.503,7.281,26.87-0.193c7.366-7.473,7.279-19.502-0.193-26.869
	c-7.473-7.366-19.502-7.28-26.869,0.193C-1.888,13.135-1.801,25.164,5.671,32.531z M30.107,7.297
	c6.514,6.421,6.59,16.908,0.168,23.422c-6.422,6.516-16.908,6.59-23.423,0.168c-6.514-6.42-6.589-16.907-0.167-23.422
	C13.106,0.951,23.594,0.875,30.107,7.297z"/>
<path fill="#FFFFFF" d="M24.061,8c-0.262,0-9.86,0-10.122,0C13.296,8,12.5,8.745,12.5,9.667s0.068,18.329,0.068,19
	c0,0.672,0.568,1.334,1.371,1.334c0.321,0,9.801,0,10.122,0c0.803,0,1.371-0.662,1.371-1.334c0-0.671,0.068-18.078,0.068-19
	S24.703,8,24.061,8z M17.073,9h3.854c0.177,0,0.321,0.225,0.321,0.5c0,0.275-0.145,0.5-0.321,0.5h-3.854
	c-0.177,0-0.321-0.224-0.321-0.5C16.752,9.225,16.896,9,17.073,9z M19,29.5c-0.828,0-1.5-0.672-1.5-1.5s0.672-1.5,1.5-1.5
	s1.5,0.672,1.5,1.5C20.5,28.826,19.827,29.5,19,29.5z M23.508,24.875c0,0.484-0.568,0.963-1.371,0.963c-0.149,0-6.124,0-6.274,0
	c-0.803,0-1.371-0.479-1.371-0.963c0-0.486-0.069-11.958-0.069-12.625c0-0.666,0.797-1.204,1.439-1.204c0.126,0,6.149,0,6.274,0
	c0.643,0,1.439,0.538,1.439,1.204C23.576,12.917,23.508,24.389,23.508,24.875z"/>
</svg>
