<?xml version="1.0" encoding="utf-8"?>
<!DOCTYPE svg PUBLIC "-//W3C//DTD SVG 1.1//EN" "http://www.w3.org/Graphics/SVG/1.1/DTD/svg11.dtd">
<svg version="1.1" xmlns="http://www.w3.org/2000/svg" xmlns:xlink="http://www.w3.org/1999/xlink" x="0px" y="0px" width="434px"
	 height="439px" viewBox="0 0 434 439" enable-background="new 0 0 434 439" xml:space="preserve">
<g id="Circle">
	<path fill="#272B33" d="M409.659,244.153c0,106.318-86.182,192.5-192.5,192.5c-106.317,0-192.5-86.182-192.5-192.5
		c0-106.317,86.183-192.5,192.5-192.5C323.478,51.653,409.659,137.836,409.659,244.153z"/>
	<circle fill="#272B33" cx="217.16" cy="244.153" r="185.371"/>
</g>
<g id="Chien">
	<path fill="#828D9E" d="M89.216,297.198c10.554-22.861,28.808-48.748,48.942-56.346C73.03,189.269,9.648,119.656,1,35.839
		c27.168-21.855,102.044,13.433,128.305,26.295c33.823-2.861,39.028-23.727,75.947-33.219c-1.216-3.805-6.418-18.19,7.696-21.358
		c17.573-3.946,40.791,14.377,45.179,18.011c48.185,7.384,55.481,46.695,55.309,52.195c-0.181,5.717,0.032,10.382,1.059,15.561
		c7.07-0.35,15.885,8.657,14.384,16.02c2.477,1.147,4.587,2.752,6.145,4.865c0.529,0.277,1.061,0.613,1.593,1.051
		c2.789,2.281,4.72,5.887,5.784,9.765c3.338,0.671,12.907,3.333,16.452,17.29c1.808,7.111,0.3,11.436-3.079,15.117
		c1.744,15.007-4.829,29.586-11.7,36.131c-3.331,3.169-8.942,8.026-17.713,12.344c0.443,6.218,2.538,33.389,5.904,40.791
		c3.788,8.333-10.666,9.555-8.587,14.491c2.666,6.334,16.904,46.831,6.306,67.759c-5.61,11.073-9.384,48.58-0.135,67.671
		C329.848,396.618,54.513,439.646,89.216,297.198z M278.021,391.101 M174.16,330.496 M111.447,327.131 M129.446,62.206"/>
	<path opacity="0.4" d="M259.133,24.982c7.938,1.758-30.514-22.824-45.916-18.634c-15.4,4.19-6.322,21.627-6.322,21.627
		S240.748,20.909,259.133,24.982z"/>
	<path d="M319.109,107.167c-2.845-3.894-5.5-9.19-5.74-14.854c7.388-1.802,17.851,8.399,15.691,16.334
		C326.473,107.66,323.203,107.083,319.109,107.167z"/>
	<path fill="#FBC4AD" d="M339.444,139.273c-3.061,1.956-24.639,3.437-31.12-11.534c-6.433-14.861,12.007-10.686,16.995-13.409
		c4.695-2.563,11.344-5.229,15,0.32C346.024,123.302,347.572,134.074,339.444,139.273z"/>
	<path d="M252.811,124.92c-2.661-3.327-9.537-11.533-21.292-8.207c-14.862,4.207-19.079,21.738-16.193,26.174
		c2.883,4.437,15.306,11.535,29.278,3.772C258.579,138.895,255.459,128.23,252.811,124.92z"/>
	<path d="M325.184,112.884c3.736-1.245,9.174-3.825,14.059,0.168c9.664,7.912,11.057,23.804,1.19,28.719
		c-4.879,2.433-26.485,4.021-34.162-12.916C299.048,112.917,317.198,115.547,325.184,112.884z M310.256,128.886
		c7.785,12.613,22.342,11.673,29.052,10.063c6.15-1.476,7.58-16.465-0.065-22.14c-4.641-3.442-9.334-0.268-12.883,0.805
		C318.765,119.908,302.39,116.138,310.256,128.886z"/>
	<path d="M340.319,158.076c11.149,3.825,19.023-6.587,16.806-15.141c-2.298-8.856-5.047-13.917-12.364-15.858
		c-0.964-0.255-0.5-3.262-0.5-3.263c3.328,0.666,11.313,3.317,14.861,17.291c3.548,13.977-5.66,23.458-16.86,20.069
		c-11.423,22.356-54.181,42.487-81.797,34.168C279.431,199.833,324.684,185.194,340.319,158.076z"/>
	<path fill="#FFFFFF" d="M250.98,131.346c-1.442-1.72-4.169-2.434-4.859-3.266c-0.363-1.664,0.338-3.778-1.573-5.607
		C248.043,122.972,251.368,126.049,250.98,131.346z"/>
	<path d="M335.996,114.043c-7.541-12.422-32.274-9.538-44.809,0.887c12.199-5.102,34.048-11.313,39.818-2.107
		C332.891,113.711,335.996,114.043,335.996,114.043z"/>
	<path fill="#FFFFFF" d="M325.931,107.083c-0.195-4.005-3.309-7.375-6.904-9.564c1.789-0.915,5.074,1.081,6.407,2.953
		c1.02,1.436,2.468,4.776,1.073,6.785C326.318,107.195,326.124,107.141,325.931,107.083z"/>
	<path d="M313.702,76.556c0.198-6.275-9.318-56.564-78.191-53.238c-68.877,3.328-62.887,32.276-103.479,37.6
		c41.364,2.22,36.268-30.999,102.814-33.327c60.883-2.131,74.653,37.935,74.253,48.633c-0.665,17.801,6.934,27.283,10.427,31.444
		C314.368,94.19,313.369,87.204,313.702,76.556z"/>
	<path d="M259.133,24.982c0,0-26.432-23.008-45.916-18.634c-16.305,3.661-8.981,22.293-8.981,22.293l2.66-0.666
		c0,0-7.985-18.3,7.987-19.964c18.937-1.973,40.924,16.97,40.924,16.97H259.133z"/>
	<path d="M355.959,157.078c1.996,15.304-2.661,29.279-9.648,35.935c-6.987,6.654-25.287,19.797-57.729,22.791
		c21.127-5.155,36.267-7.652,51.737-22.127c13.747-12.857,13.645-29.279,11.98-33.272
		C353.629,159.406,355.959,157.078,355.959,157.078z"/>
	<path d="M130.366,234.936C66.482,187.024,9.917,118.48,1.268,34.632C31.876,10.01,124.8,57.429,137.022,64.577
		C112.209,57.233,17.746,16.443,7.256,39.289C9.252,56.592,19.899,139.774,130.366,234.936z"/>
	<path d="M319.772,262.233c-0.757-10.606,12.973-9.092,9.939-13.637c-3.028-4.544-6.154-42.322-6.154-42.322l4.64-2.369
		c0,0,2.272,34.846,6.062,43.176c3.788,8.334-11.169,10.215-9.091,15.152c2.668,6.333,15.681,44.578,5.082,65.506
		c-5.697,11.248-8.855,49.916,0.939,68.701c-0.536,0.335-1.744,0.737-2.55,0.938c-6.725-12.661-12.438-51.073-2.817-70.847
		C333.068,311.639,327.431,275.681,319.772,262.233z"/>
	<path d="M84.493,305.153c9.333-24.667,30.667-57.667,53-64.667c-23.667,14-43,47.667-49.667,67.334
		C86.937,307.236,85.413,305.674,84.493,305.153z"/>
	<path opacity="0.4" d="M325.822,205.906c0,0-26.436,14.089-68.298,9.794c44.011,18.25,68.835,4.159,68.835,4.159L325.822,205.906z"
		/>
</g>
<g id="Mousse">
	<path fill="#A4D0C4" d="M39.021,295.575c22.292,77.359,93.604,133.949,178.138,133.949c90.954,0,166.602-65.51,182.353-151.918
		c-23.415-19.944-63.604,3.142-61.624,30.869c-28.994-40.081-98.389,0.319-74.213,40.083c-25.536-20.811-54.102,3.779-55.373,22.609
		c-8.398-19.311-36.546-19.81-50.9-4.728c-4.158-6.711-14.05-26.51-46.657-6.301C120.151,328.291,78.952,285.096,39.021,295.575z"/>
	<path d="M67.736,312.6c-3.675,0.099-6.573,3.156-6.476,6.827c0.097,3.676,3.154,6.574,6.829,6.477
		c3.674-0.097,6.572-3.153,6.475-6.828C74.466,315.402,71.41,312.503,67.736,312.6z M68.039,324.003
		c-2.625,0.071-4.808-1.999-4.878-4.627c-0.069-2.621,2.001-4.807,4.626-4.876c2.625-0.069,4.807,2.002,4.877,4.626
		C72.733,321.751,70.663,323.935,68.039,324.003z"/>
	<path d="M336.62,304.834c-30.104-36.915-96.171,2.535-76.267,39.74c-26.084-12.964-46.997,5.415-51.869,22.604
		c-8.753-11.804-37.905-18.774-51.313-0.661c-0.393-1.949-10.359-28.253-44.393-9.297c3.931-23.394-20.784-69.022-74.589-64.652
		c0.386,1.43,0.789,2.852,1.207,4.267c31.684-4.834,81.116,28.121,65.957,72.758c24.032-36.082,74.415-4.077,34.172,23.174
		c17.11,0.95,22.814,14.576,14.9,25.862c0.611,0.22,1.225,0.435,1.839,0.648c11.779-15.736-2.15-26.611-9.955-28.369
		c7.588-5.527,11.503-13.238,11.25-20.918c7.948-16.199,58.332-20.953,54.876,25.983c4.564-9.555,0.276-21.837-2.881-26.507
		c16.793-41.659,64.641-28.984,65.433,9.348c16.002-27.875,47.055-8.863,44.997,8.724c4.91-13.15,18.854-18.22,25.74-9.857
		c0.447-0.43,0.89-0.866,1.332-1.301c-3.783-7.379-20.261-8.33-25.965,5.614c1.902-17.112-33.904-30.737-44.6-8.317
		c-0.907-12.3-4.901-20.624-13.705-26.697c-19.487-45.789,54.187-72.882,75.1-36.917c10.14-50.381,54.502-39.136,60.957-28.975
		c0.226-1.115,1.103-3.016,1.309-4.139C394.606,267.283,346.601,256.668,336.62,304.834z"/>
	<path d="M361.392,289.98c-3.041-0.818-6.17,0.983-6.988,4.024c-0.817,3.04,0.983,6.169,4.021,6.989
		c3.041,0.817,6.17-0.983,6.992-4.023C366.233,293.931,364.431,290.799,361.392,289.98z M364.04,296.601
		c-0.617,2.279-2.963,3.629-5.244,3.017c-2.279-0.616-3.628-2.961-3.018-5.241c0.616-2.281,2.963-3.631,5.243-3.02
		C363.3,291.972,364.651,294.32,364.04,296.601z"/>
	<path d="M259.561,380.097c-7.872,0.209-14.085,6.761-13.877,14.632c0.208,7.872,6.759,14.085,14.632,13.877
		c7.871-0.21,14.083-6.759,13.876-14.631C273.982,386.102,267.432,379.889,259.561,380.097z M260.265,406.705
		c-6.823,0.18-12.501-5.205-12.681-12.028c-0.181-6.821,5.204-12.498,12.028-12.679c6.82-0.181,12.498,5.203,12.68,12.027
		C272.47,400.848,267.087,406.523,260.265,406.705z"/>
	<path d="M318.057,310.069c-10.497,0.276-18.78,9.013-18.504,19.509c0.278,10.496,9.013,18.781,19.509,18.503
		c10.498-0.278,18.78-9.013,18.502-19.509C337.286,318.076,328.554,309.79,318.057,310.069z M319.01,346.179
		c-9.444,0.253-17.305-7.203-17.557-16.652c-0.249-9.445,7.205-17.308,16.654-17.557c9.448-0.251,17.306,7.205,17.556,16.653
		C335.913,338.069,328.46,345.931,319.01,346.179z"/>
	<path d="M259.633,384.688c-2.968,0.078-5.318,2.553-5.239,5.527c0.079,2.974,2.556,5.321,5.525,5.241
		c2.973-0.079,5.322-2.552,5.244-5.527C265.084,386.952,262.607,384.61,259.633,384.688z M259.889,394.349
		c-2.357,0.063-4.326-1.802-4.387-4.165c-0.065-2.36,1.807-4.325,4.166-4.388c2.355-0.062,4.326,1.798,4.386,4.164
		C264.119,392.323,262.249,394.284,259.889,394.349z"/>
	<path d="M322.536,316.719c-2.978,0.079-5.321,2.556-5.242,5.528s2.552,5.32,5.527,5.241c2.977-0.079,5.321-2.554,5.241-5.528
		C327.985,318.989,325.512,316.64,322.536,316.719z M322.791,326.379c-2.364,0.065-4.327-1.799-4.39-4.162
		c-0.063-2.359,1.799-4.328,4.163-4.39c2.366-0.063,4.329,1.803,4.39,4.164C327.019,324.354,325.156,326.318,322.791,326.379z"/>
</g>
<g id="Bulle">
	<circle fill="#A4D0C4" cx="391.353" cy="43.5" r="36.281"/>
	<path d="M391.353,3c-22.367,0-40.5,18.13-40.5,40.5c0,22.369,18.133,40.5,40.5,40.5c22.369,0,40.5-18.131,40.5-40.5
		C431.853,21.13,413.722,3,391.353,3z M391.353,79.781c-20.037,0-36.281-16.243-36.281-36.282c0-20.038,16.244-36.281,36.281-36.281
		c20.039,0,36.281,16.243,36.281,36.281C427.634,63.538,411.392,79.781,391.353,79.781z"/>
	<path d="M410.077,24.853c0.149-5.065-7.15-10.28-12.068-10.578c0,0-1.938,1.043-2.832,1.788
		C403.223,17.404,407.246,20.83,410.077,24.853z"/>
	<path d="M412.461,53.757c3.356-2.722,4.917-11.918,4.023-16.537c0,0-1.469,1.674-3.277,1.788
		C414.548,42.435,414.548,47.053,412.461,53.757z"/>
</g>
</svg>
