<?xml version="1.0" encoding="utf-8"?>
<!DOCTYPE svg PUBLIC "-//W3C//DTD SVG 1.1//EN" "http://www.w3.org/Graphics/SVG/1.1/DTD/svg11.dtd">
<svg version="1.1" id="logo" xmlns="http://www.w3.org/2000/svg" xmlns:xlink="http://www.w3.org/1999/xlink" x="0px" y="0px"
	 width="440px" height="440px" viewBox="0 0 440 440" enable-background="new 0 0 440 440" xml:space="preserve">
<path fill="#272B33" d="M413.708,244.299c0,105.418-86.013,190.877-192.122,190.877c-106.107,0-192.121-85.459-192.121-190.877
	c0-105.428,86.014-190.886,192.121-190.886C327.695,53.413,413.708,138.871,413.708,244.299z"/>
<path fill="#272B33" d="M406.584,244.299c0,101.518-82.818,183.814-184.998,183.814c-102.171,0-185.001-82.299-185.001-183.814
	c0-101.512,82.83-183.81,185.001-183.81C323.766,60.489,406.584,142.787,406.584,244.299z"/>
<path fill="#6D809B" d="M142.74,241.021c-20.092,7.541-45.573,43.429-50.723,65.463c17.739,13.39,28.693,34.906,23.365,52.828
	c32.543-20.039,42.412-0.41,46.562,6.244c14.325-14.955,42.425-14.459,50.8,4.688c1.271-18.676,29.783-43.053,55.263-22.421
	c-23.015-37.616,38.929-75.746,69.812-44.675c-1.271-18.521-8.152-37.771-9.918-41.959c-2.082-4.897,12.34-6.109,8.561-14.373
	c-3.359-7.344-5.447-34.282-5.891-40.446c8.754-4.282,14.354-9.099,17.68-12.238c6.864-6.49,13.417-20.943,11.682-35.832
	c3.366-3.646,4.869-7.935,3.063-14.988c-3.536-13.84-13.086-16.474-16.414-17.142c-1.064-3.851-2.988-7.422-5.771-9.682
	c-0.538-0.438-1.064-0.768-1.593-1.046c-1.552-2.09-3.661-3.684-6.133-4.817c1.491-7.3-7.299-16.234-14.355-15.89
	c-1.022-5.13-1.239-9.76-1.058-15.426c0.168-5.456-7.104-44.43-55.2-51.759c-4.371-3.602-27.55-21.768-45.083-17.859
	c-14.087,3.146-8.901,17.407-7.685,21.181c-36.84,9.413-42.041,30.1-75.8,32.937C107.698,51.053,32.972,16.062,5.853,37.736
	C14.485,120.844,77.747,189.877,142.74,241.021z"/>
<path opacity="0.4" fill="#231F20" enable-background="new    " d="M263.475,26.972c7.926,1.744-30.447-22.633-45.825-18.477
	c-15.374,4.151-6.305,21.442-6.305,21.442S245.123,22.934,263.475,26.972z"/>
<path d="M323.333,108.462c-2.836-3.86-5.495-9.115-5.728-14.729c7.369-1.782,17.816,8.334,15.666,16.198
	C330.683,108.955,327.421,108.377,323.333,108.462z"/>
<path fill="#E3A4C1" d="M343.629,140.295c-3.057,1.942-24.592,3.41-31.063-11.435c-6.418-14.735,11.982-10.595,16.959-13.296
	c4.688-2.537,11.324-5.181,14.977,0.318C350.197,124.464,351.748,135.142,343.629,140.295z"/>
<path d="M257.165,126.061c-2.653-3.29-9.522-11.435-21.248-8.129c-14.837,4.168-19.042,21.553-16.163,25.954
	c2.88,4.396,15.273,11.438,29.217,3.738C262.93,139.923,259.802,129.35,257.165,126.061z"/>
<path d="M329.39,114.13c3.741-1.227,9.162-3.786,14.036,0.169c9.647,7.847,11.035,23.604,1.193,28.479
	c-4.877,2.411-26.438,3.99-34.093-12.801C303.318,114.165,321.429,116.771,329.39,114.13z M314.499,130.001
	c7.775,12.506,22.294,11.569,28.99,9.981c6.147-1.464,7.567-16.331-0.063-21.958c-4.63-3.412-9.313-0.27-12.855,0.8
	C322.995,121.094,306.645,117.358,314.499,130.001z"/>
<path d="M344.502,158.953c11.127,3.786,18.982-6.542,16.773-15.022c-2.293-8.78-5.038-13.797-12.338-15.726
	c-0.966-0.256-0.508-3.235-0.508-3.235c3.326,0.662,11.295,3.292,14.838,17.15c3.541,13.857-5.643,23.259-16.828,19.893
	c-11.402,22.169-54.078,42.135-81.635,33.882C283.732,200.347,328.896,185.833,344.502,158.953z"/>
<path fill="#FFFFFF" d="M255.34,132.443c-1.432-1.709-4.16-2.415-4.846-3.24c-0.365-1.654,0.334-3.754-1.572-5.559
	C252.412,124.132,255.729,127.194,255.34,132.443z"/>
<path d="M340.195,115.283c-7.532-12.322-32.224-9.46-44.729,0.877c12.18-5.058,33.98-11.217,39.742-2.084
	C337.084,114.951,340.195,115.283,340.195,115.283z"/>
<path fill="#FFFFFF" d="M330.144,108.377c-0.196-3.975-3.3-7.308-6.896-9.475c1.787-0.909,5.07,1.066,6.396,2.918
	c1.018,1.428,2.465,4.744,1.076,6.733C330.537,108.493,330.337,108.438,330.144,108.377z"/>
<path d="M317.939,78.118c0.203-6.232-9.304-56.093-78.039-52.799C171.161,28.628,177.137,57.33,136.625,62.6
	c41.284,2.205,36.197-30.729,102.613-33.038c60.757-2.116,74.507,37.611,74.104,48.222c-0.656,17.647,6.924,27.049,10.411,31.172
	C318.603,95.598,317.605,88.669,317.939,78.118z"/>
<path d="M263.475,26.972c0,0-26.373-22.81-45.825-18.477c-16.271,3.626-8.958,22.102-8.958,22.102l2.653-0.66
	c0,0-7.965-18.144,7.969-19.795c18.897-1.949,40.851,16.829,40.851,16.829L263.475,26.972L263.475,26.972z"/>
<path d="M360.113,157.957c1.992,15.176-2.66,29.028-9.625,35.633c-6.979,6.59-25.236,19.625-57.62,22.596
	c21.089-5.11,36.204-7.59,51.634-21.938c13.717-12.751,13.621-29.033,11.961-32.991C357.789,160.27,360.113,157.957,360.113,157.957
	z"/>
<path d="M134.96,235.163C71.203,187.651,14.753,119.684,6.116,36.543c30.546-24.421,123.298,22.604,135.486,29.688
	c-24.761-7.279-119.04-47.725-129.508-25.069C14.092,58.314,24.713,140.797,134.96,235.163z"/>
<path d="M89.182,304.787c9.316-24.461,30.604-57.184,52.89-64.127c-23.615,13.888-42.91,47.266-49.558,66.766
	C91.622,306.844,90.1,305.305,89.182,304.787z"/>
<path opacity="0.4" fill="#231F20" enable-background="new    " d="M330.036,206.371c0,0-26.384,13.972-68.159,9.712
	c43.913,18.101,68.691,4.13,68.691,4.13L330.036,206.371z"/>
<path fill="#EFDAE6" d="M43.801,295.286c22.248,76.708,93.417,132.827,177.785,132.827c90.775,0,166.28-64.965,181.995-150.643
	c-23.371-19.777-63.479,3.109-61.501,30.609c-28.943-39.74-98.197,0.313-74.073,39.742c-25.479-20.633-53.993,3.744-55.263,22.421
	c-8.375-19.147-36.475-19.646-50.8-4.688c-4.149-6.654-14.019-26.283-46.562-6.244C124.771,327.727,83.65,284.896,43.801,295.286z"
	/>
<path d="M338.478,303.818c-0.649-18.26-7.275-37.309-9.093-41.594c-2.069-4.898,12.847-6.764,9.065-15.024
	c-3.779-8.259-6.04-42.813-6.04-42.813l-4.634,2.35c0,0,3.113,37.464,6.142,41.964c3.025,4.512-10.682,3.004-9.921,13.523
	c4.383,7.646,8.091,22.633,9.103,36.808C334.984,300.406,336.771,302.02,338.478,303.818z"/>
<path d="M72.46,312.169c-3.669,0.091-6.56,3.128-6.463,6.771c0.094,3.642,3.145,6.521,6.808,6.422
	c3.677-0.096,6.561-3.127,6.464-6.771C79.178,314.951,76.126,312.076,72.46,312.169z M72.756,323.475
	c-2.617,0.068-4.797-1.979-4.865-4.582c-0.067-2.604,1.993-4.77,4.619-4.841c2.616-0.069,4.794,1.987,4.865,4.593
	C77.443,321.25,75.383,323.409,72.756,323.475z"/>
<path d="M340.809,304.475c-30.041-36.605-95.977,2.51-76.11,39.401c-26.033-12.858-46.903,5.368-51.768,22.412
	c-8.741-11.704-37.829-18.616-51.209-0.657c-0.391-1.931-10.343-28.016-44.308-9.22c3.927-23.193-20.744-68.442-74.446-64.109
	c0.386,1.418,0.787,2.834,1.207,4.237c31.63-4.796,80.956,27.887,65.829,72.139c23.979-35.777,74.265-4.037,34.105,22.983
	c17.074,0.942,22.769,14.454,14.872,25.642c0.614,0.215,1.222,0.43,1.833,0.646c11.758-15.613-2.151-26.391-9.931-28.135
	c7.568-5.485,11.483-13.125,11.231-20.736c7.927-16.061,58.215-20.776,54.764,25.764c4.555-9.479,0.271-21.656-2.882-26.281
	c16.766-41.313,64.512-28.748,65.313,9.26c15.963-27.633,46.954-8.778,44.897,8.656c4.9-13.043,18.82-18.064,25.688-9.775
	c0.453-0.422,0.886-0.859,1.331-1.279c-3.772-7.32-20.226-8.271-25.909,5.557c1.899-16.965-33.841-30.473-44.519-8.248
	c-0.896-12.188-4.882-20.445-13.669-26.465c-19.454-45.406,54.079-72.272,74.951-36.607c10.115-49.959,54.394-38.813,60.832-28.738
	c0.227-1.098,1.1-2.982,1.303-4.102C398.688,267.236,350.768,256.713,340.809,304.475z"/>
<path d="M365.536,289.734c-3.044-0.809-6.158,0.979-6.983,3.996c-0.812,3.014,0.985,6.115,4.018,6.927
	c3.042,0.813,6.158-0.974,6.977-3.987C370.363,293.654,368.572,290.555,365.536,289.734z M368.178,296.303
	c-0.611,2.262-2.959,3.596-5.23,2.987c-2.271-0.606-3.624-2.933-3.009-5.188c0.606-2.268,2.949-3.606,5.228-3
	C367.436,291.717,368.786,294.041,368.178,296.303z"/>
<path d="M252.229,370.09c-8.129,0.215-14.545,6.934-14.33,15.014c0.217,8.08,6.988,14.451,15.115,14.238
	c8.129-0.213,14.549-6.938,14.332-15.008C267.119,376.254,260.369,369.873,252.229,370.09z M252.961,397.395
	c-7.053,0.188-12.91-5.342-13.1-12.35c-0.188-6.999,5.373-12.813,12.42-13.008c7.053-0.184,12.922,5.342,13.099,12.352
	C265.568,391.387,260.003,397.212,252.961,397.395z"/>
<path d="M322.284,309.659c-10.47,0.274-18.739,8.937-18.46,19.343c0.272,10.411,8.983,18.622,19.455,18.348
	c10.486-0.27,18.756-8.933,18.477-19.338C341.477,317.6,332.76,309.38,322.284,309.659z M323.236,345.465
	c-9.42,0.247-17.271-7.139-17.52-16.512c-0.253-9.361,7.188-17.166,16.613-17.41c9.432-0.247,17.267,7.15,17.529,16.512
	C340.104,337.422,332.663,345.218,323.236,345.465z"/>
<path d="M252.311,374.8c-3.076,0.081-5.498,2.622-5.416,5.669c0.08,3.059,2.638,5.459,5.711,5.383
	c3.068-0.078,5.492-2.615,5.41-5.674C257.941,377.13,255.384,374.725,252.311,374.8z M252.566,384.716
	c-2.435,0.06-4.461-1.847-4.532-4.28c-0.06-2.414,1.88-4.436,4.309-4.5c2.435-0.063,4.462,1.849,4.532,4.273
	C256.943,382.633,255.008,384.645,252.566,384.716z"/>
<path d="M326.758,316.254c-2.973,0.076-5.313,2.541-5.228,5.48c0.067,2.945,2.536,5.277,5.508,5.201
	c2.971-0.082,5.313-2.531,5.233-5.48C332.195,318.506,329.724,316.18,326.758,316.254z M327.006,325.838
	c-2.355,0.059-4.312-1.794-4.373-4.135c-0.067-2.338,1.789-4.287,4.151-4.35c2.357-0.066,4.316,1.785,4.388,4.123
	C331.227,323.822,329.363,325.771,327.006,325.838z"/>
<path fill="#EFDAE6" d="M431.646,45.329c0,19.871-16.212,35.979-36.213,35.979c-19.992,0-36.209-16.107-36.209-35.979
	c0-19.87,16.217-35.97,36.209-35.97C415.436,9.359,431.646,25.459,431.646,45.329z"/>
<path d="M395.435,5.174c-22.323,0-40.42,17.976-40.42,40.155c0,22.183,18.097,40.162,40.42,40.162
	c22.325,0,40.422-17.979,40.422-40.162C435.854,23.149,417.76,5.174,395.435,5.174z M395.435,81.308
	c-19.992,0-36.209-16.107-36.209-35.979c0-19.87,16.217-35.97,36.209-35.97c20.001,0,36.213,16.1,36.213,35.97
	C431.646,65.2,415.436,81.308,395.435,81.308z"/>
<path d="M414.128,26.845c0.146-5.026-7.139-10.194-12.044-10.49c0,0-1.938,1.033-2.832,1.771
	C407.285,19.458,411.301,22.854,414.128,26.845z"/>
<path d="M416.5,55.504c3.35-2.702,4.912-11.819,4.011-16.403c0,0-1.458,1.661-3.255,1.782
	C418.585,44.28,418.585,48.861,416.5,55.504z"/>
</svg>
