<?xml version="1.0" encoding="utf-8"?>
<!DOCTYPE svg PUBLIC "-//W3C//DTD SVG 1.1//EN" "http://www.w3.org/Graphics/SVG/1.1/DTD/svg11.dtd">
<svg version="1.1" id="Calque_1" xmlns="http://www.w3.org/2000/svg" xmlns:xlink="http://www.w3.org/1999/xlink" x="0px" y="0px"
	 width="440px" height="440px" viewBox="0 0 440 440" enable-background="new 0 0 440 440" xml:space="preserve">
<g id="Circle">
	<path fill="#272B33" d="M418.494,221.95c0,113.802-92.247,206.05-206.049,206.05C98.644,428,6.395,335.752,6.395,221.95
		c0-113.8,92.249-206.05,206.05-206.05C326.247,15.9,418.494,108.15,418.494,221.95z"/>
	<circle fill="#272B33" cx="212.445" cy="221.95" r="198.418"/>
</g>
<g id="Chat">
	<path fill="#BAC2CE" d="M264.85,251.46c-2.752-11.919-46.689-1.938-50.31-2.242c-3.619-0.303-11.342-0.161-14.305-1.319
		c-2.544-6.868-6.36-11.193-8.904-14.5c-1.867-2.429,1.526-3.814,0.948-6.719c10.358-7.995,8.21-20.755-3.237-27.114
		c0.254-9.413-3.562-22.385-11.58-24.2c-4.457-13.515-14.622-14.721-21.236-17.265c-11.742-4.516-4.114-52.335-15.517-53.675
		c-11.403-1.34-20.859,43.754-22.79,49.629c-7.736,1.756-24.409,6.253-46.657,17.273c-11.702,2.036-46.298-26.964-59.271-22.131
		c-23.695,8.828-2.035,49.096,8.395,59.525c-2.321,9.197,7.377,10.938,7.377,14.246c0,19.857,5.257,18.994,8.819,19.248
		c0.084,5.173,7.634,25.95,17.636,35.952c5.297,5.296,1.852,27.578,15.67,29.947C50.658,358.809,306.059,430.034,264.85,251.46z"/>
	<path opacity="0.4" enable-background="new    " d="M116.288,153.266c0,0,10.474-47.637,22.895-48.333
		c12.421-0.695,3.052,34.596,15.23,52.321C140.709,151.741,124.064,151.533,116.288,153.266z"/>
	<path d="M191.331,200.582c-3.292-1.579,0.979-19.048-12.465-26.456c-2.535-1.398-4.429-24.445-61.052-21.623
		c-12.196,0.609-30.227,10.216-47.061,19.079c20.854-7.546,34.542-15.424,47.714-16.065c55.013-2.674,55.773,18.375,58.994,19.848
		c12.896,5.9,8.781,24.56,11.851,25.924c14.371,6.388,8.863,22.646,2.966,25.39c-6.545,24.019-33.476,50.485-93.02,39.513
		c73.949,15.227,93.399-25.551,96.141-37.627C202.125,223.626,204.557,206.92,191.331,200.582z"/>
	<path d="M12.755,151.741c19.503-5.271,34.341,22.386,61.501,20.289c-21.181-1.741-49.862-30.313-64.449-23.28
		c-12.499,6.025-13.17,36.77,9.055,59.819c-3.019,7.408,8.506,12.621,8.231,18.109c-0.274,5.488,0.55,17.014,9.055,15.639
		c0,0-9.33-0.549-7.409-15.639c1.248-9.799-11.25-8.506-6.86-18.933C9.808,200.884-5.513,156.678,12.755,151.741z"/>
	<path d="M118.468,152.042c2.743-18.659,11.524-49.666,23.323-49.666c8.51,0,4.115,38.963,12.621,54.879
		c-10.428-9.329-5.779-51.398-12.896-52.135C133.56,104.297,124.505,130.091,118.468,152.042z"/>
	<path d="M36.972,245.063c2.745,14.269,8.508,24.694,14.818,32.926c6.545,8.537,3.567,28.539,18.384,30.46
		c-15.915-8.78-7.718-19.96-17.481-34.604C46.107,263.966,41.363,258.782,36.972,245.063z"/>
	<path fill="#FBC4AD" d="M164.577,202.216c-2.294-3.914-1.066-6.129,4.47-7.002c2.831-0.449,5.07-0.023,6.854-0.299
		c1.784-0.273,1.897-1.572,3.128-1.49c1.373,0.092,7.106-1.386,5.81,5.811c-1.341,7.449-9.79,8.25-11.62,7.152
		C168.749,203.705,167.11,206.536,164.577,202.216z"/>
	<path d="M108.489,202.597c6.092-4.362,10.879-14.793,25.561-9.646C121.761,194.454,118.665,199.63,108.489,202.597z"/>
	<path d="M179.408,179.465c-3.796-0.17-10.295-4.53-11.576,4.504C171.824,179.912,175.239,181.785,179.408,179.465z"/>
	<path d="M182.95,221.325c0.121-3.751-0.099-5.396-2.812-10.482c-3.819-7.164-12.137-6.007-14.415-7.971
		c-3.498-3.018,1.453-7.347,5.851-6.869c6.725,0.734,6.599-2.033,8.649-2.033c2.713,0,5.349,0.444,3.223,7.123
		c-0.723,2.269-2.036,3.222-5.641,5.35c4.186-0.48,5.833-2.539,6.654-4.598c3.474-8.681-1.782-9.877-4.938-9.328
		c-3.416,0.594-2.402,2.47-8.369,1.646c-7.748-1.067-10.996,7.899-6.655,10.289c4.734,2.608,10.863,1.95,13.691,6.899
		c4.41,7.717,3.993,17.717-14.033,20.676c-7.523,1.236-12.507,9.257-42.779,5.44c31.288,6.867,35.745-1.543,43.244-3.054
		c6.309-1.271,15.266-3.034,17.553-9.665c2.606,3.29,11.193,5.342,14.753-2.8C190.059,224.238,186.38,225.167,182.95,221.325z"/>
	<path d="M191.586,232.126c0,0,6.613,9.412,10.43,16.026c5.087,0,51.13-5.344,69.955-4.325c0.51,0-0.021,2.731-0.255,3.309
		c-16.79-1.526-65.885,2.544-71.227,2.798c-2.29-5.853-6.615-11.957-9.667-14.754C190.822,233.396,191.586,232.126,191.586,232.126z
		"/>
	<path opacity="0.2" enable-background="new    " d="M191.331,233.396c2.29,3.139,4.502,5.527,6.189,8.564
		c-8.988,23.911-47.145,43.074-98.26,24.229C99.26,266.191,168.861,283.343,191.331,233.396z"/>
</g>
<g id="Concombre" display="none">
	<path display="inline" d="M223.217,224.754c-10.562-7.372-6.602-31.802,8.496-24.672
		C244.367,206.059,242.184,237.991,223.217,224.754z"/>
	<path display="inline" d="M178.645,254.521c10.208-0.473,23.104-9.685,22.353-24.252c-1.136-22.06-27.973-32.123-39.83-12.433
		C150.676,235.262,169.207,254.958,178.645,254.521z"/>
	<path display="inline" fill="#E4E09E" d="M197.231,236.253c6.75-13.062-16.851-40.142-35.152-16.78
		C151.554,232.908,178.138,273.203,197.231,236.253z"/>
	<path display="inline" fill="#D7C98B" d="M177.542,233.686c-1.444-0.729-7.746,2.988-3.157,5.266
		C177.059,240.279,179.722,234.788,177.542,233.686z"/>
	<path display="inline" fill="#D7C98B" d="M182.657,238.498c1.584-2.154-1.996-5.509-4.009-2.278
		C176.435,239.77,180.542,241.379,182.657,238.498z"/>
	<path display="inline" fill="#D7C98B" d="M174.421,227.355c1.87,2.504-1.171,5.461-3.964,5.496
		C166.443,232.9,171.499,223.441,174.421,227.355z"/>
	<path display="inline" fill="#D7C98B" d="M177.213,220.866c2.259-0.22,1.965,9.505-1.289,6.821
		C172.669,225.006,174.149,221.168,177.213,220.866z"/>
	<path display="inline" fill="#D7C98B" d="M183.976,228.246c3.823-1.275,2.319-8.063-0.859-6.971
		C179.94,222.367,179.916,229.602,183.976,228.246z"/>
	<path display="inline" fill="#D7C98B" d="M183.381,228.605c3.864-0.566,6.148,3.569,3.235,4.969
		C183.707,234.971,177.842,229.423,183.381,228.605z"/>
	<path display="inline" fill="#B7BA40" d="M170.422,237.418c1.125-1.747,5.57-4.811,7.716-4.663
		c2.148,0.151,6.633,3.433,6.401,5.587c-0.231,2.156,5.45-3.449,3.248-3.201c-2.204,0.246-6.594-1.543-7.431-4.345
		c-0.837-2.8,0.392-8.657,1.907-10.038c1.514-1.378-4.333-2.185-3.6,0.266c0.732,2.449,0.585,7.238-1.466,8.58
		c-2.052,1.346-6.108,4.774-8.421,5.244C166.464,235.316,169.226,239.277,170.422,237.418z"/>
	<path display="inline" fill="#B7BA40" d="M164.358,216.546c-13.411,17.755,6.725,38.914,18.146,34.339
		c7.943-3.184,16.728-8.582,15.917-22.375C197.473,212.447,174.4,203.246,164.358,216.546z M194.706,229.564
		c0.51,3.463-0.002,7.025-1.639,10.341c-1.638,3.313-4.594,5.88-6.875,6.893c-3.558,1.583-5.872,2.048-8.56,2.435
		c-2.687,0.387-4.653-2.666-7.815-3.285c-3.163-0.62-5.632-7.703-7.014-9.398c-1.383-1.695-1.314-10.26,0.166-14.099
		c1.48-3.84,5.642-6.921,9.473-9.34s7.037,0.088,11.116,0.258c4.081,0.168,6.356,4.269,8.646,6.656
		C194.493,222.41,194.196,226.102,194.706,229.564z"/>
	<path display="inline" fill="#577133" d="M197.606,222.854c-6.409-17.928-29.619-17.023-36.283-2.977
		c-6.664,14.048,4.798,31.297,15.421,32.834C188.196,254.37,204.015,240.779,197.606,222.854z M176.253,250.133
		c-9.422-1.438-19.667-17.038-13.831-29.667c5.839-12.632,26.405-13.335,32.173,2.851
		C200.365,239.505,186.408,251.68,176.253,250.133z"/>
	<path display="inline" fill="#E4E09E" d="M223.875,222.666c-6.864-4.402-7.066-26.806,7.529-21.133
		C239.8,204.798,243.286,235.121,223.875,222.666z"/>
	<path display="inline" fill="#D7C98B" d="M230.366,214.379c0.297-0.888,3.882-1.181,2.928,1.62
		C232.74,217.634,229.918,215.723,230.366,214.379z"/>
	<path display="inline" fill="#D7C98B" d="M230.225,223.893c-1.214-0.776-0.58-3.709,1.088-2.439
		C233.146,222.846,231.848,224.932,230.225,223.893z"/>
	<path display="inline" fill="#D7C98B" d="M229.423,209.99c0.138,1.959,2.253,2.423,3.308,1.455
		C234.244,210.051,229.213,206.922,229.423,209.99z"/>
	<path display="inline" fill="#D7C98B" d="M226.225,207.604c-0.916,0.681,2.43,5.63,2.75,3.088
		C229.294,208.148,227.466,206.678,226.225,207.604z"/>
	<path display="inline" fill="#D7C98B" d="M226.156,213.825c-1.85,0.688-3.547-3.371-1.996-3.924
		C225.708,209.347,228.119,213.097,226.156,213.825z"/>
	<path display="inline" fill="#D7C98B" d="M226.499,213.803c-1.631,1.07-1.106,4.025,0.446,3.724
		C228.495,217.226,228.836,212.271,226.499,213.803z"/>
	<path display="inline" fill="#B7BA40" d="M234.261,213.806c-0.999-0.512-3.677-0.534-4.428,0.301
		c-0.75,0.836-1.333,4.125-0.528,5.164c0.803,1.036-3.18,0.133-2.274-0.516c0.903-0.651,1.944-3.132,1.325-4.882
		c-0.619-1.751-3.025-4.359-4.049-4.542c-1.021-0.182,0.89-2.666,1.433-1.133c0.542,1.531,2.186,3.967,3.399,3.94
		c1.211-0.026,3.866,0.324,4.883-0.25C235.038,211.313,235.328,214.347,234.261,213.806z"/>
	<path display="inline" fill="#B7BA40" d="M229.584,200.819c10.906,4.488,10.434,22.59,4.648,24.25
		c-4.021,1.15-9.094,1.449-13.377-6.002C215.868,210.385,221.413,197.456,229.584,200.819z M222.593,218.301
		c0.962,1.979,2.337,3.65,4.05,4.792c1.713,1.146,3.668,1.435,4.855,1.155c1.854-0.438,2.873-1.01,4.001-1.759
		c1.133-0.75,0.853-3.028,1.824-4.467c0.974-1.438-0.462-5.992-0.511-7.361c-0.049-1.37-2.922-5.794-4.75-7.268
		c-1.828-1.473-4.406-1.604-6.642-1.507c-2.231,0.097-2.594,2.531-4.058,4.06c-1.467,1.529-0.951,4.462-1.013,6.512
		C220.292,214.507,221.631,216.322,222.593,218.301z"/>
	<path display="inline" fill="#577133" d="M219.279,215.838c-3.571-11.578,5.386-19.307,12.543-14.361
		c7.156,4.946,8.619,17.958,5.167,22.505C233.27,228.889,222.85,227.414,219.279,215.838z M236.316,222.471
		c3.037-4.074,1.67-15.799-4.709-20.3c-6.379-4.5-14.284,2.398-11.051,12.844C223.789,225.465,233.042,226.857,236.316,222.471z"/>
</g>
<g id="Chien">
	<path fill="#828D9E" d="M385.37,267.771c-6.67-14.446-18.207-30.807-30.929-35.606c41.156-32.599,81.213-76.591,86.68-129.558
		c-17.169-13.811-64.486,8.489-81.085,16.618c-21.374-1.809-24.663-14.995-47.995-20.993c0.77-2.405,4.057-11.495-4.863-13.497
		c-11.105-2.493-25.777,9.085-28.55,11.382c-30.45,4.666-35.062,29.508-34.952,32.985c0.113,3.613-0.021,6.561-0.669,9.833
		c-4.468-0.221-10.039,5.471-9.09,10.124c-1.563,0.725-2.899,1.739-3.883,3.073c-0.334,0.175-0.67,0.388-1.005,0.664
		c-1.764,1.442-2.983,3.72-3.655,6.17c-2.11,0.424-8.158,2.106-10.398,10.926c-1.141,4.494-0.19,7.227,1.947,9.553
		c-1.104,9.483,3.052,18.696,7.394,22.832c2.104,2.004,5.651,5.073,11.193,7.802c-0.279,3.93-1.605,21.1-3.73,25.776
		c-2.396,5.269,6.74,6.037,5.427,9.158c-1.687,4.002-10.685,29.594-3.985,42.818c3.547,6.999,5.93,30.7,0.086,42.766
		C233.305,330.6,407.302,357.79,385.37,267.771z"/>
	<path opacity="0.4" enable-background="new    " d="M277.991,95.746c-5.015,1.111,19.284-14.423,29.018-11.776
		c9.734,2.647,3.995,13.667,3.995,13.667S289.609,93.172,277.991,95.746z"/>
	<path d="M240.09,147.681c1.801-2.459,3.477-5.808,3.628-9.386c-4.67-1.139-11.282,5.307-9.916,10.322
		C235.438,147.993,237.502,147.628,240.09,147.681z"/>
	<path fill="#FBC4AD" d="M227.239,167.971c1.933,1.235,15.569,2.171,19.667-7.289c4.064-9.392-7.586-6.753-10.74-8.474
		c-2.967-1.62-7.168-3.305-9.479,0.202C223.081,157.879,222.104,164.686,227.239,167.971z"/>
	<path d="M281.986,158.901c1.684-2.102,6.029-7.289,13.459-5.187c9.392,2.658,12.057,13.736,10.232,16.54
		c-1.821,2.805-9.674,7.29-18.504,2.384C278.342,167.732,280.314,160.992,281.986,158.901z"/>
	<path d="M236.251,151.295c-2.36-0.786-5.797-2.417-8.882,0.106c-6.109,5-6.988,15.043-0.754,18.148
		c3.083,1.538,16.736,2.541,21.588-8.162C252.77,151.316,241.298,152.977,236.251,151.295z M245.686,161.407
		c-4.92,7.97-14.119,7.377-18.357,6.36c-3.887-0.934-4.79-10.406,0.042-13.991c2.93-2.175,5.897-0.17,8.14,0.509
		C240.307,155.734,250.654,153.352,245.686,161.407z"/>
	<path d="M226.688,179.853c-7.044,2.417-12.021-4.162-10.622-9.567c1.453-5.596,3.19-8.795,7.815-10.021
		c0.609-0.161,0.314-2.062,0.314-2.063c-2.103,0.422-7.147,2.097-9.389,10.928c-2.244,8.832,3.575,14.824,10.652,12.681
		c7.22,14.129,34.241,26.85,51.692,21.594C265.166,206.242,236.568,196.99,226.688,179.853z"/>
	<path fill="#FFFFFF" d="M283.143,162.962c0.912-1.087,2.635-1.539,3.073-2.063c0.229-1.051-0.215-2.387,0.994-3.543
		C285.002,157.67,282.898,159.616,283.143,162.962z"/>
	<path d="M229.419,152.027c4.769-7.85,20.396-6.027,28.315,0.561c-7.709-3.224-21.518-7.148-25.162-1.332
		C231.381,151.818,229.419,152.027,229.419,152.027z"/>
	<path fill="#FFFFFF" d="M235.779,147.628c0.125-2.53,2.09-4.661,4.363-6.043c-1.131-0.578-3.205,0.682-4.047,1.866
		c-0.646,0.908-1.563,3.018-0.681,4.287C235.534,147.7,235.657,147.665,235.779,147.628z"/>
	<path d="M243.507,128.337c-0.125-3.965,5.888-35.745,49.413-33.642c43.526,2.102,39.744,20.396,65.396,23.76
		c-26.142,1.403-22.92-19.588-64.975-21.061c-38.476-1.347-47.176,23.973-46.922,30.733c0.418,11.25-4.385,17.243-6.591,19.871
		C243.087,139.481,243.718,135.067,243.507,128.337z"/>
	<path d="M277.991,95.746c0,0,16.704-14.54,29.018-11.776c10.304,2.313,5.676,14.088,5.676,14.088l-1.681-0.421
		c0,0,5.048-11.565-5.045-12.616c-11.969-1.247-25.863,10.725-25.863,10.725H277.991z"/>
	<path d="M216.803,179.222c-1.262,9.671,1.682,18.503,6.098,22.708c4.416,4.205,15.98,12.512,36.481,14.403
		c-13.353-3.26-22.919-4.836-32.696-13.983c-8.687-8.125-8.623-18.502-7.567-21.026
		C218.276,180.695,216.803,179.222,216.803,179.222z"/>
	<path d="M359.366,228.425c40.372-30.277,76.118-73.593,81.586-126.581c-19.347-15.561-78.068,14.406-85.792,18.924
		c15.68-4.641,75.375-30.418,82.005-15.98C435.904,115.722,429.175,168.289,359.366,228.425z"/>
	<path d="M239.672,245.675c0.479-6.7-8.197-5.743-6.283-8.616c1.916-2.871,3.889-26.747,3.889-26.747l-2.933-1.496
		c0,0-1.436,22.021-3.831,27.286c-2.394,5.266,7.062,6.455,5.744,9.571c-1.684,4.007-9.91,28.175-3.211,41.398
		c3.6,7.104,5.598,31.543-0.593,43.415c0.338,0.211,1.103,0.466,1.61,0.593c4.25-8.002,7.859-32.274,1.781-44.771
		C231.27,276.896,234.831,254.173,239.672,245.675z"/>
	<path d="M385.202,267.009c-7.12-15.424-17.425-29.976-26.678-32.694c11.76,8.873,19.77,21.377,24.961,33.742
		C384.048,267.688,384.62,267.339,385.202,267.009z"/>
	<path opacity="0.4" enable-background="new    " d="M235.85,210.079c0,0,16.703,8.903,43.16,6.189
		c-27.813,11.533-43.5,2.629-43.5,2.629L235.85,210.079z"/>
</g>
<g id="Chien_-_Mousse">
</g>
<g id="Mousse">
	<path fill="#EFDAE6" d="M21.769,276.991C45.63,359.798,121.96,420.369,212.445,420.369c97.354,0,178.33-70.121,195.188-162.61
		c-25.062-21.349-68.08,3.361-65.962,33.041c-31.035-42.901-105.313,0.345-79.437,42.904c-27.332-22.277-57.909,4.046-59.271,24.2
		c-8.99-20.67-39.119-21.204-54.483-5.063c-4.451-7.184-15.039-28.375-49.941-6.746C108.61,312.011,64.509,265.773,21.769,276.991z"
		/>
	<path d="M52.504,295.214c-3.933,0.106-7.036,3.379-6.932,7.31c0.104,3.937,3.375,7.037,7.309,6.934
		c3.933-0.105,7.036-3.376,6.932-7.309S56.438,295.109,52.504,295.214z M52.829,307.421c-2.81,0.075-5.146-2.141-5.221-4.953
		c-0.074-2.805,2.141-5.146,4.952-5.22c2.81-0.073,5.145,2.145,5.219,4.952C57.852,305.011,55.637,307.348,52.829,307.421z"/>
	<path d="M340.314,286.9c-32.225-39.514-102.94,2.716-81.639,42.539c-27.917-13.877-50.302,5.795-55.518,24.193
		c-9.369-12.634-40.573-20.095-54.925-0.707c-0.42-2.086-11.088-30.242-47.518-9.949c4.208-25.039-22.247-73.879-79.839-69.203
		c0.413,1.527,0.844,3.053,1.292,4.566c33.914-5.177,86.826,30.1,70.6,77.877c25.723-38.621,79.651-4.363,36.577,24.805
		c18.315,1.02,24.42,15.604,15.949,27.685c0.654,0.233,1.312,0.465,1.969,0.692c12.607-16.842-2.302-28.481-10.655-30.364
		c8.121-5.915,12.313-14.169,12.043-22.392c8.505-17.34,62.436-22.428,58.737,27.813c4.886-10.228,0.295-23.374-3.084-28.372
		c17.973-44.593,69.19-31.023,70.041,10.005c17.13-29.837,50.365-9.485,48.161,9.34c5.257-14.077,20.182-19.502,27.553-10.552
		c0.479-0.461,0.951-0.928,1.427-1.395c-4.048-7.897-21.688-8.914-27.79,6.01c2.031-18.313-36.293-32.899-47.738-8.901
		c-0.975-13.166-5.249-22.075-14.67-28.578c-20.86-49.011,57.998-78.01,80.384-39.514c10.854-53.927,58.338-41.89,65.247-31.015
		c0.243-1.192,1.181-3.229,1.4-4.43C402.384,246.71,350.997,235.348,340.314,286.9z"/>
	<path d="M366.829,271.003c-3.252-0.875-6.604,1.056-7.479,4.31c-0.875,3.254,1.053,6.603,4.307,7.479
		c3.253,0.877,6.603-1.053,7.479-4.308C372.011,275.23,370.083,271.878,366.829,271.003z M369.666,278.089
		c-0.661,2.438-3.174,3.888-5.616,3.229c-2.438-0.658-3.883-3.17-3.229-5.611c0.659-2.438,3.17-3.886,5.61-3.23
		C368.872,273.134,370.318,275.648,369.666,278.089z"/>
	<path d="M257.83,367.464c-8.423,0.226-15.074,7.235-14.854,15.659c0.224,8.428,7.233,15.077,15.664,14.855
		c8.424-0.226,15.071-7.233,14.854-15.664C273.268,373.891,266.255,367.239,257.83,367.464z M258.583,395.943
		c-7.302,0.188-13.378-5.572-13.572-12.875c-0.192-7.303,5.572-13.377,12.876-13.572c7.301-0.189,13.377,5.568,13.57,12.874
		C271.648,389.673,265.887,395.749,258.583,395.943z"/>
	<path d="M320.444,292.507c-11.235,0.295-20.104,9.646-19.808,20.882c0.298,11.235,9.646,20.104,20.882,19.807
		c11.237-0.299,20.104-9.648,19.807-20.883C341.027,301.076,331.68,292.207,320.444,292.507z M321.464,331.157
		c-10.108,0.271-18.521-7.711-18.791-17.826c-0.267-10.108,7.713-18.524,17.826-18.792c10.113-0.271,18.524,7.712,18.793,17.825
		C339.559,322.479,331.579,330.893,321.464,331.157z"/>
	<path d="M257.91,372.377c-3.18,0.083-5.694,2.73-5.611,5.915c0.085,3.185,2.737,5.696,5.916,5.61
		c3.182-0.084,5.697-2.729,5.612-5.916C263.742,374.802,261.091,372.294,257.91,372.377z M258.182,382.716
		c-2.521,0.068-4.63-1.928-4.692-4.455c-0.07-2.526,1.933-4.632,4.459-4.696c2.521-0.065,4.63,1.925,4.694,4.457
		C262.71,380.55,260.707,382.648,258.182,382.716z"/>
	<path d="M325.238,299.624c-3.187,0.085-5.694,2.733-5.612,5.917c0.087,3.184,2.733,5.693,5.918,5.609
		c3.188-0.086,5.695-2.734,5.611-5.916C331.072,302.054,328.424,299.539,325.238,299.624z M325.513,309.964
		c-2.529,0.068-4.633-1.928-4.697-4.457c-0.067-2.521,1.925-4.63,4.454-4.696c2.531-0.068,4.635,1.93,4.697,4.457
		C330.037,307.796,328.044,309.898,325.513,309.964z"/>
</g>
<g id="Bulle">
	<circle fill="#EFDAE6" cx="81.38" cy="59.498" r="28.714"/>
	<path d="M81.381,27.447c-17.702,0-32.052,14.348-32.052,32.052s14.35,32.052,32.052,32.052c17.703,0,32.052-14.349,32.052-32.052
		S99.084,27.447,81.381,27.447z M81.381,88.211c-15.857,0-28.713-12.854-28.713-28.714c0-15.859,12.856-28.712,28.713-28.712
		c15.858,0,28.712,12.854,28.712,28.712C110.093,75.357,97.239,88.211,81.381,88.211z"/>
	<path d="M96.2,44.742c0.117-4.01-5.66-8.136-9.551-8.372c0,0-1.533,0.825-2.241,1.414C90.773,38.846,93.959,41.556,96.2,44.742z"/>
	<path d="M98.086,67.617c2.655-2.155,3.891-9.433,3.184-13.088c0,0-1.162,1.325-2.594,1.415
		C99.737,58.656,99.737,62.31,98.086,67.617z"/>
</g>
</svg>
