<?xml version="1.0" encoding="utf-8"?>
<!DOCTYPE svg PUBLIC "-//W3C//DTD SVG 1.1//EN" "http://www.w3.org/Graphics/SVG/1.1/DTD/svg11.dtd">
<svg version="1.1" id="Calque_1" xmlns="http://www.w3.org/2000/svg" xmlns:xlink="http://www.w3.org/1999/xlink" x="0px" y="0px"
	 width="350px" height="350px" viewBox="0 90 350 350" enable-background="new 0 90 350 350" xml:space="preserve">
<g id="Circle">
	<path fill="#272B33" d="M332.001,265c0,90.524-73.378,163.903-163.902,163.903C77.576,428.903,4.196,355.524,4.196,265
		c0-90.523,73.38-163.903,163.903-163.903C258.623,101.097,332.001,174.477,332.001,265z"/>
	<circle fill="#272B33" cx="168.099" cy="265" r="157.833"/>
</g>
<g id="Chat">
	<path fill="#BAC2CE" d="M209.784,288.474c-2.189-9.48-37.138-1.542-40.019-1.783c-2.879-0.241-9.022-0.128-11.379-1.05
		c-2.023-5.462-5.059-8.903-7.083-11.534c-1.485-1.932,1.214-3.033,0.754-5.344c8.24-6.359,6.531-16.51-2.575-21.568
		c0.202-7.487-2.833-17.806-9.211-19.25c-3.545-10.75-11.631-11.709-16.892-13.733c-9.34-3.592-3.273-41.63-12.343-42.696
		s-16.592,34.804-18.128,39.478c-6.153,1.397-19.417,4.974-37.113,13.74c-9.309,1.62-36.828-21.448-47.147-17.604
		c-18.849,7.022-1.619,39.053,6.678,47.349c-1.847,7.316,5.868,8.701,5.868,11.332c0,15.796,4.182,15.109,7.015,15.311
		c0.067,4.115,6.072,20.643,14.028,28.599c4.214,4.213,1.473,21.938,12.465,23.821C39.405,373.864,242.563,430.521,209.784,288.474z
		"/>
	<path opacity="0.4" enable-background="new    " d="M91.61,210.365c0,0,8.332-37.893,18.212-38.447
		c9.88-0.553,2.428,27.52,12.115,41.619C111.036,209.152,97.796,208.987,91.61,210.365z"/>
	<path d="M151.304,248.003c-2.619-1.256,0.779-15.151-9.915-21.045c-2.017-1.111-3.523-19.444-48.564-17.2
		c-9.701,0.484-24.044,8.126-37.435,15.176c16.588-6.002,27.477-12.269,37.955-12.779c43.76-2.127,44.365,14.617,46.927,15.789
		c10.258,4.692,6.985,19.536,9.427,20.621c11.432,5.081,7.05,18.014,2.359,20.196c-5.206,19.106-26.628,40.158-73.993,31.431
		c58.823,12.112,74.295-20.325,76.476-29.931C159.89,266.333,161.824,253.044,151.304,248.003z"/>
	<path d="M9.254,209.152c15.514-4.193,27.317,17.807,48.921,16.139c-16.848-1.385-39.663-24.113-51.266-18.518
		c-9.942,4.792-10.476,29.249,7.203,47.583c-2.401,5.894,6.767,10.04,6.547,14.405c-0.218,4.365,0.438,13.533,7.203,12.439
		c0,0-7.422-0.437-5.894-12.439c0.993-7.795-8.949-6.766-5.457-15.06C6.911,248.243-5.277,213.079,9.254,209.152z"/>
	<path d="M93.344,209.392c2.182-14.843,9.167-39.507,18.553-39.507c6.769,0,3.273,30.993,10.04,43.654
		c-8.295-7.421-4.597-40.885-10.258-41.471C105.35,171.413,98.146,191.93,93.344,209.392z"/>
	<path d="M28.519,283.385c2.183,11.351,6.767,19.644,11.787,26.192c5.206,6.79,2.837,22.7,14.624,24.229
		c-12.66-6.984-6.139-15.878-13.905-27.526C35.785,298.422,32.011,294.299,28.519,283.385z"/>
	<path fill="#FBC4AD" d="M130.022,249.303c-1.825-3.114-0.848-4.876,3.556-5.57c2.252-0.356,4.033-0.018,5.452-0.237
		c1.419-0.217,1.509-1.251,2.488-1.186c1.092,0.073,5.652-1.103,4.622,4.622c-1.067,5.926-7.788,6.563-9.244,5.689
		C133.341,250.487,132.037,252.739,130.022,249.303z"/>
	<path d="M85.407,249.605c4.846-3.47,8.654-11.767,20.333-7.673C95.964,243.128,93.501,247.245,85.407,249.605z"/>
	<path d="M141.82,231.205c-3.02-0.135-8.19-3.604-9.208,3.583C135.787,231.561,138.503,233.051,141.82,231.205z"/>
	<path d="M144.637,264.503c0.096-2.983-0.079-4.292-2.237-8.338c-3.038-5.698-9.655-4.778-11.467-6.341
		c-2.782-2.4,1.156-5.844,4.654-5.464c5.349,0.584,5.249-1.617,6.88-1.617c2.158,0,4.255,0.354,2.563,5.666
		c-0.575,1.805-1.619,2.563-4.487,4.256c3.33-0.382,4.64-2.02,5.293-3.658c2.763-6.904-1.418-7.856-3.928-7.419
		c-2.717,0.472-1.91,1.964-6.657,1.309c-6.163-0.849-8.747,6.283-5.293,8.185c3.766,2.074,8.641,1.551,10.891,5.488
		c3.508,6.138,3.176,14.093-11.163,16.446c-5.984,0.983-9.948,7.364-34.028,4.327c24.888,5.463,28.434-1.228,34.398-2.429
		c5.019-1.011,12.144-2.414,13.962-7.688c2.073,2.617,8.904,4.249,11.735-2.227C150.292,266.82,147.365,267.559,144.637,264.503z"/>
	<path d="M151.506,273.095c0,0,5.261,7.486,8.297,12.748c4.046,0,40.672-4.251,55.646-3.44c0.406,0-0.016,2.173-0.203,2.632
		c-13.355-1.214-52.408,2.023-56.657,2.226c-1.822-4.655-5.262-9.512-7.69-11.736C150.899,274.105,151.506,273.095,151.506,273.095z
		"/>
	<path opacity="0.2" enable-background="new    " d="M151.304,274.105c1.822,2.496,3.581,4.396,4.923,6.812
		c-7.149,19.021-37.501,34.264-78.161,19.273C78.065,300.192,133.43,313.835,151.304,274.105z"/>
</g>
<g id="Concombre" display="none">
	<path display="inline" d="M223.217,224.754c-10.562-7.372-6.602-31.802,8.496-24.672
		C244.367,206.059,242.184,237.991,223.217,224.754z"/>
	<path display="inline" d="M178.645,254.521c10.208-0.474,23.104-9.686,22.353-24.252c-1.136-22.061-27.973-32.124-39.83-12.434
		C150.676,235.262,169.207,254.958,178.645,254.521z"/>
	<path display="inline" fill="#E4E09E" d="M197.231,236.253c6.75-13.062-16.851-40.142-35.152-16.78
		C151.554,232.908,178.138,273.203,197.231,236.253z"/>
	<path display="inline" fill="#D7C98B" d="M177.542,233.686c-1.444-0.729-7.746,2.988-3.157,5.267
		C177.059,240.279,179.722,234.788,177.542,233.686z"/>
	<path display="inline" fill="#D7C98B" d="M182.657,238.498c1.584-2.154-1.996-5.509-4.009-2.278
		C176.435,239.77,180.542,241.379,182.657,238.498z"/>
	<path display="inline" fill="#D7C98B" d="M174.421,227.355c1.87,2.504-1.171,5.461-3.964,5.496
		C166.443,232.9,171.499,223.441,174.421,227.355z"/>
	<path display="inline" fill="#D7C98B" d="M177.213,220.866c2.259-0.22,1.965,9.505-1.289,6.821
		C172.669,225.006,174.149,221.168,177.213,220.866z"/>
	<path display="inline" fill="#D7C98B" d="M183.976,228.246c3.823-1.275,2.319-8.063-0.859-6.971
		C179.94,222.367,179.916,229.602,183.976,228.246z"/>
	<path display="inline" fill="#D7C98B" d="M183.381,228.605c3.864-0.566,6.148,3.568,3.235,4.969
		C183.707,234.971,177.842,229.423,183.381,228.605z"/>
	<path display="inline" fill="#B7BA40" d="M170.422,237.418c1.125-1.747,5.57-4.811,7.716-4.663
		c2.148,0.151,6.633,3.433,6.401,5.587c-0.231,2.156,5.45-3.449,3.248-3.201c-2.204,0.246-6.594-1.543-7.431-4.345
		c-0.837-2.8,0.392-8.657,1.907-10.038c1.514-1.378-4.333-2.185-3.6,0.266c0.732,2.449,0.585,7.238-1.466,8.58
		c-2.052,1.347-6.108,4.774-8.421,5.244C166.464,235.316,169.226,239.277,170.422,237.418z"/>
	<path display="inline" fill="#B7BA40" d="M164.358,216.546c-13.411,17.755,6.725,38.914,18.146,34.339
		c7.943-3.184,16.728-8.582,15.917-22.375C197.473,212.447,174.4,203.246,164.358,216.546z M194.706,229.564
		c0.51,3.463-0.002,7.024-1.639,10.341c-1.638,3.313-4.594,5.88-6.875,6.893c-3.558,1.583-5.872,2.048-8.56,2.435
		c-2.687,0.388-4.653-2.666-7.815-3.284c-3.163-0.62-5.632-7.703-7.014-9.398c-1.383-1.694-1.314-10.26,0.166-14.099
		c1.48-3.84,5.642-6.921,9.473-9.34c3.831-2.419,7.037,0.088,11.116,0.258c4.081,0.168,6.356,4.269,8.646,6.656
		C194.493,222.41,194.196,226.102,194.706,229.564z"/>
	<path display="inline" fill="#577133" d="M197.606,222.854c-6.409-17.928-29.619-17.022-36.283-2.977
		c-6.664,14.048,4.798,31.297,15.421,32.834C188.196,254.37,204.015,240.779,197.606,222.854z M176.253,250.133
		c-9.422-1.438-19.667-17.038-13.831-29.667c5.839-12.632,26.405-13.335,32.173,2.851
		C200.365,239.505,186.408,251.68,176.253,250.133z"/>
	<path display="inline" fill="#E4E09E" d="M223.875,222.666c-6.864-4.402-7.066-26.806,7.529-21.133
		C239.8,204.798,243.286,235.121,223.875,222.666z"/>
	<path display="inline" fill="#D7C98B" d="M230.366,214.379c0.297-0.888,3.882-1.181,2.928,1.62
		C232.74,217.634,229.918,215.723,230.366,214.379z"/>
	<path display="inline" fill="#D7C98B" d="M230.225,223.893c-1.214-0.775-0.58-3.708,1.088-2.438
		C233.146,222.846,231.848,224.932,230.225,223.893z"/>
	<path display="inline" fill="#D7C98B" d="M229.423,209.99c0.138,1.959,2.253,2.423,3.308,1.455
		C234.244,210.051,229.213,206.922,229.423,209.99z"/>
	<path display="inline" fill="#D7C98B" d="M226.225,207.604c-0.916,0.681,2.43,5.63,2.75,3.088
		C229.294,208.148,227.466,206.678,226.225,207.604z"/>
	<path display="inline" fill="#D7C98B" d="M226.156,213.825c-1.85,0.688-3.547-3.371-1.996-3.924
		C225.708,209.347,228.119,213.097,226.156,213.825z"/>
	<path display="inline" fill="#D7C98B" d="M226.499,213.803c-1.631,1.07-1.106,4.025,0.446,3.724
		C228.495,217.226,228.836,212.271,226.499,213.803z"/>
	<path display="inline" fill="#B7BA40" d="M234.261,213.806c-0.999-0.512-3.677-0.534-4.428,0.301
		c-0.75,0.836-1.333,4.125-0.528,5.164c0.803,1.036-3.18,0.133-2.273-0.516c0.902-0.651,1.943-3.132,1.324-4.882
		c-0.619-1.751-3.024-4.359-4.049-4.542c-1.021-0.182,0.891-2.666,1.434-1.133c0.542,1.531,2.186,3.967,3.398,3.94
		c1.211-0.026,3.866,0.324,4.883-0.25C235.038,211.313,235.328,214.347,234.261,213.806z"/>
	<path display="inline" fill="#B7BA40" d="M229.584,200.819c10.906,4.488,10.434,22.59,4.648,24.25
		c-4.021,1.15-9.094,1.449-13.377-6.001C215.868,210.385,221.413,197.456,229.584,200.819z M222.593,218.301
		c0.962,1.979,2.337,3.65,4.05,4.792c1.713,1.146,3.668,1.435,4.855,1.155c1.854-0.438,2.873-1.01,4.001-1.759
		c1.133-0.75,0.853-3.028,1.824-4.467c0.974-1.438-0.462-5.992-0.511-7.361c-0.049-1.37-2.922-5.794-4.75-7.268
		c-1.828-1.473-4.406-1.604-6.643-1.507c-2.23,0.097-2.594,2.531-4.059,4.06c-1.466,1.529-0.95,4.462-1.012,6.512
		C220.292,214.507,221.631,216.322,222.593,218.301z"/>
	<path display="inline" fill="#577133" d="M219.279,215.838c-3.571-11.578,5.386-19.307,12.543-14.361
		c7.156,4.946,8.619,17.958,5.167,22.505C233.27,228.889,222.85,227.414,219.279,215.838z M236.316,222.471
		c3.037-4.074,1.67-15.799-4.709-20.3c-6.379-4.5-14.284,2.398-11.051,12.844C223.789,225.465,233.042,226.857,236.316,222.471z"/>
</g>
<g id="Chien">
	<path fill="#828D9E" d="M305.652,301.449c-5.306-11.491-14.482-24.507-24.603-28.323c32.737-25.932,64.602-60.925,68.95-103.058
		c-13.657-10.986-51.296,6.753-64.5,13.219c-17.002-1.439-19.618-11.928-38.178-16.699c0.612-1.913,3.227-9.144-3.868-10.736
		c-8.834-1.983-20.505,7.227-22.71,9.054c-24.222,3.711-27.89,23.472-27.803,26.238c0.09,2.874-0.017,5.219-0.532,7.822
		c-3.554-0.176-7.986,4.352-7.231,8.053c-1.244,0.577-2.306,1.383-3.088,2.444c-0.266,0.14-0.533,0.309-0.799,0.528
		c-1.403,1.147-2.373,2.959-2.908,4.908c-1.679,0.337-6.489,1.676-8.271,8.692c-0.908,3.574-0.151,5.748,1.548,7.599
		c-0.878,7.543,2.428,14.872,5.881,18.161c1.674,1.595,4.496,4.036,8.904,6.207c-0.222,3.126-1.277,16.783-2.967,20.504
		c-1.906,4.19,5.361,4.802,4.317,7.284c-1.342,3.184-8.5,23.541-3.169,34.06c2.821,5.567,4.717,24.421,0.068,34.019
		C184.692,351.426,323.098,373.055,305.652,301.449z"/>
	<path opacity="0.4" enable-background="new    " d="M220.238,164.611c-3.989,0.883,15.339-11.473,23.082-9.368
		c7.743,2.106,3.178,10.872,3.178,10.872S229.479,162.563,220.238,164.611z"/>
	<path d="M190.089,205.922c1.433-1.956,2.766-4.62,2.886-7.466c-3.715-0.906-8.975,4.222-7.888,8.211
		C186.388,206.171,188.031,205.88,190.089,205.922z"/>
	<path fill="#FBC4AD" d="M179.867,222.063c1.537,0.982,12.385,1.727,15.644-5.798c3.233-7.471-6.034-5.372-8.543-6.741
		c-2.36-1.289-5.702-2.629-7.54,0.161C176.56,214.034,175.782,219.449,179.867,222.063z"/>
	<path d="M223.415,214.847c1.34-1.672,4.796-5.798,10.706-4.126c7.471,2.115,9.591,10.926,8.139,13.157
		c-1.448,2.231-7.695,5.799-14.719,1.896C220.517,221.872,222.085,216.511,223.415,214.847z"/>
	<path d="M187.036,208.797c-1.878-0.625-4.611-1.923-7.065,0.084c-4.859,3.978-5.559,11.966-0.6,14.436
		c2.453,1.224,13.313,2.021,17.172-6.493C200.175,208.814,191.05,210.135,187.036,208.797z M194.54,216.841
		c-3.914,6.34-11.231,5.868-14.602,5.06c-3.092-0.743-3.81-8.278,0.033-11.13c2.331-1.73,4.69-0.135,6.476,0.405
		C190.262,212.328,198.493,210.434,194.54,216.841z"/>
	<path d="M179.428,231.514c-5.603,1.923-9.562-3.311-8.449-7.61c1.156-4.451,2.538-6.996,6.217-7.971
		c0.484-0.128,0.25-1.64,0.25-1.641c-1.673,0.335-5.686,1.668-7.469,8.693c-1.785,7.025,2.844,11.792,8.473,10.087
		c5.743,11.239,27.237,21.358,41.119,17.177C210.036,252.505,187.288,245.146,179.428,231.514z"/>
	<path fill="#FFFFFF" d="M224.335,218.078c0.726-0.865,2.096-1.224,2.444-1.641c0.183-0.835-0.171-1.898,0.791-2.818
		C225.814,213.868,224.141,215.417,224.335,218.078z"/>
	<path d="M181.601,209.379c3.793-6.245,16.224-4.794,22.523,0.446c-6.132-2.564-17.117-5.686-20.015-1.06
		C183.162,209.213,181.601,209.379,181.601,209.379z"/>
	<path fill="#FFFFFF" d="M186.66,205.88c0.1-2.013,1.663-3.708,3.471-4.807c-0.899-0.46-2.549,0.542-3.219,1.484
		c-0.515,0.722-1.244,2.4-0.542,3.41C186.465,205.938,186.563,205.91,186.66,205.88z"/>
	<path d="M192.807,190.535c-0.1-3.154,4.684-28.434,39.305-26.761c34.623,1.672,31.615,16.224,52.021,18.9
		c-20.796,1.116-18.232-15.582-51.686-16.753c-30.605-1.071-37.526,19.07-37.324,24.447c0.333,8.949-3.488,13.716-5.243,15.807
		C192.473,199.4,192.975,195.889,192.807,190.535z"/>
	<path d="M220.238,164.611c0,0,13.287-11.566,23.082-9.368c8.196,1.84,4.515,11.207,4.515,11.207l-1.337-0.335
		c0,0,4.016-9.199-4.013-10.036c-9.521-0.992-20.573,8.532-20.573,8.532H220.238z"/>
	<path d="M171.565,231.012c-1.004,7.693,1.338,14.719,4.85,18.063c3.513,3.345,12.712,9.952,29.02,11.457
		c-10.622-2.594-18.231-3.847-26.008-11.123c-6.91-6.463-6.859-14.718-6.019-16.725
		C172.737,232.184,171.565,231.012,171.565,231.012z"/>
	<path d="M284.968,270.15c32.114-24.084,60.548-58.54,64.897-100.689c-15.39-12.377-62.1,11.459-68.243,15.054
		c12.472-3.692,59.957-24.196,65.23-12.711C345.85,180.5,340.497,222.315,284.968,270.15z"/>
	<path d="M189.757,283.872c0.38-5.33-6.521-4.568-4.998-6.854c1.524-2.284,3.093-21.276,3.093-21.276l-2.333-1.189
		c0,0-1.142,17.517-3.047,21.704c-1.904,4.189,5.618,5.135,4.569,7.613c-1.339,3.188-7.883,22.412-2.554,32.931
		c2.863,5.65,4.453,25.091-0.472,34.535c0.269,0.168,0.877,0.37,1.281,0.472c3.38-6.365,6.251-25.673,1.417-35.613
		C183.073,308.707,185.906,290.632,189.757,283.872z"/>
	<path d="M305.519,300.842c-5.663-12.269-13.86-23.844-21.221-26.007c9.354,7.059,15.726,17.005,19.855,26.841
		C304.601,301.382,305.056,301.104,305.519,300.842z"/>
	<path opacity="0.4" enable-background="new    " d="M186.716,255.558c0,0,13.287,7.081,34.332,4.923
		c-22.124,9.174-34.602,2.091-34.602,2.091L186.716,255.558z"/>
</g>
<g id="Chien_-_Mousse">
</g>
<g id="Mousse">
	<path fill="#EFDAE6" d="M16.425,308.783c18.98,65.868,79.697,114.05,151.674,114.05c77.44,0,141.854-55.777,155.263-129.349
		c-19.936-16.982-54.154,2.674-52.47,26.282c-24.687-34.126-83.771,0.274-63.188,34.129c-21.741-17.721-46.064,3.218-47.148,19.25
		c-7.151-16.442-31.117-16.867-43.338-4.028c-3.541-5.714-11.963-22.57-39.726-5.366C85.503,336.64,50.422,299.859,16.425,308.783z"
		/>
	<path d="M40.873,323.278c-3.128,0.084-5.597,2.688-5.514,5.814c0.083,3.132,2.685,5.598,5.814,5.516
		c3.129-0.083,5.597-2.686,5.514-5.814C46.604,325.666,44.002,323.195,40.873,323.278z M41.132,332.988
		c-2.235,0.06-4.093-1.703-4.153-3.94c-0.059-2.23,1.703-4.093,3.939-4.151c2.235-0.059,4.092,1.706,4.151,3.938
		C45.127,331.071,43.366,332.93,41.132,332.988z"/>
	<path d="M269.813,316.665c-25.634-31.432-81.884,2.16-64.94,33.838c-22.207-11.038-40.013,4.609-44.162,19.244
		c-7.453-10.05-32.274-15.984-43.69-0.563c-0.334-1.659-8.82-24.056-37.799-7.913c3.348-19.918-17.696-58.768-63.508-55.048
		c0.329,1.214,0.671,2.428,1.028,3.631c26.977-4.117,69.066,23.944,56.159,61.948c20.462-30.722,63.359-3.471,29.095,19.731
		c14.569,0.811,19.425,12.412,12.687,22.021c0.52,0.186,1.043,0.37,1.566,0.551c10.029-13.396-1.831-22.655-8.476-24.153
		c6.46-4.705,9.794-11.271,9.58-17.812c6.765-13.794,49.665-17.841,46.722,22.124c3.887-8.137,0.235-18.593-2.453-22.569
		c14.296-35.471,55.038-24.677,55.714,7.959c13.626-23.734,40.063-7.545,38.309,7.43c4.182-11.197,16.055-15.514,21.917-8.394
		c0.382-0.367,0.757-0.739,1.136-1.11c-3.22-6.281-17.252-7.091-22.105,4.781c1.615-14.567-28.869-26.17-37.973-7.081
		c-0.775-10.473-4.175-17.559-11.669-22.732c-16.594-38.985,46.134-62.053,63.941-31.431c8.635-42.897,46.405-33.322,51.901-24.672
		c0.193-0.947,0.938-2.568,1.113-3.523C319.186,284.695,278.311,275.657,269.813,316.665z"/>
	<path d="M290.904,304.02c-2.587-0.696-5.254,0.84-5.95,3.428c-0.696,2.589,0.838,5.253,3.427,5.95
		c2.588,0.697,5.252-0.838,5.948-3.427S293.492,304.716,290.904,304.02z M293.16,309.656c-0.525,1.939-2.524,3.092-4.467,2.568
		c-1.939-0.523-3.089-2.521-2.568-4.463c0.524-1.939,2.521-3.092,4.462-2.57C292.529,305.714,293.68,307.715,293.16,309.656z"/>
	<path d="M204.201,380.75c-6.7,0.179-11.991,5.755-11.815,12.456c0.178,6.703,5.753,11.993,12.46,11.816
		c6.701-0.18,11.988-5.754,11.815-12.46C216.48,385.862,210.902,380.571,204.201,380.75z M204.799,403.403
		c-5.808,0.149-10.641-4.432-10.796-10.241c-0.153-5.809,4.433-10.641,10.242-10.796c5.808-0.15,10.641,4.43,10.794,10.24
		C215.192,398.416,210.609,403.249,204.799,403.403z"/>
	<path d="M254.007,321.125c-8.938,0.234-15.992,7.672-15.757,16.61c0.237,8.938,7.674,15.992,16.61,15.755
		c8.939-0.237,15.992-7.674,15.756-16.611S262.944,320.887,254.007,321.125z M254.818,351.869
		c-8.041,0.216-14.732-6.134-14.948-14.18c-0.212-8.041,6.136-14.735,14.181-14.948c8.044-0.216,14.735,6.135,14.948,14.18
		C269.211,344.966,262.864,351.659,254.818,351.869z"/>
	<path d="M204.264,384.658c-2.529,0.065-4.529,2.172-4.463,4.705c0.067,2.533,2.177,4.53,4.706,4.462
		c2.531-0.066,4.532-2.171,4.464-4.705C208.903,386.587,206.794,384.592,204.264,384.658z M204.48,392.882
		c-2.005,0.055-3.683-1.533-3.732-3.544c-0.056-2.01,1.537-3.685,3.547-3.735c2.006-0.052,3.683,1.531,3.733,3.545
		C208.083,391.159,206.489,392.828,204.48,392.882z"/>
	<path d="M257.82,326.786c-2.535,0.067-4.529,2.174-4.465,4.707c0.069,2.532,2.175,4.528,4.708,4.462
		c2.536-0.068,4.53-2.175,4.464-4.706C262.461,328.719,260.354,326.719,257.82,326.786z M258.038,335.011
		c-2.011,0.055-3.685-1.533-3.735-3.545c-0.054-2.005,1.531-3.683,3.542-3.736c2.014-0.053,3.688,1.536,3.737,3.546
		C261.638,333.286,260.052,334.959,258.038,335.011z"/>
</g>
<g id="Bulle">
	<circle fill="#EFDAE6" cx="63.843" cy="135.777" r="22.841"/>
	<path d="M63.843,110.282c-14.081,0-25.496,11.413-25.496,25.496c0,14.083,11.415,25.496,25.496,25.496
		c14.082,0,25.496-11.414,25.496-25.496S77.925,110.282,63.843,110.282z M63.843,158.617c-12.613,0-22.84-10.225-22.84-22.84
		c0-12.615,10.227-22.839,22.84-22.839c12.615,0,22.839,10.225,22.839,22.839C86.683,148.392,76.458,158.617,63.843,158.617z"/>
	<path d="M75.631,124.04c0.093-3.19-4.502-6.472-7.598-6.66c0,0-1.219,0.656-1.782,1.125
		C71.314,119.35,73.849,121.505,75.631,124.04z"/>
	<path d="M77.131,142.235c2.112-1.714,3.095-7.503,2.533-10.411c0,0-0.924,1.054-2.063,1.125
		C78.445,135.107,78.445,138.014,77.131,142.235z"/>
</g>
</svg>
