<?xml version="1.0" encoding="utf-8"?>
<!DOCTYPE svg PUBLIC "-//W3C//DTD SVG 1.1//EN" "http://www.w3.org/Graphics/SVG/1.1/DTD/svg11.dtd">
<svg version="1.1" xmlns="http://www.w3.org/2000/svg" xmlns:xlink="http://www.w3.org/1999/xlink" x="0px" y="0px" width="441px"
	 height="413px" viewBox="0 0 441 413" enable-background="new 0 0 441 413" xml:space="preserve">
<g id="Documentation">
	<g id="Calque_1_-_copie" display="none">
		
			<image display="inline" overflow="visible" width="899" height="671" xlink:href="../../../../layouts/Géraldine Degueldre - Toilettage/Documentation/logo-chienChat_03.jpg"  transform="matrix(0.5382 0 0 0.5382 -235 53.8413)">
		</image>
	</g>
	<g id="Calque_4" display="none">
		
			<image display="inline" overflow="visible" width="1300" height="1300" xlink:href="5B17E974.jpg"  transform="matrix(-0.1185 0 0 0.1237 422 140.2148)">
		</image>
	</g>
	<g id="Calque_6" display="none">
		
			<image display="inline" overflow="visible" width="500" height="500" xlink:href="../../../../layouts/Géraldine Degueldre - Toilettage/Documentation/logo-chienBain_05.jpg"  transform="matrix(-1 0 0 1 535 -66.3325)">
		</image>
	</g>
	<g id="Calque_9" display="none">
		
			<image display="inline" overflow="visible" width="1065" height="1300" xlink:href="5B17E97C.jpg"  transform="matrix(0.43 0 0 0.43 -377.333 -98.0605)">
		</image>
	</g>
	<g id="Calque_11" display="none">
		
			<image display="inline" overflow="visible" width="1014" height="1201" xlink:href="5B17E97F.jpg"  transform="matrix(0.2687 0 0 0.2687 136.5 44.6108)">
		</image>
	</g>
</g>
<g id="Circle">
	<path fill="#272B33" d="M414.5,207c0,111.841-90.659,202.5-202.5,202.5C100.16,409.5,9.5,318.841,9.5,207
		C9.5,95.16,100.16,4.5,212,4.5C323.841,4.5,414.5,95.16,414.5,207z"/>
	<circle fill="#272B33" cx="212" cy="207" r="195"/>
</g>
<g id="Chat">
	<path fill="#BAC2CE" d="M263.5,236c-2.703-11.713-45.885-1.904-49.442-2.202S202.91,233.639,200,232.5
		c-2.5-6.75-6.25-11-8.75-14.25c-1.835-2.386,1.5-3.75,0.931-6.604C202.362,203.791,200.25,191.25,189,185
		c0.25-9.25-3.5-22-11.38-23.782c-4.38-13.282-14.37-14.468-20.87-16.968c-11.539-4.438-4.043-51.433-15.25-52.75
		s-20.5,43-22.397,48.774C111.5,142,95.115,146.42,73.25,157.25c-11.5,2-45.5-26.5-58.25-21.75c-23.287,8.676-2,48.25,8.25,58.5
		c-2.281,9.039,7.25,10.75,7.25,14c0,19.515,5.167,18.667,8.667,18.917C39.25,232,46.67,252.42,56.5,262.25
		c5.205,5.204,1.82,27.104,15.4,29.432C53,341.5,304,411.5,263.5,236z"/>
	<path opacity="0.4" d="M117.5,139.5c0,0,10.293-46.817,22.5-47.5s3,34,14.968,51.42C141.5,138,125.142,137.796,117.5,139.5z"/>
	<path d="M191.25,186c-3.236-1.551,0.962-18.72-12.25-26c-2.492-1.374-4.353-24.024-60-21.25
		c-11.986,0.598-29.706,10.041-46.25,18.75c20.495-7.416,33.947-15.158,46.892-15.788c54.066-2.628,54.813,18.059,57.978,19.506
		c12.674,5.798,8.629,24.136,11.647,25.477c14.123,6.278,8.711,22.254,2.914,24.951c-6.431,23.604-32.899,49.618-91.417,38.832
		c72.675,14.966,91.79-25.112,94.485-36.978C201.858,208.646,204.248,192.229,191.25,186z"/>
	<path d="M15.75,138c19.168-5.181,33.75,22,60.442,19.939c-20.816-1.711-49.003-29.791-63.339-22.879
		c-12.283,5.922-12.944,36.136,8.899,58.788c-2.966,7.281,8.36,12.404,8.09,17.797c-0.27,5.394,0.54,16.719,8.899,15.371
		c0,0-9.169-0.539-7.281-15.371c1.226-9.63-11.056-8.359-6.742-18.606C12.854,186.297-2.203,142.852,15.75,138z"/>
	<path d="M119.642,138.296c2.696-18.337,11.326-48.81,22.921-48.81c8.364,0,4.045,38.292,12.404,53.934
		c-10.248-9.169-5.68-50.513-12.674-51.237C134.473,91.374,125.575,116.723,119.642,138.296z"/>
	<path d="M39.55,229.713c2.697,14.023,8.361,24.271,14.563,32.36c6.433,8.391,3.506,28.046,18.067,29.934
		C56.54,283.377,64.595,272.391,55,258C48.528,248.291,43.865,243.196,39.55,229.713z"/>
	<path fill="#FBC4AD" d="M164.957,187.605c-2.255-3.846-1.048-6.023,4.393-6.882c2.782-0.439,4.983-0.022,6.736-0.292
		c1.753-0.27,1.865-1.546,3.074-1.464c1.349,0.09,6.984-1.363,5.71,5.71c-1.318,7.321-9.621,8.107-11.42,7.028
		C169.057,189.069,167.446,191.852,164.957,187.605z"/>
	<path d="M109.835,187.981c5.987-4.288,10.692-14.538,25.12-9.481C122.879,179.978,119.836,185.065,109.835,187.981z"/>
	<path d="M179.532,165.247c-3.73-0.168-10.118-4.452-11.376,4.427C172.078,165.687,175.435,167.527,179.532,165.247z"/>
	<path d="M183.013,206.387c0.119-3.688-0.097-5.303-2.763-10.303c-3.754-7.039-11.928-5.903-14.167-7.833
		c-3.438-2.966,1.428-7.221,5.75-6.75c6.609,0.721,6.485-2,8.5-2c2.667,0,5.257,0.438,3.167,7c-0.71,2.23-2,3.167-5.543,5.258
		c4.113-0.472,5.731-2.495,6.539-4.517c3.413-8.532-1.752-9.708-4.853-9.169c-3.357,0.583-2.361,2.427-8.225,1.618
		c-7.614-1.05-10.805,7.763-6.54,10.112c4.652,2.562,10.675,1.916,13.455,6.781c4.333,7.583,3.924,17.412-13.792,20.321
		c-7.394,1.214-12.292,9.096-42.042,5.346c30.75,6.75,35.13-1.517,42.5-3c6.2-1.248,15.002-2.982,17.25-9.5
		c2.562,3.236,11,5.25,14.5-2.75C190,209.25,186.385,210.162,183.013,206.387z"/>
	<path d="M191.5,217c0,0,6.5,9.25,10.25,15.75c5,0,50.25-5.25,68.75-4.25c0.5,0-0.019,2.686-0.25,3.25c-16.5-1.5-64.75,2.5-70,2.75
		c-2.25-5.75-6.5-11.75-9.5-14.5C190.75,218.25,191.5,217,191.5,217z"/>
	<path opacity="0.2" d="M191.25,218.25c2.25,3.084,4.425,5.432,6.083,8.417C188.5,250.167,151,269,100.765,250.478
		C100.765,250.478,169.167,267.334,191.25,218.25z"/>
</g>
<g id="Concombre" display="none">
	<path display="inline" d="M171.217,173.754c-10.562-7.372-6.602-31.802,8.496-24.672
		C192.367,155.059,190.184,186.991,171.217,173.754z"/>
	<path display="inline" d="M126.645,203.522c10.208-0.472,23.104-9.684,22.353-24.252c-1.136-22.059-27.973-32.122-39.83-12.432
		C98.676,184.262,117.207,203.958,126.645,203.522z"/>
	<path display="inline" fill="#E4E09E" d="M145.231,185.253c6.75-13.062-16.851-40.142-35.152-16.78
		C99.554,181.908,126.138,222.203,145.231,185.253z"/>
	<path display="inline" fill="#D7C98B" d="M125.542,182.686c-1.444-0.729-7.746,2.988-3.157,5.264
		C125.059,189.279,127.722,183.788,125.542,182.686z"/>
	<path display="inline" fill="#D7C98B" d="M130.657,187.498c1.584-2.154-1.996-5.509-4.009-2.278
		C124.435,188.77,128.542,190.379,130.657,187.498z"/>
	<path display="inline" fill="#D7C98B" d="M122.421,176.356c1.87,2.503-1.171,5.461-3.964,5.496
		C114.443,181.901,119.499,172.441,122.421,176.356z"/>
	<path display="inline" fill="#D7C98B" d="M125.213,169.866c2.259-0.22,1.965,9.505-1.289,6.822
		C120.669,174.006,122.149,170.168,125.213,169.866z"/>
	<path display="inline" fill="#D7C98B" d="M131.976,177.246c3.823-1.275,2.319-8.063-0.859-6.971
		C127.94,171.367,127.916,178.602,131.976,177.246z"/>
	<path display="inline" fill="#D7C98B" d="M131.381,177.606c3.864-0.567,6.148,3.57,3.235,4.968
		C131.707,183.971,125.842,178.423,131.381,177.606z"/>
	<path display="inline" fill="#B7BA40" d="M118.422,186.418c1.125-1.747,5.57-4.811,7.716-4.663
		c2.148,0.151,6.633,3.432,6.401,5.587c-0.231,2.156,5.45-3.449,3.248-3.202c-2.204,0.247-6.594-1.542-7.431-4.344
		c-0.837-2.8,0.392-8.658,1.907-10.038c1.514-1.378-4.333-2.185-3.6,0.265c0.732,2.45,0.585,7.239-1.466,8.581
		c-2.052,1.344-6.108,4.774-8.421,5.243C114.464,184.317,117.226,188.278,118.422,186.418z"/>
	<path display="inline" fill="#B7BA40" d="M112.358,165.546c-13.411,17.755,6.725,38.914,18.146,34.339
		c7.943-3.184,16.728-8.582,15.917-22.375C145.473,161.447,122.4,152.246,112.358,165.546z M142.706,178.565
		c0.51,3.463-0.002,7.026-1.639,10.34c-1.638,3.314-4.594,5.88-6.875,6.893c-3.558,1.583-5.872,2.048-8.56,2.434
		c-2.687,0.386-4.653-2.666-7.815-3.286c-3.163-0.62-5.632-7.703-7.014-9.398c-1.383-1.697-1.314-10.26,0.166-14.099
		c1.48-3.84,5.642-6.921,9.473-9.34s7.037,0.088,11.116,0.258c4.081,0.168,6.356,4.269,8.646,6.656
		C142.493,171.41,142.196,175.102,142.706,178.565z"/>
	<path display="inline" fill="#577133" d="M145.606,171.854c-6.409-17.928-29.619-17.025-36.283-2.977
		c-6.664,14.048,4.798,31.297,15.421,32.834C136.196,203.37,152.015,189.779,145.606,171.854z M124.253,199.133
		c-9.422-1.437-19.667-17.038-13.831-29.667c5.839-12.632,26.405-13.335,32.173,2.851
		C148.365,188.505,134.408,200.68,124.253,199.133z"/>
	<path display="inline" fill="#E4E09E" d="M171.875,171.666c-6.864-4.402-7.066-26.806,7.53-21.133
		C187.8,153.798,191.286,184.121,171.875,171.666z"/>
	<path display="inline" fill="#D7C98B" d="M178.366,163.379c0.297-0.888,3.882-1.181,2.928,1.62
		C180.74,166.634,177.918,164.723,178.366,163.379z"/>
	<path display="inline" fill="#D7C98B" d="M178.224,172.893c-1.213-0.778-0.58-3.711,1.089-2.441
		C181.146,171.846,179.847,173.932,178.224,172.893z"/>
	<path display="inline" fill="#D7C98B" d="M177.423,158.99c0.137,1.959,2.253,2.423,3.308,1.455
		C182.244,159.051,177.213,155.922,177.423,158.99z"/>
	<path display="inline" fill="#D7C98B" d="M174.225,156.604c-0.917,0.681,2.429,5.63,2.75,3.088
		C177.294,157.148,175.466,155.678,174.225,156.604z"/>
	<path display="inline" fill="#D7C98B" d="M174.156,162.825c-1.849,0.688-3.547-3.371-1.996-3.924
		C173.708,158.347,176.119,162.097,174.156,162.825z"/>
	<path display="inline" fill="#D7C98B" d="M174.499,162.803c-1.631,1.07-1.107,4.025,0.446,3.724
		C176.495,166.226,176.836,161.271,174.499,162.803z"/>
	<path display="inline" fill="#B7BA40" d="M182.261,162.806c-0.999-0.512-3.677-0.534-4.428,0.301
		c-0.75,0.836-1.333,4.125-0.529,5.164c0.803,1.036-3.179,0.133-2.275-0.516c0.904-0.651,1.946-3.132,1.326-4.882
		c-0.619-1.751-3.026-4.359-4.049-4.542c-1.022-0.182,0.89-2.666,1.432-1.133c0.542,1.531,2.186,3.967,3.401,3.94
		c1.21-0.026,3.866,0.324,4.882-0.25C183.038,160.313,183.328,163.347,182.261,162.806z"/>
	<path display="inline" fill="#B7BA40" d="M177.584,149.819c10.906,4.488,10.433,22.59,4.649,24.249
		c-4.02,1.151-9.094,1.45-13.377-6.003C163.868,159.385,169.413,146.456,177.584,149.819z M170.593,167.301
		c0.962,1.979,2.337,3.65,4.05,4.792c1.713,1.145,3.668,1.434,4.855,1.155c1.854-0.438,2.873-1.01,4.001-1.759
		c1.133-0.75,0.852-3.028,1.824-4.467c0.974-1.438-0.462-5.992-0.511-7.361c-0.049-1.37-2.922-5.794-4.75-7.268
		c-1.828-1.473-4.406-1.604-6.64-1.507c-2.233,0.097-2.594,2.531-4.058,4.06c-1.467,1.529-0.951,4.462-1.013,6.512
		C168.292,163.507,169.631,165.322,170.593,167.301z"/>
	<path display="inline" fill="#577133" d="M167.279,164.838c-3.571-11.578,5.386-19.307,12.543-14.361
		c7.156,4.946,8.62,17.958,5.167,22.506C181.27,177.888,170.85,176.414,167.279,164.838z M184.317,171.471
		c3.037-4.074,1.669-15.799-4.71-20.3c-6.378-4.5-14.284,2.398-11.051,12.844C171.789,174.465,181.042,175.858,184.317,171.471z"/>
</g>
<g id="Chien">
	<path fill="#828D9E" d="M381.947,252.032c-6.555-14.198-17.893-30.275-30.396-34.994c40.449-32.037,79.813-75.271,85.184-127.325
		c-16.873-13.573-63.375,8.343-79.686,16.331c-21.006-1.777-24.238-14.736-47.168-20.631c0.756-2.363,3.986-11.297-4.779-13.265
		c-10.914-2.45-25.334,8.929-28.059,11.186c-29.926,4.586-34.457,29-34.35,32.417c0.111,3.551-0.021,6.448-0.658,9.664
		c-4.391-0.217-9.865,5.377-8.934,9.949c-1.537,0.713-2.848,1.709-3.816,3.021c-0.328,0.172-0.658,0.381-0.988,0.652
		c-1.732,1.417-2.932,3.656-3.592,6.064c-2.074,0.417-8.018,2.07-10.219,10.738c-1.121,4.416-0.186,7.103,1.914,9.389
		c-1.085,9.32,2.998,18.375,7.266,22.439c2.068,1.969,5.554,4.986,11.001,7.667c-0.275,3.862-1.577,20.736-3.667,25.334
		c-2.354,5.176,6.624,5.934,5.333,9c-1.656,3.934-10.499,29.084-3.917,42.082c3.484,6.877,5.828,30.171,0.084,42.027
		C232.5,313.777,403.5,340.5,381.947,252.032z M264.688,310.351 M329.191,272.712 M368.141,270.622 M356.961,106.088"/>
	<path opacity="0.4" d="M276.418,82.97c-4.929,1.092,18.951-14.175,28.517-11.573s3.926,13.432,3.926,13.432
		S287.836,80.44,276.418,82.97z"/>
	<path d="M239.169,134.011c1.768-2.418,3.416-5.708,3.565-9.225c-4.589-1.119-11.087,5.216-9.745,10.144
		C234.595,134.317,236.626,133.959,239.169,134.011z"/>
	<path fill="#FBC4AD" d="M226.54,153.951c1.899,1.214,15.302,2.134,19.327-7.163c3.995-9.23-7.456-6.637-10.555-8.328
		c-2.915-1.592-7.045-3.248-9.316,0.199C222.453,144.032,221.491,150.722,226.54,153.951z"/>
	<path d="M280.344,145.037c1.653-2.066,5.924-7.163,13.225-5.097c9.231,2.613,11.849,13.5,10.058,16.256s-9.506,7.164-18.185,2.342
		C276.762,153.716,278.7,147.093,280.344,145.037z"/>
	<path d="M235.396,137.562c-2.319-0.773-5.697-2.375-8.729,0.104c-6.004,4.914-6.868,14.784-0.741,17.836
		c3.03,1.511,16.449,2.497,21.217-8.021C251.629,137.583,240.356,139.216,235.396,137.562z M244.667,147.5
		c-4.834,7.833-13.875,7.25-18.042,6.25c-3.819-0.917-4.707-10.226,0.042-13.75c2.88-2.138,5.796-0.167,8,0.5
		C239.382,141.924,249.553,139.583,244.667,147.5z"/>
	<path d="M225.996,165.628c-6.924,2.376-11.814-4.09-10.437-9.402c1.427-5.5,3.134-8.644,7.679-9.849
		c0.599-0.158,0.311-2.026,0.311-2.027c-2.066,0.414-7.025,2.06-9.229,10.739c-2.205,8.68,3.514,14.569,10.469,12.463
		c7.096,13.885,33.65,26.387,50.802,21.221C263.812,191.563,235.708,182.47,225.996,165.628z"/>
	<path fill="#FFFFFF" d="M281.481,149.028c0.896-1.068,2.589-1.512,3.019-2.028c0.225-1.033-0.211-2.346,0.977-3.482
		C283.307,143.827,281.24,145.739,281.481,149.028z"/>
	<path d="M228.682,138.282c4.684-7.715,20.044-5.924,27.828,0.551c-7.576-3.168-21.146-7.026-24.729-1.309
		C230.61,138.076,228.682,138.282,228.682,138.282z"/>
	<path fill="#FFFFFF" d="M234.933,133.959c0.121-2.487,2.054-4.581,4.288-5.94c-1.111-0.568-3.151,0.671-3.979,1.834
		c-0.634,0.892-1.533,2.966-0.667,4.213C234.691,134.029,234.813,133.995,234.933,133.959z"/>
	<path d="M242.527,115c-0.123-3.897,5.786-35.13,48.562-33.063c42.776,2.066,39.057,20.045,64.268,23.351
		c-25.689,1.379-22.524-19.251-63.854-20.698c-37.813-1.323-46.364,23.56-46.114,30.204c0.412,11.056-4.308,16.945-6.477,19.528
		C242.114,125.952,242.734,121.613,242.527,115z"/>
	<path d="M276.418,82.97c0,0,16.416-14.29,28.517-11.573c10.126,2.273,5.579,13.845,5.579,13.845l-1.653-0.413
		c0,0,4.96-11.366-4.959-12.399c-11.761-1.225-25.417,10.54-25.417,10.54H276.418z"/>
	<path d="M216.283,165.009c-1.24,9.505,1.652,18.185,5.992,22.317c4.34,4.133,15.705,12.296,35.854,14.155
		c-13.121-3.203-22.524-4.752-32.133-13.742c-8.537-7.985-8.474-18.184-7.44-20.664C217.73,166.455,216.283,165.009,216.283,165.009
		z"/>
	<path d="M356.39,213.363c39.676-29.756,74.806-72.326,80.179-124.4c-19.011-15.292-76.722,14.158-84.312,18.598
		c15.41-4.561,74.077-29.894,80.592-15.705C431.609,102.602,424.996,154.263,356.39,213.363z"/>
	<path d="M238.759,230.316c0.47-6.587-8.058-5.646-6.175-8.469c1.882-2.822,3.822-26.285,3.822-26.285l-2.882-1.47
		c0,0-1.411,21.64-3.764,26.814c-2.353,5.176,6.937,6.344,5.646,9.41c-1.656,3.934-9.739,27.686-3.156,40.684
		c3.538,6.985,5.5,31-0.583,42.667c0.333,0.208,1.083,0.458,1.583,0.583c4.177-7.863,7.725-31.72,1.75-44
		C230.5,261,234,238.668,238.759,230.316z"/>
	<path d="M381.781,251.282c-6.997-15.158-17.124-29.458-26.218-32.133c11.557,8.722,19.429,21.01,24.532,33.162
		C380.647,251.949,381.209,251.605,381.781,251.282z"/>
	<path opacity="0.4" d="M235,195.333c0,0,16.417,8.75,42.417,6.083c-27.333,11.334-42.75,2.583-42.75,2.583L235,195.333z"/>
</g>
<g id="Chien_-_Mousse">
</g>
<g id="Mousse">
	<path fill="#A3D0C3" d="M24.608,261.093C48.058,342.472,123.074,402,212,402c95.679,0,175.257-68.912,191.825-159.809
		c-24.631-20.981-66.908,3.304-64.825,32.473C308.5,232.5,235.5,275,260.932,316.829c-26.862-21.893-56.912,3.976-58.249,23.784
		c-8.835-20.314-38.445-20.839-53.544-4.974c-4.374-7.06-14.78-27.887-49.081-6.629C109.953,295.508,66.613,250.069,24.608,261.093z
		"/>
	<path d="M54.815,279.002c-3.866,0.104-6.915,3.32-6.813,7.182c0.102,3.867,3.317,6.916,7.183,6.813
		c3.865-0.103,6.914-3.317,6.812-7.183C61.895,281.951,58.68,278.9,54.815,279.002z M55.133,290.998
		c-2.762,0.074-5.058-2.104-5.131-4.867c-0.073-2.758,2.104-5.057,4.866-5.13s5.057,2.106,5.13,4.866
		C60.071,288.629,57.893,290.926,55.133,290.998z"/>
	<path d="M337.667,270.833C306,232,236.5,273.5,257.438,312.638C230,299,208,318.333,202.875,336.416
		C193.667,324,163,316.667,148.896,335.721c-0.413-2.05-10.897-29.721-46.699-9.78c4.136-24.607-21.864-72.607-78.464-68.011
		c0.406,1.504,0.829,3,1.27,4.489c33.33-5.086,85.33,29.581,69.383,76.536c25.28-37.955,78.28-4.288,35.947,24.379
		c18,0.999,24,15.333,15.675,27.205c0.643,0.231,1.289,0.457,1.935,0.682c12.39-16.554-2.263-27.993-10.472-29.843
		c7.981-5.814,12.101-13.925,11.835-22.004c8.36-17.041,61.361-22.041,57.726,27.333c4.802-10.051,0.29-22.972-3.031-27.884
		c17.666-43.823,67.999-30.49,68.833,9.833c16.833-29.323,49.499-9.323,47.333,9.178c5.166-13.834,19.833-19.167,27.078-10.37
		c0.471-0.452,0.936-0.911,1.401-1.368c-3.979-7.763-21.313-8.763-27.313,5.905c2-18.001-35.666-32.334-46.916-8.75
		c-0.955-12.938-5.157-21.694-14.417-28.084C239.5,267,317,238.5,339,276.333c10.667-52.998,57.333-41.168,64.124-30.479
		c0.237-1.173,1.159-3.173,1.376-4.354C398.666,231.332,348.166,220.165,337.667,270.833z"/>
	<path d="M363.725,255.208c-3.198-0.861-6.49,1.035-7.352,4.233c-0.859,3.198,1.034,6.489,4.231,7.352
		c3.199,0.861,6.49-1.034,7.354-4.232C368.818,259.363,366.922,256.068,363.725,255.208z M366.512,262.171
		c-0.65,2.398-3.118,3.818-5.518,3.175c-2.397-0.649-3.816-3.116-3.174-5.515c0.647-2.398,3.116-3.819,5.515-3.176
		C365.732,257.302,367.154,259.773,366.512,262.171z"/>
	<path d="M256.604,350.005c-8.28,0.221-14.816,7.112-14.598,15.392c0.219,8.282,7.11,14.817,15.392,14.599
		c8.28-0.221,14.815-7.11,14.598-15.392C271.775,356.322,264.884,349.786,256.604,350.005z M257.344,377.995
		c-7.177,0.19-13.149-5.474-13.339-12.652c-0.189-7.175,5.475-13.147,12.653-13.338c7.175-0.189,13.147,5.474,13.338,12.652
		C270.185,371.834,264.521,377.805,257.344,377.995z"/>
	<path d="M318.139,276.34c-11.042,0.291-19.756,9.481-19.465,20.522c0.293,11.042,9.481,19.757,20.521,19.464
		c11.044-0.292,19.757-9.48,19.464-20.521C338.368,284.763,329.182,276.047,318.139,276.34z M319.142,314.326
		c-9.936,0.265-18.204-7.578-18.469-17.519c-0.262-9.936,7.58-18.207,17.519-18.468c9.939-0.265,18.206,7.579,18.469,17.519
		C336.923,305.795,329.082,314.064,319.142,314.326z"/>
	<path d="M256.681,354.835c-3.122,0.082-5.595,2.685-5.513,5.813c0.084,3.129,2.689,5.599,5.813,5.515
		c3.126-0.084,5.599-2.685,5.517-5.815C262.414,357.218,259.809,354.753,256.681,354.835z M256.949,364.997
		c-2.479,0.067-4.551-1.895-4.614-4.381c-0.068-2.482,1.899-4.55,4.382-4.615c2.478-0.065,4.551,1.892,4.614,4.381
		C261.399,362.867,259.432,364.93,256.949,364.997z"/>
	<path d="M322.852,283.335c-3.132,0.084-5.598,2.688-5.516,5.815c0.084,3.127,2.686,5.597,5.814,5.514
		c3.132-0.083,5.598-2.687,5.515-5.815C328.583,285.724,325.98,283.252,322.852,283.335z M323.119,293.497
		c-2.486,0.068-4.552-1.893-4.617-4.379c-0.066-2.481,1.892-4.552,4.379-4.617c2.488-0.067,4.554,1.896,4.617,4.38
		C327.566,291.366,325.607,293.434,323.119,293.497z"/>
</g>
<g id="Bulle">
	<circle fill="#A3D0C3" cx="83.193" cy="47.346" r="28.219"/>
	<path d="M83.194,15.847c-17.397,0-31.5,14.101-31.5,31.5s14.103,31.5,31.5,31.5c17.398,0,31.5-14.102,31.5-31.5
		S100.592,15.847,83.194,15.847z M83.194,75.565c-15.584,0-28.219-12.634-28.219-28.219c0-15.585,12.635-28.218,28.219-28.218
		c15.585,0,28.218,12.633,28.218,28.218C111.412,62.932,98.779,75.565,83.194,75.565z"/>
	<path d="M97.758,32.844c0.115-3.94-5.562-7.996-9.387-8.228c0,0-1.507,0.812-2.202,1.39C92.425,27.05,95.555,29.714,97.758,32.844z
		"/>
	<path d="M99.611,55.325c2.609-2.118,3.824-9.27,3.129-12.862c0,0-1.142,1.302-2.549,1.391
		C101.234,46.519,101.234,50.11,99.611,55.325z"/>
</g>
</svg>
