<?xml version="1.0" encoding="utf-8"?>
<!DOCTYPE svg PUBLIC "-//W3C//DTD SVG 1.1//EN" "http://www.w3.org/Graphics/SVG/1.1/DTD/svg11.dtd">
<svg version="1.1" id="logo" xmlns="http://www.w3.org/2000/svg" xmlns:xlink="http://www.w3.org/1999/xlink" x="0px" y="0px"
	 width="350px" height="350px" viewBox="0 0 350 350" enable-background="new 0 0 350 350" xml:space="preserve">
<path fill="#272B33" d="M307.753,197.109c0,84.441-68.896,152.891-153.874,152.891C68.889,350,0,281.549,0,197.109
	C0,112.68,68.889,44.235,153.879,44.235C238.857,44.235,307.753,112.681,307.753,197.109z"/>
<path fill="#6D809B" d="M274.816,241.34c5.965-4.968-25.758-28.143-25.537-37.324c10.595-10.428,12.093-13.678,21.271-25.162
	c10.89-3.514,20.991-6.029,26.351-17.768c12.601-14.252,9.268-30.252,7.934-33.252c7.73-14.495-6.405-36.885-32.645-38.852
	c-4.043-0.303-0.012-9.549-12.252-12.448c-3.248-7.854-3.488-11.606-10.438-18.02c-12.004-11.071-38.047-14.208-52.898-10.48
	c-37.819,9.496-54.67,25.634-77.17,30.893C93.344,78.341-27.167,48.5,6.5,96.833c10.361,13.831,22.998,30.201,37.985,39.879
	c3.875,2.504,18.15,9.213,20.987,13.576c-3.926,4.687-6.42,14.563-6.431,14.563c-8.277,3.328-15.896,11.024-22.062,20.547
	c-9.575,4.563-22.926,12.645-29.953,21.074c-0.351,6.676,2.6,25.654,4.567,31.271C28.323,285.475,155.757,374.674,274.816,241.34z"
	/>
<path fill="#4B5B6D" d="M59.428,162.052c4.266,1.524,6.439,3.779,11.596,3.382c4.095-0.315,7.149-2.376,11.005-3.488
	c7.573-2.184,16.255-3.654,23.26-7.034c-8.621-0.631-15.078,3.805-23.152,3.286c-3.596-0.231-7.797-0.655-10.751-2.306
	c-3.003-1.678-3.744-3.342-5.999-6.08C62.488,148.685,59.428,162.052,59.428,162.052z"/>
<path fill="#4B5B6D" d="M281.68,174.131c-9.18-1.933-14.012-3.865-16.427-8.697c9.181,2.416,24.497,0.566,32.922-6.382
	C295.25,168.5,281.68,174.131,281.68,174.131z"/>
<path fill="#4B5B6D" d="M209.206,223.413c7.712,2.827,34.372,1.135,47.417-8.045c-2.898-0.483-6.35-7.416-7.344-11.353
	C242.061,211.334,229.016,220.997,209.206,223.413z"/>
<path d="M218.703,91.326c4.354,0.992,4.436,3.51-0.367,6.801c-1.99,6.032-31.188,7.774-30.252,7.024
	c6.221-5.004,1.82-14.916,17.096-20.082C209.736,83.529,217.665,88.899,218.703,91.326z"/>
<path fill="#F7F8F9" d="M202.12,88.291c-5.959,2.496-8.151,11.078-9.021,14.172C196,106,228,101.5,216.615,92.638
	C213.716,107.617,188.592,98.598,202.12,88.291z"/>
<path fill="#FFFFFF" d="M212.705,91.423c0.285,1.575-0.739,3.065-2.283,3.335c-1.544,0.271-3.012-0.783-3.289-2.349
	c-0.273-1.574,0.739-3.066,2.283-3.335C210.958,88.805,212.43,89.858,212.705,91.423z"/>
<path fill="#4B5B6D" d="M169.444,57.607c-8.088-8.131-29.671-38.471-38.588-31.723c3.845,15.249,14.028,22.146,13.363,41.374
	L169.444,57.607z"/>
<path fill="#4B5B6D" d="M94,158.5c-17,48.5,38,93.5,79,82c-41,0.5-87-42.5-72-85C94,156,94,158.5,94,158.5z"/>
<path d="M144.119,67.258c-1.349-13.385-7.117-23.543-11.884-36.028c-0.089-0.942-2.347-4.744-1.826-5.483
	c3.508-4.969,12.697,2.4,15.391,4.648c8.948,7.538,17.384,17.7,23.573,27.283c-6.088-5.299-28.627-37.851-38.285-31.488
	C135.75,37.736,147.166,52.742,144.119,67.258z"/>
<path d="M64.699,149.745c-8.004,11.408-5.047,28.313-7.421,41.401C52.583,182.21,55.887,155.62,64.699,149.745z"/>
<path d="M58.018,165.746c-12.796,3.908-14.578,16.717-23.818,24.138C36.595,179.748,46.919,165.614,58.018,165.746z"/>
<path fill="#EFDAE6" d="M92.5,118.167c4.333,9.333,4.361,24.5-17.442,24.281c-19.354-0.195-35.278-13.088-45.263-29.515
	c-7.86-12.931-17.555-18.037-14.012-26.413c3.543-8.375,52.664-12.079,69.735,9.019c-14.495-0.322-17.394,6.281-17.394,6.281
	s13.689-1.771,14.817,2.577c-2.416-0.162-6.925-1.933-7.892,3.382C80.526,107.456,88.616,109.802,92.5,118.167z"/>
<path fill="#EFDAE6" d="M11.483,237.955c17.819,61.434,74.821,106.38,142.396,106.38c72.704,0,127.823-48.942,143.899-111.933
	c-18.716-15.83-48.22-2.618-47.396,15.797c-23.178-31.818-78.643,0.249-59.327,31.837c-20.414-16.534-43.245,3.003-44.259,17.955
	c-6.713-15.332-29.222-15.738-40.696-3.761c-3.321-5.324-11.223-21.049-37.286-4.994C76.334,263.939,43.396,229.645,11.483,237.955z
	"/>
<path d="M34.438,251.473c-2.942,0.078-5.257,2.514-5.179,5.424c0.074,2.925,2.517,5.23,5.454,5.146
	c2.941-0.08,5.253-2.503,5.176-5.423C39.817,253.71,37.37,251.396,34.438,251.473z M34.672,260.527
	c-2.095,0.06-3.84-1.588-3.895-3.674c-0.056-2.082,1.594-3.813,3.697-3.871c2.096-0.062,3.842,1.596,3.899,3.682
	C38.425,258.75,36.774,260.473,34.672,260.527z"/>
<path d="M249.357,245.322c-24.058-29.324-76.867,2.002-60.959,31.549c-20.854-10.303-37.559,4.305-41.454,17.949
	c-7.005-9.368-30.303-14.908-41.015-0.531c-0.313-1.546-8.289-22.428-35.489-7.373c3.142-18.586-16.617-54.825-59.629-51.352
	c0.309,1.132,0.631,2.264,0.968,3.398c25.334-3.854,64.84,22.335,52.722,57.77c19.209-28.652,59.485-3.229,27.317,18.408
	c13.673,0.766,18.235,11.586,11.911,20.539c0.494,0.17,0.983,0.348,1.465,0.512c9.421-12.493-1.716-21.137-7.951-22.526
	c6.063-4.39,9.197-10.511,8.996-16.608c6.346-12.854,46.625-16.646,43.867,20.644c3.641-7.597,0.21-17.355-2.312-21.06
	c13.417-33.093,51.673-23.018,52.313,7.42c12.778-22.139,37.607-7.035,35.951,6.935c3.924-10.448,15.071-14.465,20.574-7.827
	c0.37-0.342,0.721-0.691,1.072-1.032c-3.021-5.85-16.208-6.622-20.762,4.454c1.521-13.587-27.103-24.414-35.643-6.611
	c-0.724-9.75-3.914-16.36-10.953-21.185c-15.58-36.378,41.164-57.862,60.03-29.323c3.11-29.188,41.908-24.141,47.067-16.076
	c0.175-0.879,0.881-2.389,1.035-3.283C294.063,222.436,255.463,217.643,249.357,245.322z"/>
<path d="M269.171,233.514c-2.437-0.649-4.935,0.774-5.599,3.192c-0.654,2.414,0.785,4.903,3.215,5.556
	c2.438,0.654,4.938-0.792,5.596-3.203C273.04,236.643,271.596,234.174,269.171,233.514z M271.279,238.764
	c-0.489,1.813-2.373,2.893-4.192,2.395c-1.819-0.479-2.896-2.348-2.407-4.153c0.493-1.815,2.367-2.881,4.19-2.399
	C270.688,235.098,271.771,236.951,271.279,238.764z"/>
<path d="M178.407,297.859c-6.504,0.186-11.642,5.563-11.475,12.033c0.183,6.469,5.605,11.569,12.105,11.408
	c6.523-0.182,11.666-5.563,11.48-12.021C190.346,302.804,184.941,297.693,178.407,297.859z M179,319.738
	c-5.649,0.143-10.332-4.284-10.493-9.889c-0.142-5.615,4.306-10.264,9.945-10.43c5.662-0.137,10.358,4.283,10.496,9.893
	C189.102,314.928,184.646,319.587,179,319.738z"/>
<path d="M234.52,249.469c-8.381,0.217-15.006,7.152-14.785,15.492c0.231,8.34,7.207,14.911,15.597,14.699
	c8.394-0.225,15.021-7.159,14.798-15.495C249.895,255.832,242.92,249.25,234.52,249.469z M235.291,278.148
	c-7.545,0.189-13.832-5.717-14.045-13.222c-0.195-7.506,5.76-13.762,13.307-13.946c7.559-0.198,13.834,5.726,14.055,13.222
	C248.797,271.701,242.843,277.939,235.291,278.148z"/>
<path d="M178.479,301.641c-2.469,0.068-4.396,2.103-4.325,4.541c0.047,2.453,2.112,4.363,4.556,4.311
	c2.459-0.059,4.413-2.098,4.341-4.539C182.984,303.514,180.941,301.578,178.479,301.641z M178.691,309.584
	c-1.955,0.04-3.587-1.484-3.625-3.428c-0.051-1.941,1.504-3.549,3.438-3.604c1.959-0.053,3.571,1.48,3.632,3.421
	C182.193,307.91,180.643,309.53,178.691,309.584z"/>
<path d="M238.107,254.741c-2.387,0.065-4.248,2.05-4.194,4.401c0.058,2.354,2.044,4.227,4.423,4.157
	c2.378-0.065,4.256-2.021,4.189-4.383C242.461,256.544,240.489,254.695,238.107,254.741z M238.309,262.427
	c-1.889,0.052-3.461-1.432-3.51-3.31c-0.042-1.877,1.441-3.44,3.321-3.493c1.892-0.039,3.466,1.44,3.524,3.308
	C241.693,260.804,240.202,262.37,238.309,262.427z"/>
<path fill="#EFDAE6" d="M350,34.336c0,42.393-66.27,42.394-66.27,0C283.73-8.05,350-8.05,350,34.336z"/>
<path d="M349.998,34.344C349.673,50.999,338.584,65.088,321.834,67c-30.667,3.5-46.66-24.385-36.128-47.272
	C301.049-13.613,349.9-0.811,349.998,34.344z M348.698,34.336c-1.036-36.402-54.968-43.197-63.048-6.362
	C275.781,72.965,348.231,79.711,348.698,34.336z"/>
<path d="M333.854,17.461c0.136-4.589-6.516-9.306-10.995-9.576c0,0-1.768,0.943-2.585,1.616
	C327.607,10.718,331.275,13.818,333.854,17.461z"/>
<path d="M336.021,43.624c3.06-2.466,4.483-10.79,3.66-14.974c0,0-1.332,1.517-2.969,1.626
	C337.926,33.379,337.926,37.561,336.021,43.624z"/>
<path d="M271.869,89.161c17.158-1.125,47.676,22.454,33.221,41.477c-2.997-2.237-0.426-2.739,0.299-6.113
	c1.421-6.613-1.462-13.829-5.025-19.287C293.616,94.911,283.218,90.489,271.869,89.161z"/>
<path d="M204.293,66.514c-7.305-4.511-18.8-4.332-23.447,4.001c-3.15,5.605-2.457,11.906-2.705,17.66
	C168.747,71.088,191.592,52.303,204.293,66.514z"/>
<path fill="#6D809B" d="M7.027,206.475c5.622-8.08,23.015-18.258,29.953-21.074"/>
<path d="M6.908,206.384c6.2-9.556,18.604-19.302,30.015-21.122C28.957,193.507,15.597,198.784,6.908,206.384z"/>
<path d="M248.364,203.43c4.96,9.375,15.001,14.981,21.549,23.119C261.45,225.28,249.561,211.459,248.364,203.43z"/>
<path d="M186.641,121.422c5.853,18.295,19.271,46.202,41.906,46.945c10.678,0.304,21.771-3.072,30.568-9.077
	c11.076-7.56,9.637-25.465,11.222-37.354c0.804-6.017,2.263-20.868,11.597-19.623c9.514-0.965,17.055,10.851,20.196,18.111
	c12.489,28.85-3.63,52.743-36.903,45.155c8.273,0.254,18.498,1.748,27.445-3.558c13.948-8.272,12.901-27.542,7.015-40.517
	c-2.585-5.698-9.855-17.684-17.894-16.153c-7.828-0.46-8.55,16.325-9.243,21.087c-1.56,10.701-1.112,26.106-10.56,33.365
	c-8.678,6.579-19.881,9.832-30.672,10.165C209.49,170.642,187.796,141.259,186.641,121.422z"/>
<path d="M178.709,131.536c0,0,0.167-0.526,0.459-1.446c0.133-0.463,0.342-1.014,0.596-1.647c0.125-0.318,0.258-0.656,0.397-1.013
	c0.162-0.347,0.332-0.711,0.51-1.092c0.333-0.776,0.802-1.565,1.291-2.412c0.222-0.438,0.558-0.822,0.854-1.246
	c0.31-0.416,0.604-0.857,0.998-1.239c0.381-0.391,0.74-0.818,1.162-1.198c0.445-0.357,0.897-0.719,1.354-1.083
	c0.479-0.339,1.021-0.6,1.54-0.903l0.396-0.22c0.232-0.11,0.283-0.119,0.437-0.184l0.769-0.308c1.207-0.408,2.353-0.659,3.485-0.846
	c1.131-0.183,2.244-0.283,3.287-0.303c1.053-0.01,2.036,0.018,2.966,0.084c0.92,0.039,1.783,0.09,2.571,0.114
	c0.788,0.019,1.51,0.026,2.151-0.002c0.644-0.019,1.205-0.072,1.674-0.127c0.479-0.029,0.834-0.135,1.102-0.158
	c0.264-0.038,0.404-0.057,0.404-0.057l0.137,0.267c0,0-0.109,0.093-0.316,0.267c-0.215,0.161-0.517,0.451-0.963,0.695
	c-0.224,0.128-0.471,0.271-0.74,0.426c-0.282,0.124-0.592,0.258-0.92,0.401c-0.666,0.257-1.441,0.507-2.297,0.678
	c-0.854,0.191-1.777,0.312-2.746,0.399c-0.963,0.099-1.973,0.124-2.98,0.139c-0.994-0.007-2.021-0.015-3.064-0.023
	c-1.021,0.003-2.051,0.147-2.967,0.317l-0.792,0.228l-0.196,0.057l-0.102,0.029l-0.023,0.007c-0.05,0.018,0.053-0.021,0.037-0.015
	l-0.01,0.005l-0.043,0.019l-0.338,0.149c-0.447,0.21-0.922,0.37-1.354,0.614c-0.422,0.271-0.84,0.539-1.252,0.804
	c-0.396,0.292-0.752,0.64-1.127,0.95c-0.387,0.299-0.695,0.676-1.018,1.026c-0.309,0.361-0.657,0.678-0.92,1.056
	c-0.559,0.728-1.102,1.415-1.516,2.115c-0.22,0.343-0.429,0.671-0.627,0.984c-0.181,0.324-0.351,0.632-0.51,0.921
	c-0.32,0.577-0.602,1.088-0.809,1.527c-0.43,0.865-0.676,1.359-0.676,1.359L178.709,131.536z"/>
<path d="M268.254,89.28c4.246-8.28-5.256-11.562-11.504-12.03c-7.07-0.531-15.21,2.067-21.02,5.708
	c-8.926,5.596-13.554,16.506-23.105,20.085c-10.258,3.549-20.945,0.501-30.855,4.779c-11.277,4.837-18.589,15.301-26.798,23.219
	c7.54-11.439,18.145-24.827,32.53-27.541c8.53-1.756,20.5-1.75,27.997-4.026c7.409-9.44,16.009-17.327,27.338-21.773
	C249.73,74.987,277,74,268.254,89.28z"/>
<path d="M207.745,223.264c28.376-2.125,41.703-26.555,61.748-42.953C261.018,199.195,230.318,227.22,207.745,223.264z"/>
<path d="M296.789,161.641c-5.4,12.797-22.684,21.032-35.876,18.923C275,177.75,286.535,173.746,296.789,161.641z"/>
<path d="M186.167,101.5c-6.685,2.077-13.662,3.073-20.561,4.155C171.412,101.854,179.378,100.712,186.167,101.5z"/>
<path fill="#6D809B" d="M191.168,105.523c8.857,0,17.232-0.483,26.574-4.349C214.521,111.804,198.723,115.422,191.168,105.523z"/>
<path d="M205.332,53.243c15.837-2.077,32.828,2.931,40.038,17.559c-7.452-6.361-11.481-12.331-21.574-14.796
	C217.757,54.551,211.206,53.571,205.332,53.243z"/>
<path d="M191.721,102.104c3.73-12.134,14.156-20.281,27.155-16.811C205.555,87.804,198.477,89.514,191.721,102.104z"/>
<path d="M185.915,90.865c-0.511-15.802,25.758-24.685,28.181-5.894C207.061,71.099,187.547,75.627,185.915,90.865z"/>
<path d="M83.587,95.688c-5.716,0.247-11.086,1.979-13.42,4.812c4-1.167,12.5-2,14.5,5.167c-2.929-1.109-8.167-1.333-9.333,1.667
	c19.333-4.5,34.05,35.047,2.851,36.018C52,144.167,36.277,124.054,21.516,103.638c-3.395-4.696-10.697-11.783-6.57-17.731
	c6.633-10.222,29.342-7.196,39.127-6.153c21.256,2.302,39.463,17.226,50.346,35.416c-14.583-15.06-28.343-30.143-50.658-32.386
	c-8.494-0.827-30.609-3.93-36.336,4.764c-3.434,4.846,9.868,19.622,12.039,23.131C41,129.333,67.333,147.5,85.654,139.883
	C103.499,132.464,89,102.5,73.5,110c-0.584-6.12,4-7.667,8.5-6.333c-3.333-2.833-11.167-2-16.087-0.906
	C69.429,96.625,77.369,94.434,83.587,95.688z"/>
<path d="M101.438,154.385c-10.884,22.396,4.383,51.867,20.997,66.941c15.818,14.352,33.19,16.744,52.969,18.826
	c-21.723,4.139-42.913-3.83-57.748-19.922C104.398,205.848,87.602,173.122,101.438,154.385z"/>
<path fill="none" stroke="#000000" stroke-width="2" stroke-miterlimit="10" d="M281.5,104c-1.5-4.167-8-10.834-15-12.5"/>
<path fill="#4B5B6D" d="M270.873,91.818c-6.771,5.014-20.291,8.129-23.131,4.29c-2.547-3.43-0.898-9.447,1.996-12.08
	c3.688-3.351,6.066-1.925,10.066-3.289c2.407-2.381,5.682,0.413,6.965,1.378C271.02,85.281,273.953,89.541,270.873,91.818z"/>
<path d="M270.873,91.818c-1.635,1.217-3.434,2.188-5.258,3.099c-0.918,0.448-1.857,0.854-2.811,1.229
	c-0.947,0.39-1.908,0.753-2.891,1.068c-1.961,0.627-3.971,1.177-6.079,1.413c-1.056,0.117-2.135,0.169-3.26,0.038
	c-1.106-0.146-2.332-0.427-3.425-1.386l-0.377-0.398l-0.283-0.388c-0.146-0.2-0.291-0.402-0.451-0.734
	c-0.333-0.618-0.518-1.164-0.673-1.751c-0.296-1.164-0.382-2.353-0.255-3.499c0.244-2.291,1.065-4.468,2.498-6.342
	c0.191-0.229,0.371-0.463,0.584-0.679l0.326-0.319l0.164-0.158l0.041-0.04l0.021-0.02l0.104-0.086l0.075-0.058l1.22-0.917
	c0.524-0.302,1.106-0.612,1.662-0.867c0.567-0.166,1.139-0.41,1.701-0.485c1.146-0.241,2.196-0.221,3.174-0.291
	c0.496-0.027,0.949-0.094,1.43-0.137l1.386-0.272l-0.36,0.224c0.211-0.161,0.415-0.322,0.633-0.468
	c0.244-0.12,0.472-0.263,0.729-0.346c0.51-0.173,1.054-0.264,1.563-0.211c1.032,0.067,1.892,0.491,2.646,0.953
	c0.76,0.467,1.416,1.034,2.052,1.58c0.636,0.541,1.269,1.097,1.868,1.706c1.184,1.2,2.311,2.492,3.021,4.028l0.242,0.583
	c0.065,0.199,0.115,0.404,0.176,0.605c0.092,0.412,0.121,0.833,0.082,1.251c-0.03,0.206-0.09,0.409-0.135,0.613
	c-0.095,0.187-0.173,0.383-0.277,0.562c-0.131,0.163-0.248,0.338-0.391,0.489L270.873,91.818z M270.873,91.818l0.465-0.417
	c0.141-0.152,0.254-0.329,0.383-0.492c0.104-0.179,0.178-0.375,0.268-0.561c0.044-0.203,0.1-0.404,0.125-0.608
	c0.022-0.416-0.022-0.827-0.129-1.227c-0.112-0.399-0.271-0.78-0.463-1.147c-0.211-0.355-0.422-0.709-0.678-1.035
	c-0.234-0.339-0.52-0.641-0.785-0.955c-0.563-0.601-1.154-1.178-1.808-1.683c-0.638-0.509-1.319-0.979-2.015-1.442
	c-0.686-0.47-1.379-0.894-2.094-1.207c-0.709-0.312-1.453-0.522-2.1-0.458c-0.327,0.01-0.609,0.122-0.873,0.251
	c-0.133,0.063-0.244,0.175-0.369,0.249l-0.326,0.33l-0.149,0.15l-0.214,0.074c-0.514,0.179-1.032,0.37-1.56,0.532
	c-0.522,0.115-1.065,0.256-1.583,0.347c-1.037,0.189-2.029,0.324-2.863,0.561c-0.443,0.089-0.799,0.309-1.201,0.443l-1.004,0.612
	l-1.176,0.974l-0.361,0.382c-0.137,0.153-0.26,0.33-0.396,0.489c-1.021,1.376-1.695,3.129-1.967,4.868
	c-0.117,0.873-0.143,1.748,0.005,2.569c0.068,0.401,0.192,0.835,0.315,1.125c0.039,0.087,0.039,0.151,0.104,0.263l0.191,0.33
	l0.094,0.167l0.047,0.083l0.021,0.042l0.007,0.01c-0.095-0.135-0.022-0.034-0.043-0.063l0.008,0.01
	c0.044,0.056,0.086,0.114,0.125,0.177c0.386,0.474,1.187,0.857,2.063,1.063c0.879,0.227,1.849,0.331,2.822,0.357
	c1.957,0.048,3.971-0.164,5.945-0.555c1.982-0.379,3.932-0.963,5.814-1.714C267.412,93.969,269.227,93.014,270.873,91.818z"/>
<path d="M113.85,80.849c24.082-13.311,50.383-22.679,76.009-32.501c24.968-9.514,63.766-1.716,69.563,27.318
	c-4.696-8.189-7.726-17.667-17.86-21.583c-14.188-5.48-36.525-8.692-51.207-4.281C164.793,57.747,139.91,76.348,113.85,80.849z"/>
<path d="M121.983,77.547c-17.96,3.925-38.923-1.588-57.016-3.795C47.311,71.598,25.299,66.966,8.75,75
	c-20.485,10.242,23.75,51.5,37.5,62.25c7.922,6.194,20.304,11.785,25,18s26.067-2.559,40.37-1.038
	c-11.816,1.749-32.37,8.538-39.455,4.1c-5.833-3.654-10.415-9.812-20.415-14.562s-18.277-13.474-27.031-22.355
	c-9.541-9.677-23.048-23.732-23.951-38.209C-0.189,67.316,27.812,67.162,42.5,68.25C62.75,69.75,91.25,78,121.983,77.547z"/>
</svg>
