<?xml version="1.0" encoding="utf-8"?>
<!DOCTYPE svg PUBLIC "-//W3C//DTD SVG 1.1//EN" "http://www.w3.org/Graphics/SVG/1.1/DTD/svg11.dtd">
<svg version="1.1" id="Calque_1" xmlns="http://www.w3.org/2000/svg" xmlns:xlink="http://www.w3.org/1999/xlink" x="0px" y="0px"
	 width="440px" height="440px" viewBox="0 36 440 440" enable-background="new 0 36 440 440" xml:space="preserve">
<g id="Calque_11">
	<path fill="#272B33" d="M380.777,286.606c0,104.6-84.793,189.394-189.395,189.394C86.78,476,1.986,391.206,1.986,286.606
		c0-104.604,84.794-189.397,189.396-189.397C295.984,97.209,380.777,182.002,380.777,286.606z"/>
	<path fill="#272B33" d="M191.383,104.223c100.727,0,182.381,81.654,182.381,182.384c0,100.723-81.654,182.379-182.381,182.379
		C90.656,468.985,9,387.329,9,286.606C9,185.877,90.656,104.223,191.383,104.223z"/>
	<path d="M89.833,174.692c5.089-6.361,18.234-22.05,40.709-15.689c28.414,8.043,36.475,41.561,30.958,50.042
		c-5.511,8.483-29.261,22.055-55.977,7.212C78.805,201.412,84.77,181.021,89.833,174.692z"/>
	<path fill="#FFFFFF" d="M93.332,186.978c2.758-3.289,7.971-4.652,9.291-6.244c0.695-3.18-0.644-7.221,3.008-10.72
		C98.946,170.969,92.59,176.851,93.332,186.978z"/>
	<circle fill="#EFDAE6" cx="400.152" cy="76.397" r="35.696"/>
	<path d="M400.152,36.55c-22.008,0-39.846,17.837-39.846,39.847c0,22.008,17.838,39.847,39.846,39.847S440,98.406,440,76.397
		C440,54.388,422.164,36.55,400.152,36.55z M400.152,112.094c-19.713,0-35.697-15.982-35.697-35.697S380.439,40.7,400.152,40.7
		c19.715,0,35.695,15.981,35.695,35.696C435.85,96.111,419.867,112.094,400.152,112.094z"/>
	<path d="M418.574,58.051c0.148-4.984-7.033-10.115-11.871-10.408c0,0-1.91,1.026-2.789,1.759
		C411.832,50.723,415.793,54.092,418.574,58.051z"/>
	<path d="M420.922,86.489c3.301-2.679,4.836-11.726,3.957-16.27c0,0-1.443,1.647-3.225,1.759
		C422.975,75.35,422.975,79.893,420.922,86.489z"/>
</g>
<g id="Calque_5">
	<path fill="#AA2484" d="M153.509,43.261c0.815-0.554,1.691-0.769,2.583-0.709l-0.067-0.575c0,0,5.084-0.289,5.315-0.327
		c3.22-0.533,6.859,5.316,8.136,13.057c1.177,7.159-0.083,13.423-2.826,14.742v0.002l-0.007,0.001
		c-0.219,0.106-7.232,1.641-7.232,1.641l-0.062-0.52c-3.137-0.029-6.526-3.705-8.321-9.543
		C148.765,53.69,149.879,45.732,153.509,43.261z"/>
	<path d="M154.693,42.019c0.18-0.05,6.333-0.751,6.565-0.789c3.218-0.531,7.16,5.71,8.436,13.452
		c1.177,7.16,0.229,14.367-2.515,15.685l-6.738,0.758l0.005-0.008c-4.421,0.848-9.227-4.555-10.874-12.362
		C147.885,50.741,150.18,43.246,154.693,42.019z M168.657,54.747c-1.236-7.382-4.833-12.921-8.067-12.397
		c-0.077,0.013-0.915,0.109-1.923,0.215c3.178,1.653,6.062,6.061,7.256,11.749c1.418,6.708,0.036,13.035-3.096,15.646l3.47-0.423
		C169.058,68.261,169.799,61.574,168.657,54.747z M150.714,59.616c1.948,7.378,6.601,12.068,10.395,10.48
		c3.792-1.588,5.291-8.854,3.341-16.23c-1.948-7.375-6.595-12.07-10.393-10.48C150.268,44.977,148.77,52.243,150.714,59.616z"/>
	<path d="M163.005,55.65c0.896,5.592-0.601,10.712-3.346,11.425c-2.748,0.71-5.696-3.244-6.589-8.843
		c-0.899-5.596,0.607-10.716,3.349-11.43C159.167,46.089,162.112,50.052,163.005,55.65z"/>
	<path fill="#AA2484" d="M188.639,51.843c1.138,7.4,5.706,12.841,10.188,12.156c4.488-0.685,7.203-7.237,6.058-14.64
		c-1.146-7.397-5.704-12.84-10.191-12.156C190.206,37.888,187.495,44.445,188.639,51.843z"/>
	<path d="M200.423,62.646c3.962-2.029,5.814-8.856,3.64-15.5c-2.175-6.641-7.876-10.569-11.84-8.543
		c-1.941,0.994-3.277,3.192-3.879,5.954c0.583-3.316,2.122-5.983,4.469-7.136c4.436-2.179,10.025,1.879,12.483,9.068
		c2.462,7.189,0.862,14.787-3.573,16.965c-2.519,1.237-5.399,0.465-7.878-1.741C195.861,63.237,198.435,63.665,200.423,62.646z"/>
	<path fill="#BC884E" d="M200.322,61.779c2.21-6.258-0.623-21.873-6.538-24.812c-7.448-0.083-26.596,0.217-30.609,4.776
		c7.037,5.193,8.262,22.183,4.633,27.578C173.258,72.02,198.637,66.562,200.322,61.779z"/>
	<path d="M168.226,69.126c8.918,1.172,24.534-1.796,30.609-6.299c3.591-9.49-0.666-22.324-5.685-25.26
		c-6.877-1.259-23.921-0.471-29.142,3.787C171.476,48.988,171.889,65.337,168.226,69.126z M193.61,36.487
		c8.09,4.634,9.553,19.401,6.479,27.075c-3.122,4.715-24.058,8.549-32.633,6.532c5.061-9.511,1.259-24.741-5.485-28.652
		C173.233,33.705,193.61,36.487,193.61,36.487z"/>
</g>
<g id="Calque_6">
	<path fill="#AA2484" d="M254.543,76.341c-4.236,6.492-4.871,14.423-0.922,17.016c2.254,1.48,8.049-0.888,12.281-7.38
		c4.234-6.489,6.771-13.214,3.043-16.121C265.225,66.949,258.77,69.849,254.543,76.341z"/>
	<path d="M253.395,92.322c3.16,2.404,8.539-0.663,12.555-7.695c3.768-6.583,1.355-14.938-2.936-16.387
		c-2.104-0.71-4.609-0.001-6.994,1.715c2.756-2.169,5.748-3.087,8.25-2.199c4.742,1.695,7.111,10.018,3.023,17.186
		c-4.307,7.563-10.518,11.414-15.141,8.015c-2.293-1.69-3.732-3.112-3.962-6.757C248.57,88.956,251.584,90.947,253.395,92.322z"/>
	<path fill="#BC884E" d="M253.252,92.453c6.131-2.942,15.771-16.076,12.924-23.065c-6.086-6.07-22.079-21.293-28.528-21.085
		c2.228,9.6-8.463,23.412-15.167,24.559C225.112,79.295,248.566,94.7,253.252,92.453z"/>
	<path d="M222.952,73.053c6.552,8.081,21.528,17.474,29.634,18.971c9.498-4.266,14.77-16.427,12.65-22.696
		c-4.809-6.499-19.396-19.652-26.634-20.647C239.502,60.467,228.583,73.147,222.952,73.053z M266.357,68.885
		c3.479,10.021-5.717,20.913-13.531,24.228c-4.605,0.251-25.892-10.188-31.171-19.949c10.725-3.105,18.073-17.668,15.202-26.061
		C251.475,50.347,266.357,68.885,266.357,68.885z"/>
	<path fill="#AA2484" d="M228.454,42.125c1.056,0.197,1.935,0.696,2.641,1.418l0.339-0.485c0,0,4.444,3.632,4.667,3.779
		c3.054,2.037,2.137,9.263-2.041,16.139c-3.86,6.36-9.165,10.183-12.355,9.111H221.7l-0.004-0.002
		c-0.254-0.088-7.166-4.235-7.166-4.235l0.301-0.443c-2.604-2.402-2.946-7.777-0.492-13.6
		C217.417,46.485,223.746,41.257,228.454,42.125z"/>
	<path d="M230.283,42.075c0.186,0.1,5.806,4.232,6.026,4.379c3.053,2.036,2.121,9.785-2.057,16.669
		c-3.862,6.356-9.542,11.136-12.728,10.063l-6.151-4.539l0.012-0.001c-4.273-2.702-4.636-10.478-0.718-17.684
		C218.675,43.567,225.677,39.583,230.283,42.075z M233.343,62.379c3.97-6.57,4.712-13.525,1.646-15.577
		c-0.066-0.051-0.838-0.611-1.751-1.297c1.54,3.676,0.961,9.225-1.886,14.473c-3.36,6.195-8.809,9.976-13.19,9.593l3.185,2.307
		C224.524,73.001,229.679,68.462,233.343,62.379z M215.038,52.488c-3.369,7.109-2.654,14.219,1.592,15.885
		c4.25,1.663,10.428-2.742,13.794-9.853c3.368-7.104,2.653-14.219-1.593-15.883C224.582,40.972,218.403,45.386,215.038,52.488z"/>
	<path d="M218.233,52.691c2.854-5.133,7.327-7.951,10.001-6.289c2.669,1.665,2.521,7.174-0.328,12.31
		c-2.848,5.136-7.334,7.952-10.005,6.291C215.227,63.339,215.381,57.83,218.233,52.691z"/>
</g>
<g id="Calque_6_-_copie_2">
	<path fill="#AA2484" d="M107.74,70.618c4.589,6.035,11.688,9.228,15.374,6.445c2.111-1.589,1.836-7.71-2.756-13.748
		c-4.584-6.032-10.742-7.717-14.644-5.243C101.81,60.546,103.149,64.583,107.74,70.618z"/>
	<path d="M122.086,76.935c3.255-2.127,2.198-8.087-2.959-14.105c-4.825-5.637-13.316-6.168-16.063-2.688
		c-1.349,1.706-1.52,4.251-0.728,7.015c-1.084-3.256-0.947-6.318,0.696-8.327c3.125-3.814,11.564-3.254,16.829,2.868
		c5.551,6.459,7.054,13.45,2.404,16.588c-2.317,1.559-4.097,2.416-7.533,1.432C117.397,80.271,120.225,78.148,122.086,76.935z"/>
	<path fill="#BC884E" d="M122.161,77.105c-0.699-6.617-9.621-19.825-17.003-19.495c-7.594,3.607-26.878,13.334-28.813,19.345
		c9.575,1.106,18.789,15.504,17.639,22.059C100.78,98.703,122.691,82.164,122.161,77.105z"/>
	<path d="M94.316,98.635c9.598-3.373,23.188-14.082,27.232-21.058c-0.802-10.153-10.274-19.017-16.754-19.123
		c-7.567,2.287-24.489,11.404-27.786,17.747C88.167,79.249,96.258,93.479,94.316,98.635z M104.759,57.273
		c10.38,0.092,17.387,12.151,17.873,20.445c-1.284,4.326-17.914,20.503-28.643,22.151c0.669-10.898-10.334-22.464-19.012-22.583
		C82.777,64.888,104.759,57.273,104.759,57.273z"/>
	<path fill="#AA2484" d="M67.624,83.396c0.532-0.908,1.281-1.558,2.176-1.971l-0.338-0.465c0,0,4.813-2.905,5.017-3.06
		c2.883-2.14,9.243,1.08,14.205,7.193c4.591,5.652,6.363,11.795,4.329,14.381l-0.003,0.002l-0.002,0.003
		c-0.166,0.209-6.262,5.207-6.262,5.207l-0.308-0.422c-3.068,1.61-8.137,0.159-12.692-4.017
		C68.013,94.998,65.279,87.451,67.624,83.396z"/>
	<path d="M68.18,81.691c0.156-0.138,5.812-3.955,6.02-4.114c2.882-2.14,9.716,1.268,14.684,7.379
		c4.585,5.654,7.124,12.459,5.079,15.044l-6.197,4.172l-0.004-0.009c-3.895,3.05-11.179,0.825-16.531-5.153
		C65.74,92.874,64.371,85.116,68.18,81.691z M87.899,85.553c-4.746-5.82-10.916-8.791-13.812-6.646
		c-0.069,0.05-0.838,0.573-1.774,1.191c3.899-0.211,8.822,2.148,12.718,6.499c4.602,5.137,6.296,11.396,4.496,15.314l3.178-2.183
		C94.783,97.177,92.296,90.935,87.899,85.553z M72.76,99.165c5.444,5.447,12.23,7.125,15.166,3.76
		c2.929-3.37,0.901-10.509-4.544-15.948c-5.436-5.443-12.229-7.126-15.161-3.761C65.293,86.585,67.325,93.725,72.76,99.165z"/>
	<path d="M74.002,96.289c-3.791-4.314-4.917-9.371-2.505-11.285c2.411-1.912,7.439,0.035,11.232,4.354
		c3.798,4.312,4.917,9.372,2.507,11.284C82.823,102.56,77.796,100.606,74.002,96.289z"/>
</g>
<g id="Calque_2">
	<path fill="#BC884E" d="M274.211,369.394c-17.752-22.448-14.631-38.939-14.543-47.656c23.455,0.57,42.76-25.585,42.902-40.116
		c20.219-3.95,19.209-37.206-5.197-50.726c3.115-6.071-0.873-26.56-11.15-29.748c1.262-20.802-9.221-31.567-13.352-34.358
		c7.195-8.442,17.172-68.35-38.143-95.181c-55.314-26.833-135.127,3.013-155.755,41.292c-38.75,13.159-71.118,72.374-72.982,84.558
		C4.127,209.643,42.286,309.718,63.37,313.281c21.084,3.558,28.009-11.927,40.281-18.779c16.367,19.337,0.083,92.37-3.791,105.148
		C84.471,450.39,270.49,453.797,274.211,369.394z"/>
	<path opacity="0.2" enable-background="new    " d="M259.668,321.739c-16.529,2.987-38.789,3.367-74.633-19.715
		c19.547,23.328,52.127,36.992,74.686,34.398C258.195,327.895,259.668,321.739,259.668,321.739z"/>
	<path opacity="0.2" enable-background="new    " d="M110.353,139.768c-11.961,9.536,5.715,103.684,5.021,128.911
		c-0.314,11.463-6.514,18.656-11.72,25.828c3.117,3.451,6.847,12.275,9.86,19.545c14.816-13.129,28.35-32.637,16.569-54.68
		C117.301,235.464,105.297,176.258,110.353,139.768z"/>
	<path fill="#FFFFFF" d="M150.983,206.101c-0.409,10.658,4.859,26.905,26.784,23.582c25.936-3.932,25.458-22.114,20.343-34.845
		c-5.116-12.736-18.609-23.433-27.629-21.445C158.137,176.114,151.504,192.388,150.983,206.101z"/>
	<path fill="#FFFFFF" d="M258.01,191.439c3.713,13.21,12.385,22.331,19.367,20.373c6.982-1.967,9.619-14.269,5.91-27.478
		c-3.711-13.212-12.383-22.333-19.365-20.371C256.941,165.927,254.297,178.229,258.01,191.439z"/>
	<path fill="#371217" d="M182.595,218.6c26.563-5.771,10.916-47.227-13.439-41.303C147.584,182.55,158.338,223.875,182.595,218.6z"
		/>
	<path fill="#371217" d="M274.316,204.763c17.572-0.931,11.895-38.388-6.295-38.038C252.295,167.03,254.518,205.813,274.316,204.763
		z"/>
	<path fill="#5B0D20" d="M273.586,202.196c-14.572,0.383-21.289-32.597-6.031-33.826
		C285.23,166.944,289.174,201.786,273.586,202.196z"/>
	<path d="M263.547,163.313c12.92-3.633,24.988,21.996,22.676,37.839c8.514,2.031,16.545,17.431,11.426,29.717
		c2.016-10.843-2.305-24.763-11.559-28.8c-0.986,5.312-3.701,9.382-8.703,10.614C259.309,217.123,246.824,168.016,263.547,163.313z
		 M277.377,211.058c17.463-4.291,2.232-49.945-13.271-45.587C249.377,169.612,261.457,214.97,277.377,211.058z"/>
	<path d="M271.447,193.306c-9.984-1.72-9.533-24.52,1.119-22.116C283.012,173.545,282.188,195.155,271.447,193.306z"/>
	<ellipse transform="matrix(1 -0.0063 0.0063 1 -1.0938 1.6774)" fill="#FFFFFF" cx="266.069" cy="174.703" rx="3.376" ry="3.311"/>
	<path d="M277.109,171.061c7.209-0.407,12.605-1.523,20.514-4.817c-5.406-0.01-9.371,0.06-10.465-1.733
		c4.367-1.244,9.209-4.25,10.77-6.557c-5.354,1.656-10.701,3.042-14.762,2.258c-3.799-2.273,3.967-6.376,2.086-11.544
		c-2.307,5.06-9.002,8.078-11.838,8.004c0.248-2.973,0.271-6.261-2.574-7.911c0.287,2.746-1.318,9.363-7.133,10.86
		c-4.318,1.107-10.037,8.354-6.76,14.097C258.162,166.051,265.129,157.448,277.109,171.061z"/>
	<path d="M277.631,140.428c-0.105-15.855-25.123-39.833-27.342,6.307C239.869,96.712,284.309,114.08,277.631,140.428z"/>
	<path fill="#0A1431" d="M276.58,279.522c-28.65,6.384-41.382-30.233-15.268-38.133C311.719,226.147,300.58,274.174,276.58,279.522z
		"/>
	<path fill="#5B0D20" d="M181.36,217.715c-19.939,2.837-32.858-34.988-10.548-39.729C192.84,173.305,204.59,214.414,181.36,217.715z
		"/>
	<path d="M182.093,229.459c-42.825,8.455-37.039-46.257-13.61-55.702C190.192,165.006,223.299,221.318,182.093,229.459z
		 M185.652,227.28c32.957-9.581,2.986-59.239-15.987-52.707C145.182,183.006,140.769,240.328,185.652,227.28z"/>
	<path d="M182.797,205.564c-15.093,3.264-24.478-21.263-8.269-24.625C189.935,177.748,194.875,202.949,182.797,205.564z"/>
	
		<ellipse transform="matrix(0.9935 -0.1141 0.1141 0.9935 -20.2372 20.5269)" fill="#FFFFFF" cx="169.153" cy="187.005" rx="3.378" ry="3.311"/>
	<path d="M190.311,142.73c-41.157-28.276-58.634,21.612-58.864,35.419C126.074,134.516,164.661,110.495,190.311,142.73z"/>
	<path d="M279.426,285.376c-38.392,35.242-86.703,12.504-107.182-4.731c23.578,15.79,68.052,33.528,105.736,1.632
		c55.055,5.643,44.344-49.71,2.613-56.171C316.279,224.19,344.381,288.796,279.426,285.376z"/>
	<path d="M304.236,279.985c-3.273,28.664-21.455,36.043-35.697,41.638c-2.193,0.86-4.576,1.471-7.057,1.894
		c-4.117,9.852,1.918,39.539,12.729,45.877c-13.303-4.201-17.24-36.749-15.553-45.481c-14.61,1.544-35.753-0.128-50.951-9.263
		c16.62,7.336,47.732,9.877,60.047,4.892c16.846-6.813,31.707-17.608,34.252-39.668"/>
	<path d="M181.458,175.395c3.221-0.37,9.171-5.408,6.08-18.11c-1.181,3.944-3.94,8.342-5.786,8.827
		c0.403-3.583,0.551-11.761-2.855-13.001c0.431,3.759-1.375,10.548-3.302,11.532c-0.638-3.191-1.11-9.666-3.173-11.059
		c0.464,4.026,0.43,10.83-2.196,11.676c-1.205-3.397-0.715-8.621-3.587-9.923c0.13,3.52-1.149,13.659-4.85,15.79
		c-5.613,3.23-14.392,17.976-10.588,29.781C151.577,189.98,162.904,166.646,181.458,175.395z"/>
	<path fill="#243770" d="M256.729,257.4c0.545,2.019,7.992,1.759,16.639-0.579c8.648-2.34,15.215-5.868,14.666-7.885
		c-0.547-2.018-7.992-1.759-16.637,0.581C262.748,251.855,256.182,255.386,256.729,257.4z"/>
	<path d="M77.141,112.755c9.237-20.648,41.994-46.747,69.016-49.64c46.942-5.029,95.272,2.105,111.263,21.306
		c31.473,37.792,20.621,65.82,20.898,74.495c0,0-10.764,9.418-4.904-2.246c6.436-12.803,7.441-41.935-18.059-71.287
		c-16.074-18.501-51.262-23.124-105.374-20.536c-29.73,1.421-64.69,36.346-69.667,48.218c1.482-0.065,2.87,0.027,4.15,0.297
		c-23.09,2.653-75.013,52.691-75.481,86.476c-0.47,33.788,42.265,112.12,60.233,112.231c10.864,0.064,38.13-18.523,42.353-38.602
		c4.224-20.067-17.099-134.594-1.219-133.7c-13.226,22.197,12.922,119.79,5.887,136.43c-5.561,13.151-22.653,39.604-48.14,40.354
		c-18.872,0.559-57.382-68.487-64.379-119.913C15.432,154.956,56.323,120.949,77.141,112.755z"/>
	<path fill="#5B0D20" d="M227.765,271.191c3.287,0,5.944,2.656,5.944,5.945c0,3.281-2.657,5.944-5.944,5.944
		c-3.282,0-5.944-2.663-5.944-5.944C221.821,273.848,224.483,271.191,227.765,271.191z"/>
</g>
<g id="Calque_6_-_copie">
	<path fill="#AA2484" d="M130.621,70.318c7.349,5.902,16.875,7.62,20.49,3.15c2.066-2.552-0.106-9.853-7.462-15.753
		c-7.351-5.901-15.285-6.083-19.249-1.922C120.431,59.954,123.267,64.42,130.621,70.318z"/>
	<path d="M149.828,73.628c3.293-3.548,0.221-10.423-7.809-16.133c-7.523-5.346-17.924-3.431-20.196,1.592
		c-1.109,2.462-0.554,5.586,1.243,8.681c-2.293-3.6-3.055-7.333-1.673-10.256c2.621-5.539,12.976-7.407,21.167-1.602
		c8.646,6.123,12.56,14.104,7.889,19.289c-2.32,2.581-4.209,4.146-8.654,3.995C145.175,79.061,147.95,75.649,149.828,73.628z"/>
	<path fill="#BC884E" d="M149.972,73.809c-2.831-7.774-17.576-21.022-26.381-18.406c-8.08,6.638-28.423,24.178-28.948,32.014
		c11.891-1.546,27.336,13.053,27.921,21.309C130.671,106.304,152.133,79.753,149.972,73.809z"/>
	<path d="M122.854,108.169c10.571-6.96,23.737-23.973,26.521-33.611c-4.025-12.008-18.121-19.847-25.97-18.031
		c-8.439,5.041-26.111,21.133-28.184,29.779C109.603,86.625,123.642,101.362,122.854,108.169z M123.008,55.115
		c12.551-3.008,24.637,9.431,27.715,19.291c-0.248,5.608-15.44,30.128-27.891,35.346c-2.476-13.349-19.228-23.995-29.737-21.525
		C98.779,70.918,123.008,55.115,123.008,55.115z"/>
	<path fill="#AA2484" d="M86.061,97.809c0.368-1.256,1.08-2.261,2.04-3.033l-0.551-0.458c0,0,4.93-4.954,5.134-5.203
		c2.832-3.45,11.47-1.479,19.301,4.406c7.24,5.435,11.228,12.312,9.549,16.046v0.002l-0.002,0.006
		c-0.141,0.3-5.989,8.168-5.989,8.168l-0.502-0.418c-3.219,2.866-9.766,2.638-16.521-1.027
		C90.026,111.69,84.453,103.405,86.061,97.809z"/>
	<path d="M86.224,95.584c0.144-0.211,5.819-6.519,6.023-6.772c2.829-3.451,12.105-1.398,19.936,4.485
		c7.235,5.438,12.34,12.888,10.657,16.622l-6.226,6.901v-0.01c-3.787,4.849-13.241,4.355-21.498-1.245
		C86.64,109.814,82.653,100.865,86.224,95.584z M111.177,94.311c-7.477-5.593-15.815-7.325-18.666-3.861
		c-0.067,0.079-0.842,0.942-1.784,1.967c4.643-1.425,11.291-0.062,17.302,4.017c7.099,4.814,11.022,11.854,10.032,17.125
		l3.176-3.589C122.978,106.266,118.102,99.483,111.177,94.311z M97.009,115.291c8.203,4.933,16.895,4.918,19.425-0.027
		c2.521-4.944-2.074-12.952-10.279-17.875c-8.198-4.929-16.897-4.918-19.422,0.024C84.208,102.359,88.807,110.365,97.009,115.291z"
		/>
	<path d="M97.635,111.446c-5.872-4.065-8.749-9.825-6.417-12.861c2.335-3.032,8.988-2.195,14.866,1.875
		c5.878,4.063,8.75,9.829,6.418,12.862C110.169,116.358,103.515,115.516,97.635,111.446z"/>
</g>
<g id="Calque_5_-_copie">
	<path fill="#AA2484" d="M170.329,57.574c1.012-0.688,2.098-0.953,3.2-0.881l-0.083-0.709c0,0,6.294-0.361,6.583-0.407
		c3.984-0.656,8.495,6.584,10.079,16.173c1.459,8.869-0.106,16.629-3.503,18.264v0.003l-0.005,0.001
		c-0.276,0.131-8.959,2.03-8.959,2.03l-0.078-0.642c-3.888-0.036-8.085-4.59-10.31-11.824
		C164.453,70.491,165.834,60.634,170.329,57.574z"/>
	<path d="M171.796,56.034c0.223-0.062,7.843-0.929,8.131-0.975c3.988-0.657,8.868,7.071,10.448,16.66
		c1.462,8.869,0.282,17.797-3.116,19.431l-8.347,0.937l0.009-0.009c-5.474,1.05-11.43-5.644-13.464-15.314
		C163.363,66.836,166.203,57.553,171.796,56.034z M189.092,71.798c-1.529-9.144-5.989-16.003-9.99-15.354
		c-0.102,0.016-1.136,0.135-2.388,0.266c3.942,2.048,7.508,7.508,8.993,14.554c1.753,8.309,0.04,16.147-3.837,19.378l4.297-0.524
		C189.584,88.541,190.509,80.257,189.092,71.798z M166.87,77.833c2.415,9.138,8.176,14.948,12.875,12.982
		c4.695-1.967,6.554-10.967,4.139-20.104c-2.413-9.134-8.175-14.949-12.873-12.981C166.315,59.698,164.459,68.698,166.87,77.833z"/>
	<path d="M182.09,72.918c1.112,6.929-0.747,13.27-4.148,14.152c-3.4,0.881-7.052-4.018-8.157-10.952
		c-1.109-6.931,0.752-13.275,4.15-14.156C177.336,61.077,180.983,65.984,182.09,72.918z"/>
	<path fill="#AA2484" d="M213.842,68.204c1.412,9.166,7.066,15.907,12.621,15.06c5.558-0.848,8.921-8.966,7.506-18.134
		c-1.417-9.164-7.071-15.907-12.627-15.057C215.787,50.917,212.428,59.04,213.842,68.204z"/>
	<path d="M228.441,81.586c4.904-2.514,7.197-10.973,4.503-19.2c-2.694-8.227-9.75-13.093-14.665-10.582
		c-2.398,1.231-4.051,3.955-4.8,7.376c0.72-4.107,2.624-7.411,5.533-8.838c5.494-2.699,12.421,2.326,15.465,11.233
		c3.049,8.904,1.063,18.313-4.43,21.012c-3.115,1.532-6.689,0.577-9.753-2.156C222.792,82.32,225.974,82.847,228.441,81.586z"/>
	<path fill="#BC884E" d="M228.317,80.51c2.74-7.75-0.772-27.09-8.102-30.731c-9.225-0.103-32.939,0.265-37.915,5.916
		c8.719,6.434,10.232,27.479,5.74,34.161C194.79,93.198,226.227,86.432,228.317,80.51z"/>
	<path d="M188.56,89.613c11.049,1.452,30.394-2.224,37.909-7.803c4.454-11.755-0.815-27.652-7.037-31.292
		c-8.524-1.558-29.63-0.585-36.098,4.691C192.581,64.668,193.097,84.92,188.56,89.613z M219.999,49.184
		c10.021,5.74,11.834,24.03,8.032,33.535c-3.871,5.842-29.806,10.588-40.428,8.093c6.265-11.784,1.558-30.647-6.795-35.492
		C194.761,45.738,219.999,49.184,219.999,49.184z"/>
</g>
<g id="Calque_12">
	<path fill="#EFDAE6" d="M16.117,337.197c21.933,76.112,92.095,131.788,175.266,131.788c89.488,0,163.914-64.454,179.41-149.468
		c-23.037-19.621-62.576,3.092-60.631,30.372c-28.521-39.437-96.798,0.314-73.017,39.438c-25.12-20.481-53.226,3.715-54.478,22.242
		c-8.261-19.001-35.955-19.493-50.078-4.651c-4.091-6.604-13.823-26.086-45.905-6.204C95.939,369.386,55.403,326.886,16.117,337.197
		z"/>
	<path d="M44.369,353.947c-3.615,0.099-6.467,3.105-6.371,6.716c0.096,3.617,3.103,6.467,6.719,6.375
		c3.614-0.097,6.465-3.102,6.371-6.722C50.99,356.707,47.983,353.851,44.369,353.947z M44.666,365.167
		c-2.583,0.071-4.73-1.965-4.799-4.552c-0.068-2.578,1.969-4.729,4.552-4.795c2.583-0.07,4.73,1.967,4.798,4.547
		C49.285,362.95,47.248,365.099,44.666,365.167z"/>
	<path d="M308.914,346.309c-29.617-36.324-94.615,2.492-75.035,39.099c-25.662-12.756-46.241,5.326-51.03,22.238
		c-8.613-11.614-37.296-18.472-50.487-0.649c-0.388-1.919-10.192-27.8-43.677-9.147c3.867-23.02-20.45-67.909-73.388-63.609
		c0.38,1.409,0.776,2.804,1.188,4.196c31.172-4.756,79.807,27.671,64.894,71.587c23.645-35.503,73.214-4.01,33.62,22.801
		c16.835,0.933,22.448,14.341,14.66,25.441c0.601,0.222,1.206,0.43,1.811,0.642c11.589-15.483-2.116-26.182-9.796-27.911
		c7.467-5.441,11.319-13.026,11.07-20.58c7.818-15.938,57.392-20.615,53.989,25.561c4.492-9.401,0.271-21.485-2.833-26.078
		c16.521-40.989,63.595-28.519,64.377,9.195c15.744-27.426,46.296-8.717,44.269,8.584c4.83-12.937,18.549-17.927,25.328-9.698
		c0.438-0.423,0.875-0.851,1.309-1.279c-3.723-7.26-19.936-8.196-25.547,5.522c1.873-16.838-33.354-30.239-43.881-8.184
		c-0.895-12.102-4.824-20.289-13.488-26.266c-19.169-45.05,53.314-71.706,73.892-36.318c9.977-49.571,53.627-38.508,59.975-28.511
		c0.223-1.094,1.086-2.968,1.289-4.069C365.971,309.363,318.738,298.918,308.914,346.309z"/>
	<path d="M333.291,331.694c-2.992-0.805-6.07,0.969-6.875,3.961c-0.807,2.989,0.961,6.066,3.951,6.874
		c2.994,0.804,6.07-0.967,6.881-3.959C338.055,335.581,336.281,332.499,333.291,331.694z M335.896,338.208
		c-0.609,2.24-2.918,3.566-5.158,2.968c-2.242-0.609-3.572-2.914-2.973-5.157c0.605-2.245,2.918-3.574,5.158-2.97
		C335.164,333.65,336.494,335.964,335.896,338.208z"/>
	<path d="M233.1,420.355c-7.744,0.206-13.858,6.652-13.651,14.396c0.202,7.745,6.646,13.859,14.394,13.651
		c7.744-0.203,13.856-6.646,13.65-14.392C247.291,426.266,240.844,420.15,233.1,420.355z M233.792,446.536
		c-6.711,0.177-12.298-5.123-12.479-11.834c-0.174-6.709,5.119-12.296,11.838-12.476c6.706-0.177,12.294,5.117,12.476,11.835
		C245.799,440.772,240.507,446.356,233.792,446.536z"/>
	<path d="M290.652,351.459c-10.326,0.269-18.477,8.864-18.209,19.191c0.277,10.327,8.873,18.479,19.201,18.207
		c10.328-0.274,18.475-8.868,18.199-19.195C309.572,359.335,300.98,351.183,290.652,351.459z M291.592,386.983
		c-9.293,0.251-17.029-7.083-17.273-16.385c-0.248-9.29,7.084-17.026,16.387-17.271c9.293-0.248,17.023,7.089,17.271,16.381
		C308.221,379.007,300.889,386.742,291.592,386.983z"/>
	<path d="M233.174,424.873c-2.927,0.078-5.232,2.51-5.155,5.435c0.073,2.928,2.515,5.235,5.434,5.156
		c2.923-0.076,5.237-2.51,5.159-5.435C238.533,427.102,236.099,424.796,233.174,424.873z M233.421,434.379
		c-2.319,0.063-4.256-1.775-4.316-4.099c-0.064-2.321,1.778-4.258,4.103-4.319c2.313-0.059,4.256,1.769,4.316,4.098
		C237.583,432.386,235.748,434.314,233.421,434.379z"/>
	<path d="M295.063,358.002c-2.934,0.075-5.236,2.514-5.158,5.436c0.074,2.922,2.512,5.235,5.436,5.156
		c2.928-0.079,5.238-2.511,5.158-5.435C300.42,360.233,297.99,357.924,295.063,358.002z M295.311,367.505
		c-2.328,0.062-4.258-1.768-4.32-4.095c-0.063-2.321,1.771-4.258,4.1-4.32c2.324-0.063,4.26,1.774,4.316,4.099
		C299.467,365.511,297.641,367.447,295.311,367.505z"/>
</g>
</svg>
