<?xml version="1.0" encoding="utf-8"?>
<!DOCTYPE svg PUBLIC "-//W3C//DTD SVG 1.1//EN" "http://www.w3.org/Graphics/SVG/1.1/DTD/svg11.dtd">
<svg version="1.1" id="logo" xmlns="http://www.w3.org/2000/svg" xmlns:xlink="http://www.w3.org/1999/xlink" x="0px" y="0px"
	 width="350px" height="350px" viewBox="0 90 350 350" enable-background="new 0 90 350 350" xml:space="preserve">
<path fill="#272B33" d="M331.972,284.636c0,85.805-70.01,155.363-156.377,155.363c-86.365,0-156.376-69.559-156.376-155.363
	c0-85.813,70.011-155.371,156.376-155.371C261.962,129.265,331.972,198.823,331.972,284.636z"/>
<path fill="#272B33" d="M326.173,284.636c0,82.63-67.409,149.615-150.578,149.615c-83.162,0-150.581-66.987-150.581-149.615
	c0-82.625,67.419-149.611,150.581-149.611C258.764,135.025,326.173,202.011,326.173,284.636z"/>
<path fill="#6D809B" d="M111.418,281.968c-16.354,6.139-37.094,35.349-41.286,53.283c14.438,10.898,23.354,28.412,19.018,42.999
	c26.488-16.311,34.521-0.333,37.899,5.083c11.66-12.173,34.532-11.769,41.349,3.815c1.034-15.201,24.242-35.043,44.981-18.25
	c-18.733-30.617,31.686-61.652,56.823-36.362c-1.035-15.075-6.636-30.744-8.072-34.152c-1.695-3.986,10.044-4.973,6.968-11.699
	c-2.734-5.978-4.435-27.903-4.795-32.921c7.125-3.485,11.683-7.406,14.391-9.961c5.587-5.283,10.92-17.047,9.508-29.166
	c2.74-2.967,3.963-6.458,2.493-12.199c-2.878-11.265-10.651-13.409-13.359-13.953c-0.867-3.135-2.433-6.041-4.698-7.88
	c-0.438-0.357-0.865-0.625-1.296-0.852c-1.264-1.701-2.98-2.999-4.992-3.92c1.214-5.942-5.94-13.213-11.684-12.934
	c-0.832-4.176-1.009-7.944-0.862-12.556c0.137-4.441-5.781-36.164-44.929-42.129c-3.558-2.932-22.425-17.718-36.695-14.536
	c-11.466,2.561-7.245,14.168-6.255,17.24c-29.986,7.662-34.219,24.5-61.697,26.809C82.896,127.344,22.073,98.863,0,116.505
	C7.025,184.15,58.518,240.34,111.418,281.968z"/>
<path opacity="0.4" fill="#231F20" enable-background="new    " d="M209.689,107.744c6.451,1.419-24.782-18.422-37.299-15.04
	c-12.514,3.379-5.131,17.453-5.131,17.453S194.752,104.457,209.689,107.744z"/>
<path d="M258.411,174.072c-2.309-3.142-4.473-7.419-4.662-11.989c5.997-1.45,14.501,6.784,12.751,13.185
	C264.394,174.473,261.738,174.002,258.411,174.072z"/>
<path fill="#E3A4C1" d="M274.931,199.982c-2.487,1.581-20.017,2.776-25.283-9.307c-5.224-11.994,9.752-8.624,13.804-10.822
	c3.815-2.065,9.217-4.217,12.19,0.259C280.277,187.097,281.539,195.788,274.931,199.982z"/>
<path d="M204.554,188.396c-2.159-2.678-7.751-9.308-17.295-6.616c-12.076,3.392-15.499,17.542-13.155,21.125
	c2.344,3.579,12.432,9.311,23.78,3.043C209.246,199.679,206.7,191.074,204.554,188.396z"/>
<path d="M263.341,178.685c3.045-0.999,7.457-3.082,11.425,0.138c7.853,6.387,8.981,19.212,0.971,23.18
	c-3.969,1.963-21.519,3.248-27.749-10.419C242.12,178.714,256.861,180.835,263.341,178.685z M251.221,191.604
	c6.329,10.179,18.146,9.417,23.597,8.124c5.003-1.191,6.158-13.293-0.052-17.873c-3.769-2.777-7.58-0.22-10.463,0.651
	C258.136,184.354,244.827,181.313,251.221,191.604z"/>
<path d="M275.642,215.169c9.057,3.082,15.45-5.325,13.652-12.227c-1.866-7.146-4.101-11.23-10.042-12.8
	c-0.787-0.208-0.414-2.633-0.414-2.633c2.707,0.539,9.193,2.68,12.077,13.959c2.882,11.279-4.593,18.931-13.696,16.192
	c-9.281,18.044-44.017,34.295-66.446,27.579C226.179,248.861,262.939,237.048,275.642,215.169z"/>
<path fill="#FFFFFF" d="M203.068,193.591c-1.165-1.391-3.386-1.965-3.944-2.637c-0.297-1.347,0.272-3.056-1.279-4.525
	C200.686,186.826,203.385,189.318,203.068,193.591z"/>
<path d="M272.136,179.624c-6.131-10.03-26.229-7.7-36.407,0.714c9.914-4.117,27.658-9.13,32.348-1.696
	C269.604,179.354,272.136,179.624,272.136,179.624z"/>
<path fill="#FFFFFF" d="M263.955,174.002c-0.159-3.235-2.687-5.948-5.613-7.712c1.455-0.74,4.127,0.868,5.206,2.375
	c0.829,1.163,2.007,3.861,0.876,5.48C264.274,174.097,264.112,174.052,263.955,174.002z"/>
<path d="M254.021,149.374c0.164-5.073-7.574-45.657-63.52-42.976c-55.951,2.693-51.086,26.055-84.061,30.345
	c33.603,1.795,29.462-25.012,83.522-26.891c49.452-1.722,60.645,30.613,60.315,39.25c-0.534,14.363,5.636,22.016,8.475,25.372
	C254.562,163.602,253.749,157.961,254.021,149.374z"/>
<path d="M209.689,107.744c0,0-21.466-18.566-37.299-15.04c-13.244,2.952-7.291,17.99-7.291,17.99l2.16-0.538
	c0,0-6.483-14.768,6.486-16.112c15.381-1.586,33.251,13.698,33.251,13.698L209.689,107.744L209.689,107.744z"/>
<path d="M288.349,214.358c1.621,12.353-2.166,23.627-7.835,29.003c-5.681,5.364-20.541,15.974-46.899,18.393
	c17.165-4.16,29.468-6.178,42.027-17.857c11.165-10.378,11.087-23.631,9.735-26.853
	C286.456,216.241,288.349,214.358,288.349,214.358z"/>
<path d="M105.086,277.199C53.191,238.527,7.244,183.206,0.214,115.534c24.863-19.877,100.358,18.398,110.278,24.165
	C90.338,133.773,13.6,100.853,5.08,119.293C6.706,133.254,15.351,200.391,105.086,277.199z"/>
<path d="M67.825,333.87c7.583-19.91,24.91-46.545,43.049-52.196c-19.221,11.304-34.926,38.472-40.337,54.344
	C69.811,335.544,68.572,334.291,67.825,333.87z"/>
<path opacity="0.4" fill="#231F20" enable-background="new    " d="M263.867,253.765c0,0-21.475,11.372-55.478,7.905
	c35.742,14.732,55.91,3.361,55.91,3.361L263.867,253.765z"/>
<path fill="#EFDAE6" d="M30.887,326.137c18.108,62.436,76.036,108.114,144.708,108.114c73.886,0,135.343-52.878,148.134-122.616
	c-19.022-16.097-51.669,2.531-50.059,24.914c-23.559-32.346-79.927,0.256-60.291,32.349c-20.739-16.795-43.947,3.047-44.981,18.249
	c-6.817-15.585-29.689-15.991-41.349-3.815c-3.377-5.416-11.411-21.393-37.899-5.082C96.792,352.541,63.322,317.68,30.887,326.137z"
	/>
<path d="M270.738,333.081c-0.528-14.862-5.922-30.368-7.401-33.854c-1.684-3.987,10.457-5.507,7.379-12.229
	c-3.076-6.722-4.916-34.848-4.916-34.848l-3.772,1.913c0,0,2.533,30.493,4.999,34.156c2.463,3.673-8.694,2.445-8.075,11.008
	c3.567,6.223,6.586,18.422,7.409,29.959C267.895,330.304,269.35,331.617,270.738,333.081z"/>
<path d="M54.214,339.878c-2.986,0.074-5.34,2.546-5.261,5.511c0.076,2.965,2.56,5.309,5.542,5.228
	c2.993-0.078,5.34-2.545,5.261-5.511C59.683,342.143,57.198,339.803,54.214,339.878z M54.455,349.08
	c-2.13,0.056-3.904-1.61-3.96-3.729c-0.054-2.119,1.622-3.882,3.76-3.939c2.129-0.057,3.902,1.617,3.96,3.738
	C58.27,347.27,56.593,349.027,54.455,349.08z"/>
<path d="M272.635,333.615c-24.451-29.794-78.119,2.043-61.948,32.07c-21.189-10.466-38.177,4.37-42.137,18.242
	c-7.115-9.526-30.791-15.152-41.681-0.534c-0.318-1.571-8.419-22.804-36.064-7.505C94,357.011,73.92,320.181,30.209,323.707
	c0.314,1.154,0.641,2.307,0.982,3.449c25.746-3.903,65.894,22.698,53.582,58.717c19.518-29.12,60.448-3.286,27.759,18.707
	c13.897,0.768,18.533,11.766,12.105,20.871c0.5,0.175,0.995,0.35,1.492,0.526c9.57-12.708-1.75-21.48-8.083-22.9
	c6.16-4.465,9.347-10.683,9.142-16.878c6.452-13.072,47.384-16.911,44.575,20.97c3.708-7.715,0.22-17.627-2.346-21.391
	c13.646-33.627,52.509-23.399,53.16,7.536c12.993-22.491,38.219-7.144,36.545,7.046c3.987-10.616,15.318-14.702,20.908-7.956
	c0.368-0.343,0.722-0.699,1.083-1.041c-3.069-5.957-16.463-6.731-21.088,4.523c1.545-13.809-27.545-24.804-36.236-6.713
	c-0.729-9.921-3.974-16.642-11.126-21.541c-15.834-36.958,44.018-58.826,61.006-29.797c8.233-40.664,44.273-31.591,49.515-23.392
	c0.185-0.893,0.895-2.427,1.061-3.338C319.745,303.306,280.741,294.74,272.635,333.615z"/>
<path d="M292.762,321.618c-2.478-0.659-5.012,0.796-5.684,3.252c-0.661,2.453,0.802,4.977,3.271,5.638
	c2.477,0.662,5.012-0.792,5.679-3.245C296.691,324.809,295.233,322.285,292.762,321.618z M294.912,326.964
	c-0.497,1.841-2.408,2.927-4.257,2.432c-1.849-0.494-2.949-2.387-2.448-4.224c0.492-1.846,2.399-2.935,4.255-2.441
	C294.309,323.231,295.407,325.123,294.912,326.964z"/>
<path d="M200.536,387.022c-6.617,0.175-11.839,5.644-11.664,12.221c0.177,6.576,5.688,11.762,12.303,11.589
	c6.616-0.173,11.842-5.646,11.666-12.216C212.656,392.04,207.162,386.846,200.536,387.022z M201.132,409.247
	c-5.74,0.153-10.508-4.348-10.662-10.052c-0.153-5.697,4.373-10.429,10.109-10.588c5.74-0.149,10.518,4.348,10.661,10.054
	C211.394,404.357,206.864,409.099,201.132,409.247z"/>
<path d="M257.558,337.835c-8.522,0.224-15.253,7.274-15.025,15.744c0.221,8.475,7.311,15.157,15.835,14.935
	c8.535-0.22,15.267-7.271,15.039-15.74C273.179,344.299,266.084,337.608,257.558,337.835z M258.332,366.979
	c-7.667,0.201-14.058-5.811-14.261-13.439c-0.205-7.62,5.852-13.973,13.522-14.171c7.677-0.201,14.055,5.819,14.268,13.439
	C272.062,360.433,266.005,366.778,258.332,366.979z"/>
<path d="M200.603,390.856c-2.504,0.065-4.475,2.134-4.408,4.614c0.065,2.489,2.147,4.443,4.648,4.381
	c2.497-0.063,4.471-2.128,4.403-4.618C205.186,392.753,203.104,390.795,200.603,390.856z M200.811,398.928
	c-1.982,0.048-3.631-1.504-3.688-3.484c-0.049-1.965,1.53-3.61,3.507-3.663c1.981-0.051,3.632,1.506,3.689,3.479
	C204.373,397.231,202.798,398.869,200.811,398.928z"/>
<path d="M261.198,343.203c-2.419,0.062-4.323,2.068-4.255,4.461c0.055,2.397,2.064,4.295,4.483,4.233
	c2.418-0.066,4.324-2.061,4.26-4.461C265.624,345.036,263.612,343.143,261.198,343.203z M261.4,351.004
	c-1.916,0.048-3.509-1.46-3.56-3.365c-0.054-1.903,1.456-3.489,3.379-3.54c1.918-0.055,3.513,1.452,3.571,3.355
	C264.836,349.363,263.319,350.95,261.4,351.004z"/>
<path fill="#EFDAE6" d="M346.572,122.685c0,16.174-13.196,29.285-29.477,29.285c-16.271,0-29.472-13.11-29.472-29.285
	c0-16.173,13.2-29.278,29.472-29.278C333.378,93.407,346.572,106.512,346.572,122.685z"/>
<path d="M317.098,90.001c-18.169,0-32.899,14.631-32.899,32.684c0,18.056,14.73,32.69,32.899,32.69
	c18.172,0,32.902-14.634,32.902-32.69C349.996,104.632,335.27,90.001,317.098,90.001z M317.098,151.97
	c-16.271,0-29.472-13.11-29.472-29.285c0-16.173,13.2-29.278,29.472-29.278c16.28,0,29.477,13.105,29.477,29.278
	C346.572,138.859,333.378,151.97,317.098,151.97z"/>
<path d="M332.313,107.64c0.119-4.091-5.811-8.297-9.804-8.538c0,0-1.577,0.841-2.305,1.441
	C326.743,101.627,330.012,104.392,332.313,107.64z"/>
<path d="M334.244,130.967c2.727-2.199,3.998-9.62,3.265-13.351c0,0-1.188,1.352-2.649,1.45
	C335.941,121.832,335.941,125.56,334.244,130.967z"/>
</svg>
