<?xml version="1.0" encoding="utf-8"?>
<!DOCTYPE svg PUBLIC "-//W3C//DTD SVG 1.1//EN" "http://www.w3.org/Graphics/SVG/1.1/DTD/svg11.dtd">
<svg version="1.1" id="logo" xmlns="http://www.w3.org/2000/svg" xmlns:xlink="http://www.w3.org/1999/xlink" x="0px" y="0px"
	 width="1228px" height="375px" viewBox="-14.5 -7.5 1228 375" enable-background="new -14.5 -7.5 1228 375" xml:space="preserve">
<path fill="#272B33" d="M309.753,202.109c0,84.438-68.896,152.891-153.874,152.891C70.889,355,2,286.549,2,202.109
	C2,117.68,70.889,49.235,155.879,49.235C240.857,49.235,309.753,117.681,309.753,202.109z"/>
<path fill="#6D809B" d="M276.816,246.34C282,237.75,252.779,223.182,253,214c10.596-10.428,15-17.167,21-29.5
	c10.891-3.514,14.25-9.25,24.9-18.414c12.603-14.252,8.434-27.586,7.1-30.586c9.5-15-5.569-39.551-31.811-41.518
	c-4.043-0.303-0.014-9.549-12.252-12.448c-3.248-7.854-3.486-11.606-10.438-18.02c-12.004-11.071-38.047-14.208-52.897-10.48
	c-37.816,9.496-54.667,25.634-77.167,30.893C95.344,83.341-25.167,53.5,8.5,101.833c10.361,13.831,22.998,30.201,37.985,39.879
	c3.875,2.504,18.15,9.213,20.987,13.576c-3.926,4.687-6.42,14.563-6.431,14.563c-8.277,3.328-15.896,11.024-22.062,20.547
	c-19.812,11.102-29.812,27-29.34,31.082c0.921,7.979,2.653,17.545,3.954,21.263C30.323,290.475,157.757,379.674,276.816,246.34z"/>
<path fill="#272B33" d="M220.703,96.326c4.354,0.992,4.436,3.51-0.367,6.801c-3.503,7.207-21.503,5.04-30.003,6.207
	c6.222-5.004,2.06-13.5,17.334-18.667C212.225,89.127,219.665,93.899,220.703,96.326z"/>
<path fill="#F7F8F9" d="M204.12,93.291c-5.959,2.496-8.151,11.078-9.021,14.172C198,111,230,106.5,218.615,97.638
	C215.716,112.617,190.592,103.598,204.12,93.291z"/>
<path fill="#FFFFFF" d="M214.705,96.423c0.285,1.575-0.739,3.065-2.283,3.335c-1.544,0.271-3.012-0.783-3.289-2.349
	c-0.273-1.574,0.739-3.066,2.283-3.335C212.958,93.805,214.43,94.858,214.705,96.423z"/>
<path fill="#4B5B6D" d="M171.444,62.607c-8.088-8.131-29.671-38.471-38.588-31.723c3.845,15.249,14.028,22.146,13.363,41.374
	L171.444,62.607z"/>
<path fill="#272B33" d="M96,163.5c-5,49,39,88.5,79,82c-41,0.5-82.5-38-72-85C96,161,96,163.5,96,163.5z"/>
<path fill="#272B33" d="M146.119,72.258c-1.349-13.385-7.117-23.543-11.884-36.028c-0.089-0.942-2.347-4.744-1.826-5.483
	c3.508-4.969,12.697,2.4,15.391,4.648c8.948,7.538,17.384,17.7,23.573,27.283c-6.088-5.299-28.627-37.851-38.285-31.488
	C137.75,42.736,149.166,57.742,146.119,72.258z"/>
<path fill="#EFDAE6" d="M13.483,242.955c17.819,61.434,74.821,106.38,142.396,106.38c72.704,0,127.823-48.942,143.899-111.933
	c-18.716-15.83-48.22-2.618-47.396,15.797c-23.178-31.818-78.643,0.248-59.327,31.837c-20.414-16.534-43.245,3.003-44.259,17.955
	c-6.713-15.332-29.222-15.738-40.696-3.761c-3.321-5.324-11.223-21.049-37.286-4.994C78.334,268.939,45.396,234.645,13.483,242.955z
	"/>
<path fill="#272B33" d="M36.438,256.473c-2.942,0.078-5.257,2.514-5.179,5.424c0.074,2.929,2.517,5.23,5.454,5.146
	c2.941-0.08,5.253-2.503,5.176-5.423C41.817,258.71,39.37,256.396,36.438,256.473z M36.672,265.527
	c-2.095,0.06-3.84-1.588-3.895-3.674c-0.056-2.082,1.594-3.813,3.697-3.871c2.096-0.063,3.842,1.596,3.899,3.682
	C40.425,263.75,38.774,265.473,36.672,265.527z"/>
<path fill="#272B33" d="M251.357,250.322c-24.062-29.324-76.867,2.002-60.959,31.549c-20.854-10.303-37.563,4.305-41.458,17.949
	c-7.005-9.368-30.303-14.908-41.015-0.531c-0.313-1.546-8.289-22.428-35.489-7.373c3.142-18.586-16.617-54.825-59.629-51.352
	c0.309,1.131,0.631,2.264,0.968,3.396c25.334-3.854,64.84,22.335,52.722,57.771c19.209-28.65,59.485-3.229,27.317,18.408
	c13.673,0.768,18.235,11.586,11.911,20.537c0.494,0.172,0.983,0.35,1.465,0.514c9.421-12.491-1.716-21.139-7.951-22.524
	c6.063-4.392,9.197-10.513,8.996-16.606c6.346-12.854,46.625-16.646,43.867,20.646c3.641-7.599,0.21-17.354-2.312-21.062
	c13.417-33.095,51.673-23.02,52.313,7.42c12.776-22.141,37.605-7.035,35.951,6.937c3.924-10.448,15.069-14.465,20.572-7.827
	c0.37-0.342,0.723-0.689,1.072-1.031c-3.021-5.851-16.208-6.621-20.764,4.453c1.521-13.587-27.104-24.414-35.645-6.609
	c-0.725-9.75-3.914-16.358-10.953-21.187c-15.58-36.378,41.164-57.86,60.03-29.321c3.108-29.188,41.907-24.143,47.065-16.076
	c0.176-0.879,0.883-2.391,1.033-3.281C296.063,227.436,257.463,222.643,251.357,250.322z"/>
<path fill="#272B33" d="M271.171,238.514c-2.437-0.646-4.935,0.774-5.599,3.192c-0.654,2.414,0.785,4.903,3.215,5.556
	c2.438,0.654,4.938-0.791,5.596-3.203C275.04,241.643,273.596,239.174,271.171,238.514z M273.279,243.764
	c-0.489,1.813-2.373,2.896-4.192,2.396c-1.819-0.479-2.896-2.35-2.407-4.153c0.493-1.813,2.367-2.881,4.19-2.397
	C272.688,240.098,273.771,241.951,273.279,243.764z"/>
<path fill="#272B33" d="M180.407,302.859c-6.504,0.186-11.642,5.563-11.475,12.033c0.183,6.469,5.605,11.565,12.105,11.404
	c6.523-0.182,11.666-5.563,11.48-12.021C192.346,307.805,186.941,302.693,180.407,302.859z M181,324.738
	c-5.649,0.143-10.332-4.284-10.493-9.889c-0.142-5.615,4.306-10.268,9.945-10.434c5.661-0.137,10.358,4.283,10.496,9.896
	C191.102,319.928,186.646,324.587,181,324.738z"/>
<path fill="#272B33" d="M236.52,254.469c-8.381,0.217-15.006,7.152-14.785,15.492c0.231,8.34,7.207,14.911,15.601,14.699
	c8.396-0.225,15.021-7.159,14.798-15.495C251.895,260.832,244.92,254.25,236.52,254.469z M237.291,283.148
	c-7.545,0.188-13.832-5.717-14.045-13.226c-0.195-7.506,5.76-13.762,13.307-13.942c7.559-0.198,13.834,5.726,14.055,13.222
	C250.797,276.701,244.843,282.939,237.291,283.148z"/>
<path fill="#272B33" d="M180.479,306.641c-2.469,0.068-4.396,2.104-4.324,4.541c0.047,2.453,2.111,4.363,4.556,4.313
	c2.459-0.062,4.413-2.101,4.341-4.539C184.984,308.514,182.941,306.578,180.479,306.641z M180.691,314.584
	c-1.955,0.04-3.588-1.484-3.625-3.428c-0.051-1.941,1.504-3.549,3.438-3.604c1.959-0.053,3.571,1.48,3.633,3.421
	C184.193,312.91,182.643,314.529,180.691,314.584z"/>
<path fill="#272B33" d="M240.107,259.741c-2.387,0.065-4.248,2.05-4.194,4.401c0.058,2.354,2.044,4.227,4.423,4.153
	c2.378-0.063,4.256-2.021,4.189-4.383C244.461,261.544,242.488,259.695,240.107,259.741z M240.309,267.427
	c-1.889,0.052-3.461-1.432-3.51-3.31c-0.042-1.877,1.441-3.44,3.321-3.493c1.892-0.039,3.466,1.44,3.524,3.308
	C243.693,265.805,242.202,267.37,240.309,267.427z"/>
<path fill="#272B33" d="M206.293,71.514c-7.305-4.511-18.8-4.332-23.447,4.001c-3.15,5.605-2.457,11.906-2.705,17.66
	C170.747,76.088,193.592,57.303,206.293,71.514z"/>
<path fill="#272B33" d="M72.291,160.163C60.5,143.837,46.667,146.004,36,132.167C25.146,118.087,2,96.67,7,84.504
	c5.925-14.417,42.311-7.906,59.967-5.752c18.093,2.207,39.056,7.72,57.016,3.795C93,82.17,65.089,73.922,36.167,73.504
	c-10.06-0.137-34.356-1.188-33.399,14.682C3.671,102.663,29.054,126.47,34,134.67c4.721,7.827,23.269,13.439,31.347,21.191
	c-3.047,2.952-5.317,8.462-6.688,14.593c-13.159,2.379-17.345,11.192-21.017,20.065c-11.047,2.311-25.475,15.646-27.809,29.313
	c6.333-11.667,18.333-22.334,27-26.667c-0.881,2.782-0.333,5.667,1,8.333c1-11,9.651-25.521,20.729-30.127
	c-1.996,9.395-1.934,19.729,0.715,24.771c1.618-8.918,0.763-19.605,2.584-29.125c12.653,9.458,22.993-4.023,51.758-7.812
	C99.317,157.691,86.43,164.618,72.291,160.163z"/>
<path fill="#272B33" d="M270.254,94.28c4.246-8.28-5.256-11.563-11.504-12.03c-7.07-0.531-15.21,2.067-21.02,5.708
	c-8.926,5.596-14.563,13.708-20.73,20.708c-5,0.167-23.32-0.123-33.23,4.156c-11.273,4.837-18.585,15.301-26.794,23.219
	c7.54-11.439,18.145-24.827,32.53-27.541c8.53-1.756,21.831-1.833,26.831-2.5c7.409-9.44,17.176-18.853,28.504-23.299
	C251.73,79.987,279,79,270.254,94.28z"/>
<path fill="#272B33" d="M188.167,106.5c-6.685,2.077-13.662,3.073-20.561,4.155C173.412,106.854,181.378,105.712,188.167,106.5z"/>
<path fill="#272B33" d="M207.332,58.243c15.837-2.077,32.828,2.931,40.038,17.559c-7.452-6.361-11.481-12.331-21.574-14.796
	C219.757,59.551,213.206,58.571,207.332,58.243z"/>
<path fill="#272B33" d="M193.721,107.104c3.73-12.134,14.156-20.281,27.155-16.811C207.555,92.804,200.477,94.514,193.721,107.104z"
	/>
<path fill="#272B33" d="M187.915,95.865c-0.511-15.802,25.758-24.685,28.181-5.894C209.061,76.099,189.547,80.627,187.915,95.865z"
	/>
<path fill="#272B33" d="M273.869,94.161c11.349,1.328,21.747,5.75,28.496,16.077c3.562,5.458,6.442,12.674,5.021,19.287
	c-0.213,0.991-0.584,1.731-0.928,2.343c-0.622-2.113-1.387-4.263-2.331-6.444c-3.142-7.26-10.685-19.076-20.194-18.111
	c-0.039-0.005-0.076-0.005-0.115-0.009c-2.277-4.291-8.385-10.181-15.088-11.776l-0.463,1.945
	c5.629,1.339,10.928,6.147,13.279,9.889c-7.212,1.371-8.48,14.112-9.212,19.575c-1.585,11.889-0.26,29.003-11.336,36.563
	c-8.797,6.005-19.323,8.804-30,8.5c-22.636-0.743-37-26.5-42.358-45.577c1.153,19.837,20.858,49.577,44.678,48.546
	c10.791-0.333,21.994-3.586,30.674-10.165c9.445-7.259,9-22.664,10.561-33.365c0.692-4.762,1.414-21.547,9.242-21.087
	c8.038-1.531,15.311,10.455,17.896,16.153c5.887,12.975,6.934,32.245-7.019,40.517c-8.685,5.15-15.672,5.479-27.419,3.413
	c3.711,3.334,6.559,6.023,13.266,7.922c-4.769,4.394-10.519,6.144-17.604,7.209c2.338,1.397,5.122,1.873,8.104,1.648
	C258.25,213,250.834,224.5,209.5,227.25c23,3.584,33.322,1.359,46-5.25c3.635,5.311,10.298,9.782,15.413,10.549
	c-7.163-5.299-10.413-8.382-13.746-16.382c7.484-6.75,14.083-20.917,16.333-28.917c11.521-1.732,24.383-13.32,27.271-23.249
	c6.641-6.659,9.119-16.933,6.562-28.7C321.178,116.337,290.926,93.043,273.869,94.161z"/>
<path fill="#272B33" d="M209.25,121.517c-1.508-0.75-6.064,0.047-8.039-0.037c-3.497-0.248-7.244-0.023-10.507,1.373
	c-5.599,2.341-8.306,8.231-9.995,13.683c1.33-0.525,3.297-5.345,4.41-6.791c1.413-2.033,3.857-3.822,6.025-4.608
	C197.047,123.122,204.079,126.099,209.25,121.517z"/>
<path fill="#4B5B6D" d="M272.873,96.818c-6.771,5.014-20.291,8.129-23.131,4.29c-2.547-3.43-0.898-9.447,1.996-12.08
	c3.688-3.351,6.066-1.925,10.066-3.289c2.403-2.381,5.682,0.413,6.965,1.378C273.02,90.281,275.953,94.541,272.873,96.818z"/>
<path fill="#272B33" d="M272.873,96.818c-1.635,1.217-3.434,2.188-5.258,3.099c-0.918,0.448-1.857,0.854-2.811,1.229
	c-0.947,0.39-1.908,0.753-2.895,1.068c-1.961,0.627-3.975,1.177-6.079,1.413c-1.06,0.117-2.136,0.169-3.261,0.038
	c-1.105-0.146-2.332-0.427-3.428-1.386l-0.377-0.398l-0.281-0.388c-0.146-0.2-0.291-0.402-0.449-0.734
	c-0.333-0.618-0.521-1.164-0.674-1.751c-0.299-1.164-0.385-2.353-0.258-3.499c0.244-2.291,1.065-4.468,2.498-6.342
	c0.191-0.229,0.371-0.463,0.584-0.679l0.326-0.319l0.164-0.158l0.041-0.04l0.021-0.02l0.104-0.086l0.075-0.058l1.22-0.917
	c0.524-0.302,1.106-0.612,1.662-0.867c0.567-0.166,1.139-0.41,1.701-0.485c1.146-0.241,2.195-0.221,3.174-0.291
	c0.496-0.027,0.949-0.094,1.43-0.137l1.39-0.272l-0.36,0.224c0.215-0.161,0.415-0.322,0.637-0.468
	c0.244-0.12,0.472-0.263,0.729-0.346c0.51-0.173,1.054-0.264,1.563-0.211c1.032,0.067,1.896,0.491,2.646,0.953
	c0.76,0.467,1.416,1.034,2.052,1.58c0.636,0.541,1.269,1.097,1.868,1.706c1.184,1.2,2.311,2.492,3.021,4.028l0.242,0.583
	c0.063,0.199,0.111,0.404,0.176,0.605c0.092,0.412,0.121,0.833,0.082,1.251c-0.03,0.206-0.09,0.409-0.135,0.613
	c-0.099,0.187-0.177,0.383-0.277,0.562c-0.131,0.163-0.248,0.338-0.395,0.489L272.873,96.818z M272.873,96.818l0.465-0.417
	c0.141-0.152,0.254-0.329,0.383-0.492c0.104-0.179,0.178-0.375,0.268-0.561c0.048-0.203,0.104-0.404,0.125-0.608
	c0.022-0.416-0.021-0.827-0.129-1.227c-0.108-0.399-0.271-0.78-0.463-1.147c-0.211-0.355-0.422-0.709-0.678-1.035
	c-0.234-0.339-0.52-0.641-0.785-0.955c-0.563-0.601-1.154-1.178-1.808-1.683c-0.638-0.509-1.319-0.979-2.015-1.442
	c-0.688-0.47-1.379-0.894-2.094-1.207c-0.709-0.312-1.453-0.522-2.104-0.458c-0.327,0.01-0.605,0.122-0.873,0.251
	c-0.133,0.063-0.244,0.175-0.369,0.249l-0.322,0.33l-0.149,0.15l-0.214,0.074c-0.514,0.179-1.032,0.37-1.563,0.532
	c-0.521,0.115-1.063,0.256-1.583,0.347c-1.033,0.189-2.025,0.324-2.859,0.561c-0.443,0.089-0.799,0.309-1.201,0.443l-1.004,0.612
	l-1.176,0.974l-0.361,0.382c-0.137,0.153-0.26,0.33-0.396,0.489c-1.021,1.376-1.695,3.129-1.967,4.868
	c-0.117,0.873-0.143,1.748,0.005,2.569c0.067,0.401,0.192,0.835,0.315,1.125c0.039,0.087,0.039,0.151,0.104,0.263l0.191,0.33
	l0.094,0.167l0.047,0.083l0.021,0.042l0.007,0.01c-0.095-0.135-0.022-0.034-0.043-0.063l0.008,0.01
	c0.044,0.056,0.086,0.114,0.125,0.177c0.386,0.474,1.187,0.857,2.063,1.063c0.879,0.227,1.849,0.331,2.818,0.357
	c1.957,0.048,3.975-0.164,5.945-0.555c1.979-0.379,3.933-0.963,5.813-1.714C269.412,98.969,271.227,98.014,272.873,96.818z"/>
<path fill="#272B33" d="M115.85,85.849c26.316-8.679,49.676-22.834,73.65-32.013c23.975-9.179,66.125-2.205,71.923,26.83
	c-4.696-8.189-7.726-17.667-17.86-21.583c-14.188-5.48-36.521-8.692-51.207-4.281C166.793,62.747,141.91,81.348,115.85,85.849z"/>
<path fill="#EFDAE6" d="M352,38.992c0,42.393-66.27,42.394-66.27,0C285.73-3.394,352-3.394,352,38.992z"/>
<path d="M351.998,39c-0.325,16.655-11.414,30.744-28.164,32.656c-30.667,3.5-46.66-24.385-36.128-47.272
	C303.049-8.957,351.9,3.845,351.998,39z M350.698,38.992C349.662,2.59,295.73-4.205,287.65,32.63
	C277.781,77.621,350.23,84.367,350.698,38.992z"/>
<path d="M335.854,22.117c0.138-4.589-6.516-9.306-10.993-9.576c0,0-1.77,0.943-2.585,1.616
	C329.607,15.374,333.275,18.474,335.854,22.117z"/>
<path d="M338.021,48.28c3.06-2.466,4.481-10.79,3.658-14.974c0,0-1.332,1.517-2.969,1.626
	C339.926,38.035,339.926,42.217,338.021,48.28z"/>
<path fill="#EFDAE6" d="M95.081,122.648c4.333,9.333,4.361,24.5-17.441,24.281c-19.354-0.195-35.279-13.089-45.264-29.515
	C24.516,104.482,14.821,99.376,18.364,91c3.543-8.375,52.664-12.079,69.734,9.019c-14.494-0.322-17.394,6.281-17.394,6.281
	s13.688-1.771,14.817,2.577c-2.416-0.162-6.926-1.933-7.893,3.382C83.106,111.938,91.197,114.283,95.081,122.648z"/>
<path d="M86.168,100.169c-5.716,0.247-11.086,1.979-13.42,4.812c4-1.167,12.5-2,14.5,5.167c-2.929-1.109-8.167-1.333-9.333,1.667
	c19.333-4.5,34.05,35.047,2.852,36.018c-26.186,0.815-41.909-19.297-56.669-39.713c-3.395-4.696-10.697-11.783-6.57-17.731
	c6.633-10.222,29.342-7.196,39.127-6.153C77.91,86.538,96.117,101.461,107,119.651c-14.583-15.06-28.343-30.143-50.658-32.386
	c-8.494-0.827-30.609-3.93-36.336,4.764c-3.434,4.846,9.868,19.622,12.039,23.131c11.536,18.654,37.869,36.821,56.19,29.204
	c17.845-7.419,3.346-37.383-12.154-29.883c-0.584-6.12,4-7.667,8.5-6.333c-3.333-2.833-11.167-2-16.087-0.906
	C72.011,101.106,79.95,98.916,86.168,100.169z"/>
<g>
	<path fill="#272B33" d="M422.636,194.372l-22.168-51.563l-1.855-4.932l0.342,17.676v43.262h-7.91v-72.217h10.938l25.146,57.52
		l24.902-57.52h10.645v72.217h-8.203v-43.457l0.342-17.285l-1.807,4.932l-22.119,51.367H422.636z"/>
	<path fill="#272B33" d="M511.405,198.815c-0.488-2.083-0.961-4.329-1.416-6.738c-2.963,2.963-5.746,5.014-8.35,6.152
		c-2.604,1.139-5.664,1.709-9.18,1.709c-5.014,0-9.042-1.31-12.085-3.931c-3.044-2.62-4.565-6.388-4.565-11.304
		c0-5.469,2.075-9.521,6.226-12.158s10.132-4.28,17.944-4.932c1.074-0.098,2.693-0.236,4.858-0.415
		c2.164-0.179,3.784-0.317,4.858-0.415v-4.736c0-3.776-0.879-6.575-2.637-8.398c-1.758-1.823-4.525-2.734-8.301-2.734
		c-5.273,0-10.596,1.302-15.967,3.906c-0.163-0.391-0.586-1.521-1.27-3.394c-0.684-1.872-1.042-2.84-1.074-2.905
		c2.376-1.334,5.2-2.4,8.472-3.198c3.271-0.797,6.6-1.196,9.985-1.196c6.673,0,11.482,1.457,14.429,4.37
		c2.945,2.914,4.419,7.87,4.419,14.868v35.449H511.405z M493.681,193.347c3.873,0,7.283-1.065,10.229-3.198
		c2.945-2.132,4.842-5.005,5.688-8.618v-9.033c-0.163,0-1.147,0.082-2.954,0.244c-1.807,0.163-2.987,0.261-3.54,0.293
		c-7.064,0.619-11.987,1.774-14.771,3.467c-2.783,1.693-4.175,4.411-4.175,8.154c0,2.865,0.846,5.029,2.539,6.494
		C488.391,192.614,490.718,193.347,493.681,193.347z"/>
	<path fill="#272B33" d="M558.28,126.599h20.703c9.277,0,16.153,1.416,20.63,4.248c4.476,2.832,6.714,7.341,6.714,13.525
		c0,0.912-0.058,1.815-0.171,2.71c-0.114,0.896-0.407,2.043-0.879,3.442c-0.473,1.4-1.115,2.678-1.929,3.833
		c-0.814,1.156-2.011,2.312-3.589,3.467c-1.579,1.156-3.427,2.075-5.542,2.759c4.85,0.912,8.528,2.962,11.035,6.152
		c2.506,3.19,3.76,7.031,3.76,11.523c0,6.543-2.141,11.605-6.421,15.186c-4.281,3.581-10.653,5.371-19.116,5.371H558.28V126.599z
		 M566.728,157.653h15.479c5.045,0,8.854-0.879,11.426-2.637c2.571-1.758,3.857-4.883,3.857-9.375c0-4.524-1.538-7.642-4.614-9.351
		s-7.854-2.563-14.331-2.563h-11.816V157.653z M566.728,164.44v27.441h15.088c6.119,0,10.709-1.131,13.77-3.394
		c3.06-2.262,4.59-5.786,4.59-10.571c0-4.98-1.652-8.472-4.956-10.474c-3.305-2.002-8.456-3.003-15.454-3.003H566.728z"/>
	<path fill="#272B33" d="M617.704,180.944v-35.693h8.203v35.791c0,2.344,0.333,4.33,1.001,5.957c0.667,1.628,1.627,2.89,2.881,3.784
		c1.253,0.896,2.669,1.538,4.248,1.929c1.578,0.391,3.394,0.586,5.444,0.586c4.231,0,7.527-0.928,9.888-2.783
		c2.359-1.855,3.54-5.013,3.54-9.473v-35.791h8.203v35.693c0,2.734-0.391,5.192-1.172,7.373c-0.781,2.182-1.831,3.996-3.149,5.444
		c-1.318,1.449-2.905,2.646-4.761,3.589c-1.855,0.944-3.817,1.627-5.884,2.051c-2.067,0.423-4.289,0.635-6.665,0.635
		c-2.344,0-4.558-0.212-6.641-0.635c-2.084-0.424-4.062-1.114-5.933-2.075c-1.872-0.96-3.483-2.164-4.834-3.613
		c-1.352-1.448-2.417-3.263-3.198-5.444C618.095,186.088,617.704,183.646,617.704,180.944z"/>
	<path fill="#272B33" d="M687.675,199.792c-5.209,0-8.896-1.399-11.06-4.199c-2.165-2.799-3.247-7.666-3.247-14.6V124.45
		l8.105-0.488v53.809c0,2.214,0.024,3.988,0.073,5.322c0.049,1.335,0.171,2.646,0.366,3.931c0.195,1.286,0.455,2.255,0.781,2.905
		c0.325,0.651,0.797,1.245,1.416,1.782c0.618,0.537,1.358,0.896,2.222,1.074c0.862,0.18,1.929,0.269,3.198,0.269
		c1.041,0,3.092-0.195,6.152-0.586l0.439,6.494C692.769,199.515,689.953,199.792,687.675,199.792z"/>
	<path fill="#272B33" d="M715.458,199.792c-5.209,0-8.896-1.399-11.06-4.199c-2.165-2.799-3.247-7.666-3.247-14.6V124.45
		l8.105-0.488v53.809c0,2.214,0.024,3.988,0.073,5.322c0.049,1.335,0.171,2.646,0.366,3.931c0.195,1.286,0.455,2.255,0.781,2.905
		c0.325,0.651,0.797,1.245,1.416,1.782c0.618,0.537,1.358,0.896,2.222,1.074c0.862,0.18,1.929,0.269,3.198,0.269
		c1.041,0,3.092-0.195,6.152-0.586l0.439,6.494C720.552,199.515,717.736,199.792,715.458,199.792z"/>
	<path fill="#272B33" d="M751.493,199.938c-7.78,0-13.908-2.474-18.384-7.422c-4.477-4.947-6.714-11.719-6.714-20.313
		c0-8.301,2.164-15.031,6.494-20.19c4.329-5.159,10.025-7.788,17.09-7.886c6.641,0,11.905,2.271,15.796,6.812
		c3.89,4.541,5.835,10.604,5.835,18.188c0,0.391-0.009,1.107-0.024,2.148c-0.017,1.042-0.024,1.791-0.024,2.246h-36.768
		c0.098,6.088,1.668,10.832,4.712,14.233c3.043,3.402,7.137,5.103,12.28,5.103c5.664,0,11.344-1.497,17.041-4.492l1.27,6.592
		C764.66,198.278,758.459,199.938,751.493,199.938z M759.721,155.139c-2.393-2.848-5.673-4.272-9.839-4.272
		c-4.167,0-7.568,1.473-10.205,4.419c-2.637,2.946-4.184,6.975-4.639,12.085h28.271C763.31,162.064,762.113,157.987,759.721,155.139
		z"/>
	<path fill="#272B33" d="M844.853,191.052c-1.758,2.702-4.102,4.851-7.031,6.445s-6.201,2.393-9.814,2.393
		c-7.064,0-12.598-2.515-16.602-7.544s-6.006-11.873-6.006-20.532c0-8.268,2.034-14.949,6.104-20.044
		c4.068-5.094,9.521-7.642,16.357-7.642c3.548,0,6.893,0.773,10.034,2.319c3.141,1.546,5.493,3.622,7.056,6.226l-0.146-4.639V124.45
		l8.057-0.488v74.854h-6.934L844.853,191.052z M828.788,192.907c5.371,0,9.366-1.725,11.987-5.176
		c2.62-3.45,3.931-8.382,3.931-14.795c0-7.227-1.262-12.671-3.784-16.333c-2.523-3.662-6.601-5.493-12.231-5.493
		c-2.507,0-4.721,0.537-6.641,1.611c-1.921,1.074-3.467,2.572-4.639,4.492c-1.172,1.921-2.06,4.126-2.661,6.616
		c-0.603,2.49-0.903,5.217-0.903,8.179c0,4.167,0.513,7.78,1.538,10.84c1.025,3.061,2.677,5.502,4.956,7.324
		C822.619,191.996,825.435,192.907,828.788,192.907z"/>
	<path fill="#272B33" d="M889.677,199.938c-7.78,0-13.908-2.474-18.384-7.422c-4.477-4.947-6.714-11.719-6.714-20.313
		c0-8.301,2.164-15.031,6.494-20.19c4.329-5.159,10.025-7.788,17.09-7.886c6.641,0,11.905,2.271,15.796,6.812
		c3.89,4.541,5.835,10.604,5.835,18.188c0,0.391-0.009,1.107-0.024,2.148c-0.017,1.042-0.024,1.791-0.024,2.246h-36.768
		c0.098,6.088,1.668,10.832,4.712,14.233c3.043,3.402,7.137,5.103,12.28,5.103c5.664,0,11.344-1.497,17.041-4.492l1.27,6.592
		C902.844,198.278,896.643,199.938,889.677,199.938z M897.904,155.139c-2.393-2.848-5.673-4.272-9.839-4.272
		c-4.167,0-7.568,1.473-10.205,4.419c-2.637,2.946-4.184,6.975-4.639,12.085h28.271
		C901.493,162.064,900.297,157.987,897.904,155.139z"/>
	<path fill="#272B33" d="M954.862,198.815h-8.643v-73.047h23.535c3.58,0,6.819,0.375,9.717,1.123
		c2.896,0.749,5.469,1.888,7.715,3.418c2.246,1.53,3.987,3.581,5.225,6.152c1.236,2.572,1.855,5.566,1.855,8.984
		c0,2.832-0.261,5.363-0.781,7.593c-0.521,2.23-1.416,4.321-2.686,6.274s-2.93,3.573-4.98,4.858
		c-2.051,1.286-4.68,2.295-7.886,3.027c-3.207,0.732-6.926,1.099-11.157,1.099c-3.354,0-7.324-0.211-11.914-0.635V198.815z
		 M967.606,160.827c3.189,0,5.924-0.309,8.203-0.928c2.278-0.618,4.028-1.383,5.249-2.295c1.221-0.911,2.181-2.1,2.881-3.564
		c0.699-1.465,1.131-2.808,1.294-4.028c0.162-1.221,0.244-2.693,0.244-4.419c0-4.134-1.392-7.178-4.175-9.131
		s-6.567-2.93-11.353-2.93h-15.088v27.197C961.145,160.795,965.393,160.827,967.606,160.827z"/>
	<path fill="#272B33" d="M1049.345,172.009c0,8.301-2.214,15.031-6.641,20.19c-4.428,5.16-10.547,7.739-18.359,7.739
		c-7.52,0-13.501-2.604-17.944-7.813c-4.443-5.208-6.665-11.897-6.665-20.068c0-8.333,2.229-15.071,6.689-20.215
		c4.459-5.143,10.579-7.715,18.359-7.715c7.649,0,13.655,2.58,18.018,7.739C1047.163,157.027,1049.345,163.741,1049.345,172.009z
		 M1008.183,172.155c0,6.348,1.407,11.435,4.224,15.259c2.815,3.825,6.925,5.737,12.329,5.737c5.338,0,9.366-1.904,12.085-5.713
		c2.718-3.809,4.077-8.936,4.077-15.381c0-6.543-1.343-11.694-4.028-15.454s-6.779-5.64-12.28-5.64
		c-5.339,0-9.408,1.921-12.207,5.762C1009.582,160.567,1008.183,165.71,1008.183,172.155z"/>
	<path fill="#272B33" d="M1070.487,125.769v9.668h-8.203v-9.668H1070.487z M1070.487,145.251v53.564h-8.203v-53.564H1070.487z"/>
	<path fill="#272B33" d="M1100.224,199.792c-5.209,0-8.896-1.399-11.06-4.199c-2.165-2.799-3.247-7.666-3.247-14.6V124.45
		l8.105-0.488v53.809c0,2.214,0.024,3.988,0.073,5.322c0.049,1.335,0.171,2.646,0.366,3.931c0.195,1.286,0.455,2.255,0.781,2.905
		c0.325,0.651,0.797,1.245,1.416,1.782c0.618,0.537,1.358,0.896,2.222,1.074c0.862,0.18,1.929,0.269,3.198,0.269
		c1.041,0,3.092-0.195,6.152-0.586l0.439,6.494C1105.317,199.515,1102.502,199.792,1100.224,199.792z"/>
	<path fill="#272B33" d="M1129.569,199.938c-3.646,0-7.007-0.391-10.083-1.172s-5.575-1.79-7.495-3.027l1.025-6.885
		c5.436,2.897,10.774,4.346,16.016,4.346c7.942,0,12.027-2.799,12.256-8.398c0-2.376-0.847-4.248-2.539-5.615
		c-1.693-1.367-5.014-2.896-9.961-4.59l-4.053-1.416c-4.688-1.563-8.032-3.499-10.034-5.811c-2.002-2.311-3.02-5.192-3.052-8.643
		c0-4.199,1.685-7.682,5.054-10.449c3.369-2.767,7.983-4.15,13.843-4.15c6.055,0,11.572,1.172,16.553,3.516l-2.393,6.25
		c-5.046-2.083-9.766-3.125-14.16-3.125c-3.418,0-6.096,0.676-8.032,2.026c-1.938,1.351-2.905,3.247-2.905,5.688
		c0,2.083,0.699,3.679,2.1,4.785c1.399,1.107,4.199,2.376,8.398,3.809c1.074,0.391,2.425,0.847,4.053,1.367
		c5.403,1.758,9.229,3.833,11.475,6.226s3.369,5.624,3.369,9.692c-0.065,4.948-1.84,8.781-5.322,11.499
		C1140.197,198.58,1135.493,199.938,1129.569,199.938z"/>
	<path fill="#272B33" d="M1158.476,212.39c0.098-0.944,0.382-3.442,0.854-7.495c0.472-4.053,0.838-7.462,1.099-10.229
		c0.26-2.767,0.455-5.191,0.586-7.275h9.619v2.148c-1.596,6.445-3.939,14.063-7.031,22.852H1158.476z"/>
	<path fill="#6D809B" d="M397.78,288.353c-4.745,0-8.997-1.092-12.757-3.276l1.772-5.774c1.683,0.932,3.514,1.684,5.492,2.256
		c1.978,0.573,3.907,0.859,5.787,0.859c2.31,0,4.055-0.496,5.236-1.49c1.182-0.993,1.773-2.421,1.773-4.283
		c0-2.471-1.647-4.181-4.941-5.129c-0.233-0.072-0.887-0.265-1.961-0.578c-1.074-0.313-2.081-0.617-3.021-0.913
		c-0.939-0.295-1.615-0.523-2.027-0.685c-5.281-1.862-7.922-5.335-7.922-10.42c0-3.563,1.266-6.311,3.8-8.244
		c2.533-1.934,5.895-2.9,10.084-2.9c4.744,0,8.835,0.976,12.272,2.927l-2.201,5.317c-3.51-1.575-6.768-2.363-9.775-2.363
		c-2.167,0-3.801,0.381-4.901,1.142c-1.102,0.761-1.688,2.027-1.759,3.8c0,2.185,1.083,3.607,3.249,4.27
		c0.43,0.162,1.486,0.511,3.169,1.048s2.775,0.886,3.276,1.048c3.599,1.182,6.172,2.649,7.721,4.404
		c1.549,1.754,2.323,4.198,2.323,7.331c0,3.742-1.325,6.62-3.975,8.634C405.846,287.346,402.273,288.353,397.78,288.353z"/>
	<path fill="#6D809B" d="M416.55,287.815l14.475-39.37h7.922l14.261,39.37h-7.466l-3.895-11.118H428.07l-3.921,11.118H416.55z
		 M429.896,271.272h10.098c-3.223-10.33-4.879-15.666-4.968-16.006L429.896,271.272z"/>
	<path fill="#6D809B" d="M459.328,287.815v-39.344h7.278v33.543h16.462l-0.215,5.801H459.328z"/>
	<path fill="#6D809B" d="M507.881,288.38c-5.927,0-10.604-1.795-14.032-5.385c-3.429-3.59-5.144-8.545-5.144-14.865
		c0-6.355,1.719-11.314,5.156-14.877c3.438-3.563,8.12-5.345,14.046-5.345s10.599,1.786,14.019,5.357
		c3.42,3.572,5.129,8.536,5.129,14.892c0,6.284-1.719,11.226-5.156,14.824S513.789,288.38,507.881,288.38z M499.26,278.712
		c1.951,2.488,4.834,3.732,8.647,3.732s6.691-1.239,8.634-3.72c1.942-2.479,2.914-5.984,2.914-10.514
		c0-4.583-0.972-8.138-2.914-10.661c-1.942-2.525-4.812-3.787-8.607-3.787c-3.813,0-6.7,1.267-8.66,3.8
		c-1.961,2.534-2.941,6.083-2.941,10.648C496.332,272.723,497.309,276.223,499.26,278.712z"/>
	<path fill="#6D809B" d="M536.157,287.815v-39.344h7.734c1.396,2.185,4.234,6.589,8.513,13.213
		c4.279,6.625,6.885,10.653,7.815,12.086c0.269,0.411,0.729,1.105,1.383,2.081s1.114,1.669,1.384,2.081
		c-0.126-6.141-0.188-9.328-0.188-9.561v-19.9h6.634v39.344h-7.842l-17.752-27.661l-1.289-2.122
		c0.144,4.727,0.215,8.048,0.215,9.964v19.819H536.157z"/>
	<path fill="#6D809B" d="M596.846,287.815v-39.344h11.387c3.438,0,6.518,0.395,9.238,1.182c2.722,0.788,5.063,1.975,7.023,3.559
		c1.96,1.585,3.464,3.626,4.512,6.123c1.047,2.498,1.57,5.385,1.57,8.661c0,6.355-1.915,11.248-5.746,14.677
		c-3.832,3.429-9.141,5.143-15.926,5.143H596.846z M604.124,281.987h5.21c4.494,0,7.913-1.177,10.259-3.531
		c2.346-2.354,3.519-5.787,3.519-10.299c0-4.834-1.209-8.348-3.626-10.541c-2.417-2.192-6.061-3.289-10.931-3.289h-4.431V281.987z"
		/>
	<path fill="#6D809B" d="M639.679,287.815v-39.344h23.848l-0.296,5.774h-16.273v10.151h15.469v5.773h-15.469v11.844h16.865
		l-0.242,5.801H639.679z"/>
	<path fill="#6D809B" d="M697.146,287.815V254.3h-11.468v-5.828h30.186v5.828H704.45v33.516H697.146z"/>
	<path fill="#6D809B" d="M740.112,288.38c-5.927,0-10.604-1.795-14.032-5.385c-3.429-3.59-5.144-8.545-5.144-14.865
		c0-6.355,1.719-11.314,5.156-14.877c3.438-3.563,8.12-5.345,14.046-5.345s10.599,1.786,14.019,5.357
		c3.42,3.572,5.129,8.536,5.129,14.892c0,6.284-1.719,11.226-5.156,14.824S746.021,288.38,740.112,288.38z M731.491,278.712
		c1.951,2.488,4.834,3.732,8.647,3.732s6.691-1.239,8.634-3.72c1.942-2.479,2.914-5.984,2.914-10.514
		c0-4.583-0.972-8.138-2.914-10.661c-1.942-2.525-4.812-3.787-8.607-3.787c-3.813,0-6.7,1.267-8.66,3.8
		c-1.961,2.534-2.941,6.083-2.941,10.648C728.563,272.723,729.54,276.223,731.491,278.712z"/>
	<path fill="#6D809B" d="M768.577,287.815v-39.344h7.277v39.344H768.577z"/>
	<path fill="#6D809B" d="M786.756,287.815v-39.344h7.278v33.543h16.462l-0.215,5.801H786.756z"/>
	<path fill="#6D809B" d="M817.718,287.815v-39.344h23.848l-0.296,5.774h-16.273v10.151h15.469v5.773h-15.469v11.844h16.865
		l-0.242,5.801H817.718z"/>
	<path fill="#6D809B" d="M858.456,287.815V254.3h-11.468v-5.828h30.186v5.828h-11.413v33.516H858.456z"/>
	<path fill="#6D809B" d="M891.594,287.815V254.3h-11.468v-5.828h30.186v5.828h-11.413v33.516H891.594z"/>
	<path fill="#6D809B" d="M912.136,287.815l14.475-39.37h7.922l14.261,39.37h-7.466l-3.895-11.118h-13.776l-3.921,11.118H912.136z
		 M925.482,271.272h10.098c-3.223-10.33-4.879-15.666-4.968-16.006L925.482,271.272z"/>
	<path fill="#6D809B" d="M972.396,288.38c-5.998,0-10.685-1.809-14.059-5.426c-3.375-3.616-5.063-8.566-5.063-14.851
		c0-3.992,0.788-7.506,2.363-10.541c1.575-3.034,3.895-5.402,6.955-7.103c3.063-1.701,6.679-2.552,10.85-2.552
		c4.781,0,8.881,1.029,12.301,3.089l-2.363,5.424c-3.259-1.754-6.526-2.631-9.803-2.631c-3.975,0-7.099,1.289-9.373,3.867
		c-2.273,2.578-3.41,6.087-3.41,10.527c0,4.404,1.012,7.886,3.035,10.446c2.022,2.561,4.985,3.841,8.889,3.841
		c2.507,0,4.78-0.395,6.821-1.182v-9.131h-8.245l0.055-5.721h15.039v18.986c-2.436,1.003-4.74,1.746-6.916,2.229
		C977.298,288.138,974.938,288.38,972.396,288.38z"/>
	<path fill="#6D809B" d="M996.403,287.815v-39.344h23.848l-0.296,5.774h-16.273v10.151h15.469v5.773h-15.469v11.844h16.865
		l-0.242,5.801H996.403z"/>
</g>
</svg>
