<?xml version="1.0" encoding="utf-8"?>
<!DOCTYPE svg PUBLIC "-//W3C//DTD SVG 1.1//EN" "http://www.w3.org/Graphics/SVG/1.1/DTD/svg11.dtd">
<svg version="1.1" id="Calque_1" xmlns="http://www.w3.org/2000/svg" xmlns:xlink="http://www.w3.org/1999/xlink" x="0px" y="0px"
	 width="350px" height="350px" viewBox="0 90 350 350" enable-background="new 0 90 350 350" xml:space="preserve">
<g id="Calque_11">
	<path fill="#272B33" d="M302.102,289.346c0,83.205-67.449,150.654-150.656,150.654C68.24,440,0.79,372.551,0.79,289.346
		c0-83.208,67.45-150.657,150.655-150.657C234.652,138.689,302.102,206.138,302.102,289.346z"/>
	<path fill="#272B33" d="M151.446,144.269c80.123,0,145.076,64.952,145.076,145.078c0,80.12-64.953,145.074-145.076,145.074
		C71.323,434.42,6.369,369.467,6.369,289.346C6.369,209.22,71.323,144.269,151.446,144.269z"/>
	<path d="M70.668,200.323c4.048-5.06,14.505-17.54,32.382-12.48c22.602,6.398,29.015,33.06,24.625,39.806
		c-4.383,6.747-23.275,17.544-44.527,5.736C61.896,221.578,66.641,205.357,70.668,200.323z"/>
	<path fill="#FFFFFF" d="M73.451,210.096c2.194-2.616,6.341-3.7,7.391-4.967c0.553-2.529-0.512-5.744,2.393-8.527
		C77.917,197.361,72.861,202.041,73.451,210.096z"/>
	<circle fill="#EFDAE6" cx="317.513" cy="122.134" r="28.394"/>
	<path d="M317.513,90.438c-17.506,0-31.696,14.188-31.696,31.696c0,17.507,14.19,31.697,31.696,31.697
		c17.507,0,31.697-14.189,31.697-31.697C349.21,104.627,335.022,90.438,317.513,90.438z M317.513,150.529
		c-15.681,0-28.396-12.713-28.396-28.396c0-15.682,12.715-28.395,28.396-28.395c15.683,0,28.394,12.712,28.394,28.395
		C345.908,137.815,333.195,150.529,317.513,150.529z"/>
	<path d="M332.167,107.541c0.117-3.965-5.595-8.046-9.443-8.279c0,0-1.52,0.816-2.219,1.399
		C326.804,101.711,329.954,104.391,332.167,107.541z"/>
	<path d="M334.034,130.162c2.626-2.131,3.847-9.328,3.147-12.943c0,0-1.147,1.311-2.564,1.399
		C335.667,121.301,335.667,124.915,334.034,130.162z"/>
</g>
<g id="Calque_5">
	<path fill="#AA2484" d="M121.319,95.775c0.648-0.44,1.345-0.611,2.055-0.564l-0.053-0.457c0,0,4.044-0.23,4.227-0.26
		c2.562-0.424,5.457,4.229,6.473,10.386c0.936,5.695-0.066,10.677-2.248,11.727v0.001l-0.005,0.001
		c-0.175,0.084-5.753,1.305-5.753,1.305l-0.049-0.413c-2.496-0.023-5.191-2.947-6.619-7.591
		C117.546,104.071,118.432,97.741,121.319,95.775z"/>
	<path d="M122.262,94.788c0.143-0.04,5.038-0.597,5.222-0.627c2.56-0.422,5.695,4.542,6.711,10.701
		c0.936,5.695,0.182,11.428-2,12.477l-5.36,0.603l0.004-0.006c-3.517,0.674-7.34-3.624-8.65-9.833
		C116.846,101.726,118.672,95.764,122.262,94.788z M133.369,104.913c-0.983-5.872-3.844-10.278-6.417-9.861
		c-0.061,0.01-0.728,0.086-1.529,0.171c2.528,1.314,4.822,4.821,5.771,9.346c1.128,5.336,0.029,10.369-2.462,12.446l2.76-0.336
		C133.688,115.662,134.277,110.343,133.369,104.913z M119.096,108.786c1.549,5.869,5.251,9.6,8.269,8.336
		c3.016-1.264,4.208-7.043,2.657-12.91c-1.55-5.867-5.246-9.602-8.267-8.337C118.742,97.141,117.55,102.921,119.096,108.786z"/>
	<path d="M128.873,105.63c0.713,4.449-0.478,8.521-2.662,9.088c-2.186,0.565-4.531-2.581-5.241-7.034
		c-0.715-4.452,0.482-8.524,2.664-9.092C125.82,98.025,128.163,101.178,128.873,105.63z"/>
	<path fill="#AA2484" d="M149.264,102.602c0.905,5.887,4.539,10.215,8.104,9.67c3.57-0.545,5.729-5.757,4.818-11.646
		c-0.911-5.884-4.537-10.214-8.106-9.669C150.51,91.502,148.354,96.717,149.264,102.602z"/>
	<path d="M158.637,111.196c3.151-1.614,4.625-7.044,2.896-12.33c-1.73-5.283-6.265-8.407-9.418-6.796
		c-1.544,0.791-2.607,2.539-3.086,4.736c0.464-2.638,1.688-4.759,3.556-5.676c3.528-1.733,7.974,1.495,9.929,7.213
		c1.958,5.718,0.686,11.762-2.842,13.495c-2.004,0.984-4.295,0.37-6.267-1.385C155.009,111.666,157.057,112.006,158.637,111.196z"/>
	<path fill="#BC884E" d="M158.557,110.506c1.758-4.978-0.496-17.398-5.201-19.737c-5.925-0.066-21.156,0.173-24.348,3.799
		c5.598,4.131,6.572,17.646,3.686,21.937C137.029,118.652,157.217,114.311,158.557,110.506z"/>
	<path d="M133.026,116.35c7.094,0.932,19.515-1.429,24.348-5.01c2.856-7.549-0.53-17.758-4.521-20.093
		c-5.471-1.001-19.028-0.375-23.182,3.012C135.612,100.331,135.94,113.336,133.026,116.35z M153.218,90.387
		c6.435,3.687,7.599,15.433,5.153,21.537c-2.483,3.75-19.137,6.8-25.958,5.196c4.026-7.565,1.001-19.68-4.362-22.792
		C137.009,88.174,153.218,90.387,153.218,90.387z"/>
</g>
<g id="Calque_6">
	<path fill="#AA2484" d="M201.688,122.089c-3.37,5.164-3.875,11.473-0.733,13.536c1.793,1.177,6.402-0.707,9.769-5.871
		c3.368-5.162,5.386-10.511,2.42-12.824C210.184,114.619,205.049,116.925,201.688,122.089z"/>
	<path d="M200.774,134.802c2.514,1.912,6.792-0.527,9.987-6.121c2.997-5.237,1.078-11.883-2.336-13.035
		c-1.673-0.564-3.667,0-5.563,1.364c2.192-1.726,4.572-2.456,6.563-1.75c3.772,1.349,5.657,7.969,2.405,13.671
		c-3.426,6.016-8.366,9.079-12.044,6.375c-1.824-1.344-2.969-2.476-3.152-5.375C196.937,132.124,199.333,133.708,200.774,134.802z"
		/>
	<path fill="#BC884E" d="M200.661,134.906c4.876-2.34,12.545-12.788,10.28-18.347c-4.841-4.829-17.563-16.938-22.692-16.772
		c1.772,7.637-6.732,18.624-12.065,19.536C178.276,124.439,196.933,136.693,200.661,134.906z"/>
	<path d="M176.558,119.474c5.212,6.428,17.125,13.9,23.573,15.091c7.555-3.394,11.748-13.067,10.063-18.054
		c-3.826-5.169-15.429-15.632-21.187-16.423C189.723,109.462,181.038,119.549,176.558,119.474z M211.085,116.158
		c2.767,7.972-4.548,16.636-10.764,19.273c-3.664,0.2-20.596-8.104-24.796-15.869c8.532-2.47,14.377-14.054,12.093-20.73
		C199.247,101.413,211.085,116.158,211.085,116.158z"/>
	<path fill="#AA2484" d="M180.935,94.872c0.839,0.157,1.539,0.554,2.101,1.128l0.269-0.386c0,0,3.536,2.889,3.713,3.006
		c2.429,1.621,1.7,7.369-1.624,12.838c-3.071,5.059-7.291,8.101-9.828,7.248h-0.004l-0.004-0.001c-0.202-0.07-5.7-3.369-5.7-3.369
		l0.239-0.353c-2.071-1.911-2.343-6.187-0.391-10.818C172.155,98.34,177.19,94.182,180.935,94.872z"/>
	<path d="M182.39,94.833c0.148,0.079,4.618,3.366,4.793,3.483c2.428,1.62,1.688,7.784-1.636,13.259
		c-3.072,5.056-7.59,8.858-10.125,8.004l-4.893-3.61l0.009-0.001c-3.398-2.149-3.688-8.334-0.571-14.067
		C173.156,96.019,178.726,92.85,182.39,94.833z M184.824,110.983c3.158-5.226,3.748-10.759,1.31-12.391
		c-0.053-0.041-0.667-0.486-1.393-1.032c1.225,2.924,0.765,7.338-1.5,11.513c-2.672,4.928-7.007,7.936-10.492,7.631l2.534,1.835
		C177.808,119.433,181.91,115.822,184.824,110.983z M170.263,103.115c-2.68,5.655-2.111,11.311,1.266,12.636
		c3.38,1.323,8.295-2.182,10.972-7.838c2.679-5.651,2.111-11.311-1.267-12.634C177.855,93.955,172.94,97.466,170.263,103.115z"/>
	<path d="M172.805,103.277c2.27-4.083,5.829-6.324,7.956-5.003c2.122,1.325,2.005,5.707-0.261,9.792
		c-2.265,4.085-5.834,6.325-7.958,5.004C170.414,111.747,170.536,107.365,172.805,103.277z"/>
</g>
<g id="Calque_6_-_copie_2">
	<path fill="#AA2484" d="M84.913,117.537c3.65,4.8,9.297,7.34,12.229,5.126c1.68-1.264,1.46-6.133-2.192-10.936
		c-3.646-4.798-8.545-6.138-11.649-4.17C80.196,109.525,81.261,112.736,84.913,117.537z"/>
	<path d="M96.324,122.562c2.589-1.692,1.749-6.433-2.354-11.22c-3.838-4.484-10.592-4.907-12.777-2.138
		c-1.073,1.357-1.209,3.381-0.579,5.58c-0.862-2.59-0.753-5.026,0.554-6.624c2.486-3.034,9.199-2.588,13.387,2.282
		c4.416,5.138,5.611,10.699,1.913,13.195c-1.843,1.24-3.26,1.922-5.992,1.139C92.594,125.215,94.844,123.527,96.324,122.562z"/>
	<path fill="#BC884E" d="M96.384,122.697c-0.557-5.264-7.653-15.77-13.525-15.508c-6.041,2.869-21.38,10.607-22.919,15.388
		c7.616,0.88,14.945,12.333,14.031,17.547C79.376,139.877,96.805,126.721,96.384,122.697z"/>
	<path d="M74.234,139.823c7.634-2.683,18.445-11.202,21.661-16.75c-0.638-8.077-8.172-15.127-13.327-15.211
		c-6.019,1.819-19.479,9.071-22.103,14.117C69.343,124.403,75.779,135.722,74.234,139.823z M82.541,106.921
		c8.257,0.074,13.831,9.666,14.217,16.263c-1.021,3.441-14.25,16.31-22.784,17.621c0.532-8.669-8.22-17.869-15.123-17.964
		C65.056,112.979,82.541,106.921,82.541,106.921z"/>
	<path fill="#AA2484" d="M53.002,127.701c0.423-0.722,1.019-1.239,1.73-1.568l-0.269-0.37c0,0,3.829-2.311,3.991-2.434
		c2.293-1.703,7.353,0.859,11.299,5.722c3.652,4.496,5.061,9.382,3.444,11.439l-0.003,0.001l-0.001,0.002
		c-0.132,0.166-4.981,4.142-4.981,4.142l-0.245-0.336c-2.441,1.281-6.473,0.126-10.096-3.195
		C53.312,136.93,51.137,130.927,53.002,127.701z"/>
	<path d="M53.444,126.345c0.124-0.11,4.623-3.146,4.789-3.272c2.292-1.703,7.729,1.008,11.68,5.87
		c3.647,4.497,5.667,9.911,4.04,11.967l-4.929,3.318l-0.003-0.007c-3.099,2.426-8.893,0.656-13.15-4.099
		C51.503,135.241,50.414,129.07,53.444,126.345z M69.13,129.417c-3.775-4.629-8.683-6.993-10.987-5.286
		c-0.054,0.04-0.667,0.456-1.411,0.947c3.101-0.168,7.017,1.708,10.117,5.169c3.66,4.086,5.008,9.065,3.576,12.182l2.528-1.736
		C74.605,138.663,72.627,133.698,69.13,129.417z M57.087,140.245c4.331,4.333,9.729,5.667,12.064,2.991
		c2.331-2.681,0.717-8.359-3.614-12.686c-4.324-4.33-9.728-5.668-12.06-2.992C51.147,130.238,52.764,135.917,57.087,140.245z"/>
	<path d="M58.075,137.957c-3.016-3.432-3.911-7.454-1.993-8.977c1.918-1.521,5.918,0.028,8.935,3.463
		c3.021,3.43,3.911,7.455,1.994,8.976C65.092,142.945,61.093,141.391,58.075,137.957z"/>
</g>
<g id="Calque_2">
	<path fill="#BC884E" d="M217.333,355.2c-14.121-17.856-11.638-30.975-11.568-37.908c18.658,0.453,34.013-20.353,34.126-31.911
		c16.083-3.142,15.28-29.596-4.134-40.35c2.478-4.829-0.694-21.128-8.87-23.663c1.004-16.547-7.334-25.11-10.62-27.331
		c5.724-6.715,13.659-54.37-30.341-75.712c-44-21.344-107.487,2.397-123.896,32.846c-30.824,10.468-56.571,57.57-58.054,67.262
		s28.871,89.297,45.643,92.131c16.771,2.83,22.28-9.487,32.042-14.938c13.02,15.381,0.066,73.476-3.015,83.641
		C66.403,419.628,214.373,422.339,217.333,355.2z"/>
	<path opacity="0.2" enable-background="new    " d="M205.764,317.293c-13.148,2.376-30.855,2.678-59.367-15.684
		c15.549,18.557,41.465,29.426,59.409,27.362C204.593,322.188,205.764,317.293,205.764,317.293z"/>
	<path opacity="0.2" enable-background="new    " d="M86.991,172.543c-9.515,7.585,4.546,82.476,3.994,102.543
		c-0.25,9.118-5.182,14.84-9.323,20.545c2.479,2.745,5.446,9.764,7.844,15.547c11.785-10.443,22.551-25.961,13.179-43.495
		C92.518,248.664,82.969,201.569,86.991,172.543z"/>
	<path fill="#FFFFFF" d="M119.311,225.308c-0.326,8.478,3.864,21.401,21.306,18.759c20.63-3.128,20.25-17.591,16.182-27.718
		c-4.07-10.13-14.803-18.64-21.978-17.058C125.001,201.455,119.725,214.4,119.311,225.308z"/>
	<path fill="#FFFFFF" d="M204.445,213.645c2.954,10.508,9.852,17.763,15.406,16.205c5.555-1.564,7.651-11.35,4.701-21.856
		c-2.951-10.51-9.85-17.765-15.404-16.205C203.595,193.351,201.492,203.137,204.445,213.645z"/>
	<path fill="#371217" d="M144.457,235.25c21.129-4.591,8.683-37.567-10.69-32.855C116.606,206.574,125.161,239.446,144.457,235.25z"
		/>
	<path fill="#371217" d="M217.416,224.243c13.979-0.74,9.462-30.536-5.007-30.257C199.899,194.229,201.667,225.078,217.416,224.243z
		"/>
	<path fill="#5B0D20" d="M216.835,222.201c-11.591,0.305-16.934-25.929-4.797-26.907
		C226.098,194.16,229.234,221.875,216.835,222.201z"/>
	<path d="M208.85,191.271c10.277-2.89,19.877,17.497,18.037,30.1c6.772,1.615,13.161,13.865,9.089,23.639
		c1.604-8.626-1.833-19.698-9.194-22.909c-0.784,4.226-2.944,7.463-6.923,8.442C205.478,234.075,195.547,195.013,208.85,191.271z
		 M219.851,229.251c13.892-3.413,1.776-39.729-10.557-36.263C197.578,196.282,207.187,232.362,219.851,229.251z"/>
	<path d="M215.134,215.13c-7.942-1.368-7.583-19.504,0.891-17.592C224.333,199.411,223.678,216.601,215.134,215.13z"/>
	
		<ellipse transform="matrix(-0.0064 -1 1 -0.0064 11.8808 412.4711)" fill="#FFFFFF" cx="210.861" cy="200.333" rx="2.634" ry="2.685"/>
	<path d="M219.638,197.435c5.734-0.324,10.026-1.211,16.318-3.832c-4.301-0.008-7.455,0.047-8.325-1.379
		c3.475-0.989,7.326-3.381,8.567-5.216c-4.259,1.317-8.513,2.42-11.742,1.796c-3.022-1.808,3.155-5.072,1.659-9.183
		c-1.835,4.025-7.161,6.426-9.417,6.367c0.198-2.364,0.216-4.98-2.047-6.293c0.229,2.185-1.049,7.448-5.674,8.639
		c-3.435,0.88-7.984,6.645-5.377,11.213C204.566,193.45,210.108,186.606,219.638,197.435z"/>
	<path d="M220.053,173.067c-0.084-12.611-19.984-31.685-21.749,5.017C190.015,138.293,225.364,152.109,220.053,173.067z"/>
	<path fill="#0A1431" d="M219.217,283.71c-22.79,5.079-32.917-24.048-12.145-30.333C247.168,241.253,238.308,279.456,219.217,283.71
		z"/>
	<path fill="#5B0D20" d="M143.474,234.546c-15.861,2.257-26.138-27.831-8.391-31.603C152.605,199.22,161.952,231.92,143.474,234.546
		z"/>
	<path d="M144.057,243.888c-34.065,6.726-29.462-36.795-10.826-44.309C150.5,192.618,176.834,237.412,144.057,243.888z
		 M146.888,242.154c26.216-7.621,2.375-47.122-12.717-41.926C114.696,206.937,111.186,252.534,146.888,242.154z"/>
	<path d="M144.617,224.881c-12.006,2.596-19.471-16.915-6.578-19.588C150.295,202.754,154.224,222.801,144.617,224.881z"/>
	
		<ellipse transform="matrix(-0.114 -0.9935 0.9935 -0.114 -59.7414 366.9753)" fill="#FFFFFF" cx="133.764" cy="210.126" rx="2.634" ry="2.687"/>
	<path d="M150.594,174.899c-32.739-22.492-46.642,17.191-46.824,28.174C99.496,168.365,130.19,149.257,150.594,174.899z"/>
	<path d="M221.48,288.367c-30.539,28.033-68.968,9.946-85.258-3.764c18.755,12.562,54.132,26.67,84.109,1.299
		c43.793,4.488,35.273-39.543,2.078-44.682C250.796,239.696,273.149,291.088,221.48,288.367z"/>
	<path d="M241.216,284.078c-2.604,22.802-17.066,28.671-28.395,33.122c-1.745,0.684-3.64,1.17-5.613,1.507
		c-3.275,7.837,1.525,31.452,10.125,36.493c-10.582-3.342-13.714-29.233-12.372-36.179c-11.622,1.229-28.441-0.102-40.529-7.368
		c13.22,5.836,37.969,7.857,47.765,3.892c13.399-5.42,25.222-14.007,27.246-31.555"/>
	<path d="M143.552,200.882c2.563-0.294,7.295-4.302,4.836-14.405c-0.939,3.137-3.134,6.635-4.603,7.021
		c0.321-2.85,0.438-9.355-2.271-10.342c0.343,2.99-1.094,8.391-2.626,9.173c-0.508-2.538-0.883-7.689-2.524-8.797
		c0.369,3.203,0.342,8.615-1.746,9.288c-0.959-2.702-0.57-6.857-2.854-7.893c0.104,2.8-0.914,10.865-3.858,12.56
		c-4.465,2.569-11.448,14.299-8.422,23.689C119.783,212.484,128.793,193.923,143.552,200.882z"/>
	<path fill="#243770" d="M203.426,266.114c0.434,1.605,6.357,1.398,13.236-0.462c6.879-1.861,12.103-4.667,11.666-6.271
		c-0.436-1.605-6.357-1.399-13.234,0.463C208.214,261.703,202.991,264.512,203.426,266.114z"/>
	<path d="M60.573,151.055c7.347-16.425,33.403-37.186,54.898-39.486c37.341-4,75.785,1.674,88.505,16.948
		c25.035,30.062,16.403,52.357,16.624,59.257c0,0-8.562,7.492-3.901-1.787c5.119-10.184,5.92-33.357-14.365-56.706
		c-12.786-14.717-40.777-18.394-83.82-16.335c-23.649,1.13-51.458,28.911-55.417,38.355c1.178-0.052,2.283,0.021,3.3,0.236
		c-18.367,2.111-59.669,41.914-60.041,68.788c-0.374,26.876,33.62,89.186,47.912,89.274c8.642,0.052,30.331-14.733,33.69-30.705
		c3.359-15.962-13.602-107.063-0.97-106.353c-10.521,17.657,10.279,95.287,4.683,108.524c-4.424,10.46-18.02,31.502-38.293,32.099
		c-15.012,0.444-45.646-54.478-51.211-95.385C11.486,184.624,44.013,157.573,60.573,151.055z"/>
	<path fill="#5B0D20" d="M180.387,277.084c2.614,0,4.728,2.113,4.728,4.729c0,2.61-2.114,4.729-4.728,4.729
		c-2.612,0-4.729-2.118-4.729-4.729C175.658,279.197,177.775,277.084,180.387,277.084z"/>
</g>
<g id="Calque_6_-_copie">
	<path fill="#AA2484" d="M103.113,117.298c5.846,4.695,13.423,6.062,16.299,2.505c1.643-2.03-0.084-7.837-5.936-12.531
		c-5.848-4.694-12.159-4.838-15.312-1.529C95.008,109.054,97.264,112.607,103.113,117.298z"/>
	<path d="M118.392,119.931c2.619-2.822,0.175-8.291-6.211-12.833c-5.985-4.252-14.258-2.729-16.065,1.267
		c-0.882,1.958-0.44,4.443,0.989,6.905c-1.824-2.864-2.431-5.833-1.331-8.158c2.085-4.406,10.322-5.892,16.837-1.274
		c6.877,4.871,9.991,11.219,6.275,15.344c-1.846,2.053-3.348,3.297-6.884,3.178C114.69,124.253,116.897,121.539,118.392,119.931z"/>
	<path fill="#BC884E" d="M118.506,120.075c-2.252-6.184-13.981-16.722-20.985-14.641c-6.427,5.28-22.609,19.232-23.026,25.466
		c9.458-1.23,21.745,10.383,22.21,16.95C103.153,145.924,120.225,124.803,118.506,120.075z"/>
	<path d="M96.935,147.407c8.408-5.537,18.881-19.07,21.096-26.736c-3.201-9.552-14.414-15.788-20.658-14.343
		c-6.713,4.01-20.77,16.811-22.418,23.688C86.395,130.27,97.562,141.992,96.935,147.407z M97.057,105.205
		c9.984-2.393,19.598,7.502,22.047,15.345c-0.198,4.461-12.282,23.965-22.187,28.116c-1.969-10.619-15.295-19.087-23.654-17.122
		C77.784,117.775,97.057,105.205,97.057,105.205z"/>
	<path fill="#AA2484" d="M67.668,139.167c0.293-1,0.859-1.799,1.623-2.413l-0.438-0.364c0,0,3.922-3.94,4.084-4.139
		c2.252-2.744,9.124-1.177,15.353,3.505c5.759,4.323,8.931,9.793,7.596,12.764v0.001l-0.001,0.005
		c-0.112,0.238-4.764,6.497-4.764,6.497l-0.399-0.333c-2.56,2.28-7.768,2.098-13.141-0.817
		C70.822,150.208,66.389,143.618,67.668,139.167z"/>
	<path d="M67.798,137.396c0.114-0.168,4.628-5.186,4.791-5.387c2.25-2.746,9.629-1.112,15.858,3.567
		c5.755,4.326,9.816,10.252,8.477,13.222l-4.952,5.489v-0.008c-3.012,3.857-10.533,3.464-17.101-0.991
		C68.128,148.716,64.957,141.597,67.798,137.396z M87.646,136.384c-5.947-4.449-12.58-5.827-14.848-3.071
		c-0.053,0.063-0.669,0.75-1.418,1.564c3.693-1.133,8.981-0.049,13.763,3.196c5.646,3.829,8.767,9.429,7.98,13.622l2.526-2.855
		C97.034,145.894,93.155,140.498,87.646,136.384z M76.376,153.072c6.525,3.924,13.439,3.912,15.452-0.021
		c2.005-3.933-1.65-10.303-8.176-14.219c-6.521-3.921-13.441-3.912-15.449,0.019C66.193,142.786,69.853,149.154,76.376,153.072z"/>
	<path d="M76.874,150.014c-4.67-3.233-6.959-7.815-5.104-10.23c1.858-2.412,7.15-1.746,11.825,1.491
		c4.676,3.232,6.96,7.819,5.105,10.231C86.844,153.921,81.552,153.251,76.874,150.014z"/>
</g>
<g id="Calque_5_-_copie">
	<path fill="#AA2484" d="M134.699,107.161c0.805-0.547,1.668-0.758,2.545-0.701l-0.066-0.564c0,0,5.006-0.287,5.236-0.323
		c3.169-0.522,6.757,5.237,8.018,12.865c1.161,7.055-0.085,13.228-2.787,14.528v0.002l-0.004,0c-0.22,0.104-7.126,1.615-7.126,1.615
		l-0.062-0.51c-3.093-0.029-6.431-3.651-8.202-9.406C130.025,117.436,131.124,109.595,134.699,107.161z"/>
	<path d="M135.866,105.936c0.178-0.049,6.239-0.739,6.468-0.775c3.172-0.523,7.054,5.625,8.311,13.252
		c1.163,7.055,0.225,14.157-2.479,15.457l-6.64,0.746l0.007-0.007c-4.354,0.835-9.092-4.489-10.709-12.182
		C129.158,114.528,131.417,107.144,135.866,105.936z M149.624,118.476c-1.216-7.274-4.764-12.729-7.946-12.213
		c-0.082,0.013-0.904,0.107-1.9,0.211c3.136,1.629,5.973,5.972,7.154,11.577c1.394,6.61,0.032,12.844-3.052,15.415l3.418-0.417
		C150.016,131.794,150.751,125.204,149.624,118.476z M131.948,123.276c1.921,7.269,6.503,11.891,10.241,10.326
		c3.735-1.564,5.213-8.723,3.292-15.992c-1.918-7.266-6.502-11.891-10.24-10.326C131.506,108.851,130.03,116.01,131.948,123.276z"/>
	<path d="M144.054,119.367c0.885,5.512-0.594,10.556-3.299,11.257c-2.705,0.701-5.609-3.196-6.489-8.711
		c-0.882-5.513,0.598-10.56,3.302-11.261C140.272,109.948,143.174,113.851,144.054,119.367z"/>
	<path fill="#AA2484" d="M169.312,115.617c1.123,7.292,5.621,12.653,10.04,11.98c4.421-0.675,7.096-7.132,5.97-14.425
		c-1.127-7.29-5.624-12.653-10.044-11.977C170.859,101.866,168.187,108.327,169.312,115.617z"/>
	<path d="M180.925,126.262c3.901-2,5.725-8.729,3.581-15.273c-2.143-6.544-7.756-10.415-11.665-8.417
		c-1.908,0.979-3.222,3.146-3.818,5.868c0.572-3.267,2.087-5.896,4.401-7.031c4.369-2.146,9.88,1.851,12.301,8.936
		c2.425,7.083,0.846,14.567-3.524,16.714c-2.478,1.219-5.321,0.459-7.758-1.715C176.431,126.845,178.962,127.265,180.925,126.262z"
		/>
	<path fill="#BC884E" d="M180.825,125.405c2.18-6.165-0.614-21.548-6.444-24.445c-7.338-0.082-26.201,0.211-30.16,4.706
		c6.936,5.118,8.14,21.858,4.566,27.173C154.157,135.499,179.163,130.116,180.825,125.405z"/>
	<path d="M149.201,132.646c8.789,1.155,24.177-1.769,30.154-6.207c3.543-9.351-0.648-21.996-5.597-24.892
		c-6.781-1.239-23.57-0.465-28.715,3.731C152.399,112.804,152.811,128.914,149.201,132.646z M174.209,100.487
		c7.971,4.566,9.414,19.115,6.39,26.675c-3.08,4.647-23.709,8.422-32.159,6.438c4.983-9.374,1.239-24.378-5.405-28.232
		C154.133,97.746,174.209,100.487,174.209,100.487z"/>
</g>
<g id="Calque_12">
	<path fill="#EFDAE6" d="M12.03,329.589C29.477,390.132,85.288,434.42,151.446,434.42c71.184,0,130.386-51.27,142.713-118.895
		c-18.325-15.607-49.776,2.459-48.229,24.159c-22.688-31.37-76.998,0.25-58.082,31.371c-19.981-16.292-42.338,2.955-43.334,17.692
		c-6.571-15.114-28.601-15.506-39.835-3.699c-3.254-5.253-10.995-20.751-36.515-4.936C75.525,355.193,43.281,321.387,12.03,329.589z
		"/>
	<path d="M34.503,342.913c-2.875,0.078-5.144,2.469-5.068,5.342c0.076,2.877,2.469,5.144,5.345,5.071
		c2.875-0.077,5.143-2.469,5.068-5.348C39.771,345.107,37.378,342.837,34.503,342.913z M34.74,351.838
		c-2.055,0.057-3.762-1.563-3.817-3.621c-0.054-2.051,1.566-3.762,3.621-3.814c2.055-0.056,3.763,1.564,3.817,3.617
		C38.414,350.074,36.793,351.784,34.74,351.838z"/>
	<path d="M244.938,336.836c-23.56-28.894-75.263,1.982-59.688,31.103c-20.413-10.146-36.782,4.236-40.591,17.689
		c-6.852-9.238-29.668-14.694-40.161-0.517c-0.308-1.526-8.107-22.113-34.743-7.276c3.075-18.311-16.267-54.018-58.377-50.598
		c0.302,1.121,0.618,2.23,0.945,3.338c24.796-3.783,63.482,22.011,51.62,56.943c18.809-28.24,58.238-3.189,26.743,18.138
		c13.392,0.742,17.856,11.408,11.662,20.237c0.478,0.177,0.959,0.342,1.441,0.511c9.218-12.316-1.684-20.827-7.793-22.202
		c5.94-4.328,9.004-10.361,8.806-16.37c6.219-12.679,45.652-16.398,42.946,20.332c3.573-7.478,0.215-17.09-2.254-20.743
		c13.142-32.605,50.587-22.687,51.209,7.314c12.524-21.816,36.826-6.935,35.214,6.827c3.842-10.29,14.755-14.26,20.147-7.715
		c0.349-0.335,0.696-0.676,1.041-1.017c-2.961-5.775-15.858-6.52-20.32,4.393c1.488-13.394-26.533-24.054-34.907-6.51
		c-0.712-9.627-3.836-16.14-10.729-20.894c-15.248-35.835,42.409-57.039,58.778-28.89c7.936-39.432,42.657-30.631,47.707-22.679
		c0.178-0.87,0.863-2.361,1.025-3.237C290.323,307.448,252.752,299.14,244.938,336.836z"/>
	<path d="M264.328,325.211c-2.381-0.641-4.829,0.771-5.469,3.151c-0.642,2.378,0.764,4.824,3.143,5.468
		c2.382,0.64,4.829-0.769,5.474-3.149C268.117,328.303,266.706,325.852,264.328,325.211z M266.4,330.393
		c-0.484,1.782-2.321,2.836-4.104,2.361c-1.783-0.485-2.841-2.318-2.365-4.102c0.481-1.787,2.321-2.844,4.104-2.363
		C265.817,326.768,266.876,328.607,266.4,330.393z"/>
	<path d="M184.63,395.737c-6.16,0.163-11.022,5.291-10.858,11.451c0.161,6.161,5.287,11.024,11.449,10.858
		c6.16-0.161,11.022-5.286,10.858-11.448C195.919,400.438,190.79,395.574,184.63,395.737z M185.181,416.563
		c-5.338,0.141-9.782-4.075-9.927-9.413c-0.138-5.337,4.072-9.78,9.417-9.925c5.335-0.141,9.78,4.071,9.925,9.414
		C194.732,411.979,190.522,416.42,185.181,416.563z"/>
	<path d="M230.411,340.934c-8.215,0.214-14.698,7.051-14.485,15.266c0.221,8.214,7.058,14.699,15.274,14.482
		c8.215-0.218,14.695-7.054,14.476-15.269C245.461,347.198,238.626,340.714,230.411,340.934z M231.158,369.19
		c-7.393,0.2-13.546-5.633-13.74-13.033c-0.197-7.389,5.635-13.543,13.035-13.738c7.393-0.197,13.541,5.64,13.738,13.03
		C244.386,362.847,238.554,369,231.158,369.19z"/>
	<path d="M184.689,399.331c-2.328,0.062-4.162,1.996-4.1,4.323c0.057,2.329,2,4.164,4.322,4.102
		c2.325-0.061,4.166-1.997,4.104-4.323C188.952,401.104,187.017,399.27,184.689,399.331z M184.886,406.893
		c-1.845,0.051-3.385-1.412-3.433-3.261c-0.051-1.847,1.414-3.387,3.263-3.436c1.84-0.047,3.385,1.407,3.433,3.26
		C188.196,405.307,186.737,406.841,184.886,406.893z"/>
	<path d="M233.919,346.138c-2.334,0.06-4.165,2-4.104,4.324c0.06,2.324,1.999,4.164,4.325,4.102
		c2.328-0.063,4.166-1.997,4.103-4.323C238.181,347.912,236.248,346.076,233.919,346.138z M234.116,353.697
		c-1.852,0.049-3.387-1.407-3.436-3.258c-0.051-1.846,1.408-3.387,3.261-3.437c1.849-0.05,3.389,1.412,3.434,3.262
		C237.422,352.111,235.97,353.651,234.116,353.697z"/>
</g>
</svg>
