<?xml version="1.0" encoding="utf-8"?>
<!DOCTYPE svg PUBLIC "-//W3C//DTD SVG 1.1//EN" "http://www.w3.org/Graphics/SVG/1.1/DTD/svg11.dtd">
<svg version="1.1" id="logo" xmlns="http://www.w3.org/2000/svg" xmlns:xlink="http://www.w3.org/1999/xlink" x="0px" y="0px"
	 width="350px" height="350px" viewBox="0 0 350 350" enable-background="new 0 0 350 350" xml:space="preserve">
<path fill="#272B33" d="M297.246,220.969c0,69.42-56.641,125.695-126.516,125.695c-69.873,0-126.515-56.275-126.515-125.695
	c0-69.426,56.642-125.702,126.515-125.702C240.605,95.267,297.246,151.542,297.246,220.969z"/>
<path fill="#272B33" d="M292.555,220.969c0,66.852-54.537,121.045-121.823,121.045c-67.282,0-121.827-54.195-121.827-121.045
	c0-66.847,54.545-121.042,121.827-121.042C238.018,99.927,292.555,154.122,292.555,220.969z"/>
<g id="Calque_5">
	<path fill="#AA2484" d="M149.565,71.104c0.478-0.454,1.034-0.691,1.63-0.749l-0.107-0.374c0,0,3.327-0.745,3.476-0.794
		c2.069-0.704,5.111,2.766,6.799,7.74c1.557,4.602,1.408,8.877-0.26,10.048l0,0l-0.005,0.001c-0.134,0.095-4.599,1.873-4.599,1.873
		l-0.098-0.336c-2.076,0.323-4.715-1.736-6.538-5.399C147.567,78.511,147.436,73.133,149.565,71.104z"/>
	<path d="M150.213,70.155c0.113-0.053,4.103-1.186,4.252-1.236c2.068-0.701,5.353,2.993,7.039,7.969
		c1.558,4.602,1.717,9.467,0.048,10.637l-4.37,1.235l0.002-0.006c-2.828,1.042-6.592-2.003-8.531-6.981
		C146.665,76.66,147.365,71.458,150.213,70.155z M160.826,77.043c-1.622-4.742-4.601-8.01-6.681-7.311
		c-0.05,0.017-0.593,0.17-1.248,0.351c2.28,0.746,4.666,3.344,6.074,6.972c1.668,4.278,1.444,8.608-0.34,10.675l2.247-0.657
		C162.563,85.928,162.324,81.43,160.826,77.043z M149.501,82.216c2.091,4.663,5.677,7.253,8.01,5.791
		c2.331-1.464,2.53-6.426,0.438-11.086c-2.09-4.66-5.672-7.256-8.008-5.792C147.612,72.592,147.414,77.556,149.501,82.216z"/>
	<path d="M157.189,78.255c1.202,3.598,0.77,7.143-0.966,7.913c-1.737,0.769-4.117-1.524-5.316-5.125
		c-1.204-3.6-0.768-7.145,0.966-7.916C153.613,72.356,155.99,74.654,157.189,78.255z"/>
	<path fill="#AA2484" d="M173.71,72.947c1.559,4.765,5.17,7.862,8.056,6.921c2.89-0.941,3.97-5.566,2.405-10.333
		c-1.561-4.762-5.166-7.862-8.055-6.919C173.226,63.557,172.148,68.184,173.71,72.947z"/>
	<path d="M182.674,78.801c2.396-1.773,2.875-6.484,0.717-10.637c-2.163-4.151-6.357-6.125-8.753-4.355
		c-1.177,0.869-1.819,2.465-1.916,4.356c0.025-2.255,0.751-4.184,2.176-5.202c2.693-1.923,6.828,0.149,9.234,4.631
		c2.411,4.481,2.182,9.675-0.512,11.598c-1.529,1.092-3.516,0.896-5.396-0.292C179.723,79.688,181.472,79.689,182.674,78.801z"/>
	<path fill="#6D809B" d="M182.512,78.238c0.778-4.375-2.796-14.382-7.023-15.68c-4.931,0.758-17.548,3.042-19.702,6.491
		c5.215,2.665,7.876,13.755,6.066,17.715C165.748,87.954,181.921,81.582,182.512,78.238z"/>
	<path d="M162.107,86.59c6.02-0.198,16.013-3.86,19.536-7.497c1.34-6.661-2.872-14.677-6.506-16.068
		c-4.682-0.082-15.856,2.294-18.842,5.677C162.061,72.931,164.114,83.687,162.107,86.59z M175.321,62.26
		c5.849,2.181,8.426,11.777,7.232,17.182c-1.549,3.454-14.964,8.27-20.849,7.871c2.308-6.834-1.865-16.482-6.746-18.332
		C161.555,62.643,175.321,62.26,175.321,62.26z"/>
</g>
<path fill="#6D809B" d="M118.809,218.811c-13.231,4.967-30.01,28.598-33.402,43.107c11.681,8.816,18.895,22.988,15.387,34.789
	c21.43-13.195,27.929-0.27,30.662,4.111c9.434-9.848,27.938-9.52,33.454,3.088c0.836-12.299,19.613-28.352,36.392-14.766
	c-15.155-24.77,25.634-49.879,45.972-29.418c-0.836-12.197-5.367-24.873-6.529-27.631c-1.371-3.225,8.125-4.023,5.637-9.465
	c-2.213-4.836-3.588-22.574-3.879-26.635c5.764-2.82,9.451-5.992,11.643-8.059c4.52-4.275,8.834-13.792,7.691-23.597
	c2.217-2.4,3.207-5.225,2.018-9.87c-2.328-9.114-8.617-10.848-10.809-11.289c-0.701-2.537-1.969-4.888-3.799-6.375
	c-0.355-0.29-0.701-0.506-1.051-0.69c-1.021-1.376-2.41-2.426-4.039-3.171c0.984-4.807-4.805-10.69-9.451-10.464
	c-0.674-3.378-0.816-6.427-0.697-10.158c0.111-3.593-4.678-29.258-36.35-34.084c-2.879-2.372-35.55-0.298-34.749,2.188
	c-24.26,6.199-29.907,20.078-50.741,21.078c-17.259-8.4-65.642-30.832-83.5-16.558C34.35,139.671,76.01,185.131,118.809,218.811z"/>
<path display="none" opacity="0.4" fill="#231F20" enable-background="new    " d="M198.314,77.855
	c5.219,1.148-20.05-14.904-30.177-12.168c-10.125,2.734-4.151,14.12-4.151,14.12S186.229,75.196,198.314,77.855z"/>
<path d="M237.732,131.518c-1.869-2.542-3.619-6.003-3.771-9.7c4.852-1.173,11.732,5.489,10.316,10.667
	C242.574,131.842,240.424,131.461,237.732,131.518z"/>
<path fill="#E3A4C1" d="M251.098,152.48c-2.012,1.278-16.193,2.246-20.455-7.53c-4.227-9.703,7.891-6.977,11.168-8.755
	c3.088-1.671,7.457-3.413,9.863,0.208C255.424,142.056,256.443,149.087,251.098,152.48z"/>
<path d="M194.16,143.107c-1.748-2.167-6.271-7.531-13.992-5.353c-9.771,2.744-12.54,14.192-10.644,17.091
	c1.896,2.896,10.058,7.533,19.239,2.462C197.956,152.235,195.896,145.273,194.16,143.107z"/>
<path d="M241.721,135.25c2.465-0.809,6.033-2.494,9.244,0.111c6.354,5.167,7.266,15.543,0.785,18.753
	c-3.211,1.588-17.41,2.627-22.449-8.43C224.553,135.273,236.479,136.989,241.721,135.25z M231.916,145.702
	c5.119,8.236,14.68,7.619,19.09,6.573c4.047-0.964,4.982-10.754-0.041-14.46c-3.049-2.247-6.133-0.179-8.465,0.526
	C237.51,139.836,226.742,137.375,231.916,145.702z"/>
<path d="M251.674,164.767c7.326,2.493,12.498-4.309,11.045-9.893c-1.51-5.781-3.318-9.085-8.125-10.355
	c-0.637-0.169-0.336-2.131-0.336-2.131c2.191,0.436,7.439,2.169,9.771,11.293c2.332,9.125-3.715,15.316-11.08,13.101
	c-7.51,14.598-35.611,27.747-53.758,22.313C211.656,192.025,241.396,182.469,251.674,164.767z"/>
<path fill="#FFFFFF" d="M192.958,147.309c-0.943-1.125-2.74-1.589-3.191-2.133c-0.24-1.09,0.221-2.472-1.034-3.661
	C191.03,141.836,193.214,143.853,192.958,147.309z"/>
<path d="M248.836,136.009c-4.959-8.115-21.219-6.229-29.455,0.578c8.021-3.331,22.377-7.386,26.172-1.372
	C246.787,135.791,248.836,136.009,248.836,136.009z"/>
<path fill="#FFFFFF" d="M242.219,131.461c-0.129-2.617-2.176-4.812-4.543-6.239c1.178-0.599,3.34,0.703,4.213,1.921
	c0.67,0.941,1.623,3.124,0.709,4.434C242.475,131.538,242.344,131.501,242.219,131.461z"/>
<path d="M234.182,111.536c-0.182-9.161-13.307-37.036-51.391-34.77c-45.268,2.179-41.332,21.08-68.01,24.551
	c27.186,1.452,23.836-20.236,67.572-21.756c40.01-1.394,49.066,24.767,48.799,31.755c-0.432,11.62,4.559,17.812,6.855,20.527
	C234.619,123.047,233.961,118.483,234.182,111.536z"/>
<path display="none" d="M198.314,77.855c0,0-17.367-15.021-30.177-12.168c-10.715,2.388-5.898,14.554-5.898,14.554l1.747-0.435
	c0,0-5.245-11.948,5.248-13.036c12.444-1.283,26.902,11.083,26.902,11.083L198.314,77.855L198.314,77.855z"/>
<path d="M261.955,164.11c1.311,9.995-1.754,19.116-6.34,23.466c-4.596,4.338-16.619,12.924-37.943,14.881
	c13.887-3.367,23.84-4.998,34.002-14.447c9.031-8.396,8.969-19.119,7.875-21.726C260.422,165.634,261.955,164.11,261.955,164.11z"/>
<path d="M113.686,214.953C71.7,183.664,34.527,138.908,28.839,84.158c20.116-16.081,81.194,14.885,89.22,19.551
	c-16.306-4.794-78.39-31.428-85.283-16.509C34.092,98.494,41.086,152.811,113.686,214.953z"/>
<path d="M83.54,260.801c6.135-16.107,20.153-37.656,34.829-42.229c-15.551,9.146-28.257,31.127-32.634,43.967
	C85.147,262.156,84.144,261.143,83.54,260.801z"/>
<path opacity="0.4" fill="#231F20" enable-background="new    " d="M242.146,195.994c0,0-17.373,9.199-44.885,6.395
	c28.918,11.918,45.234,2.719,45.234,2.719L242.146,195.994z"/>
<path fill="#EFDAE6" d="M53.656,254.545c14.65,50.514,61.516,87.469,117.075,87.469c59.777,0,109.498-42.779,119.848-99.201
	c-15.391-13.023-41.803,2.047-40.5,20.156c-19.061-26.17-64.664,0.207-48.778,26.172c-16.778-13.588-35.555,2.465-36.392,14.764
	c-5.515-12.607-24.02-12.938-33.454-3.086c-2.732-4.381-9.231-17.307-30.662-4.111C106.976,275.906,79.896,247.703,53.656,254.545z"
	/>
<path d="M247.705,260.164c-0.426-12.025-4.791-24.57-5.986-27.391c-1.363-3.225,8.459-4.455,5.969-9.893
	c-2.488-5.439-3.977-28.193-3.977-28.193l-3.053,1.547c0,0,2.049,24.67,4.045,27.633c1.992,2.973-7.033,1.979-6.533,8.906
	c2.887,5.035,5.328,14.904,5.994,24.238C245.404,257.916,246.582,258.979,247.705,260.164z"/>
<path d="M72.528,265.662c-2.416,0.061-4.32,2.061-4.256,4.459c0.061,2.398,2.071,4.295,4.483,4.23
	c2.421-0.064,4.32-2.061,4.256-4.461C76.953,267.494,74.942,265.602,72.528,265.662z M72.723,273.107
	c-1.723,0.045-3.159-1.303-3.204-3.018c-0.044-1.713,1.312-3.141,3.042-3.188c1.723-0.045,3.157,1.309,3.204,3.025
	C75.81,271.643,74.453,273.064,72.723,273.107z"/>
<path d="M249.24,260.596c-19.781-24.105-63.201,1.652-50.118,25.945c-17.144-8.467-30.887,3.535-34.091,14.758
	c-5.756-7.707-24.911-12.258-33.722-0.432c-0.257-1.27-6.811-18.449-29.177-6.07c2.585-15.273-13.661-45.07-49.025-42.217
	c0.254,0.934,0.519,1.865,0.794,2.789c20.83-3.158,53.311,18.363,43.35,47.506c15.791-23.561,48.905-2.66,22.458,15.135
	c11.244,0.621,14.994,9.518,9.793,16.885c0.405,0.141,0.805,0.283,1.207,0.426c7.743-10.281-1.416-17.379-6.54-18.527
	c4.984-3.611,7.563-8.643,7.396-13.654c5.22-10.576,38.336-13.682,36.063,16.965c3-6.242,0.178-14.262-1.898-17.307
	c11.04-27.205,42.482-18.93,43.01,6.098c10.512-18.197,30.92-5.779,29.566,5.699c3.225-8.588,12.393-11.893,16.914-6.436
	c0.299-0.277,0.584-0.566,0.877-0.842c-2.482-4.82-13.318-5.447-17.061,3.66c1.25-11.174-22.285-20.068-29.316-5.434
	c-0.59-8.025-3.217-13.463-9.002-17.426c-12.811-29.902,35.613-47.594,49.355-24.107c6.662-32.9,35.82-25.559,40.061-18.926
	c0.15-0.723,0.725-1.963,0.859-2.699C287.355,236.074,255.799,229.145,249.24,260.596z"/>
<path d="M265.523,250.889c-2.004-0.533-4.055,0.645-4.598,2.631c-0.535,1.984,0.648,4.027,2.646,4.563
	c2.004,0.535,4.055-0.641,4.594-2.625C268.703,253.471,267.523,251.43,265.523,250.889z M267.264,255.215
	c-0.402,1.488-1.949,2.367-3.445,1.967c-1.494-0.398-2.385-1.932-1.98-3.418c0.398-1.492,1.941-2.375,3.443-1.975
	C266.775,252.193,267.664,253.725,267.264,255.215z"/>
<path d="M190.909,303.803c-5.354,0.143-9.578,4.566-9.437,9.889c0.143,5.32,4.602,9.516,9.953,9.375
	c5.354-0.139,9.582-4.568,9.438-9.883C200.715,307.863,196.27,303.66,190.909,303.803z M191.391,321.785
	c-4.643,0.123-8.501-3.52-8.625-8.133c-0.125-4.609,3.537-8.438,8.178-8.566c4.645-0.121,8.511,3.518,8.626,8.135
	C199.694,317.828,196.029,321.666,191.391,321.785z"/>
<path d="M237.043,264.01c-6.895,0.18-12.342,5.885-12.156,12.736c0.178,6.857,5.914,12.264,12.811,12.084
	c6.904-0.178,12.352-5.883,12.168-12.734C249.682,269.238,243.939,263.824,237.043,264.01z M237.668,287.588
	c-6.203,0.162-11.373-4.701-11.537-10.873c-0.166-6.164,4.734-11.305,10.939-11.465c6.211-0.162,11.371,4.707,11.545,10.873
	C248.777,282.293,243.877,287.426,237.668,287.588z"/>
<path d="M190.964,306.904c-2.026,0.055-3.621,1.729-3.566,3.734c0.052,2.014,1.736,3.594,3.76,3.545
	c2.021-0.051,3.618-1.723,3.563-3.736C194.671,308.439,192.986,306.855,190.964,306.904z M191.131,313.436
	c-1.603,0.039-2.938-1.217-2.982-2.818c-0.04-1.59,1.236-2.92,2.836-2.963c1.604-0.041,2.939,1.219,2.984,2.814
	C194.014,312.063,192.739,313.389,191.131,313.436z"/>
<path d="M239.988,268.352c-1.957,0.051-3.498,1.674-3.443,3.609c0.045,1.939,1.67,3.475,3.627,3.424
	c1.955-0.053,3.498-1.666,3.445-3.607C243.568,269.836,241.939,268.303,239.988,268.352z M240.15,274.664
	c-1.549,0.039-2.84-1.182-2.881-2.723c-0.043-1.539,1.18-2.822,2.734-2.863c1.553-0.045,2.844,1.174,2.889,2.713
	C242.93,273.336,241.703,274.619,240.15,274.664z"/>
<path fill="#EFDAE6" d="M309.059,89.943c0,13.085-10.676,23.693-23.848,23.693c-13.164,0-23.844-10.606-23.844-23.693
	c0-13.085,10.68-23.687,23.844-23.687C298.385,66.256,309.059,76.859,309.059,89.943z"/>
<path d="M285.213,63.5c-14.699,0-26.617,11.837-26.617,26.443c0,14.608,11.918,26.448,26.617,26.448
	c14.701,0,26.619-11.839,26.619-26.448C311.828,75.337,299.914,63.5,285.213,63.5z M285.213,113.636
	c-13.164,0-23.844-10.606-23.844-23.693c0-13.085,10.68-23.687,23.844-23.687c13.172,0,23.848,10.602,23.848,23.687
	C309.059,103.029,298.385,113.636,285.213,113.636z"/>
<path d="M297.521,77.771c0.098-3.31-4.701-6.713-7.932-6.908c0,0-1.275,0.68-1.863,1.166
	C293.016,72.906,295.66,75.144,297.521,77.771z"/>
<path d="M299.084,96.644c2.207-1.779,3.236-7.783,2.643-10.801c0,0-0.961,1.094-2.143,1.173
	C300.459,89.253,300.459,92.27,299.084,96.644z"/>
<g id="bigoudis_x5F_centre01">
	<path d="M180.611,86.091c1.722,0.071,6.389,0.07,8.389-1.263c0,0-0.229-0.287-0.354-0.224c-3.063,1.188-7.938,1.125-7.938,1.125
		L180.611,86.091z"/>
	<path fill="#AA2484" d="M166.759,67.085c0.555-0.526,1.198-0.801,1.886-0.868l-0.124-0.429c0,0,3.848-0.861,4.021-0.917
		c2.393-0.81,5.909,3.202,7.859,8.959c1.8,5.326,1.619,10.274-0.311,11.626l-0.001,0.001l-0.003,0.001
		c-0.157,0.108-5.321,2.161-5.321,2.161l-0.114-0.388c-2.404,0.371-5.455-2.013-7.562-6.252
		C164.442,75.652,164.295,69.429,166.759,67.085z"/>
	<path d="M167.509,65.986c0.131-0.061,4.747-1.368,4.918-1.425c2.395-0.81,6.191,3.465,8.137,9.223
		c1.802,5.324,1.979,10.955,0.048,12.307l-5.058,1.425l0.004-0.006c-3.271,1.203-7.625-2.324-9.86-8.087
		C163.398,73.506,164.21,67.49,167.509,65.986z M179.779,73.963c-1.87-5.489-5.317-9.27-7.72-8.463
		c-0.063,0.02-0.689,0.198-1.448,0.406c2.642,0.864,5.396,3.872,7.025,8.07c1.924,4.951,1.663,9.961-0.403,12.349l2.599-0.759
		C181.779,84.244,181.512,79.039,179.779,73.963z M166.678,79.938c2.417,5.395,6.559,8.397,9.26,6.707
		c2.698-1.689,2.934-7.431,0.516-12.827c-2.413-5.392-6.559-8.396-9.259-6.706C164.497,68.803,164.264,74.546,166.678,79.938z"/>
	<path d="M175.572,75.363c1.39,4.164,0.884,8.266-1.126,9.154c-2.009,0.889-4.758-1.765-6.145-5.932
		c-1.386-4.165-0.88-8.27,1.127-9.157C171.438,68.538,174.187,71.196,175.572,75.363z"/>
	<path fill="#AA2484" d="M194.689,69.236c1.802,5.514,5.974,9.1,9.316,8.016c3.346-1.088,5.597-6.438,3.796-11.953
		c-1.806-5.513-5.126-7.552-8.469-6.465C195.991,59.917,192.89,63.722,194.689,69.236z"/>
	<path d="M204.833,77.333c2.667-2,4-5,2.056-11.624c-1.848-6.295-4.222-7.709-9.222-6.043c-1.356,1.002-1.248,0.198,0.404-0.978
		c4.596-1.855,8.011,1.003,9.681,6.365c1.748,5.612,1.081,11.946-2.419,13.112C203.566,79.429,203.438,78.362,204.833,77.333z"/>
	<path fill="#6D809B" d="M181.25,85.375c1.25-1.5,1-18.125-8.75-20.75c2.75-4.125,19.106-8.089,25.75-7.375
		c8,3.75,2.125,25.25,19.25,25.25c-7.188,8.188-32.505,9.337-32.505,9.337l-1.245-6.212C183.75,85.625,182.5,85.625,181.25,85.375z"
		/>
	<path d="M172.771,64.417c4-4.313,17.125-7.188,23.487-7.032c10.794,2.711,3.005,23.187,20.43,25.365
		c-0.188,0.688-1.125,2-2.688,2.625c1.438,0.813,4.188-3.188,4.188-3.188c-17-0.5-10.938-25.063-21.808-25.288l-0.109-0.015
		c-6.512-0.143-19.746,2.75-23.866,7.192l-0.761,0.82l1.118,0.02C179.75,66.25,185.125,85.25,182.875,93l1.375-0.875
		C184.017,77.956,179.25,65.5,172.771,64.417z"/>
</g>
</svg>
