<?xml version="1.0" encoding="utf-8"?>
<!DOCTYPE svg PUBLIC "-//W3C//DTD SVG 1.1//EN" "http://www.w3.org/Graphics/SVG/1.1/DTD/svg11.dtd">
<svg version="1.1" id="logo" xmlns="http://www.w3.org/2000/svg" xmlns:xlink="http://www.w3.org/1999/xlink" x="0px" y="0px"
	 width="350px" height="350px" viewBox="0 0 350 350" enable-background="new 0 0 350 350" xml:space="preserve">
<path fill="#272B33" d="M307.753,197.109c0,84.438-68.896,152.891-153.874,152.891C68.889,350,0,281.549,0,197.109
	C0,112.68,68.889,44.235,153.879,44.235C238.857,44.235,307.753,112.681,307.753,197.109z"/>
<path fill="#6D809B" d="M274.816,241.34C280,232.75,250.779,218.182,251,209c10.596-10.428,15-17.167,21-29.5
	c10.891-3.514,14.25-9.25,24.9-18.414c12.603-14.252,8.434-27.586,7.1-30.586c9.5-15-5.569-39.551-31.811-41.518
	c-4.043-0.303-0.013-9.549-12.252-12.448c-3.248-7.854-3.486-11.606-10.438-18.02c-12.004-11.071-38.047-14.208-52.897-10.48
	c-37.817,9.496-54.668,25.634-77.168,30.893C93.344,78.341-27.167,48.5,6.5,96.833c10.361,13.831,22.998,30.201,37.985,39.879
	c3.875,2.504,18.15,9.213,20.987,13.576c-3.926,4.687-6.42,14.563-6.431,14.563c-8.277,3.328-15.896,11.024-22.062,20.547
	c-19.812,11.102-29.812,27-29.34,31.082c0.921,7.98,2.653,17.545,3.954,21.263C28.323,285.475,155.757,374.674,274.816,241.34z"/>
<path fill="#272B33" d="M218.703,91.326c4.354,0.992,4.436,3.51-0.367,6.801c-3.503,7.207-21.503,5.04-30.003,6.207
	c6.221-5.004,2.059-13.5,17.334-18.667C210.224,84.127,217.665,88.899,218.703,91.326z"/>
<path fill="#F7F8F9" d="M202.12,88.291c-5.959,2.496-8.151,11.078-9.021,14.172C196,106,228,101.5,216.615,92.638
	C213.716,107.617,188.592,98.598,202.12,88.291z"/>
<path fill="#FFFFFF" d="M212.705,91.423c0.285,1.575-0.739,3.065-2.283,3.335c-1.544,0.271-3.012-0.783-3.289-2.349
	c-0.273-1.574,0.739-3.066,2.283-3.335C210.958,88.805,212.43,89.858,212.705,91.423z"/>
<path fill="#4B5B6D" d="M169.444,57.607c-8.088-8.131-29.671-38.471-38.588-31.723c3.845,15.249,14.028,22.146,13.363,41.374
	L169.444,57.607z"/>
<path fill="#272B33" d="M94,158.5c-5,49,39,88.5,79,82c-41,0.5-82.5-38-72-85C94,156,94,158.5,94,158.5z"/>
<path fill="#272B33" d="M144.119,67.258c-1.349-13.385-7.117-23.543-11.884-36.028c-0.089-0.942-2.347-4.744-1.826-5.483
	c3.508-4.969,12.697,2.4,15.391,4.648c8.948,7.538,17.384,17.7,23.573,27.283c-6.088-5.299-28.627-37.851-38.285-31.488
	C135.75,37.736,147.166,52.742,144.119,67.258z"/>
<path fill="#EFDAE6" d="M11.483,237.955c17.819,61.434,74.821,106.38,142.396,106.38c72.704,0,127.823-48.942,143.899-111.933
	c-18.716-15.83-48.22-2.618-47.396,15.797c-23.178-31.818-78.643,0.249-59.327,31.837c-20.414-16.534-43.245,3.003-44.259,17.955
	c-6.713-15.332-29.222-15.738-40.696-3.761c-3.321-5.324-11.223-21.049-37.286-4.994C76.334,263.939,43.396,229.645,11.483,237.955z
	"/>
<path fill="#272B33" d="M34.438,251.473c-2.942,0.078-5.257,2.514-5.179,5.424c0.074,2.928,2.517,5.23,5.454,5.146
	c2.941-0.08,5.253-2.503,5.176-5.423C39.817,253.71,37.37,251.396,34.438,251.473z M34.672,260.527
	c-2.095,0.06-3.84-1.588-3.895-3.674c-0.056-2.082,1.594-3.813,3.697-3.871c2.096-0.063,3.842,1.596,3.899,3.682
	C38.425,258.75,36.774,260.473,34.672,260.527z"/>
<path fill="#272B33" d="M249.357,245.322c-24.061-29.324-76.867,2.002-60.959,31.549c-20.854-10.303-37.562,4.305-41.457,17.949
	c-7.005-9.368-30.303-14.908-41.015-0.531c-0.313-1.546-8.289-22.428-35.489-7.373c3.142-18.586-16.617-54.825-59.629-51.352
	c0.309,1.132,0.631,2.264,0.968,3.396c25.334-3.854,64.84,22.335,52.722,57.771c19.209-28.651,59.485-3.229,27.317,18.408
	c13.673,0.767,18.235,11.586,11.911,20.537c0.494,0.172,0.983,0.35,1.465,0.514c9.421-12.492-1.716-21.139-7.951-22.525
	c6.063-4.391,9.197-10.512,8.996-16.607c6.346-12.854,46.625-16.646,43.867,20.646c3.641-7.599,0.21-17.354-2.312-21.062
	c13.417-33.094,51.673-23.019,52.313,7.42c12.776-22.14,37.605-7.035,35.951,6.937c3.924-10.448,15.069-14.465,20.572-7.827
	c0.37-0.342,0.723-0.689,1.072-1.031c-3.021-5.851-16.208-6.621-20.764,4.453c1.521-13.587-27.104-24.414-35.644-6.609
	c-0.724-9.75-3.914-16.359-10.953-21.187c-15.58-36.378,41.164-57.86,60.03-29.321c3.109-29.188,41.908-24.143,47.066-16.076
	c0.176-0.879,0.882-2.391,1.033-3.282C294.063,222.436,255.463,217.643,249.357,245.322z"/>
<path fill="#272B33" d="M269.171,233.514c-2.437-0.646-4.935,0.774-5.599,3.192c-0.654,2.414,0.785,4.903,3.215,5.556
	c2.438,0.654,4.938-0.792,5.596-3.203C273.04,236.643,271.596,234.174,269.171,233.514z M271.279,238.764
	c-0.489,1.813-2.373,2.896-4.192,2.396c-1.819-0.479-2.896-2.35-2.407-4.153c0.493-1.813,2.367-2.881,4.19-2.397
	C270.688,235.098,271.771,236.951,271.279,238.764z"/>
<path fill="#272B33" d="M178.407,297.859c-6.504,0.186-11.642,5.563-11.475,12.033c0.183,6.469,5.605,11.566,12.105,11.405
	c6.523-0.182,11.666-5.563,11.48-12.021C190.346,302.804,184.941,297.693,178.407,297.859z M179,319.738
	c-5.649,0.143-10.332-4.284-10.493-9.889c-0.142-5.615,4.306-10.267,9.945-10.433c5.662-0.137,10.358,4.283,10.496,9.896
	C189.102,314.928,184.646,319.587,179,319.738z"/>
<path fill="#272B33" d="M234.52,249.469c-8.381,0.217-15.006,7.152-14.785,15.492c0.231,8.34,7.207,14.911,15.6,14.699
	c8.396-0.225,15.021-7.159,14.798-15.495C249.895,255.832,242.92,249.25,234.52,249.469z M235.291,278.148
	c-7.545,0.188-13.832-5.717-14.045-13.225c-0.195-7.506,5.76-13.762,13.307-13.943c7.559-0.198,13.834,5.726,14.055,13.222
	C248.797,271.701,242.843,277.939,235.291,278.148z"/>
<path fill="#272B33" d="M178.479,301.641c-2.469,0.068-4.396,2.104-4.325,4.541c0.047,2.453,2.112,4.363,4.556,4.313
	c2.459-0.062,4.413-2.101,4.341-4.539C182.984,303.514,180.941,301.578,178.479,301.641z M178.691,309.584
	c-1.955,0.04-3.587-1.484-3.625-3.428c-0.051-1.941,1.504-3.549,3.438-3.604c1.959-0.053,3.571,1.48,3.632,3.421
	C182.193,307.91,180.643,309.53,178.691,309.584z"/>
<path fill="#272B33" d="M238.107,254.741c-2.387,0.065-4.248,2.05-4.194,4.401c0.058,2.354,2.044,4.227,4.423,4.154
	c2.378-0.063,4.256-2.021,4.189-4.383C242.461,256.544,240.489,254.695,238.107,254.741z M238.309,262.427
	c-1.889,0.052-3.461-1.432-3.51-3.31c-0.042-1.877,1.441-3.44,3.321-3.493c1.892-0.039,3.466,1.44,3.524,3.308
	C241.693,260.804,240.202,262.37,238.309,262.427z"/>
<path fill="#272B33" d="M204.293,66.514c-7.305-4.511-18.8-4.332-23.447,4.001c-3.15,5.605-2.457,11.906-2.705,17.66
	C168.747,71.088,191.592,52.303,204.293,66.514z"/>
<path fill="#272B33" d="M70.291,155.163C58.5,138.837,44.667,141.004,34,127.167C23.146,113.087,0,91.67,5,79.504
	c5.925-14.417,42.311-7.906,59.967-5.752c18.093,2.207,39.056,7.72,57.016,3.795C91,77.17,63.089,68.922,34.167,68.504
	c-10.06-0.137-34.356-1.188-33.399,14.682C1.671,97.663,27.054,121.47,32,129.67c4.721,7.827,23.269,13.439,31.347,21.191
	c-3.047,2.952-5.317,8.462-6.688,14.593c-13.159,2.379-17.345,11.192-21.017,20.065c-11.047,2.311-25.475,15.646-27.809,29.313
	c6.333-11.667,18.333-22.334,27-26.667c-0.881,2.782-0.333,5.667,1,8.333c1-11,9.651-25.521,20.729-30.127
	c-1.996,9.394-1.934,19.729,0.715,24.771c1.618-8.918,0.763-19.605,2.584-29.124c12.653,9.458,22.993-4.023,51.758-7.812
	C97.317,152.691,84.43,159.618,70.291,155.163z"/>
<path fill="#272B33" d="M268.254,89.28c4.246-8.28-5.256-11.563-11.504-12.03c-7.07-0.531-15.21,2.067-21.02,5.708
	c-8.926,5.596-14.563,13.708-20.73,20.708c-5,0.167-23.32-0.123-33.23,4.156c-11.274,4.837-18.586,15.301-26.795,23.219
	c7.54-11.439,18.145-24.827,32.53-27.541c8.53-1.756,21.831-1.833,26.831-2.5c7.409-9.44,17.175-18.853,28.504-23.299
	C249.73,74.987,277,74,268.254,89.28z"/>
<path fill="#272B33" d="M186.167,101.5c-6.685,2.077-13.662,3.073-20.561,4.155C171.412,101.854,179.378,100.712,186.167,101.5z"/>
<path fill="#272B33" d="M205.332,53.243c15.837-2.077,32.828,2.931,40.038,17.559c-7.452-6.361-11.481-12.331-21.574-14.796
	C217.757,54.551,211.206,53.571,205.332,53.243z"/>
<path fill="#272B33" d="M191.721,102.104c3.73-12.134,14.156-20.281,27.155-16.811C205.555,87.804,198.477,89.514,191.721,102.104z"
	/>
<path fill="#272B33" d="M185.915,90.865c-0.511-15.802,25.758-24.685,28.181-5.894C207.061,71.099,187.547,75.627,185.915,90.865z"
	/>
<path fill="#272B33" d="M271.869,89.161c11.349,1.328,21.747,5.75,28.496,16.077c3.562,5.458,6.443,12.674,5.022,19.287
	c-0.213,0.991-0.584,1.731-0.928,2.343c-0.622-2.113-1.387-4.263-2.331-6.444c-3.142-7.26-10.684-19.076-20.195-18.111
	c-0.039-0.005-0.076-0.005-0.115-0.009c-2.277-4.291-8.385-10.181-15.088-11.776l-0.463,1.945c5.629,1.339,10.928,6.147,13.28,9.889
	c-7.212,1.371-8.481,14.112-9.212,19.575c-1.585,11.889-0.26,29.003-11.336,36.563c-8.797,6.005-19.323,8.804-30,8.5
	c-22.635-0.743-37-26.5-42.359-45.577c1.154,19.837,20.859,49.577,44.678,48.546c10.791-0.333,21.994-3.586,30.674-10.165
	c9.445-7.259,9-22.664,10.561-33.365c0.692-4.762,1.414-21.547,9.242-21.087c8.038-1.531,15.311,10.455,17.896,16.153
	c5.887,12.975,6.934,32.245-7.018,40.517c-8.684,5.15-15.672,5.479-27.419,3.413c3.711,3.334,6.558,6.023,13.265,7.923
	c-4.768,4.393-10.518,6.143-17.604,7.208c2.338,1.398,5.122,1.873,8.104,1.649C256.25,208,245.834,217.167,207.5,222.25
	c23.667,1.917,33.322,1.359,46-5.25c3.635,5.311,10.298,9.782,15.413,10.549C261.75,222.25,260.25,222.25,254.5,210
	c7.484-6.75,14.75-19.75,17-27.75c11.521-1.732,24.383-13.32,27.271-23.249c6.641-6.659,9.12-16.933,6.562-28.7
	C319.178,111.337,288.926,88.043,271.869,89.161z"/>
<path fill="#272B33" d="M207.25,116.517c-1.508-0.75-6.064,0.047-8.039-0.037c-3.497-0.248-7.244-0.023-10.507,1.373
	c-5.599,2.341-8.306,8.231-9.995,13.683c1.33-0.525,3.297-5.345,4.41-6.791c1.413-2.033,3.857-3.822,6.025-4.608
	C195.047,118.122,202.079,121.099,207.25,116.517z"/>
<path fill="#4B5B6D" d="M270.873,91.818c-6.771,5.014-20.291,8.129-23.131,4.29c-2.547-3.43-0.898-9.447,1.996-12.08
	c3.688-3.351,6.066-1.925,10.066-3.289c2.404-2.381,5.682,0.413,6.965,1.378C271.02,85.281,273.953,89.541,270.873,91.818z"/>
<path fill="#272B33" d="M270.873,91.818c-1.635,1.217-3.434,2.188-5.258,3.099c-0.918,0.448-1.857,0.854-2.811,1.229
	c-0.947,0.39-1.908,0.753-2.894,1.068c-1.961,0.627-3.974,1.177-6.079,1.413c-1.059,0.117-2.135,0.169-3.26,0.038
	c-1.106-0.146-2.332-0.427-3.428-1.386l-0.377-0.398l-0.281-0.388c-0.146-0.2-0.291-0.402-0.45-0.734
	c-0.333-0.618-0.521-1.164-0.673-1.751c-0.299-1.164-0.385-2.353-0.258-3.499c0.244-2.291,1.065-4.468,2.498-6.342
	c0.191-0.229,0.371-0.463,0.584-0.679l0.326-0.319l0.164-0.158l0.041-0.04l0.021-0.02l0.104-0.086l0.075-0.058l1.22-0.917
	c0.524-0.302,1.106-0.612,1.662-0.867c0.567-0.166,1.139-0.41,1.701-0.485c1.146-0.241,2.196-0.221,3.174-0.291
	c0.496-0.027,0.949-0.094,1.43-0.137l1.389-0.272l-0.36,0.224c0.214-0.161,0.415-0.322,0.636-0.468
	c0.244-0.12,0.472-0.263,0.729-0.346c0.51-0.173,1.054-0.264,1.563-0.211c1.032,0.067,1.895,0.491,2.646,0.953
	c0.76,0.467,1.416,1.034,2.052,1.58c0.636,0.541,1.269,1.097,1.868,1.706c1.184,1.2,2.311,2.492,3.021,4.028l0.242,0.583
	c0.063,0.199,0.112,0.404,0.176,0.605c0.092,0.412,0.121,0.833,0.082,1.251c-0.03,0.206-0.09,0.409-0.135,0.613
	c-0.098,0.187-0.176,0.383-0.277,0.562c-0.131,0.163-0.248,0.338-0.394,0.489L270.873,91.818z M270.873,91.818l0.465-0.417
	c0.141-0.152,0.254-0.329,0.383-0.492c0.104-0.179,0.178-0.375,0.268-0.561c0.047-0.203,0.103-0.404,0.125-0.608
	c0.022-0.416-0.021-0.827-0.129-1.227c-0.109-0.399-0.271-0.78-0.463-1.147c-0.211-0.355-0.422-0.709-0.678-1.035
	c-0.234-0.339-0.52-0.641-0.785-0.955c-0.563-0.601-1.154-1.178-1.808-1.683c-0.638-0.509-1.319-0.979-2.015-1.442
	c-0.688-0.47-1.379-0.894-2.094-1.207c-0.709-0.312-1.453-0.522-2.103-0.458c-0.327,0.01-0.606,0.122-0.873,0.251
	c-0.133,0.063-0.244,0.175-0.369,0.249l-0.323,0.33l-0.149,0.15l-0.214,0.074c-0.514,0.179-1.032,0.37-1.563,0.532
	c-0.521,0.115-1.063,0.256-1.583,0.347c-1.034,0.189-2.026,0.324-2.86,0.561c-0.443,0.089-0.799,0.309-1.201,0.443l-1.004,0.612
	l-1.176,0.974l-0.361,0.382c-0.137,0.153-0.26,0.33-0.396,0.489c-1.021,1.376-1.695,3.129-1.967,4.868
	c-0.117,0.873-0.143,1.748,0.005,2.569c0.067,0.401,0.192,0.835,0.315,1.125c0.039,0.087,0.039,0.151,0.104,0.263l0.191,0.33
	l0.094,0.167l0.047,0.083l0.021,0.042l0.007,0.01c-0.095-0.135-0.022-0.034-0.043-0.063l0.008,0.01
	c0.044,0.056,0.086,0.114,0.125,0.177c0.386,0.474,1.187,0.857,2.063,1.063c0.879,0.227,1.849,0.331,2.819,0.357
	c1.957,0.048,3.974-0.164,5.945-0.555c1.979-0.379,3.933-0.963,5.813-1.714C267.412,93.969,269.227,93.014,270.873,91.818z"/>
<path fill="#272B33" d="M113.85,80.849c26.316-8.679,49.676-22.834,73.65-32.013c23.975-9.179,66.125-2.205,71.923,26.83
	c-4.696-8.189-7.726-17.667-17.86-21.583c-14.188-5.48-36.522-8.692-51.207-4.281C164.793,57.747,139.91,76.348,113.85,80.849z"/>
<path fill="#EFDAE6" d="M350,33.992c0,42.393-66.27,42.394-66.27,0C283.73-8.394,350-8.394,350,33.992z"/>
<path d="M349.998,34c-0.325,16.655-11.414,30.744-28.164,32.656c-30.667,3.5-46.66-24.385-36.128-47.272
	C301.049-13.957,349.9-1.155,349.998,34z M348.698,33.992C347.662-2.41,293.73-9.205,285.65,27.63
	C275.781,72.621,348.23,79.367,348.698,33.992z"/>
<path d="M333.854,17.117c0.137-4.589-6.516-9.306-10.994-9.576c0,0-1.769,0.943-2.585,1.616
	C327.607,10.374,331.275,13.474,333.854,17.117z"/>
<path d="M336.021,43.28c3.06-2.466,4.482-10.79,3.659-14.974c0,0-1.332,1.517-2.969,1.626
	C337.926,33.035,337.926,37.217,336.021,43.28z"/>
<path fill="#EFDAE6" d="M93.081,117.648c4.333,9.333,4.361,24.5-17.441,24.281c-19.354-0.195-35.279-13.089-45.264-29.515
	c-7.86-12.932-17.555-18.038-14.012-26.414c3.543-8.375,52.664-12.079,69.734,9.019c-14.494-0.322-17.394,6.281-17.394,6.281
	s13.688-1.771,14.817,2.577c-2.416-0.162-6.926-1.933-7.893,3.382C81.106,106.938,89.197,109.283,93.081,117.648z"/>
<path d="M84.168,95.169c-5.716,0.247-11.086,1.979-13.42,4.812c4-1.167,12.5-2,14.5,5.167c-2.929-1.109-8.167-1.333-9.333,1.667
	c19.333-4.5,34.05,35.047,2.852,36.018c-26.186,0.815-41.909-19.297-56.669-39.713c-3.395-4.696-10.697-11.783-6.57-17.731
	c6.633-10.222,29.342-7.196,39.127-6.153C75.91,81.538,94.117,96.461,105,114.651c-14.583-15.06-28.343-30.143-50.658-32.386
	c-8.494-0.827-30.609-3.93-36.336,4.764c-3.434,4.846,9.868,19.622,12.039,23.131c11.536,18.654,37.869,36.821,56.19,29.204
	c17.845-7.419,3.346-37.383-12.154-29.883c-0.584-6.12,4-7.667,8.5-6.333c-3.333-2.833-11.167-2-16.087-0.906
	C70.011,96.106,77.95,93.916,84.168,95.169z"/>
</svg>
