<?xml version="1.0" encoding="utf-8"?>
<svg version="1.1" id="Calque_1" xmlns="http://www.w3.org/2000/svg" xmlns:xlink="http://www.w3.org/1999/xlink" x="0px" y="0px"
	 viewBox="0 0 325 196" enable-background="new 0 0 325 196" xml:space="preserve">
<g>
	<path fill="#EDBCD7" d="M2.8,118.7C0,106.1,6.5,92.3,19.2,85.6c15.1-7.9,33.3-2.9,40.7,11.2c1.2,2.3,2.1,4.7,2.6,7.2
		c1.7-2,4-3.6,6.6-4.4c-7.5-9.3-9.3-21.1-3.6-29.9c7.3-11.3,24.4-13.4,38.5-4.9c1.2-1.9,3.4-3.1,6-3.1c0.9,0,1.8,0.2,2.6,0.5
		c-2.7-6.5-2.3-13.1,1.7-16.7c4.5-4,12.1-3.3,18.8,1.3c1,0.5,2,1.1,3,1.9c-0.3-2-0.5-4-0.5-6.1c0-21.6,17.5-39.1,39.1-39.1
		c18.2,0,33.4,12.4,37.8,29.2c4.7-2.4,10-3.7,15.7-3.7c19.4,0,35,15.7,35,35c0,1.9-0.2,3.8-0.5,5.7c2.2-0.7,4.5-1.2,7-1.2
		c11,0,20,8.2,21.4,18.8c3.5-2.5,7.9-4.1,12.6-4.1c11.7,0,21.3,9.4,21.6,21.1c3.2-1.9,0.2,92.2,0.2,92.2H1
		C1,196.4,1.7,117.9,2.8,118.7z"/>
</g>
<path fill="#12100B" d="M262.7,69c0-21.4-16.2-38.7-36.2-38.7c-17.2,0-31.7,12.9-35.3,30.3c1.6-17.8,17.2-31.7,36.2-31.7
	c20.1,0,36.3,15.5,36.3,34.7c0,3.1-0.4,6.2-1.3,9.1C262.6,71.4,262.7,70.2,262.7,69z"/>
<circle fill="none" stroke="#12100B" stroke-miterlimit="10" cx="233" cy="39.3" r="3.9"/>
<path fill="#12100B" d="M211.7,32.5c-4.5-15.7-20-27.3-37.2-27.3c-20.8,0-37.6,16.8-37.6,37.4c0,3.8,0.6,7.5,1.6,10.9
	c-1.8-4.2-2.7-8.8-2.7-13.7C135.8,19.5,153,3,174.2,3c18.4,0,34.8,12.6,38.5,29.2L211.7,32.5z"/>
<path fill="#12100B" d="M109.7,61.3c2.1,0,3.9,1,5.1,2.6c-1.1-1.1-2.6-1.7-4.3-1.7c-3.4,0-6.2,2.7-6.2,6c0,1.8,0.8,3.3,2,4.4
	c-1.7-1.1-2.8-3-2.8-5.2C103.5,64.1,106.3,61.3,109.7,61.3z"/>
<path fill="#12100B" d="M115.3,45.7c-4.1,3.6-4.3,10.5-1.1,17.4c-0.4-0.2-0.8-0.4-1.3-0.5c-3.3-6.8-3-14.2,1.3-18
	c5.7-5,16.3-3,24,5.5C130.2,43.3,120.5,41.2,115.3,45.7z"/>
<path fill="#12100B" d="M75.9,96.7c5.6,0,10.6,2.9,13.4,7.3c-2.3-2.4-5.4-4.1-9-4.8c-8.7-1.7-17,3.3-18.5,11.1
	c-1.5,7.8,4.3,15.5,13,17.2c3,0.6,5.9,0.4,8.5-0.5c-2.2,1.2-4.7,1.8-7.4,1.8c-8.9,0-16-7.2-16-16S67,96.7,75.9,96.7z"/>
<path fill="#12100B" d="M67.5,66c8.6-9.9,24.8-10,36.4-0.3c-0.1,0.2-0.2,0.5-0.2,0.8c-11.7-8.2-26.6-7.9-34.4,1.2
	c-7,8-6.3,20.5,0.7,30.4c-0.3,0.1-0.6,0.2-0.9,0.4C60.8,88.4,59.9,74.8,67.5,66z"/>
<circle fill="none" stroke="#12100B" stroke-miterlimit="10" cx="82.2" cy="68.2" r="3"/>
<path fill="#12100B" d="M304.9,83.2c11.1,0,20.1,9,20.1,20.1c0,0.8-0.1,1.5-0.1,2.3c-0.3,0.2-0.6,0.4-0.8,0.6c0-0.5,0.1-1.1,0.1-1.6
	c0-11-8.9-20-19.9-20c-7.9,0-14.8,4.7-18,11.4C289.1,88.5,296.4,83.2,304.9,83.2z"/>
<path fill="#12100B" d="M262.9,69.5c2.4-1,5-1.5,7.8-1.5c11.5,0,20.7,9.3,20.7,20.7c0,0.2,0,0.3,0,0.5c-0.3,0.2-0.6,0.5-0.9,0.8
	c0-11.4-9.3-20.7-20.7-20.7c-2.5,0-4.8,0.4-7,1.2C262.8,70.1,262.9,69.8,262.9,69.5z"/>
</svg>
