<?xml version="1.0" encoding="utf-8"?>
<!DOCTYPE svg PUBLIC "-//W3C//DTD SVG 1.1//EN" "http://www.w3.org/Graphics/SVG/1.1/DTD/svg11.dtd">
<svg version="1.1" id="mousse01" xmlns="http://www.w3.org/2000/svg" xmlns:xlink="http://www.w3.org/1999/xlink" x="0px" y="0px"
	 width="1920px" height="480px" viewBox="0 0 1920 480" enable-background="new 0 0 1920 480" xml:space="preserve">
<path fill="#E3A4C1" d="M1911.051,333.521c-9.029,2.961-13.924,13.146-11.754,23.528c-5.063-7.608-13.711-12.631-23.539-12.631
	c-15.604,0-28.25,12.646-28.25,28.25c0,2.285,0.277,4.504,0.791,6.633c-3.637-6.487-10.572-10.883-18.541-10.883
	c-4.131,0-7.973,1.193-11.233,3.232c3.815-6.924,2.979-15.08-2.41-19.354c-6.144-4.873-15.861-2.842-21.729,4.539
	c-0.176,0.224-0.326,0.451-0.492,0.679c0.191-1.632,0.209-3.313-0.002-5.043c-1.239-10.144-9.354-17.492-18.129-16.423
	c-8.467,1.035-14.43,9.548-13.717,19.265c-2.918-7.267-10.021-12.396-18.32-12.396c-1.131,0-2.229,0.111-3.309,0.299
	c1.334-2.471,2.092-5.297,2.092-8.299c0-9.666-7.834-17.5-17.5-17.5c-5.463,0-10.338,2.504-13.547,6.426
	c3.353-12.719-2.215-25.646-13.285-29.771c-11.903-4.438-25.655,2.979-30.719,16.563c-1.373,3.687-1.959,7.439-1.857,11.054
	c-0.612-0.633-1.252-1.242-1.926-1.834c-11.789-10.316-28.619-10.379-37.592-0.127c-8.461,9.662-6.914,25.032,3.17,35.409
	c-10.479,0.979-19.387,7.337-23.938,16.289c0.162-4.633-2.625-8.911-6.463-9.727c-4.054-0.861-9.5,3.969-8.604,9.406
	c-0.334-4.006-2.307-7.045-5.533-9.027c-3.549-2.188-7.858-2.188-11.553-0.434c1.771-1.354,3.379-3.086,4.668-5.185
	c4.584-7.455,3.467-16.472-2.498-20.141c-5.965-3.666-14.521-0.601-19.104,6.854c-0.942,1.552-1.643,3.162-2.104,4.781
	c-0.123-3.537-1.652-6.688-4.475-8.414c-4.552-2.797-10.884-0.922-14.896,4.127c0.806-2.924,1.242-5.998,1.242-9.176
	c0-19.057-15.445-34.498-34.498-34.498c-5.777,0-11.221,1.426-16,3.938c-2.455-14.206-13.721-24.938-27.248-24.938
	c-15.322,0-27.748,13.771-27.748,30.759c0,2.474,0.271,4.869,0.768,7.172c-5.055-3.873-11.371-6.182-18.229-6.182
	c-16.568,0-29.998,13.432-29.998,30c0,1.508,0.106,2.984,0.326,4.438c-3.793-3.854-8.707-6.188-14.076-6.188
	c-9.203,0-17.066,6.838-20.242,16.491c-4.396-5.479-11.147-8.993-18.728-8.993c-4.1,0-7.942,1.022-11.315,2.834
	c3.561-10.287,1.297-21.4-6.631-27.891c-10.578-8.655-27.234-5.806-37.203,6.382c-2.017,2.463-3.594,5.116-4.756,7.854
	c-1.672-17.496-16.402-31.182-34.338-31.182c-19.06,0-34.498,15.438-34.498,34.497c0,0.396,0.018,0.782,0.022,1.179
	c-3.729-2.076-8.027-3.263-12.604-3.263c-14.359,0-26,11.642-26,26c0,0.612,0.024,1.226,0.069,1.828
	c-12.715-8.771-29.707-7.369-39.44,3.808c-9.259,10.623-8.869,26.535,0.147,37.864c-0.016,0-0.02,0-0.026,0
	c-11.459,0-20.75,9.291-20.75,20.75c0,0.552,0.041,1.093,0.082,1.632c-4.313-4.629-11.742-5.354-17.404-1.41
	c-0.553,0.385-1.058,0.813-1.535,1.252c4.24-6.271,4.744-14.192,0.609-20.146c-5.464-7.854-16.98-9.313-25.972-3.425
	c1.427-3.312,2.22-6.95,2.22-10.778c0-15.071-12.222-27.293-27.291-27.293c-8.177,0-15.507,3.601-20.509,9.293
	c-0.282-13.903-11.463-25.243-25.489-25.577c-14.422-0.348-26.396,11.08-26.734,25.518c-0.014,0.521-0.006,1.025,0.018,1.533
	c-6.988-4.428-15.938-5.521-24.169-2.14c-6.695,2.746-11.653,7.938-14.271,14.118c-1.957-8.938-9.281-15.322-17.481-14.685
	c-9.09,0.718-15.787,9.772-14.968,20.234c0.225,2.813,0.979,5.432,2.12,7.756l-0.146,0.067c-3.029-7.233-9.313-12.212-16.567-12.212
	c-10.181,0-18.438,9.776-18.497,21.866c-3.598-5.906-10.08-9.866-17.503-9.866c-4,0-7.72,1.161-10.875,3.146
	c-1.534-6.94-7.72-12.146-15.125-12.146c-8.011,0-14.599,6.073-15.413,13.868c-0.57-0.979-1.271-1.896-2.136-2.699
	c-3.853-3.594-9.537-4.158-14.604-1.989c2.602-3.188,4.153-7.248,4.153-11.68c0-10.218-8.281-18.5-18.5-18.5
	c-3.202,0-6.212,0.813-8.839,2.243c0.053-0.74,0.089-1.485,0.089-2.243c0-17.12-13.711-31-30.625-31s-30.63,13.893-30.63,31.014
	c0,3.385,0.544,6.643,1.534,9.688c-3.821-5.807-10.336-9.204-17.138-8.197c-7.53,1.113-13.155,7.308-14.54,15.013
	c-2.957-5.457-7.729-9.002-13.106-9.002c-4.688,0-8.916,2.691-11.883,7c-1.729-5.172-5.243-9.419-10.22-11.563
	c-4.283-1.85-8.959-1.846-13.333-0.346c1.935-9.68-1.561-19.854-9.811-25.813c-11.43-8.259-27.668-5.306-36.271,6.604
	c-2.313,3.198-3.83,6.724-4.604,10.315c-2.647-8.063-10.229-13.896-19.188-13.896c-9.729,0-17.839,6.867-19.771,16.021
	c-2.813-6.337-9.146-10.766-16.521-10.766c-9.988,0-18.086,8.102-18.086,18.086c0,1.3,0.145,2.563,0.396,3.779
	c-3.521-2.979-8.063-4.781-13.041-4.781c-11.163,0-20.213,9.054-20.213,20.215c0,4.479,1.473,8.603,3.937,11.941
	c-0.781-0.269-1.595-0.482-2.438-0.604c-7.993-1.169-15.6,4.813-17.993,13.68c-2.536-4.021-7.017-6.705-12.135-6.705
	c-4.327,0-8.198,1.92-10.826,4.938c-0.054-0.986-0.279-1.95-0.717-2.854c-2.418-5.021-10.063-6.354-17.075-2.978
	c-1.271,0.607-2.433,1.342-3.471,2.146c2.518-11.396-3.289-23.854-14.813-29.908c-13.636-7.162-30.104-2.646-36.797,10.082
	c-1.1,2.094-1.854,4.273-2.312,6.494c-1.568-1.849-3.646-3.254-6.009-3.996c6.743-8.367,8.397-19.068,3.272-27.021
	c-6.604-10.241-22.015-12.123-34.832-4.434c-1.063-1.688-3.086-2.838-5.408-2.838c-0.848,0-1.647,0.15-2.393,0.433
	c2.483-5.899,2.09-11.841-1.575-15.13c-4.063-3.646-10.929-2.95-17.022,1.178c-0.924,0.478-1.831,1.038-2.706,1.689
	c0.278-1.787,0.425-3.612,0.425-5.479c0-19.518-15.819-35.334-35.333-35.334c-16.406,0-30.198,11.187-34.175,26.344
	c-4.261-2.137-9.067-3.344-14.158-3.344c-17.489,0-31.667,14.181-31.667,31.666c0,1.75,0.148,3.469,0.422,5.144
	c-1.976-0.675-4.085-1.06-6.289-1.06c-9.918,0-18.089,7.411-19.32,16.995c-3.199-2.298-7.109-3.663-11.347-3.663
	c-10.61,0-19.223,8.479-19.475,19.025c-2.895-1.701-6.256-2.691-9.856-2.691c-5.506,0-10.47,2.291-14.016,5.961
	c0.245-1.396,0.38-2.825,0.38-4.293c0-13.67-11.081-24.75-24.75-24.75c-3.756,0-7.314,0.843-10.504,2.339
	c1.511-1.904,2.798-4.076,3.773-6.486c4.82-11.898,0.323-24.951-10.043-29.146c-10.178-4.121-22.227,1.826-27.222,13.313
	c0.035-2.568-0.337-5.229-1.201-7.861C12.967,340.17,6.819,334.619,0,333.108V480h1920V333.141
	C1917.072,332.475,1914.01,332.55,1911.051,333.521z"/>
<circle fill="none" stroke="#000000" stroke-miterlimit="10" cx="192.507" cy="342.985" r="3.5"/>
<circle fill="none" stroke="#000000" stroke-miterlimit="10" cx="243.007" cy="320.153" r="4"/>
<circle fill="none" stroke="#000000" stroke-miterlimit="10" cx="295.507" cy="352.319" r="1.828"/>
<circle fill="none" stroke="#000000" stroke-miterlimit="10" cx="246.757" cy="360.069" r="6.25"/>
<circle fill="none" stroke="#000000" stroke-miterlimit="10" cx="271.007" cy="389.319" r="10.5"/>
<circle fill="none" stroke="#000000" stroke-miterlimit="10" cx="272.257" cy="384.069" r="2.25"/>
<circle fill="none" stroke="#000000" stroke-miterlimit="10" cx="328.757" cy="369.069" r="2.75"/>
<circle fill="none" stroke="#000000" stroke-miterlimit="10" cx="381.007" cy="394.819" r="3.5"/>
<circle fill="none" stroke="#000000" stroke-miterlimit="10" cx="191.007" cy="420.713" r="5.318"/>
<circle fill="none" stroke="#000000" stroke-miterlimit="10" cx="545.507" cy="359.819" r="2.642"/>
<circle fill="none" stroke="#000000" stroke-miterlimit="10" cx="605.757" cy="363.069" r="3.75"/>
<circle fill="none" stroke="#000000" stroke-miterlimit="10" cx="548.257" cy="399.569" r="6.75"/>
<circle fill="none" stroke="#000000" stroke-miterlimit="10" cx="570.007" cy="420.319" r="9"/>
<circle fill="none" stroke="#000000" stroke-miterlimit="10" cx="547.757" cy="397.069" r="1.75"/>
<circle fill="none" stroke="#000000" stroke-miterlimit="10" cx="568.257" cy="416.569" r="2.25"/>
<circle fill="none" stroke="#000000" stroke-miterlimit="10" cx="676.007" cy="418.819" r="10"/>
<circle fill="none" stroke="#000000" stroke-miterlimit="10" cx="673.007" cy="414.819" r="2.25"/>
<circle fill="none" stroke="#000000" stroke-miterlimit="10" cx="724.257" cy="350.069" r="3.25"/>
<circle fill="none" stroke="#000000" stroke-miterlimit="10" cx="770.757" cy="381.569" r="2.75"/>
<circle fill="none" stroke="#000000" stroke-miterlimit="10" cx="904.632" cy="385.444" r="2.922"/>
<ellipse fill="none" stroke="#000000" stroke-miterlimit="10" cx="984.756" cy="363.569" rx="5.068" ry="4.151"/>
<circle fill="none" stroke="#000000" stroke-miterlimit="10" cx="1011.506" cy="431.319" r="10.5"/>
<circle fill="none" stroke="#000000" stroke-miterlimit="10" cx="1010.256" cy="428.069" r="2.25"/>
<circle fill="none" stroke="#000000" stroke-miterlimit="10" cx="1135.881" cy="377.194" r="4.375"/>
<circle fill="none" stroke="#000000" stroke-miterlimit="10" cx="1454.506" cy="290.319" r="4.125"/>
<circle fill="none" stroke="#000000" stroke-miterlimit="10" cx="1297.006" cy="328.819" r="3.375"/>
<circle fill="none" stroke="#000000" stroke-miterlimit="10" cx="1607.006" cy="422.819" r="4.47"/>
<circle fill="none" stroke="#000000" stroke-miterlimit="10" cx="1290.506" cy="410.319" r="11.5"/>
<circle fill="none" stroke="#000000" stroke-miterlimit="10" cx="1290.84" cy="405.652" r="2.833"/>
<circle fill="none" stroke="#000000" stroke-miterlimit="10" cx="1492.074" cy="362.201" r="8.377"/>
<circle fill="none" stroke="#000000" stroke-miterlimit="10" cx="1329.85" cy="396.301" r="9.751"/>
<circle fill="none" stroke="#000000" stroke-miterlimit="10" cx="1328.883" cy="392.457" r="2.402"/>
<path d="M433.007,412.569c-4.531,0-8.552,2.127-11.157,5.43c-0.124-0.996-0.396-1.979-0.852-2.912
	c-2.628-5.453-10.031-7.336-16.533-4.203c-1.169,0.563-2.219,1.261-3.152,2.039c1.56-10.879-4.212-22.354-15.123-28.082
	c-13.636-7.162-30.104-2.646-36.797,10.082c-1.188,2.271-1.958,4.658-2.386,7.076c-1.441-2.455-3.582-4.438-6.151-5.697
	c7.297-9.055,8.076-21.282,1.229-29.194c-7.733-8.933-22.286-9.015-32.793-0.314c-0.699-2.294-2.83-3.964-5.354-3.964
	c-0.982,0-1.918,0.267-2.724,0.718c2.687-6.021,2.353-12.367-1.455-15.718c-4.848-4.269-13.661-2.931-20.449,3.729
	c0.671-2.581,1.032-5.282,1.032-8.063c0-18.409-15.521-33.336-34.667-33.336c-16.523,0-31.202,11.211-34.691,26.091
	c-4.111-1.771-8.672-2.76-13.475-2.76c-18.134,0-32.833,14.026-32.833,31.334c0,1.801,0.178,3.557,0.485,5.27
	c-2.091-0.81-4.357-1.27-6.735-1.27c-10.286,0-18.628,8.285-18.74,18.549c-3.219-2.926-7.484-4.714-12.177-4.714
	c-10.033,0-18.167,8.136-18.167,18.165c0,0.521,0.036,1.026,0.082,1.535c-3.091-2.021-6.779-3.209-10.749-3.209
	c-5.198,0-9.912,2.022-13.424,5.321c0.168-1.164,0.257-2.354,0.257-3.563c0-13.67-11.081-24.75-24.75-24.75
	c-4.192,0-8.13,1.063-11.59,2.896c1.839-2.104,3.394-4.584,4.526-7.381c4.82-11.899,0.323-24.953-10.043-29.146
	c-10.366-4.196-22.676,2.047-27.496,13.946c-0.031,0.074-0.053,0.152-0.083,0.229c0.146-2.839-0.216-5.802-1.177-8.729
	c-2.502-7.634-8.336-13.078-14.887-14.796v1.83c6.386,1.813,12.115,7.354,14.636,15.043c0.785,2.396,1.176,4.808,1.247,7.146
	c-0.83,2.242-1.339,4.518-1.543,6.76c0.33-1.852,0.837-3.709,1.567-5.553c0,0.031,0.002,0.063,0.002,0.096
	c0.006-0.043,0.008-0.09,0.014-0.137c0.017-0.043,0.031-0.086,0.048-0.129c4.917-12.146,16.989-18.713,26.963-14.674
	c9.974,4.034,14.074,17.153,9.156,29.301c-1.006,2.481-2.318,4.729-3.844,6.699c-6.594,3.87-11.245,10.694-12.1,18.67
	c0.446-2.218,1.186-4.416,2.249-6.545c6.17-12.354,20.68-17.61,32.411-11.755c11.729,5.857,16.238,20.623,10.068,32.976
	c-2.093,4.188-5.147,7.563-8.725,9.96c6.673-3.47,11.554-9.895,12.939-17.526c3.492-3.211,8.125-5.188,13.246-5.188
	c10.861,0,19.667,8.809,19.667,19.666c0,1.934-0.29,3.787-0.807,5.549c0.725-2.051,1.141-4.246,1.141-6.549
	c0-6.545-3.209-12.326-8.126-15.896c-0.018-0.32-0.041-0.645-0.041-0.971c0-9.963,8.059-18.041,18-18.041
	c7.171,0,13.345,4.219,16.238,10.301c-0.886-2.264-2.218-4.293-3.876-6.012c0.291-10.104,8.55-18.207,18.722-18.207
	c2.126,0,4.162,0.367,6.064,1.021c0.143,0.679,0.307,1.347,0.494,2.005c-0.089-1.056-0.141-2.113-0.141-3.188
	c0-19.327,14.625-35,32.667-35c15.587,0,28.617,11.7,31.874,27.354c-0.989-11.271-8.229-20.839-18.397-25.55
	c4.121-14.084,18.044-24.472,33.522-24.472c18.778,0,34,15.146,34,33.837c0,2.1-0.215,4.146-0.585,6.141
	c-0.221,0.229-0.447,0.451-0.664,0.693c0.208-0.186,0.42-0.348,0.63-0.521c-0.229,1.198-0.499,2.387-0.851,3.534
	c0.529-1.271,0.972-2.588,1.337-3.935c7.046-5.55,15.182-7.063,19.638-3.143c3.72,3.271,3.873,9.449,0.994,15.738
	c0.058-0.021,0.113-0.043,0.169-0.063c-0.229,0.229-0.453,0.479-0.643,0.744c1.008-0.951,2.383-1.539,3.896-1.539
	c3.09,0,5.604,2.43,5.604,5.418c0,1.596-0.721,3.021-1.85,4.012c1.52-1.006,2.517-2.719,2.517-4.664
	c0-0.313-0.032-0.615-0.081-0.912c10.604-7.373,23.957-7.117,31.055,1.082c6.242,7.209,5.727,18.33-0.479,27.33
	c-1.696-0.701-3.563-1.098-5.52-1.098c-5.086,0-9.553,2.623-12.141,6.586c2.083-2.133,4.896-3.717,8.171-4.354
	c7.854-1.521,15.341,2.963,16.705,10.013c1.355,7.049-3.905,13.995-11.771,15.521c-2.684,0.521-5.312,0.32-7.684-0.42
	c2.009,1.053,4.291,1.652,6.715,1.652c8.007,0,14.5-6.492,14.5-14.5c0-2.107-0.461-4.105-1.271-5.918
	c0.521-1.894,1.229-3.757,2.183-5.563c6.886-13.109,22.771-18.328,35.479-11.652c11.13,5.849,16.131,18.88,12.573,30.834
	c0.07-0.067,0.153-0.137,0.226-0.202c-0.144,0.594-0.29,1.188-0.471,1.76c1.407-2.398,3.737-4.572,6.745-6.021
	c6.502-3.133,13.688-1.698,16.048,3.199c0.468,0.971,0.698,2.004,0.737,3.063c-0.021,0.024-0.038,0.053-0.061,0.075
	c0.021,0.138,0.021,0.272,0.022,0.41c0.012-0.021,0.026-0.028,0.039-0.047c-0.063,3.854-2.771,7.963-7.173,10.478
	c0.133,0.021,0.263,0.036,0.394,0.063c-0.063,0.045-0.126,0.094-0.188,0.139c3.992,0.58,7.052,3.816,7.052,7.731
	c0,4.321-3.729,7.829-8.333,7.829c-0.705,0-1.386-0.09-2.039-0.242c0.942,0.367,1.965,0.577,3.039,0.577
	c4.603,0,8.333-3.729,8.333-8.329c0-3.896-2.677-7.156-6.289-8.066c3.92-2.696,6.122-6.909,5.837-10.924
	c2.605-3.016,6.385-4.931,10.618-4.931c7.87,0,14.25,6.55,14.25,14.625c0,1.38-0.198,2.702-0.545,3.97
	c0.668-1.648,1.045-3.451,1.045-5.345C447.257,418.948,440.877,412.569,433.007,412.569z"/>
<path d="M638.221,410.343c0.029-0.043,0.059-0.088,0.086-0.133c-0.001-0.004-0.002-0.008-0.003-0.018
	C638.274,410.245,638.25,410.296,638.221,410.343z"/>
<path d="M875.757,390.819c-10.217,0-18.5,9.854-18.5,22c0,0.1,0.011,0.188,0.013,0.281c-3.541-6.146-10.164-10.281-17.763-10.281
	c-4.01,0-7.737,1.166-10.896,3.154c-1.523-6.945-7.688-12.154-15.104-12.154c-7.759,0-14.163,5.707-15.298,13.146
	c-0.563-0.979-1.249-1.877-2.099-2.67c-3.744-3.491-9.3-4.034-14.291-1.938c2.307-3.084,3.688-6.896,3.688-11.045
	c0-10.22-8.283-18.5-18.5-18.5c-3.264,0-6.319,0.854-8.979,2.344c0.063-0.813,0.104-1.637,0.104-2.469c0-17.121-13.711-31-30.625-31
	s-30.625,13.879-30.625,31c0,3.479,0.582,6.811,1.626,9.924c-3.785-6.019-10.417-9.584-17.353-8.56
	c-7.606,1.128-13.27,7.431-14.569,15.238c-2.957-5.438-7.707-8.979-13.08-8.979c-4.607,0-8.765,2.602-11.721,6.771
	c-1.765-5.063-5.231-9.223-10.13-11.328c-4.264-1.834-8.896-1.815-13.242-0.352c1.714-9.521-1.789-19.447-9.896-25.312
	c-11.429-8.26-27.668-5.305-36.271,6.604c-2.33,3.229-3.837,6.775-4.604,10.404c-2.629-8.104-10.211-13.979-19.188-13.979
	c-9.741,0-17.851,6.896-19.758,16.068c-2.804-6.361-9.146-10.813-16.543-10.813c-9.526,0-20.896,8.619-17.69,21.881
	c-3.521-2.979-8.06-4.797-13.03-4.797c-11.163,0-20.213,9.052-20.213,20.213c0,4.062,1.217,7.815,3.277,10.979
	c-0.58-0.164-1.17-0.31-1.779-0.396c-7.705-1.125-15.06,4.394-17.725,12.729c0.095,0.141,0.182,0.279,0.271,0.423
	c2.926-7.911,9.838-13.063,17.032-12.021c7.438,1.087,12.702,8.438,12.935,17.236c0.003-0.004,0.005-0.006,0.01-0.014
	c-0.016,0.031-0.021,0.063-0.033,0.096c0,0.006,0.001,0.012,0.001,0.021c0,0.106-0.021,0.217-0.021,0.323
	c1.699-3.969,5.563-6.739,10.07-6.739c6.04,0,10.938,4.979,10.995,11.146c0.001-0.002,0.002-0.004,0.004-0.01
	c0,0.014,0.001,0.021,0.001,0.029c0,0.043-0.006,0.084-0.006,0.127c1.465-3.129,4.563-5.293,8.173-5.293
	c5.018,0,9.083,4.184,9.083,9.334c0,3.801-2.214,7.063-5.386,8.521c3.671-1.313,6.303-4.813,6.303-8.938c0-5.244-4.253-9.5-9.5-9.5
	c-3.337,0-6.256,1.729-7.946,4.336c-0.265-5.979-5.176-10.752-11.221-10.752c-4.16,0-7.775,2.27-9.72,5.623
	c-0.362-7.732-4.875-14.289-11.371-16.229c-1.525-2.896-2.409-6.201-2.409-9.729c0-11.271,8.819-20.41,19.697-20.41
	c4.927,0,9.412,1.895,12.854,4.987c-0.001-0.008-0.001-0.016-0.002-0.021c0.068,0.229,0.128,0.443,0.205,0.674
	c-2.635-14.77,7.412-22.324,17.188-22.324c7.805,0,14.416,5.17,16.767,12.339c0.053-0.58,0.139-1.148,0.245-1.716
	c-0.011-0.028-0.024-0.063-0.035-0.09c1.957-9.029,9.742-15.791,19.085-15.791c9.324,0,17.112,6.729,19.092,15.729
	c0.146-0.82,0.325-1.646,0.548-2.47c-0.01-0.021-0.02-0.049-0.021-0.071c0.854-3.134,2.269-6.188,4.282-9.017
	c8.481-11.895,24.229-15.047,35.15-7.051c10.934,7.996,12.902,24.113,4.413,36.01c-1.798,2.521-3.925,4.646-6.259,6.354
	c0.233-0.144,0.461-0.291,0.691-0.438c-0.078,0.063-0.152,0.129-0.23,0.188c7.522,0.336,13.521,6.25,13.521,13.521
	c0,5.619-3.6,10.424-8.699,12.472c-0.032-0.002-0.063-0.009-0.095-0.013c-0.854,0.334-1.743,0.592-2.667,0.75
	c0.104-0.002,0.214-0.01,0.313-0.01c0.018,0,0.021,0.002,0.027,0.002c-0.313,0.063-0.625,0.133-0.945,0.178
	c0.449-0.045,0.902-0.075,1.363-0.075c1.046,0,2.063,0.114,3.05,0.325c0.012-0.004,0.021-0.01,0.03-0.014
	c6.712,1.555,11.712,7.428,11.712,14.449c0,8.216-6.822,14.869-15.237,14.869c-0.95,0-1.88-0.099-2.78-0.263
	c1.311,0.356,2.68,0.565,4.101,0.565c8.519,0,15.425-6.901,15.425-15.423c0-7.229-4.979-13.271-11.691-14.938
	c4.485-2.459,7.552-7.254,7.552-12.785c0-7.809-6.077-14.151-13.697-14.51c2.41-1.701,4.599-3.822,6.435-6.358
	c2.354-3.263,3.896-6.854,4.646-10.521c4.041-1.063,8.272-0.888,12.208,0.813c5.021,2.163,8.604,6.399,10.401,11.545
	c-1.805,2.998-3.027,6.647-3.469,10.651c1.688-10.043,8.24-17.533,16.075-17.533c5.258,0,9.938,3.384,12.953,8.64
	c-0.119,0.973-0.188,1.96-0.167,2.967c0.042-0.92,0.16-1.818,0.316-2.705c0.014,0.021,0.021,0.037,0.03,0.059
	c0.054-0.268,0.12-0.521,0.188-0.776c-0.021-0.031-0.038-0.064-0.063-0.104c1.646-7.354,7.24-13.192,14.636-14.291
	c7.233-1.067,14.146,2.72,17.897,9.047c-0.111-0.334-0.229-0.67-0.331-1.008c-0.854-2.932-1.342-6.03-1.342-9.258
	c0-17.436,13.403-31.563,29.938-31.563c16.532,0,29.938,14.134,29.938,31.563c0,3.53-0.562,6.926-1.573,10.098
	c1.056-2.646,1.753-5.479,2.044-8.438c4.313-2.299,9.452-2.891,14.354-1.197c9.572,3.303,14.563,14.015,11.146,23.926
	c-0.479,1.408-1.122,2.726-1.874,3.938c-0.021,0.012-0.059,0.02-0.087,0.031c-0.22,0.313-0.468,0.612-0.709,0.926
	c0.075-0.035,0.151-0.064,0.229-0.1c-0.037,0.059-0.07,0.106-0.107,0.161c0.052-0.059,0.093-0.118,0.146-0.18
	c5.022-2.166,10.638-1.646,14.405,1.875c1.319,1.233,2.279,2.729,2.906,4.354c0.021-0.306,0.044-0.604,0.077-0.898
	c0.923-7.873,7.372-13.979,15.208-13.979c6.981,0,12.848,4.854,14.695,11.479c-4.589,2.98-7.918,7.738-8.985,13.313
	c2.548-9.041,10.367-15.625,19.623-15.625c8.188,0,15.232,5.153,18.521,12.604c0.036,0.285,0.063,0.582,0.104,0.861
	c-0.021-0.24-0.033-0.488-0.054-0.734c0.043,0.103,0.092,0.188,0.134,0.293c-0.118-0.942-0.186-1.908-0.195-2.896
	c0.27-12.412,8.383-22.377,18.358-22.377c9.907,0,17.979,9.815,18.354,22.104c0.014-0.281,0.021-0.565,0.021-0.854
	C894.257,400.669,885.974,390.819,875.757,390.819z"/>
<path d="M936.825,375.528c-6.737,2.77-11.708,8.002-14.314,14.229c-2.003-8.862-9.287-15.188-17.444-14.537
	c-9.088,0.714-15.787,9.771-14.967,20.232c0.106,1.354,0.34,2.662,0.676,3.924c-0.014-0.146-0.022-0.281-0.043-0.43
	c-0.932-11.855,5.453-22.031,14.271-22.729c7.554-0.596,14.429,5.984,16.816,15.354c-1.83,5.479-1.889,11.582,0.228,17.393
	c-3.819-12.847,2.632-26.744,15.285-31.938c8.061-3.313,16.813-2.334,23.729,1.865c-0.033-0.406-0.056-0.813-0.063-1.229
	C954.003,373.239,945.054,372.147,936.825,375.528z"/>
<path d="M1123.09,406.319c-11.459,0-20.75,9.291-20.75,20.75c0,0.313,0.018,0.627,0.033,0.938c-4.346-3.854-11.881-5-17.939,0.31
	c3.955-6.188,4.355-13.869,0.316-19.666c-5.432-7.806-16.82-9.285-25.787-3.525c1.303-3.221,2.035-6.729,2.035-10.408
	c0-15.401-12.49-27.896-27.896-27.896c-7.813,0-14.868,3.231-19.936,8.418c-0.645-13.574-11.672-24.543-25.461-24.87
	c-14.422-0.345-26.396,11.079-26.736,25.521c-0.096,4.024,0.729,7.858,2.271,11.309c-0.863-2.887-1.312-5.975-1.229-9.18
	c0.363-15.195,12.063-27.242,26.129-26.906c14.068,0.336,25.189,12.922,24.818,28.117c-0.012,0.426-0.033,0.846-0.064,1.267
	c0.17-1.103,0.273-2.222,0.31-3.355c0.01-0.404,0.006-0.813-0.002-1.209c4.963-4.813,11.688-7.791,19.117-7.791
	c15.264,0,27.635,12.487,27.635,27.896c0,4.032-0.865,7.854-2.396,11.315c0.226-0.164,0.425-0.338,0.648-0.494
	c0.147-0.313,0.297-0.646,0.438-0.976c9.158-5.569,20.332-4.306,25.527,3.166c4.117,5.921,3.287,14.015-1.414,20.429
	c0.418-0.283,0.846-0.541,1.271-0.793c-0.476,0.442-0.938,0.928-1.39,1.453c8.438-5.811,16.32-4.896,20.15,0.607
	c3.832,5.511,1.729,13.597-4.688,18.061c-1.188,0.829-2.446,1.477-3.729,1.938c2.057-0.318,4.094-1.104,5.938-2.391
	c6.179-4.297,7.902-12.488,3.859-18.308c-0.148-0.213-0.314-0.422-0.479-0.625c-0.021-0.336-0.046-0.672-0.046-1.018
	c0-11.455,9.281-20.741,20.734-20.75c-0.389-0.438-0.762-0.877-1.121-1.328C1123.221,406.323,1123.156,406.319,1123.09,406.319z"/>
<path d="M1369.295,338.903c-9.262,0-17.158,6.93-20.295,16.68c-4.4-5.44-11.127-8.932-18.672-8.932
	c-4.197,0-8.146,1.08-11.572,2.977c3.883-10.471,1.717-21.899-6.377-28.522c-10.578-8.656-27.234-5.804-37.203,6.383
	c-2.172,2.649-3.813,5.535-4.996,8.507c-1.6-17.564-16.362-31.328-34.348-31.328c-19.053,0-34.498,15.44-34.498,34.497
	c0,0.139,0.008,0.271,0.012,0.406c-3.613-1.9-7.721-2.991-12.09-2.991c-14.359,0-26,11.645-26,26c0,0.832,0.051,1.647,0.129,2.466
	c-12.768-9.198-30.121-7.918-40,3.422c-10.521,12.071-8.588,30.98,4.322,42.229c1.645,1.438,3.395,2.686,5.225,3.729
	c-1.008-0.709-1.991-1.474-2.944-2.303c-13.34-11.619-15.726-30.725-5.32-42.647c10.396-11.933,29.642-12.188,42.979-0.563
	c0.516,0.442,1.002,0.901,1.479,1.37c-1.016-1.163-2.11-2.271-3.313-3.314c-0.729-0.645-1.486-1.233-2.261-1.8
	c-0.021-0.359-0.041-0.726-0.041-1.088c0-14.356,11.921-26,26.625-26c4.209,0,8.188,0.959,11.724,2.655
	c-0.002-0.103-0.004-0.194-0.006-0.297c0.004,0.002,0.012,0.004,0.02,0.01c0.564-19.081,15.479-34.368,33.812-34.368
	c18.688,0,33.836,15.896,33.836,35.498c0,3.039-0.365,5.981-1.052,8.804c1.212-3.521,1.875-7.287,1.875-11.216
	c0-0.854-0.041-1.696-0.104-2.534c1.158-2.438,2.635-4.813,4.449-7.032c10.242-12.521,27.012-15.732,37.451-7.188
	c7.66,6.271,9.771,17.122,6.313,27.403c0.096-0.058,0.188-0.108,0.277-0.164c-5.666,3.138-9.933,8.49-11.607,14.896
	c3.228-9.528,12.172-16.386,22.711-16.386c13.254,0,23.998,10.84,23.998,24.209c0,1.979-0.239,3.896-0.688,5.731
	c0.77-2.347,1.188-4.849,1.188-7.443c0-5.409-1.793-10.402-4.815-14.422c3.332-9.303,11.08-15.825,20.121-15.825
	c5.196,0,9.969,2.153,13.721,5.756c-0.084-0.435-0.156-0.857-0.228-1.297C1379.367,341.146,1374.555,338.903,1369.295,338.903z"/>
<path d="M1625.912,319.626c-8.543,9.763-6.879,25.336,3.473,35.713c-10.561,0.814-19.588,7.101-24.256,16.021
	c0.639-4.83-1.824-9.234-5.787-10.078c-4.047-0.857-8.176,2.316-9.467,7.166c-0.826-2.688-2.535-5.057-5.035-6.594
	c-3.717-2.283-8.262-2.178-12.063-0.154c1.922-1.385,3.672-3.209,5.053-5.451c4.582-7.455,3.465-16.475-2.498-20.141
	c-5.965-3.666-14.514-0.598-19.104,6.856c-0.977,1.589-1.676,3.246-2.141,4.91c-0.029-3.678-1.535-6.975-4.438-8.758
	c-4.699-2.893-11.316-0.803-15.312,4.646c0.84-2.979,1.316-6.105,1.316-9.354c0-19.055-15.443-34.5-34.498-34.5
	c-5.746,0-11.156,1.424-15.927,3.906c-2.467-14.188-13.723-24.911-27.239-24.911c-15.32,0-27.748,13.771-27.748,30.762
	c0,2.519,0.299,4.947,0.813,7.291c-5.021-3.787-11.258-6.053-18.022-6.053c-16.566,0-29.998,13.434-29.998,29.998
	c0,3.795,0.713,7.422,1.993,10.768c-0.811-2.83-1.243-5.823-1.243-8.934c0-17.166,13.264-31.082,29.623-31.082
	c6.896,0,13.237,2.479,18.271,6.631c-0.045-0.188-0.086-0.381-0.129-0.568c0.051,0.041,0.104,0.08,0.148,0.121
	c-0.453-2.229-0.712-4.539-0.712-6.922c0-16.985,12.201-30.762,27.25-30.762c15.056,0,27.25,13.771,27.25,30.762
	c0,1.961-0.17,3.875-0.479,5.729c0.471-2.244,0.729-4.58,0.729-6.979c0-1.508-0.104-2.979-0.288-4.432
	c4.575-2.33,9.731-3.658,15.209-3.658c18.772,0,34,15.445,34,34.498c0,3.139-0.438,6.158-1.214,9.043
	c-0.108,0.197-0.229,0.396-0.334,0.598c-0.047,0.146-0.098,0.273-0.145,0.418c3.873-6.196,11.016-8.739,16.006-5.674
	c3.545,2.183,5.035,6.604,4.256,11.229l0.135,0.133c0.146-0.959,0.396-1.932,0.699-2.896c0.012-0.115,0-0.229,0.008-0.353
	c0.49-1.383,1.146-2.762,1.968-4.102c4.756-7.73,13.188-11.188,18.85-7.705c5.658,3.479,6.387,12.563,1.633,20.301
	c-1.123,1.824-2.457,3.397-3.899,4.717c-1.865,1.021-3.558,2.512-4.854,4.414c4.359-5.045,11.252-6.654,16.408-3.484
	c5.688,3.496,7.133,11.517,3.363,18.104c0.27-0.367,0.543-0.754,0.789-1.153c1.877-3.052,2.461-6.5,1.907-9.648
	c1.229-5.186,5.242-8.688,9.101-7.869c3.739,0.795,5.965,5.39,5.188,10.447c-1.793,3.846-2.801,8.131-2.801,12.65
	c0,5.567,1.541,10.771,4.188,15.239c-1.891,0.131-3.789,0.429-5.688,0.912c-16.85,4.324-27.002,21.49-22.676,38.344
	c1.815,7.078,5.905,12.969,11.278,17.104c-9.245-8.066-13.055-21.037-9.354-33.046c2.889-10.354,11.319-19.036,22.813-21.985
	c4.013-1.027,8.027-1.265,11.888-0.813c-2.406-0.479-4.894-0.668-7.402-0.563c-2.187-4.201-3.438-8.979-3.438-14.065
	c0-15.806,11.931-28.75,27.101-30.013c0.188,0.174,0.375,0.354,0.569,0.521c4.138,3.621,8.896,5.979,13.718,7.063
	c-4.313-1.242-8.554-3.502-12.293-6.774c-11.838-10.357-14.271-26.938-5.439-37.029c8.834-10.091,25.593-9.869,37.431,0.491
	c0.168,0.146,0.323,0.3,0.485,0.443c-0.453-0.443-0.922-0.891-1.403-1.313C1651.717,309.432,1634.887,309.376,1625.912,319.626z"/>
<path d="M1697.674,293.47c-11.904-4.438-25.656,2.979-30.719,16.563c-1.699,4.561-2.197,9.229-1.67,13.596
	c0.053-3.567,0.723-7.289,2.09-10.957c5.238-14.063,18.637-22.045,29.928-17.838c11.289,4.207,16.193,19.017,10.955,33.07
	c-1.135,3.047-2.654,5.811-4.453,8.225c2.633-2.746,4.801-6.131,6.254-10.024C1715.121,312.516,1709.576,297.907,1697.674,293.47z"
	/>
<path d="M1819.17,370.761c0.172-0.1,0.346-0.188,0.521-0.274c3.021-6.627,1.924-14-3.248-18.002
	c-6.354-4.926-16.438-2.871-22.507,4.586c-0.02,0.024-0.043,0.063-0.063,0.088c0.221-1.697,0.232-3.473,0.018-5.275
	c-1.239-10.146-9.354-17.491-18.127-16.42c-8.229,1.006-14.108,9.064-13.78,18.438c-3.216-6.555-9.933-11.07-17.724-11.07
	c-1.438,0-2.834,0.17-4.184,0.467c1.229-2.396,1.934-5.098,1.934-7.967c0-9.666-7.836-17.5-17.5-17.5
	c-5.067,0-9.621,2.17-12.815,5.607c3.034-2.258,6.877-3.607,11.065-3.607c9.803,0,17.75,7.389,17.75,16.5
	c0,8.826-7.465,16.019-16.844,16.457c0.273,0.016,0.559,0.043,0.844,0.043c6,0,11.289-3.021,14.438-7.625
	c1.604-0.49,3.291-0.771,5.041-0.771c10.473,0,18.946,9.317,18.946,20.815c0,1.865-0.243,3.672-0.663,5.396
	c1.104-2.467,1.731-5.188,1.731-8.063c0-0.146-0.021-0.287-0.021-0.438c0.194,0.414,0.395,0.826,0.604,1.229
	c-0.242-0.629-0.451-1.274-0.646-1.938c-0.099-1.662-0.375-3.271-0.854-4.808c-0.762-9.938,4.75-18.571,12.687-19.543
	c8.229-1.01,15.938,6.604,17.198,16.994c0.351,2.846,0.162,5.592-0.438,8.113c0.596-1.438,1.02-2.979,1.266-4.594
	c6.123-6.617,15.539-8.291,21.603-3.601C1820.256,357.751,1821.521,364.473,1819.17,370.761z"/>
<path d="M1910.381,333.419c-8.734,2.859-13.578,12.492-11.922,22.521c-5.16-6.758-13.293-11.117-22.453-11.117
	c-15.604,0-28.25,12.646-28.25,28.25c0,2.127,0.25,4.189,0.695,6.188c-3.59-6.647-10.605-11.188-18.695-11.188
	c-8.369,0-15.588,4.854-19.053,11.887c3.854-6.375,10.838-10.637,18.803-10.637c8.434,0,15.74,4.781,19.432,11.787
	c0.064,0.195,0.105,0.396,0.166,0.598c-0.039-0.158-0.063-0.32-0.104-0.479c0.641,1.229,1.184,2.522,1.586,3.885
	c-0.385-1.916-1.037-3.73-1.9-5.43c-0.271-1.578-0.428-3.199-0.428-4.857c0-15.604,12.646-28.25,28.25-28.25
	c12.592,0,23.254,8.236,26.902,19.619c-0.855-3.406-2.346-6.561-4.314-9.35c-1.354-9.813,3.24-19.011,11.49-21.716
	c3.104-1.021,6.336-0.981,9.414-0.096v-1.83C1916.869,332.364,1913.566,332.376,1910.381,333.419z"/>
<circle fill="none" stroke="#000000" stroke-miterlimit="10" cx="1728.006" cy="331.819" r="2.5"/>
<ellipse fill="none" stroke="#000000" stroke-miterlimit="10" cx="1863.006" cy="360.319" rx="3.25" ry="3"/>
<circle fill="none" stroke="#000000" stroke-miterlimit="10" cx="1813.506" cy="429.319" r="10.5"/>
<circle fill="none" stroke="#000000" stroke-miterlimit="10" cx="1813.031" cy="425.87" r="2.25"/>
<circle fill="#E3A4C1" stroke="#000000" stroke-miterlimit="10" cx="1814.117" cy="163.502" r="20.999"/>
<path d="M1824.59,153.072c0.084-2.833-4-5.75-6.75-5.917c0,0-1.084,0.583-1.584,1
	C1820.756,148.905,1823.006,150.822,1824.59,153.072z"/>
<path d="M1825.924,169.238c1.875-1.521,2.75-6.667,2.25-9.25c0,0-0.822,0.938-1.834,1
	C1827.09,162.905,1827.09,165.488,1825.924,169.238z"/>
<circle fill="#E3A4C1" stroke="#000000" stroke-miterlimit="10" cx="1058.006" cy="269.905" r="20.999"/>
<path d="M1068.479,259.476c0.084-2.832-4-5.75-6.75-5.916c0,0-1.084,0.587-1.584,1
	C1064.645,255.31,1066.895,257.226,1068.479,259.476z"/>
<path d="M1069.813,275.644c1.875-1.521,2.75-6.668,2.25-9.25c0,0-0.813,0.938-1.834,1
	C1070.979,269.31,1070.979,271.894,1069.813,275.644z"/>
<circle fill="#E3A4C1" stroke="#000000" stroke-miterlimit="10" cx="366.118" cy="317.502" r="25.999"/>
<path d="M379.084,304.589c0.104-3.508-4.953-7.116-8.357-7.323c0,0-1.341,0.725-1.96,1.235
	C374.338,299.429,377.124,301.802,379.084,304.589z"/>
<path d="M380.735,324.605c2.321-1.888,3.403-8.256,2.784-11.451c0,0-1.017,1.16-2.27,1.234
	C382.179,316.764,382.179,319.962,380.735,324.605z"/>
</svg>
