<?xml version="1.0" encoding="utf-8"?>
<!DOCTYPE svg PUBLIC "-//W3C//DTD SVG 1.1//EN" "http://www.w3.org/Graphics/SVG/1.1/DTD/svg11.dtd">
<svg version="1.1" id="mousse03" xmlns="http://www.w3.org/2000/svg" xmlns:xlink="http://www.w3.org/1999/xlink" x="0px" y="0px"
	 width="2730px" height="948.257px" viewBox="0 0 2730 948.257" enable-background="new 0 0 2730 948.257" xml:space="preserve">
<path fill="#EFDAE6" d="M1.863,276.89c10.71,0,19.394,8.685,19.394,19.396c0,2.722-0.563,5.313-1.578,7.663
	c6.393-4.188,14.575-3.15,18.458,2.432c2.937,4.225,2.579,9.858-0.436,14.315c0.342-0.314,0.698-0.616,1.093-0.889
	c4.025-2.8,9.304-2.288,12.371,1.002c-0.031-0.384-0.06-0.768-0.06-1.16c0-8.144,6.601-14.747,14.747-14.747
	c0.008,0,0.014,0.001,0.02,0.001c-6.41-8.052-6.688-19.36-0.105-26.91c6.917-7.944,18.999-8.937,28.032-2.705
	c-0.031-0.43-0.053-0.863-0.053-1.3c0-10.205,8.273-18.478,18.479-18.478c3.25,0,6.301,0.843,8.958,2.318
	c-0.009-0.279-0.021-0.557-0.021-0.837c0-13.541,10.976-24.517,24.518-24.517c12.746,0,23.217,9.727,24.401,22.161
	c0.829-1.947,1.951-3.835,3.382-5.583c7.087-8.658,18.921-10.688,26.439-4.536c5.634,4.61,7.242,12.509,4.712,19.819
	c2.396-1.283,5.136-2.014,8.046-2.014c5.383,0,10.181,2.497,13.306,6.393c2.258-6.862,7.845-11.722,14.386-11.722
	c3.817,0,7.306,1.657,10.004,4.399c-0.152-1.029-0.233-2.082-0.233-3.154c0-11.775,9.547-21.32,21.321-21.32
	c4.874,0,9.366,1.641,12.954,4.393c-0.35-1.636-0.542-3.341-0.542-5.097c0-12.073,8.827-21.86,19.716-21.86
	c9.619,0,17.622,7.63,19.366,17.727c3.399-1.785,7.264-2.799,11.367-2.799c13.542,0,24.52,10.977,24.52,24.518
	c0,2.258-0.313,4.443-0.883,6.521c2.854-3.588,7.355-4.921,10.591-2.934c1.999,1.23,3.086,3.467,3.172,5.98
	c0.334-1.151,0.825-2.298,1.503-3.397c3.257-5.298,9.331-7.48,13.569-4.875c4.237,2.606,5.031,9.013,1.773,14.312
	c-0.914,1.491-2.06,2.723-3.318,3.683c2.625-1.252,5.69-1.247,8.213,0.304c2.299,1.414,3.693,3.573,3.933,6.418
	c-0.636-3.867,3.234-7.299,6.114-6.688c2.729,0.579,4.71,3.62,4.592,6.914c3.238-6.363,9.568-10.884,17.015-11.577
	c-7.167-7.374-8.267-18.299-2.252-25.166c6.377-7.286,18.337-7.245,26.714,0.089c0.479,0.42,0.935,0.856,1.369,1.303
	c-0.074-2.564,0.346-5.235,1.318-7.853c3.602-9.654,13.373-14.925,21.833-11.773c7.866,2.933,11.824,12.121,9.442,21.159
	c2.281-2.786,5.743-4.567,9.626-4.567c6.869,0,12.438,5.568,12.438,12.437c0,2.135-0.541,4.143-1.488,5.898
	c0.768-0.13,1.552-0.213,2.354-0.213c5.9,0,10.945,3.649,13.017,8.811c-0.503-6.903,3.734-12.953,9.753-13.688
	c6.229-0.762,11.999,4.461,12.884,11.67c0.148,1.226,0.138,2.426,0,3.584c0.117-0.161,0.226-0.324,0.35-0.48
	c4.162-5.246,11.076-6.69,15.438-3.226c3.829,3.035,4.428,8.834,1.719,13.753c2.313-1.449,5.044-2.3,7.979-2.3
	c5.665,0,10.591,3.123,13.177,7.735c-0.363-1.513-0.559-3.09-0.559-4.714c0-11.09,8.985-20.077,20.074-20.077
	c6.983,0,13.133,3.568,16.725,8.978c-1.538-7.38,1.939-14.619,8.357-16.723c2.104-0.69,4.276-0.745,6.367-0.271v0.047
	c4.749,1.149,9.008,5.051,10.813,10.563c0.617,1.873,0.881,3.761,0.854,5.588c3.553-8.162,12.114-12.391,19.349-9.461
	c7.369,2.983,10.563,12.258,7.137,20.717c-0.69,1.712-1.606,3.256-2.684,4.61c2.268-1.064,4.795-1.662,7.466-1.662
	c9.714,0,17.591,7.875,17.591,17.589c0,1.042-0.093,2.06-0.271,3.052c2.522-2.609,6.05-4.237,9.963-4.237
	c2.557,0,4.945,0.706,7.005,1.916c0.177-7.497,6.299-13.523,13.839-13.523c3.01,0,5.79,0.971,8.067,2.604
	c0.873-6.811,6.678-12.079,13.729-12.079c1.564,0,3.063,0.272,4.465,0.75c-0.19-1.189-0.297-2.409-0.297-3.654
	c0-12.428,10.078-22.504,22.505-22.504c3.618,0,7.033,0.858,10.063,2.375c2.828-10.773,12.625-18.721,24.287-18.721
	c13.868,0,25.107,11.243,25.107,25.111c0,1.325-0.104,2.625-0.302,3.894c0.625-0.465,1.268-0.867,1.925-1.204
	c4.329-2.932,9.207-3.428,12.099-0.834c2.604,2.338,2.884,6.557,1.12,10.751c0.521-0.195,1.099-0.305,1.696-0.305
	c1.653,0,3.083,0.813,3.847,2.016c9.105-5.468,20.061-4.131,24.757,3.148c3.639,5.65,2.464,13.256-2.333,19.203
	c1.684,0.528,3.152,1.528,4.271,2.841c0.319-1.578,0.862-3.129,1.644-4.616c4.753-9.047,16.46-12.256,26.147-7.166
	c8.192,4.302,12.316,13.157,10.531,21.257c0.737-0.574,1.563-1.091,2.466-1.526c4.981-2.4,10.415-1.455,12.134,2.113
	c0.313,0.642,0.473,1.327,0.513,2.03c1.863-2.147,4.613-3.513,7.69-3.513c3.639,0,6.822,1.908,8.625,4.768
	c1.702-6.297,7.108-10.551,12.785-9.721c0.603,0.087,1.173,0.244,1.733,0.433c-1.749-2.38-2.798-5.31-2.798-8.489
	c0-7.934,6.431-14.365,14.363-14.365c3.534,0,6.768,1.282,9.269,3.398c-0.185-0.867-0.284-1.765-0.284-2.687
	c0-7.099,5.753-12.853,12.854-12.853c5.241,0,9.745,3.145,11.743,7.648c1.375-6.501,7.145-11.384,14.053-11.384
	c6.365,0,11.754,4.144,13.639,9.876c0.552-2.557,1.631-5.059,3.271-7.332c6.116-8.461,17.653-10.563,25.778-4.694
	c5.863,4.237,8.339,11.468,6.966,18.345c3.108-1.066,6.43-1.069,9.479,0.244c3.533,1.524,6.03,4.542,7.261,8.216
	c2.106-3.06,5.109-4.975,8.442-4.975c3.828,0,7.213,2.519,9.318,6.397c0.982-5.476,4.979-9.874,10.333-10.667
	c4.835-0.715,9.463,1.703,12.178,5.827c-0.706-2.168-1.093-4.482-1.093-6.888c0-12.168,9.745-22.031,21.766-22.031
	c12.022,0,21.766,9.863,21.766,22.031c0,0.538-0.025,1.068-0.063,1.595c1.867-1.017,4.006-1.595,6.28-1.595
	c7.264,0,13.149,5.887,13.149,13.148c0,3.147-1.107,6.034-2.952,8.298c3.602-1.541,7.646-1.137,10.381,1.416
	c0.612,0.571,1.109,1.222,1.517,1.919c0.58-5.539,5.265-9.857,10.953-9.857c5.269,0,9.662,3.695,10.753,8.632
	c2.24-1.408,4.885-2.236,7.729-2.236c5.274,0,9.881,2.814,12.438,7.013c0.044-8.591,5.91-15.541,13.146-15.541
	c5.162,0,9.621,3.536,11.772,8.678l0.107-0.049c-0.814-1.652-1.353-3.513-1.509-5.512c-0.585-7.435,4.178-13.873,10.634-14.38
	c5.831-0.459,11.037,4.078,12.427,10.433c1.861-4.393,5.386-8.082,10.146-10.036c5.848-2.401,12.209-1.625,17.176,1.521
	c-0.012-0.361-0.017-0.725-0.01-1.089c0.247-10.261,8.75-18.379,19.003-18.135c9.967,0.237,17.913,8.297,18.113,18.178
	c3.223-3.665,7.799-6.101,12.947-6.529v0.02c0.617-0.059,1.235-0.095,1.863-0.095c10.71,0,19.396,8.685,19.396,19.396
	c0,2.722-0.563,5.313-1.575,7.663c6.391-4.188,14.573-3.15,18.456,2.432c2.938,4.226,2.579,9.858-0.434,14.316
	c0.34-0.314,0.696-0.616,1.093-0.889c4.021-2.799,9.304-2.288,12.365,1.002c-0.025-0.384-0.059-0.768-0.059-1.16
	c0-8.144,6.604-14.747,14.748-14.747c0.009,0,0.015,0,0.021,0c-6.407-8.052-6.688-19.36-0.106-26.909
	c6.922-7.944,19-8.938,28.032-2.706c-0.031-0.43-0.051-0.862-0.051-1.3c0-10.205,8.271-18.478,18.478-18.478
	c3.252,0,6.305,0.844,8.962,2.319c-0.008-0.279-0.021-0.557-0.021-0.838c0-13.54,10.979-24.517,24.519-24.517
	c12.746,0,23.215,9.728,24.401,22.161c0.826-1.947,1.947-3.835,3.38-5.584c7.085-8.658,18.925-10.688,26.438-4.535
	c5.637,4.61,7.241,12.508,4.717,19.819c2.396-1.284,5.132-2.014,8.043-2.014c5.382,0,10.18,2.497,13.309,6.393
	c2.256-6.862,7.845-11.722,14.384-11.722c3.814,0,7.313,1.657,10.006,4.398c-0.15-1.029-0.232-2.082-0.232-3.154
	c0-11.774,9.543-21.319,21.319-21.319c4.874,0,9.362,1.64,12.956,4.393c-0.354-1.636-0.548-3.341-0.548-5.098
	c0-12.073,8.831-21.86,19.722-21.86c9.613,0,17.618,7.63,19.362,17.726c3.399-1.785,7.267-2.799,11.374-2.799
	c13.539,0,24.516,10.977,24.516,24.518c0,2.258-0.312,4.443-0.883,6.521c2.854-3.588,7.357-4.921,10.589-2.933
	c2,1.229,3.089,3.467,3.177,5.98c0.334-1.151,0.824-2.298,1.5-3.397c3.256-5.298,9.332-7.48,13.569-4.875
	c4.236,2.606,5.033,9.014,1.775,14.312c-0.917,1.49-2.062,2.723-3.317,3.683c2.625-1.252,5.688-1.247,8.211,0.304
	c2.297,1.413,3.693,3.573,3.935,6.418c-0.64-3.867,3.232-7.299,6.112-6.688c2.727,0.579,4.706,3.621,4.594,6.914
	c3.234-6.363,9.563-10.885,17.011-11.578c-7.166-7.374-8.265-18.298-2.252-25.166c6.377-7.285,18.337-7.245,26.718,0.089
	c0.479,0.42,0.93,0.856,1.369,1.304c-0.076-2.566,0.342-5.235,1.318-7.853c3.6-9.654,13.366-14.925,21.83-11.772
	c7.867,2.933,11.824,12.121,9.442,21.159c2.279-2.787,5.745-4.567,9.626-4.567c6.871,0,12.439,5.568,12.439,12.437
	c0,2.135-0.541,4.143-1.49,5.899c0.769-0.13,1.551-0.213,2.352-0.213c5.904,0,10.947,3.649,13.021,8.811
	c-0.504-6.904,3.73-12.953,9.751-13.689c6.232-0.762,12.004,4.462,12.885,11.67c0.149,1.226,0.136,2.426,0.004,3.583
	c0.114-0.16,0.226-0.324,0.35-0.48c4.16-5.246,11.074-6.69,15.438-3.226c3.828,3.035,4.425,8.834,1.716,13.753
	c2.316-1.449,5.047-2.3,7.983-2.3c5.661,0,10.591,3.122,13.178,7.735c-0.365-1.512-0.563-3.09-0.563-4.714
	c0-11.089,8.987-20.077,20.074-20.077c6.984,0,13.136,3.567,16.729,8.978c-1.54-7.38,1.937-14.619,8.354-16.724
	c2.104-0.689,4.276-0.744,6.366-0.271v0.047c4.748,1.149,9.009,5.051,10.813,10.563c0.615,1.873,0.881,3.761,0.854,5.588
	c3.551-8.162,12.114-12.392,19.351-9.461c7.363,2.983,10.561,12.258,7.136,20.717c-0.694,1.712-1.608,3.256-2.684,4.61
	c2.27-1.064,4.8-1.662,7.468-1.662c9.714,0,17.591,7.875,17.591,17.589c0,1.042-0.1,2.06-0.271,3.051
	c2.521-2.608,6.048-4.236,9.963-4.236c2.556,0,4.946,0.705,7.002,1.916c0.177-7.498,6.3-13.523,13.839-13.523
	c3.017,0,5.791,0.971,8.068,2.604c0.872-6.811,6.68-12.078,13.73-12.078c1.563,0,3.063,0.272,4.466,0.75
	c-0.193-1.189-0.298-2.41-0.298-3.654c0-12.428,10.076-22.504,22.505-22.504c3.616,0,7.032,0.858,10.059,2.376
	c2.828-10.773,12.629-18.721,24.29-18.721c13.868,0,25.109,11.242,25.109,25.111c0,1.325-0.104,2.625-0.303,3.894
	c0.623-0.466,1.268-0.867,1.923-1.204c4.333-2.932,9.211-3.428,12.101-0.834c2.604,2.338,2.885,6.557,1.12,10.751
	c0.521-0.195,1.101-0.305,1.696-0.305c1.654,0,3.084,0.814,3.847,2.017c9.105-5.468,20.063-4.132,24.755,3.148
	c3.645,5.65,2.467,13.257-2.33,19.204c1.68,0.528,3.153,1.527,4.27,2.84c0.32-1.578,0.863-3.129,1.645-4.616
	c4.751-9.048,16.459-12.255,26.152-7.166c8.188,4.302,12.313,13.156,10.523,21.257c0.74-0.574,1.563-1.091,2.47-1.526
	c4.98-2.401,10.416-1.455,12.137,2.113c0.31,0.642,0.469,1.327,0.506,2.03c1.867-2.148,4.619-3.513,7.695-3.513
	c3.633,0,6.818,1.907,8.623,4.767c1.702-6.297,7.106-10.551,12.787-9.721c0.603,0.087,1.173,0.244,1.729,0.433
	c-1.748-2.38-2.797-5.31-2.797-8.489c0-7.934,6.432-14.365,14.366-14.365c3.534,0,6.767,1.282,9.267,3.398
	c-0.183-0.867-0.283-1.764-0.283-2.687c0-7.099,5.754-12.853,12.853-12.853c5.245,0,9.75,3.145,11.745,7.647
	c1.375-6.501,7.145-11.384,14.053-11.384c6.361,0,11.754,4.144,13.641,9.876c0.547-2.557,1.626-5.059,3.271-7.332
	c6.11-8.461,17.65-10.562,25.772-4.693c5.867,4.236,8.343,11.468,6.968,18.345c3.11-1.066,6.436-1.068,9.479,0.244
	c3.537,1.523,6.032,4.542,7.264,8.216c2.104-3.059,5.106-4.975,8.442-4.975c3.823,0,7.217,2.52,9.313,6.397
	c0.983-5.475,4.979-9.874,10.334-10.666c4.833-0.716,9.462,1.703,12.177,5.826c-0.701-2.167-1.087-4.482-1.087-6.888
	c0-12.167,9.741-22.031,21.765-22.031c12.021,0,21.766,9.864,21.766,22.031c0,0.538-0.025,1.069-0.063,1.596
	c1.866-1.017,4.007-1.596,6.279-1.596c7.262,0,13.148,5.887,13.148,13.148c0,3.147-1.11,6.035-2.955,8.299
	c3.603-1.542,7.646-1.137,10.379,1.416c0.611,0.572,1.109,1.222,1.521,1.919c0.581-5.54,5.263-9.857,10.954-9.857
	c5.264,0,9.658,3.695,10.751,8.632c2.243-1.408,4.884-2.235,7.729-2.235c5.276,0,9.882,2.814,12.438,7.013
	c0.043-8.592,5.91-15.541,13.146-15.541c5.157,0,9.625,3.536,11.774,8.678l0.105-0.049c-0.813-1.652-1.354-3.513-1.514-5.512
	c-0.584-7.435,4.18-13.874,10.641-14.38c5.828-0.459,11.031,4.078,12.424,10.432c1.857-4.393,5.388-8.082,10.146-10.036
	c5.849-2.401,12.209-1.625,17.175,1.521c-0.015-0.361-0.017-0.724-0.011-1.089c0.246-10.261,8.754-18.379,19.002-18.135
	c9.972,0.237,17.914,8.297,18.116,18.178c3.22-3.666,7.8-6.102,12.948-6.531v671.293H0V276.985
	C0.613,276.926,1.231,276.89,1.863,276.89z"/>
<circle fill="none" stroke="#000000" stroke-miterlimit="10" cx="2132.819" cy="259.893" r="2.488"/>
<circle fill="none" stroke="#000000" stroke-miterlimit="10" cx="2168.709" cy="243.667" r="2.843"/>
<path fill="none" stroke="#000000" stroke-miterlimit="10" d="M2206.02,265.227c-0.718,0-1.297,0.582-1.297,1.299
	c0,0.718,0.579,1.3,1.297,1.3c0.722,0,1.303-0.582,1.303-1.3C2207.32,265.809,2206.739,265.227,2206.02,265.227z"/>
<circle fill="none" stroke="#000000" stroke-miterlimit="10" cx="2171.375" cy="272.034" r="4.442"/>
<path fill="none" stroke="#000000" stroke-miterlimit="10" d="M2188.609,285.36c-4.125,0-7.466,3.341-7.466,7.462
	c0,4.122,3.341,7.462,7.466,7.462c4.117,0,7.461-3.341,7.461-7.462C2196.07,288.701,2192.729,285.36,2188.609,285.36z"/>
<circle fill="none" stroke="#000000" stroke-miterlimit="10" cx="2189.496" cy="289.09" r="1.599"/>
<circle fill="none" stroke="#000000" stroke-miterlimit="10" cx="2229.65" cy="278.431" r="1.954"/>
<circle fill="none" stroke="#000000" stroke-miterlimit="10" cx="2266.784" cy="296.731" r="2.487"/>
<path fill="none" stroke="#000000" stroke-miterlimit="10" d="M2131.756,311.353c-2.091,0-3.783,1.692-3.783,3.78
	c0,2.088,1.692,3.78,3.783,3.78c2.083,0,3.778-1.692,3.778-3.78C2135.534,313.046,2133.839,311.353,2131.756,311.353z"/>
<circle fill="none" stroke="#000000" stroke-miterlimit="10" cx="2383.693" cy="271.857" r="1.877"/>
<circle fill="none" stroke="#000000" stroke-miterlimit="10" cx="2426.51" cy="274.167" r="2.665"/>
<circle fill="none" stroke="#000000" stroke-miterlimit="10" cx="2385.646" cy="300.106" r="4.798"/>
<circle fill="none" stroke="#000000" stroke-miterlimit="10" cx="2401.104" cy="314.854" r="6.396"/>
<circle fill="none" stroke="#000000" stroke-miterlimit="10" cx="2385.292" cy="298.329" r="1.244"/>
<path fill="none" stroke="#000000" stroke-miterlimit="10" d="M2399.862,310.589c-0.886,0-1.604,0.716-1.604,1.6
	c0,0.883,0.719,1.599,1.604,1.599c0.88,0,1.599-0.716,1.599-1.599C2401.461,311.305,2400.742,310.589,2399.862,310.589z"/>
<path fill="none" stroke="#000000" stroke-miterlimit="10" d="M2476.438,306.68c-3.927,0-7.106,3.182-7.106,7.106
	c0,3.925,3.182,7.107,7.106,7.107c3.923,0,7.104-3.182,7.104-7.107C2483.543,309.862,2480.359,306.68,2476.438,306.68z"/>
<circle fill="none" stroke="#000000" stroke-miterlimit="10" cx="2474.304" cy="310.944" r="1.599"/>
<path fill="none" stroke="#000000" stroke-miterlimit="10" d="M2510.727,262.618c-1.275,0-2.31,1.034-2.31,2.31
	c0,1.275,1.032,2.31,2.31,2.31c1.278,0,2.313-1.034,2.313-2.31C2513.038,263.652,2512.005,262.618,2510.727,262.618z"/>
<circle fill="none" stroke="#000000" stroke-miterlimit="10" cx="2543.773" cy="287.314" r="1.954"/>
<path fill="none" stroke="#000000" stroke-miterlimit="10" d="M2640.993,290.068c0,1.147-0.931,2.077-2.077,2.077
	c-1.148,0-2.075-0.929-2.075-2.077c0-1.147,0.927-2.077,2.075-2.077C2640.063,287.991,2640.993,288.921,2640.993,290.068z"/>
<path fill="none" stroke="#000000" stroke-miterlimit="10" d="M2695.861,271.571c-1.991,0-3.605,1.321-3.605,2.951
	s1.614,2.951,3.605,2.951c1.988,0,3.599-1.321,3.599-2.951S2697.85,271.571,2695.861,271.571z"/>
<path fill="none" stroke="#000000" stroke-miterlimit="10" d="M2714.87,315.209c-4.119,0-7.46,3.341-7.46,7.461
	c0,4.121,3.341,7.461,7.46,7.461c4.125,0,7.462-3.34,7.462-7.461C2722.332,318.55,2718.995,315.209,2714.87,315.209z"/>
<path fill="none" stroke="#000000" stroke-miterlimit="10" d="M2715.582,320.361c0,0.882-0.718,1.599-1.6,1.599
	s-1.6-0.717-1.6-1.599c0-0.883,0.718-1.599,1.6-1.599S2715.582,319.478,2715.582,320.361z"/>
<circle fill="none" stroke="#000000" stroke-miterlimit="10" cx="1438.982" cy="284.205" r="3.109"/>
<circle fill="none" stroke="#000000" stroke-miterlimit="10" cx="1665.426" cy="222.464" r="2.931"/>
<circle fill="none" stroke="#000000" stroke-miterlimit="10" cx="1553.493" cy="249.825" r="2.398"/>
<circle fill="none" stroke="#000000" stroke-miterlimit="10" cx="1773.805" cy="316.63" r="3.176"/>
<circle fill="none" stroke="#000000" stroke-miterlimit="10" cx="1548.873" cy="307.746" r="8.173"/>
<circle fill="none" stroke="#000000" stroke-miterlimit="10" cx="1549.109" cy="304.429" r="2.013"/>
<circle fill="none" stroke="#000000" stroke-miterlimit="10" cx="1692.124" cy="273.549" r="5.953"/>
<path fill="none" stroke="#000000" stroke-miterlimit="10" d="M1576.835,290.856c-3.827,0-6.932,3.102-6.932,6.93
	c0,3.827,3.104,6.93,6.932,6.93c3.825,0,6.929-3.103,6.929-6.93C1583.764,293.958,1580.66,290.856,1576.835,290.856z"/>
<circle fill="none" stroke="#000000" stroke-miterlimit="10" cx="1576.146" cy="295.051" r="1.707"/>
<circle fill="none" stroke="#000000" stroke-miterlimit="10" cx="1859.798" cy="251.957" r="1.777"/>
<ellipse fill="none" stroke="#000000" stroke-miterlimit="10" cx="1955.74" cy="272.212" rx="2.309" ry="2.132"/>
<path fill="none" stroke="#000000" stroke-miterlimit="10" d="M1927.829,322.95c-0.939,4.013-4.956,6.503-8.968,5.564
	c-4.016-0.938-6.502-4.954-5.563-8.966c0.938-4.013,4.952-6.504,8.966-5.564C1926.271,314.922,1928.764,318.937,1927.829,322.95z"/>
<circle fill="none" stroke="#000000" stroke-miterlimit="10" cx="1920.223" cy="318.798" r="1.599"/>
<path fill="none" stroke="#000000" stroke-miterlimit="10" d="M768.305,257.406c-1.375,0-2.487,1.114-2.487,2.487
	c0,1.374,1.112,2.488,2.487,2.488c1.371,0,2.486-1.114,2.486-2.488C770.791,258.52,769.676,257.406,768.305,257.406z"/>
<circle fill="none" stroke="#000000" stroke-miterlimit="10" cx="804.194" cy="243.667" r="2.843"/>
<path fill="none" stroke="#000000" stroke-miterlimit="10" d="M841.507,265.227c-0.72,0-1.301,0.582-1.301,1.299
	c0,0.718,0.582,1.3,1.301,1.3c0.716,0,1.299-0.582,1.299-1.3C842.807,265.809,842.223,265.227,841.507,265.227z"/>
<circle fill="none" stroke="#000000" stroke-miterlimit="10" cx="806.857" cy="272.034" r="4.442"/>
<circle fill="none" stroke="#000000" stroke-miterlimit="10" cx="824.094" cy="292.822" r="7.462"/>
<circle fill="none" stroke="#000000" stroke-miterlimit="10" cx="824.982" cy="289.09" r="1.599"/>
<circle fill="none" stroke="#000000" stroke-miterlimit="10" cx="865.135" cy="278.431" r="1.954"/>
<circle fill="none" stroke="#000000" stroke-miterlimit="10" cx="902.269" cy="296.731" r="2.487"/>
<circle fill="none" stroke="#000000" stroke-miterlimit="10" cx="767.238" cy="315.133" r="3.78"/>
<path fill="none" stroke="#000000" stroke-miterlimit="10" d="M1019.176,269.98c-1.035,0-1.879,0.84-1.879,1.876
	c0,1.037,0.844,1.877,1.879,1.877c1.037,0,1.876-0.84,1.876-1.877C1021.052,270.82,1020.212,269.98,1019.176,269.98z"/>
<path fill="none" stroke="#000000" stroke-miterlimit="10" d="M1061.996,271.502c-1.475,0-2.665,1.193-2.665,2.665
	s1.188,2.665,2.665,2.665c1.468,0,2.662-1.193,2.662-2.665C1064.658,272.694,1063.464,271.502,1061.996,271.502z"/>
<circle fill="none" stroke="#000000" stroke-miterlimit="10" cx="1021.13" cy="300.106" r="4.798"/>
<circle fill="none" stroke="#000000" stroke-miterlimit="10" cx="1036.589" cy="314.854" r="6.396"/>
<circle fill="none" stroke="#000000" stroke-miterlimit="10" cx="1020.776" cy="298.329" r="1.244"/>
<circle fill="none" stroke="#000000" stroke-miterlimit="10" cx="1035.345" cy="312.188" r="1.599"/>
<circle fill="none" stroke="#000000" stroke-miterlimit="10" cx="1111.921" cy="313.787" r="7.107"/>
<circle fill="none" stroke="#000000" stroke-miterlimit="10" cx="1109.787" cy="310.944" r="1.599"/>
<path fill="none" stroke="#000000" stroke-miterlimit="10" d="M1146.213,262.618c-1.275,0-2.313,1.034-2.313,2.31
	c0,1.275,1.037,2.31,2.313,2.31c1.274,0,2.307-1.034,2.307-2.31C1148.52,263.652,1147.487,262.618,1146.213,262.618z"/>
<path fill="none" stroke="#000000" stroke-miterlimit="10" d="M1179.259,285.36c-1.083,0-1.953,0.875-1.953,1.955
	c0,1.079,0.869,1.954,1.953,1.954c1.079,0,1.953-0.875,1.953-1.954C1181.212,286.235,1180.338,285.36,1179.259,285.36z"/>
<path fill="none" stroke="#000000" stroke-miterlimit="10" d="M1276.479,290.068c0,1.147-0.931,2.077-2.074,2.077
	c-1.147,0-2.077-0.929-2.077-2.077c0-1.147,0.93-2.077,2.077-2.077C1275.548,287.991,1276.479,288.921,1276.479,290.068z"/>
<ellipse fill="none" stroke="#000000" stroke-miterlimit="10" cx="1331.344" cy="274.522" rx="3.604" ry="2.951"/>
<circle fill="none" stroke="#000000" stroke-miterlimit="10" cx="1350.355" cy="322.671" r="7.461"/>
<path fill="none" stroke="#000000" stroke-miterlimit="10" d="M1351.068,320.361c0,0.882-0.72,1.599-1.603,1.599
	c-0.881,0-1.599-0.717-1.599-1.599c0-0.883,0.718-1.599,1.599-1.599C1350.35,318.762,1351.068,319.478,1351.068,320.361z"/>
<circle fill="none" stroke="#000000" stroke-miterlimit="10" cx="74.47" cy="284.205" r="3.109"/>
<path fill="none" stroke="#000000" stroke-miterlimit="10" d="M300.91,219.532c-1.616,0-2.929,1.313-2.929,2.932
	c0,1.619,1.313,2.931,2.929,2.931c1.622,0,2.935-1.312,2.935-2.931C303.845,220.845,302.532,219.532,300.91,219.532z"/>
<path fill="none" stroke="#000000" stroke-miterlimit="10" d="M188.976,247.427c-1.321,0-2.394,1.074-2.394,2.398
	c0,1.324,1.073,2.398,2.394,2.398c1.326,0,2.401-1.074,2.401-2.398C191.377,248.501,190.302,247.427,188.976,247.427z"/>
<path fill="none" stroke="#000000" stroke-miterlimit="10" d="M409.293,313.454c-1.758,0-3.18,1.422-3.18,3.176
	s1.422,3.177,3.18,3.177c1.75,0,3.172-1.422,3.172-3.177C412.465,314.876,411.043,313.454,409.293,313.454z"/>
<path fill="none" stroke="#000000" stroke-miterlimit="10" d="M184.36,299.573c-4.518,0-8.174,3.66-8.174,8.173
	c0,4.514,3.656,8.173,8.174,8.173c4.51,0,8.172-3.659,8.172-8.173C192.532,303.233,188.87,299.573,184.36,299.573z"/>
<circle fill="none" stroke="#000000" stroke-miterlimit="10" cx="184.596" cy="304.429" r="2.013"/>
<circle fill="none" stroke="#000000" stroke-miterlimit="10" cx="327.608" cy="273.549" r="5.953"/>
<path fill="none" stroke="#000000" stroke-miterlimit="10" d="M212.319,290.856c-3.828,0-6.927,3.102-6.927,6.93
	c0,3.827,3.1,6.93,6.927,6.93c3.829,0,6.929-3.103,6.929-6.93C219.248,293.958,216.148,290.856,212.319,290.856z"/>
<circle fill="none" stroke="#000000" stroke-miterlimit="10" cx="211.63" cy="295.051" r="1.707"/>
<circle fill="none" stroke="#000000" stroke-miterlimit="10" cx="495.284" cy="251.957" r="1.777"/>
<ellipse fill="none" stroke="#000000" stroke-miterlimit="10" cx="591.226" cy="272.212" rx="2.312" ry="2.132"/>
<path fill="none" stroke="#000000" stroke-miterlimit="10" d="M563.314,322.95c-0.941,4.013-4.955,6.503-8.969,5.564
	c-4.012-0.938-6.503-4.954-5.563-8.966c0.938-4.013,4.955-6.504,8.963-5.564C561.761,314.922,564.248,318.937,563.314,322.95z"/>
<circle fill="none" stroke="#000000" stroke-miterlimit="10" cx="555.71" cy="318.798" r="1.599"/>
<path d="M2449.645,307.669c-0.021,0.031-0.041,0.063-0.063,0.094c0.021-0.034,0.037-0.07,0.061-0.104
	C2449.64,307.663,2449.645,307.667,2449.645,307.669z"/>
<path d="M2312.256,313.911c1.897-5.926,7.123-9.846,12.598-9.045c0.438,0.063,0.854,0.163,1.269,0.281
	c-1.467-2.248-2.33-4.922-2.33-7.804c0-7.934,6.432-14.365,14.364-14.365c3.533,0,6.758,1.29,9.26,3.409
	c-2.271-9.424,5.801-15.55,12.572-15.55c5.261,0,9.771,3.165,11.763,7.688c1.354-6.52,7.116-11.423,14.037-11.423
	c6.383,0,11.771,4.176,13.642,9.938c0.541-2.578,1.613-5.103,3.271-7.395c6.112-8.461,17.652-10.562,25.772-4.693
	c5.762,4.163,8.252,11.218,7.032,17.986c3.093-1.047,6.388-1.056,9.413,0.248c3.48,1.5,5.951,4.453,7.197,8.05
	c2.104-2.963,5.057-4.81,8.332-4.81c3.814,0,7.193,2.518,9.294,6.384c0.93-5.553,4.949-10.03,10.354-10.831
	c4.929-0.729,9.645,1.805,12.332,6.081c-0.741-2.215-1.155-4.583-1.155-7.054c0-12.167,9.745-22.031,21.767-22.031
	c12.021,0,21.764,9.864,21.764,22.031c0,0.592-0.027,1.175-0.073,1.755c1.892-1.056,4.063-1.667,6.381-1.667
	c7.264,0,13.147,5.887,13.147,13.148c0,2.947-0.979,5.658-2.625,7.85c3.56-1.495,7.498-1.109,10.16,1.375
	c0.604,0.563,1.096,1.205,1.493,1.898c0.806-5.288,5.356-9.345,10.867-9.345c5.271,0,9.648,3.702,10.739,8.64
	c2.241-1.415,4.89-2.244,7.74-2.244c5.399,0,10.105,2.943,12.626,7.308c-0.004-0.068-0.014-0.133-0.014-0.201
	c0-8.634,5.889-15.635,13.147-15.635c7.265,0,13.148,7,13.148,15.635c0,0.204-0.006,0.405-0.012,0.607
	c-0.271-8.732-6.008-15.709-13.046-15.709c-7.093,0-12.863,7.08-13.054,15.902c0.014,0.697,0.057,1.383,0.145,2.055
	c-0.031-0.071-0.066-0.137-0.098-0.208c0.014,0.175,0.021,0.352,0.037,0.525c-0.033-0.202-0.049-0.412-0.078-0.616
	c-2.335-5.289-7.345-8.952-13.162-8.952c-6.577,0-12.136,4.679-13.946,11.104c0.761-3.96,3.127-7.34,6.388-9.461
	c-1.313-4.711-5.479-8.159-10.44-8.159c-5.572,0-10.154,4.338-10.812,9.935c-0.022,0.212-0.043,0.426-0.056,0.641
	c-0.439-1.16-1.126-2.219-2.063-3.096c-2.685-2.502-6.667-2.873-10.241-1.333c-0.037,0.042-0.068,0.085-0.103,0.126
	c0.026-0.038,0.05-0.077,0.077-0.115c-0.057,0.023-0.107,0.043-0.164,0.067c0.173-0.218,0.353-0.432,0.507-0.656
	c0.019-0.009,0.039-0.016,0.063-0.024c0.531-0.862,0.981-1.794,1.33-2.796c2.428-7.043-1.12-14.656-7.925-17.002
	c-3.479-1.199-7.135-0.781-10.196,0.852c-0.212,2.099-0.706,4.11-1.457,5.995c0.722-2.253,1.12-4.665,1.12-7.175
	c0-12.389-9.521-22.432-21.275-22.432c-11.752,0-21.274,10.043-21.274,22.432c0,2.292,0.342,4.496,0.955,6.578
	c0.071,0.24,0.151,0.479,0.233,0.716c-2.675-4.497-7.58-7.19-12.726-6.428c-5.252,0.778-9.229,4.925-10.397,10.155
	c0.017,0.024,0.026,0.047,0.041,0.072c-0.045,0.185-0.095,0.367-0.132,0.554c-0.006-0.014-0.015-0.027-0.022-0.041
	c-0.113,0.629-0.192,1.269-0.226,1.922c-0.016-0.715,0.033-1.417,0.118-2.107c-2.146-3.734-5.469-6.137-9.208-6.137
	c-5.568,0-10.226,5.324-11.422,12.461c0.307-2.846,1.182-5.441,2.464-7.571c-1.282-3.656-3.823-6.667-7.396-8.206
	c-2.789-1.203-5.805-1.327-8.678-0.575c-0.535,2.606-1.626,5.16-3.3,7.476c-1.305,1.805-2.861,3.312-4.572,4.521
	c5.416,0.252,9.733,4.764,9.733,10.312c0,3.932-2.176,7.339-5.361,9.086c4.768,1.186,8.309,5.48,8.309,10.617
	c0,6.052-4.905,10.958-10.963,10.958c-1.008,0-1.98-0.148-2.91-0.403c0.644,0.116,1.303,0.185,1.979,0.185
	c5.979,0,10.829-4.731,10.829-10.567c0-4.992-3.554-9.167-8.322-10.271c-0.009,0.002-0.017,0.007-0.022,0.01
	c-0.7-0.15-1.424-0.233-2.167-0.233c-0.327,0-0.65,0.023-0.969,0.055c0.228-0.032,0.447-0.08,0.669-0.127c-0.004,0-0.013,0-0.018,0
	c-0.075,0-0.149,0.006-0.229,0.007c0.653-0.114,1.29-0.296,1.895-0.534c0.023,0.001,0.048,0.006,0.068,0.008
	c3.627-1.456,6.187-4.868,6.187-8.862c0-5.166-4.266-9.368-9.609-9.607c0.057-0.043,0.107-0.091,0.165-0.134
	c-0.165,0.104-0.331,0.211-0.492,0.311c1.657-1.217,3.17-2.726,4.448-4.516c6.034-8.451,4.628-19.907-3.139-25.591
	c-7.764-5.682-18.952-3.439-24.983,5.011c-1.435,2.004-2.437,4.18-3.044,6.406c0.004,0.018,0.014,0.035,0.018,0.052
	c-0.155,0.584-0.285,1.17-0.391,1.755c-1.404-6.398-6.938-11.179-13.563-11.179c-6.645,0-12.175,4.804-13.564,11.222
	c0.011,0.021,0.017,0.043,0.024,0.064c-0.078,0.4-0.136,0.805-0.175,1.217c-1.671-5.094-6.369-8.768-11.916-8.768
	c-6.946,0-14.084,5.374-12.213,15.867c-0.057-0.161-0.102-0.316-0.146-0.476c0,0.005,0,0.009,0,0.014
	c-2.445-2.203-5.636-3.546-9.139-3.546c-7.729,0-13.996,6.495-13.996,14.507c0,2.509,0.624,4.859,1.709,6.917
	c4.617,1.377,7.824,6.036,8.083,11.534c1.381-2.386,3.954-3.997,6.908-3.997c4.296,0,7.788,3.391,7.972,7.641
	c1.203-1.851,3.278-3.08,5.648-3.08c3.729,0,6.752,3.023,6.752,6.751c0,2.93-1.871,5.417-4.479,6.351
	c2.254-1.035,3.829-3.354,3.829-6.055c0-3.664-2.89-6.634-6.455-6.634c-2.563,0-4.77,1.538-5.807,3.762
	c0-0.031,0.002-0.06,0.002-0.091c0-0.007,0-0.015,0-0.021c-0.002,0.001-0.002,0.003-0.002,0.004
	c-0.045-4.379-3.522-7.918-7.814-7.918c-3.205,0-5.949,1.972-7.156,4.791c0.004-0.077,0.01-0.153,0.01-0.231
	c0-0.004,0-0.007,0-0.012c0.01-0.022,0.02-0.043,0.027-0.066c-0.004,0.003-0.004,0.005-0.009,0.007
	c-0.163-6.256-3.903-11.479-9.188-12.25c-5.113-0.747-10.025,2.916-12.106,8.54C2312.386,314.111,2312.323,314.008,2312.256,313.911
	z"/>
<path d="M2629.037,299.668c0.01,0.103,0.021,0.202,0.031,0.304c-0.237-0.894-0.405-1.825-0.48-2.79
	c-0.584-7.435,4.18-13.873,10.642-14.38c5.793-0.458,10.971,4.032,12.395,10.333c1.853-4.427,5.386-8.148,10.173-10.114
	c5.852-2.401,12.207-1.625,17.178,1.521c0.008,0.292,0.021,0.583,0.049,0.873c-4.92-2.985-11.143-3.678-16.869-1.326
	c-8.992,3.691-13.58,13.569-10.863,22.699c-1.496-4.127-1.461-8.464-0.153-12.359c-1.702-6.657-6.591-11.334-11.959-10.912
	C2632.913,284.007,2628.378,291.239,2629.037,299.668z"/>
<path d="M1430.104,277.994c7.021-8.06,19.354-8.97,28.428-2.432c-0.059-0.578-0.09-1.16-0.09-1.751
	c0-10.205,8.271-18.478,18.478-18.478c3.104,0,6.025,0.774,8.591,2.127c-0.002-0.096-0.006-0.192-0.006-0.291
	c0-13.54,10.975-24.517,24.52-24.517c12.775,0,23.271,9.782,24.407,22.266c0.839-2.109,2.007-4.159,3.55-6.045
	c7.086-8.658,18.926-10.688,26.438-4.535c5.755,4.707,7.291,12.834,4.531,20.272c2.441-1.346,5.239-2.113,8.229-2.113
	c5.36,0,10.143,2.477,13.271,6.345c2.227-6.93,7.84-11.852,14.421-11.852c3.737,0,7.16,1.594,9.829,4.234
	c0.046,0.31,0.099,0.615,0.161,0.921c-2.668-2.558-6.058-4.089-9.751-4.089c-6.428,0-11.934,4.638-14.303,11.248
	c2.151,2.854,3.425,6.402,3.425,10.249c0,1.848-0.297,3.625-0.842,5.291c0.315-1.307,0.486-2.671,0.486-4.076
	c0-9.502-7.637-17.205-17.056-17.205c-7.491,0-13.847,4.871-16.14,11.645c1.193-4.552,4.226-8.36,8.251-10.586
	c-0.065,0.038-0.134,0.077-0.202,0.116c2.455-7.308,0.955-15.022-4.486-19.477c-7.422-6.074-19.335-3.787-26.614,5.108
	c-1.294,1.581-2.338,3.265-3.166,4.998c0.045,0.596,0.075,1.195,0.075,1.801c0,2.792-0.477,5.471-1.332,7.971
	c0.484-2,0.742-4.096,0.742-6.255c0-13.933-10.766-25.228-24.045-25.228c-13.021,0-23.623,10.864-24.027,24.425
	c0-0.002-0.006-0.004-0.012-0.005c0.006,0.069,0.006,0.14,0.008,0.21c-2.515-1.208-5.342-1.889-8.334-1.889
	c-10.451,0-18.922,8.273-18.922,18.479c0,0.26,0.017,0.516,0.026,0.771c0.549,0.401,1.088,0.823,1.608,1.278
	c0.851,0.742,1.638,1.531,2.354,2.358c-0.34-0.332-0.688-0.659-1.052-0.975c-9.479-8.259-23.155-8.08-30.543,0.4
	c-7.391,8.479-5.696,22.052,3.786,30.311c0.675,0.59,1.377,1.131,2.093,1.635c-1.297-0.747-2.542-1.628-3.715-2.651
	C1423.999,300.013,1422.624,286.575,1430.104,277.994z"/>
<path d="M1614.64,258.415c0-11.774,9.543-21.32,21.32-21.32c4.81,0,9.242,1.608,12.809,4.3c-0.363-1.663-0.577-3.393-0.577-5.181
	c0-12.073,8.832-21.86,19.722-21.86c9.607,0,17.608,7.62,19.358,17.704c3.39-1.768,7.232-2.776,11.316-2.776
	c13.54,0,24.52,10.977,24.52,24.518c0,2.307-0.344,4.531-0.938,6.648c2.834-3.867,7.538-5.353,10.881-3.298
	c2.063,1.269,3.134,3.612,3.154,6.222c0.331-1.183,0.825-2.362,1.521-3.491c3.259-5.298,9.333-7.48,13.572-4.875
	c4.236,2.606,5.029,9.014,1.775,14.312c-0.983,1.596-2.229,2.892-3.595,3.877c2.702-1.438,5.935-1.514,8.574,0.109
	c1.775,1.093,2.99,2.772,3.578,4.687c0.916-3.446,3.854-5.706,6.725-5.094c2.82,0.598,4.566,3.73,4.113,7.163
	c3.32-6.343,9.736-10.804,17.239-11.386c-7.357-7.375-8.538-18.445-2.466-25.38c6.379-7.285,18.339-7.244,26.715,0.089
	c0.349,0.304,0.679,0.617,1.002,0.935c-0.119-0.105-0.229-0.214-0.349-0.318c-8.413-7.364-20.32-7.521-26.603-0.349
	c-6.275,7.17-4.549,18.953,3.866,26.317c2.659,2.328,5.667,3.933,8.738,4.816c-3.431-0.775-6.813-2.447-9.749-5.021
	c-0.143-0.121-0.274-0.247-0.409-0.37c-10.779,0.896-19.257,10.096-19.257,21.328c0,3.614,0.891,7.011,2.438,9.998
	c1.789-0.075,3.554,0.06,5.266,0.4c-2.737-0.321-5.598-0.157-8.445,0.576c-8.168,2.097-14.166,8.266-16.216,15.626
	c-2.627,8.534,0.077,17.75,6.646,23.485c-3.813-2.941-6.725-7.126-8.017-12.156c-3.072-11.975,4.145-24.174,16.116-27.249
	c1.351-0.346,2.703-0.557,4.041-0.649c-1.879-3.175-2.975-6.873-2.975-10.832c0-3.214,0.712-6.261,1.987-8.993
	c0.555-3.599-1.026-6.86-3.688-7.425c-2.738-0.583-5.591,1.91-6.466,5.593c0.395,2.239-0.023,4.692-1.354,6.859
	c-0.177,0.286-0.364,0.559-0.564,0.821c2.684-4.684,1.655-10.381-2.388-12.867c-3.664-2.253-8.563-1.106-11.661,2.479
	c0.924-1.355,2.122-2.41,3.448-3.138c1.034-0.933,1.979-2.055,2.775-3.352c3.378-5.495,2.86-11.954-1.159-14.426
	c-4.021-2.471-10.02-0.02-13.395,5.476c-0.587,0.951-1.048,1.931-1.397,2.914c-0.006,0.082,0.004,0.163-0.002,0.247
	c-0.219,0.69-0.396,1.379-0.498,2.061l-0.1-0.094c0.557-3.285-0.504-6.43-3.021-7.979c-3.547-2.181-8.623-0.373-11.377,4.033
	c0.035-0.1,0.071-0.197,0.104-0.298c0.075-0.141,0.155-0.281,0.237-0.421c0.55-2.05,0.861-4.199,0.861-6.426
	c0-13.542-10.818-24.518-24.166-24.518c-3.892,0-7.558,0.943-10.809,2.6c0.131,1.028,0.206,2.078,0.206,3.147
	c0,1.707-0.186,3.367-0.518,4.962c0.218-1.32,0.34-2.681,0.34-4.074c0-12.073-8.67-21.86-19.364-21.86s-19.365,9.787-19.365,21.86
	c0,1.694,0.183,3.336,0.505,4.919c-0.033-0.03-0.074-0.058-0.108-0.087c0.03,0.136,0.061,0.272,0.091,0.408
	c-3.574-2.95-8.082-4.713-12.983-4.713c-11.632,0-21.054,9.89-21.054,22.089c0,2.207,0.313,4.336,0.886,6.347
	C1615.145,263.689,1614.64,261.112,1614.64,258.415z"/>
<path d="M1838.24,224.704c8.462,3.153,12.399,13.535,8.804,23.189c-1.032,2.769-2.575,5.174-4.445,7.126
	c1.279-1.716,2.358-3.677,3.164-5.843c3.724-9.991,0.235-20.515-7.785-23.505c-8.021-2.99-17.544,2.685-21.269,12.677
	c-0.971,2.608-1.448,5.25-1.485,7.788c-0.374-3.102-0.02-6.42,1.188-9.659C1820.008,226.824,1829.78,221.552,1838.24,224.704z"/>
<path d="M1869.748,254.444c0,2.041-0.5,3.961-1.371,5.662c0.956-0.212,1.946-0.332,2.969-0.332c5.537,0,10.313,3.213,12.597,7.87
	c-0.229-6.658,3.946-12.389,9.796-13.104c6.231-0.761,12.004,4.462,12.885,11.67c0.155,1.285,0.146,2.543-0.012,3.751
	c0.016-0.021,0.025-0.042,0.047-0.063c4.31-5.3,11.47-6.758,15.993-3.259c3.674,2.844,4.454,8.084,2.309,12.794
	c-0.124,0.064-0.249,0.129-0.371,0.197c1.671-4.47,0.771-9.246-2.674-11.914c-4.308-3.335-11.002-2.147-15.354,2.558
	c-0.177,1.144-0.479,2.241-0.896,3.264c0.426-1.795,0.56-3.747,0.31-5.769c-0.901-7.386-6.377-12.793-12.224-12.078
	c-5.638,0.689-9.555,6.826-9.016,13.889c0.342,1.086,0.54,2.234,0.606,3.417c0.14,0.469,0.284,0.93,0.457,1.375
	c-0.153-0.279-0.296-0.575-0.432-0.868c0.006,0.103,0.016,0.202,0.016,0.306c0,2.043-0.443,3.98-1.229,5.731
	c0.296-1.225,0.473-2.506,0.473-3.835c0-8.172-6.024-14.794-13.468-14.794c-1.244,0-2.442,0.2-3.58,0.55
	c-2.242,3.271-6.002,5.418-10.265,5.418c-0.202,0-0.402-0.021-0.603-0.031c6.666-0.313,11.972-5.421,11.972-11.695
	c0-6.476-5.649-11.727-12.613-11.727c-2.979,0-5.708,0.964-7.867,2.566c2.273-2.447,5.506-3.988,9.111-3.988
	C1864.18,242.007,1869.748,247.576,1869.748,254.444z"/>
<path d="M1932.111,277.72c5.749,0,10.733,3.22,13.287,7.948c-0.319-1.415-0.496-2.883-0.496-4.395
	c0-11.089,8.988-20.077,20.076-20.077c6.513,0,12.293,3.1,15.957,7.901c-1.177-7.125,2.268-13.968,8.473-16.003
	c2.264-0.742,4.613-0.75,6.844-0.153v0.053c4.557,1.289,8.591,5.112,10.339,10.441c0.687,2.083,0.939,4.188,0.84,6.204
	c0.021-0.055,0.035-0.109,0.063-0.164c3.425-8.458,12.175-12.897,19.539-9.914c7.366,2.983,10.561,12.258,7.136,20.717
	c-0.805,1.988-1.91,3.747-3.215,5.247c2.46-1.308,5.257-2.06,8.234-2.06c9.716,0,17.593,7.875,17.593,17.589
	c0,0.862-0.063,1.707-0.187,2.535c2.495-2.344,5.846-3.784,9.541-3.784c2.821,0,5.443,0.843,7.639,2.28
	c-0.033-0.36-0.057-0.722-0.057-1.091c0-7.13,5.78-12.911,12.91-12.911c3.335,0,6.363,1.271,8.654,3.35
	c0.08-7.292,6.009-13.181,13.313-13.181c1.692,0,3.302,0.326,4.786,0.9c-0.218-1.218-0.342-2.466-0.342-3.743
	c0-12.298,10.443-22.268,23.334-22.268c3.408,0,6.654,0.701,9.574,1.959c2.479-10.576,12.909-18.542,24.655-18.542
	c13.606,0,24.636,10.606,24.636,23.69c0,1.977-0.256,3.896-0.73,5.731c4.825-4.733,11.088-5.684,14.53-2.653
	c2.707,2.38,2.94,6.891,1.034,11.169c0.572-0.321,1.229-0.509,1.938-0.509c1.791,0,3.306,1.186,3.804,2.814
	c7.468-6.176,17.813-6.118,23.306,0.228c4.871,5.624,4.316,14.315-0.871,20.75c1.826,0.893,3.348,2.305,4.373,4.049
	c0.307-1.719,0.848-3.414,1.695-5.029c4.751-9.047,16.461-12.256,26.149-7.166c7.754,4.073,11.852,12.226,10.747,19.958
	c0.665-0.555,1.408-1.049,2.24-1.449c4.619-2.227,9.882-0.888,11.748,2.988c0.321,0.665,0.52,1.361,0.607,2.069
	c1.852-2.345,4.706-3.856,7.927-3.856c5.595,0,10.127,4.534,10.127,10.127c0,1.344-0.267,2.624-0.739,3.797
	c0.246-0.898,0.387-1.841,0.387-2.82c0-5.74-4.535-10.394-10.128-10.394c-3.009,0-5.692,1.362-7.546,3.503
	c0.201,2.851-1.363,5.844-4.146,7.763c2.567,0.647,4.471,2.964,4.471,5.732c0,3.271-2.652,5.922-5.924,5.922
	c-0.764,0-1.492-0.149-2.162-0.412c0.467,0.11,0.949,0.175,1.451,0.175c3.271,0,5.922-2.493,5.922-5.567
	c0-2.783-2.175-5.082-5.012-5.494c0.046-0.032,0.091-0.066,0.138-0.1c-0.094-0.015-0.187-0.032-0.278-0.042
	c3.129-1.786,5.051-4.704,5.098-7.445c-0.008,0.012-0.021,0.021-0.027,0.032c-0.006-0.097-0.01-0.195-0.02-0.291
	c0.014-0.02,0.023-0.036,0.041-0.054c-0.027-0.751-0.192-1.486-0.525-2.175c-1.677-3.482-6.785-4.5-11.404-2.274
	c-2.139,1.029-3.794,2.575-4.796,4.281c0.129-0.408,0.233-0.829,0.337-1.25c-0.051,0.049-0.107,0.095-0.162,0.145
	c2.528-8.497-1.022-17.758-8.934-21.914c-9.034-4.743-20.321-1.036-25.215,8.282c-0.677,1.287-1.185,2.613-1.552,3.955
	c0.579,1.285,0.906,2.706,0.906,4.206c0,5.691-4.613,10.305-10.306,10.305c-1.725,0-3.346-0.429-4.772-1.176
	c1.683,0.528,3.556,0.667,5.459,0.298c5.593-1.082,9.333-6.02,8.364-11.028c-0.97-5.009-6.285-8.194-11.872-7.114
	c-2.326,0.451-4.327,1.576-5.81,3.091c1.844-2.815,5.016-4.681,8.629-4.681c1.393,0,2.713,0.28,3.925,0.778
	c4.405-6.396,4.772-14.3,0.339-19.423c-5.045-5.827-14.534-6.008-22.07-0.769c0.035,0.212,0.059,0.428,0.059,0.649
	c0,1.384-0.707,2.603-1.783,3.314c0.803-0.704,1.311-1.718,1.311-2.849c0-2.126-1.778-3.85-3.975-3.85
	c-1.08,0-2.061,0.417-2.771,1.094c0.131-0.192,0.289-0.365,0.453-0.53c-0.041,0.017-0.078,0.029-0.119,0.047
	c2.045-4.47,1.938-8.861-0.707-11.187c-3.168-2.787-8.944-1.712-13.953,2.231c-0.264,0.955-0.575,1.889-0.952,2.794
	c0.248-0.818,0.439-1.66,0.603-2.513c-0.146,0.123-0.297,0.238-0.447,0.366c0.156-0.171,0.317-0.328,0.475-0.492
	c0.263-1.417,0.416-2.872,0.416-4.365c0-13.281-10.816-24.045-24.162-24.045c-11.002,0-20.896,7.381-23.823,17.39
	c7.226,3.349,12.371,10.148,13.073,18.158c-2.314-11.122-11.574-19.439-22.65-19.439c-12.822,0-23.218,11.137-23.218,24.874
	c0,0.765,0.037,1.521,0.1,2.268c-0.13-0.469-0.249-0.943-0.349-1.423c-1.354-0.465-2.799-0.726-4.313-0.726
	c-7.229,0-13.095,5.759-13.305,12.939c1.178,1.219,2.126,2.664,2.754,4.271c-2.057-4.323-6.44-7.318-11.54-7.318
	c-7.063,0-12.791,5.741-12.791,12.822c0,0.23,0.017,0.459,0.028,0.687c3.492,2.54,5.774,6.649,5.774,11.3
	c0,1.635-0.295,3.197-0.81,4.655c0.367-1.251,0.571-2.573,0.571-3.944c0-7.719-6.259-13.977-13.979-13.977
	c-3.636,0-6.931,1.41-9.413,3.691c-0.985,5.43-4.448,9.993-9.194,12.458c2.546-1.706,4.717-4.101,6.199-7.078
	c4.387-8.778,1.185-19.269-7.153-23.433c-8.334-4.165-18.646-0.426-23.031,8.352c-0.758,1.513-1.282,3.077-1.602,4.651
	c0.609-5.667,3.915-10.517,8.603-13.27c1.085-1.403,2.02-2.995,2.729-4.761c3.497-8.63,0.581-17.954-6.507-20.823
	c-7.09-2.871-15.668,1.798-19.16,10.428c-0.015,0.031-0.022,0.063-0.035,0.093c-0.006,0.031-0.006,0.063-0.01,0.093
	c0-0.021-0.002-0.043-0.002-0.064c-0.519,1.308-0.877,2.629-1.114,3.943c0.146-1.593,0.508-3.208,1.1-4.801
	c-0.056-1.668-0.327-3.378-0.887-5.081c-1.791-5.464-5.863-9.401-10.403-10.691v-0.041c-2.112-0.57-4.327-0.572-6.45,0.125
	c-5.863,1.923-9.133,8.46-8.168,15.432c1.396,1.983,2.454,4.22,3.063,6.643c-2.593-8.087-10.172-13.942-19.117-13.942
	c-11.087,0-20.08,8.987-20.08,20.077c0,1.179,0.113,2.331,0.311,3.454c0.608,1.202,1.075,2.495,1.351,3.857
	c-0.286-0.964-0.673-1.883-1.126-2.76c0.025,0.112,0.043,0.228,0.073,0.34c-0.046-0.138-0.077-0.282-0.118-0.422
	c-2.625-4.979-7.816-8.378-13.811-8.378c-5.662,0-10.621,3.026-13.363,7.557C1921.031,281.167,1926.164,277.72,1932.111,277.72z"/>
<path d="M2678.962,283.273c0.245-10.261,8.753-18.379,19.002-18.135c9.798,0.233,17.64,8.026,18.095,17.676
	c3.342-3.417,7.894-5.639,12.971-5.943v0.906c-5.024,0.163-9.563,2.236-12.947,5.521c0.006,0.285,0.01,0.571,0.004,0.859
	c-0.023,0.811-0.1,1.606-0.219,2.387c0.019-0.298,0.035-0.596,0.041-0.898c0.263-10.8-7.639-19.746-17.637-19.984
	c-9.996-0.238-18.313,8.324-18.57,19.124c-0.053,2.278,0.264,4.473,0.875,6.522C2679.477,288.859,2678.896,286.134,2678.962,283.273
	z"/>
<path d="M1085.129,307.669c-0.021,0.031-0.039,0.063-0.063,0.094c0.021-0.034,0.039-0.07,0.061-0.104
	C1085.127,307.663,1085.127,307.667,1085.129,307.669z"/>
<path d="M947.742,313.911c1.894-5.926,7.12-9.846,12.598-9.045c0.434,0.063,0.854,0.163,1.268,0.281
	c-1.47-2.248-2.334-4.922-2.334-7.804c0-7.934,6.434-14.365,14.366-14.365c3.534,0,6.762,1.29,9.263,3.409
	c-2.273-9.424,5.801-15.55,12.572-15.55c5.258,0,9.771,3.165,11.759,7.688c1.354-6.52,7.114-11.423,14.039-11.423
	c6.386,0,11.771,4.176,13.638,9.938c0.544-2.578,1.616-5.103,3.271-7.395c6.112-8.461,17.653-10.562,25.774-4.693
	c5.764,4.163,8.255,11.218,7.036,17.986c3.088-1.047,6.387-1.056,9.409,0.248c3.479,1.5,5.95,4.453,7.196,8.05
	c2.104-2.963,5.057-4.81,8.332-4.81c3.82,0,7.194,2.518,9.297,6.384c0.929-5.553,4.949-10.03,10.354-10.831
	c4.93-0.729,9.646,1.805,12.333,6.081c-0.743-2.215-1.153-4.583-1.153-7.054c0-12.167,9.742-22.031,21.763-22.031
	s21.766,9.864,21.766,22.031c0,0.592-0.024,1.175-0.072,1.755c1.893-1.056,4.063-1.667,6.38-1.667
	c7.265,0,13.148,5.887,13.148,13.148c0,2.947-0.982,5.658-2.622,7.85c3.556-1.495,7.495-1.109,10.156,1.375
	c0.604,0.563,1.095,1.205,1.494,1.898c0.809-5.288,5.358-9.345,10.871-9.345c5.267,0,9.646,3.702,10.731,8.64
	c2.244-1.415,4.897-2.244,7.746-2.244c5.401,0,10.107,2.943,12.624,7.308c0-0.068-0.01-0.133-0.01-0.201
	c0-8.634,5.887-15.635,13.149-15.635c7.26,0,13.145,7,13.145,15.635c0,0.204-0.005,0.405-0.013,0.607
	c-0.269-8.732-6.004-15.709-13.046-15.709c-7.092,0-12.861,7.08-13.047,15.902c0.008,0.697,0.054,1.383,0.142,2.055
	c-0.031-0.071-0.063-0.137-0.095-0.208c0.012,0.175,0.021,0.352,0.037,0.525c-0.035-0.202-0.053-0.412-0.082-0.616
	c-2.332-5.289-7.346-8.952-13.161-8.952c-6.575,0-12.134,4.679-13.944,11.104c0.759-3.96,3.125-7.34,6.385-9.461
	c-1.313-4.711-5.48-8.159-10.441-8.159c-5.568,0-10.15,4.338-10.809,9.935c-0.023,0.212-0.043,0.426-0.057,0.641
	c-0.443-1.16-1.126-2.219-2.064-3.096c-2.685-2.502-6.666-2.873-10.243-1.333c-0.033,0.042-0.064,0.085-0.101,0.126
	c0.025-0.038,0.051-0.077,0.074-0.115c-0.053,0.023-0.105,0.043-0.162,0.067c0.171-0.218,0.348-0.432,0.504-0.656
	c0.021-0.009,0.041-0.016,0.063-0.024c0.537-0.862,0.984-1.794,1.332-2.796c2.429-7.043-1.12-14.656-7.924-17.002
	c-3.48-1.199-7.132-0.781-10.198,0.852c-0.21,2.099-0.706,4.11-1.453,5.995c0.722-2.253,1.116-4.665,1.116-7.175
	c0-12.389-9.525-22.432-21.274-22.432c-11.75,0-21.277,10.043-21.277,22.432c0,2.292,0.345,4.496,0.957,6.578
	c0.071,0.24,0.153,0.479,0.232,0.716c-2.674-4.497-7.581-7.19-12.723-6.428c-5.253,0.778-9.232,4.925-10.397,10.155
	c0.013,0.024,0.023,0.047,0.039,0.072c-0.043,0.185-0.093,0.367-0.13,0.554c-0.01-0.014-0.017-0.027-0.021-0.041
	c-0.113,0.629-0.196,1.269-0.228,1.922c-0.016-0.715,0.031-1.417,0.115-2.107c-2.145-3.734-5.465-6.137-9.203-6.137
	c-5.568,0-10.228,5.324-11.426,12.461c0.312-2.846,1.185-5.441,2.464-7.571c-1.282-3.656-3.82-6.667-7.396-8.206
	c-2.791-1.203-5.805-1.327-8.676-0.575c-0.539,2.606-1.63,5.16-3.304,7.476c-1.305,1.805-2.855,3.312-4.572,4.521
	c5.418,0.252,9.734,4.764,9.734,10.312c0,3.932-2.174,7.339-5.361,9.086c4.77,1.186,8.309,5.48,8.309,10.617
	c0,6.052-4.904,10.958-10.961,10.958c-1.009,0-1.981-0.148-2.912-0.403c0.646,0.116,1.304,0.185,1.98,0.185
	c5.979,0,10.824-4.731,10.824-10.567c0-4.992-3.552-9.167-8.323-10.271c-0.007,0.002-0.013,0.007-0.02,0.01
	c-0.698-0.15-1.425-0.233-2.168-0.233c-0.327,0-0.647,0.023-0.966,0.055c0.225-0.032,0.447-0.08,0.667-0.127
	c-0.002,0-0.012,0-0.016,0c-0.078,0-0.156,0.006-0.229,0.007c0.657-0.114,1.292-0.296,1.896-0.534
	c0.024,0.001,0.043,0.006,0.067,0.008c3.631-1.456,6.181-4.868,6.181-8.862c0-5.166-4.257-9.368-9.605-9.607
	c0.058-0.043,0.107-0.091,0.161-0.134c-0.161,0.104-0.324,0.211-0.49,0.311c1.661-1.217,3.173-2.726,4.452-4.516
	c6.031-8.451,4.628-19.907-3.139-25.591c-7.765-5.682-18.95-3.439-24.985,5.011c-1.433,2.004-2.438,4.18-3.045,6.406
	c0.006,0.018,0.017,0.035,0.021,0.052c-0.16,0.584-0.286,1.17-0.391,1.755c-1.405-6.398-6.941-11.179-13.567-11.179
	c-6.643,0-12.175,4.804-13.563,11.222c0.006,0.021,0.018,0.043,0.023,0.064c-0.078,0.4-0.136,0.805-0.173,1.217
	c-1.677-5.094-6.371-8.768-11.918-8.768c-6.945,0-14.09,5.374-12.217,15.867c-0.053-0.161-0.096-0.316-0.142-0.476
	c0,0.005,0,0.009,0,0.014c-2.453-2.203-5.636-3.546-9.139-3.546c-7.734,0-14.002,6.495-14.002,14.507
	c0,2.509,0.63,4.859,1.715,6.917c4.615,1.377,7.822,6.036,8.081,11.534c1.381-2.386,3.95-3.997,6.906-3.997
	c4.298,0,7.787,3.391,7.976,7.641c1.2-1.851,3.274-3.08,5.646-3.08c3.73,0,6.755,3.023,6.755,6.751c0,2.93-1.872,5.417-4.481,6.351
	c2.256-1.035,3.829-3.354,3.829-6.055c0-3.664-2.891-6.634-6.455-6.634c-2.563,0-4.77,1.538-5.813,3.762
	c0-0.031,0.01-0.06,0.01-0.091c0-0.007,0-0.015,0-0.021c-0.005,0.001-0.005,0.003-0.01,0.004c-0.038-4.379-3.52-7.918-7.813-7.918
	c-3.201,0-5.949,1.972-7.155,4.791c0-0.077,0.011-0.153,0.011-0.231c0-0.004,0-0.007,0-0.012c0.009-0.022,0.019-0.043,0.026-0.066
	c-0.004,0.003-0.006,0.005-0.006,0.007c-0.166-6.256-3.907-11.479-9.195-12.25c-5.109-0.747-10.021,2.916-12.104,8.54
	C947.872,314.111,947.81,314.008,947.742,313.911z"/>
<path d="M1264.521,299.668c0.011,0.103,0.021,0.202,0.03,0.304c-0.237-0.894-0.403-1.825-0.48-2.79
	c-0.583-7.435,4.182-13.873,10.638-14.38c5.799-0.458,10.975,4.032,12.4,10.333c1.848-4.427,5.383-8.148,10.171-10.114
	c5.848-2.401,12.209-1.625,17.176,1.521c0.01,0.292,0.024,0.583,0.051,0.873c-4.924-2.985-11.144-3.678-16.873-1.326
	c-8.989,3.691-13.577,13.569-10.862,22.699c-1.5-4.127-1.457-8.464-0.153-12.359c-1.702-6.657-6.59-11.334-11.957-10.912
	C1268.398,284.007,1263.861,291.239,1264.521,299.668z"/>
<path d="M65.588,277.994c7.021-8.06,19.353-8.97,28.429-2.432c-0.057-0.578-0.093-1.16-0.093-1.751
	c0-10.205,8.273-18.478,18.476-18.478c3.107,0,6.027,0.774,8.596,2.127c-0.004-0.096-0.01-0.192-0.01-0.291
	c0-13.54,10.977-24.517,24.518-24.517c12.781,0,23.273,9.782,24.407,22.266c0.844-2.109,2.011-4.159,3.553-6.045
	c7.087-8.658,18.921-10.688,26.439-4.535c5.752,4.707,7.291,12.834,4.533,20.272c2.438-1.346,5.241-2.113,8.225-2.113
	c5.362,0,10.14,2.477,13.269,6.345c2.227-6.93,7.837-11.852,14.423-11.852c3.736,0,7.159,1.594,9.827,4.234
	c0.047,0.31,0.104,0.615,0.166,0.921c-2.67-2.558-6.06-4.089-9.751-4.089c-6.427,0-11.933,4.638-14.304,11.248
	c2.149,2.854,3.425,6.402,3.425,10.249c0,1.848-0.297,3.625-0.842,5.291c0.317-1.307,0.484-2.671,0.484-4.076
	c0-9.502-7.633-17.205-17.052-17.205c-7.49,0-13.849,4.871-16.14,11.645c1.196-4.552,4.226-8.36,8.252-10.586
	c-0.068,0.038-0.134,0.077-0.202,0.116c2.458-7.308,0.958-15.022-4.485-19.477c-7.423-6.074-19.339-3.787-26.618,5.108
	c-1.293,1.581-2.34,3.265-3.163,4.998c0.043,0.596,0.07,1.195,0.07,1.801c0,2.792-0.473,5.471-1.33,7.971
	c0.484-2,0.747-4.096,0.747-6.255c0-13.933-10.766-25.228-24.049-25.228c-13.022,0-23.622,10.864-24.026,24.425
	c-0.002-0.002-0.006-0.004-0.008-0.005c0.002,0.069,0.002,0.14,0.006,0.21c-2.517-1.208-5.344-1.889-8.337-1.889
	c-10.447,0-18.921,8.273-18.921,18.479c0,0.26,0.018,0.516,0.031,0.771c0.546,0.401,1.085,0.823,1.608,1.278
	c0.848,0.742,1.634,1.531,2.351,2.358c-0.342-0.332-0.69-0.659-1.052-0.975c-9.48-8.259-23.156-8.08-30.545,0.4
	c-7.388,8.479-5.692,22.052,3.785,30.311c0.679,0.59,1.379,1.131,2.095,1.635c-1.295-0.747-2.538-1.628-3.714-2.651
	C59.483,300.013,58.11,286.575,65.588,277.994z"/>
<path d="M250.124,258.415c0-11.774,9.543-21.32,21.321-21.32c4.812,0,9.244,1.608,12.808,4.3c-0.365-1.663-0.578-3.393-0.578-5.181
	c0-12.073,8.833-21.86,19.72-21.86c9.611,0,17.61,7.62,19.365,17.704c3.384-1.768,7.23-2.776,11.314-2.776
	c13.542,0,24.518,10.977,24.518,24.518c0,2.307-0.342,4.531-0.938,6.648c2.833-3.867,7.538-5.353,10.881-3.298
	c2.062,1.269,3.133,3.612,3.154,6.222c0.327-1.183,0.825-2.362,1.521-3.491c3.259-5.298,9.331-7.48,13.571-4.875
	c4.239,2.606,5.033,9.014,1.775,14.312c-0.982,1.596-2.225,2.892-3.59,3.877c2.699-1.438,5.93-1.514,8.572,0.109
	c1.776,1.093,2.989,2.772,3.577,4.687c0.918-3.446,3.851-5.706,6.729-5.094c2.814,0.598,4.566,3.73,4.111,7.163
	c3.32-6.343,9.733-10.804,17.238-11.386c-7.355-7.375-8.538-18.445-2.466-25.38c6.377-7.285,18.337-7.244,26.714,0.089
	c0.348,0.304,0.679,0.617,1.001,0.935c-0.119-0.105-0.229-0.214-0.35-0.318c-8.415-7.364-20.319-7.521-26.601-0.349
	c-6.278,7.17-4.545,18.953,3.869,26.317c2.654,2.328,5.667,3.933,8.732,4.816c-3.427-0.775-6.805-2.447-9.748-5.021
	c-0.138-0.121-0.27-0.247-0.402-0.37c-10.782,0.896-19.263,10.096-19.263,21.328c0,3.614,0.895,7.011,2.443,9.998
	c1.787-0.075,3.551,0.06,5.262,0.4c-2.738-0.321-5.599-0.157-8.446,0.576c-8.168,2.097-14.166,8.266-16.213,15.626
	c-2.63,8.534,0.073,17.75,6.646,23.485c-3.819-2.941-6.725-7.126-8.016-12.156c-3.073-11.975,4.14-24.174,16.11-27.249
	c1.352-0.346,2.704-0.557,4.043-0.649c-1.879-3.175-2.976-6.873-2.976-10.832c0-3.214,0.714-6.261,1.988-8.993
	c0.556-3.599-1.027-6.86-3.688-7.425c-2.735-0.583-5.589,1.91-6.466,5.593c0.393,2.239-0.021,4.692-1.354,6.859
	c-0.178,0.286-0.364,0.559-0.563,0.821c2.678-4.684,1.655-10.381-2.391-12.867c-3.664-2.253-8.563-1.106-11.661,2.479
	c0.924-1.355,2.122-2.41,3.444-3.138c1.033-0.933,1.98-2.055,2.779-3.352c3.378-5.495,2.857-11.954-1.161-14.426
	c-4.018-2.471-10.016-0.02-13.394,5.476c-0.585,0.951-1.046,1.931-1.396,2.914c-0.008,0.082,0.002,0.163-0.004,0.247
	c-0.218,0.69-0.395,1.379-0.5,2.061l-0.093-0.094c0.552-3.285-0.507-6.43-3.028-7.979c-3.545-2.181-8.619-0.373-11.371,4.033
	c0.033-0.1,0.068-0.197,0.104-0.298c0.069-0.141,0.155-0.281,0.234-0.421c0.549-2.05,0.86-4.199,0.86-6.426
	c0-13.542-10.819-24.518-24.166-24.518c-3.888,0-7.555,0.943-10.809,2.6c0.134,1.028,0.208,2.078,0.208,3.147
	c0,1.707-0.185,3.367-0.517,4.962c0.219-1.32,0.339-2.681,0.339-4.074c0-12.073-8.671-21.86-19.365-21.86
	s-19.366,9.787-19.366,21.86c0,1.694,0.183,3.336,0.507,4.919c-0.035-0.03-0.076-0.058-0.109-0.087
	c0.031,0.136,0.059,0.272,0.09,0.408c-3.577-2.95-8.085-4.713-12.987-4.713c-11.626,0-21.053,9.89-21.053,22.089
	c0,2.207,0.312,4.336,0.885,6.347C250.627,263.689,250.124,261.112,250.124,258.415z"/>
<path d="M473.728,224.704c8.458,3.153,12.398,13.535,8.802,23.189c-1.033,2.769-2.573,5.174-4.442,7.126
	c1.278-1.716,2.357-3.677,3.161-5.843c3.726-9.991,0.239-20.515-7.783-23.505c-8.024-2.99-17.546,2.685-21.27,12.677
	c-0.973,2.608-1.447,5.25-1.484,7.788c-0.375-3.102-0.021-6.42,1.184-9.659C455.494,226.824,465.266,221.552,473.728,224.704z"/>
<path d="M505.231,254.444c0,2.041-0.5,3.961-1.369,5.662c0.955-0.212,1.947-0.332,2.972-0.332c5.537,0,10.308,3.213,12.591,7.87
	c-0.229-6.658,3.948-12.389,9.8-13.104c6.229-0.761,11.999,4.462,12.884,11.67c0.154,1.285,0.144,2.543-0.017,3.751
	c0.017-0.021,0.029-0.042,0.046-0.063c4.313-5.3,11.479-6.758,15.996-3.259c3.676,2.844,4.454,8.084,2.309,12.794
	c-0.123,0.064-0.245,0.129-0.37,0.197c1.674-4.47,0.771-9.246-2.676-11.914c-4.31-3.335-11-2.147-15.354,2.558
	c-0.175,1.144-0.473,2.241-0.896,3.264c0.428-1.795,0.558-3.747,0.313-5.769c-0.904-7.386-6.377-12.793-12.225-12.078
	c-5.64,0.689-9.555,6.826-9.018,13.889c0.34,1.086,0.542,2.234,0.612,3.417c0.132,0.469,0.282,0.93,0.453,1.375
	c-0.155-0.279-0.292-0.575-0.434-0.868c0.007,0.103,0.02,0.202,0.02,0.306c0,2.043-0.447,3.98-1.231,5.731
	c0.295-1.225,0.475-2.506,0.475-3.835c0-8.172-6.029-14.794-13.47-14.794c-1.241,0-2.438,0.2-3.581,0.55
	c-2.238,3.271-6.001,5.418-10.267,5.418c-0.2,0-0.396-0.021-0.599-0.031c6.669-0.313,11.972-5.421,11.972-11.695
	c0-6.476-5.649-11.727-12.614-11.727c-2.979,0-5.71,0.964-7.869,2.566c2.275-2.447,5.51-3.988,9.109-3.988
	C499.667,242.007,505.231,247.576,505.231,254.444z"/>
<path d="M567.595,277.72c5.749,0,10.737,3.22,13.289,7.948c-0.315-1.415-0.494-2.883-0.494-4.395
	c0-11.089,8.985-20.077,20.074-20.077c6.511,0,12.291,3.1,15.959,7.901c-1.18-7.125,2.264-13.968,8.472-16.003
	c2.264-0.742,4.611-0.75,6.844-0.153v0.053c4.557,1.289,8.594,5.112,10.342,10.441c0.685,2.083,0.938,4.188,0.836,6.204
	c0.021-0.055,0.037-0.109,0.058-0.164c3.425-8.458,12.177-12.897,19.542-9.914c7.367,2.983,10.564,12.258,7.135,20.717
	c-0.801,1.988-1.908,3.747-3.213,5.247c2.458-1.308,5.258-2.06,8.236-2.06c9.714,0,17.589,7.875,17.589,17.589
	c0,0.862-0.063,1.707-0.185,2.535c2.499-2.344,5.848-3.784,9.542-3.784c2.823,0,5.441,0.843,7.639,2.28
	c-0.031-0.36-0.057-0.722-0.057-1.091c0-7.13,5.778-12.911,12.909-12.911c3.332,0,6.362,1.271,8.651,3.35
	c0.082-7.292,6.011-13.181,13.32-13.181c1.688,0,3.3,0.326,4.788,0.9c-0.219-1.218-0.348-2.466-0.348-3.743
	c0-12.298,10.449-22.268,23.336-22.268c3.412,0,6.652,0.701,9.573,1.959c2.483-10.576,12.914-18.542,24.654-18.542
	c13.604,0,24.641,10.606,24.641,23.69c0,1.977-0.259,3.896-0.733,5.731c4.823-4.733,11.087-5.684,14.531-2.653
	c2.706,2.38,2.943,6.891,1.035,11.169c0.574-0.321,1.229-0.509,1.937-0.509c1.792,0,3.304,1.186,3.802,2.814
	c7.468-6.176,17.811-6.118,23.306,0.228c4.868,5.624,4.316,14.315-0.871,20.75c1.826,0.893,3.349,2.305,4.372,4.049
	c0.305-1.719,0.848-3.414,1.698-5.029c4.749-9.047,16.46-12.256,26.147-7.166c7.758,4.073,11.852,12.226,10.749,19.958
	c0.663-0.555,1.408-1.049,2.238-1.449c4.623-2.227,9.886-0.888,11.752,2.988c0.317,0.665,0.518,1.361,0.604,2.069
	c1.854-2.345,4.71-3.856,7.929-3.856c5.595,0,10.128,4.534,10.128,10.127c0,1.344-0.268,2.624-0.743,3.797
	c0.249-0.898,0.389-1.841,0.389-2.82c0-5.74-4.536-10.394-10.127-10.394c-3.009,0-5.696,1.362-7.547,3.503
	c0.2,2.851-1.361,5.844-4.148,7.763c2.565,0.647,4.469,2.964,4.469,5.732c0,3.271-2.649,5.922-5.922,5.922
	c-0.763,0-1.49-0.149-2.159-0.412c0.463,0.11,0.949,0.175,1.449,0.175c3.273,0,5.924-2.493,5.924-5.567
	c0-2.783-2.178-5.082-5.012-5.494c0.043-0.032,0.087-0.066,0.134-0.1c-0.093-0.015-0.185-0.032-0.28-0.042
	c3.133-1.786,5.057-4.704,5.1-7.445c-0.01,0.012-0.02,0.021-0.027,0.032c-0.006-0.097-0.006-0.195-0.016-0.291
	c0.012-0.02,0.023-0.036,0.037-0.054c-0.027-0.751-0.191-1.486-0.523-2.175c-1.678-3.482-6.783-4.5-11.406-2.274
	c-2.137,1.029-3.792,2.575-4.794,4.281c0.128-0.408,0.233-0.829,0.336-1.25c-0.052,0.049-0.109,0.095-0.161,0.145
	c2.528-8.497-1.025-17.758-8.937-21.914c-9.029-4.743-20.321-1.036-25.214,8.282c-0.675,1.287-1.183,2.613-1.546,3.955
	c0.575,1.285,0.9,2.706,0.9,4.206c0,5.691-4.609,10.305-10.303,10.305c-1.725,0-3.343-0.429-4.772-1.176
	c1.682,0.528,3.555,0.667,5.463,0.298c5.585-1.082,9.331-6.02,8.358-11.028c-0.966-5.009-6.284-8.194-11.869-7.114
	c-2.327,0.451-4.325,1.576-5.809,3.091c1.84-2.815,5.016-4.681,8.629-4.681c1.388,0,2.709,0.28,3.92,0.778
	c4.411-6.396,4.776-14.3,0.34-19.423c-5.045-5.827-14.534-6.008-22.069-0.769c0.037,0.212,0.058,0.428,0.058,0.649
	c0,1.384-0.708,2.603-1.781,3.314c0.799-0.704,1.309-1.718,1.309-2.849c0-2.126-1.78-3.85-3.976-3.85
	c-1.083,0-2.059,0.417-2.773,1.094c0.134-0.192,0.293-0.365,0.457-0.53c-0.039,0.017-0.078,0.029-0.121,0.047
	c2.048-4.47,1.938-8.861-0.706-11.187c-3.166-2.787-8.95-1.712-13.958,2.231c-0.261,0.955-0.572,1.889-0.951,2.794
	c0.251-0.818,0.445-1.66,0.606-2.513c-0.146,0.123-0.301,0.238-0.448,0.366c0.155-0.171,0.313-0.328,0.474-0.492
	c0.261-1.417,0.413-2.872,0.413-4.365c0-13.281-10.818-24.045-24.162-24.045c-11,0-20.895,7.381-23.824,17.39
	c7.229,3.349,12.373,10.148,13.077,18.158c-2.316-11.122-11.577-19.439-22.653-19.439c-12.818,0-23.217,11.137-23.217,24.874
	c0,0.765,0.039,1.521,0.103,2.268c-0.134-0.469-0.249-0.943-0.354-1.423c-1.35-0.465-2.797-0.726-4.308-0.726
	c-7.229,0-13.1,5.759-13.305,12.939c1.175,1.219,2.124,2.664,2.752,4.271c-2.058-4.323-6.441-7.318-11.54-7.318
	c-7.063,0-12.793,5.741-12.793,12.822c0,0.23,0.02,0.459,0.031,0.687c3.491,2.54,5.774,6.649,5.774,11.3
	c0,1.635-0.296,3.197-0.811,4.655c0.365-1.251,0.57-2.573,0.57-3.944c0-7.719-6.256-13.977-13.975-13.977
	c-3.637,0-6.932,1.41-9.413,3.691c-0.986,5.43-4.456,9.993-9.199,12.458c2.548-1.706,4.718-4.101,6.204-7.078
	c4.387-8.778,1.182-19.269-7.154-23.433c-8.338-4.165-18.647-0.426-23.033,8.352c-0.756,1.513-1.281,3.077-1.601,4.651
	c0.607-5.667,3.917-10.517,8.602-13.27c1.083-1.403,2.017-2.995,2.73-4.761c3.495-8.63,0.582-17.954-6.507-20.823
	c-7.091-2.871-15.665,1.798-19.162,10.428c-0.012,0.031-0.023,0.063-0.035,0.093c-0.006,0.031-0.006,0.063-0.008,0.093
	c0-0.021-0.004-0.043-0.004-0.064c-0.52,1.308-0.881,2.629-1.115,3.943c0.148-1.593,0.51-3.208,1.101-4.801
	c-0.055-1.668-0.329-3.378-0.889-5.081c-1.792-5.464-5.862-9.401-10.399-10.691v-0.041c-2.12-0.57-4.327-0.572-6.455,0.125
	c-5.862,1.923-9.133,8.46-8.167,15.432c1.396,1.983,2.455,4.22,3.061,6.643c-2.59-8.087-10.171-13.942-19.116-13.942
	c-11.09,0-20.077,8.987-20.077,20.077c0,1.179,0.107,2.331,0.304,3.454c0.612,1.202,1.079,2.495,1.354,3.857
	c-0.289-0.964-0.671-1.883-1.128-2.76c0.027,0.112,0.046,0.228,0.074,0.34c-0.043-0.138-0.074-0.282-0.119-0.422
	c-2.622-4.979-7.813-8.378-13.808-8.378c-5.661,0-10.618,3.026-13.362,7.557C556.52,281.167,561.648,277.72,567.595,277.72z"/>
<path d="M1.434,276.832c10.945,0,19.823,8.875,19.823,19.824c0,2.618-0.52,5.109-1.447,7.396c6.375-4.091,14.471-3.037,18.328,2.508
	c2.865,4.121,2.587,9.577-0.224,13.977c4.3-3.77,9.656-2.953,12.743-0.217c-0.01-0.223-0.023-0.444-0.023-0.669
	c0-8.144,6.604-14.747,14.747-14.747c0.047,0,0.094,0.004,0.14,0.004c0.255,0.321,0.519,0.636,0.797,0.944
	c-8.141,0.006-14.738,6.606-14.738,14.747c0,0.243,0.018,0.481,0.033,0.721c0.115,0.145,0.231,0.292,0.336,0.444
	c2.875,4.132,1.642,9.958-2.744,13.01c-1.314,0.913-2.762,1.468-4.224,1.696c0.914-0.332,1.807-0.79,2.657-1.379
	c4.561-3.171,6.046-8.917,3.326-12.832c-2.723-3.915-8.324-4.561-14.322-0.435c0.321-0.374,0.65-0.718,0.986-1.033
	c-0.306,0.178-0.607,0.361-0.904,0.563c3.339-4.558,3.93-10.311,1.003-14.517c-3.689-5.309-11.634-6.209-18.141-2.25
	c-0.099,0.232-0.198,0.464-0.311,0.691c-0.162,0.111-0.303,0.235-0.459,0.352c1.085-2.459,1.704-5.176,1.704-8.044
	c0-10.948-8.792-19.824-19.641-19.824c-0.292,0-0.583,0.009-0.877,0.022v-0.895C0.473,276.855,0.951,276.832,1.434,276.832z"/>
<path d="M1314.447,283.273c0.247-10.261,8.75-18.379,19.003-18.135c9.798,0.233,17.637,8.026,18.094,17.676
	c3.337-3.418,9.771-5.988,14.405-5.983c10.943,0.012,19.821,8.875,19.821,19.824c0,2.618-0.521,5.11-1.442,7.396
	c6.369-4.091,14.467-3.037,18.323,2.508c2.869,4.121,2.585,9.577-0.226,13.977c4.299-3.77,9.654-2.953,12.744-0.217
	c-0.014-0.223-0.023-0.444-0.023-0.669c0-8.144,6.604-14.747,14.748-14.747c0.046,0,0.093,0.004,0.14,0.004
	c0.255,0.321,0.522,0.636,0.795,0.944c-8.137,0.006-14.733,6.605-14.733,14.746c0,0.243,0.018,0.481,0.031,0.721
	c0.114,0.145,0.229,0.292,0.334,0.443c2.875,4.132,1.647,9.958-2.738,13.011c-1.314,0.913-2.767,1.467-4.226,1.696
	c0.912-0.332,1.806-0.79,2.654-1.379c4.559-3.172,6.051-8.918,3.324-12.833c-2.723-3.916-8.324-4.562-14.317-0.435
	c0.32-0.374,0.651-0.718,0.985-1.033c-0.305,0.178-0.608,0.361-0.904,0.563c3.342-4.558,3.929-10.31,1.004-14.517
	c-3.691-5.309-11.632-6.209-18.142-2.25c-0.103,0.23-0.2,0.464-0.313,0.692c-0.159,0.111-0.306,0.235-0.457,0.352
	c1.081-2.459,1.701-5.176,1.701-8.044c0-10.948-8.794-20.015-19.64-19.824c-4.136,0.073-10.439,2.253-13.823,5.536
	c0.005,0.285,0.005,0.572,0.003,0.86c-0.023,0.811-0.097,1.606-0.218,2.387c0.018-0.298,0.037-0.596,0.043-0.897
	c0.259-10.801-7.641-19.746-17.638-19.984c-9.995-0.238-18.313,8.323-18.568,19.124c-0.057,2.278,0.257,4.472,0.869,6.521
	C1314.965,288.859,1314.379,286.134,1314.447,283.273z"/>
<circle fill="#EFDAE6" stroke="#000000" stroke-miterlimit="10" cx="2065.866" cy="227.649" r="14.924"/>
<path d="M2058.424,220.237c-0.061-2.013,2.84-4.086,4.795-4.205c0,0,0.771,0.415,1.127,0.711
	C2061.145,217.276,2059.546,218.638,2058.424,220.237z"/>
<path d="M2057.475,231.727c-1.332-1.083-1.951-4.737-1.599-6.574c0,0,0.585,0.667,1.303,0.71
	C2056.646,227.225,2056.646,229.062,2057.475,231.727z"/>
<circle fill="#EFDAE6" stroke="#000000" stroke-miterlimit="10" cx="2421.523" cy="198.175" r="13.325"/>
<path d="M2414.88,191.557c-0.054-1.796,2.538-3.648,4.283-3.754c0,0,0.688,0.371,1.005,0.635
	C2417.313,188.913,2415.888,190.13,2414.88,191.557z"/>
<path d="M2414.034,201.817c-1.188-0.967-1.746-4.231-1.431-5.87c0,0,0.522,0.594,1.166,0.634
	C2413.293,197.798,2413.293,199.437,2414.034,201.817z"/>
<circle fill="#EFDAE6" stroke="#000000" stroke-miterlimit="10" cx="1098.465" cy="240.23" r="16.878"/>
<path d="M1090.048,231.848c-0.064-2.277,3.216-4.622,5.428-4.756c0,0,0.871,0.469,1.272,0.804
	C1093.13,228.5,1091.323,230.04,1090.048,231.848z"/>
<path d="M1088.979,244.841c-1.51-1.224-2.212-5.358-1.812-7.434c0,0,0.659,0.753,1.474,0.804
	C1088.039,239.752,1088.039,241.828,1088.979,244.841z"/>
<circle fill="#EFDAE6" stroke="#000000" stroke-miterlimit="10" cx="1288.2" cy="218.912" r="14.747"/>
<path d="M1292.024,209.261c1.807-0.835,4.818,0.99,5.689,2.72c0,0-0.076,0.858-0.207,1.297
	C1295.777,210.583,1293.917,209.661,1292.024,209.261z"/>
<path d="M1281.226,212.887c0.462-1.633,3.538-3.625,5.345-4.017c0,0-0.377,0.789-0.139,1.46
	C1284.988,210.376,1283.32,211.092,1281.226,212.887z"/>
<circle fill="#EFDAE6" stroke="#000000" stroke-miterlimit="10" cx="524.864" cy="167.651" r="18.655"/>
<path d="M537.591,164.424c2.198,1.228,2.563,5.668,1.435,7.842c0,0-0.938,0.559-1.486,0.752
	C539.021,169.243,538.585,166.654,537.591,164.424z"/>
<path d="M525.875,156.032c2.016-0.734,6.335,0.945,8.077,2.504c0,0-1.09,0.2-1.599,0.941
	C531.235,158.034,529.265,156.855,525.875,156.032z"/>
</svg>
