<?xml version="1.0" encoding="utf-8"?>
<!DOCTYPE svg PUBLIC "-//W3C//DTD SVG 1.1//EN" "http://www.w3.org/Graphics/SVG/1.1/DTD/svg11.dtd">
<svg version="1.1" id="mousse01" xmlns="http://www.w3.org/2000/svg" xmlns:xlink="http://www.w3.org/1999/xlink" x="0px" y="0px"
	 width="1920px" height="396.102px" viewBox="0 0 1920 396.102" enable-background="new 0 0 1920 396.102" xml:space="preserve">
<path fill="#E3A4C1" d="M1911.044,250.266c-9.028,2.961-13.924,13.146-11.753,23.529c-5.063-7.609-13.712-12.631-23.539-12.631
	c-15.604,0-28.25,12.646-28.25,28.25c0,2.285,0.278,4.504,0.791,6.633c-3.638-6.488-10.572-10.883-18.541-10.883
	c-4.131,0-7.974,1.194-11.235,3.233c3.816-6.924,2.979-15.08-2.409-19.354c-6.143-4.873-15.863-2.842-21.729,4.539
	c-0.176,0.223-0.327,0.451-0.492,0.678c0.191-1.631,0.208-3.313-0.003-5.043c-1.24-10.143-9.354-17.492-18.128-16.422
	c-8.467,1.035-14.43,9.547-13.718,19.264c-2.918-7.266-10.021-12.396-18.32-12.396c-1.13,0-2.229,0.112-3.308,0.299
	c1.333-2.471,2.092-5.297,2.092-8.299c0-9.666-7.835-17.5-17.5-17.5c-5.463,0-10.338,2.504-13.547,6.426
	c3.351-12.719-2.215-25.646-13.286-29.771c-11.903-4.438-25.656,2.979-30.719,16.563c-1.372,3.686-1.959,7.439-1.857,11.053
	c-0.612-0.633-1.251-1.242-1.926-1.834c-11.788-10.317-28.618-10.379-37.592-0.127c-8.46,9.662-6.913,25.033,3.171,35.41
	c-10.479,0.979-19.387,7.336-23.938,16.289c0.162-4.633-2.625-8.912-6.463-9.727c-4.052-0.861-9.5,3.969-8.603,9.407
	c-0.335-4.006-2.307-7.045-5.533-9.028c-3.549-2.187-7.859-2.189-11.554-0.433c1.771-1.354,3.38-3.086,4.669-5.184
	c4.583-7.455,3.466-16.471-2.498-20.14c-5.965-3.666-14.52-0.6-19.103,6.854c-0.944,1.551-1.643,3.162-2.104,4.781
	c-0.123-3.537-1.653-6.687-4.474-8.414c-4.552-2.797-10.883-0.922-14.896,4.127c0.805-2.924,1.243-5.998,1.243-9.176
	c0-19.056-15.445-34.498-34.498-34.498c-5.777,0-11.221,1.426-16.001,3.938c-2.454-14.207-13.72-24.938-27.247-24.938
	c-15.323,0-27.748,13.771-27.748,30.759c0,2.473,0.271,4.869,0.767,7.172c-5.054-3.873-11.371-6.182-18.229-6.182
	c-16.567,0-29.998,13.432-29.998,30c0,1.508,0.109,2.985,0.327,4.438c-3.793-3.854-8.707-6.188-14.076-6.188
	c-9.204,0-17.067,6.838-20.242,16.492c-4.396-5.48-11.149-8.994-18.727-8.994c-4.099,0-7.944,1.024-11.316,2.834
	c3.56-10.287,1.296-21.4-6.631-27.89c-10.579-8.655-27.234-5.805-37.203,6.382c-2.016,2.463-3.594,5.116-4.757,7.854
	c-1.67-17.496-16.402-31.182-34.337-31.182c-19.058,0-34.498,15.44-34.498,34.498c0,0.395,0.017,0.782,0.024,1.178
	c-3.729-2.076-8.027-3.262-12.604-3.262c-14.359,0-26,11.641-26,26c0,0.612,0.025,1.225,0.071,1.828
	c-12.716-8.771-29.707-7.369-39.443,3.807c-9.257,10.623-8.868,26.535,0.15,37.865c-0.017,0-0.021,0-0.028,0
	c-11.459,0-20.75,9.291-20.75,20.75c0,0.551,0.04,1.092,0.082,1.631c-4.313-4.629-11.742-5.353-17.405-1.41
	c-0.552,0.385-1.056,0.813-1.535,1.252c4.24-6.271,4.745-14.193,0.609-20.145c-5.463-7.854-16.979-9.314-25.969-3.425
	c1.425-3.311,2.217-6.95,2.217-10.778c0-15.072-12.22-27.293-27.291-27.293c-8.175,0-15.505,3.6-20.507,9.293
	c-0.284-13.904-11.463-25.244-25.49-25.578c-14.422-0.347-26.394,11.08-26.735,25.518c-0.013,0.521-0.006,1.025,0.018,1.533
	c-6.989-4.428-15.938-5.521-24.17-2.139c-6.696,2.746-11.654,7.938-14.272,14.118c-1.957-8.938-9.281-15.323-17.481-14.684
	c-9.09,0.717-15.788,9.773-14.968,20.234c0.224,2.813,0.979,5.432,2.12,7.756l-0.146,0.068c-3.03-7.234-9.313-12.212-16.568-12.212
	c-10.18,0-18.438,9.777-18.497,21.867c-3.598-5.907-10.08-9.867-17.503-9.867c-4,0-7.72,1.162-10.875,3.146
	c-1.534-6.941-7.719-12.146-15.125-12.146c-8.01,0-14.598,6.074-15.413,13.869c-0.57-0.979-1.271-1.896-2.136-2.7
	c-3.851-3.593-9.537-4.158-14.604-1.99c2.6-3.188,4.153-7.248,4.153-11.679c0-10.217-8.281-18.5-18.5-18.5
	c-3.202,0-6.212,0.813-8.839,2.244c0.053-0.741,0.089-1.486,0.089-2.244c0-17.12-13.711-31-30.625-31s-30.63,13.892-30.63,31.013
	c0,3.385,0.544,6.643,1.535,9.688c-3.822-5.807-10.336-9.205-17.137-8.198c-7.531,1.114-13.156,7.307-14.54,15.012
	c-2.957-5.457-7.729-9.002-13.108-9.002c-4.688,0-8.916,2.692-11.882,7c-1.729-5.171-5.244-9.418-10.219-11.563
	c-4.284-1.85-8.959-1.846-13.333-0.346c1.933-9.679-1.561-19.854-9.811-25.813c-11.429-8.258-27.668-5.305-36.271,6.604
	c-2.313,3.199-3.83,6.723-4.604,10.316c-2.647-8.064-10.23-13.896-19.188-13.896c-9.729,0-17.839,6.867-19.771,16.021
	c-2.812-6.337-9.146-10.765-16.521-10.765c-9.988,0-18.085,8.101-18.085,18.086c0,1.299,0.143,2.563,0.396,3.779
	c-3.521-2.979-8.063-4.781-13.041-4.781c-11.163,0-20.213,9.053-20.213,20.215c0,4.478,1.473,8.601,3.937,11.941
	c-0.782-0.268-1.595-0.482-2.438-0.605c-7.993-1.168-15.599,4.813-17.993,13.68c-2.536-4.022-7.016-6.706-12.135-6.706
	c-4.327,0-8.198,1.92-10.826,4.938c-0.053-0.987-0.279-1.951-0.716-2.854c-2.418-5.021-10.063-6.354-17.076-2.976
	c-1.271,0.607-2.432,1.341-3.47,2.146c2.517-11.396-3.289-23.854-14.813-29.908c-13.636-7.162-30.104-2.646-36.797,10.082
	c-1.099,2.094-1.854,4.274-2.311,6.494c-1.569-1.848-3.646-3.254-6.008-3.996c6.743-8.367,8.397-19.068,3.272-27.021
	c-6.604-10.241-22.015-12.123-34.832-4.433c-1.063-1.688-3.086-2.838-5.408-2.838c-0.848,0-1.648,0.151-2.392,0.432
	c2.484-5.899,2.089-11.84-1.576-15.129c-4.063-3.646-10.929-2.951-17.022,1.177c-0.924,0.477-1.831,1.038-2.706,1.69
	c0.278-1.787,0.425-3.613,0.425-5.479c0-19.517-15.819-35.334-35.333-35.334c-16.406,0-30.198,11.186-34.175,26.344
	c-4.261-2.137-9.067-3.344-14.158-3.344c-17.489,0-31.667,14.18-31.667,31.666c0,1.75,0.148,3.469,0.422,5.143
	c-1.976-0.674-4.085-1.059-6.289-1.059c-9.918,0-18.089,7.411-19.32,16.995c-3.199-2.297-7.109-3.663-11.347-3.663
	c-10.61,0-19.223,8.479-19.475,19.026c-2.895-1.701-6.256-2.692-9.856-2.692c-5.506,0-10.47,2.291-14.016,5.961
	c0.245-1.396,0.38-2.826,0.38-4.293c0-13.67-11.081-24.75-24.75-24.75c-3.756,0-7.314,0.842-10.504,2.339
	c1.511-1.905,2.798-4.077,3.773-6.487c4.82-11.898,0.323-24.951-10.043-29.146c-10.178-4.121-22.227,1.827-27.222,13.313
	c0.035-2.568-0.337-5.229-1.201-7.861c-2.583-7.887-8.731-13.438-15.55-14.948v146.891h1920V249.885
	C1917.066,249.219,1914.004,249.295,1911.044,250.266z"/>
<circle fill="none" stroke="#000000" stroke-miterlimit="10" cx="192.5" cy="259.731" r="3.5"/>
<circle fill="none" stroke="#000000" stroke-miterlimit="10" cx="243" cy="236.899" r="4"/>
<circle fill="none" stroke="#000000" stroke-miterlimit="10" cx="295.5" cy="269.065" r="1.828"/>
<circle fill="none" stroke="#000000" stroke-miterlimit="10" cx="246.75" cy="276.815" r="6.25"/>
<circle fill="none" stroke="#000000" stroke-miterlimit="10" cx="271" cy="306.065" r="10.5"/>
<circle fill="none" stroke="#000000" stroke-miterlimit="10" cx="272.25" cy="300.815" r="2.25"/>
<circle fill="none" stroke="#000000" stroke-miterlimit="10" cx="328.75" cy="285.815" r="2.75"/>
<circle fill="none" stroke="#000000" stroke-miterlimit="10" cx="381" cy="311.565" r="3.5"/>
<circle fill="none" stroke="#000000" stroke-miterlimit="10" cx="191" cy="337.459" r="5.318"/>
<circle fill="none" stroke="#000000" stroke-miterlimit="10" cx="545.5" cy="276.564" r="2.642"/>
<circle fill="none" stroke="#000000" stroke-miterlimit="10" cx="605.75" cy="279.815" r="3.75"/>
<circle fill="none" stroke="#000000" stroke-miterlimit="10" cx="548.25" cy="316.315" r="6.75"/>
<circle fill="none" stroke="#000000" stroke-miterlimit="10" cx="570" cy="337.065" r="9"/>
<circle fill="none" stroke="#000000" stroke-miterlimit="10" cx="547.75" cy="313.815" r="1.75"/>
<circle fill="none" stroke="#000000" stroke-miterlimit="10" cx="568.25" cy="333.315" r="2.25"/>
<circle fill="none" stroke="#000000" stroke-miterlimit="10" cx="676" cy="335.565" r="10"/>
<circle fill="none" stroke="#000000" stroke-miterlimit="10" cx="673" cy="331.565" r="2.25"/>
<circle fill="none" stroke="#000000" stroke-miterlimit="10" cx="724.25" cy="266.815" r="3.25"/>
<circle fill="none" stroke="#000000" stroke-miterlimit="10" cx="770.75" cy="298.315" r="2.75"/>
<circle fill="none" stroke="#000000" stroke-miterlimit="10" cx="904.625" cy="302.19" r="2.922"/>
<ellipse fill="none" stroke="#000000" stroke-miterlimit="10" cx="984.75" cy="280.314" rx="5.068" ry="4.151"/>
<circle fill="none" stroke="#000000" stroke-miterlimit="10" cx="1011.5" cy="348.065" r="10.5"/>
<circle fill="none" stroke="#000000" stroke-miterlimit="10" cx="1010.25" cy="344.815" r="2.25"/>
<circle fill="none" stroke="#000000" stroke-miterlimit="10" cx="1135.875" cy="293.94" r="4.375"/>
<circle fill="none" stroke="#000000" stroke-miterlimit="10" cx="1454.5" cy="207.065" r="4.125"/>
<circle fill="none" stroke="#000000" stroke-miterlimit="10" cx="1297" cy="245.565" r="3.375"/>
<circle fill="none" stroke="#000000" stroke-miterlimit="10" cx="1607" cy="339.564" r="4.47"/>
<circle fill="none" stroke="#000000" stroke-miterlimit="10" cx="1290.5" cy="327.065" r="11.5"/>
<circle fill="none" stroke="#000000" stroke-miterlimit="10" cx="1290.833" cy="322.398" r="2.833"/>
<circle fill="none" stroke="#000000" stroke-miterlimit="10" cx="1492.068" cy="278.946" r="8.377"/>
<circle fill="none" stroke="#000000" stroke-miterlimit="10" cx="1329.844" cy="313.046" r="9.751"/>
<circle fill="none" stroke="#000000" stroke-miterlimit="10" cx="1328.876" cy="309.201" r="2.402"/>
<path d="M433,329.315c-4.531,0-8.552,2.127-11.157,5.429c-0.124-0.996-0.396-1.979-0.852-2.912
	c-2.628-5.453-10.031-7.336-16.533-4.203c-1.169,0.563-2.219,1.26-3.153,2.039c1.559-10.879-4.211-22.354-15.123-28.082
	c-13.635-7.162-30.104-2.646-36.796,10.082c-1.188,2.271-1.958,4.658-2.386,7.076c-1.442-2.455-3.582-4.439-6.152-5.697
	c7.297-9.055,8.077-21.283,1.229-29.195c-7.733-8.932-22.286-9.014-32.794-0.315c-0.699-2.294-2.83-3.964-5.354-3.964
	c-0.983,0-1.917,0.267-2.723,0.718c2.686-6.021,2.352-12.367-1.455-15.718c-4.848-4.268-13.661-2.93-20.449,3.73
	c0.671-2.582,1.032-5.283,1.032-8.063c0-18.409-15.521-33.336-34.667-33.336c-16.523,0-31.202,11.211-34.691,26.091
	c-4.111-1.771-8.672-2.759-13.475-2.759c-18.134,0-32.833,14.027-32.833,31.334c0,1.8,0.178,3.556,0.485,5.269
	c-2.091-0.81-4.357-1.269-6.735-1.269c-10.286,0-18.628,8.285-18.74,18.548c-3.219-2.925-7.484-4.714-12.177-4.714
	c-10.033,0-18.167,8.136-18.167,18.166c0,0.521,0.036,1.027,0.082,1.535c-3.091-2.021-6.779-3.209-10.749-3.209
	c-5.198,0-9.912,2.023-13.424,5.322c0.168-1.164,0.257-2.354,0.257-3.564c0-13.67-11.081-24.75-24.75-24.75
	c-4.192,0-8.13,1.062-11.59,2.896c1.839-2.105,3.394-4.584,4.526-7.381c4.82-11.9,0.323-24.953-10.043-29.146
	c-10.366-4.197-22.676,2.047-27.496,13.947c-0.031,0.074-0.053,0.152-0.083,0.229c0.146-2.838-0.216-5.801-1.177-8.729
	C12.385,257.086,6.551,251.641,0,249.924v1.83c6.386,1.813,12.115,7.354,14.636,15.043c0.785,2.396,1.176,4.807,1.247,7.146
	c-0.83,2.242-1.339,4.517-1.543,6.759c0.33-1.851,0.837-3.709,1.567-5.552c0,0.031,0.002,0.063,0.002,0.095
	c0.006-0.043,0.008-0.09,0.014-0.136c0.017-0.043,0.031-0.086,0.048-0.129c4.917-12.146,16.989-18.713,26.963-14.674
	c9.974,4.035,14.074,17.154,9.156,29.301c-1.006,2.482-2.318,4.728-3.844,6.699c-6.594,3.871-11.245,10.695-12.1,18.67
	c0.446-2.217,1.186-4.416,2.249-6.545c6.17-12.354,20.68-17.61,32.411-11.754c11.729,5.857,16.238,20.623,10.068,32.975
	c-2.093,4.188-5.147,7.563-8.725,9.96c6.673-3.47,11.554-9.894,12.939-17.527c3.492-3.211,8.125-5.189,13.246-5.189
	c10.861,0,19.667,8.808,19.667,19.666c0,1.933-0.29,3.787-0.807,5.549c0.725-2.051,1.141-4.247,1.141-6.549
	c0-6.545-3.209-12.326-8.126-15.897c-0.018-0.32-0.041-0.644-0.041-0.97c0-9.963,8.059-18.041,18-18.041
	c7.171,0,13.345,4.218,16.238,10.3c-0.886-2.263-2.218-4.293-3.876-6.011c0.291-10.104,8.55-18.207,18.722-18.207
	c2.126,0,4.162,0.367,6.064,1.021c0.143,0.678,0.307,1.346,0.494,2.004c-0.089-1.055-0.141-2.113-0.141-3.189
	c0-19.327,14.625-35,32.667-35c15.587,0,28.617,11.701,31.874,27.354c-0.989-11.271-8.229-20.838-18.397-25.549
	c4.121-14.084,18.044-24.472,33.522-24.472c18.778,0,34,15.146,34,33.837c0,2.1-0.215,4.145-0.585,6.141
	c-0.221,0.229-0.447,0.451-0.664,0.693c0.208-0.185,0.42-0.347,0.63-0.521c-0.229,1.199-0.499,2.387-0.851,3.535
	c0.529-1.271,0.972-2.588,1.337-3.935c7.046-5.549,15.182-7.063,19.638-3.141c3.719,3.271,3.873,9.449,0.994,15.738
	c0.057-0.021,0.113-0.043,0.169-0.063c-0.229,0.229-0.453,0.478-0.643,0.744c1.008-0.951,2.383-1.539,3.896-1.539
	c3.09,0,5.602,2.429,5.602,5.418c0,1.595-0.72,3.021-1.848,4.011c1.518-1.005,2.515-2.718,2.515-4.664
	c0-0.313-0.032-0.615-0.081-0.912c10.604-7.373,23.957-7.117,31.056,1.082c6.242,7.209,5.726,18.33-0.479,27.33
	c-1.696-0.701-3.563-1.097-5.519-1.097c-5.086,0-9.553,2.623-12.141,6.586c2.083-2.133,4.896-3.717,8.171-4.354
	c7.855-1.521,15.342,2.963,16.705,10.012c1.357,7.049-3.905,13.996-11.771,15.521c-2.685,0.521-5.313,0.321-7.685-0.42
	c2.009,1.053,4.291,1.653,6.715,1.653c8.008,0,14.5-6.492,14.5-14.5c0-2.108-0.461-4.106-1.271-5.918
	c0.521-1.893,1.229-3.756,2.182-5.563c6.886-13.109,22.771-18.328,35.479-11.652c11.13,5.848,16.131,18.879,12.574,30.834
	c0.07-0.068,0.153-0.137,0.225-0.203c-0.143,0.594-0.291,1.187-0.47,1.76c1.407-2.399,3.737-4.573,6.745-6.022
	c6.502-3.133,13.688-1.699,16.048,3.199c0.467,0.971,0.698,2.004,0.737,3.063c-0.021,0.025-0.038,0.053-0.06,0.076
	c0.02,0.137,0.021,0.272,0.023,0.41c0.012-0.021,0.026-0.029,0.039-0.047c-0.063,3.854-2.77,7.963-7.173,10.477
	c0.133,0.021,0.263,0.037,0.394,0.063c-0.063,0.045-0.126,0.094-0.188,0.139c3.992,0.58,7.052,3.816,7.052,7.731
	c0,4.322-3.729,7.83-8.333,7.83c-0.705,0-1.386-0.09-2.039-0.243c0.942,0.368,1.965,0.578,3.039,0.578
	c4.602,0,8.333-3.729,8.333-8.33c0-3.896-2.677-7.156-6.289-8.066c3.92-2.697,6.122-6.91,5.837-10.924
	c2.605-3.015,6.384-4.93,10.618-4.93c7.87,0,14.25,6.549,14.25,14.625c0,1.379-0.198,2.702-0.545,3.969
	c0.668-1.648,1.045-3.451,1.045-5.344C447.25,335.694,440.87,329.315,433,329.315z"/>
<path d="M638.214,327.088c0.029-0.043,0.058-0.088,0.086-0.133c-0.001-0.004-0.002-0.008-0.003-0.017
	C638.268,326.99,638.243,327.041,638.214,327.088z"/>
<path d="M875.75,307.565c-10.217,0-18.5,9.853-18.5,22c0,0.099,0.011,0.188,0.012,0.281c-3.541-6.145-10.164-10.281-17.762-10.281
	c-4.01,0-7.738,1.166-10.896,3.154c-1.524-6.945-7.688-12.154-15.104-12.154c-7.759,0-14.163,5.707-15.298,13.146
	c-0.563-0.978-1.249-1.877-2.099-2.67c-3.744-3.492-9.299-4.035-14.291-1.937c2.307-3.084,3.688-6.896,3.688-11.045
	c0-10.219-8.283-18.5-18.5-18.5c-3.264,0-6.32,0.854-8.98,2.344c0.064-0.813,0.105-1.637,0.105-2.469c0-17.121-13.711-31-30.625-31
	s-30.625,13.879-30.625,31c0,3.478,0.582,6.81,1.626,9.924c-3.785-6.018-10.417-9.584-17.353-8.559
	c-7.606,1.127-13.268,7.43-14.569,15.238c-2.957-5.438-7.707-8.979-13.08-8.979c-4.607,0-8.765,2.601-11.721,6.771
	c-1.763-5.064-5.231-9.222-10.13-11.328c-4.262-1.834-8.896-1.816-13.242-0.351c1.714-9.521-1.789-19.448-9.896-25.311
	c-11.429-8.26-27.668-5.305-36.271,6.604c-2.33,3.229-3.837,6.775-4.604,10.404c-2.629-8.104-10.211-13.979-19.188-13.979
	c-9.741,0-17.849,6.897-19.757,16.069c-2.803-6.362-9.146-10.813-16.543-10.813c-9.527,0-20.896,8.619-17.691,21.881
	c-3.521-2.979-8.059-4.797-13.03-4.797c-11.163,0-20.213,9.051-20.213,20.213c0,4.061,1.217,7.816,3.277,10.979
	c-0.58-0.164-1.17-0.309-1.779-0.396c-7.705-1.125-15.06,4.393-17.725,12.729c0.095,0.14,0.182,0.279,0.271,0.422
	c2.926-7.911,9.838-13.063,17.032-12.02c7.438,1.086,12.702,8.438,12.935,17.236c0.002-0.004,0.004-0.006,0.008-0.013
	c-0.014,0.031-0.021,0.063-0.033,0.095c0,0.006,0.001,0.012,0.001,0.02c0,0.107-0.019,0.217-0.021,0.324
	c1.7-3.969,5.564-6.74,10.071-6.74c6.04,0,10.938,4.979,10.995,11.146c0.001-0.002,0.002-0.004,0.004-0.009
	c0,0.013,0.001,0.021,0.001,0.029c0,0.043-0.006,0.084-0.006,0.127c1.465-3.129,4.563-5.293,8.173-5.293
	c5.017,0,9.083,4.183,9.083,9.334c0,3.801-2.214,7.063-5.386,8.521c3.671-1.313,6.303-4.813,6.303-8.938c0-5.244-4.253-9.5-9.5-9.5
	c-3.337,0-6.256,1.73-7.947,4.336c-0.264-5.979-5.175-10.752-11.22-10.752c-4.16,0-7.776,2.269-9.72,5.623
	c-0.362-7.733-4.875-14.289-11.371-16.229c-1.525-2.896-2.409-6.201-2.409-9.73c0-11.271,8.819-20.41,19.697-20.41
	c4.927,0,9.412,1.894,12.854,4.988c-0.001-0.008-0.001-0.016-0.002-0.021c0.068,0.229,0.128,0.443,0.205,0.673
	c-2.635-14.769,7.412-22.324,17.188-22.324c7.805,0,14.416,5.17,16.767,12.338c0.053-0.58,0.138-1.148,0.245-1.715
	c-0.011-0.029-0.024-0.063-0.035-0.09c1.957-9.029,9.742-15.791,19.085-15.791c9.324,0,17.112,6.729,19.091,15.729
	c0.146-0.82,0.326-1.645,0.548-2.469c-0.009-0.021-0.019-0.049-0.021-0.072c0.854-3.133,2.268-6.188,4.282-9.016
	c8.483-11.894,24.229-15.047,35.151-7.051c10.933,7.996,12.903,24.114,4.414,36.01c-1.798,2.521-3.925,4.645-6.259,6.354
	c0.233-0.143,0.461-0.291,0.691-0.438c-0.078,0.063-0.152,0.129-0.23,0.188c7.522,0.336,13.521,6.25,13.521,13.521
	c0,5.619-3.598,10.424-8.699,12.471c-0.032-0.002-0.063-0.008-0.095-0.012c-0.854,0.334-1.743,0.592-2.667,0.75
	c0.104-0.002,0.214-0.01,0.315-0.01c0.016,0,0.021,0.002,0.027,0.002c-0.313,0.063-0.625,0.133-0.945,0.178
	c0.449-0.045,0.902-0.076,1.363-0.076c1.046,0,2.063,0.115,3.05,0.326c0.012-0.004,0.021-0.01,0.03-0.014
	c6.712,1.555,11.712,7.428,11.712,14.45c0,8.215-6.822,14.869-15.237,14.869c-0.95,0-1.88-0.098-2.781-0.262
	c1.31,0.356,2.679,0.565,4.1,0.565c8.519,0,15.425-6.901,15.425-15.422c0-7.229-4.979-13.271-11.692-14.938
	c4.486-2.459,7.551-7.254,7.551-12.785c0-7.809-6.077-14.152-13.697-14.51c2.41-1.701,4.599-3.822,6.434-6.359
	c2.355-3.262,3.895-6.854,4.646-10.521c4.041-1.062,8.273-0.887,12.208,0.813c5.021,2.164,8.604,6.4,10.402,11.545
	c-1.804,2.998-3.028,6.648-3.468,10.652c1.688-10.043,8.24-17.533,16.075-17.533c5.258,0,9.937,3.383,12.953,8.638
	c-0.119,0.973-0.188,1.96-0.167,2.967c0.042-0.92,0.16-1.818,0.317-2.705c0.013,0.02,0.021,0.037,0.031,0.059
	c0.053-0.268,0.12-0.521,0.186-0.778c-0.021-0.031-0.038-0.064-0.061-0.103c1.646-7.356,7.24-13.193,14.635-14.291
	c7.234-1.068,14.145,2.719,17.898,9.047c-0.112-0.334-0.228-0.67-0.331-1.008c-0.854-2.932-1.342-6.031-1.342-9.258
	c0-17.435,13.403-31.564,29.938-31.564c16.533,0,29.938,14.133,29.938,31.564c0,3.53-0.561,6.926-1.573,10.098
	c1.055-2.648,1.753-5.479,2.044-8.438c4.313-2.299,9.452-2.89,14.354-1.197c9.573,3.303,14.563,14.014,11.146,23.926
	c-0.48,1.408-1.122,2.724-1.874,3.938c-0.023,0.012-0.059,0.02-0.087,0.032c-0.22,0.313-0.468,0.613-0.709,0.925
	c0.075-0.035,0.151-0.064,0.229-0.099c-0.037,0.058-0.07,0.107-0.107,0.162c0.052-0.059,0.093-0.119,0.146-0.18
	c5.024-2.166,10.638-1.646,14.407,1.875c1.319,1.234,2.279,2.729,2.906,4.354c0.021-0.305,0.044-0.604,0.077-0.899
	c0.923-7.873,7.372-13.979,15.208-13.979c6.981,0,12.847,4.854,14.695,11.479c-4.589,2.981-7.918,7.738-8.985,13.313
	c2.548-9.041,10.367-15.625,19.623-15.625c8.188,0,15.232,5.154,18.521,12.603c0.038,0.285,0.063,0.582,0.106,0.862
	c-0.021-0.241-0.033-0.489-0.054-0.735c0.043,0.102,0.092,0.188,0.134,0.293c-0.118-0.943-0.185-1.908-0.195-2.896
	c0.268-12.412,8.382-22.377,18.358-22.377c9.908,0,17.979,9.816,18.354,22.105c0.012-0.281,0.021-0.566,0.021-0.855
	C894.25,317.414,885.967,307.565,875.75,307.565z"/>
<path d="M936.818,292.274c-6.737,2.769-11.708,8.002-14.314,14.229c-2.003-8.863-9.287-15.187-17.445-14.537
	c-9.088,0.713-15.788,9.771-14.966,20.232c0.106,1.354,0.34,2.663,0.675,3.924c-0.013-0.146-0.023-0.281-0.042-0.429
	c-0.932-11.856,5.453-22.032,14.27-22.729c7.555-0.596,14.43,5.984,16.817,15.354c-1.83,5.479-1.888,11.582,0.227,17.392
	c-3.82-12.847,2.632-26.744,15.285-31.938c8.061-3.313,16.813-2.334,23.73,1.865c-0.033-0.406-0.055-0.813-0.063-1.229
	C953.997,289.985,945.048,288.893,936.818,292.274z"/>
<path d="M1123.083,323.065c-11.459,0-20.75,9.291-20.75,20.75c0,0.313,0.019,0.627,0.033,0.938c-4.345-3.853-11.88-5-17.938,0.309
	c3.954-6.188,4.354-13.869,0.315-19.666c-5.43-7.805-16.819-9.285-25.786-3.526c1.302-3.22,2.034-6.728,2.034-10.408
	c0-15.402-12.489-27.896-27.896-27.896c-7.814,0-14.869,3.232-19.935,8.418c-0.645-13.575-11.673-24.543-25.462-24.871
	c-14.422-0.344-26.396,11.08-26.736,25.521c-0.096,4.025,0.729,7.859,2.271,11.309c-0.865-2.887-1.312-5.975-1.229-9.18
	c0.362-15.195,12.063-27.242,26.129-26.906c14.068,0.336,25.188,12.922,24.817,28.117c-0.01,0.426-0.032,0.846-0.063,1.266
	c0.169-1.102,0.272-2.221,0.307-3.356c0.01-0.404,0.007-0.812-0.002-1.209c4.964-4.813,11.688-7.791,19.118-7.791
	c15.263,0,27.635,12.488,27.635,27.896c0,4.033-0.866,7.855-2.396,11.316c0.223-0.164,0.423-0.338,0.648-0.494
	c0.149-0.314,0.296-0.645,0.438-0.975c9.157-5.57,20.331-4.306,25.527,3.166c4.117,5.92,3.287,14.014-1.415,20.428
	c0.419-0.283,0.847-0.541,1.271-0.793c-0.475,0.443-0.938,0.928-1.39,1.453c8.438-5.81,16.321-4.896,20.15,0.608
	c3.832,5.511,1.73,13.597-4.686,18.06c-1.188,0.83-2.448,1.477-3.729,1.938c2.056-0.319,4.093-1.104,5.938-2.391
	c6.178-4.297,7.902-12.488,3.858-18.307c-0.147-0.213-0.313-0.422-0.477-0.625c-0.021-0.336-0.045-0.672-0.045-1.017
	c0-11.455,9.281-20.742,20.733-20.75c-0.387-0.438-0.761-0.877-1.12-1.328C1123.215,323.069,1123.149,323.065,1123.083,323.065z"/>
<path d="M1369.289,255.649c-9.262,0-17.159,6.929-20.296,16.679c-4.399-5.441-11.127-8.931-18.671-8.931
	c-4.197,0-8.146,1.08-11.573,2.976c3.884-10.47,1.717-21.9-6.376-28.523c-10.579-8.656-27.234-5.803-37.203,6.383
	c-2.172,2.65-3.814,5.535-4.996,8.506c-1.6-17.565-16.363-31.328-34.348-31.328c-19.053,0-34.498,15.441-34.498,34.497
	c0,0.139,0.008,0.271,0.012,0.407c-3.613-1.901-7.722-2.992-12.09-2.992c-14.359,0-26,11.644-26,26c0,0.832,0.05,1.648,0.128,2.466
	c-12.767-9.199-30.12-7.918-40,3.422c-10.521,12.071-8.588,30.981,4.322,42.229c1.646,1.439,3.396,2.685,5.225,3.73
	c-1.007-0.709-1.992-1.474-2.944-2.303c-13.341-11.619-15.725-30.724-5.321-42.648c10.396-11.932,29.641-12.187,42.979-0.563
	c0.515,0.443,1.001,0.902,1.479,1.371c-1.014-1.164-2.11-2.272-3.313-3.315c-0.729-0.644-1.487-1.234-2.261-1.8
	c-0.021-0.36-0.041-0.725-0.041-1.088c0-14.356,11.92-26,26.625-26c4.209,0,8.188,0.959,11.724,2.656
	c-0.002-0.102-0.004-0.195-0.007-0.297c0.004,0.002,0.012,0.004,0.02,0.01c0.564-19.082,15.479-34.369,33.81-34.369
	c18.688,0,33.836,15.896,33.836,35.498c0,3.039-0.364,5.982-1.05,8.804c1.21-3.521,1.875-7.287,1.875-11.216
	c0-0.854-0.042-1.696-0.104-2.534c1.159-2.439,2.635-4.813,4.449-7.033c10.242-12.521,27.012-15.732,37.452-7.188
	c7.66,6.271,9.771,17.123,6.313,27.404c0.096-0.057,0.188-0.109,0.279-0.164c-5.666,3.137-9.932,8.49-11.609,14.896
	c3.228-9.529,12.173-16.386,22.712-16.386c13.254,0,23.998,10.84,23.998,24.209c0,1.979-0.24,3.896-0.688,5.732
	c0.769-2.346,1.188-4.848,1.188-7.443c0-5.41-1.793-10.403-4.816-14.422c3.332-9.303,11.079-15.826,20.121-15.826
	c5.197,0,9.969,2.154,13.721,5.756c-0.084-0.434-0.157-0.858-0.227-1.297C1379.36,257.891,1374.548,255.649,1369.289,255.649z"/>
<path d="M1625.906,236.371c-8.543,9.762-6.879,25.336,3.473,35.713c-10.561,0.815-19.589,7.1-24.256,16.021
	c0.639-4.83-1.824-9.235-5.787-10.078c-4.048-0.858-8.176,2.316-9.467,7.166c-0.827-2.688-2.535-5.057-5.036-6.594
	c-3.716-2.283-8.261-2.178-12.062-0.154c1.921-1.385,3.672-3.209,5.052-5.452c4.583-7.455,3.466-16.474-2.498-20.14
	s-14.513-0.598-19.103,6.857c-0.977,1.588-1.675,3.246-2.141,4.91c-0.029-3.677-1.534-6.974-4.438-8.758
	c-4.7-2.892-11.317-0.802-15.312,4.645c0.841-2.979,1.318-6.105,1.318-9.354c0-19.055-15.445-34.5-34.498-34.5
	c-5.747,0-11.157,1.423-15.927,3.906c-2.467-14.188-13.723-24.911-27.239-24.911c-15.322,0-27.748,13.771-27.748,30.761
	c0,2.518,0.298,4.948,0.813,7.291c-5.021-3.787-11.257-6.052-18.022-6.052c-16.567,0-29.998,13.433-29.998,29.998
	c0,3.795,0.712,7.422,1.993,10.767c-0.811-2.83-1.243-5.824-1.243-8.933c0-17.166,13.263-31.082,29.623-31.082
	c6.896,0,13.238,2.479,18.271,6.631c-0.046-0.188-0.087-0.381-0.13-0.569c0.052,0.041,0.104,0.08,0.15,0.121
	c-0.454-2.229-0.712-4.539-0.712-6.922c0-16.986,12.201-30.761,27.25-30.761c15.054,0,27.25,13.771,27.25,30.761
	c0,1.961-0.17,3.875-0.479,5.729c0.471-2.244,0.729-4.58,0.729-6.979c0-1.507-0.104-2.979-0.288-4.431
	c4.575-2.33,9.732-3.658,15.209-3.658c18.772,0,34,15.445,34,34.498c0,3.138-0.438,6.158-1.214,9.043
	c-0.109,0.197-0.229,0.396-0.334,0.597c-0.046,0.145-0.098,0.274-0.144,0.418c3.872-6.197,11.015-8.74,16.005-5.674
	c3.545,2.182,5.036,6.604,4.256,11.229l0.136,0.133c0.146-0.959,0.396-1.932,0.699-2.897c0.011-0.115,0-0.229,0.007-0.351
	c0.491-1.383,1.146-2.762,1.968-4.102c4.755-7.73,13.188-11.187,18.849-7.705c5.657,3.479,6.386,12.563,1.633,20.301
	c-1.123,1.824-2.457,3.398-3.901,4.717c-1.866,1.021-3.556,2.511-4.854,4.414c4.359-5.045,11.253-6.655,16.409-3.485
	c5.688,3.496,7.133,11.516,3.362,18.104c0.271-0.367,0.543-0.754,0.79-1.154c1.876-3.051,2.46-6.5,1.908-9.649
	c1.229-5.185,5.242-8.688,9.099-7.869c3.742,0.795,5.966,5.389,5.188,10.447c-1.793,3.846-2.8,8.131-2.8,12.651
	c0,5.568,1.541,10.771,4.188,15.24c-1.892,0.131-3.79,0.428-5.688,0.912c-16.85,4.324-27.002,21.49-22.676,38.344
	c1.816,7.078,5.906,12.968,11.28,17.104c-9.247-8.066-13.056-21.037-9.354-33.045c2.888-10.354,11.32-19.037,22.814-21.986
	c4.011-1.027,8.027-1.264,11.886-0.813c-2.405-0.479-4.892-0.668-7.402-0.563c-2.185-4.201-3.438-8.979-3.438-14.066
	c0-15.805,11.931-28.75,27.101-30.012c0.189,0.174,0.375,0.354,0.569,0.521c4.138,3.621,8.896,5.979,13.718,7.063
	c-4.313-1.242-8.553-3.502-12.294-6.775c-11.837-10.358-14.271-26.938-5.438-37.03c8.834-10.09,25.591-9.869,37.428,0.492
	c0.168,0.146,0.326,0.299,0.488,0.444c-0.453-0.444-0.922-0.891-1.405-1.313C1651.71,226.176,1634.88,226.121,1625.906,236.371z"/>
<path d="M1697.667,210.215c-11.903-4.438-25.656,2.979-30.719,16.563c-1.698,4.56-2.197,9.229-1.669,13.595
	c0.052-3.568,0.723-7.289,2.09-10.957c5.238-14.062,18.637-22.045,29.928-17.838c11.289,4.207,16.193,19.016,10.955,33.071
	c-1.136,3.047-2.655,5.81-4.453,8.224c2.633-2.746,4.801-6.131,6.253-10.025C1715.114,229.26,1709.569,214.653,1697.667,210.215z"/>
<path d="M1819.163,287.506c0.172-0.1,0.347-0.188,0.521-0.275c3.021-6.627,1.924-14-3.248-18.002
	c-6.355-4.926-16.438-2.871-22.506,4.586c-0.021,0.025-0.043,0.062-0.063,0.088c0.221-1.698,0.232-3.473,0.018-5.276
	c-1.24-10.146-9.354-17.492-18.128-16.42c-8.229,1.006-14.109,9.065-13.781,18.438c-3.215-6.555-9.932-11.071-17.723-11.071
	c-1.438,0-2.833,0.17-4.183,0.467c1.228-2.396,1.933-5.097,1.933-7.967c0-9.666-7.835-17.5-17.5-17.5
	c-5.068,0-9.62,2.17-12.816,5.608c3.035-2.258,6.878-3.608,11.066-3.608c9.803,0,17.75,7.389,17.75,16.5
	c0,8.827-7.465,16.018-16.844,16.457c0.275,0.016,0.559,0.043,0.844,0.043c6,0,11.29-3.021,14.438-7.625
	c1.605-0.49,3.291-0.771,5.041-0.771c10.472,0,18.948,9.318,18.948,20.816c0,1.866-0.245,3.672-0.665,5.396
	c1.104-2.467,1.732-5.188,1.732-8.063c0-0.146-0.021-0.287-0.021-0.437c0.195,0.414,0.394,0.826,0.605,1.228
	c-0.242-0.629-0.45-1.275-0.646-1.939c-0.098-1.662-0.375-3.272-0.854-4.807c-0.761-9.938,4.751-18.572,12.687-19.543
	c8.229-1.009,15.936,6.604,17.199,16.994c0.349,2.846,0.162,5.592-0.438,8.114c0.595-1.438,1.019-2.979,1.265-4.594
	c6.124-6.617,15.539-8.291,21.603-3.6C1820.25,274.496,1821.515,281.217,1819.163,287.506z"/>
<path d="M1910.375,250.164c-8.734,2.86-13.578,12.492-11.922,22.521c-5.161-6.758-13.294-11.117-22.453-11.117
	c-15.604,0-28.25,12.646-28.25,28.25c0,2.127,0.249,4.189,0.695,6.187c-3.59-6.648-10.605-11.187-18.695-11.187
	c-8.369,0-15.588,4.853-19.053,11.886c3.854-6.375,10.838-10.636,18.803-10.636c8.434,0,15.74,4.781,19.432,11.787
	c0.063,0.195,0.104,0.396,0.166,0.597c-0.039-0.158-0.063-0.32-0.104-0.479c0.641,1.23,1.183,2.523,1.586,3.885
	c-0.386-1.916-1.038-3.731-1.901-5.43c-0.271-1.578-0.428-3.199-0.428-4.857c0-15.604,12.647-28.25,28.25-28.25
	c12.592,0,23.254,8.236,26.902,19.619c-0.854-3.407-2.345-6.561-4.313-9.35c-1.354-9.813,3.239-19.01,11.489-21.715
	c3.104-1.021,6.337-0.982,9.415-0.095v-1.831C1916.863,249.11,1913.561,249.121,1910.375,250.164z"/>
<circle fill="none" stroke="#000000" stroke-miterlimit="10" cx="1728" cy="248.565" r="2.5"/>
<ellipse fill="none" stroke="#000000" stroke-miterlimit="10" cx="1863" cy="277.065" rx="3.25" ry="3"/>
<circle fill="none" stroke="#000000" stroke-miterlimit="10" cx="1813.5" cy="346.065" r="10.5"/>
<circle fill="none" stroke="#000000" stroke-miterlimit="10" cx="1813.024" cy="342.615" r="2.25"/>
<circle fill="#E3A4C1" stroke="#000000" stroke-miterlimit="10" cx="1814.11" cy="80.247" r="20.999"/>
<path d="M1824.584,69.818c0.083-2.833-4-5.75-6.75-5.917c0,0-1.084,0.583-1.584,1C1820.75,65.651,1823,67.568,1824.584,69.818z"/>
<path d="M1825.917,85.984c1.876-1.521,2.75-6.667,2.25-9.25c0,0-0.821,0.938-1.833,1
	C1827.084,79.651,1827.084,82.234,1825.917,85.984z"/>
<circle fill="#E3A4C1" stroke="#000000" stroke-miterlimit="10" cx="1058" cy="186.651" r="20.999"/>
<path d="M1068.473,176.22c0.084-2.832-4-5.75-6.75-5.916c0,0-1.084,0.587-1.584,1C1064.639,172.054,1066.889,173.97,1068.473,176.22
	z"/>
<path d="M1069.807,192.388c1.875-1.521,2.75-6.668,2.25-9.25c0,0-0.815,0.938-1.834,1
	C1070.973,186.054,1070.973,188.638,1069.807,192.388z"/>
<circle fill="#E3A4C1" stroke="#000000" stroke-miterlimit="10" cx="366.111" cy="234.247" r="25.999"/>
<path d="M379.077,221.334c0.104-3.508-4.953-7.117-8.357-7.324c0,0-1.341,0.725-1.96,1.236
	C374.331,216.174,377.117,218.547,379.077,221.334z"/>
<path d="M380.728,241.35c2.323-1.887,3.405-8.256,2.786-11.451c0,0-1.017,1.16-2.27,1.234
	C382.172,233.508,382.172,236.707,380.728,241.35z"/>
</svg>
