<?xml version="1.0" encoding="utf-8"?>
<!DOCTYPE svg PUBLIC "-//W3C//DTD SVG 1.1//EN" "http://www.w3.org/Graphics/SVG/1.1/DTD/svg11.dtd">
<svg version="1.1" id="mousse02" xmlns="http://www.w3.org/2000/svg" xmlns:xlink="http://www.w3.org/1999/xlink" x="0px" y="0px"
	 width="2730px" height="690.23px" viewBox="0 0 2730 690.23" enable-background="new 0 0 2730 690.23" xml:space="preserve">
<path fill="#EDBCD7" d="M2730.004,207.333c-6.359-6.165-14.023-9.964-23.58-9.964c-19.515,0-35.334,15.819-35.334,35.333
	c0,1.864,0.146,3.693,0.427,5.479c-0.877-0.655-1.78-1.22-2.707-1.694c-6.097-4.126-12.959-4.824-17.021-1.174
	c-3.664,3.29-4.062,9.226-1.575,15.128c-0.731-0.275-1.543-0.429-2.39-0.429c-2.323,0-4.342,1.145-5.409,2.837
	c-12.813-7.694-28.229-5.813-34.832,4.43c-5.125,7.95-3.47,18.653,3.278,27.021c-2.366,0.743-4.438,2.15-6.01,3.997
	c-0.451-2.22-1.213-4.403-2.313-6.495c-6.688-12.731-23.159-17.245-36.798-10.083c-11.521,6.053-17.327,18.512-14.813,29.91
	c-1.039-0.807-2.195-1.535-3.47-2.147c-7.013-3.378-14.657-2.047-17.077,2.973c-0.438,0.904-0.662,1.868-0.716,2.857
	c-2.627-3.022-6.498-4.943-10.825-4.943c-5.115,0-9.6,2.684-12.136,6.708c-2.396-8.861-10-14.846-17.991-13.678
	c-0.845,0.123-1.647,0.343-2.438,0.609c2.461-3.349,3.936-7.471,3.936-11.945c0-11.163-9.05-20.213-20.213-20.213
	c-4.975,0-9.521,1.804-13.041,4.782c0.262-1.22,0.4-2.483,0.4-3.781c0-9.988-8.098-18.085-18.084-18.085
	c-7.379,0-13.717,4.426-16.525,10.762c-1.936-9.148-10.048-16.018-19.771-16.018c-8.955,0-16.537,5.83-19.191,13.896
	c-0.771-3.598-2.289-7.118-4.604-10.317c-8.604-11.906-24.841-14.862-36.271-6.604c-8.25,5.961-11.732,16.136-9.805,25.813
	c-4.373-1.5-9.05-1.504-13.334,0.343c-4.978,2.144-8.488,6.391-10.218,11.561c-2.969-4.305-7.19-7-11.885-7
	c-5.384,0-10.15,3.545-13.106,9.002c-1.384-7.705-7.009-13.894-14.539-15.009c-6.804-1.007-13.313,2.396-17.138,8.198
	c0.99-3.05,1.533-6.306,1.533-9.691c0-17.121-13.711-31-30.625-31s-30.625,13.879-30.625,31c0,0.756,0.034,1.503,0.088,2.245
	c-2.627-1.431-5.638-2.245-8.838-2.245c-10.218,0-18.5,8.283-18.5,18.5c0,4.429,1.563,8.491,4.155,11.677
	c-5.069-2.169-10.761-1.6-14.604,1.992c-0.86,0.804-1.563,1.719-2.137,2.7c-0.813-7.794-7.404-13.869-15.414-13.869
	c-7.404,0-13.593,5.199-15.127,12.145c-3.152-1.981-6.873-3.145-10.873-3.145c-7.425,0-13.904,3.959-17.504,9.867
	c-0.063-12.089-8.313-21.867-18.496-21.867c-7.261,0-13.539,4.975-16.566,12.211l-0.146-0.069c1.146-2.325,1.901-4.943,2.123-7.757
	c0.823-10.461-5.877-19.521-14.968-20.234c-8.201-0.646-15.524,5.738-17.479,14.68c-2.619-6.182-7.578-11.372-14.275-14.121
	c-8.229-3.38-17.18-2.288-24.168,2.139c0.021-0.508,0.021-1.019,0.013-1.533c-0.345-14.438-12.313-25.861-26.733-25.518
	c-14.026,0.334-25.207,11.675-25.489,25.579c-4.53-5.157-10.974-8.585-18.222-9.188v0.028c-0.862-0.083-1.734-0.133-2.619-0.133
	c-15.07,0-27.291,12.22-27.291,27.292c0,3.83,0.793,7.475,2.217,10.782c-8.991-5.893-20.506-4.432-25.969,3.423
	c-4.138,5.945-3.631,13.871,0.607,20.143c-0.479-0.442-0.98-0.867-1.536-1.251c-5.659-3.939-13.093-3.219-17.401,1.41
	c0.041-0.54,0.082-1.081,0.082-1.632c0-11.459-9.291-20.75-20.75-20.75c-0.012,0-0.021,0.001-0.029,0.001
	c9.021-11.33,9.408-27.242,0.15-37.865c-9.736-11.177-26.732-12.575-39.443-3.806c0.043-0.605,0.072-1.214,0.072-1.83
	c0-14.359-11.645-26-26-26c-4.576,0-8.873,1.187-12.606,3.262c0.015-0.392,0.028-0.783,0.028-1.178
	c0-19.053-15.444-34.498-34.498-34.498c-17.938,0-32.668,13.687-34.338,31.182c-1.162-2.74-2.742-5.396-4.756-7.856
	c-9.973-12.182-26.625-15.038-37.203-6.381c-7.931,6.487-10.188,17.6-6.631,27.888c-3.373-1.807-7.229-2.834-11.318-2.834
	c-7.575,0-14.325,3.513-18.725,8.995c-3.179-9.656-11.039-16.494-20.242-16.494c-5.371,0-10.285,2.332-14.078,6.189
	c0.216-1.448,0.328-2.93,0.328-4.438c0-16.568-13.432-29.999-29.998-29.999c-6.858,0-13.176,2.308-18.229,6.182
	c0.496-2.303,0.771-4.702,0.771-7.173c0-16.988-12.426-30.759-27.748-30.759c-13.53,0-24.793,10.736-27.248,24.942
	c-4.782-2.511-10.224-3.938-16-3.938c-19.053,0-34.498,15.445-34.498,34.499c0,3.178,0.438,6.252,1.242,9.175
	c-4.021-5.049-10.354-6.924-14.9-4.127c-2.813,1.73-4.344,4.878-4.467,8.414c-0.47-1.619-1.16-3.233-2.11-4.78
	c-4.584-7.455-13.132-10.525-19.097-6.859c-5.963,3.667-7.08,12.683-2.498,20.138c1.289,2.097,2.896,3.831,4.67,5.182
	c-3.694-1.762-8.006-1.754-11.556,0.428c-3.231,1.988-5.196,5.027-5.532,9.031c0.896-5.441-4.552-10.271-8.604-9.41
	c-3.838,0.815-6.625,5.094-6.463,9.728c-4.554-8.953-13.459-15.315-23.938-16.29c10.085-10.376,11.632-25.748,3.17-35.411
	c-8.976-10.251-25.804-10.194-37.593,0.126c-0.677,0.591-1.313,1.204-1.929,1.834c0.104-3.61-0.48-7.367-1.854-11.05
	c-5.063-13.584-18.813-21.001-30.718-16.565c-11.071,4.127-16.642,17.055-13.287,29.773c-3.209-3.921-8.084-6.426-13.545-6.426
	c-9.668,0-17.502,7.835-17.502,17.5c0,3.003,0.759,5.829,2.093,8.299c-1.078-0.183-2.179-0.299-3.313-0.299
	c-8.306,0-15.398,5.134-18.314,12.397c0.711-9.714-5.252-18.226-13.721-19.261c-8.771-1.072-16.891,6.278-18.13,16.421
	c-0.212,1.725-0.19,3.413-0.002,5.043c-0.166-0.226-0.313-0.456-0.49-0.677c-5.855-7.381-15.587-9.413-21.729-4.539
	c-5.388,4.271-6.228,12.431-2.412,19.352c-3.261-2.039-7.104-3.236-11.231-3.236c-7.971,0-14.903,4.393-18.541,10.883
	c0.513-2.128,0.791-4.348,0.791-6.633c0-15.604-12.646-28.25-28.248-28.25c-9.827,0-18.479,5.02-23.538,12.632
	c2.168-10.384-2.729-20.57-11.757-23.531c-2.959-0.971-6.021-1.048-8.957-0.381v0.066c-6.687,1.617-12.678,7.107-15.222,14.864
	c-0.862,2.635-1.234,5.292-1.199,7.863c-4.994-11.485-17.045-17.436-27.225-13.313c-10.367,4.197-14.861,17.248-10.043,29.15
	c0.979,2.409,2.263,4.582,3.772,6.487c-3.188-1.497-6.748-2.338-10.506-2.338c-13.672,0-24.75,11.081-24.75,24.75
	c0,1.466,0.137,2.898,0.383,4.294c-3.549-3.671-8.516-5.962-14.021-5.962c-3.601,0-6.961,0.993-9.854,2.695
	c-0.252-10.549-8.864-19.028-19.479-19.028c-4.234,0-8.146,1.366-11.349,3.663c-1.229-9.583-9.399-16.995-19.319-16.995
	c-2.203,0-4.313,0.383-6.287,1.056c0.271-1.674,0.422-3.39,0.422-5.141c0-17.488-14.18-31.666-31.668-31.666
	c-5.09,0-9.896,1.208-14.154,3.343c-3.979-15.158-17.771-26.342-34.178-26.342c-19.514,0-35.334,15.819-35.334,35.333
	c0,1.864,0.146,3.693,0.43,5.479c-0.877-0.655-1.78-1.22-2.707-1.694c-6.1-4.126-12.959-4.824-17.022-1.174
	c-3.664,3.29-4.06,9.226-1.575,15.128c-0.731-0.275-1.543-0.429-2.39-0.429c-2.323,0-4.341,1.145-5.41,2.837
	c-12.813-7.694-28.229-5.813-34.831,4.43c-5.125,7.95-3.47,18.653,3.278,27.021c-2.367,0.743-4.438,2.15-6.009,3.997
	c-0.453-2.22-1.213-4.403-2.313-6.495c-6.688-12.731-23.158-17.245-36.798-10.083c-11.521,6.053-17.327,18.512-14.813,29.91
	c-1.039-0.807-2.196-1.535-3.471-2.147c-7.014-3.378-14.656-2.047-17.077,2.973c-0.438,0.904-0.661,1.868-0.717,2.857
	c-2.628-3.022-6.497-4.943-10.824-4.943c-5.116,0-9.601,2.684-12.138,6.708c-2.396-8.861-10-14.846-17.989-13.678
	c-0.847,0.123-1.648,0.343-2.438,0.609c2.461-3.349,3.936-7.471,3.936-11.945c0-11.163-9.051-20.213-20.214-20.213
	c-4.974,0-9.521,1.804-13.041,4.782c0.263-1.22,0.401-2.483,0.401-3.781c0-9.988-8.097-18.085-18.084-18.085
	c-7.38,0-13.716,4.426-16.527,10.762c-1.934-9.148-10.047-16.018-19.771-16.018c-8.955,0-16.536,5.83-19.192,13.896
	c-0.771-3.598-2.289-7.118-4.603-10.317c-8.604-11.906-24.84-14.862-36.271-6.604c-8.25,5.961-11.732,16.136-9.805,25.813
	c-4.373-1.5-9.05-1.504-13.335,0.343c-4.975,2.144-8.487,6.391-10.217,11.561c-2.966-4.305-7.19-7-11.882-7
	c-5.387,0-10.152,3.545-13.108,9.002c-1.384-7.705-7.009-13.894-14.539-15.009c-6.804-1.007-13.313,2.396-17.138,8.198
	c0.992-3.05,1.535-6.306,1.535-9.691c0-17.121-13.713-31-30.625-31c-16.917,0-30.625,13.879-30.625,31
	c0,0.756,0.035,1.503,0.088,2.245c-2.627-1.431-5.637-2.245-8.838-2.245c-10.217,0-18.5,8.283-18.5,18.5
	c0,4.429,1.561,8.491,4.156,11.677c-5.07-2.169-10.76-1.6-14.607,1.992c-0.861,0.804-1.563,1.719-2.135,2.7
	c-0.816-7.794-7.406-13.869-15.414-13.869c-7.406,0-13.592,5.199-15.127,12.145c-3.154-1.981-6.873-3.145-10.873-3.145
	c-7.424,0-13.906,3.959-17.504,9.867c-0.061-12.089-8.316-21.867-18.496-21.867c-7.26,0-13.539,4.975-16.568,12.211l-0.148-0.069
	c1.145-2.325,1.902-4.943,2.123-7.757c0.824-10.461-5.877-19.521-14.967-20.234c-8.201-0.646-15.527,5.738-17.482,14.68
	c-2.619-6.182-7.578-11.372-14.275-14.121c-8.23-3.38-17.18-2.288-24.168,2.139c0.018-0.508,0.023-1.019,0.012-1.533
	c-0.344-14.438-12.314-25.861-26.736-25.518c-14.027,0.334-25.207,11.675-25.49,25.579C13.689,257.922,7.249,254.494,0,253.89
	v436.34h2730.003L2730.004,207.333L2730.004,207.333z"/>
<circle fill="none" stroke="#000000" stroke-miterlimit="10" cx="838.922" cy="229.869" r="3.5"/>
<circle fill="none" stroke="#000000" stroke-miterlimit="10" cx="788.422" cy="207.036" r="4"/>
<circle fill="none" stroke="#000000" stroke-miterlimit="10" cx="735.921" cy="239.202" r="1.829"/>
<circle fill="none" stroke="#000000" stroke-miterlimit="10" cx="784.672" cy="246.952" r="6.25"/>
<circle fill="none" stroke="#000000" stroke-miterlimit="10" cx="760.422" cy="276.202" r="10.5"/>
<circle fill="none" stroke="#000000" stroke-miterlimit="10" cx="759.172" cy="270.952" r="2.25"/>
<circle fill="none" stroke="#000000" stroke-miterlimit="10" cx="702.672" cy="255.952" r="2.75"/>
<circle fill="none" stroke="#000000" stroke-miterlimit="10" cx="650.422" cy="281.702" r="3.5"/>
<circle fill="none" stroke="#000000" stroke-miterlimit="10" cx="840.423" cy="307.596" r="5.319"/>
<circle fill="none" stroke="#000000" stroke-miterlimit="10" cx="485.922" cy="246.702" r="2.641"/>
<circle fill="none" stroke="#000000" stroke-miterlimit="10" cx="425.672" cy="249.952" r="3.75"/>
<circle fill="none" stroke="#000000" stroke-miterlimit="10" cx="483.171" cy="286.452" r="6.751"/>
<circle fill="none" stroke="#000000" stroke-miterlimit="10" cx="461.422" cy="307.202" r="9"/>
<circle fill="none" stroke="#000000" stroke-miterlimit="10" cx="483.672" cy="283.952" r="1.75"/>
<circle fill="none" stroke="#000000" stroke-miterlimit="10" cx="463.172" cy="303.452" r="2.25"/>
<circle fill="none" stroke="#000000" stroke-miterlimit="10" cx="355.422" cy="305.702" r="10"/>
<circle fill="none" stroke="#000000" stroke-miterlimit="10" cx="358.422" cy="301.702" r="2.25"/>
<circle fill="none" stroke="#000000" stroke-miterlimit="10" cx="307.172" cy="236.952" r="3.25"/>
<circle fill="none" stroke="#000000" stroke-miterlimit="10" cx="260.672" cy="268.452" r="2.75"/>
<path fill="none" stroke="#000000" stroke-miterlimit="10" d="M123.875,272.327c0,1.614,1.309,2.922,2.92,2.922
	c1.617,0,2.924-1.308,2.924-2.922c0-1.614-1.307-2.922-2.924-2.922C125.184,269.405,123.875,270.713,123.875,272.327z"/>
<ellipse fill="none" stroke="#000000" stroke-miterlimit="10" cx="46.672" cy="250.452" rx="5.068" ry="4.152"/>
<circle fill="none" stroke="#000000" stroke-miterlimit="10" cx="19.921" cy="318.202" r="10.499"/>
<path fill="none" stroke="#000000" stroke-miterlimit="10" d="M18.92,314.952c0,1.242,1.01,2.25,2.252,2.25
	c1.24,0,2.25-1.008,2.25-2.25c0-1.242-1.01-2.25-2.25-2.25C19.93,312.702,18.92,313.71,18.92,314.952z"/>
<circle fill="none" stroke="#000000" stroke-miterlimit="10" cx="1815.214" cy="264.077" r="4.375"/>
<circle fill="none" stroke="#000000" stroke-miterlimit="10" cx="1496.589" cy="177.202" r="4.125"/>
<circle fill="none" stroke="#000000" stroke-miterlimit="10" cx="1654.089" cy="215.702" r="3.375"/>
<circle fill="none" stroke="#000000" stroke-miterlimit="10" cx="1344.089" cy="309.702" r="4.469"/>
<circle fill="none" stroke="#000000" stroke-miterlimit="10" cx="1660.589" cy="297.202" r="11.5"/>
<circle fill="none" stroke="#000000" stroke-miterlimit="10" cx="1660.256" cy="292.535" r="2.833"/>
<circle fill="none" stroke="#000000" stroke-miterlimit="10" cx="1459.021" cy="249.084" r="8.377"/>
<circle fill="none" stroke="#000000" stroke-miterlimit="10" cx="1621.245" cy="283.187" r="9.751"/>
<circle fill="none" stroke="#000000" stroke-miterlimit="10" cx="1622.213" cy="279.339" r="2.402"/>
<circle fill="none" stroke="#000000" stroke-miterlimit="10" cx="1223.088" cy="218.702" r="2.5"/>
<ellipse fill="none" stroke="#000000" stroke-miterlimit="10" cx="1088.088" cy="247.202" rx="3.25" ry="3"/>
<path fill="none" stroke="#000000" stroke-miterlimit="10" d="M1127.363,318.595c1.322,5.646,6.971,9.151,12.617,7.83
	c5.646-1.321,9.147-6.971,7.825-12.617c-1.315-5.646-6.971-9.151-12.612-7.83C1129.551,307.299,1126.045,312.949,1127.363,318.595z"
	/>
<circle fill="none" stroke="#000000" stroke-miterlimit="10" cx="1138.063" cy="312.753" r="2.25"/>
<circle fill="none" stroke="#000000" stroke-miterlimit="10" cx="2708.422" cy="207.036" r="4"/>
<circle fill="none" stroke="#000000" stroke-miterlimit="10" cx="2655.921" cy="239.202" r="1.829"/>
<circle fill="none" stroke="#000000" stroke-miterlimit="10" cx="2704.672" cy="246.952" r="6.25"/>
<circle fill="none" stroke="#000000" stroke-miterlimit="10" cx="2680.422" cy="276.202" r="10.5"/>
<circle fill="none" stroke="#000000" stroke-miterlimit="10" cx="2679.172" cy="270.952" r="2.25"/>
<circle fill="none" stroke="#000000" stroke-miterlimit="10" cx="2622.672" cy="255.952" r="2.75"/>
<circle fill="none" stroke="#000000" stroke-miterlimit="10" cx="2570.422" cy="281.702" r="3.5"/>
<circle fill="none" stroke="#000000" stroke-miterlimit="10" cx="2405.922" cy="246.702" r="2.641"/>
<circle fill="none" stroke="#000000" stroke-miterlimit="10" cx="2345.672" cy="249.952" r="3.75"/>
<circle fill="none" stroke="#000000" stroke-miterlimit="10" cx="2403.171" cy="286.452" r="6.751"/>
<circle fill="none" stroke="#000000" stroke-miterlimit="10" cx="2381.422" cy="307.202" r="9"/>
<circle fill="none" stroke="#000000" stroke-miterlimit="10" cx="2403.672" cy="283.952" r="1.75"/>
<circle fill="none" stroke="#000000" stroke-miterlimit="10" cx="2383.172" cy="303.452" r="2.25"/>
<circle fill="none" stroke="#000000" stroke-miterlimit="10" cx="2275.422" cy="305.702" r="10"/>
<circle fill="none" stroke="#000000" stroke-miterlimit="10" cx="2278.422" cy="301.702" r="2.25"/>
<circle fill="none" stroke="#000000" stroke-miterlimit="10" cx="2227.172" cy="236.952" r="3.25"/>
<circle fill="none" stroke="#000000" stroke-miterlimit="10" cx="2180.672" cy="268.452" r="2.75"/>
<path fill="none" stroke="#000000" stroke-miterlimit="10" d="M2043.875,272.327c0,1.614,1.309,2.922,2.92,2.922
	c1.617,0,2.924-1.308,2.924-2.922c0-1.614-1.307-2.922-2.924-2.922C2045.184,269.405,2043.875,270.713,2043.875,272.327z"/>
<ellipse fill="none" stroke="#000000" stroke-miterlimit="10" cx="1966.672" cy="250.452" rx="5.068" ry="4.152"/>
<circle fill="none" stroke="#000000" stroke-miterlimit="10" cx="1939.921" cy="318.202" r="10.499"/>
<path fill="none" stroke="#000000" stroke-miterlimit="10" d="M1938.92,314.952c0,1.242,1.01,2.25,2.252,2.25
	c1.24,0,2.25-1.008,2.25-2.25c0-1.242-1.01-2.25-2.25-2.25C1939.93,312.702,1938.92,313.71,1938.92,314.952z"/>
<path d="M393.121,297.093c0.029,0.044,0.057,0.089,0.086,0.132c-0.029-0.047-0.053-0.099-0.082-0.146
	C393.125,297.085,393.123,297.089,393.121,297.093z"/>
<path d="M586.438,305.877c-2.666-8.338-10.021-13.854-17.727-12.728c-0.609,0.089-1.199,0.23-1.779,0.396
	c2.063-3.163,3.277-6.925,3.277-10.981c0-11.163-9.049-20.213-20.213-20.213c-4.973,0-9.51,1.815-13.029,4.796
	c3.197-13.261-8.164-21.88-17.688-21.88c-7.4,0-13.746,4.452-16.55,10.817c-1.905-9.173-10.014-16.073-19.754-16.073
	c-8.979,0-16.563,5.875-19.188,13.983c-0.769-3.628-2.271-7.18-4.604-10.404c-8.602-11.906-24.84-14.862-36.27-6.604
	c-8.107,5.858-11.611,15.784-9.896,25.309c-4.35-1.473-8.983-1.486-13.239,0.348c-4.896,2.11-8.373,6.266-10.134,11.328
	c-2.957-4.17-7.108-6.768-11.72-6.768c-5.373,0-10.123,3.543-13.08,8.983c-1.307-7.813-6.963-14.113-14.563-15.24
	c-6.938-1.027-13.568,2.54-17.354,8.557c1.045-3.117,1.625-6.449,1.625-9.925c0-17.121-13.709-31-30.623-31
	c-16.914,0-30.625,13.879-30.625,31c0,0.832,0.039,1.653,0.105,2.469c-2.662-1.485-5.717-2.344-8.98-2.344
	c-10.217,0-18.5,8.283-18.5,18.5c0,4.146,1.381,7.961,3.688,11.045c-5-2.104-10.547-1.561-14.291,1.934
	c-0.85,0.793-1.541,1.696-2.1,2.671c-1.135-7.441-7.539-13.149-15.297-13.149c-7.41,0-13.572,5.209-15.105,12.157
	c-3.156-1.99-6.885-3.157-10.895-3.157c-7.6,0-14.223,4.141-17.764,10.283c0.002-0.096,0.014-0.188,0.014-0.283
	c0-12.15-8.283-22-18.5-22c-10.217,0-18.5,9.85-18.5,22c0,0.286,0.01,0.57,0.018,0.854c0.377-12.287,8.449-22.104,18.357-22.104
	c9.98,0,18.098,9.962,18.361,22.376c-0.014,0.98-0.078,1.945-0.199,2.891c0.043-0.1,0.092-0.193,0.135-0.292
	c-0.018,0.246-0.031,0.494-0.053,0.738c0.047-0.284,0.072-0.579,0.111-0.866c3.285-7.442,10.336-12.597,18.52-12.597
	c9.256,0,17.076,6.584,19.623,15.625c-1.068-5.572-4.398-10.329-8.986-13.313c1.85-6.628,7.715-11.479,14.695-11.479
	c7.836,0,14.285,6.104,15.209,13.979c0.033,0.299,0.061,0.6,0.078,0.902c0.625-1.632,1.584-3.122,2.908-4.357
	c3.773-3.521,9.379-4.042,14.41-1.875c0.049,0.058,0.092,0.12,0.141,0.177c-0.037-0.053-0.07-0.109-0.107-0.162
	c0.076,0.032,0.152,0.06,0.229,0.094c-0.242-0.306-0.49-0.607-0.711-0.922c-0.025-0.013-0.057-0.022-0.086-0.035
	c-0.75-1.213-1.387-2.524-1.873-3.934c-3.418-9.911,1.574-20.622,11.15-23.924c4.896-1.688,10.035-1.099,14.348,1.198
	c0.295,2.953,0.994,5.783,2.045,8.435c-1.014-3.171-1.572-6.563-1.572-10.096c0-17.432,13.402-31.563,29.938-31.563
	c16.532,0,29.938,14.131,29.938,31.563c0,3.226-0.481,6.327-1.344,9.257c-0.102,0.338-0.215,0.673-0.33,1.007
	c3.762-6.328,10.664-10.117,17.902-9.046c7.391,1.095,12.983,6.931,14.633,14.29c-0.021,0.034-0.039,0.066-0.057,0.101
	c0.059,0.261,0.131,0.516,0.182,0.78c0.01-0.021,0.021-0.038,0.033-0.057c0.155,0.885,0.272,1.785,0.313,2.705
	c0.021-1.006-0.047-1.994-0.166-2.965c3.021-5.254,7.693-8.635,12.953-8.635c7.836,0,14.393,7.491,16.074,17.534
	c-0.434-4.004-1.664-7.656-3.465-10.654c1.803-5.144,5.379-9.38,10.406-11.546c3.928-1.693,8.166-1.867,12.207-0.81
	c0.758,3.668,2.291,7.26,4.646,10.52c1.836,2.539,4.023,4.66,6.434,6.361c-7.616,0.355-13.692,6.703-13.692,14.51
	c0,5.532,3.059,10.326,7.547,12.785c-6.713,1.668-11.693,7.711-11.693,14.938c0,8.516,6.904,15.419,15.425,15.419
	c1.423,0,2.788-0.208,4.1-0.567c-0.904,0.163-1.832,0.26-2.785,0.26c-8.414,0-15.236-6.657-15.236-14.869
	c0-7.025,5-12.898,11.714-14.453c0.014,0.004,0.021,0.01,0.03,0.014c0.982-0.212,2.002-0.328,3.05-0.328
	c0.461,0,0.913,0.033,1.362,0.078c-0.319-0.046-0.633-0.112-0.944-0.179c0.012,0,0.021-0.001,0.024-0.001
	c0.109,0,0.215,0.008,0.322,0.01c-0.925-0.16-1.814-0.416-2.666-0.751c-0.033,0.002-0.063,0.009-0.101,0.011
	c-5.104-2.048-8.694-6.85-8.694-12.47c0-7.268,5.996-13.182,13.518-13.518c-0.078-0.061-0.147-0.127-0.229-0.188
	c0.229,0.146,0.459,0.297,0.688,0.437c-2.334-1.712-4.461-3.834-6.26-6.354c-8.49-11.891-6.514-28.011,4.416-36.009
	c10.926-7.995,26.666-4.839,35.156,7.051c2.016,2.82,3.428,5.881,4.276,9.014c-0.006,0.025-0.018,0.049-0.021,0.073
	c0.221,0.822,0.397,1.646,0.547,2.469c1.979-9.002,9.768-15.729,19.09-15.729c9.344,0,17.129,6.759,19.086,15.79
	c-0.012,0.03-0.021,0.06-0.037,0.09c0.109,0.563,0.193,1.133,0.246,1.713c2.354-7.167,8.963-12.337,16.771-12.337
	c9.771,0,19.815,7.561,17.186,22.326c0.076-0.226,0.138-0.446,0.203-0.67c0,0.007,0,0.013,0,0.02
	c3.447-3.099,7.932-4.99,12.859-4.99c10.879,0,19.692,9.139,19.692,20.412c0,3.53-0.883,6.838-2.404,9.733
	c-6.495,1.938-11.014,8.493-11.37,16.229c-1.945-3.358-5.563-5.624-9.726-5.624c-6.045,0-10.957,4.771-11.219,10.751
	c-1.689-2.604-4.611-4.334-7.947-4.334c-5.248,0-9.502,4.254-9.502,9.5c0,4.123,2.633,7.622,6.31,8.937
	c-3.175-1.456-5.392-4.72-5.392-8.52c0-5.155,4.066-9.334,9.082-9.334c3.605,0,6.709,2.164,8.174,5.293
	c0-0.043-0.006-0.084-0.006-0.127c0-0.011,0-0.021,0-0.03c0.002,0.002,0.004,0.004,0.006,0.006
	c0.062-6.162,4.953-11.142,10.994-11.142c4.506,0,8.371,2.775,10.07,6.742c-0.002-0.109-0.014-0.216-0.014-0.326
	c0-0.006,0-0.011,0-0.017c-0.017-0.031-0.025-0.061-0.037-0.092c0.002,0.004,0.004,0.007,0.008,0.01
	c0.229-8.803,5.496-16.152,12.934-17.238c7.193-1.051,14.105,4.104,17.031,12.017C586.254,306.157,586.342,306.014,586.438,305.877z
	"/>
<path d="M140.696,285.835c-0.012,0.144-0.029,0.284-0.043,0.427c0.336-1.258,0.57-2.568,0.676-3.925
	c0.824-10.461-5.877-19.521-14.967-20.234c-8.156-0.644-15.439,5.674-17.443,14.539c-2.605-6.229-7.578-11.465-14.314-14.23
	c-8.23-3.38-17.18-2.288-24.168,2.139c-0.014,0.411-0.035,0.82-0.07,1.228c6.926-4.201,15.678-5.176,23.738-1.866
	c12.652,5.193,19.105,19.093,15.285,31.939c2.107-5.807,2.053-11.91,0.221-17.39c2.393-9.367,9.268-15.948,16.822-15.354
	C135.243,263.799,141.627,273.976,140.696,285.835z"/>
<path d="M1827.71,255.338c-9.879-11.34-27.232-12.621-40-3.422c0.078-0.813,0.129-1.632,0.129-2.464c0-14.359-11.641-26-26-26
	c-4.369,0-8.477,1.088-12.09,2.992c0.004-0.136,0.012-0.271,0.012-0.408c0-19.053-15.44-34.498-34.498-34.498
	c-17.979,0-32.748,13.763-34.348,31.33c-1.183-2.968-2.824-5.852-4.996-8.506c-9.969-12.182-26.625-15.038-37.203-6.381
	c-8.094,6.623-10.26,18.06-6.377,28.526c-3.432-1.894-7.375-2.973-11.572-2.973c-7.545,0-14.271,3.484-18.672,8.928
	c-3.137-9.751-11.032-16.677-20.295-16.677c-5.26,0-10.072,2.243-13.83,5.958c-0.063,0.436-0.143,0.866-0.227,1.296
	c3.752-3.599,8.521-5.754,13.721-5.754c9.041,0,16.789,6.526,20.121,15.826c-3.023,4.015-4.816,9.009-4.816,14.422
	c0,2.6,0.418,5.101,1.188,7.445c-0.443-1.839-0.688-3.759-0.688-5.735c0-13.371,10.744-24.209,23.998-24.209
	c10.539,0,19.484,6.854,22.709,16.384c-1.682-6.405-5.946-11.763-11.612-14.896c0.1,0.053,0.188,0.109,0.284,0.163
	c-3.454-10.282-1.346-21.138,6.314-27.406c10.442-8.546,27.209-5.328,37.451,7.188c1.815,2.224,3.291,4.595,4.453,7.033
	c-0.063,0.838-0.104,1.682-0.104,2.535c0,3.928,0.666,7.698,1.875,11.216c-0.684-2.814-1.049-5.763-1.049-8.801
	c0-19.605,15.148-35.499,33.836-35.499c18.326,0,33.238,15.287,33.809,34.369c0.004-0.003,0.015-0.005,0.019-0.007
	c-0.004,0.098-0.006,0.197-0.013,0.296c3.537-1.699,7.521-2.658,11.729-2.658c14.705,0,26.625,11.641,26.625,26
	c0,0.365-0.021,0.726-0.041,1.087c-0.771,0.563-1.527,1.158-2.262,1.798c-1.197,1.044-2.306,2.154-3.313,3.319
	c0.479-0.467,0.969-0.927,1.48-1.372c13.338-11.621,32.582-11.369,42.979,0.563c10.396,11.931,8.012,31.029-5.328,42.65
	c-0.953,0.83-1.938,1.592-2.94,2.301c1.817-1.051,3.569-2.291,5.225-3.73C1836.298,286.321,1838.23,267.412,1827.71,255.338z"/>
<path d="M1568.05,227.788c0-16.568-13.43-29.999-29.998-29.999c-6.771,0-13.006,2.263-18.022,6.049
	c0.518-2.339,0.813-4.774,0.813-7.29c0-16.988-12.426-30.759-27.748-30.759c-13.521,0-24.773,10.721-27.242,24.911
	c-4.766-2.487-10.176-3.906-15.924-3.906c-19.053,0-34.498,15.445-34.498,34.499c0,3.246,0.479,6.376,1.318,9.354
	c-3.986-5.441-10.604-7.531-15.313-4.64c-2.898,1.785-4.404,5.082-4.438,8.755c-0.465-1.664-1.164-3.324-2.142-4.912
	c-4.584-7.455-13.134-10.525-19.1-6.859c-5.963,3.667-7.079,12.683-2.498,20.138c1.382,2.246,3.132,4.07,5.055,5.455
	c-3.803-2.022-8.348-2.13-12.063,0.154c-2.5,1.538-4.209,3.901-5.035,6.594c-1.291-4.849-5.42-8.028-9.467-7.167
	c-3.963,0.841-6.428,5.248-5.787,10.079c-4.668-8.925-13.694-15.203-24.257-16.021c10.354-10.377,12.017-25.954,3.473-35.713
	c-8.975-10.251-25.805-10.194-37.592,0.126c-0.488,0.427-0.953,0.868-1.408,1.315c0.164-0.149,0.324-0.302,0.49-0.448
	c11.838-10.362,28.594-10.582,37.43-0.491c8.834,10.089,6.397,26.669-5.438,37.031c-3.74,3.275-7.979,5.534-12.293,6.777
	c4.821-1.091,9.58-3.443,13.717-7.065c0.195-0.17,0.383-0.347,0.57-0.521c15.171,1.261,27.101,14.207,27.101,30.011
	c0,5.086-1.254,9.866-3.436,14.068c-2.519-0.105-4.998,0.084-7.404,0.563c3.854-0.451,7.875-0.22,11.885,0.811
	c11.494,2.951,19.933,11.631,22.816,21.988c3.693,12.007-0.109,24.975-9.355,33.045c5.373-4.139,9.463-10.027,11.279-17.105
	c4.326-16.85-5.826-34.016-22.674-38.342c-1.9-0.487-3.803-0.783-5.689-0.914c2.646-4.468,4.188-9.67,4.188-15.241
	c0-4.522-1.004-8.81-2.797-12.654c-0.779-5.063,1.44-9.653,5.188-10.448c3.854-0.819,7.867,2.688,9.1,7.871
	c-0.553,3.151,0.031,6.602,1.906,9.652c0.248,0.402,0.514,0.786,0.791,1.154c-3.771-6.59-2.326-14.607,3.361-18.104
	c5.156-3.17,12.051-1.557,16.41,3.489c-1.304-1.907-2.986-3.391-4.854-4.415c-1.45-1.313-2.78-2.891-3.903-4.717
	c-4.752-7.732-4.021-16.82,1.635-20.298c5.654-3.477,14.094-0.027,18.846,7.705c0.824,1.338,1.475,2.717,1.967,4.1
	c0.008,0.116-0.004,0.23,0.006,0.348c0.308,0.971,0.558,1.941,0.701,2.9l0.138-0.133c-0.781-4.622,0.711-9.048,4.256-11.228
	c4.987-3.068,12.131-0.525,16.004,5.675c-0.047-0.141-0.101-0.278-0.146-0.419c-0.104-0.199-0.22-0.396-0.334-0.594
	c-0.771-2.884-1.212-5.908-1.212-9.042c0-19.054,15.228-34.499,34.002-34.499c5.476,0,10.632,1.328,15.209,3.659
	c-0.188,1.446-0.291,2.924-0.291,4.428c0,2.402,0.26,4.738,0.729,6.982c-0.313-1.858-0.479-3.772-0.479-5.732
	c0-16.988,12.199-30.759,27.25-30.759s27.25,13.771,27.25,30.759c0,2.383-0.256,4.695-0.711,6.922
	c0.049-0.042,0.104-0.081,0.152-0.122c-0.043,0.191-0.084,0.383-0.131,0.573c5.03-4.151,11.377-6.632,18.272-6.632
	c16.361,0,29.623,13.916,29.623,31.082c0,3.104-0.438,6.101-1.246,8.931C1567.339,235.209,1568.05,231.583,1568.05,227.788z"/>
<path d="M1253.42,180.354c-11.902,4.437-17.447,19.045-12.385,32.63c1.453,3.896,3.623,7.28,6.254,10.027
	c-1.799-2.414-3.318-5.175-4.451-8.222c-5.238-14.059-0.334-28.866,10.955-33.074c11.289-4.207,24.688,3.779,29.926,17.838
	c1.367,3.669,2.037,7.388,2.09,10.958c0.527-4.365,0.029-9.035-1.67-13.592C1279.078,183.336,1265.324,175.919,1253.42,180.354z"/>
<path d="M1209.09,222.202c0,2.872,0.703,5.574,1.928,7.966c-1.348-0.297-2.737-0.466-4.18-0.466
	c-7.791,0-14.506,4.521-17.721,11.074c0.326-9.368-5.56-17.432-13.783-18.438c-8.771-1.072-16.889,6.278-18.129,16.421
	c-0.221,1.808-0.203,3.578,0.018,5.278c-0.021-0.029-0.041-0.06-0.063-0.088c-6.066-7.457-16.146-9.51-22.506-4.586
	c-5.174,4.002-6.271,11.375-3.248,18.002c0.174,0.091,0.348,0.181,0.52,0.277c-2.352-6.289-1.086-13.01,3.766-16.764
	c6.063-4.693,15.479-3.021,21.604,3.599c0.244,1.61,0.668,3.153,1.26,4.592c-0.598-2.525-0.78-5.272-0.436-8.115
	c1.271-10.394,8.973-18.002,17.196-16.996c7.938,0.97,13.443,9.605,12.688,19.543c-0.482,1.528-0.764,3.143-0.859,4.807
	c-0.188,0.66-0.396,1.309-0.641,1.935c0.219-0.394,0.412-0.809,0.607-1.222c-0.009,0.145-0.023,0.285-0.023,0.431
	c0,2.875,0.629,5.6,1.732,8.064c-0.418-1.724-0.666-3.526-0.666-5.396c0-11.498,8.479-20.817,18.951-20.817
	c1.748,0,3.434,0.281,5.037,0.774c3.149,4.602,8.44,7.624,14.44,7.624c0.285,0,0.563-0.029,0.844-0.043
	c-9.379-0.441-16.844-7.629-16.844-16.457c0-9.112,7.947-16.5,17.75-16.5c4.188,0,8.031,1.356,11.068,3.611
	c-3.199-3.443-7.748-5.611-12.818-5.611C1216.922,204.702,1209.09,212.537,1209.09,222.202z"/>
<path d="M1121.338,254.952c-8.09,0-15.104,4.531-18.695,11.184c0.445-1.991,0.695-4.057,0.695-6.184
	c0-15.604-12.646-28.25-28.25-28.25c-9.16,0-17.293,4.362-22.453,11.118c1.658-10.025-3.188-19.654-11.922-22.518
	c-3.186-1.044-6.488-1.056-9.625-0.216v0.075c-6.414,1.813-12.094,7.193-14.553,14.691c-0.963,2.932-1.322,5.894-1.178,8.73
	c-0.029-0.077-0.056-0.154-0.084-0.231c-4.818-11.902-17.131-18.147-27.496-13.949c-10.365,4.197-14.861,17.248-10.041,29.15
	c1.131,2.798,2.688,5.272,4.521,7.382c-3.459-1.84-7.396-2.898-11.59-2.898c-13.67,0-24.75,11.081-24.75,24.75
	c0,1.212,0.09,2.402,0.258,3.567c-3.512-3.297-8.227-5.324-13.424-5.324c-3.971,0-7.658,1.186-10.75,3.209
	c0.047-0.507,0.082-1.017,0.082-1.536c0-10.032-8.135-18.166-18.166-18.166c-4.692,0-8.957,1.789-12.176,4.712
	c-0.113-10.26-8.455-18.545-18.74-18.545c-2.379,0-4.646,0.458-6.736,1.266c0.312-1.714,0.484-3.47,0.484-5.267
	c0-17.305-14.699-31.333-32.834-31.333c-4.801,0-9.363,0.986-13.475,2.756c-3.49-14.88-18.166-26.089-34.689-26.089
	c-19.146,0-34.668,14.924-34.668,33.334c0,2.782,0.361,5.482,1.031,8.064c-6.787-6.66-15.604-7.998-20.447-3.732
	c-3.807,3.349-4.141,9.696-1.455,15.716c-0.807-0.452-1.729-0.716-2.725-0.716c-2.521,0-4.648,1.669-5.354,3.961
	c-10.508-8.691-25.061-8.609-32.793,0.32c-6.854,7.913-6.072,20.143,1.229,29.197c-2.572,1.256-4.711,3.243-6.152,5.698
	c-0.428-2.419-1.188-4.804-2.387-7.076c-6.688-12.731-23.162-17.245-36.795-10.083c-10.912,5.73-16.681,17.203-15.123,28.082
	c-0.938-0.781-1.984-1.476-3.154-2.039c-6.502-3.133-13.904-1.25-16.533,4.204c-0.444,0.936-0.727,1.915-0.852,2.911
	c-2.605-3.299-6.625-5.426-11.156-5.426c-7.871,0-14.25,6.38-14.25,14.25c0,1.891,0.375,3.691,1.045,5.343
	c-0.348-1.264-0.545-2.591-0.545-3.968c0-8.077,6.379-14.625,14.25-14.625c4.232,0,8.012,1.916,10.617,4.929
	c-0.283,4.012,1.918,8.223,5.838,10.923c-3.611,0.911-6.289,4.171-6.289,8.066c0,4.602,3.729,8.333,8.332,8.333
	c1.074,0,2.098-0.21,3.041-0.58c-0.652,0.155-1.334,0.246-2.039,0.246c-4.604,0-8.334-3.508-8.334-7.833
	c0-3.916,3.063-7.151,7.051-7.731c-0.063-0.045-0.125-0.094-0.188-0.14c0.131-0.021,0.262-0.045,0.395-0.059
	c-4.401-2.513-7.106-6.619-7.174-10.476c0.012,0.016,0.027,0.029,0.039,0.046c0.01-0.137,0.012-0.275,0.025-0.41
	c-0.021-0.026-0.037-0.051-0.06-0.077c0.039-1.057,0.271-2.091,0.738-3.061c2.359-4.899,9.545-6.332,16.047-3.199
	c3.008,1.448,5.338,3.623,6.746,6.024c-0.18-0.575-0.328-1.166-0.473-1.759c0.069,0.069,0.151,0.134,0.227,0.204
	c-3.557-11.955,1.443-24.987,12.574-30.834c12.707-6.674,28.594-1.458,35.479,11.654c0.949,1.81,1.66,3.676,2.18,5.564
	c-0.813,1.809-1.271,3.808-1.271,5.918c0,8.008,6.49,14.5,14.498,14.5c2.428,0,4.707-0.604,6.717-1.655
	c-2.367,0.743-5,0.938-7.684,0.419c-7.863-1.521-13.131-8.47-11.771-15.518c1.363-7.048,8.849-11.53,16.705-10.01
	c3.275,0.634,6.088,2.218,8.172,4.35c-2.588-3.962-7.055-6.586-12.143-6.586c-1.953,0-3.814,0.393-5.519,1.094
	c-6.205-9-6.723-20.121-0.479-27.33c7.1-8.198,20.451-8.454,31.057-1.082c-0.051,0.298-0.081,0.602-0.081,0.913
	c0,1.948,0.997,3.662,2.512,4.664c-1.128-0.991-1.844-2.417-1.844-4.009c0-2.991,2.507-5.417,5.598-5.417
	c1.52,0,2.895,0.588,3.897,1.539c-0.188-0.27-0.408-0.514-0.643-0.745c0.057,0.024,0.108,0.041,0.168,0.066
	c-2.877-6.29-2.728-12.469,0.996-15.741c4.455-3.922,12.59-2.409,19.637,3.139c0.367,1.345,0.813,2.659,1.338,3.933
	c-0.352-1.151-0.623-2.336-0.852-3.536c0.209,0.173,0.422,0.335,0.631,0.515c-0.217-0.242-0.443-0.462-0.664-0.692
	c-0.369-1.994-0.584-4.041-0.584-6.142c0-18.687,15.221-33.834,34-33.834c15.479,0,29.4,10.385,33.521,24.469
	c-10.172,4.712-17.406,14.279-18.396,25.549c3.258-15.649,16.289-27.352,31.875-27.352c18.041,0,32.666,15.67,32.666,35
	c0,1.077-0.053,2.14-0.143,3.191c0.188-0.659,0.354-1.327,0.492-2.002c1.901-0.654,3.938-1.021,6.063-1.021
	c10.172,0,18.43,8.104,18.721,18.206c-1.653,1.715-2.987,3.748-3.875,6.009c2.896-6.083,9.066-10.297,16.238-10.297
	c9.938,0,18,8.078,18,18.041c0,0.325-0.022,0.646-0.041,0.966c-4.916,3.575-8.127,9.356-8.127,15.901c0,2.3,0.416,4.498,1.141,6.549
	c-0.518-1.761-0.807-3.62-0.807-5.549c0-10.862,8.805-19.667,19.666-19.667c5.119,0,9.754,1.983,13.246,5.193
	c1.387,7.64,6.266,14.061,12.938,17.53c-3.577-2.4-6.633-5.771-8.724-9.959c-6.17-12.351-1.663-27.113,10.063-32.973
	c11.729-5.86,26.241-0.6,32.412,11.752c1.063,2.129,1.805,4.33,2.247,6.545c-0.854-7.974-5.506-14.798-12.1-18.671
	c-1.525-1.974-2.838-4.215-3.845-6.699c-4.92-12.144-0.817-25.263,9.153-29.3c9.979-4.04,22.045,2.529,26.963,14.673
	c0.021,0.043,0.031,0.087,0.052,0.13c0.007,0.044,0.009,0.089,0.015,0.132c-0.002-0.03,0.002-0.061,0.002-0.091
	c0.729,1.84,1.236,3.7,1.565,5.548c-0.205-2.242-0.716-4.514-1.547-6.756c0.073-2.346,0.465-4.753,1.247-7.149
	c2.521-7.688,8.25-13.229,14.641-15.043v-0.058c2.979-0.801,6.088-0.805,9.079,0.176c8.25,2.706,12.851,11.904,11.487,21.715
	c-1.963,2.79-3.452,5.938-4.308,9.346c3.646-11.38,14.313-19.618,26.9-19.618c15.604,0,28.252,12.646,28.252,28.25
	c0,1.658-0.154,3.28-0.433,4.859c-0.861,1.692-1.516,3.511-1.899,5.427c0.402-1.356,0.942-2.649,1.587-3.883
	c-0.036,0.158-0.063,0.32-0.104,0.479c0.063-0.194,0.107-0.396,0.166-0.594c3.691-7.006,10.998-11.788,19.436-11.788
	c7.966,0,14.938,4.258,18.804,10.633C1136.926,259.802,1129.707,254.952,1121.338,254.952z"/>
<path d="M70.448,262.767c-0.344-14.438-12.314-25.861-26.736-25.518c-13.789,0.329-24.82,11.294-25.463,24.872
	c-4.696-4.809-11.103-7.935-18.249-8.363v1.274c7.071,0.229,13.458,3.146,18.221,7.768c-0.01,0.401-0.012,0.804-0.004,1.209
	c0.029,1.141,0.135,2.261,0.305,3.359c-0.027-0.419-0.051-0.839-0.061-1.263c-0.365-15.197,10.75-27.784,24.816-28.12
	c14.07-0.335,25.768,11.712,26.131,26.909c0.076,3.206-0.365,6.293-1.229,9.177C69.723,270.626,70.543,266.792,70.448,262.767z"/>
<path d="M2313.121,297.093c0.029,0.044,0.057,0.089,0.086,0.132c-0.029-0.047-0.053-0.099-0.082-0.146
	C2313.125,297.085,2313.123,297.089,2313.121,297.093z"/>
<path d="M2506.438,305.877c-2.666-8.338-10.021-13.854-17.727-12.728c-0.609,0.089-1.199,0.23-1.779,0.396
	c2.063-3.163,3.277-6.925,3.277-10.981c0-11.163-9.049-20.213-20.213-20.213c-4.973,0-9.51,1.815-13.029,4.796
	c3.197-13.261-8.164-21.88-17.693-21.88c-7.396,0-13.746,4.452-16.545,10.817c-1.905-9.173-10.014-16.073-19.754-16.073
	c-8.979,0-16.563,5.875-19.188,13.983c-0.765-3.628-2.271-7.18-4.604-10.404c-8.603-11.906-24.841-14.862-36.271-6.604
	c-8.106,5.858-11.611,15.784-9.896,25.309c-4.352-1.473-8.985-1.486-13.241,0.348c-4.896,2.11-8.373,6.266-10.129,11.328
	c-2.957-4.17-7.113-6.768-11.726-6.768c-5.373,0-10.123,3.543-13.08,8.983c-1.307-7.813-6.963-14.113-14.563-15.24
	c-6.938-1.027-13.568,2.54-17.354,8.557c1.045-3.117,1.625-6.449,1.625-9.925c0-17.121-13.709-31-30.623-31
	s-30.625,13.879-30.625,31c0,0.832,0.039,1.653,0.104,2.469c-2.662-1.485-5.718-2.344-8.979-2.344c-10.218,0-18.5,8.283-18.5,18.5
	c0,4.146,1.383,7.961,3.688,11.045c-5-2.104-10.548-1.561-14.291,1.934c-0.854,0.793-1.541,1.696-2.104,2.671
	c-1.135-7.441-7.539-13.149-15.297-13.149c-7.41,0-13.572,5.209-15.104,12.157c-3.154-1.99-6.888-3.157-10.896-3.157
	c-7.602,0-14.225,4.141-17.765,10.283c0.002-0.096,0.015-0.188,0.015-0.283c0-12.15-8.283-22-18.5-22c-10.218,0-18.5,9.85-18.5,22
	c0,0.286,0.01,0.57,0.021,0.854c0.377-12.287,8.445-22.104,18.354-22.104c9.979,0,18.098,9.962,18.36,22.376
	c-0.015,0.98-0.077,1.945-0.198,2.891c0.043-0.1,0.092-0.193,0.135-0.292c-0.019,0.246-0.027,0.494-0.053,0.738
	c0.047-0.284,0.071-0.579,0.11-0.866c3.284-7.442,10.336-12.597,18.521-12.597c9.26,0,17.076,6.584,19.623,15.625
	c-1.064-5.572-4.396-10.329-8.982-13.313c1.851-6.628,7.716-11.479,14.693-11.479c7.836,0,14.283,6.104,15.209,13.979
	c0.031,0.299,0.063,0.6,0.076,0.902c0.625-1.632,1.584-3.122,2.907-4.357c3.771-3.521,9.379-4.042,14.41-1.875
	c0.049,0.058,0.092,0.12,0.142,0.177c-0.037-0.053-0.068-0.109-0.104-0.162c0.074,0.032,0.148,0.06,0.229,0.094
	c-0.24-0.306-0.488-0.607-0.711-0.922c-0.021-0.013-0.057-0.022-0.086-0.035c-0.75-1.213-1.387-2.524-1.873-3.934
	c-3.418-9.911,1.574-20.622,11.149-23.924c4.896-1.688,10.034-1.099,14.349,1.198c0.295,2.953,0.993,5.783,2.045,8.435
	c-1.015-3.171-1.57-6.563-1.57-10.096c0-17.432,13.4-31.563,29.938-31.563c16.533,0,29.938,14.131,29.938,31.563
	c0,3.226-0.484,6.327-1.347,9.257c-0.102,0.338-0.215,0.673-0.33,1.007c3.765-6.328,10.664-10.117,17.902-9.046
	c7.394,1.095,12.988,6.931,14.633,14.29c-0.02,0.034-0.039,0.066-0.057,0.101c0.062,0.261,0.131,0.516,0.182,0.78
	c0.013-0.021,0.023-0.038,0.033-0.057c0.158,0.885,0.277,1.785,0.318,2.705c0.02-1.006-0.05-1.994-0.166-2.965
	c3.02-5.254,7.689-8.635,12.95-8.635c7.836,0,14.392,7.491,16.073,17.534c-0.435-4.004-1.664-7.656-3.466-10.654
	c1.804-5.144,5.379-9.38,10.406-11.546c3.928-1.693,8.166-1.867,12.207-0.81c0.758,3.668,2.291,7.26,4.646,10.52
	c1.836,2.539,4.023,4.66,6.438,6.361c-7.621,0.355-13.697,6.703-13.697,14.51c0,5.532,3.063,10.326,7.548,12.785
	c-6.713,1.668-11.689,7.711-11.689,14.938c0,8.516,6.903,15.419,15.424,15.419c1.42,0,2.789-0.208,4.096-0.567
	c-0.903,0.163-1.832,0.26-2.784,0.26c-8.414,0-15.232-6.657-15.232-14.869c0-7.025,5-12.898,11.713-14.453
	c0.01,0.004,0.021,0.01,0.029,0.014c0.979-0.212,2.002-0.328,3.051-0.328c0.461,0,0.914,0.033,1.361,0.078
	c-0.318-0.046-0.635-0.112-0.943-0.179c0.008,0,0.02-0.001,0.021-0.001c0.108,0,0.217,0.008,0.321,0.01
	c-0.924-0.16-1.813-0.416-2.666-0.751c-0.032,0.002-0.063,0.009-0.096,0.011c-5.104-2.048-8.699-6.85-8.699-12.47
	c0-7.268,5.996-13.182,13.521-13.518c-0.076-0.061-0.148-0.127-0.229-0.188c0.229,0.146,0.459,0.297,0.69,0.437
	c-2.334-1.712-4.461-3.834-6.264-6.354c-8.486-11.891-6.514-28.011,4.416-36.009c10.93-7.995,26.666-4.839,35.156,7.051
	c2.02,2.82,3.428,5.881,4.281,9.014c-0.008,0.025-0.02,0.049-0.023,0.073c0.225,0.822,0.402,1.646,0.551,2.469
	c1.979-9.002,9.769-15.729,19.091-15.729c9.344,0,17.129,6.759,19.086,15.79c-0.013,0.03-0.022,0.06-0.037,0.09
	c0.104,0.563,0.19,1.133,0.246,1.713c2.354-7.167,8.963-12.337,16.771-12.337c9.771,0,19.817,7.561,17.188,22.326
	c0.074-0.226,0.137-0.446,0.201-0.67c0,0.007,0,0.013,0,0.02c3.447-3.099,7.934-4.99,12.856-4.99
	c10.879,0,19.697,9.139,19.697,20.412c0,3.53-0.884,6.838-2.408,9.733c-6.496,1.938-11.01,8.493-11.371,16.229
	c-1.942-3.358-5.562-5.624-9.721-5.624c-6.045,0-10.957,4.771-11.22,10.751c-1.69-2.604-4.61-4.334-7.946-4.334
	c-5.248,0-9.502,4.254-9.502,9.5c0,4.123,2.633,7.622,6.305,8.937c-3.172-1.456-5.387-4.72-5.387-8.52
	c0-5.155,4.063-9.334,9.082-9.334c3.604,0,6.709,2.164,8.174,5.293c0-0.043-0.006-0.084-0.006-0.127c0-0.011,0-0.021,0-0.03
	c0.002,0.002,0.004,0.004,0.006,0.006c0.06-6.162,4.953-11.142,10.994-11.142c4.506,0,8.371,2.775,10.069,6.742
	c-0.002-0.109-0.018-0.216-0.018-0.326c0-0.006,0-0.011,0-0.017c-0.012-0.031-0.021-0.061-0.037-0.092
	c0.002,0.004,0.004,0.007,0.01,0.01c0.229-8.803,5.496-16.152,12.937-17.238c7.193-1.051,14.104,4.104,17.031,12.017
	C2506.254,306.157,2506.342,306.014,2506.438,305.877z"/>
<path d="M2060.695,285.835c-0.012,0.144-0.029,0.284-0.043,0.427c0.336-1.258,0.57-2.568,0.676-3.925
	c0.824-10.461-5.877-19.521-14.967-20.234c-8.156-0.644-15.439,5.674-17.443,14.539c-2.604-6.229-7.578-11.465-14.313-14.23
	c-8.23-3.38-17.185-2.288-24.168,2.139c-0.019,0.411-0.035,0.82-0.07,1.228c6.926-4.201,15.678-5.176,23.738-1.866
	c12.647,5.193,19.104,19.093,15.285,31.939c2.104-5.807,2.053-11.91,0.221-17.39c2.393-9.367,9.268-15.948,16.822-15.354
	C2055.242,263.799,2061.627,273.976,2060.695,285.835z"/>
<path d="M1990.447,262.767c-0.344-14.438-12.314-25.861-26.736-25.518c-13.789,0.329-24.82,11.294-25.463,24.872
	c-4.695-4.81-13.748-8.426-20.267-8.419c-15.402,0.017-27.896,12.488-27.896,27.894c0,3.684,0.732,7.19,2.035,10.407
	c-8.967-5.756-20.359-4.273-25.787,3.529c-4.033,5.798-3.639,13.475,0.316,19.667c-6.054-5.305-13.586-4.155-17.936-0.306
	c0.02-0.313,0.032-0.625,0.032-0.941c0-11.459-9.291-20.75-20.75-20.75c-0.063,0-0.131,0.005-0.196,0.005
	c-0.355,0.451-0.73,0.894-1.121,1.329c11.453,0.008,20.735,9.295,20.735,20.749c0,0.342-0.024,0.678-0.045,1.015
	c-0.164,0.203-0.324,0.411-0.473,0.624c-4.043,5.814-2.314,14.011,3.854,18.307c1.854,1.285,3.89,2.065,5.941,2.387
	c-1.283-0.467-2.541-1.111-3.734-1.941c-6.416-4.463-8.512-12.548-4.68-18.056c3.829-5.509,11.713-6.418,20.146-0.612
	c-0.449-0.526-0.912-1.01-1.388-1.453c0.429,0.251,0.854,0.508,1.271,0.793c-4.699-6.414-5.529-14.508-1.412-20.427
	c5.192-7.47,16.367-8.737,25.522-3.166c0.146,0.326,0.283,0.653,0.438,0.973c0.227,0.157,0.432,0.331,0.646,0.495
	c-1.525-3.461-2.396-7.284-2.396-11.319c0-15.405,12.375-28.162,27.635-27.894c5.813,0.103,14.688,3.17,19.453,7.79
	c-0.011,0.401-0.013,0.804-0.004,1.209c0.028,1.141,0.135,2.261,0.306,3.359c-0.024-0.419-0.052-0.839-0.063-1.263
	c-0.364-15.197,10.75-27.784,24.814-28.12c14.067-0.335,25.77,11.712,26.132,26.909c0.075,3.206-0.364,6.293-1.229,9.177
	C1989.723,270.626,1990.543,266.792,1990.447,262.767z"/>
<circle fill="#EDBCD7" stroke="#000000" stroke-miterlimit="10" cx="933.132" cy="184.498" r="20.999"/>
<path d="M943.606,174.069c0.083-2.833-4-5.75-6.75-5.917c0,0-1.084,0.583-1.584,1C939.771,169.902,942.021,171.819,943.606,174.069z
	"/>
<path d="M944.939,190.236c1.876-1.523,2.75-6.666,2.25-9.25c0,0-0.821,0.938-1.833,1
	C946.106,183.902,946.106,186.486,944.939,190.236z"/>
<circle fill="#EDBCD7" stroke="#000000" stroke-miterlimit="10" cx="432.686" cy="143.026" r="18.749"/>
<path d="M442.037,133.714c0.074-2.528-3.571-5.134-6.027-5.282c0,0-0.968,0.521-1.414,0.893
	C438.613,129.994,440.623,131.705,442.037,133.714z"/>
<path d="M443.227,148.15c1.679-1.36,2.456-5.953,2.013-8.259c0,0-0.732,0.836-1.641,0.893
	C444.269,142.494,444.269,144.801,443.227,148.15z"/>
<circle fill="#EDBCD7" stroke="#000000" stroke-miterlimit="10" cx="2294.354" cy="202.201" r="23.749"/>
<path d="M2306.197,190.406c0.095-3.204-4.523-6.503-7.635-6.692c0,0-1.229,0.66-1.789,1.131
	C2301.862,185.694,2304.406,187.861,2306.197,190.406z"/>
<path d="M2307.705,208.689c2.123-1.722,3.111-7.539,2.545-10.461c0,0-0.928,1.061-2.073,1.132
	C2309.025,201.527,2309.025,204.449,2307.705,208.689z"/>
<circle fill="#EDBCD7" stroke="#000000" stroke-miterlimit="10" cx="2027.379" cy="172.204" r="20.75"/>
<path d="M2037.729,161.899c0.082-2.8-3.949-5.682-6.672-5.847c0,0-1.065,0.576-1.563,0.988
	C2033.939,157.781,2036.162,159.675,2037.729,161.899z"/>
<path d="M2039.045,177.874c1.854-1.504,2.717-6.587,2.223-9.139c0,0-0.811,0.926-1.811,0.988
	C2040.197,171.615,2040.197,174.169,2039.045,177.874z"/>
<path d="M2730,206.147c-6.439-5.639-15.057-9.111-24.248-9.111c-19.146,0-34.668,14.924-34.668,33.334
	c0,2.782,0.361,5.482,1.031,8.064c-6.787-6.66-15.603-7.998-20.447-3.732c-3.807,3.349-4.141,9.696-1.455,15.716
	c-0.807-0.452-1.73-0.716-2.725-0.716c-2.521,0-4.648,1.669-5.353,3.961c-10.51-8.691-25.063-8.609-32.793,0.32
	c-6.854,7.913-6.074,20.143,1.228,29.197c-2.572,1.256-4.711,3.243-6.152,5.698c-0.428-2.419-1.189-4.804-2.387-7.076
	c-6.688-12.731-23.162-17.245-36.795-10.083c-10.912,5.73-16.679,17.203-15.123,28.082c-0.938-0.781-1.984-1.476-3.154-2.039
	c-6.502-3.133-13.904-1.25-16.533,4.204c-0.447,0.936-0.727,1.915-0.852,2.911c-2.605-3.299-6.625-5.426-11.156-5.426
	c-7.871,0-14.25,6.38-14.25,14.25c0,1.891,0.375,3.691,1.045,5.343c-0.348-1.264-0.545-2.591-0.545-3.968
	c0-8.077,6.379-14.625,14.25-14.625c4.229,0,8.012,1.916,10.617,4.929c-0.283,4.012,1.918,8.223,5.838,10.923
	c-3.611,0.911-6.289,4.171-6.289,8.066c0,4.602,3.729,8.333,8.332,8.333c1.071,0,2.098-0.21,3.041-0.58
	c-0.652,0.155-1.334,0.246-2.039,0.246c-4.604,0-8.334-3.508-8.334-7.833c0-3.916,3.061-7.151,7.051-7.731
	c-0.063-0.045-0.125-0.094-0.189-0.14c0.131-0.021,0.262-0.045,0.396-0.059c-4.404-2.513-7.109-6.619-7.176-10.476
	c0.014,0.016,0.026,0.029,0.039,0.046c0.012-0.137,0.014-0.275,0.022-0.41c-0.019-0.026-0.037-0.051-0.055-0.077
	c0.039-1.057,0.271-2.091,0.737-3.061c2.357-4.899,9.545-6.332,16.048-3.199c3.008,1.448,5.338,3.623,6.746,6.024
	c-0.181-0.575-0.328-1.166-0.474-1.759c0.072,0.069,0.154,0.134,0.228,0.204c-3.557-11.955,1.443-24.987,12.574-30.834
	c12.707-6.674,28.594-1.458,35.479,11.654c0.949,1.81,1.66,3.676,2.179,5.564c-0.813,1.809-1.271,3.808-1.271,5.918
	c0,8.008,6.49,14.5,14.498,14.5c2.43,0,4.707-0.604,6.719-1.655c-2.367,0.743-5,0.938-7.686,0.419
	c-7.863-1.521-13.131-8.47-11.771-15.518c1.363-7.048,8.847-11.53,16.705-10.01c3.273,0.634,6.088,2.218,8.175,4.35
	c-2.588-3.962-7.058-6.586-12.146-6.586c-1.953,0-3.813,0.393-5.521,1.094c-6.205-9-6.721-20.121-0.479-27.33
	c7.1-8.198,20.449-8.454,31.057-1.082c-0.051,0.298-0.082,0.602-0.082,0.913c0,1.948,0.998,3.662,2.508,4.664
	c-1.127-0.991-1.84-2.417-1.84-4.009c0-2.991,2.504-5.417,5.594-5.417c1.521,0,2.896,0.588,3.902,1.539
	c-0.188-0.27-0.41-0.514-0.645-0.745c0.059,0.024,0.111,0.041,0.168,0.066c-2.877-6.29-2.728-12.469,0.996-15.741
	c4.455-3.922,12.592-2.409,19.639,3.139c0.365,1.345,0.809,2.659,1.338,3.933c-0.354-1.151-0.623-2.336-0.854-3.536
	c0.209,0.173,0.422,0.335,0.631,0.515c-0.217-0.242-0.441-0.462-0.664-0.692c-0.367-1.994-0.584-4.041-0.584-6.142
	c0-18.687,15.223-33.834,34-33.834c9.057,0,17.576,3.559,23.916,9.33v-2.217H2730L2730,206.147z"/>
</svg>
