<?xml version="1.0" encoding="utf-8"?>
<!DOCTYPE svg PUBLIC "-//W3C//DTD SVG 1.1//EN" "http://www.w3.org/Graphics/SVG/1.1/DTD/svg11.dtd">
<svg version="1.1" id="mousse02" xmlns="http://www.w3.org/2000/svg" xmlns:xlink="http://www.w3.org/1999/xlink" x="0px" y="0px"
	 width="1920px" height="480px" viewBox="0 0 1920 480" enable-background="new 0 0 1920 480" xml:space="preserve">
<path fill="#EDBCD7" d="M1920,480V190.448c-4.473-4.335-9.862-7.007-16.583-7.007c-13.726,0-24.851,11.124-24.851,24.846
	c0,1.312,0.104,2.597,0.301,3.854c-0.617-0.461-1.253-0.858-1.905-1.191c-4.287-2.901-9.112-3.392-11.97-0.825
	c-2.577,2.313-2.857,6.486-1.107,10.637c-0.516-0.192-1.086-0.302-1.682-0.302c-1.633,0-3.053,0.807-3.803,1.995
	c-9.012-5.409-19.854-4.087-24.498,3.115c-3.604,5.59-2.44,13.116,2.306,19c-1.664,0.521-3.122,1.512-4.228,2.81
	c-0.316-1.56-0.853-3.096-1.627-4.565c-4.703-8.951-16.287-12.126-25.88-7.092c-8.103,4.258-12.187,13.019-10.419,21.032
	c-0.729-0.566-1.543-1.08-2.438-1.51c-4.933-2.375-10.31-1.438-12.011,2.091c-0.309,0.636-0.467,1.313-0.504,2.009
	c-1.848-2.125-4.569-3.476-7.612-3.476c-3.599,0-6.752,1.887-8.535,4.717c-1.687-6.229-7.034-10.438-12.653-9.618
	c-0.595,0.087-1.158,0.241-1.714,0.429c1.73-2.354,2.769-5.253,2.769-8.398c0-7.85-6.365-14.213-14.217-14.213
	c-3.498,0-6.695,1.269-9.171,3.362c0.185-0.858,0.281-1.746,0.281-2.658c0-7.023-5.696-12.717-12.719-12.717
	c-5.189,0-9.647,3.111-11.622,7.566c-1.361-6.433-7.066-11.264-13.905-11.264c-6.298,0-11.63,4.1-13.497,9.771
	c-0.542-2.529-1.608-5.005-3.235-7.254c-6.054-8.372-17.474-10.451-25.511-4.645c-5.804,4.19-8.251,11.347-6.896,18.15
	c-3.076-1.055-6.364-1.058-9.378,0.241c-3.501,1.507-5.971,4.494-7.187,8.129c-2.089-3.026-5.057-4.922-8.358-4.922
	c-3.787,0-7.139,2.493-9.218,6.33c-0.974-5.418-4.93-9.771-10.226-10.555c-4.785-0.708-9.362,1.686-12.053,5.765
	c0.695-2.145,1.078-4.434,1.078-6.813c0-12.039-9.645-21.798-21.539-21.798c-11.896,0-21.538,9.759-21.538,21.798
	c0,0.53,0.022,1.056,0.062,1.578c-1.847-1.007-3.965-1.578-6.215-1.578c-7.188,0-13.012,5.822-13.012,13.008
	c0,3.114,1.1,5.971,2.923,8.21c-3.564-1.524-7.567-1.124-10.271,1.401c-0.606,0.564-1.102,1.208-1.506,1.898
	c-0.569-5.48-5.205-9.753-10.84-9.753c-5.206,0-9.56,3.655-10.639,8.54c-2.217-1.393-4.834-2.211-7.646-2.211
	c-5.223,0-9.778,2.783-12.311,6.938c-0.044-8.501-5.846-15.376-13.009-15.376c-5.106,0-9.521,3.498-11.65,8.587l-0.102-0.05
	c0.805-1.634,1.336-3.476,1.491-5.453c0.578-7.355-4.133-13.728-10.526-14.229c-5.769-0.454-10.917,4.035-12.293,10.322
	c-1.843-4.348-5.329-7.996-10.039-9.931c-5.787-2.376-12.082-1.606-16.997,1.504c0.015-0.355,0.015-0.715,0.01-1.076
	c-0.243-10.152-8.66-18.185-18.802-17.943c-9.865,0.234-17.729,8.21-17.927,17.986c-3.187-3.627-7.719-6.037-12.815-6.461v0.021
	c-0.604-0.06-1.219-0.094-1.842-0.094c-10.599,0-19.194,8.592-19.194,19.189c0,2.692,0.559,5.257,1.561,7.581
	c-6.324-4.144-14.421-3.115-18.264,2.407c-2.91,4.18-2.556,9.753,0.427,14.163c-0.337-0.311-0.688-0.609-1.08-0.879
	c-3.98-2.771-9.208-2.264-12.238,0.991c0.028-0.38,0.058-0.762,0.058-1.147c0-8.058-6.533-14.591-14.594-14.591
	c-0.008,0-0.015,0.001-0.021,0.001c6.346-7.967,6.616-19.155,0.105-26.625c-6.848-7.859-18.801-8.842-27.739-2.677
	c0.029-0.425,0.051-0.854,0.051-1.287c0-10.096-8.19-18.281-18.286-18.281c-3.219,0-6.24,0.835-8.866,2.293
	c0.011-0.273,0.021-0.55,0.021-0.828c0-13.396-10.862-24.257-24.264-24.257c-12.615,0-22.975,9.624-24.148,21.927
	c-0.817-1.928-1.93-3.795-3.346-5.524c-7.015-8.565-18.726-10.573-26.165-4.486c-5.577,4.562-7.165,12.375-4.663,19.609
	c-2.371-1.271-5.084-1.992-7.959-1.992c-5.328,0-10.075,2.47-13.17,6.324c-2.234-6.79-7.764-11.599-14.236-11.599
	c-3.777,0-7.232,1.641-9.9,4.353c0.151-1.019,0.23-2.061,0.23-3.12c0-11.65-9.446-21.096-21.098-21.096
	c-4.824,0-9.267,1.623-12.82,4.349c0.349-1.62,0.541-3.308,0.541-5.044c0-11.945-8.737-21.628-19.515-21.628
	c-9.516,0-17.437,7.549-19.163,17.537c-3.363-1.765-7.189-2.77-11.253-2.77c-13.399,0-24.263,10.86-24.263,24.259
	c0,2.234,0.308,4.396,0.874,6.451c-2.828-3.551-7.282-4.869-10.479-2.901c-1.978,1.217-3.055,3.431-3.141,5.916
	c-0.331-1.139-0.817-2.272-1.485-3.36c-3.224-5.242-9.234-7.4-13.43-4.823c-4.194,2.579-4.979,8.918-1.758,14.16
	c0.906,1.475,2.037,2.693,3.285,3.645c-2.6-1.238-5.632-1.233-8.128,0.301c-2.272,1.397-3.654,3.535-3.891,6.351
	c0.629-3.826-3.202-7.223-6.052-6.617c-2.699,0.573-4.66,3.582-4.545,6.842c-3.203-6.296-9.465-10.77-16.835-11.455
	c7.093-7.295,8.181-18.104,2.229-24.898c-6.313-7.208-18.147-7.169-26.438,0.088c-0.478,0.416-0.924,0.848-1.357,1.29
	c0.074-2.539-0.337-5.181-1.303-7.77c-3.562-9.552-13.231-14.769-21.604-11.648c-7.786,2.902-11.705,11.993-9.345,20.935
	c-2.257-2.756-5.685-4.519-9.525-4.519c-6.8,0-12.31,5.511-12.31,12.306c0,2.112,0.533,4.101,1.473,5.836
	c-0.76-0.128-1.533-0.21-2.332-0.21c-5.842,0-10.828,3.609-12.879,8.718c0.5-6.83-3.693-12.815-9.649-13.543
	c-6.169-0.756-11.879,4.413-12.751,11.546c-0.149,1.214-0.133,2.399-0.001,3.546c-0.117-0.158-0.22-0.32-0.344-0.477
	c-4.118-5.189-10.962-6.619-15.282-3.19c-3.79,3.003-4.38,8.74-1.697,13.605c-2.293-1.434-4.996-2.274-7.897-2.274
	c-5.606,0-10.481,3.09-13.04,7.651c0.359-1.494,0.556-3.057,0.556-4.664c0-10.972-8.896-19.863-19.867-19.863
	c-6.912,0-12.997,3.529-16.555,8.883c1.524-7.302-1.919-14.464-8.269-16.546c-2.08-0.684-4.234-0.737-6.3-0.268v0.047
	c-4.703,1.136-8.916,4.996-10.706,10.45c-0.605,1.854-0.867,3.722-0.843,5.529c-3.512-8.076-11.987-12.261-19.146-9.361
	c-7.291,2.951-10.451,12.128-7.063,20.497c0.688,1.693,1.592,3.223,2.653,4.563c-2.242-1.054-4.746-1.646-7.39-1.646
	c-9.614,0-17.405,7.791-17.405,17.403c0,1.03,0.096,2.037,0.269,3.019c-2.496-2.579-5.99-4.19-9.859-4.19
	c-2.533,0-4.896,0.697-6.932,1.895c-0.177-7.417-6.234-13.38-13.7-13.38c-2.977,0-5.729,0.962-7.98,2.576
	c-0.864-6.738-6.611-11.95-13.587-11.95c-1.549,0-3.033,0.27-4.421,0.742c0.19-1.177,0.297-2.384,0.297-3.614
	c0-12.297-9.974-22.266-22.272-22.266c-3.581,0-6.96,0.849-9.955,2.351c-2.799-10.658-12.499-18.522-24.037-18.522
	c-13.725,0-24.85,11.122-24.85,24.845c0,1.312,0.104,2.597,0.302,3.854c-0.617-0.46-1.252-0.858-1.903-1.19
	c-4.29-2.902-9.114-3.393-11.972-0.826c-2.577,2.313-2.855,6.487-1.107,10.638c-0.515-0.193-1.085-0.302-1.682-0.302
	c-1.634,0-3.053,0.807-3.805,1.994c-9.011-5.409-19.854-4.087-24.496,3.115c-3.604,5.59-2.44,13.116,2.305,19
	c-1.665,0.521-3.12,1.513-4.226,2.811c-0.319-1.561-0.854-3.096-1.627-4.565c-4.704-8.952-16.287-12.126-25.88-7.09
	c-8.104,4.256-12.187,13.017-10.418,21.029c-0.73-0.566-1.544-1.079-2.441-1.509c-4.934-2.376-10.308-1.439-12.01,2.09
	c-0.31,0.636-0.465,1.314-0.504,2.009c-1.849-2.124-4.569-3.476-7.612-3.476c-3.598,0-6.753,1.888-8.537,4.718
	c-1.685-6.23-7.033-10.438-12.651-9.618c-0.597,0.086-1.159,0.24-1.714,0.429c1.729-2.354,2.769-5.253,2.769-8.399
	c0-7.849-6.366-14.213-14.217-14.213c-3.498,0-6.696,1.269-9.172,3.363c0.185-0.858,0.281-1.746,0.281-2.659
	c0-7.023-5.693-12.717-12.718-12.717c-5.189,0-9.646,3.112-11.623,7.567c-1.359-6.433-7.064-11.264-13.904-11.264
	c-6.299,0-11.631,4.1-13.498,9.771c-0.542-2.528-1.61-5.004-3.237-7.254c-6.051-8.372-17.47-10.45-25.51-4.644
	c-5.802,4.19-8.25,11.346-6.895,18.149c-3.076-1.055-6.365-1.058-9.378,0.241c-3.499,1.507-5.969,4.494-7.186,8.13
	c-2.086-3.027-5.057-4.923-8.357-4.923c-3.788,0-7.14,2.493-9.219,6.33c-0.973-5.418-4.929-9.77-10.225-10.554
	c-4.785-0.708-9.363,1.685-12.053,5.765c0.698-2.145,1.08-4.435,1.08-6.813c0-12.039-9.645-21.798-21.539-21.798
	c-11.898,0-21.539,9.759-21.539,21.798c0,0.53,0.024,1.057,0.062,1.578c-1.847-1.007-3.964-1.578-6.215-1.578
	c-7.186,0-13.011,5.823-13.011,13.009c0,3.113,1.098,5.97,2.923,8.21c-3.566-1.524-7.567-1.125-10.273,1.399
	c-0.606,0.566-1.1,1.21-1.501,1.899c-0.574-5.48-5.209-9.752-10.841-9.752c-5.209,0-9.559,3.655-10.639,8.539
	c-2.219-1.394-4.834-2.211-7.647-2.211c-5.222,0-9.78,2.784-12.311,6.938c-0.043-8.501-5.849-15.376-13.008-15.376
	c-5.106,0-9.522,3.498-11.652,8.586l-0.104-0.049c0.805-1.635,1.338-3.476,1.493-5.454c0.58-7.354-4.133-13.727-10.526-14.228
	c-5.768-0.455-10.92,4.034-12.295,10.321c-1.842-4.348-5.33-7.995-10.04-9.93c-5.788-2.376-12.083-1.607-16.998,1.504
	c0.013-0.356,0.017-0.716,0.009-1.077c-0.242-10.152-8.66-18.185-18.803-17.943c-9.865,0.234-17.728,8.21-17.927,17.987
	c-3.188-3.63-7.717-6.041-12.815-6.464V480H1920z"/>
<circle fill="none" stroke="#000000" stroke-miterlimit="10" cx="590.01" cy="206.294" r="2.461"/>
<circle fill="none" stroke="#000000" stroke-miterlimit="10" cx="554.494" cy="190.24" r="2.813"/>
<circle fill="none" stroke="#000000" stroke-miterlimit="10" cx="517.57" cy="212.856" r="1.286"/>
<circle fill="none" stroke="#000000" stroke-miterlimit="10" cx="551.856" cy="218.307" r="4.395"/>
<circle fill="none" stroke="#000000" stroke-miterlimit="10" cx="534.801" cy="238.875" r="7.383"/>
<circle fill="none" stroke="#000000" stroke-miterlimit="10" cx="533.922" cy="235.184" r="1.582"/>
<circle fill="none" stroke="#000000" stroke-miterlimit="10" cx="494.188" cy="224.636" r="1.934"/>
<circle fill="none" stroke="#000000" stroke-miterlimit="10" cx="457.439" cy="242.742" r="2.461"/>
<circle fill="none" stroke="#000000" stroke-miterlimit="10" cx="591.066" cy="260.949" r="3.74"/>
<circle fill="none" stroke="#000000" stroke-miterlimit="10" cx="341.747" cy="218.131" r="1.857"/>
<circle fill="none" stroke="#000000" stroke-miterlimit="10" cx="299.373" cy="220.417" r="2.637"/>
<circle fill="none" stroke="#000000" stroke-miterlimit="10" cx="339.813" cy="246.081" r="4.747"/>
<circle fill="none" stroke="#000000" stroke-miterlimit="10" cx="324.516" cy="260.672" r="6.329"/>
<circle fill="none" stroke="#000000" stroke-miterlimit="10" cx="340.165" cy="244.324" r="1.23"/>
<circle fill="none" stroke="#000000" stroke-miterlimit="10" cx="325.747" cy="258.035" r="1.582"/>
<circle fill="none" stroke="#000000" stroke-miterlimit="10" cx="249.967" cy="259.618" r="7.032"/>
<circle fill="none" stroke="#000000" stroke-miterlimit="10" cx="252.077" cy="256.806" r="1.582"/>
<circle fill="none" stroke="#000000" stroke-miterlimit="10" cx="216.033" cy="211.275" r="2.285"/>
<circle fill="none" stroke="#000000" stroke-miterlimit="10" cx="183.33" cy="233.425" r="1.934"/>
<path fill="none" stroke="#000000" stroke-miterlimit="10" d="M87.121,236.149c0,1.135,0.92,2.055,2.053,2.055
	c1.138,0,2.056-0.92,2.056-2.055c0-1.136-0.918-2.055-2.056-2.055C88.042,234.095,87.121,235.015,87.121,236.149z"/>
<ellipse fill="none" stroke="#000000" stroke-miterlimit="10" cx="32.824" cy="220.769" rx="3.565" ry="2.919"/>
<circle fill="none" stroke="#000000" stroke-miterlimit="10" cx="14.01" cy="268.406" r="7.383"/>
<path fill="none" stroke="#000000" stroke-miterlimit="10" d="M13.306,266.122c0,0.872,0.711,1.582,1.584,1.582
	c0.872,0,1.583-0.71,1.583-1.582c0-0.874-0.71-1.583-1.583-1.583S13.306,265.248,13.306,266.122z"/>
<circle fill="none" stroke="#000000" stroke-miterlimit="10" cx="1276.633" cy="230.349" r="3.076"/>
<circle fill="none" stroke="#000000" stroke-miterlimit="10" cx="1052.545" cy="169.262" r="2.9"/>
<circle fill="none" stroke="#000000" stroke-miterlimit="10" cx="1163.314" cy="196.334" r="2.374"/>
<circle fill="none" stroke="#000000" stroke-miterlimit="10" cx="945.292" cy="262.43" r="3.143"/>
<circle fill="none" stroke="#000000" stroke-miterlimit="10" cx="1167.885" cy="253.642" r="8.086"/>
<circle fill="none" stroke="#000000" stroke-miterlimit="10" cx="1167.65" cy="250.359" r="1.992"/>
<circle fill="none" stroke="#000000" stroke-miterlimit="10" cx="1026.123" cy="219.805" r="5.89"/>
<circle fill="none" stroke="#000000" stroke-miterlimit="10" cx="1140.215" cy="243.786" r="6.856"/>
<circle fill="none" stroke="#000000" stroke-miterlimit="10" cx="1140.896" cy="241.081" r="1.689"/>
<circle fill="none" stroke="#000000" stroke-miterlimit="10" cx="860.192" cy="198.443" r="1.758"/>
<ellipse fill="none" stroke="#000000" stroke-miterlimit="10" cx="765.248" cy="218.483" rx="2.285" ry="2.11"/>
<path fill="none" stroke="#000000" stroke-miterlimit="10" d="M792.87,268.684c0.93,3.971,4.901,6.435,8.873,5.506
	c3.971-0.929,6.433-4.901,5.503-8.872c-0.925-3.97-4.903-6.435-8.87-5.505C794.408,260.739,791.942,264.713,792.87,268.684z"/>
<circle fill="none" stroke="#000000" stroke-miterlimit="10" cx="800.395" cy="264.575" r="1.582"/>
<circle fill="none" stroke="#000000" stroke-miterlimit="10" cx="1904.822" cy="190.24" r="2.813"/>
<circle fill="none" stroke="#000000" stroke-miterlimit="10" cx="1867.896" cy="212.856" r="1.286"/>
<circle fill="none" stroke="#000000" stroke-miterlimit="10" cx="1902.184" cy="218.307" r="4.395"/>
<circle fill="none" stroke="#000000" stroke-miterlimit="10" cx="1885.13" cy="238.875" r="7.383"/>
<circle fill="none" stroke="#000000" stroke-miterlimit="10" cx="1884.251" cy="235.184" r="1.582"/>
<circle fill="none" stroke="#000000" stroke-miterlimit="10" cx="1844.515" cy="224.636" r="1.934"/>
<circle fill="none" stroke="#000000" stroke-miterlimit="10" cx="1807.767" cy="242.742" r="2.461"/>
<circle fill="none" stroke="#000000" stroke-miterlimit="10" cx="1692.074" cy="218.131" r="1.857"/>
<circle fill="none" stroke="#000000" stroke-miterlimit="10" cx="1649.701" cy="220.417" r="2.637"/>
<circle fill="none" stroke="#000000" stroke-miterlimit="10" cx="1690.14" cy="246.081" r="4.747"/>
<circle fill="none" stroke="#000000" stroke-miterlimit="10" cx="1674.844" cy="260.672" r="6.329"/>
<circle fill="none" stroke="#000000" stroke-miterlimit="10" cx="1690.492" cy="244.324" r="1.23"/>
<circle fill="none" stroke="#000000" stroke-miterlimit="10" cx="1676.074" cy="258.035" r="1.582"/>
<circle fill="none" stroke="#000000" stroke-miterlimit="10" cx="1600.295" cy="259.618" r="7.032"/>
<circle fill="none" stroke="#000000" stroke-miterlimit="10" cx="1602.404" cy="256.806" r="1.582"/>
<circle fill="none" stroke="#000000" stroke-miterlimit="10" cx="1566.361" cy="211.275" r="2.285"/>
<circle fill="none" stroke="#000000" stroke-miterlimit="10" cx="1533.657" cy="233.425" r="1.934"/>
<path fill="none" stroke="#000000" stroke-miterlimit="10" d="M1437.449,236.149c0,1.135,0.92,2.055,2.054,2.055
	c1.137,0,2.056-0.92,2.056-2.055c0-1.136-0.919-2.055-2.056-2.055C1438.369,234.095,1437.449,235.015,1437.449,236.149z"/>
<ellipse fill="none" stroke="#000000" stroke-miterlimit="10" cx="1383.151" cy="220.769" rx="3.564" ry="2.919"/>
<circle fill="none" stroke="#000000" stroke-miterlimit="10" cx="1364.339" cy="268.406" r="7.383"/>
<path fill="none" stroke="#000000" stroke-miterlimit="10" d="M1363.634,266.122c0,0.872,0.711,1.582,1.585,1.582
	c0.872,0,1.582-0.71,1.582-1.582c0-0.874-0.71-1.583-1.582-1.583C1364.345,264.539,1363.634,265.248,1363.634,266.122z"/>
<path d="M276.48,253.564c0.021,0.029,0.04,0.063,0.061,0.093c-0.021-0.033-0.037-0.069-0.058-0.104
	C276.483,253.56,276.482,253.562,276.48,253.564z"/>
<path d="M412.439,259.739c-1.875-5.862-7.048-9.741-12.468-8.949c-0.428,0.063-0.843,0.161-1.251,0.278
	c1.451-2.224,2.306-4.868,2.306-7.721c0-7.851-6.364-14.214-14.217-14.214c-3.497,0-6.688,1.275-9.163,3.372
	c2.248-9.323-5.742-15.385-12.439-15.385c-5.205,0-9.667,3.13-11.64,7.605c-1.34-6.449-7.042-11.303-13.894-11.303
	c-6.314,0-11.647,4.133-13.495,9.832c-0.542-2.55-1.598-5.048-3.237-7.314c-6.051-8.371-17.471-10.45-25.509-4.645
	c-5.702,4.119-8.166,11.1-6.959,17.796c-3.06-1.034-6.317-1.044-9.311,0.245c-3.444,1.484-5.889,4.406-7.127,7.965
	c-2.08-2.933-5-4.759-8.243-4.759c-3.779,0-7.12,2.491-9.199,6.316c-0.919-5.494-4.897-9.923-10.242-10.716
	c-4.88-0.723-9.542,1.786-12.206,6.018c0.735-2.192,1.143-4.535,1.143-6.979c0-12.039-9.642-21.799-21.538-21.799
	c-11.895,0-21.538,9.76-21.538,21.799c0,0.585,0.027,1.161,0.074,1.734c-1.872-1.043-4.021-1.646-6.315-1.646
	c-7.186,0-13.011,5.823-13.011,13.008c0,2.916,0.971,5.599,2.593,7.767c-3.517-1.479-7.417-1.098-10.051,1.36
	c-0.598,0.558-1.084,1.192-1.477,1.878c-0.798-5.232-5.302-9.245-10.758-9.245c-5.212,0-9.545,3.663-10.624,8.548
	c-2.22-1.398-4.843-2.22-7.663-2.22c-5.345,0-10.003,2.912-12.493,7.229c0.001-0.066,0.01-0.133,0.01-0.198
	c0-8.543-5.825-15.47-13.011-15.47s-13.011,6.927-13.011,15.47c0,0.201,0.007,0.399,0.013,0.601
	c0.266-8.64,5.942-15.542,12.911-15.542c7.019,0,12.728,7.004,12.913,15.733c-0.01,0.688-0.055,1.367-0.14,2.033
	c0.03-0.071,0.065-0.138,0.095-0.206c-0.013,0.173-0.022,0.348-0.037,0.52c0.033-0.2,0.051-0.408,0.078-0.61
	c2.31-5.231,7.269-8.855,13.025-8.855c6.51,0,12.009,4.63,13.801,10.987c-0.751-3.918-3.093-7.265-6.32-9.361
	c1.301-4.661,5.426-8.072,10.335-8.072c5.511,0,10.046,4.292,10.696,9.83c0.023,0.21,0.043,0.422,0.055,0.634
	c0.439-1.146,1.113-2.194,2.045-3.063c2.653-2.477,6.596-2.842,10.134-1.318c0.034,0.04,0.064,0.084,0.099,0.124
	c-0.026-0.037-0.049-0.077-0.075-0.114c0.053,0.023,0.107,0.043,0.161,0.066c-0.17-0.215-0.344-0.427-0.5-0.648
	c-0.018-0.008-0.04-0.015-0.061-0.023c-0.527-0.854-0.976-1.774-1.318-2.768c-2.404-6.968,1.107-14.498,7.842-16.82
	c3.444-1.188,7.058-0.773,10.091,0.842c0.208,2.076,0.699,4.066,1.438,5.931c-0.713-2.229-1.105-4.613-1.105-7.099
	c0-12.257,9.425-22.193,21.055-22.193c11.627,0,21.055,9.938,21.055,22.193c0,2.269-0.338,4.449-0.945,6.509
	c-0.071,0.238-0.151,0.475-0.232,0.708c2.646-4.449,7.5-7.113,12.591-6.359c5.198,0.77,9.131,4.873,10.291,10.048
	c-0.014,0.023-0.027,0.047-0.04,0.07c0.041,0.185,0.092,0.363,0.127,0.55c0.007-0.016,0.015-0.026,0.023-0.04
	c0.109,0.622,0.191,1.255,0.22,1.901c0.015-0.708-0.033-1.401-0.117-2.085c2.125-3.693,5.411-6.071,9.11-6.071
	c5.511,0,10.123,5.268,11.305,12.328c-0.305-2.814-1.17-5.384-2.437-7.49c1.268-3.617,3.783-6.597,7.318-8.118
	c2.763-1.19,5.743-1.313,8.585-0.57c0.533,2.579,1.611,5.104,3.267,7.397c1.291,1.785,2.83,3.275,4.524,4.473
	c-5.355,0.25-9.629,4.713-9.629,10.202c0,3.891,2.151,7.262,5.308,8.99c-4.721,1.173-8.224,5.422-8.224,10.504
	c0,5.987,4.856,10.842,10.849,10.842c1.001,0,1.96-0.146,2.883-0.397c-0.636,0.113-1.288,0.184-1.958,0.184
	c-5.918,0-10.716-4.683-10.716-10.456c0-4.939,3.517-9.069,8.239-10.162c0.01,0.003,0.015,0.007,0.021,0.01
	c0.691-0.148,1.408-0.23,2.145-0.23c0.325,0,0.642,0.022,0.958,0.056c-0.224-0.033-0.444-0.079-0.664-0.126
	c0.008,0,0.015-0.001,0.017-0.001c0.077,0,0.15,0.006,0.227,0.007c-0.651-0.112-1.276-0.292-1.875-0.528
	c-0.023,0.003-0.044,0.008-0.071,0.009c-3.59-1.439-6.114-4.816-6.114-8.769c0-5.11,4.217-9.27,9.507-9.506
	c-0.055-0.043-0.103-0.09-0.161-0.132c0.161,0.103,0.323,0.209,0.483,0.308c-1.642-1.205-3.137-2.695-4.402-4.469
	c-5.971-8.361-4.581-19.695,3.106-25.319c7.684-5.622,18.753-3.402,24.725,4.958c1.417,1.982,2.411,4.136,3.007,6.339
	c-0.004,0.018-0.013,0.033-0.015,0.052c0.154,0.578,0.278,1.156,0.385,1.735c1.392-6.329,6.87-11.061,13.426-11.061
	c6.571,0,12.047,4.753,13.423,11.103c-0.008,0.021-0.014,0.043-0.025,0.063c0.077,0.396,0.136,0.797,0.173,1.204
	c1.656-5.039,6.304-8.674,11.795-8.674c6.872,0,13.936,5.315,12.087,15.697c0.053-0.157,0.097-0.313,0.144-0.472
	c0,0.006,0,0.01,0,0.015c2.424-2.179,5.577-3.509,9.044-3.509c7.65,0,13.849,6.427,13.849,14.354c0,2.48-0.621,4.808-1.69,6.843
	c-4.567,1.362-7.745,5.972-7.995,11.411c-1.369-2.36-3.913-3.953-6.842-3.953c-4.251,0-7.706,3.354-7.891,7.559
	c-1.188-1.831-3.243-3.048-5.589-3.048c-3.69,0-6.683,2.991-6.683,6.682c0,2.897,1.852,5.358,4.438,6.283
	c-2.233-1.022-3.792-3.318-3.792-5.989c0-3.626,2.86-6.563,6.387-6.563c2.536,0,4.718,1.521,5.749,3.722
	c0-0.029-0.004-0.06-0.004-0.089c0-0.009,0-0.016,0-0.021c0.001,0.002,0.003,0.004,0.004,0.005c0.044-4.333,3.483-7.834,7.732-7.834
	c3.169,0,5.887,1.95,7.083,4.74c-0.001-0.076-0.01-0.152-0.01-0.229c0-0.004,0-0.008,0-0.012c-0.013-0.022-0.019-0.043-0.026-0.064
	c0.001,0.002,0.002,0.005,0.005,0.007c0.161-6.189,3.865-11.357,9.096-12.12c5.06-0.739,9.92,2.886,11.979,8.449
	C412.31,259.938,412.372,259.837,412.439,259.739z"/>
<path d="M98.951,245.647c-0.008,0.102-0.021,0.199-0.03,0.3c0.237-0.885,0.401-1.806,0.476-2.759
	c0.579-7.356-4.133-13.729-10.527-14.229c-5.736-0.453-10.858,3.989-12.268,10.225c-1.832-4.381-5.33-8.063-10.067-10.008
	c-5.788-2.376-12.083-1.606-16.997,1.505c-0.01,0.289-0.025,0.576-0.049,0.863c4.871-2.954,11.026-3.64,16.695-1.312
	c8.898,3.65,13.437,13.425,10.75,22.458c1.482-4.084,1.444-8.375,0.155-12.229c1.684-6.586,6.519-11.214,11.832-10.796
	C95.116,230.152,99.606,237.31,98.951,245.647z"/>
<path d="M1285.42,224.203c-6.947-7.974-19.152-8.875-28.131-2.406c0.056-0.57,0.091-1.146,0.091-1.731
	c0-10.098-8.188-18.281-18.286-18.281c-3.072,0-5.961,0.765-8.503,2.104c0.003-0.096,0.009-0.189,0.009-0.286
	c0-13.397-10.857-24.258-24.263-24.258c-12.644,0-23.031,9.676-24.156,22.029c-0.832-2.087-1.985-4.115-3.514-5.98
	c-7.012-8.565-18.726-10.574-26.165-4.486c-5.692,4.656-7.216,12.698-4.485,20.058c-2.413-1.332-5.187-2.09-8.138-2.09
	c-5.307,0-10.036,2.449-13.133,6.277c-2.205-6.856-7.758-11.728-14.272-11.728c-3.7,0-7.084,1.577-9.728,4.189
	c-0.044,0.307-0.101,0.608-0.159,0.911c2.64-2.53,5.992-4.046,9.649-4.046c6.357,0,11.809,4.589,14.15,11.128
	c-2.126,2.824-3.388,6.336-3.388,10.141c0,1.828,0.294,3.588,0.836,5.235c-0.312-1.293-0.484-2.645-0.484-4.032
	c0-9.401,7.559-17.021,16.88-17.021c7.41,0,13.702,4.818,15.971,11.52c-1.184-4.503-4.184-8.271-8.167-10.474
	c0.069,0.038,0.132,0.075,0.2,0.113c-2.431-7.229-0.947-14.863,4.439-19.271c7.345-6.009,19.136-3.746,26.34,5.054
	c1.275,1.564,2.314,3.23,3.131,4.945c-0.044,0.59-0.072,1.184-0.072,1.783c0,2.762,0.469,5.413,1.318,7.887
	c-0.48-1.979-0.737-4.053-0.737-6.188c0-13.784,10.653-24.962,23.796-24.962c12.89,0,23.377,10.75,23.777,24.167
	c0.003-0.002,0.011-0.003,0.014-0.005c-0.003,0.069-0.004,0.14-0.009,0.208c2.487-1.193,5.289-1.868,8.249-1.868
	c10.342,0,18.727,8.186,18.727,18.281c0,0.257-0.016,0.511-0.029,0.765c-0.541,0.396-1.074,0.814-1.591,1.265
	c-0.843,0.734-1.621,1.515-2.33,2.335c0.337-0.329,0.682-0.652,1.041-0.966c9.381-8.171,22.915-7.994,30.227,0.396
	c7.313,8.391,5.636,21.817-3.747,29.989c-0.67,0.584-1.362,1.119-2.066,1.618c1.277-0.739,2.511-1.611,3.675-2.623
	C1291.461,245.989,1292.82,232.693,1285.42,224.203z"/>
<path d="M1102.803,204.832c0-11.65-9.444-21.095-21.097-21.095c-4.763,0-9.147,1.592-12.675,4.253
	c0.362-1.645,0.569-3.355,0.569-5.125c0-11.945-8.737-21.629-19.515-21.629c-9.509,0-17.422,7.538-19.159,17.517
	c-3.353-1.749-7.156-2.747-11.199-2.747c-13.397,0-24.263,10.861-24.263,24.258c0,2.283,0.338,4.484,0.928,6.578
	c-2.804-3.824-7.458-5.295-10.77-3.263c-2.038,1.255-3.098,3.573-3.121,6.156c-0.326-1.17-0.819-2.338-1.507-3.454
	c-3.224-5.242-9.237-7.4-13.434-4.822c-4.192,2.577-4.979,8.917-1.757,14.159c0.972,1.579,2.203,2.862,3.557,3.836
	c-2.677-1.422-5.871-1.497-8.484,0.108c-1.758,1.081-2.96,2.743-3.541,4.637c-0.908-3.41-3.813-5.646-6.658-5.039
	c-2.787,0.59-4.521,3.689-4.07,7.086c-3.283-6.274-9.63-10.688-17.06-11.265c7.282-7.297,8.451-18.251,2.442-25.112
	c-6.313-7.207-18.149-7.168-26.438,0.089c-0.343,0.302-0.67,0.61-0.991,0.925c0.116-0.104,0.229-0.212,0.346-0.313
	c8.325-7.286,20.109-7.441,26.324-0.347c6.213,7.095,4.499,18.754-3.824,26.038c-2.631,2.304-5.612,3.893-8.646,4.767
	c3.391-0.768,6.738-2.421,9.646-4.968c0.139-0.119,0.271-0.244,0.401-0.366c10.67,0.887,19.06,9.989,19.06,21.103
	c0,3.576-0.882,6.938-2.416,9.893c-1.771-0.073-3.515,0.06-5.207,0.396c2.709-0.316,5.539-0.155,8.357,0.569
	c8.084,2.075,14.02,8.179,16.047,15.462c2.598,8.442-0.077,17.561-6.58,23.235c3.778-2.91,6.655-7.052,7.933-12.027
	c3.043-11.849-4.099-23.919-15.946-26.961c-1.337-0.342-2.675-0.551-4.001-0.644c1.861-3.142,2.945-6.799,2.945-10.716
	c0-3.181-0.706-6.194-1.966-8.897c-0.549-3.562,1.012-6.787,3.647-7.348c2.71-0.575,5.533,1.892,6.4,5.535
	c-0.39,2.216,0.021,4.644,1.34,6.786c0.175,0.283,0.362,0.554,0.557,0.813c-2.653-4.635-1.636-10.271,2.362-12.729
	c3.627-2.229,8.476-1.095,11.542,2.453c-0.918-1.341-2.101-2.385-3.414-3.104c-1.021-0.923-1.954-2.032-2.745-3.315
	c-3.342-5.438-2.828-11.827,1.15-14.273c3.976-2.443,9.912-0.019,13.254,5.418c0.579,0.941,1.038,1.91,1.384,2.883
	c0.006,0.082-0.003,0.162,0.005,0.244c0.216,0.685,0.393,1.365,0.492,2.04l0.098-0.094c-0.55-3.249,0.499-6.362,2.992-7.896
	c3.508-2.156,8.532-0.368,11.256,3.99c-0.033-0.099-0.07-0.194-0.102-0.295c-0.074-0.14-0.155-0.276-0.235-0.418
	c-0.543-2.026-0.854-4.153-0.854-6.357c0-13.397,10.711-24.258,23.914-24.258c3.851,0,7.478,0.935,10.695,2.573
	c-0.133,1.017-0.204,2.056-0.204,3.113c0,1.688,0.184,3.331,0.514,4.909c-0.221-1.309-0.338-2.653-0.338-4.03
	c0-11.944,8.579-21.629,19.165-21.629c10.585,0,19.165,9.685,19.165,21.629c0,1.676-0.182,3.302-0.501,4.867
	c0.035-0.029,0.073-0.058,0.106-0.086c-0.029,0.134-0.059,0.27-0.092,0.403c3.538-2.92,8.002-4.664,12.852-4.664
	c11.507,0,20.832,9.785,20.832,21.854c0,2.183-0.308,4.29-0.875,6.28C1102.303,210.049,1102.803,207.5,1102.803,204.832z"/>
<path d="M881.525,171.479c-8.371,3.119-12.271,13.392-8.711,22.943c1.022,2.739,2.55,5.119,4.398,7.051
	c-1.265-1.696-2.333-3.64-3.13-5.781c-3.685-9.885-0.234-20.297,7.705-23.256c7.94-2.959,17.363,2.656,21.047,12.543
	c0.961,2.58,1.433,5.195,1.469,7.705c0.371-3.069,0.021-6.354-1.174-9.558C899.57,173.574,889.896,168.359,881.525,171.479z"/>
<path d="M850.348,200.904c0,2.019,0.495,3.919,1.356,5.601c-0.948-0.209-1.924-0.326-2.939-0.326
	c-5.479,0-10.202,3.179-12.463,7.785c0.23-6.587-3.909-12.258-9.692-12.965c-6.169-0.754-11.877,4.415-12.75,11.547
	c-0.155,1.271-0.144,2.517,0.012,3.711c-0.014-0.021-0.029-0.042-0.044-0.062c-4.267-5.244-11.355-6.688-15.828-3.226
	c-3.639,2.813-4.411,7.998-2.284,12.657c0.122,0.065,0.245,0.128,0.365,0.195c-1.654-4.422-0.764-9.147,2.648-11.787
	c4.265-3.301,10.887-2.125,15.193,2.53c0.171,1.132,0.47,2.217,0.886,3.229c-0.42-1.774-0.549-3.707-0.306-5.705
	c0.893-7.31,6.31-12.657,12.093-11.95c5.583,0.681,9.454,6.753,8.923,13.74c-0.339,1.074-0.537,2.21-0.604,3.38
	c-0.132,0.466-0.278,0.922-0.451,1.361c0.154-0.277,0.29-0.568,0.427-0.858c-0.007,0.102-0.017,0.199-0.017,0.303
	c0,2.021,0.441,3.938,1.218,5.67c-0.294-1.212-0.468-2.479-0.468-3.793c0-8.085,5.963-14.639,13.329-14.639
	c1.229,0,2.415,0.196,3.542,0.545c2.214,3.234,5.936,5.359,10.154,5.359c0.201,0,0.396-0.021,0.594-0.029
	c-6.596-0.312-11.846-5.364-11.846-11.572c0-6.406,5.588-11.602,12.482-11.602c2.945,0,5.648,0.952,7.784,2.539
	c-2.25-2.422-5.449-3.945-9.015-3.945C855.855,188.6,850.348,194.107,850.348,200.904z"/>
<path d="M788.632,223.934c-5.688,0-10.622,3.186-13.147,7.862c0.313-1.399,0.488-2.853,0.488-4.348
	c0-10.973-8.894-19.864-19.867-19.864c-6.442,0-12.162,3.066-15.792,7.817c1.167-7.05-2.242-13.82-8.385-15.834
	c-2.24-0.734-4.563-0.743-6.77-0.152v0.054c-4.511,1.274-8.505,5.059-10.235,10.33c-0.677,2.063-0.93,4.145-0.828,6.139
	c-0.021-0.055-0.04-0.108-0.059-0.162c-3.389-8.369-12.048-12.76-19.338-9.81c-7.29,2.951-10.452,12.128-7.063,20.497
	c0.795,1.969,1.891,3.707,3.18,5.191c-2.434-1.295-5.201-2.038-8.151-2.038c-9.614,0-17.406,7.791-17.406,17.403
	c0,0.852,0.063,1.688,0.182,2.508c-2.471-2.318-5.786-3.744-9.441-3.744c-2.792,0-5.386,0.834-7.561,2.257
	c0.032-0.355,0.058-0.716,0.058-1.079c0-7.056-5.721-12.772-12.776-12.772c-3.3,0-6.3,1.258-8.563,3.313
	c-0.08-7.215-5.946-13.04-13.18-13.04c-1.674,0-3.269,0.322-4.738,0.891c0.22-1.204,0.341-2.439,0.341-3.702
	c0-12.169-10.338-22.033-23.092-22.033c-3.376,0-6.585,0.692-9.478,1.938c-2.454-10.463-12.776-18.345-24.396-18.345
	c-13.465,0-24.382,10.494-24.382,23.439c0,1.955,0.254,3.854,0.725,5.67c-4.772-4.685-10.975-5.624-14.381-2.624
	c-2.677,2.354-2.912,6.817-1.023,11.05c-0.567-0.316-1.216-0.503-1.917-0.503c-1.772,0-3.269,1.174-3.766,2.785
	c-7.39-6.111-17.625-6.053-23.063,0.225c-4.82,5.564-4.271,14.164,0.863,20.53c-1.809,0.884-3.313,2.281-4.327,4.007
	c-0.301-1.701-0.836-3.378-1.679-4.976c-4.704-8.952-16.29-12.126-25.878-7.091c-7.674,4.029-11.73,12.097-10.636,19.745
	c-0.66-0.548-1.396-1.035-2.218-1.434c-4.573-2.203-9.779-0.879-11.628,2.957c-0.313,0.658-0.512,1.346-0.6,2.046
	c-1.833-2.319-4.66-3.813-7.846-3.813c-5.536,0-10.022,4.485-10.022,10.02c0,1.329,0.265,2.596,0.735,3.758
	c-0.245-0.89-0.383-1.822-0.383-2.791c0-5.679,4.485-10.283,10.021-10.283c2.978,0,5.635,1.348,7.468,3.467
	c-0.199,2.82,1.349,5.781,4.105,7.68c-2.54,0.642-4.423,2.934-4.423,5.672c0,3.236,2.623,5.86,5.859,5.86
	c0.756,0,1.476-0.148,2.139-0.408c-0.459,0.109-0.938,0.174-1.435,0.174c-3.238,0-5.86-2.468-5.86-5.509
	c0-2.754,2.153-5.028,4.958-5.437c-0.044-0.031-0.088-0.065-0.132-0.1c0.092-0.014,0.184-0.031,0.277-0.041
	c-3.095-1.768-4.998-4.654-5.045-7.366c0.009,0.013,0.02,0.021,0.027,0.033c0.007-0.097,0.008-0.194,0.018-0.289
	c-0.015-0.018-0.025-0.035-0.043-0.054c0.028-0.744,0.191-1.471,0.521-2.153c1.659-3.443,6.713-4.452,11.286-2.249
	c2.114,1.02,3.754,2.547,4.745,4.236c-0.127-0.405-0.231-0.819-0.333-1.237c0.049,0.048,0.105,0.095,0.159,0.145
	c-2.501-8.406,1.016-17.57,8.845-21.682c8.937-4.692,20.109-1.024,24.952,8.193c0.666,1.272,1.166,2.586,1.533,3.913
	c-0.571,1.271-0.894,2.678-0.894,4.161c0,5.631,4.563,10.195,10.196,10.195c1.708,0,3.31-0.425,4.724-1.164
	c-1.665,0.522-3.516,0.66-5.403,0.295c-5.529-1.068-9.234-5.954-8.278-10.911c0.958-4.955,6.224-8.106,11.747-7.038
	c2.305,0.444,4.282,1.56,5.748,3.059c-1.819-2.785-4.961-4.631-8.539-4.631c-1.373,0-2.684,0.275-3.882,0.769
	c-4.363-6.327-4.728-14.147-0.337-19.217c4.993-5.765,14.383-5.943,21.842-0.761c-0.035,0.21-0.057,0.423-0.057,0.643
	c0,1.369,0.702,2.575,1.768,3.279c-0.793-0.697-1.297-1.7-1.297-2.819c0-2.103,1.765-3.809,3.938-3.809
	c1.069,0,2.036,0.414,2.74,1.082c-0.133-0.19-0.287-0.361-0.452-0.524c0.04,0.019,0.076,0.029,0.118,0.048
	c-2.023-4.424-1.919-8.769,0.7-11.068c3.134-2.758,8.854-1.694,13.812,2.207c0.258,0.945,0.572,1.869,0.94,2.766
	c-0.248-0.81-0.438-1.644-0.599-2.485c0.147,0.121,0.297,0.234,0.444,0.361c-0.152-0.17-0.313-0.324-0.468-0.486
	c-0.259-1.401-0.41-2.843-0.41-4.317c0-13.141,10.704-23.791,23.913-23.791c10.886,0,20.677,7.303,23.573,17.205
	c-7.153,3.313-12.241,10.041-12.937,17.965c2.291-11.004,11.456-19.232,22.417-19.232c12.688,0,22.974,11.02,22.974,24.61
	c0,0.757-0.037,1.504-0.101,2.244c0.132-0.464,0.249-0.934,0.346-1.409c1.337-0.459,2.771-0.717,4.264-0.717
	c7.154,0,12.962,5.698,13.167,12.801c-1.163,1.206-2.101,2.636-2.726,4.228c2.037-4.278,6.376-7.24,11.42-7.24
	c6.989,0,12.66,5.679,12.66,12.686c0,0.229-0.017,0.454-0.029,0.679c-3.458,2.515-5.716,6.579-5.716,11.182
	c0,1.617,0.292,3.163,0.803,4.605c-0.365-1.238-0.568-2.547-0.568-3.902c0-7.638,6.192-13.829,13.831-13.829
	c3.601,0,6.86,1.395,9.316,3.651c0.975,5.372,4.407,9.888,9.098,12.325c-2.516-1.688-4.664-4.058-6.135-7.003
	c-4.339-8.684-1.17-19.063,7.077-23.185c8.249-4.12,18.455-0.422,22.795,8.264c0.748,1.497,1.271,3.045,1.581,4.603
	c-0.6-5.606-3.873-10.405-8.51-13.128c-1.073-1.389-1.996-2.964-2.705-4.71c-3.46-8.54-0.574-17.766,6.438-20.604
	c7.02-2.84,15.504,1.778,18.963,10.318c0.016,0.029,0.022,0.061,0.037,0.091c0.005,0.031,0.007,0.063,0.012,0.093
	c-0.001-0.021,0.001-0.043,0.001-0.063c0.512,1.294,0.868,2.603,1.1,3.901c-0.145-1.577-0.503-3.174-1.088-4.751
	c0.052-1.649,0.327-3.343,0.877-5.026c1.772-5.406,5.802-9.302,10.297-10.577v-0.041c2.095-0.563,4.282-0.566,6.386,0.124
	c5.802,1.901,9.037,8.37,8.078,15.269c-1.38,1.962-2.428,4.176-3.03,6.572c2.565-8.002,10.066-13.794,18.919-13.794
	c10.975,0,19.869,8.892,19.869,19.863c0,1.166-0.107,2.307-0.305,3.417c-0.604,1.188-1.066,2.469-1.335,3.814
	c0.282-0.953,0.662-1.862,1.116-2.729c-0.025,0.11-0.044,0.226-0.073,0.337c0.045-0.137,0.075-0.278,0.117-0.418
	c2.596-4.927,7.734-8.288,13.669-8.288c5.602,0,10.505,2.994,13.224,7.477C799.595,227.343,794.519,223.934,788.632,223.934z"/>
<path d="M49.546,229.427c-0.242-10.15-8.661-18.185-18.803-17.941c-9.698,0.229-17.456,7.939-17.908,17.488
	c-3.302-3.382-7.809-5.579-12.834-5.882v0.896c4.973,0.161,9.465,2.211,12.815,5.462c-0.007,0.282-0.009,0.565-0.003,0.851
	c0.021,0.803,0.095,1.591,0.215,2.362c-0.019-0.296-0.036-0.591-0.043-0.889c-0.256-10.688,7.561-19.536,17.453-19.773
	c9.896-0.234,18.123,8.235,18.378,18.922c0.053,2.254-0.257,4.426-0.864,6.453C49.036,234.953,49.612,232.258,49.546,229.427z"/>
<path d="M1626.809,253.564c0.021,0.029,0.039,0.063,0.062,0.093c-0.021-0.033-0.037-0.069-0.06-0.104
	C1626.811,253.56,1626.811,253.562,1626.809,253.564z"/>
<path d="M1762.768,259.739c-1.875-5.862-7.049-9.741-12.468-8.949c-0.429,0.063-0.844,0.161-1.251,0.278
	c1.45-2.224,2.305-4.868,2.305-7.721c0-7.851-6.363-14.214-14.215-14.214c-3.498,0-6.688,1.275-9.164,3.372
	c2.248-9.323-5.74-15.385-12.442-15.385c-5.202,0-9.668,3.13-11.637,7.605c-1.339-6.449-7.043-11.303-13.894-11.303
	c-6.313,0-11.646,4.133-13.494,9.832c-0.537-2.55-1.598-5.048-3.236-7.314c-6.053-8.371-17.473-10.45-25.512-4.645
	c-5.699,4.119-8.165,11.1-6.96,17.796c-3.061-1.034-6.316-1.044-9.312,0.245c-3.443,1.484-5.889,4.406-7.123,7.965
	c-2.08-2.933-5.003-4.759-8.248-4.759c-3.778,0-7.119,2.491-9.199,6.316c-0.918-5.494-4.896-9.923-10.241-10.716
	c-4.88-0.723-9.543,1.786-12.206,6.018c0.736-2.192,1.145-4.535,1.145-6.979c0-12.039-9.643-21.799-21.537-21.799
	s-21.538,9.76-21.538,21.799c0,0.585,0.027,1.161,0.073,1.734c-1.872-1.043-4.022-1.646-6.315-1.646
	c-7.187,0-13.011,5.823-13.011,13.008c0,2.916,0.973,5.599,2.595,7.767c-3.517-1.479-7.42-1.098-10.051,1.36
	c-0.603,0.558-1.085,1.192-1.48,1.878c-0.798-5.232-5.303-9.245-10.759-9.245c-5.212,0-9.545,3.663-10.623,8.548
	c-2.218-1.398-4.844-2.22-7.662-2.22c-5.348,0-10.006,2.912-12.493,7.229c0.002-0.066,0.011-0.133,0.011-0.198
	c0-8.543-5.826-15.47-13.012-15.47c-7.187,0-13.012,6.927-13.012,15.47c0,0.201,0.008,0.399,0.015,0.601
	c0.267-8.64,5.939-15.542,12.909-15.542c7.02,0,12.729,7.004,12.912,15.733c-0.011,0.688-0.054,1.367-0.14,2.033
	c0.03-0.071,0.065-0.138,0.095-0.206c-0.013,0.173-0.019,0.348-0.035,0.52c0.031-0.2,0.05-0.408,0.076-0.61
	c2.31-5.231,7.27-8.855,13.024-8.855c6.514,0,12.011,4.63,13.801,10.987c-0.747-3.918-3.09-7.265-6.314-9.361
	c1.301-4.661,5.426-8.072,10.333-8.072c5.512,0,10.045,4.292,10.695,9.83c0.021,0.21,0.045,0.422,0.054,0.634
	c0.438-1.146,1.114-2.194,2.046-3.063c2.65-2.477,6.596-2.842,10.135-1.318c0.033,0.04,0.064,0.084,0.1,0.124
	c-0.025-0.037-0.048-0.077-0.072-0.114c0.052,0.023,0.104,0.043,0.161,0.066c-0.169-0.215-0.345-0.427-0.5-0.648
	c-0.016-0.008-0.04-0.015-0.062-0.023c-0.527-0.854-0.977-1.774-1.318-2.768c-2.402-6.968,1.107-14.498,7.843-16.82
	c3.442-1.188,7.056-0.773,10.091,0.842c0.208,2.076,0.699,4.066,1.438,5.931c-0.714-2.229-1.104-4.613-1.104-7.099
	c0-12.257,9.424-22.193,21.055-22.193c11.628,0,21.057,9.938,21.057,22.193c0,2.269-0.342,4.449-0.948,6.509
	c-0.07,0.238-0.151,0.475-0.232,0.708c2.648-4.449,7.501-7.113,12.593-6.359c5.198,0.77,9.135,4.873,10.291,10.048
	c-0.015,0.023-0.027,0.047-0.041,0.07c0.043,0.185,0.093,0.363,0.129,0.55c0.009-0.016,0.016-0.026,0.022-0.04
	c0.111,0.622,0.194,1.255,0.224,1.901c0.015-0.708-0.034-1.401-0.116-2.085c2.124-3.693,5.407-6.071,9.107-6.071
	c5.512,0,10.121,5.268,11.304,12.328c-0.306-2.814-1.17-5.384-2.438-7.49c1.27-3.617,3.783-6.597,7.318-8.118
	c2.763-1.19,5.743-1.313,8.585-0.57c0.532,2.579,1.61,5.104,3.268,7.397c1.291,1.785,2.829,3.275,4.528,4.473
	c-5.36,0.25-9.633,4.713-9.633,10.202c0,3.891,2.152,7.262,5.308,8.99c-4.721,1.173-8.221,5.422-8.221,10.504
	c0,5.987,4.854,10.842,10.848,10.842c0.998,0,1.962-0.146,2.881-0.397c-0.636,0.113-1.288,0.184-1.959,0.184
	c-5.917,0-10.712-4.683-10.712-10.456c0-4.939,3.517-9.069,8.237-10.162c0.008,0.003,0.016,0.007,0.021,0.01
	c0.688-0.148,1.407-0.23,2.146-0.23c0.323,0,0.643,0.022,0.958,0.056c-0.225-0.033-0.446-0.079-0.663-0.126
	c0.006,0,0.014-0.001,0.014-0.001c0.076,0,0.154,0.006,0.228,0.007c-0.65-0.112-1.275-0.292-1.875-0.528
	c-0.023,0.003-0.044,0.008-0.067,0.009c-3.59-1.439-6.118-4.816-6.118-8.769c0-5.11,4.217-9.27,9.51-9.506
	c-0.054-0.043-0.104-0.09-0.16-0.132c0.16,0.103,0.321,0.209,0.484,0.308c-1.643-1.205-3.138-2.695-4.406-4.469
	c-5.968-8.361-4.58-19.695,3.106-25.319c7.687-5.622,18.753-3.402,24.726,4.958c1.42,1.982,2.41,4.136,3.011,6.339
	c-0.007,0.018-0.015,0.033-0.018,0.052c0.159,0.578,0.283,1.156,0.388,1.735c1.394-6.329,6.871-11.061,13.428-11.061
	c6.57,0,12.048,4.753,13.424,11.103c-0.009,0.021-0.016,0.043-0.026,0.063c0.073,0.396,0.134,0.797,0.174,1.204
	c1.654-5.039,6.304-8.674,11.796-8.674c6.87,0,13.937,5.315,12.088,15.697c0.052-0.157,0.097-0.313,0.142-0.472
	c0,0.006,0,0.01,0,0.015c2.424-2.179,5.579-3.509,9.041-3.509c7.65,0,13.853,6.427,13.853,14.354c0,2.48-0.621,4.808-1.692,6.843
	c-4.568,1.362-7.742,5.972-7.998,11.411c-1.364-2.36-3.91-3.953-6.836-3.953c-4.251,0-7.705,3.354-7.892,7.559
	c-1.188-1.831-3.241-3.048-5.589-3.048c-3.689,0-6.683,2.991-6.683,6.682c0,2.897,1.852,5.358,4.435,6.283
	c-2.23-1.022-3.788-3.318-3.788-5.989c0-3.626,2.856-6.563,6.387-6.563c2.535,0,4.719,1.521,5.75,3.722
	c0-0.029-0.004-0.06-0.004-0.089c0-0.009,0-0.016,0-0.021c0.001,0.002,0.002,0.004,0.004,0.005c0.043-4.333,3.481-7.834,7.73-7.834
	c3.169,0,5.889,1.95,7.082,4.74c-0.001-0.076-0.013-0.152-0.013-0.229c0-0.004,0-0.008,0-0.012
	c-0.009-0.022-0.015-0.043-0.026-0.064c0.002,0.002,0.004,0.005,0.008,0.007c0.16-6.189,3.864-11.357,9.099-12.12
	c5.059-0.739,9.92,2.886,11.979,8.449C1762.639,259.938,1762.7,259.837,1762.768,259.739z"/>
<path d="M1449.278,245.647c-0.009,0.102-0.021,0.199-0.03,0.3c0.236-0.885,0.4-1.806,0.476-2.759
	c0.579-7.356-4.134-13.729-10.525-14.229c-5.735-0.453-10.858,3.989-12.269,10.225c-1.831-4.381-5.33-8.063-10.065-10.008
	c-5.788-2.376-12.087-1.606-16.997,1.505c-0.015,0.289-0.024,0.576-0.049,0.863c4.871-2.954,11.024-3.64,16.693-1.312
	c8.896,3.65,13.437,13.425,10.75,22.458c1.48-4.084,1.444-8.375,0.156-12.229c1.683-6.586,6.518-11.214,11.83-10.796
	C1445.443,230.152,1449.934,237.31,1449.278,245.647z"/>
<path d="M1399.873,229.427c-0.241-10.15-8.66-18.185-18.804-17.941c-9.697,0.229-17.456,7.939-17.908,17.488
	c-3.301-3.383-9.669-5.926-14.254-5.919c-10.831,0.011-19.619,8.779-19.619,19.612c0,2.591,0.517,5.057,1.433,7.317
	c-6.308-4.047-14.317-3.005-18.137,2.481c-2.836,4.076-2.559,9.476,0.223,13.828c-4.258-3.729-9.556-2.921-12.614-0.215
	c0.016-0.221,0.022-0.438,0.022-0.661c0-8.058-6.534-14.591-14.594-14.591c-0.045,0-0.092,0.003-0.139,0.003
	c-0.249,0.317-0.514,0.629-0.788,0.936c8.056,0.006,14.583,6.535,14.583,14.59c0,0.239-0.018,0.477-0.031,0.714
	c-0.115,0.143-0.229,0.288-0.333,0.438c-2.843,4.088-1.627,9.853,2.711,12.873c1.306,0.903,2.735,1.452,4.179,1.68
	c-0.901-0.329-1.787-0.781-2.627-1.365c-4.512-3.14-5.984-8.824-3.292-12.696c2.694-3.874,8.239-4.514,14.169-0.431
	c-0.314-0.37-0.641-0.71-0.976-1.021c0.302,0.178,0.601,0.357,0.894,0.559c-3.305-4.511-3.889-10.201-0.992-14.364
	c3.651-5.251,11.511-6.144,17.949-2.227c0.104,0.229,0.199,0.46,0.31,0.686c0.159,0.11,0.304,0.231,0.454,0.348
	c-1.072-2.434-1.686-5.121-1.686-7.958c0-10.833,8.702-19.803,19.437-19.613c4.087,0.071,10.329,2.229,13.681,5.477
	c-0.009,0.283-0.01,0.566-0.003,0.851c0.019,0.804,0.095,1.591,0.215,2.362c-0.018-0.294-0.036-0.59-0.045-0.889
	c-0.255-10.686,7.562-19.536,17.452-19.772c9.894-0.234,18.124,8.236,18.379,18.922c0.053,2.254-0.256,4.425-0.864,6.452
	C1399.364,234.953,1399.939,232.258,1399.873,229.427z"/>
<circle fill="#EDBCD7" stroke="#000000" stroke-miterlimit="10" cx="656.268" cy="174.392" r="14.766"/>
<path d="M663.634,167.059c0.06-1.991-2.813-4.043-4.747-4.16c0,0-0.762,0.41-1.113,0.703
	C660.938,164.128,662.52,165.477,663.634,167.059z"/>
<path d="M664.572,178.428c1.318-1.071,1.934-4.688,1.583-6.506c0,0-0.577,0.66-1.29,0.703
	C665.392,173.973,665.392,175.789,664.572,178.428z"/>
<circle fill="#EDBCD7" stroke="#000000" stroke-miterlimit="10" cx="304.306" cy="145.23" r="13.184"/>
<path d="M310.883,138.684c0.052-1.777-2.512-3.61-4.239-3.715c0,0-0.68,0.366-0.993,0.629
	C308.475,136.067,309.889,137.271,310.883,138.684z"/>
<path d="M311.719,148.833c1.183-0.956,1.729-4.186,1.417-5.807c0,0-0.515,0.588-1.155,0.628
	C312.453,144.856,312.453,146.479,311.719,148.833z"/>
<circle fill="#EDBCD7" stroke="#000000" stroke-miterlimit="10" cx="1613.609" cy="186.84" r="16.699"/>
<path d="M1621.938,178.547c0.066-2.254-3.181-4.572-5.368-4.705c0,0-0.864,0.463-1.259,0.795
	C1618.891,175.232,1620.68,176.756,1621.938,178.547z"/>
<path d="M1622.999,191.401c1.494-1.211,2.188-5.302,1.79-7.354c0,0-0.652,0.745-1.457,0.795
	C1623.929,186.365,1623.929,188.42,1622.999,191.401z"/>
<circle fill="#EDBCD7" stroke="#000000" stroke-miterlimit="10" cx="1425.847" cy="165.747" r="14.591"/>
<path d="M1433.126,158.501c0.059-1.969-2.776-3.995-4.692-4.11c0,0-0.748,0.404-1.1,0.694
	C1430.461,155.605,1432.024,156.938,1433.126,158.501z"/>
<path d="M1434.052,169.734c1.304-1.059,1.91-4.633,1.563-6.428c0,0-0.57,0.651-1.273,0.695
	C1434.862,165.333,1434.862,167.129,1434.052,169.734z"/>
<path d="M1919.998,189.614c-4.529-3.966-10.59-6.406-17.055-6.406c-13.465,0-24.381,10.494-24.381,23.439
	c0,1.955,0.254,3.854,0.726,5.67c-4.772-4.685-10.974-5.624-14.381-2.624c-2.679,2.354-2.912,6.816-1.023,11.05
	c-0.567-0.317-1.218-0.503-1.917-0.503c-1.771,0-3.268,1.174-3.765,2.785c-7.392-6.111-17.626-6.053-23.063,0.225
	c-4.819,5.564-4.271,14.164,0.863,20.53c-1.81,0.884-3.313,2.281-4.326,4.007c-0.301-1.701-0.837-3.378-1.679-4.976
	c-4.704-8.951-16.29-12.126-25.879-7.092c-7.673,4.03-11.729,12.098-10.635,19.746c-0.66-0.548-1.396-1.035-2.22-1.433
	c-4.571-2.204-9.777-0.879-11.628,2.956c-0.313,0.658-0.511,1.346-0.599,2.046c-1.832-2.319-4.66-3.813-7.846-3.813
	c-5.537,0-10.021,4.485-10.021,10.02c0,1.329,0.264,2.596,0.734,3.758c-0.244-0.889-0.383-1.822-0.383-2.791
	c0-5.679,4.484-10.283,10.021-10.283c2.973,0,5.635,1.348,7.467,3.467c-0.198,2.82,1.351,5.781,4.105,7.681
	c-2.539,0.641-4.423,2.933-4.423,5.671c0,3.236,2.621,5.86,5.858,5.86c0.753,0,1.478-0.148,2.141-0.408
	c-0.459,0.108-0.938,0.174-1.437,0.174c-3.237,0-5.859-2.467-5.859-5.509c0-2.754,2.152-5.028,4.957-5.437
	c-0.043-0.031-0.088-0.065-0.133-0.1c0.092-0.014,0.186-0.031,0.279-0.041c-3.098-1.768-5-4.654-5.047-7.366
	c0.01,0.012,0.018,0.021,0.027,0.033c0.009-0.097,0.01-0.194,0.015-0.289c-0.015-0.018-0.025-0.035-0.038-0.054
	c0.027-0.744,0.189-1.472,0.518-2.153c1.659-3.444,6.715-4.452,11.288-2.249c2.115,1.02,3.753,2.547,4.744,4.236
	c-0.127-0.405-0.229-0.819-0.334-1.237c0.052,0.049,0.109,0.095,0.161,0.145c-2.502-8.406,1.015-17.57,8.844-21.682
	c8.937-4.692,20.11-1.024,24.952,8.193c0.667,1.272,1.167,2.586,1.532,3.913c-0.572,1.271-0.896,2.678-0.896,4.161
	c0,5.631,4.565,10.195,10.197,10.195c1.708,0,3.312-0.425,4.726-1.164c-1.666,0.522-3.518,0.66-5.404,0.294
	c-5.531-1.067-9.236-5.953-8.279-10.91c0.958-4.955,6.222-8.106,11.748-7.038c2.303,0.444,4.281,1.56,5.75,3.059
	c-1.821-2.785-4.965-4.631-8.542-4.631c-1.374,0-2.683,0.275-3.884,0.769c-4.364-6.327-4.728-14.147-0.337-19.217
	c4.993-5.765,14.383-5.943,21.842-0.761c-0.035,0.21-0.058,0.423-0.058,0.643c0,1.369,0.703,2.575,1.765,3.279
	c-0.792-0.697-1.294-1.7-1.294-2.819c0-2.103,1.761-3.809,3.934-3.809c1.07,0,2.038,0.414,2.745,1.082
	c-0.132-0.19-0.289-0.361-0.453-0.524c0.041,0.019,0.077,0.029,0.117,0.048c-2.022-4.424-1.919-8.769,0.701-11.068
	c3.134-2.758,8.854-1.694,13.812,2.207c0.258,0.945,0.568,1.869,0.941,2.766c-0.25-0.81-0.438-1.643-0.602-2.485
	c0.146,0.121,0.297,0.234,0.443,0.361c-0.152-0.17-0.311-0.325-0.467-0.486c-0.258-1.401-0.41-2.843-0.41-4.317
	c0-13.141,10.706-23.791,23.912-23.791c6.369,0,12.359,2.502,16.818,6.561v-1.56h0.012V189.614z"/>
</svg>
