<?xml version="1.0" encoding="utf-8"?>
<!DOCTYPE svg PUBLIC "-//W3C//DTD SVG 1.1//EN" "http://www.w3.org/Graphics/SVG/1.1/DTD/svg11.dtd">
<svg version="1.1" id="mousse03" xmlns="http://www.w3.org/2000/svg" xmlns:xlink="http://www.w3.org/1999/xlink" x="0px" y="0px"
	 width="1920px" height="480px" viewBox="0 0 1920 480" enable-background="new 0 0 1920 480" xml:space="preserve">
<path fill="#EFDAE6" d="M1920,479.995V117.71c-3.621,0.303-6.844,2.017-9.109,4.596c-0.142-6.952-5.729-12.622-12.744-12.789
	c-7.211-0.172-13.196,5.539-13.369,12.759c-0.004,0.257-0.004,0.512,0.008,0.767c-3.493-2.214-7.969-2.76-12.083-1.07
	c-3.349,1.375-5.832,3.971-7.138,7.062c-0.98-4.47-4.643-7.662-8.742-7.339c-4.545,0.355-7.896,4.886-7.485,10.116
	c0.111,1.407,0.492,2.716,1.064,3.878l-0.073,0.035c-1.513-3.618-4.655-6.105-8.284-6.105c-5.091,0-9.218,4.889-9.248,10.934
	c-1.799-2.953-5.039-4.934-8.751-4.934c-2.002,0-3.859,0.582-5.438,1.572c-0.77-3.475-3.859-6.073-7.563-6.073
	c-4.005,0-7.299,3.037-7.708,6.935c-0.29-0.489-0.64-0.946-1.068-1.35c-1.925-1.797-4.769-2.081-7.304-0.996
	c1.298-1.593,2.079-3.625,2.079-5.839c0-5.108-4.141-9.251-9.249-9.251c-1.6,0-3.104,0.408-4.418,1.123
	c0.026-0.37,0.044-0.744,0.044-1.123c0-8.561-6.855-15.499-15.313-15.499c-8.46,0-15.313,6.938-15.313,15.499
	c0,1.693,0.271,3.322,0.765,4.848c-1.909-2.901-5.166-4.604-8.566-4.1c-3.768,0.557-6.578,3.652-7.271,7.504
	c-1.475-2.729-3.861-4.501-6.552-4.501c-2.347,0-4.459,1.349-5.938,3.5c-0.866-2.585-2.622-4.708-5.11-5.78
	c-2.141-0.923-4.481-0.922-6.669-0.172c0.967-4.838-0.774-9.926-4.902-12.906c-5.715-4.129-13.833-2.649-18.132,3.303
	c-1.157,1.599-1.916,3.359-2.302,5.158c-1.327-4.032-5.121-6.948-9.597-6.948c-4.86,0-8.921,3.436-9.888,8.01
	c-1.402-3.168-4.572-5.381-8.263-5.381c-4.995,0-9.043,4.049-9.043,9.043c0,0.649,0.07,1.28,0.199,1.892
	c-1.759-1.488-4.034-2.392-6.521-2.392c-5.581,0-10.105,4.524-10.105,10.106c0,2.236,0.738,4.297,1.968,5.973
	c-0.392-0.135-0.792-0.243-1.217-0.305c-3.997-0.584-7.799,2.408-8.996,6.838c-1.271-2.012-3.511-3.354-6.067-3.354
	c-2.163,0-4.1,0.961-5.413,2.473c-0.025-0.496-0.138-0.978-0.355-1.43c-1.211-2.51-5.035-3.176-8.539-1.486
	c-0.638,0.308-1.217,0.67-1.737,1.074c1.261-5.699-1.643-11.93-7.402-14.955c-6.82-3.58-15.058-1.324-18.399,5.041
	c-0.55,1.047-0.932,2.137-1.157,3.247c-0.786-0.923-1.821-1.626-3.004-1.997c3.375-4.185,4.203-9.537,1.641-13.512
	c-3.303-5.121-11.012-6.063-17.417-2.215c-0.537-0.846-1.543-1.419-2.706-1.419c-0.419,0-0.827,0.077-1.194,0.215
	c1.242-2.95,1.045-5.919-0.787-7.563c-2.033-1.826-5.465-1.477-8.514,0.586c-0.461,0.237-0.914,0.521-1.354,0.849
	c0.141-0.894,0.213-1.808,0.213-2.74c0-9.757-7.908-17.666-17.665-17.666c-8.204,0-15.101,5.593-17.09,13.171
	c-2.129-1.068-4.532-1.672-7.077-1.672c-8.744,0-15.833,7.089-15.833,15.833c0,0.875,0.074,1.734,0.21,2.57
	c-0.986-0.336-2.042-0.527-3.142-0.527c-4.961,0-9.047,3.705-9.66,8.497c-1.602-1.148-3.554-1.832-5.676-1.832
	c-5.306,0-9.612,4.239-9.737,9.516c-1.446-0.854-3.128-1.35-4.927-1.35c-2.753,0-5.234,1.146-7.009,2.98
	c0.121-0.697,0.19-1.413,0.19-2.146c0-6.835-5.542-12.375-12.376-12.375c-1.877,0-3.656,0.421-5.254,1.169
	c0.756-0.952,1.399-2.038,1.888-3.241c2.409-5.951,0.159-12.479-5.021-14.576c-5.091-2.063-11.114,0.914-13.613,6.656
	c0.02-1.285-0.169-2.613-0.601-3.933c-1.271-3.877-4.269-6.623-7.608-7.433v-0.031c-1.47-0.333-2.998-0.294-4.478,0.189
	c-4.517,1.48-6.962,6.574-5.878,11.767c-2.528-3.808-6.856-6.316-11.771-6.316c-7.799,0-14.122,6.324-14.122,14.125
	c0,1.144,0.14,2.254,0.396,3.316c-1.819-3.245-5.288-5.441-9.271-5.441c-2.065,0-3.987,0.599-5.617,1.618
	c1.906-3.46,1.486-7.54-1.207-9.676c-3.069-2.438-7.935-1.421-10.86,2.27c-0.087,0.11-0.166,0.227-0.246,0.338
	c0.093-0.813,0.103-1.658-0.003-2.521c-0.62-5.071-4.681-8.746-9.064-8.211c-4.237,0.518-7.215,4.772-6.86,9.631
	c-1.459-3.632-5.008-6.199-9.16-6.199c-0.563,0-1.114,0.06-1.655,0.15c0.668-1.236,1.049-2.648,1.049-4.15
	c0-4.832-3.918-8.75-8.752-8.75c-2.729,0-5.169,1.252-6.771,3.214c1.677-6.358-1.107-12.822-6.644-14.888
	c-5.955-2.217-12.824,1.49-15.357,8.283c-0.688,1.842-0.98,3.719-0.928,5.524c-0.309-0.315-0.626-0.623-0.964-0.918
	c-5.896-5.16-14.311-5.188-18.797-0.063c-4.229,4.832-3.457,12.518,1.584,17.705c-5.24,0.488-9.692,3.669-11.968,8.146
	c0.078-2.316-1.313-4.457-3.231-4.865c-2.026-0.43-4.751,1.984-4.301,4.705c-0.17-2.002-1.151-3.521-2.769-4.516
	c-1.774-1.091-3.931-1.094-5.776-0.213c0.883-0.676,1.688-1.543,2.334-2.592c2.292-3.729,1.731-8.235-1.249-10.068
	s-7.256-0.299-9.547,3.43c-0.477,0.772-0.82,1.58-1.055,2.391c-0.063-1.77-0.829-3.344-2.236-4.207
	c-2.273-1.399-5.441-0.462-7.449,2.063c0.402-1.463,0.621-3,0.621-4.588c0-9.527-7.723-17.25-17.248-17.25
	c-2.89,0-5.61,0.713-8.002,1.969c-1.229-7.103-6.859-12.471-13.622-12.471c-7.662,0-13.875,6.887-13.875,15.38
	c0,1.236,0.137,2.437,0.385,3.587c-2.527-1.938-5.686-3.091-9.114-3.091c-8.284,0-14.998,6.716-14.998,14.999
	c0,0.754,0.058,1.495,0.162,2.219c-1.895-1.929-4.355-3.094-7.039-3.094c-4.602,0-8.532,3.419-10.119,8.246
	c-2.202-2.74-5.578-4.497-9.364-4.497c-2.048,0-3.974,0.513-5.658,1.417c1.775-5.145,0.646-10.701-3.317-13.943
	c-5.286-4.328-13.616-2.9-18.602,3.189c-1.009,1.23-1.797,2.559-2.378,3.93c-0.835-8.748-8.2-15.592-17.167-15.592
	c-9.526,0-17.251,7.723-17.251,17.249c0,0.197,0.01,0.394,0.016,0.589c-1.87-1.037-4.018-1.631-6.306-1.631c-7.181,0-13,5.82-13,13
	c0,0.309,0.014,0.611,0.035,0.914c-6.354-4.384-14.852-3.686-19.721,1.904c-4.631,5.311-4.435,13.267,0.073,18.932
	c-0.005,0-0.009,0-0.015,0c-5.73,0-10.376,4.646-10.376,10.375c0,0.275,0.024,0.547,0.041,0.816
	c-2.153-2.314-5.87-2.674-8.699-0.705c-0.278,0.191-0.53,0.404-0.769,0.625c2.119-3.137,2.372-7.1,0.305-10.072
	c-2.73-3.927-8.488-4.656-12.984-1.71c0.713-1.653,1.107-3.478,1.107-5.392c0-7.535-6.11-13.646-13.645-13.646
	c-0.442,0-0.877,0.025-1.313,0.066v-0.014c-3.622,0.301-6.841,2.016-9.109,4.594c-0.141-6.951-5.73-12.623-12.742-12.789
	c-7.215-0.172-13.196,5.539-13.37,12.76c-0.005,0.256-0.001,0.512,0.007,0.766c-3.495-2.213-7.97-2.76-12.084-1.07
	c-3.35,1.375-5.829,3.972-7.139,7.062c-0.978-4.471-4.64-7.662-8.742-7.34c-4.542,0.356-7.895,4.887-7.482,10.116
	c0.11,1.406,0.489,2.717,1.063,3.879l-0.075,0.033c-1.515-3.616-4.651-6.104-8.282-6.104c-5.091,0-9.218,4.89-9.249,10.935
	c-1.799-2.953-5.04-4.935-8.75-4.935c-2.001,0-3.862,0.583-5.438,1.573c-0.768-3.475-3.858-6.073-7.565-6.073
	c-4.002,0-7.298,3.038-7.706,6.937c-0.287-0.491-0.637-0.949-1.067-1.352c-1.925-1.796-4.77-2.08-7.304-0.996
	c1.298-1.593,2.077-3.624,2.077-5.838c0-5.107-4.14-9.251-9.25-9.251c-1.601,0-3.105,0.407-4.418,1.123
	c0.027-0.371,0.044-0.744,0.044-1.123c0-8.562-6.854-15.499-15.313-15.499c-8.457,0-15.313,6.938-15.313,15.499
	c0,1.692,0.272,3.321,0.77,4.847c-1.91-2.9-5.166-4.603-8.568-4.1c-3.768,0.559-6.579,3.652-7.271,7.505
	c-1.48-2.729-3.862-4.501-6.556-4.501c-2.345,0-4.458,1.348-5.939,3.5c-0.865-2.585-2.623-4.708-5.108-5.78
	c-2.146-0.924-4.482-0.922-6.668-0.172c0.966-4.838-0.776-9.926-4.901-12.905c-5.716-4.129-13.833-2.65-18.136,3.303
	c-1.153,1.6-1.913,3.359-2.301,5.158c-1.326-4.033-5.117-6.948-9.597-6.948c-4.859,0-8.919,3.436-9.887,8.009
	c-1.406-3.168-4.574-5.381-8.262-5.381c-4.996,0-9.043,4.049-9.043,9.043c0,0.648,0.068,1.281,0.199,1.891
	c-1.76-1.488-4.034-2.391-6.521-2.391c-5.58,0-10.105,4.525-10.105,10.105c0,2.237,0.738,4.299,1.97,5.973
	c-0.395-0.133-0.795-0.242-1.22-0.305c-3.993-0.584-7.797,2.409-8.994,6.84c-1.269-2.013-3.509-3.354-6.068-3.354
	c-2.165,0-4.1,0.962-5.411,2.472c-0.027-0.494-0.14-0.977-0.361-1.428c-1.209-2.511-5.032-3.176-8.537-1.486
	c-0.636,0.305-1.216,0.67-1.734,1.072c1.256-5.697-1.646-11.928-7.409-14.955c-6.815-3.58-15.051-1.322-18.396,5.042
	c-0.55,1.046-0.933,2.138-1.156,3.247c-0.787-0.924-1.82-1.627-3.004-1.998c3.375-4.184,4.201-9.535,1.641-13.51
	c-3.304-5.122-11.012-6.063-17.417-2.215c-0.538-0.848-1.543-1.419-2.707-1.419c-0.419,0-0.826,0.077-1.192,0.215
	c1.241-2.951,1.044-5.919-0.788-7.563c-2.034-1.826-5.467-1.477-8.513,0.586c-0.462,0.237-0.915,0.521-1.354,0.849
	c0.139-0.894,0.212-1.808,0.212-2.74c0-9.756-7.907-17.666-17.664-17.666c-8.205,0-15.097,5.592-17.087,13.171
	c-2.132-1.066-4.535-1.671-7.08-1.671c-8.743,0-15.833,7.088-15.833,15.832c0,0.877,0.075,1.733,0.208,2.57
	c-0.986-0.337-2.041-0.527-3.141-0.527c-4.961,0-9.045,3.707-9.659,8.498c-1.603-1.147-3.559-1.832-5.677-1.832
	c-5.305,0-9.611,4.24-9.735,9.515c-1.449-0.852-3.129-1.349-4.929-1.349c-2.752,0-5.234,1.146-7.009,2.981
	c0.125-0.698,0.19-1.414,0.19-2.147c0-6.834-5.542-12.375-12.376-12.375c-1.879,0-3.657,0.422-5.252,1.17
	c0.758-0.953,1.403-2.039,1.888-3.243c2.41-5.951,0.163-12.478-5.021-14.574c-5.092-2.063-11.113,0.914-13.614,6.655
	c0.02-1.284-0.166-2.612-0.601-3.932c-1.27-3.878-4.267-6.623-7.606-7.433v-0.033c-1.472-0.334-3-0.295-4.479,0.191
	c-4.515,1.479-6.962,6.572-5.88,11.766c-2.526-3.807-6.854-6.316-11.767-6.316c-7.801,0-14.123,6.323-14.123,14.125
	c0,1.143,0.138,2.253,0.393,3.316c-1.818-3.245-5.284-5.442-9.271-5.442c-2.064,0-3.986,0.601-5.613,1.619
	c1.906-3.461,1.484-7.541-1.21-9.677c-3.067-2.438-7.933-1.422-10.861,2.271c-0.087,0.109-0.163,0.226-0.245,0.338
	c0.097-0.813,0.104-1.659,0-2.521c-0.623-5.072-4.683-8.746-9.065-8.211c-4.234,0.518-7.215,4.772-6.861,9.631
	c-1.458-3.633-5.007-6.199-9.157-6.199c-0.564,0-1.116,0.059-1.656,0.15c0.667-1.236,1.047-2.648,1.047-4.15
	c0-4.832-3.918-8.75-8.75-8.75c-2.732,0-5.168,1.253-6.772,3.213c1.677-6.357-1.108-12.822-6.643-14.887
	c-5.952-2.217-12.827,1.492-15.361,8.283c-0.684,1.842-0.979,3.721-0.927,5.525c-0.305-0.314-0.626-0.621-0.963-0.918
	c-5.895-5.158-14.309-5.188-18.794-0.063c-4.231,4.831-3.458,12.518,1.584,17.706c-5.239,0.487-9.692,3.668-11.971,8.145
	c0.083-2.317-1.311-4.457-3.23-4.864c-2.026-0.431-4.749,1.984-4.302,4.705c-0.169-2.002-1.149-3.521-2.767-4.516
	c-1.775-1.091-3.931-1.095-5.778-0.214c0.885-0.677,1.691-1.542,2.334-2.591c2.292-3.729,1.733-8.235-1.247-10.069
	c-2.981-1.832-7.255-0.298-9.546,3.431c-0.477,0.772-0.822,1.579-1.058,2.391c-0.061-1.77-0.825-3.342-2.231-4.208
	c-2.277-1.397-5.443-0.46-7.451,2.063c0.401-1.462,0.621-2.999,0.621-4.588c0-9.525-7.724-17.249-17.251-17.249
	c-2.887,0-5.606,0.713-7.998,1.97c-1.227-7.104-6.857-12.473-13.625-12.473c-7.661,0-13.871,6.887-13.871,15.38
	c0,1.234,0.135,2.435,0.381,3.586c-2.524-1.937-5.685-3.091-9.114-3.091c-8.284,0-15,6.715-15,14.999
	c0,0.754,0.057,1.495,0.164,2.219c-1.898-1.929-4.353-3.094-7.038-3.094c-4.602,0-8.533,3.419-10.122,8.246
	c-2.198-2.74-5.574-4.497-9.361-4.497c-2.047,0-3.976,0.514-5.661,1.417c1.78-5.144,0.648-10.701-3.315-13.942
	c-5.29-4.328-13.615-2.9-18.601,3.189c-1.007,1.229-1.796,2.559-2.379,3.928c-0.833-8.747-8.2-15.591-17.167-15.591
	c-9.527,0-17.25,7.724-17.25,17.249c0,0.196,0.008,0.393,0.015,0.589c-1.87-1.038-4.016-1.631-6.302-1.631
	c-7.181,0-13.001,5.819-13.001,13c0,0.308,0.016,0.61,0.037,0.914c-6.355-4.384-14.855-3.687-19.722,1.903
	c-4.631,5.312-4.436,13.268,0.074,18.933c-0.004,0-0.008-0.001-0.014-0.001c-5.731,0-10.375,4.646-10.375,10.376
	c0,0.274,0.021,0.545,0.042,0.815c-2.158-2.314-5.872-2.676-8.704-0.705c-0.278,0.191-0.528,0.404-0.769,0.625
	c2.121-3.135,2.373-7.1,0.307-10.071c-2.732-3.927-8.488-4.656-12.986-1.71c0.714-1.653,1.11-3.477,1.11-5.393
	c0-7.535-6.109-13.646-13.645-13.646c-0.444,0-0.879,0.024-1.311,0.067V480H1920V479.995z"/>
<circle fill="none" stroke="#000000" stroke-miterlimit="10" cx="1500.535" cy="105.7" r="1.75"/>
<circle fill="none" stroke="#000000" stroke-miterlimit="10" cx="1525.785" cy="94.284" r="2"/>
<path fill="none" stroke="#000000" stroke-miterlimit="10" d="M1552.035,109.452c-0.506,0-0.913,0.41-0.913,0.914
	c0,0.506,0.407,0.914,0.913,0.914c0.508,0,0.917-0.408,0.917-0.914C1552.95,109.862,1552.541,109.452,1552.035,109.452z"/>
<circle fill="none" stroke="#000000" stroke-miterlimit="10" cx="1527.661" cy="114.241" r="3.125"/>
<path fill="none" stroke="#000000" stroke-miterlimit="10" d="M1539.786,123.616c-2.902,0-5.253,2.352-5.253,5.25
	c0,2.9,2.351,5.25,5.253,5.25c2.896,0,5.249-2.352,5.249-5.25S1542.684,123.616,1539.786,123.616z"/>
<circle fill="none" stroke="#000000" stroke-miterlimit="10" cx="1540.41" cy="126.241" r="1.125"/>
<circle fill="none" stroke="#000000" stroke-miterlimit="10" cx="1568.66" cy="118.742" r="1.375"/>
<circle fill="none" stroke="#000000" stroke-miterlimit="10" cx="1594.785" cy="131.617" r="1.75"/>
<path fill="none" stroke="#000000" stroke-miterlimit="10" d="M1499.787,141.904c-1.471,0-2.662,1.19-2.662,2.659
	s1.191,2.658,2.662,2.658c1.465,0,2.658-1.189,2.658-2.658S1501.252,141.904,1499.787,141.904z"/>
<circle fill="none" stroke="#000000" stroke-miterlimit="10" cx="1677.036" cy="114.117" r="1.321"/>
<circle fill="none" stroke="#000000" stroke-miterlimit="10" cx="1707.159" cy="115.742" r="1.875"/>
<circle fill="none" stroke="#000000" stroke-miterlimit="10" cx="1678.41" cy="133.991" r="3.375"/>
<circle fill="none" stroke="#000000" stroke-miterlimit="10" cx="1689.285" cy="144.367" r="4.5"/>
<circle fill="none" stroke="#000000" stroke-miterlimit="10" cx="1678.161" cy="132.741" r="0.875"/>
<path fill="none" stroke="#000000" stroke-miterlimit="10" d="M1688.412,141.366c-0.623,0-1.129,0.504-1.129,1.126
	s0.506,1.125,1.129,1.125c0.619,0,1.125-0.503,1.125-1.125S1689.031,141.366,1688.412,141.366z"/>
<path fill="none" stroke="#000000" stroke-miterlimit="10" d="M1742.286,138.616c-2.763,0-4.999,2.238-4.999,5s2.238,5,4.999,5
	s4.998-2.238,4.998-5C1747.285,140.854,1745.045,138.616,1742.286,138.616z"/>
<circle fill="none" stroke="#000000" stroke-miterlimit="10" cx="1740.785" cy="141.616" r="1.125"/>
<path fill="none" stroke="#000000" stroke-miterlimit="10" d="M1766.41,107.616c-0.896,0-1.625,0.729-1.625,1.625
	c0,0.898,0.727,1.626,1.625,1.626s1.627-0.728,1.627-1.626C1768.036,108.345,1767.311,107.616,1766.41,107.616z"/>
<circle fill="none" stroke="#000000" stroke-miterlimit="10" cx="1789.66" cy="124.991" r="1.375"/>
<path fill="none" stroke="#000000" stroke-miterlimit="10" d="M1858.059,126.929c0,0.808-0.654,1.463-1.462,1.463
	s-1.46-0.653-1.46-1.463c0-0.807,0.652-1.461,1.46-1.461C1857.402,125.468,1858.059,126.122,1858.059,126.929z"/>
<path fill="none" stroke="#000000" stroke-miterlimit="10" d="M1896.66,113.917c-1.4,0-2.536,0.928-2.536,2.074
	s1.136,2.076,2.536,2.076c1.398,0,2.531-0.93,2.531-2.076S1898.061,113.917,1896.66,113.917z"/>
<path fill="none" stroke="#000000" stroke-miterlimit="10" d="M1910.034,144.616c-2.897,0-5.248,2.352-5.248,5.25
	s2.351,5.249,5.248,5.249c2.901,0,5.25-2.351,5.25-5.249S1912.938,144.616,1910.034,144.616z"/>
<path fill="none" stroke="#000000" stroke-miterlimit="10" d="M1910.535,148.241c0,0.621-0.505,1.125-1.125,1.125
	c-0.621,0-1.127-0.504-1.127-1.125s0.506-1.125,1.127-1.125C1910.03,147.116,1910.535,147.62,1910.535,148.241z"/>
<circle fill="none" stroke="#000000" stroke-miterlimit="10" cx="1012.39" cy="122.804" r="2.188"/>
<circle fill="none" stroke="#000000" stroke-miterlimit="10" cx="1171.702" cy="79.367" r="2.062"/>
<circle fill="none" stroke="#000000" stroke-miterlimit="10" cx="1092.953" cy="98.616" r="1.688"/>
<circle fill="none" stroke="#000000" stroke-miterlimit="10" cx="1247.952" cy="145.616" r="2.234"/>
<circle fill="none" stroke="#000000" stroke-miterlimit="10" cx="1089.702" cy="139.366" r="5.75"/>
<circle fill="none" stroke="#000000" stroke-miterlimit="10" cx="1089.869" cy="137.032" r="1.416"/>
<circle fill="none" stroke="#000000" stroke-miterlimit="10" cx="1190.486" cy="115.307" r="4.188"/>
<path fill="none" stroke="#000000" stroke-miterlimit="10" d="M1109.375,127.483c-2.692,0-4.877,2.184-4.877,4.876
	s2.184,4.875,4.877,4.875c2.691,0,4.875-2.183,4.875-4.875S1112.066,127.483,1109.375,127.483z"/>
<circle fill="none" stroke="#000000" stroke-miterlimit="10" cx="1108.891" cy="130.435" r="1.201"/>
<circle fill="none" stroke="#000000" stroke-miterlimit="10" cx="1308.452" cy="100.116" r="1.25"/>
<ellipse fill="none" stroke="#000000" stroke-miterlimit="10" cx="1375.952" cy="114.366" rx="1.624" ry="1.5"/>
<path fill="none" stroke="#000000" stroke-miterlimit="10" d="M1356.314,150.063c-0.659,2.822-3.486,4.574-6.31,3.914
	c-2.826-0.66-4.574-3.485-3.914-6.309c0.66-2.822,3.484-4.576,6.308-3.914C1355.219,144.415,1356.973,147.239,1356.314,150.063z"/>
<circle fill="none" stroke="#000000" stroke-miterlimit="10" cx="1350.964" cy="147.143" r="1.125"/>
<path fill="none" stroke="#000000" stroke-miterlimit="10" d="M540.537,103.95c-0.967,0-1.749,0.783-1.749,1.75
	s0.782,1.75,1.749,1.75c0.965,0,1.749-0.783,1.749-1.75S541.502,103.95,540.537,103.95z"/>
<circle fill="none" stroke="#000000" stroke-miterlimit="10" cx="565.787" cy="94.284" r="2"/>
<path fill="none" stroke="#000000" stroke-miterlimit="10" d="M592.038,109.452c-0.506,0-0.915,0.41-0.915,0.914
	c0,0.506,0.41,0.914,0.915,0.914c0.504,0,0.914-0.408,0.914-0.914C592.953,109.862,592.542,109.452,592.038,109.452z"/>
<circle fill="none" stroke="#000000" stroke-miterlimit="10" cx="567.661" cy="114.241" r="3.125"/>
<circle fill="none" stroke="#000000" stroke-miterlimit="10" cx="579.787" cy="128.866" r="5.25"/>
<circle fill="none" stroke="#000000" stroke-miterlimit="10" cx="580.413" cy="126.241" r="1.125"/>
<circle fill="none" stroke="#000000" stroke-miterlimit="10" cx="608.662" cy="118.742" r="1.375"/>
<circle fill="none" stroke="#000000" stroke-miterlimit="10" cx="634.788" cy="131.617" r="1.75"/>
<circle fill="none" stroke="#000000" stroke-miterlimit="10" cx="539.787" cy="144.563" r="2.659"/>
<path fill="none" stroke="#000000" stroke-miterlimit="10" d="M717.036,112.796c-0.729,0-1.322,0.592-1.322,1.32
	s0.594,1.32,1.322,1.32c0.729,0,1.32-0.592,1.32-1.32S717.765,112.796,717.036,112.796z"/>
<path fill="none" stroke="#000000" stroke-miterlimit="10" d="M747.162,113.867c-1.037,0-1.875,0.839-1.875,1.875
	s0.835,1.875,1.875,1.875c1.033,0,1.873-0.839,1.873-1.875S748.195,113.867,747.162,113.867z"/>
<circle fill="none" stroke="#000000" stroke-miterlimit="10" cx="718.411" cy="133.991" r="3.375"/>
<circle fill="none" stroke="#000000" stroke-miterlimit="10" cx="729.287" cy="144.367" r="4.5"/>
<circle fill="none" stroke="#000000" stroke-miterlimit="10" cx="718.163" cy="132.741" r="0.875"/>
<circle fill="none" stroke="#000000" stroke-miterlimit="10" cx="728.412" cy="142.491" r="1.125"/>
<circle fill="none" stroke="#000000" stroke-miterlimit="10" cx="782.287" cy="143.616" r="5"/>
<circle fill="none" stroke="#000000" stroke-miterlimit="10" cx="780.786" cy="141.616" r="1.125"/>
<path fill="none" stroke="#000000" stroke-miterlimit="10" d="M806.413,107.616c-0.897,0-1.627,0.729-1.627,1.625
	c0,0.898,0.729,1.626,1.627,1.626s1.623-0.728,1.623-1.626C808.036,108.345,807.31,107.616,806.413,107.616z"/>
<path fill="none" stroke="#000000" stroke-miterlimit="10" d="M829.662,123.616c-0.762,0-1.374,0.616-1.374,1.376
	c0,0.759,0.61,1.375,1.374,1.375c0.759,0,1.374-0.616,1.374-1.375C831.036,124.232,830.421,123.616,829.662,123.616z"/>
<path fill="none" stroke="#000000" stroke-miterlimit="10" d="M898.061,126.929c0,0.808-0.654,1.463-1.457,1.463
	c-0.809,0-1.462-0.653-1.462-1.463c0-0.807,0.654-1.461,1.462-1.461C897.406,125.468,898.061,126.122,898.061,126.929z"/>
<ellipse fill="none" stroke="#000000" stroke-miterlimit="10" cx="936.661" cy="115.993" rx="2.536" ry="2.076"/>
<circle fill="none" stroke="#000000" stroke-miterlimit="10" cx="950.036" cy="149.867" r="5.249"/>
<path fill="none" stroke="#000000" stroke-miterlimit="10" d="M950.538,148.241c0,0.621-0.507,1.125-1.128,1.125
	c-0.62,0-1.125-0.504-1.125-1.125s0.505-1.125,1.125-1.125C950.032,147.116,950.538,147.62,950.538,148.241z"/>
<circle fill="none" stroke="#000000" stroke-miterlimit="10" cx="52.393" cy="122.804" r="2.188"/>
<path fill="none" stroke="#000000" stroke-miterlimit="10" d="M211.704,77.304c-1.137,0-2.061,0.925-2.061,2.063
	c0,1.14,0.923,2.063,2.061,2.063c1.141,0,2.064-0.924,2.064-2.063C213.769,78.228,212.845,77.304,211.704,77.304z"/>
<path fill="none" stroke="#000000" stroke-miterlimit="10" d="M132.953,96.929c-0.93,0-1.684,0.757-1.684,1.688
	c0,0.933,0.754,1.688,1.684,1.688c0.933,0,1.689-0.756,1.689-1.688C134.642,97.686,133.886,96.929,132.953,96.929z"/>
<path fill="none" stroke="#000000" stroke-miterlimit="10" d="M287.956,143.382c-1.237,0-2.237,1.002-2.237,2.234
	c0,1.234,1,2.236,2.237,2.236c1.231,0,2.231-1.002,2.231-2.236C290.188,144.384,289.188,143.382,287.956,143.382z"/>
<path fill="none" stroke="#000000" stroke-miterlimit="10" d="M129.706,133.616c-3.179,0-5.75,2.575-5.75,5.75
	c0,3.176,2.572,5.75,5.75,5.75c3.173,0,5.75-2.574,5.75-5.75C135.455,136.191,132.879,133.616,129.706,133.616z"/>
<circle fill="none" stroke="#000000" stroke-miterlimit="10" cx="129.872" cy="137.032" r="1.416"/>
<circle fill="none" stroke="#000000" stroke-miterlimit="10" cx="230.487" cy="115.307" r="4.188"/>
<path fill="none" stroke="#000000" stroke-miterlimit="10" d="M149.376,127.483c-2.693,0-4.874,2.184-4.874,4.876
	s2.181,4.875,4.874,4.875c2.694,0,4.875-2.183,4.875-4.875S152.07,127.483,149.376,127.483z"/>
<circle fill="none" stroke="#000000" stroke-miterlimit="10" cx="148.891" cy="130.435" r="1.201"/>
<circle fill="none" stroke="#000000" stroke-miterlimit="10" cx="348.455" cy="100.116" r="1.25"/>
<ellipse fill="none" stroke="#000000" stroke-miterlimit="10" cx="415.954" cy="114.366" rx="1.627" ry="1.5"/>
<path fill="none" stroke="#000000" stroke-miterlimit="10" d="M396.317,150.063c-0.663,2.822-3.486,4.574-6.312,3.914
	c-2.823-0.66-4.575-3.485-3.914-6.309c0.66-2.822,3.486-4.576,6.307-3.914C395.224,144.415,396.974,147.239,396.317,150.063z"/>
<circle fill="none" stroke="#000000" stroke-miterlimit="10" cx="390.967" cy="147.143" r="1.125"/>
<path d="M1723.436,139.312c-0.014,0.021-0.027,0.045-0.043,0.066c0.016-0.023,0.025-0.05,0.043-0.072
	C1723.433,139.309,1723.436,139.311,1723.436,139.312z"/>
<path d="M1626.776,143.704c1.335-4.17,5.012-6.928,8.862-6.363c0.31,0.043,0.603,0.113,0.895,0.197
	c-1.032-1.582-1.641-3.463-1.641-5.49c0-5.582,4.525-10.106,10.106-10.106c2.484,0,4.754,0.908,6.515,2.397
	c-1.598-6.629,4.081-10.938,8.846-10.938c3.701,0,6.874,2.228,8.274,5.408c0.952-4.587,5.007-8.036,9.876-8.036
	c4.49,0,8.282,2.938,9.6,6.99c0.38-1.813,1.134-3.59,2.301-5.201c4.3-5.952,12.419-7.432,18.132-3.303
	c4.054,2.931,5.806,7.894,4.946,12.654c2.177-0.736,4.495-0.742,6.623,0.174c2.447,1.057,4.187,3.133,5.063,5.664
	c1.48-2.084,3.559-3.385,5.862-3.385c2.683,0,5.062,1.771,6.538,4.492c0.654-3.907,3.482-7.057,7.284-7.62
	c3.469-0.513,6.786,1.271,8.677,4.278c-0.521-1.559-0.813-3.225-0.813-4.963c0-8.562,6.855-15.5,15.313-15.5
	c8.458,0,15.313,6.938,15.313,15.5c0,0.416-0.019,0.826-0.051,1.233c1.33-0.741,2.857-1.173,4.489-1.173
	c5.11,0,9.249,4.143,9.249,9.251c0,2.072-0.688,3.979-1.847,5.521c2.505-1.051,5.274-0.778,7.146,0.97
	c0.426,0.396,0.771,0.848,1.051,1.335c0.566-3.721,3.769-6.575,7.646-6.575c3.708,0,6.787,2.604,7.555,6.079
	c1.577-0.995,3.441-1.579,5.446-1.579c3.798,0,7.109,2.07,8.883,5.142c-0.003-0.047-0.01-0.094-0.01-0.142c0-6.073,4.143-11,9.25-11
	c5.109,0,9.25,4.927,9.25,11c0,0.146-0.005,0.285-0.009,0.429c-0.19-6.145-4.229-11.054-9.179-11.054
	c-4.99,0-9.051,4.981-9.186,11.188c0.011,0.49,0.041,0.973,0.104,1.444c-0.021-0.05-0.047-0.097-0.068-0.146
	c0.01,0.123,0.015,0.247,0.025,0.369c-0.022-0.144-0.034-0.291-0.056-0.435c-1.643-3.721-5.167-6.299-9.26-6.299
	c-4.627,0-8.538,3.293-9.813,7.813c0.535-2.787,2.199-5.164,4.494-6.656c-0.924-3.314-3.854-5.74-7.345-5.74
	c-3.921,0-7.145,3.053-7.605,6.99c-0.018,0.148-0.03,0.299-0.041,0.451c-0.309-0.816-0.791-1.563-1.45-2.18
	c-1.891-1.761-4.69-2.021-7.205-0.938c-0.026,0.029-0.048,0.061-0.072,0.09c0.018-0.027,0.035-0.055,0.054-0.082
	c-0.04,0.018-0.074,0.031-0.115,0.048c0.122-0.153,0.248-0.304,0.356-0.462c0.014-0.006,0.028-0.011,0.045-0.018
	c0.373-0.605,0.689-1.262,0.937-1.967c1.708-4.955-0.788-10.312-5.576-11.961c-2.447-0.845-5.021-0.55-7.173,0.6
	c-0.149,1.477-0.497,2.892-1.025,4.217c0.508-1.584,0.788-3.281,0.788-5.047c0-8.717-6.698-15.782-14.968-15.782
	c-8.269,0-14.968,7.065-14.968,15.782c0,1.611,0.24,3.162,0.672,4.627c0.051,0.17,0.106,0.338,0.164,0.504
	c-1.883-3.164-5.333-5.059-8.953-4.521c-3.695,0.547-6.492,3.465-7.314,7.146c0.012,0.017,0.018,0.033,0.029,0.051
	c-0.032,0.129-0.067,0.259-0.094,0.39c-0.005-0.011-0.011-0.02-0.016-0.028c-0.08,0.442-0.136,0.894-0.16,1.353
	c-0.011-0.504,0.023-0.996,0.083-1.481c-1.509-2.628-3.847-4.318-6.478-4.318c-3.918,0-7.195,3.746-8.036,8.769
	c0.216-2.002,0.831-3.828,1.733-5.326c-0.902-2.573-2.689-4.691-5.203-5.773c-1.963-0.848-4.084-0.934-6.105-0.404
	c-0.376,1.834-1.145,3.629-2.321,5.26c-0.918,1.271-2.014,2.33-3.217,3.181c3.811,0.179,6.849,3.353,6.849,7.255
	c0,2.768-1.531,5.163-3.772,6.393c3.354,0.836,5.847,3.855,5.847,7.471c0,4.258-3.451,7.709-7.713,7.709
	c-0.71,0-1.394-0.104-2.048-0.283c0.453,0.082,0.917,0.13,1.394,0.13c4.205,0,7.617-3.327,7.617-7.435
	c0-3.512-2.5-6.449-5.854-7.227c-0.007,0.002-0.012,0.006-0.016,0.008c-0.492-0.105-1.002-0.164-1.524-0.164
	c-0.23,0-0.458,0.017-0.683,0.039c0.16-0.022,0.314-0.058,0.472-0.09c-0.003,0-0.009,0-0.013,0c-0.054,0-0.104,0.004-0.161,0.006
	c0.459-0.08,0.906-0.209,1.333-0.377c0.017,0.002,0.033,0.004,0.048,0.006c2.552-1.023,4.354-3.424,4.354-6.234
	c0-3.635-3.002-6.591-6.761-6.759c0.04-0.03,0.075-0.064,0.116-0.095c-0.116,0.072-0.233,0.147-0.348,0.219
	c1.166-0.855,2.23-1.918,3.13-3.178c4.245-5.945,3.257-14.004-2.207-18.004c-5.463-3.998-13.334-2.42-17.577,3.524
	c-1.011,1.41-1.716,2.94-2.143,4.508c0.003,0.013,0.011,0.024,0.013,0.036c-0.108,0.411-0.199,0.823-0.274,1.234
	c-0.988-4.502-4.881-7.864-9.542-7.864c-4.675,0-8.565,3.38-9.543,7.896c0.009,0.016,0.013,0.03,0.018,0.045
	c-0.056,0.28-0.096,0.565-0.123,0.855c-1.177-3.583-4.48-6.169-8.384-6.169c-4.887,0-9.908,3.781-8.592,11.164
	c-0.041-0.113-0.072-0.224-0.104-0.336c0,0.004,0,0.007,0,0.011c-1.721-1.55-3.965-2.495-6.43-2.495
	c-5.438,0-9.848,4.569-9.848,10.207c0,1.765,0.439,3.418,1.202,4.865c3.249,0.969,5.505,4.247,5.688,8.114
	c0.971-1.678,2.781-2.813,4.859-2.813c3.021,0,5.479,2.387,5.607,5.377c0.848-1.303,2.307-2.168,3.975-2.168
	c2.623,0,4.75,2.127,4.75,4.75c0,2.061-1.316,3.811-3.15,4.469c1.586-0.729,2.693-2.359,2.693-4.261
	c0-2.577-2.033-4.667-4.541-4.667c-1.805,0-3.356,1.082-4.086,2.646c0-0.021,0.002-0.042,0.002-0.064c0-0.004,0-0.01,0-0.014
	c-0.002,0-0.002,0.002-0.002,0.002c-0.031-3.08-2.479-5.57-5.498-5.57c-2.255,0-4.186,1.389-5.034,3.371
	c0.003-0.055,0.007-0.107,0.007-0.163c0-0.003,0-0.005,0-0.009c0.008-0.016,0.015-0.029,0.02-0.046
	c-0.003,0.002-0.003,0.003-0.006,0.005c-0.115-4.4-2.746-8.076-6.465-8.619c-3.597-0.525-7.053,2.053-8.517,6.01
	C1626.868,143.845,1626.824,143.772,1626.776,143.704z"/>
<path d="M1849.646,133.684c0.006,0.071,0.016,0.143,0.021,0.215c-0.167-0.629-0.285-1.284-0.338-1.963
	c-0.411-5.231,2.939-9.761,7.486-10.117c4.076-0.322,7.72,2.836,8.721,7.271c1.305-3.115,3.79-5.732,7.158-7.115
	c4.115-1.689,8.588-1.145,12.084,1.07c0.007,0.204,0.016,0.409,0.035,0.612c-3.461-2.101-7.84-2.588-11.869-0.933
	c-6.325,2.597-9.553,9.546-7.643,15.97c-1.053-2.903-1.027-5.955-0.107-8.695c-1.196-4.684-4.637-7.975-8.412-7.677
	C1852.374,122.665,1849.184,127.753,1849.646,133.684z"/>
<path d="M1006.143,118.435c4.94-5.67,13.617-6.312,20.002-1.711c-0.043-0.406-0.063-0.816-0.063-1.232c0-7.18,5.819-13,13-13
	c2.185,0,4.239,0.545,6.044,1.496c-0.001-0.066-0.004-0.135-0.004-0.204c0-9.526,7.722-17.249,17.251-17.249
	c8.987,0,16.372,6.883,17.171,15.665c0.591-1.483,1.413-2.926,2.498-4.253c4.985-6.092,13.314-7.52,18.601-3.189
	c4.05,3.312,5.13,9.028,3.188,14.263c1.718-0.947,3.687-1.486,5.789-1.486c3.771,0,7.137,1.742,9.337,4.463
	c1.567-4.875,5.517-8.338,10.146-8.338c2.629,0,5.037,1.121,6.915,2.979c0.032,0.219,0.069,0.433,0.113,0.647
	c-1.877-1.8-4.263-2.877-6.86-2.877c-4.521,0-8.396,3.263-10.063,7.914c1.513,2.008,2.409,4.504,2.409,7.21
	c0,1.301-0.209,2.551-0.593,3.723c0.222-0.918,0.342-1.879,0.342-2.867c0-6.686-5.372-12.104-11.999-12.104
	c-5.271,0-9.742,3.427-11.355,8.192c0.841-3.202,2.975-5.883,5.806-7.448c-0.045,0.026-0.094,0.055-0.143,0.082
	c1.728-5.142,0.672-10.567-3.155-13.703c-5.223-4.272-13.604-2.664-18.726,3.595c-0.91,1.111-1.645,2.297-2.228,3.517
	c0.032,0.419,0.054,0.841,0.054,1.267c0,1.965-0.336,3.85-0.938,5.608c0.341-1.407,0.521-2.882,0.521-4.401
	c0-9.802-7.575-17.748-16.917-17.748c-9.161,0-16.62,7.643-16.904,17.184c0-0.002-0.004-0.002-0.009-0.004
	c0.005,0.049,0.005,0.1,0.006,0.148c-1.77-0.85-3.758-1.329-5.863-1.329c-7.353,0-13.313,5.82-13.313,13.001
	c0,0.184,0.012,0.363,0.018,0.542c0.387,0.282,0.767,0.579,1.132,0.899c0.6,0.521,1.152,1.076,1.656,1.658
	c-0.239-0.232-0.483-0.463-0.74-0.687c-6.669-5.812-16.29-5.685-21.487,0.281c-5.2,5.966-4.008,15.515,2.664,21.325
	c0.475,0.414,0.969,0.795,1.472,1.149c-0.912-0.524-1.788-1.146-2.613-1.864C1001.848,133.927,1000.881,124.472,1006.143,118.435z"
	/>
<path d="M1135.973,104.659c0-8.283,6.713-14.999,14.999-14.999c3.385,0,6.503,1.132,9.013,3.025
	c-0.256-1.171-0.406-2.388-0.406-3.646c0-8.493,6.214-15.379,13.876-15.379c6.76,0,12.388,5.361,13.619,12.455
	c2.385-1.244,5.088-1.953,7.961-1.953c9.526,0,17.252,7.724,17.252,17.25c0,1.623-0.243,3.188-0.66,4.679
	c1.993-2.722,5.303-3.769,7.654-2.321c1.452,0.894,2.206,2.541,2.22,4.378c0.232-0.832,0.58-1.662,1.07-2.457
	c2.293-3.727,6.564-5.262,9.548-3.43c2.979,1.834,3.539,6.342,1.249,10.069c-0.691,1.123-1.568,2.034-2.528,2.729
	c1.9-1.013,4.175-1.065,6.031,0.075c1.249,0.77,2.104,1.951,2.518,3.299c0.646-2.426,2.712-4.016,4.731-3.584
	c1.982,0.421,3.212,2.623,2.894,5.039c2.336-4.463,6.851-7.603,12.128-8.01c-5.176-5.189-6.007-12.979-1.733-17.856
	c4.487-5.126,12.901-5.097,18.795,0.063c0.245,0.213,0.478,0.435,0.705,0.656c-0.084-0.072-0.161-0.15-0.245-0.223
	c-5.919-5.182-14.297-5.292-18.717-0.246c-4.414,5.045-3.2,13.334,2.72,18.516c1.871,1.639,3.987,2.768,6.146,3.389
	c-2.413-0.545-4.793-1.723-6.857-3.532c-0.102-0.085-0.193-0.175-0.288-0.261c-7.584,0.631-13.548,7.104-13.548,15.006
	c0,2.541,0.627,4.933,1.715,7.033c1.259-0.053,2.501,0.043,3.705,0.281c-1.927-0.227-3.938-0.111-5.941,0.405
	c-5.747,1.476-9.967,5.815-11.408,10.993c-1.849,6.004,0.055,12.488,4.676,16.523c-2.683-2.07-4.73-5.015-5.641-8.554
	c-2.161-8.425,2.916-17.008,11.338-19.17c0.95-0.244,1.902-0.394,2.845-0.457c-1.322-2.233-2.095-4.836-2.095-7.621
	c0-2.262,0.502-4.403,1.398-6.327c0.391-2.531-0.724-4.826-2.595-5.224c-1.928-0.41-3.935,1.344-4.549,3.935
	c0.276,1.575-0.018,3.303-0.953,4.825c-0.124,0.202-0.256,0.396-0.396,0.578c1.889-3.295,1.164-7.304-1.681-9.053
	c-2.577-1.585-6.023-0.777-8.204,1.743c0.65-0.953,1.493-1.694,2.426-2.207c0.729-0.656,1.395-1.445,1.953-2.358
	c2.377-3.865,2.012-8.409-0.814-10.147c-2.829-1.738-7.051-0.015-9.426,3.853c-0.412,0.669-0.736,1.358-0.981,2.05
	c-0.005,0.059,0.003,0.115-0.001,0.174c-0.154,0.486-0.279,0.971-0.352,1.45l-0.069-0.065c0.392-2.313-0.355-4.523-2.125-5.613
	c-2.496-1.534-6.067-0.264-8.005,2.837c0.023-0.07,0.051-0.14,0.072-0.209c0.053-0.101,0.109-0.197,0.167-0.298
	c0.388-1.44,0.605-2.953,0.605-4.521c0-9.526-7.611-17.249-17.002-17.249c-2.737,0-5.316,0.663-7.604,1.828
	c0.094,0.725,0.146,1.463,0.146,2.215c0,1.201-0.131,2.369-0.365,3.49c0.153-0.928,0.239-1.886,0.239-2.865
	c0-8.494-6.101-15.38-13.623-15.38c-7.523,0-13.624,6.886-13.624,15.38c0,1.191,0.129,2.346,0.354,3.46
	c-0.022-0.021-0.053-0.04-0.076-0.062c0.021,0.096,0.043,0.191,0.063,0.287c-2.514-2.075-5.687-3.315-9.134-3.315
	c-8.185,0-14.813,6.958-14.813,15.541c0,1.554,0.22,3.05,0.624,4.465C1136.327,108.37,1135.973,106.559,1135.973,104.659z"/>
<path d="M1293.285,80.942c5.953,2.219,8.723,9.523,6.193,16.314c-0.727,1.947-1.813,3.641-3.128,5.014
	c0.9-1.207,1.659-2.587,2.228-4.111c2.619-7.027,0.165-14.433-5.479-16.536c-5.643-2.103-12.343,1.89-14.964,8.919
	c-0.683,1.834-1.019,3.693-1.045,5.479c-0.263-2.183-0.014-4.517,0.836-6.795C1280.458,82.435,1287.333,78.726,1293.285,80.942z"/>
<path d="M1315.452,101.866c0,1.436-0.353,2.787-0.964,3.983c0.672-0.149,1.369-0.233,2.088-0.233c3.896,0,7.256,2.26,8.863,5.537
	c-0.161-4.686,2.774-8.717,6.892-9.22c4.385-0.536,8.445,3.14,9.065,8.21c0.108,0.904,0.103,1.789-0.009,2.639
	c0.011-0.014,0.018-0.029,0.032-0.044c3.032-3.729,8.069-4.754,11.252-2.292c2.585,2,3.134,5.688,1.624,9
	c-0.087,0.046-0.175,0.092-0.261,0.139c1.177-3.145,0.543-6.504-1.881-8.382c-3.031-2.347-7.74-1.511-10.803,1.8
	c-0.125,0.806-0.338,1.577-0.631,2.297c0.299-1.264,0.396-2.637,0.219-4.059c-0.635-5.197-4.486-9.001-8.602-8.498
	c-3.966,0.484-6.722,4.803-6.343,9.771c0.241,0.764,0.38,1.572,0.427,2.404c0.099,0.329,0.2,0.653,0.321,0.967
	c-0.107-0.195-0.208-0.404-0.304-0.61c0.004,0.073,0.011,0.144,0.011,0.216c0,1.438-0.313,2.801-0.864,4.031
	c0.208-0.861,0.333-1.764,0.333-2.697c0-5.75-4.238-10.408-9.476-10.408c-0.875,0-1.72,0.142-2.52,0.387
	c-1.577,2.302-4.223,3.813-7.222,3.813c-0.144,0-0.283-0.015-0.425-0.021c4.688-0.219,8.423-3.813,8.423-8.229
	c0-4.556-3.976-8.251-8.873-8.251c-2.097,0-4.018,0.681-5.535,1.808c1.6-1.724,3.873-2.808,6.41-2.808
	C1311.535,93.116,1315.452,97.034,1315.452,101.866z"/>
<path d="M1359.328,118.241c4.044,0,7.551,2.266,9.348,5.592c-0.225-0.994-0.349-2.027-0.349-3.092
	c0-7.801,6.323-14.125,14.124-14.125c4.582,0,8.647,2.182,11.227,5.559c-0.828-5.012,1.597-9.826,5.961-11.258
	c1.594-0.522,3.246-0.529,4.815-0.107v0.037c3.205,0.906,6.044,3.597,7.272,7.346c0.483,1.466,0.661,2.945,0.593,4.365
	c0.015-0.039,0.022-0.077,0.044-0.116c2.409-5.95,8.564-9.073,13.746-6.976c5.182,2.1,7.43,8.625,5.021,14.576
	c-0.565,1.398-1.344,2.637-2.262,3.691c1.729-0.921,3.698-1.449,5.793-1.449c6.836,0,12.378,5.539,12.378,12.374
	c0,0.606-0.045,1.2-0.132,1.783c1.755-1.649,4.112-2.661,6.712-2.661c1.985,0,3.83,0.592,5.375,1.604
	c-0.023-0.254-0.04-0.508-0.04-0.768c0-5.016,4.066-9.084,9.083-9.084c2.346,0,4.477,0.895,6.088,2.357
	c0.057-5.131,4.229-9.273,9.366-9.273c1.189,0,2.323,0.229,3.367,0.633c-0.153-0.855-0.24-1.734-0.24-2.633
	c0-8.652,7.347-15.667,16.416-15.667c2.396,0,4.682,0.493,6.735,1.378c1.743-7.439,9.082-13.045,17.347-13.045
	c9.572,0,17.332,7.462,17.332,16.667c0,1.392-0.181,2.741-0.513,4.032c3.395-3.33,7.801-3.999,10.223-1.866
	c1.904,1.675,2.067,4.849,0.727,7.856c0.402-0.226,0.865-0.357,1.363-0.357c1.262,0,2.326,0.835,2.678,1.98
	c5.254-4.347,12.531-4.306,16.396,0.16c3.427,3.957,3.035,10.07-0.613,14.599c1.284,0.628,2.355,1.622,3.076,2.849
	c0.216-1.209,0.598-2.402,1.192-3.538c3.343-6.364,11.581-8.622,18.396-5.042c5.455,2.865,8.338,8.602,7.562,14.041
	c0.469-0.39,0.99-0.736,1.576-1.019c3.249-1.567,6.953-0.625,8.265,2.103c0.228,0.467,0.366,0.957,0.428,1.455
	c1.304-1.65,3.312-2.713,5.577-2.713c3.937,0,7.124,3.189,7.124,7.125c0,0.945-0.188,1.846-0.52,2.672
	c0.173-0.633,0.271-1.296,0.271-1.984c0-4.039-3.189-7.313-7.125-7.313c-2.118,0-4.005,0.958-5.31,2.464
	c0.142,2.006-0.959,4.112-2.917,5.462c1.807,0.455,3.146,2.086,3.146,4.032c0,2.302-1.866,4.167-4.169,4.167
	c-0.537,0-1.049-0.105-1.521-0.29c0.328,0.077,0.667,0.123,1.021,0.123c2.301,0,4.166-1.754,4.166-3.917
	c0-1.958-1.53-3.575-3.524-3.865c0.031-0.021,0.063-0.047,0.097-0.07c-0.066-0.01-0.131-0.021-0.195-0.028
	c2.201-1.257,3.554-3.31,3.587-5.238c-0.006,0.009-0.016,0.017-0.02,0.022c-0.004-0.067-0.007-0.137-0.014-0.204
	c0.01-0.015,0.016-0.025,0.027-0.038c-0.019-0.528-0.135-1.046-0.369-1.53c-1.18-2.448-4.772-3.166-8.022-1.6
	c-1.505,0.724-2.669,1.812-3.374,3.012c0.091-0.287,0.164-0.583,0.236-0.879c-0.035,0.034-0.074,0.065-0.113,0.103
	c1.777-5.979-0.719-12.494-6.285-15.418c-6.356-3.337-14.297-0.729-17.74,5.826c-0.477,0.905-0.834,1.839-1.093,2.782
	c0.408,0.903,0.638,1.903,0.638,2.959c0,4.004-3.245,7.25-7.25,7.25c-1.214,0-2.354-0.301-3.357-0.827
	c1.186,0.372,2.502,0.471,3.842,0.21c3.935-0.762,6.564-4.235,5.884-7.759c-0.683-3.523-4.422-5.766-8.354-5.005
	c-1.637,0.317-3.044,1.108-4.088,2.175c1.298-1.98,3.529-3.294,6.071-3.294c0.98,0,1.908,0.196,2.762,0.548
	c3.1-4.5,3.356-10.063,0.238-13.665c-3.549-4.1-10.226-4.228-15.527-0.541c0.024,0.148,0.042,0.302,0.042,0.457
	c0,0.974-0.497,1.83-1.255,2.331c0.565-0.495,0.922-1.208,0.922-2.005c0-1.496-1.25-2.708-2.796-2.708
	c-0.76,0-1.448,0.294-1.95,0.77c0.094-0.136,0.204-0.257,0.319-0.373c-0.029,0.014-0.055,0.021-0.084,0.033
	c1.438-3.146,1.363-6.232-0.497-7.869c-2.229-1.961-6.292-1.205-9.815,1.568c-0.188,0.672-0.404,1.329-0.671,1.966
	c0.176-0.575,0.311-1.168,0.426-1.769c-0.104,0.087-0.21,0.167-0.314,0.258c0.109-0.12,0.224-0.23,0.334-0.348
	c0.187-0.995,0.292-2.02,0.292-3.069c0-9.345-7.607-16.917-16.999-16.917c-7.74,0-14.701,5.191-16.76,12.234
	c5.083,2.355,8.703,7.14,9.197,12.774c-1.628-7.825-8.145-13.677-15.937-13.677c-9.021,0-16.335,7.836-16.335,17.5
	c0,0.539,0.026,1.07,0.07,1.596c-0.091-0.33-0.175-0.663-0.246-1.001c-0.952-0.327-1.969-0.511-3.034-0.511
	c-5.085,0-9.212,4.052-9.36,9.104c0.829,0.857,1.496,1.875,1.938,3.006c-1.446-3.043-4.53-5.149-8.118-5.149
	c-4.97,0-9,4.039-9,9.021c0,0.162,0.012,0.322,0.021,0.483c2.456,1.787,4.062,4.679,4.062,7.95c0,1.15-0.207,2.249-0.569,3.275
	c0.259-0.881,0.401-1.812,0.401-2.775c0-5.432-4.403-9.834-9.835-9.834c-2.558,0-4.876,0.992-6.622,2.598
	c-0.692,3.82-3.13,7.03-6.469,8.766c1.791-1.2,3.318-2.887,4.361-4.979c3.086-6.176,0.834-13.557-5.032-16.485
	c-5.863-2.932-13.118-0.301-16.204,5.875c-0.533,1.064-0.901,2.166-1.127,3.272c0.429-3.988,2.755-7.399,6.054-9.337
	c0.764-0.987,1.421-2.105,1.919-3.35c2.461-6.071,0.409-12.631-4.577-14.649c-4.987-2.021-11.022,1.267-13.479,7.336
	c-0.011,0.022-0.017,0.045-0.024,0.065c-0.004,0.021-0.004,0.045-0.007,0.064c0-0.014-0.002-0.029-0.002-0.045
	c-0.364,0.921-0.616,1.85-0.784,2.773c0.104-1.119,0.357-2.256,0.774-3.377c-0.039-1.174-0.229-2.377-0.624-3.574
	c-1.26-3.844-4.125-6.614-7.318-7.521v-0.029c-1.485-0.399-3.045-0.401-4.538,0.088c-4.125,1.354-6.426,5.953-5.747,10.857
	c0.982,1.396,1.728,2.969,2.155,4.674c-1.823-5.688-7.155-9.809-13.448-9.809c-7.802,0-14.129,6.322-14.129,14.125
	c0,0.829,0.08,1.639,0.22,2.43c0.428,0.846,0.757,1.756,0.95,2.715c-0.2-0.68-0.475-1.326-0.791-1.942
	c0.017,0.079,0.029,0.16,0.052,0.239c-0.033-0.098-0.057-0.198-0.084-0.297c-1.849-3.504-5.499-5.895-9.718-5.895
	c-3.982,0-7.473,2.129-9.4,5.316C1351.532,120.667,1355.145,118.241,1359.328,118.241z"/>
<path d="M1884.771,122.148c0.172-7.22,6.157-12.931,13.367-12.759c6.895,0.164,12.41,5.646,12.73,12.436
	c2.352-2.404,5.555-3.967,9.126-4.181v0.638c-3.534,0.114-6.728,1.572-9.108,3.885c0.004,0.199,0.008,0.4,0.004,0.604
	c-0.018,0.57-0.072,1.13-0.156,1.68c0.015-0.21,0.025-0.42,0.029-0.633c0.187-7.598-5.373-13.893-12.408-14.059
	c-7.032-0.168-12.883,5.854-13.064,13.453c-0.037,1.604,0.188,3.147,0.616,4.59C1885.133,126.079,1884.725,124.161,1884.771,122.148
	z"/>
<path d="M763.438,139.312c-0.015,0.021-0.027,0.045-0.044,0.066c0.015-0.023,0.027-0.05,0.042-0.072
	C763.436,139.309,763.436,139.311,763.438,139.312z"/>
<path d="M666.779,143.704c1.333-4.17,5.01-6.928,8.862-6.363c0.307,0.043,0.602,0.113,0.894,0.197
	c-1.035-1.582-1.643-3.463-1.643-5.49c0-5.582,4.526-10.106,10.107-10.106c2.486,0,4.757,0.908,6.517,2.397
	c-1.6-6.629,4.081-10.938,8.845-10.938c3.699,0,6.875,2.228,8.272,5.408c0.953-4.587,5.005-8.036,9.877-8.036
	c4.493,0,8.281,2.938,9.595,6.99c0.384-1.813,1.138-3.59,2.302-5.201c4.3-5.952,12.42-7.432,18.134-3.303
	c4.055,2.931,5.808,7.894,4.95,12.654c2.172-0.736,4.493-0.742,6.62,0.174c2.446,1.057,4.186,3.133,5.063,5.664
	c1.48-2.084,3.559-3.385,5.862-3.385c2.687,0,5.061,1.771,6.541,4.492c0.653-3.907,3.48-7.057,7.284-7.62
	c3.468-0.513,6.787,1.271,8.677,4.278c-0.523-1.559-0.813-3.225-0.813-4.963c0-8.562,6.854-15.5,15.313-15.5
	c8.457,0,15.313,6.938,15.313,15.5c0,0.416-0.017,0.826-0.051,1.233c1.332-0.741,2.858-1.173,4.489-1.173
	c5.111,0,9.25,4.143,9.25,9.251c0,2.072-0.691,3.979-1.845,5.521c2.502-1.051,5.272-0.778,7.146,0.97
	c0.424,0.396,0.771,0.848,1.051,1.335c0.569-3.721,3.77-6.575,7.648-6.575c3.706,0,6.786,2.604,7.549,6.079
	c1.579-0.995,3.446-1.579,5.45-1.579c3.8,0,7.111,2.07,8.881,5.142c0-0.047-0.007-0.094-0.007-0.142c0-6.073,4.142-11,9.25-11
	c5.107,0,9.249,4.927,9.249,11c0,0.146-0.003,0.285-0.009,0.429c-0.189-6.145-4.226-11.054-9.178-11.054
	c-4.99,0-9.049,4.981-9.181,11.188c0.006,0.49,0.039,0.973,0.101,1.444c-0.021-0.05-0.045-0.097-0.066-0.146
	c0.008,0.123,0.015,0.247,0.025,0.369c-0.024-0.144-0.037-0.291-0.059-0.435c-1.641-3.721-5.168-6.299-9.26-6.299
	c-4.625,0-8.536,3.293-9.811,7.813c0.534-2.787,2.199-5.164,4.492-6.656c-0.924-3.314-3.854-5.74-7.346-5.74
	c-3.917,0-7.141,3.053-7.604,6.99c-0.017,0.148-0.03,0.299-0.041,0.451c-0.312-0.816-0.791-1.563-1.452-2.18
	c-1.89-1.761-4.69-2.021-7.207-0.938c-0.022,0.029-0.044,0.061-0.071,0.09c0.018-0.027,0.036-0.055,0.052-0.082
	c-0.036,0.018-0.073,0.031-0.114,0.048c0.121-0.153,0.246-0.304,0.354-0.462c0.015-0.006,0.029-0.011,0.044-0.018
	c0.378-0.605,0.692-1.262,0.938-1.967c1.709-4.955-0.787-10.312-5.575-11.961c-2.448-0.845-5.019-0.55-7.174,0.6
	c-0.147,1.477-0.497,2.892-1.022,4.217c0.508-1.584,0.785-3.281,0.785-5.047c0-8.717-6.701-15.782-14.967-15.782
	c-8.268,0-14.971,7.065-14.971,15.782c0,1.611,0.244,3.162,0.674,4.627c0.05,0.17,0.107,0.338,0.164,0.504
	c-1.882-3.164-5.333-5.059-8.951-4.521c-3.696,0.547-6.496,3.465-7.315,7.146c0.009,0.017,0.017,0.033,0.028,0.051
	c-0.03,0.129-0.065,0.259-0.091,0.39c-0.007-0.011-0.014-0.02-0.016-0.028c-0.08,0.442-0.138,0.894-0.159,1.353
	c-0.013-0.504,0.021-0.996,0.079-1.481c-1.509-2.628-3.845-4.318-6.474-4.318c-3.917,0-7.196,3.746-8.039,8.769
	c0.22-2.002,0.834-3.828,1.734-5.326c-0.902-2.573-2.688-4.691-5.204-5.773c-1.963-0.848-4.084-0.934-6.104-0.404
	c-0.379,1.834-1.146,3.629-2.324,5.26c-0.918,1.271-2.009,2.33-3.217,3.181c3.813,0.179,6.849,3.353,6.849,7.255
	c0,2.768-1.529,5.163-3.771,6.393c3.356,0.836,5.847,3.855,5.847,7.471c0,4.258-3.45,7.709-7.711,7.709
	c-0.711,0-1.395-0.104-2.05-0.283c0.455,0.082,0.917,0.13,1.394,0.13c4.206,0,7.615-3.327,7.615-7.435
	c0-3.512-2.5-6.449-5.855-7.227c-0.005,0.002-0.01,0.006-0.015,0.008c-0.491-0.105-1.002-0.164-1.525-0.164
	c-0.229,0-0.455,0.017-0.68,0.039c0.157-0.022,0.313-0.058,0.469-0.09c-0.001,0-0.008,0-0.011,0c-0.056,0-0.11,0.004-0.162,0.006
	c0.462-0.08,0.909-0.209,1.334-0.377c0.017,0.002,0.03,0.004,0.047,0.006c2.555-1.023,4.349-3.424,4.349-6.234
	c0-3.635-2.996-6.591-6.758-6.759c0.041-0.03,0.076-0.064,0.113-0.095c-0.113,0.072-0.229,0.147-0.345,0.219
	c1.168-0.855,2.231-1.918,3.132-3.178c4.243-5.945,3.256-14.004-2.208-18.004c-5.463-3.998-13.332-2.42-17.578,3.524
	c-1.008,1.41-1.715,2.94-2.144,4.508c0.005,0.013,0.013,0.024,0.016,0.036c-0.112,0.411-0.201,0.823-0.275,1.234
	c-0.989-4.502-4.883-7.864-9.544-7.864c-4.674,0-8.565,3.38-9.542,7.896c0.004,0.016,0.013,0.03,0.017,0.045
	c-0.055,0.28-0.096,0.565-0.121,0.855c-1.182-3.583-4.482-6.169-8.387-6.169c-4.886,0-9.913,3.781-8.595,11.164
	c-0.037-0.113-0.067-0.224-0.1-0.336c0,0.004,0,0.007,0,0.011c-1.727-1.55-3.965-2.495-6.43-2.495c-5.44,0-9.852,4.569-9.852,10.207
	c0,1.765,0.443,3.418,1.208,4.865c3.246,0.969,5.502,4.247,5.685,8.114c0.973-1.678,2.779-2.813,4.859-2.813
	c3.024,0,5.479,2.387,5.612,5.377c0.844-1.303,2.303-2.168,3.972-2.168c2.625,0,4.752,2.127,4.752,4.75
	c0,2.061-1.317,3.811-3.151,4.469c1.587-0.729,2.693-2.359,2.693-4.261c0-2.577-2.035-4.667-4.542-4.667
	c-1.804,0-3.355,1.082-4.09,2.646c0-0.021,0.007-0.042,0.007-0.064c0-0.004,0-0.01,0-0.014c-0.004,0-0.004,0.002-0.007,0.002
	c-0.027-3.08-2.476-5.57-5.496-5.57c-2.252,0-4.186,1.389-5.034,3.371c0-0.055,0.007-0.107,0.007-0.163c0-0.003,0-0.005,0-0.009
	c0.007-0.016,0.015-0.029,0.02-0.046c-0.002,0.002-0.004,0.003-0.004,0.005c-0.117-4.4-2.749-8.076-6.47-8.619
	c-3.595-0.525-7.05,2.053-8.516,6.01C666.871,143.845,666.828,143.772,666.779,143.704z"/>
<path d="M889.648,133.684c0.007,0.071,0.014,0.143,0.021,0.215c-0.167-0.629-0.283-1.284-0.337-1.963
	c-0.41-5.231,2.942-9.761,7.484-10.117c4.08-0.322,7.721,2.836,8.725,7.271c1.3-3.115,3.787-5.732,7.155-7.115
	c4.114-1.689,8.59-1.145,12.084,1.07c0.007,0.204,0.017,0.409,0.036,0.612c-3.465-2.101-7.84-2.588-11.871-0.933
	c-6.325,2.597-9.553,9.546-7.643,15.97c-1.056-2.903-1.024-5.955-0.106-8.695c-1.198-4.684-4.636-7.975-8.412-7.677
	C892.376,122.665,889.184,127.753,889.648,133.684z"/>
<path d="M46.144,118.435c4.939-5.67,13.616-6.312,20.001-1.711c-0.041-0.406-0.066-0.816-0.066-1.232c0-7.18,5.82-13,12.999-13
	c2.186,0,4.24,0.545,6.048,1.496c-0.003-0.066-0.007-0.135-0.007-0.204c0-9.526,7.723-17.249,17.25-17.249
	c8.992,0,16.374,6.883,17.171,15.665c0.594-1.483,1.415-2.926,2.5-4.253c4.986-6.092,13.312-7.52,18.601-3.189
	c4.047,3.312,5.129,9.028,3.189,14.263c1.715-0.947,3.687-1.486,5.787-1.486c3.772,0,7.134,1.742,9.335,4.463
	c1.567-4.875,5.514-8.338,10.147-8.338c2.628,0,5.037,1.121,6.914,2.979c0.033,0.219,0.073,0.433,0.117,0.647
	c-1.879-1.8-4.264-2.877-6.86-2.877c-4.522,0-8.396,3.263-10.063,7.914c1.512,2.008,2.41,4.504,2.41,7.21
	c0,1.301-0.209,2.551-0.592,3.723c0.223-0.918,0.34-1.879,0.34-2.867c0-6.686-5.37-12.104-11.997-12.104
	c-5.27,0-9.744,3.427-11.355,8.192c0.841-3.202,2.973-5.883,5.806-7.448c-0.048,0.026-0.094,0.055-0.142,0.082
	c1.729-5.142,0.674-10.567-3.155-13.703c-5.223-4.272-13.606-2.664-18.728,3.595c-0.91,1.111-1.646,2.297-2.225,3.517
	c0.03,0.419,0.049,0.841,0.049,1.267c0,1.965-0.333,3.85-0.936,5.608c0.34-1.407,0.525-2.882,0.525-4.401
	c0-9.802-7.574-17.748-16.919-17.748c-9.162,0-16.619,7.643-16.904,17.184c-0.001-0.002-0.004-0.002-0.005-0.004
	c0.001,0.049,0.001,0.1,0.004,0.148c-1.771-0.85-3.76-1.329-5.866-1.329c-7.35,0-13.312,5.82-13.312,13.001
	c0,0.184,0.013,0.363,0.021,0.542c0.385,0.282,0.764,0.579,1.132,0.899c0.596,0.521,1.149,1.076,1.654,1.658
	c-0.241-0.232-0.485-0.463-0.74-0.687c-6.669-5.812-16.292-5.685-21.49,0.281c-5.198,5.966-4.005,15.515,2.663,21.325
	c0.478,0.414,0.971,0.795,1.474,1.149c-0.911-0.524-1.786-1.146-2.613-1.864C41.849,133.927,40.883,124.472,46.144,118.435z"/>
<path d="M175.974,104.659c0-8.283,6.714-14.999,15-14.999c3.386,0,6.504,1.132,9.011,3.025c-0.257-1.171-0.407-2.388-0.407-3.646
	c0-8.493,6.214-15.379,13.874-15.379c6.762,0,12.39,5.361,13.625,12.455c2.381-1.244,5.087-1.953,7.96-1.953
	c9.528,0,17.25,7.724,17.25,17.25c0,1.623-0.241,3.188-0.66,4.679c1.993-2.722,5.303-3.769,7.655-2.321
	c1.45,0.894,2.204,2.541,2.219,4.378c0.229-0.832,0.58-1.662,1.07-2.457c2.292-3.727,6.564-5.262,9.548-3.43
	c2.982,1.834,3.541,6.342,1.249,10.069c-0.691,1.123-1.565,2.034-2.526,2.729c1.899-1.013,4.172-1.065,6.031,0.075
	c1.25,0.77,2.103,1.951,2.517,3.299c0.646-2.426,2.709-4.016,4.734-3.584c1.98,0.421,3.212,2.623,2.892,5.039
	c2.336-4.463,6.848-7.603,12.127-8.01c-5.174-5.189-6.006-12.979-1.734-17.856c4.485-5.126,12.901-5.097,18.795,0.063
	c0.244,0.213,0.477,0.435,0.704,0.656c-0.084-0.072-0.162-0.15-0.247-0.223c-5.92-5.182-14.295-5.292-18.715-0.246
	c-4.417,5.045-3.198,13.334,2.722,18.516c1.867,1.639,3.987,2.768,6.143,3.389c-2.41-0.545-4.787-1.723-6.857-3.532
	c-0.097-0.085-0.189-0.175-0.282-0.261c-7.586,0.631-13.553,7.104-13.553,15.006c0,2.541,0.63,4.933,1.719,7.033
	c1.257-0.053,2.498,0.043,3.702,0.281c-1.926-0.227-3.938-0.111-5.942,0.405c-5.746,1.476-9.966,5.815-11.406,10.993
	c-1.85,6.004,0.051,12.488,4.676,16.523c-2.688-2.07-4.732-5.015-5.64-8.554c-2.162-8.425,2.913-17.008,11.334-19.17
	c0.951-0.244,1.902-0.394,2.844-0.457c-1.322-2.233-2.093-4.836-2.093-7.621c0-2.262,0.502-4.403,1.398-6.327
	c0.392-2.531-0.722-4.826-2.594-5.224c-1.925-0.41-3.932,1.344-4.549,3.935c0.276,1.575-0.015,3.303-0.953,4.825
	c-0.125,0.202-0.256,0.396-0.396,0.578c1.884-3.295,1.164-7.304-1.683-9.053c-2.578-1.585-6.024-0.777-8.204,1.743
	c0.651-0.953,1.493-1.694,2.423-2.207c0.727-0.656,1.394-1.445,1.956-2.358c2.376-3.865,2.009-8.409-0.817-10.147
	c-2.827-1.738-7.047-0.015-9.424,3.853c-0.411,0.669-0.736,1.358-0.982,2.05c-0.005,0.059,0.001,0.115-0.002,0.174
	c-0.153,0.486-0.278,0.971-0.352,1.45l-0.065-0.065c0.388-2.313-0.357-4.523-2.131-5.613c-2.494-1.534-6.064-0.264-8,2.837
	c0.023-0.07,0.048-0.14,0.074-0.209c0.048-0.101,0.108-0.197,0.164-0.298c0.386-1.44,0.605-2.953,0.605-4.521
	c0-9.526-7.612-17.249-17.001-17.249c-2.735,0-5.315,0.663-7.604,1.828c0.094,0.725,0.146,1.463,0.146,2.215
	c0,1.201-0.13,2.369-0.363,3.49c0.154-0.928,0.238-1.886,0.238-2.865c0-8.494-6.1-15.38-13.624-15.38
	c-7.523,0-13.625,6.886-13.625,15.38c0,1.191,0.129,2.346,0.357,3.46c-0.024-0.021-0.054-0.04-0.077-0.062
	c0.022,0.096,0.042,0.191,0.063,0.287c-2.517-2.075-5.688-3.315-9.137-3.315c-8.18,0-14.812,6.958-14.812,15.541
	c0,1.554,0.219,3.05,0.623,4.465C176.328,108.37,175.974,106.559,175.974,104.659z"/>
<path d="M333.29,80.942c5.95,2.219,8.722,9.523,6.192,16.314c-0.728,1.947-1.812,3.641-3.125,5.014
	c0.898-1.207,1.658-2.587,2.224-4.111c2.621-7.027,0.168-14.433-5.476-16.536c-5.645-2.103-12.345,1.89-14.965,8.919
	c-0.685,1.834-1.018,3.693-1.044,5.479c-0.264-2.183-0.014-4.517,0.833-6.795C320.461,82.435,327.335,78.726,333.29,80.942z"/>
<path d="M355.453,101.866c0,1.436-0.353,2.787-0.962,3.983c0.672-0.149,1.369-0.233,2.09-0.233c3.896,0,7.252,2.26,8.858,5.537
	c-0.161-4.686,2.777-8.717,6.895-9.22c4.383-0.536,8.442,3.14,9.065,8.21c0.107,0.904,0.101,1.789-0.013,2.639
	c0.013-0.014,0.021-0.029,0.032-0.044c3.035-3.729,8.076-4.754,11.254-2.292c2.586,2,3.134,5.688,1.625,9
	c-0.086,0.046-0.172,0.092-0.26,0.139c1.177-3.145,0.542-6.504-1.883-8.382c-3.032-2.347-7.739-1.511-10.802,1.8
	c-0.123,0.806-0.334,1.577-0.631,2.297c0.302-1.264,0.394-2.637,0.221-4.059c-0.637-5.197-4.486-9.001-8.602-8.498
	c-3.968,0.484-6.723,4.803-6.345,9.771c0.239,0.764,0.381,1.572,0.431,2.404c0.094,0.329,0.199,0.653,0.319,0.967
	c-0.109-0.195-0.206-0.404-0.306-0.61c0.005,0.073,0.015,0.144,0.015,0.216c0,1.438-0.315,2.801-0.867,4.031
	c0.208-0.861,0.334-1.764,0.334-2.697c0-5.75-4.242-10.408-9.477-10.408c-0.873,0-1.715,0.142-2.521,0.387
	c-1.574,2.302-4.222,3.813-7.223,3.813c-0.141,0-0.279-0.015-0.421-0.021c4.691-0.219,8.422-3.813,8.422-8.229
	c0-4.556-3.976-8.251-8.875-8.251c-2.095,0-4.017,0.681-5.536,1.808c1.602-1.724,3.876-2.808,6.409-2.808
	C351.539,93.116,355.453,97.034,355.453,101.866z"/>
<path d="M399.329,118.241c4.045,0,7.554,2.266,9.35,5.592c-0.221-0.994-0.348-2.027-0.348-3.092c0-7.801,6.321-14.125,14.123-14.125
	c4.581,0,8.646,2.182,11.228,5.559c-0.83-5.012,1.593-9.826,5.96-11.258c1.594-0.522,3.244-0.529,4.815-0.107v0.037
	c3.206,0.906,6.046,3.597,7.276,7.346c0.481,1.466,0.659,2.945,0.588,4.365c0.015-0.039,0.025-0.077,0.041-0.116
	c2.409-5.95,8.566-9.073,13.749-6.976c5.183,2.1,7.433,8.625,5.021,14.576c-0.563,1.398-1.343,2.637-2.261,3.691
	c1.729-0.921,3.7-1.449,5.794-1.449c6.834,0,12.375,5.539,12.375,12.374c0,0.606-0.044,1.2-0.13,1.783
	c1.758-1.649,4.114-2.661,6.713-2.661c1.986,0,3.828,0.592,5.375,1.604c-0.022-0.254-0.04-0.508-0.04-0.768
	c0-5.016,4.063-9.084,9.082-9.084c2.344,0,4.476,0.895,6.086,2.357c0.058-5.131,4.229-9.273,9.372-9.273
	c1.188,0,2.322,0.229,3.369,0.633c-0.154-0.855-0.245-1.734-0.245-2.633c0-8.652,7.352-15.667,16.417-15.667
	c2.401,0,4.681,0.493,6.735,1.378c1.747-7.439,9.086-13.045,17.346-13.045c9.57,0,17.335,7.462,17.335,16.667
	c0,1.392-0.182,2.741-0.515,4.032c3.393-3.33,7.8-3.999,10.224-1.866c1.903,1.675,2.07,4.849,0.729,7.856
	c0.403-0.226,0.864-0.357,1.362-0.357c1.261,0,2.325,0.835,2.675,1.98c5.254-4.347,12.531-4.306,16.396,0.16
	c3.425,3.957,3.037,10.07-0.612,14.599c1.284,0.628,2.355,1.622,3.075,2.849c0.215-1.209,0.597-2.402,1.195-3.538
	c3.341-6.364,11.58-8.622,18.396-5.042c5.458,2.865,8.338,8.602,7.563,14.041c0.467-0.39,0.989-0.736,1.573-1.019
	c3.252-1.567,6.956-0.625,8.269,2.103c0.223,0.467,0.365,0.957,0.425,1.455c1.305-1.65,3.313-2.713,5.578-2.713
	c3.937,0,7.125,3.189,7.125,7.125c0,0.945-0.188,1.846-0.523,2.672c0.177-0.633,0.274-1.296,0.274-1.984
	c0-4.039-3.191-7.313-7.125-7.313c-2.117,0-4.007,0.958-5.31,2.464c0.141,2.006-0.959,4.112-2.919,5.462
	c1.806,0.455,3.145,2.086,3.145,4.032c0,2.302-1.863,4.167-4.167,4.167c-0.537,0-1.048-0.105-1.52-0.29
	c0.326,0.077,0.668,0.123,1.021,0.123c2.303,0,4.167-1.754,4.167-3.917c0-1.958-1.532-3.575-3.526-3.865
	c0.03-0.021,0.063-0.047,0.095-0.07c-0.065-0.01-0.131-0.021-0.197-0.028c2.205-1.257,3.559-3.31,3.589-5.238
	c-0.008,0.009-0.015,0.017-0.021,0.022c-0.004-0.067-0.004-0.137-0.011-0.204c0.008-0.015,0.017-0.025,0.026-0.038
	c-0.02-0.528-0.135-1.046-0.368-1.53c-1.18-2.448-4.772-3.166-8.025-1.6c-1.503,0.724-2.668,1.812-3.373,3.012
	c0.091-0.287,0.164-0.583,0.236-0.879c-0.037,0.034-0.077,0.065-0.113,0.103c1.778-5.979-0.722-12.494-6.288-15.418
	c-6.353-3.337-14.297-0.729-17.738,5.826c-0.476,0.905-0.832,1.839-1.087,2.782c0.403,0.903,0.633,1.903,0.633,2.959
	c0,4.004-3.242,7.25-7.249,7.25c-1.213,0-2.353-0.301-3.357-0.827c1.184,0.372,2.501,0.471,3.844,0.21
	c3.93-0.762,6.564-4.235,5.88-7.759c-0.68-3.523-4.421-5.766-8.351-5.005c-1.638,0.317-3.043,1.108-4.087,2.175
	c1.294-1.98,3.529-3.294,6.071-3.294c0.977,0,1.906,0.196,2.758,0.548c3.104-4.5,3.36-10.063,0.239-13.665
	c-3.549-4.1-10.227-4.228-15.526-0.541c0.026,0.148,0.041,0.302,0.041,0.457c0,0.974-0.499,1.83-1.253,2.331
	c0.563-0.495,0.921-1.208,0.921-2.005c0-1.496-1.252-2.708-2.798-2.708c-0.762,0-1.448,0.294-1.95,0.77
	c0.095-0.136,0.206-0.257,0.321-0.373c-0.027,0.014-0.055,0.021-0.085,0.033c1.44-3.146,1.363-6.232-0.497-7.869
	c-2.228-1.961-6.297-1.205-9.82,1.568c-0.184,0.672-0.402,1.329-0.669,1.966c0.178-0.575,0.313-1.168,0.428-1.769
	c-0.104,0.087-0.213,0.167-0.315,0.258c0.109-0.12,0.22-0.23,0.333-0.348c0.183-0.995,0.291-2.02,0.291-3.069
	c0-9.345-7.611-16.917-16.999-16.917c-7.739,0-14.701,5.191-16.761,12.234c5.085,2.355,8.705,7.14,9.2,12.774
	c-1.631-7.825-8.146-13.677-15.938-13.677c-9.019,0-16.334,7.836-16.334,17.5c0,0.539,0.027,1.07,0.072,1.596
	c-0.094-0.33-0.175-0.663-0.249-1.001c-0.95-0.327-1.968-0.511-3.031-0.511c-5.086,0-9.216,4.052-9.36,9.104
	c0.826,0.857,1.494,1.875,1.937,3.006c-1.448-3.043-4.532-5.149-8.119-5.149c-4.969,0-9,4.039-9,9.021
	c0,0.162,0.015,0.322,0.022,0.483c2.457,1.787,4.062,4.679,4.062,7.95c0,1.15-0.208,2.249-0.57,3.275
	c0.257-0.881,0.401-1.812,0.401-2.775c0-5.432-4.402-9.834-9.833-9.834c-2.559,0-4.876,0.992-6.623,2.598
	c-0.693,3.82-3.135,7.03-6.471,8.766c1.792-1.2,3.318-2.887,4.364-4.979c3.087-6.176,0.832-13.557-5.033-16.485
	c-5.866-2.932-13.12-0.301-16.205,5.875c-0.532,1.064-0.901,2.166-1.127,3.272c0.428-3.988,2.756-7.399,6.052-9.337
	c0.762-0.987,1.419-2.105,1.92-3.35c2.459-6.071,0.41-12.631-4.578-14.649c-4.989-2.021-11.021,1.267-13.48,7.336
	c-0.009,0.022-0.017,0.045-0.025,0.065c-0.004,0.021-0.004,0.045-0.005,0.064c0-0.014-0.003-0.029-0.003-0.045
	c-0.365,0.921-0.62,1.85-0.785,2.773c0.104-1.119,0.359-2.256,0.775-3.377c-0.039-1.174-0.232-2.377-0.625-3.574
	c-1.262-3.844-4.125-6.614-7.316-7.521v-0.029c-1.492-0.399-3.044-0.401-4.542,0.088c-4.125,1.354-6.425,5.953-5.746,10.857
	c0.982,1.396,1.728,2.969,2.153,4.674c-1.822-5.688-7.155-9.809-13.448-9.809c-7.802,0-14.125,6.322-14.125,14.125
	c0,0.829,0.075,1.639,0.213,2.43c0.432,0.846,0.759,1.756,0.953,2.715c-0.204-0.68-0.472-1.326-0.793-1.942
	c0.02,0.079,0.032,0.16,0.051,0.239c-0.029-0.098-0.051-0.198-0.083-0.297c-1.845-3.504-5.497-5.895-9.714-5.895
	c-3.982,0-7.47,2.129-9.4,5.316C391.537,120.667,395.145,118.241,399.329,118.241z"/>
<path d="M1.009,117.617c7.7,0,13.946,6.243,13.946,13.947c0,1.841-0.366,3.595-1.018,5.202c4.485-2.877,10.181-2.137,12.895,1.766
	c2.016,2.898,1.82,6.737-0.158,9.833c3.025-2.651,6.793-2.077,8.965-0.153c-0.007-0.156-0.017-0.312-0.017-0.47
	c0-5.729,4.646-10.376,10.375-10.376c0.033,0,0.066,0.004,0.099,0.004c0.179,0.227,0.365,0.447,0.561,0.664
	c-5.728,0.004-10.369,4.646-10.369,10.375c0,0.171,0.013,0.338,0.023,0.507c0.081,0.104,0.163,0.206,0.237,0.313
	c2.022,2.906,1.155,7.007-1.931,9.152c-0.925,0.644-1.943,1.033-2.972,1.193c0.643-0.232,1.271-0.556,1.87-0.971
	c3.209-2.23,4.253-6.273,2.34-9.027c-1.916-2.755-5.856-3.209-10.076-0.307c0.226-0.264,0.458-0.506,0.694-0.728
	c-0.216,0.125-0.427,0.255-0.636,0.396c2.349-3.207,2.765-7.255,0.706-10.214c-2.595-3.735-8.185-4.368-12.763-1.584
	c-0.07,0.164-0.139,0.326-0.219,0.486c-0.114,0.078-0.213,0.166-0.323,0.248c0.763-1.729,1.199-3.642,1.199-5.66
	c0-7.701-6.186-13.947-13.818-13.947c-0.205,0-0.41,0.008-0.617,0.018v-0.63C0.333,117.634,0.669,117.617,1.009,117.617z"/>
<path d="M924.773,122.148c0.174-7.22,6.155-12.931,13.369-12.759c6.894,0.164,12.407,5.646,12.729,12.436
	c2.348-2.404,6.875-4.213,10.135-4.209c7.698,0.008,13.944,6.244,13.944,13.947c0,1.842-0.366,3.596-1.016,5.203
	c4.48-2.879,10.179-2.137,12.893,1.765c2.019,2.899,1.818,6.737-0.16,9.833c3.025-2.652,6.793-2.077,8.967-0.152
	c-0.01-0.156-0.016-0.313-0.016-0.471c0-5.729,4.646-10.375,10.376-10.375c0.032,0,0.063,0.003,0.098,0.003
	c0.181,0.226,0.367,0.447,0.561,0.664c-5.726,0.004-10.365,4.647-10.365,10.374c0,0.172,0.013,0.339,0.021,0.508
	c0.08,0.103,0.161,0.205,0.235,0.313c2.022,2.906,1.158,7.006-1.926,9.152c-0.926,0.644-1.947,1.032-2.974,1.193
	c0.642-0.232,1.271-0.556,1.866-0.97c3.207-2.231,4.257-6.274,2.339-9.028c-1.916-2.756-5.855-3.21-10.072-0.307
	c0.226-0.264,0.458-0.506,0.692-0.727c-0.215,0.125-0.428,0.254-0.637,0.396c2.353-3.207,2.765-7.254,0.707-10.214
	c-2.597-3.735-8.185-4.368-12.764-1.584c-0.073,0.162-0.143,0.326-0.222,0.486c-0.111,0.078-0.215,0.166-0.32,0.248
	c0.76-1.729,1.196-3.641,1.196-5.658c0-7.703-6.188-14.082-13.817-13.947c-2.91,0.052-7.344,1.585-9.726,3.896
	c0.003,0.2,0.003,0.402,0.003,0.604c-0.017,0.57-0.068,1.13-0.153,1.68c0.012-0.21,0.025-0.419,0.03-0.632
	c0.182-7.599-5.377-13.892-12.409-14.06s-12.884,5.855-13.063,13.455c-0.04,1.603,0.182,3.146,0.611,4.588
	C925.137,126.079,924.725,124.161,924.773,122.148z"/>
<circle fill="#EFDAE6" stroke="#000000" stroke-miterlimit="10" cx="1453.431" cy="83.016" r="10.5"/>
<path d="M1448.194,77.8c-0.042-1.416,1.998-2.875,3.374-2.957c0,0,0.542,0.291,0.792,0.5
	C1450.108,75.718,1448.984,76.675,1448.194,77.8z"/>
<path d="M1447.526,85.884c-0.938-0.762-1.372-3.332-1.124-4.625c0,0,0.41,0.47,0.916,0.5
	C1446.944,82.716,1446.944,84.009,1447.526,85.884z"/>
<circle fill="#EFDAE6" stroke="#000000" stroke-miterlimit="10" cx="1703.651" cy="62.278" r="9.375"/>
<path d="M1698.979,57.622c-0.038-1.264,1.784-2.566,3.014-2.641c0,0,0.482,0.26,0.707,0.445
	C1700.688,55.763,1699.688,56.618,1698.979,57.622z"/>
<path d="M1698.383,64.841c-0.837-0.681-1.229-2.977-1.007-4.129c0,0,0.367,0.416,0.82,0.445
	C1697.861,62.013,1697.861,63.167,1698.383,64.841z"/>
<circle fill="#EFDAE6" stroke="#000000" stroke-miterlimit="10" cx="772.82" cy="91.866" r="11.875"/>
<path d="M766.898,85.97c-0.045-1.604,2.263-3.252,3.818-3.348c0,0,0.613,0.33,0.896,0.566
	C769.066,83.613,767.795,84.696,766.898,85.97z"/>
<path d="M766.146,95.11c-1.063-0.861-1.557-3.77-1.274-5.23c0,0,0.464,0.529,1.037,0.565
	C765.485,91.529,765.485,92.99,766.146,95.11z"/>
<circle fill="#EFDAE6" stroke="#000000" stroke-miterlimit="10" cx="906.307" cy="76.868" r="10.375"/>
<path d="M908.998,70.077c1.271-0.587,3.389,0.697,4.002,1.914c0,0-0.054,0.604-0.146,0.912
	C911.638,71.009,910.329,70.359,908.998,70.077z"/>
<path d="M901.4,72.628c0.324-1.147,2.488-2.55,3.761-2.824c0,0-0.265,0.556-0.099,1.026C904.047,70.862,902.874,71.366,901.4,72.628
	z"/>
<circle fill="#EFDAE6" stroke="#000000" stroke-miterlimit="10" cx="369.266" cy="40.804" r="13.125"/>
<path d="M378.22,38.532c1.546,0.864,1.804,3.988,1.011,5.518c0,0-0.66,0.395-1.047,0.529
	C379.226,41.923,378.919,40.102,378.22,38.532z"/>
<path d="M369.977,32.63c1.418-0.518,4.457,0.664,5.684,1.762c0,0-0.768,0.14-1.125,0.66
	C373.748,34.037,372.362,33.208,369.977,32.63z"/>
</svg>
