<?xml version="1.0" encoding="utf-8"?>
<!DOCTYPE svg PUBLIC "-//W3C//DTD SVG 1.1//EN" "http://www.w3.org/Graphics/SVG/1.1/DTD/svg11.dtd">
<svg version="1.1" id="horloge" xmlns="http://www.w3.org/2000/svg" xmlns:xlink="http://www.w3.org/1999/xlink" x="0px" y="0px"
	 width="650px" height="650px" viewBox="0 187 650 650" enable-background="new 0 187 650 650" xml:space="preserve">
<path opacity="0.1" fill="none" stroke="#000000" stroke-width="3" stroke-linecap="round" stroke-linejoin="round" d="
	M188.229,758.633c0.057,0.098,7.083-4.258,7.154-4.13c0.12,0.206-5.688,7.063-5.596,7.223c0.213,0.371,16.715-10.098,16.911-9.762
	c0.24,0.417-16.157,12.51-15.863,13.02c0.296,0.512,23.981-14.809,24.396-14.087c0.405,0.701-25.958,17.626-25.512,18.399
	c0.438,0.757,36.056-21.869,36.512-21.08c0.54,0.935-31.299,20.606-30.752,21.556c0.634,1.098,37.322-22.783,37.859-21.857
	c0.492,0.854-40.158,25.625-39.612,26.571c0.729,1.264,42.817-26.051,43.394-25.054c0.653,1.132-44.667,28.04-44.042,29.122
	c0.565,0.978,45.166-27.629,45.838-26.464c0.523,0.905-43.49,27.652-42.872,28.723c0.608,1.054,40.606-25.136,41.338-23.866
	c0.554,0.96-38.132,24.104-37.511,25.182c0.468,0.811,41.569-25.563,42.248-24.391c0.591,1.023-39.861,25.549-39.381,26.381
	c0.538,0.93,38.946-23.527,39.396-22.746c0.483,0.838-30.282,20.273-29.883,20.965c0.427,0.741,29.595-18.116,30.042-17.344
	c0.354,0.614-29.52,19.488-29.065,20.275c0.415,0.721,24.707-15.417,25.205-14.552c0.416,0.722-28.442,18.897-27.938,19.769
	c0.424,0.733,24.716-15.184,25.112-14.499c0.4,0.691-21.66,15.629-21.318,16.221c0.263,0.458,12.457-7.688,12.671-7.318
	c0.289,0.503-15.696,12.349-15.434,12.803c0.244,0.421,15.466-9.493,15.712-9.071c0.201,0.353-13.795,11.483-13.614,11.798
	c0.247,0.427,16.706-10.104,16.905-9.761c0.292,0.508-18.529,13.536-18.214,14.078c0.266,0.461,16.82-10.219,17.041-9.839
	c0.167,0.288-11.988,9.857-11.779,10.219c0.274,0.476,14.711-9.05,14.953-8.634c0.35,0.606-19.112,13.95-18.815,14.465
	c0.233,0.401,19.025-11.546,19.269-11.124c0.256,0.442-16.375,12.186-16.113,12.639c0.206,0.354,16.257-9.849,16.457-9.502
	c0.292,0.504-18.762,13.788-18.489,14.262c0.211,0.363,17.446-10.559,17.657-10.195c0.236,0.411-16.835,12.756-16.614,13.14
	c0.209,0.364,17.372-10.537,17.591-10.157c0.256,0.449-15.387,12.096-15.165,12.483c0.193,0.337,14.847-9.033,15.048-8.688
	c0.211,0.364-16.118,12.554-15.887,12.951c0.223,0.384,14.889-9.083,15.099-8.718c0.16,0.278-11.388,9.571-11.185,9.925
	c0.207,0.358,10.793-6.758,11.022-6.362c0.204,0.354-11.76,9.748-11.545,10.121c0.182,0.314,16.414-9.987,16.635-9.604
	c0.281,0.486-14.985,11.859-14.782,12.211c0.231,0.399,10.451-6.439,10.627-6.136c0.215,0.374-11.102,9.451-10.899,9.8
	c0.188,0.329,14.217-8.646,14.407-8.317c0.096,0.164-4.475,6.365-4.38,6.528c0.093,0.16,2.772-1.833,2.873-1.656
	c0.04,0.069,2.919,1.79,2.968,1.873c0.022,0.04,1.587-0.955,1.604-0.927"/>
<path opacity="0.2" enable-background="new    " d="M239.224,752.885c0.211,6.893-10.904,12.784-25.159,13.157
	c-14.257,0.372-24.984-4.912-25.196-11.807c-0.211-6.892,11.177-12.782,25.434-13.155
	C228.56,740.705,239.013,745.995,239.224,752.885z"/>
<g id="horloge_-_poteau">
	<path fill="#B3C4C2" d="M211.388,428.873c9.565,0,20.74,1.791,28.607-4.152c6.302-4.759,8.863-14.285,13.699-20.184
		c10.536-12.854,33.461-15.215,46.374-5.094c7.758,6.082,9.569,19.742-1.572,23.543c-2.948,1.006-13.995,0.107-16.285-1.507
		c-4.483-3.162-4.468-11.613,2.99-11.142c-0.493,4.688-0.209,8.297,5.442,8.533c4.84,0.202,7.078,0.02,8.197-2.889
		c3.162-8.21-4.508-13.639-11.004-15.726c-17.788-5.714-28.137,6.574-37.071,19.616c-4.463,6.516-7.437,12.53-15.845,14.257
		c-5.555,1.141-21.973,2.012-24.603-3.104L211.388,428.873z"/>
	<path fill="#859E9A" d="M223.75,433.442c3.225,0,15.589-2.418,20.157-7.525c4.569-5.106,23.919-41.657,49.452-22.844
		c-9.139-3.763-24.726-14.782-46.764,22.844c-6.969,11.899-23.651,9.408-23.651,9.408L223.75,433.442z"/>
	<path fill="#CAD8D6" d="M223.75,431.024c0,0,12.793,1.705,18.813-5.913c13.17-16.663,18.003-30.166,37.628-29.833
		c15.856,0.269,20.963,6.72,22.845,8.601c-0.539-7.256-15.326-11.078-23.115-10.75c-25.531,1.076-28.488,19.619-37.894,29.833
		c-4.607,5.002-18.813,5.912-18.813,5.912L223.75,431.024z"/>
	<path fill="#CAD8D6" d="M282.609,410.867c-0.27,2.418-1.076,12.9,14.513,8.6c-7.525-0.269-13.034-0.077-12.296-8.907
		C284.49,410.598,282.609,410.867,282.609,410.867z"/>
	<path d="M301.14,398.073c-12.912-10.511-37.449-8.059-47.984,5.291c-4.836,6.126-7.397,15.479-13.7,20.423
		c-7.866,6.17-19.042,4.312-28.606,4.312l-1.612,3.308c2.632,5.313,20.125,4.947,25.679,3.762
		c8.407-1.793,12.931-8.616,17.457-15.343c8.197-12.185,17.673-24.695,35.46-18.759c6.498,2.167,12.782,6.575,10.514,14.021
		c-1.458,4.778-3.136,3.178-7.1,3.513c-5.659,0.479-5.839-4.651-5.345-9.52c-8.937-0.901-9.79,10.205-5.306,13.49
		c2.291,1.676,15.49,2.609,18.436,1.564C310.172,420.189,308.898,404.39,301.14,398.073z M298.493,422.986
		c-2.947,1.007-13.994,0.108-16.284-1.507c-4.483-3.162-3.937-11.511,2.617-10.919c-0.494,4.688,0.575,8.609,6.286,8.511
		c3.965-0.066,6.652,0.672,8.309-3.245c3.429-8.102-5.09-13.484-11.587-15.572c-17.787-5.714-28.138,6.574-37.072,19.617
		c-4.463,6.516-7.437,12.53-15.844,14.256c-5.556,1.141-21.973,2.013-24.605-3.103l1.074-2.151c9.566,0,20.741,1.791,28.608-4.152
		c6.302-4.759,8.863-14.284,13.697-20.183c10.538-12.855,33.462-15.216,46.374-5.095
		C307.822,405.524,309.634,419.186,298.493,422.986z"/>
	<path fill="#B3C4C2" d="M190.693,756.492c-1.881-7.795,0-38.97,0-48.377c0-9.408,15.052-19.889,15.052-19.889
		s-6.181-181.95,6.987-310.417c5.645-2.688,12.632-2.15,17.738,0c-17.47,114.49-5.913,310.417-5.913,310.417
		s13.437,11.02,13.437,19.889c0,8.867,1.882,41.656,0,48.377C236.114,763.211,192.574,764.285,190.693,756.492z"/>
	<path fill="#CAD8D6" d="M227.245,377.81c0,0-6.182-2.688-11.827,0c-13.168,128.467-6.987,312.567-6.987,312.567
		c-2.24,1.522-13.976,10.802-13.976,17.738c0,9.406-0.806,39.238,1.076,47.031c0.668,2.769,7.8,1.85,7.256,0.807
		c-3.709-7.108-5.106-50.258,8.87-63.966c0.538-2.685-6.719-183.561,6.45-312.027c5.644-2.689,5.912,0,5.912,0L227.245,377.81z"/>
	<path fill="#859E9A" d="M212.194,758.104c-3.32-7.299,0-40.582,0-49.989c0-9.405,5.374-19.35,5.374-19.35
		s-9.138-181.056,4.031-309.523c2.15-1.075,4.839-1.792,8.871-1.433c-17.47,114.491-6.453,310.417-6.453,310.417
		s13.439,11.02,13.439,19.889s1.344,38.97-0.537,45.687C235.039,760.523,214.433,763.03,212.194,758.104z"/>
	<path d="M237.994,708.115c0-8.869-13.437-19.889-13.437-19.889S213,492.302,230.47,377.811c-5.107-2.15-12.094-2.688-17.739,0
		c-13.167,128.467-6.987,310.416-6.987,310.416s-15.051,10.483-15.051,19.889c0,9.406-1.881,40.582,0,48.378
		c1.881,7.792,45.42,6.718,47.301,0C239.875,749.772,237.994,716.984,237.994,708.115z M235.844,754.88
		c-1.881,6.718-41.657,7.794-43.538,0c-1.882-7.794,0-37.358,0-46.765c0-9.405,14.513-18.276,14.513-18.276
		s-6.182-182.488,6.989-310.953c5.643-2.688,9.405-2.688,14.511-0.539c-17.469,114.491-5.374,310.419-5.374,310.419
		s12.9,10.48,12.9,19.351C235.844,716.984,237.725,748.16,235.844,754.88z"/>
	<path fill="#B3C4C2" d="M209.776,413.285c3.089,2.957,11.288,3.359,17.2,0.538c-0.404,3.091-2.553,23.114-2.823,30.102
		c-2.821,1.344-12.093,2.957-16.797,0.539C207.357,439.356,209.103,421.752,209.776,413.285z"/>
	<path d="M209.211,413.285c-0.702,8.467-2.528,26.071-2.528,31.177c5.063,3.762,14.379,2.687,17.546-0.539
		c0.281-6.987,2.527-27.01,2.948-30.102C221.001,416.644,212.44,416.243,209.211,413.285z M223.268,443.199
		c-3.64,2.517-10.626,3.95-15.462,0.512c0-4.873,1.164-21.136,1.828-29.216c3.051,2.821,10.582,3.206,16.42,0.513
		C225.656,417.958,223.534,436.529,223.268,443.199z"/>
	<path d="M226.761,412.665c-3.884,3.644-12.686,4.382-16.68,0.258c-0.285,0.167-0.647,0.364-0.978,0.497
		c3.292,4.031,11.624,4.636,18.142,0.403C227.045,413.327,226.992,413.048,226.761,412.665z"/>
	<path fill="#859E9A" d="M217.837,418.841c2.33,0.358,4.479-0.178,6.988-1.434c-0.358,6.092-3.045,24.009-3.045,24.905
		c-2.866,1.433-4.121,1.074-5.914,0.537C216.584,439.983,218.376,423.858,217.837,418.841z"/>
	<path fill="#CAD8D6" d="M210.85,417.586c0.897,0.359,1.255,0.717,2.33,0.717c1.075,0-0.537,24.367-1.792,24.546
		c-1.253,0.181-1.792,0.358-2.688-0.537C209.776,437.833,211.029,421.887,210.85,417.586z"/>
	<path d="M206.281,687.867c0.448,3.495,7.346,4.931,14.693,1.702c-7.615,4.929-14.785,2.42-16.037,0.181
		C205.654,688.317,206.281,687.867,206.281,687.867z"/>
</g>
<g id="horloge_-_attache">
	<path d="M291.045,423.994c0.308,0.542,0.716,0.882,1.157,0.882c0.929,0,1.714-1.486,1.714-3.242s-0.786-3.073-1.714-3.073
		c-0.234,0-0.461-0.073-0.667,0.098c-0.323-0.003-0.729-0.027-1.195-0.115c0.547-1.084,1.376-1.925,2.317-1.891
		c1.88,0.068,3.294,2.396,3.294,5.173c0,2.777-1.607,4.864-3.294,4.864c-1.185,0-2.188-1.079-2.68-2.685
		C290.318,424.009,290.689,424.007,291.045,423.994z M292.655,426.152c1.34,0,2.471-2.023,2.471-4.418
		c0-2.394-1.13-4.417-2.471-4.417c-0.573,0-1.109,0.374-1.535,0.989c0.32-0.289,0.688-0.451,1.083-0.451
		c1.263,0,2.25,1.659,2.25,3.78c0,2.12-0.988,3.778-2.25,3.778c-0.536,0-1.022-0.298-1.405-0.806
		C291.255,425.547,291.926,426.152,292.655,426.152z"/>
	<path fill="#B3C4C2" d="M290.8,424.011c0.357,0.638,0.855,1.033,1.403,1.033c1.095,0,1.982-1.573,1.982-3.511
		c0-1.939-0.888-3.343-1.982-3.343c-0.417,0-0.806,0.063-1.125,0.454c-0.167-0.005-0.341-0.015-0.512-0.033
		c0.502-1.018,1.252-1.665,2.09-1.665c1.511,0,2.739,2.099,2.739,4.687c0,2.587-1.227,4.687-2.739,4.687
		c-1,0-1.874-0.923-2.35-2.295C290.462,424.022,290.63,424.018,290.8,424.011z"/>
	<path fill="#859E9A" d="M295.104,423.186c-0.943,1.971-2.598,3.718-4.258,1.612C291.341,426.589,294.431,427.037,295.104,423.186z"
		/>
	<path fill="#B3C4C2" d="M292.673,424.236c0.167,0,0.326,0.04,0.473,0.104c-0.087,0.13-0.164,0.207-0.355,0.367
		c-0.511,0-0.924,0.466-0.924,1.043c0,0.573,0.412,1.04,0.924,1.04c0.268,0,0.506-0.13,0.674-0.335
		c0.166-0.061,0.34-0.161,0.501-0.271c-0.154,0.659-0.671,1.146-1.292,1.146c-0.742,0-1.345-0.691-1.345-1.546
		C291.33,424.93,291.931,424.236,292.673,424.236z"/>
	<path d="M292.792,426.925c-0.583,0-1.059-0.528-1.059-1.175c0-0.649,0.475-1.177,1.059-1.177c0.045,0,0.091,0.009,0.136,0.015
		c-0.04,0.035-0.081,0.073-0.136,0.119c-0.039,0.032-0.067,0.083-0.092,0.146c-0.392,0.052-0.698,0.433-0.698,0.897
		c0,0.498,0.354,0.905,0.788,0.905c0.155,0,0.298-0.052,0.419-0.14c0.146-0.015,0.315-0.075,0.488-0.167
		C293.511,426.692,293.176,426.925,292.792,426.925z"/>
	<path d="M292.673,424.103c0.194,0,0.378,0.045,0.548,0.123c-0.062,0.097-0.106,0.164-0.16,0.227
		c-0.123-0.049-0.252-0.081-0.388-0.081c-0.666,0-1.209,0.633-1.209,1.41c0,0.779,0.543,1.411,1.209,1.411
		c0.512,0,0.95-0.375,1.125-0.901c0.118-0.07,0.229-0.147,0.33-0.231c-0.119,0.794-0.722,1.402-1.454,1.402
		c-0.815,0-1.479-0.754-1.479-1.681C291.195,424.856,291.858,424.103,292.673,424.103z"/>
	<path fill="#CAD8D6" d="M295.16,420.341c-0.269-1.581-1.046-3.009-2.117-3.294c-1.142-0.301-1.848,0.807-2.082,1.009
		c0.671-0.47,1.283-0.824,2.082-0.503C294.052,417.955,294.454,418.762,295.16,420.341z"/>
	<path fill="#B3C4C2" d="M287.715,435.145c0-2.508,0.18-5.375,0.358-8.063c3.763-0.805,6.45-0.448,8.78,0.539
		c-0.179,2.329,0,4.568-0.359,7.346C295.599,437.294,289.506,438.549,287.715,435.145z"/>
	<path d="M287.859,427.02c-0.178,2.688-0.359,5.555-0.359,8.063c1.792,3.404,8.354,2.246,9.25-0.083
		c0.359-2.777,0.18-5.018,0.359-7.346C295.75,426.25,290,425.917,287.859,427.02z M296.164,434.759
		c-0.825,2.083-6.439,3.204-8.091,0.16c0-2.242,0.147-5.121,0.314-7.523c1.791-0.941,6.451-0.716,8.106,0.494
		C296.33,429.97,296.494,432.275,296.164,434.759z"/>
	<path fill="#CAD8D6" d="M288.656,427.754c0,0-0.638,5.52-0.236,7.201c1.445,2.218,5.611,1.512,6.989-0.336
		c0.068-1.511,0.808-5.61,0.808-5.61l-0.808,0.403c0,0-0.302,3.225-0.57,4.804c-0.37,0.941-4.067,2.822-6.014,0.135
		c-0.167-2.721,0.504-6.686,0.504-6.686L288.656,427.754z"/>
	<path fill="#859E9A" d="M290.134,436.265c3.562,0.807,4.719-0.711,5.712-1.546c-0.017-0.633,0.447-5.218,0.38-6.427
		c-0.627-0.269-1.702-0.405-1.702-0.405C294.053,431.65,294.031,435.19,290.134,436.265z"/>
</g>
<g id="horloge_-_cadran">
	<path fill="#B3C4C2" d="M344.96,490.511c0,30.776-23.746,55.271-53.579,55.271c-29.832,0-54.015-24.495-54.015-55.271
		s24.183-55.726,54.015-55.726C321.215,434.787,344.96,459.734,344.96,490.511z"/>
	<circle fill="#7F9392" cx="293.125" cy="489.375" r="4.25"/>
	<path d="M291.313,433.711c-30.189,0-54.662,25.245-54.662,56.39c0,31.144,24.473,55.932,54.662,55.932
		c30.189,0,54.218-24.788,54.218-55.932C345.531,458.958,321.503,433.711,291.313,433.711z M291.596,544.992
		c-29.633,0-53.656-24.265-53.656-54.748s24.024-55.195,53.656-55.195c29.633,0,53.221,24.711,53.221,55.195
		S321.229,544.992,291.596,544.992z"/>
	<path fill="#7F9392" d="M293.418,434.104c-29.279,0-52.475,24.8-52.475,55.392c0,30.592,23.197,53.87,52.475,53.87
		c29.279,0,52.583-23.277,52.583-53.87C346.001,458.904,322.697,434.104,293.418,434.104z M292.345,532.554
		c-22.876,0-41.421-19.376-41.421-43.282c0-23.904,18.545-43.283,41.421-43.283c22.876,0,41.423,19.378,41.423,43.283
		C333.768,513.178,315.221,532.554,292.345,532.554z"/>
	<path d="M293.418,434.104c-29.279,0-52.475,24.8-52.475,55.392c0,30.592,23.197,53.87,52.475,53.87
		c29.279,0,52.583-23.277,52.583-53.87C346.001,458.904,322.697,434.104,293.418,434.104z M292.989,542.646
		c-28.33,0-51.296-23.997-51.296-53.599c0-29.602,22.965-54.673,51.296-54.673c28.329,0,52.369,25.071,52.369,54.673
		C345.358,518.65,323.429,542.646,292.989,542.646z"/>
	<path d="M293.118,484.815c-2.462,0-4.458,1.996-4.458,4.458c0,2.461,1.996,4.457,4.458,4.457c2.461,0,4.457-1.994,4.457-4.457
		C297.575,486.809,295.579,484.815,293.118,484.815z M293.118,493.205c-2.172,0-3.934-1.762-3.934-3.933
		c0-2.173,1.762-3.932,3.934-3.932c2.171,0,3.933,1.759,3.933,3.932C297.051,491.443,295.29,493.205,293.118,493.205z"/>
	<ellipse fill="#B3C4C2" cx="251.996" cy="465.052" rx="3.006" ry="3.139"/>
	<path d="M251.996,461.913c-1.66,0-3.004,1.405-3.004,3.139s1.344,3.14,3.004,3.14c1.658,0,3.006-1.405,3.006-3.14
		C255,463.317,253.654,461.913,251.996,461.913z M251.781,467.295c-1.304,0-2.361-1.106-2.361-2.468
		c0-1.365,1.057-2.468,2.361-2.468c1.304,0,2.361,1.103,2.361,2.468C254.142,466.189,253.085,467.295,251.781,467.295z"/>
	<path fill="#B3C4C2" d="M266.453,445.088c1.306-1.071,3.195-0.831,4.219,0.534c1.023,1.365,0.795,3.339-0.512,4.408
		c-1.307,1.07-3.194,0.831-4.219-0.534C264.919,448.132,265.148,446.159,266.453,445.088z"/>
	<path d="M265.941,449.497c1.023,1.364,2.912,1.604,4.219,0.534s1.535-3.043,0.511-4.407c-1.023-1.368-2.913-1.607-4.219-0.536
		C265.148,446.159,264.919,448.132,265.941,449.497z M270.128,446.353c0.805,1.072,0.625,2.623-0.402,3.464
		c-1.026,0.84-2.509,0.651-3.314-0.421c-0.804-1.072-0.625-2.622,0.401-3.462C267.841,445.094,269.323,445.28,270.128,446.353z"/>
	<path fill="#B3C4C2" d="M315.825,450.421c-1.394-0.942-1.793-2.885-0.893-4.341c0.901-1.458,2.762-1.874,4.155-0.933
		c1.392,0.942,1.792,2.885,0.891,4.342C319.079,450.944,317.218,451.361,315.825,450.421z"/>
	<path d="M319.979,449.489c0.9-1.458,0.501-3.399-0.892-4.342c-1.394-0.941-3.253-0.523-4.155,0.933
		c-0.9,1.456-0.5,3.399,0.893,4.341C317.218,451.361,319.079,450.944,319.979,449.489z M315.769,446.378
		c0.708-1.145,2.169-1.472,3.265-0.733c1.095,0.74,1.41,2.268,0.701,3.411c-0.707,1.144-2.169,1.472-3.264,0.732
		C315.376,449.049,315.062,447.523,315.769,446.378z"/>
	<ellipse fill="#B3C4C2" cx="334.626" cy="466.623" rx="3.006" ry="3.14"/>
	<path d="M334.626,463.482c-1.659,0-3.006,1.405-3.006,3.139c0,1.735,1.346,3.142,3.006,3.142c1.658,0,3.003-1.406,3.003-3.142
		C337.631,464.887,336.285,463.482,334.626,463.482z M334.411,468.864c-1.303,0-2.36-1.104-2.36-2.467s1.057-2.466,2.36-2.466
		c1.304,0,2.361,1.104,2.361,2.466S335.715,468.864,334.411,468.864z"/>
	<path fill="#B3C4C2" d="M251.354,513.686c-1.643,0.247-3.168-0.942-3.407-2.658c-0.238-1.714,0.9-3.309,2.542-3.558
		c1.643-0.251,3.167,0.939,3.406,2.656C254.134,511.842,252.998,513.434,251.354,513.686z"/>
	<path d="M253.895,510.126c-0.239-1.717-1.763-2.906-3.405-2.656c-1.643,0.249-2.78,1.843-2.542,3.558
		c0.239,1.716,1.764,2.905,3.407,2.658C252.998,513.434,254.134,511.842,253.895,510.126z M248.768,510.678
		c-0.188-1.348,0.706-2.601,1.996-2.797c1.292-0.194,2.488,0.739,2.677,2.085c0.187,1.349-0.706,2.603-1.997,2.797
		C250.153,512.957,248.955,512.025,248.768,510.678z"/>
	<path fill="#B3C4C2" d="M267.041,533.383c-1.624-0.359-2.661-2.025-2.317-3.723c0.345-1.694,1.939-2.778,3.563-2.418
		c1.623,0.354,2.661,2.022,2.316,3.721C270.259,532.659,268.664,533.744,267.041,533.383z"/>
	<path d="M270.603,530.963c0.344-1.698-0.693-3.366-2.317-3.721c-1.623-0.36-3.218,0.724-3.563,2.418
		c-0.343,1.697,0.694,3.363,2.317,3.723C268.664,533.744,270.259,532.659,270.603,530.963z M265.609,529.628
		c0.269-1.334,1.521-2.184,2.797-1.901c1.276,0.281,2.09,1.59,1.821,2.923c-0.27,1.334-1.523,2.188-2.799,1.901
		C266.153,532.27,265.338,530.962,265.609,529.628z"/>
	<path fill="#B3C4C2" d="M316.171,534.766c-1.643,0.249-3.168-0.941-3.408-2.66c-0.238-1.711,0.9-3.307,2.542-3.558
		c1.642-0.249,3.167,0.94,3.406,2.659C318.951,532.921,317.814,534.513,316.171,534.766z"/>
	<path d="M318.712,531.208c-0.237-1.718-1.763-2.907-3.406-2.659c-1.643,0.251-2.78,1.846-2.542,3.559
		c0.238,1.717,1.764,2.906,3.407,2.66C317.814,534.513,318.951,532.921,318.712,531.208z M313.584,531.758
		c-0.187-1.347,0.707-2.6,1.997-2.796c1.29-0.196,2.489,0.739,2.676,2.085c0.188,1.347-0.705,2.601-1.997,2.798
		C314.971,534.04,313.772,533.105,313.584,531.758z"/>
	<path fill="#B3C4C2" d="M330.211,511.887c0.728-1.554,2.529-2.203,4.019-1.437c1.491,0.762,2.107,2.643,1.375,4.199
		c-0.729,1.557-2.528,2.201-4.02,1.44C330.097,515.325,329.48,513.442,330.211,511.887z"/>
	<path d="M331.587,516.087c1.491,0.763,3.289,0.118,4.02-1.439c0.731-1.557,0.116-3.436-1.376-4.201
		c-1.49-0.765-3.291-0.117-4.019,1.439C329.48,513.442,330.097,515.325,331.587,516.087z M334.045,511.354
		c1.173,0.599,1.657,2.076,1.082,3.301c-0.572,1.223-1.988,1.729-3.159,1.129c-1.171-0.599-1.655-2.077-1.082-3.299
		C331.46,511.259,332.874,510.754,334.045,511.354z"/>
	<path d="M292.345,445.989c-22.876,0-41.421,19.378-41.421,43.283c0,23.906,18.545,43.282,41.421,43.282
		c22.876,0,41.423-19.376,41.423-43.282C333.768,465.369,315.221,445.989,292.345,445.989z M292.274,531.659
		c-22.365,0-40.494-18.945-40.494-42.312c0-23.367,18.129-42.311,40.494-42.311c22.362,0,40.492,18.944,40.492,42.311
		C332.765,512.714,314.637,531.659,292.274,531.659z"/>
	<g>
		<path fill="#CAD8D6" d="M283.75,447.625c26.681-2.174,46.843,18.157,46.625,41.75c-0.125,13.5-4.375,22.75-11.625,32.25
			c7.375-8.25,14.375-16.238,14.375-32.375C333.124,465.904,313.556,441.201,283.75,447.625z"/>
		<path d="M312.368,526.937c9.382-8.562,17.507-21.838,17.507-37.562c0-23.22-20.625-43.125-46.5-41.625
			c-1.271,0.074,6.686-1.658,9.781-1.658c24.995,0,40.327,22.403,40.469,43.158C333.75,507.5,321.236,522.873,312.368,526.937z
			 M291.515,447.125c22.361,1.861,39.36,19.749,39.36,42.25c0,10.994-4.75,22.494-10.5,30.125c8-8.125,12.25-19.281,12.25-30.25
			c-0.001-20.275-15.091-42.158-39.469-42.158C292.612,447.092,292.065,447.103,291.515,447.125z"/>
	</g>
	<path fill="#CAD8D6" d="M287.75,437.781c0.864-0.302,1.742-0.707,2.45-1.296c0.341-0.284,0.896-0.117,1.331-0.093l-0.433,7.681
		l-1.651-0.093l0.312-5.53c-0.328,0.192-1.496,0.889-1.647,0.429C287.99,438.513,287.87,438.147,287.75,437.781z"/>
	<path fill="#CAD8D6" d="M298.744,438.824c-0.056,0.998-0.851,1.771-1.557,2.388c-0.52,0.454-1.51,1.042-1.755,1.717
		c1.101,0.062,2.202,0.125,3.303,0.187l-0.078,1.385l-5.121-0.288c-0.238-1.881,1.414-3.021,2.655-4.104
		c0.513-0.446,1.453-1.601,0.43-2.094c-0.718-0.346-1.623,0.077-2.167,0.567c-0.252-0.4-0.504-0.799-0.755-1.199
		C295.293,436.056,298.903,436.041,298.744,438.824C298.728,439.104,298.763,438.484,298.744,438.824z"/>
	<path fill="#CAD8D6" d="M338.811,492.62c-0.276-0.008-2.149-0.214-2.058-0.561c0.104-0.394,0.209-0.788,0.313-1.182
		c0.766,0.349,2.807,0.949,3.102-0.316c0.291-1.253-1.266-1.25-2.09-1.274l0.037-1.244l0.684,0.02
		c0.668,0.019,1.693-0.554,1.044-1.326c-0.539-0.642-1.701-0.239-2.285,0.106c-0.172-0.382-0.344-0.764-0.517-1.146
		c1.058-0.61,2.527-0.862,3.629-0.206c1.133,0.674,1.215,2.521-0.04,3.118c0.989,0.437,1.318,1.506,1.006,2.5
		C341.257,492.322,339.946,492.652,338.811,492.62C338.625,492.614,339.309,492.634,338.811,492.62z"/>
	<path fill="#CAD8D6" d="M292.06,536.489c1.804-0.146,3.146,1.439,2.312,3.192c-0.662,1.395-2.795,1.789-3.885,0.666
		c-1.092-1.127-1.079-3.28-0.339-4.581c0.436-0.766,1.163-1.302,1.981-1.604c0.409-0.153,0.838-0.25,1.271-0.307
		c0.274-0.126,0.383-0.036,0.326,0.268c0.045,0.298,0.089,0.596,0.133,0.893c-1.107,0.115-2.322,0.533-2.648,1.721
		C291.469,536.593,291.766,536.512,292.06,536.489C292.486,536.454,291.929,536.499,292.06,536.489z M291.967,537.644
		c-0.759,0.063-0.895,0.202-0.763,0.926c0.107,0.585,0.396,1.242,1.104,1.184C293.6,539.646,293.336,537.532,291.967,537.644
		C291.822,537.656,292.36,537.612,291.967,537.644z"/>
	<path fill="#CAD8D6" d="M247.133,489.461c-1.861,1.082-4.194-0.17-4.132-2.317c0.061-2.143,2.405-3.391,4.298-2.437
		c1.868,0.942,2.02,4.046,1.308,5.739c-0.441,1.048-1.344,1.745-2.396,2.123c-0.454,0.162-0.927,0.27-1.403,0.342
		c-0.475,0.073-0.62,0.256-0.691-0.292c-0.048-0.362-0.104-0.722-0.157-1.083C245.347,491.398,246.783,490.983,247.133,489.461
		C246.975,489.553,247.052,489.816,247.133,489.461z M246.179,488.389c0.284-0.023,0.93-0.068,0.976-0.389
		c-0.054-0.897-0.575-2.837-1.902-1.955C244.087,486.822,244.906,488.493,246.179,488.389
		C246.36,488.374,245.708,488.427,246.179,488.389z"/>
</g>
</svg>
