<?xml version="1.0" encoding="utf-8"?>
<!DOCTYPE svg PUBLIC "-//W3C//DTD SVG 1.1//EN" "http://www.w3.org/Graphics/SVG/1.1/DTD/svg11.dtd">
<svg version="1.1" id="ciel" xmlns="http://www.w3.org/2000/svg" xmlns:xlink="http://www.w3.org/1999/xlink" x="0px" y="0px"
	 width="650px" height="650px" viewBox="0 187 650 650" enable-background="new 0 187 650 650" xml:space="preserve">
<linearGradient id="SVGID_1_" gradientUnits="userSpaceOnUse" x1="209.8594" y1="2084.5586" x2="859.8594" y2="2084.5586" gradientTransform="matrix(-4.371139e-008 -1 -1 4.371139e-008 2409.5586 1046.8599)">
	<stop  offset="0" style="stop-color:#E0F0FF"/>
	<stop  offset="1" style="stop-color:#619DCE"/>
</linearGradient>
<rect y="187" fill="url(#SVGID_1_)" width="650" height="650"/>
<path fill="#F2DC3D" d="M349.383,339.147c-6.079,49.362-84.983,49.569-80.153,0C274.286,287.275,355.518,289.333,349.383,339.147
	C346.677,361.114,351.888,318.807,349.383,339.147z"/>
<path opacity="0.9" fill="#F7C31E" enable-background="new    " d="M303.195,299.421c-45.826,9.475-43.278,75.083,4.959,78.449
	C364.377,381.793,357.762,288.139,303.195,299.421C281.52,303.903,325.488,294.813,303.195,299.421z M346.055,340.215
	c-5.668,46.034-79.251,46.225-74.747,0C276.021,291.84,351.776,293.76,346.055,340.215
	C343.531,360.7,348.391,321.246,346.055,340.215z"/>
<path fill="#FFFFFF" d="M456.92,447.428c-0.993-3.638-5.994-7.654-8.292-2.91c-0.042,3.464,0.967,7.189,1.604,9.418
	c-1.609-1.788-2.747-4.756-2.946-7.737c-3.551,1.198,0.685,10.631,2.132,13.702c-2.764-1.917-7.592-2.44-10.032-0.271
	c-1.356-7.05-4.659-10.462-9.762-12.383c-4.825-1.815-14.56,0.742-15.457,6.146c-6.778-1.626-11.931,1.627-13.826,5.423
	c-3.256-18.709-6.057-23.952-14.282-22.958c-8.226,0.994-9.513,16.958-7.954,21.602c-3.795,5.966-4.419,12.013-2.169,15.455
	c3.073,4.7,16.811,5.152,21.964-1.356c8.134,4.52,20.878,4.068,28.675,1.409c2.476,3.625,10.803,2.938,12.399-0.931
	c-1.682-1.673,0.495-4.346-6.096-5.359c-2.441-1.627-8.949-1.898-14.914-1.356c0,0,10.846-2.44,15.455,0
	c3.209,0.506,5.049,1.854,5.786,3.584c3.632,0.584,9.767,1.25,13.466-0.873C463.518,471.29,458.156,451.96,456.92,447.428z"/>
<path fill="#FFFFFF" d="M390.85,431.521c-0.092,1.536-1.266,2.35-2.894,2.802c-1.515,0.421-2.62-0.724-3.072-2.441
	c-0.344-1.303,1.445-2.44,2.711-2.802C389.107,428.649,390.929,430.175,390.85,431.521z"/>
</svg>
