<?xml version="1.0" encoding="utf-8"?>
<!DOCTYPE svg PUBLIC "-//W3C//DTD SVG 1.1//EN" "http://www.w3.org/Graphics/SVG/1.1/DTD/svg11.dtd">
<svg version="1.1" id="niche03" xmlns="http://www.w3.org/2000/svg" xmlns:xlink="http://www.w3.org/1999/xlink" x="0px" y="0px"
	 width="650px" height="650px" viewBox="0 187 650 650" enable-background="new 0 187 650 650" xml:space="preserve">
<g id="sol_02">
	<path fill="#50A562" d="M649.683,542.042l-0.3,0.158c-0.313,0.163-0.587,0.223-0.863,0.183c-0.721-0.106-0.772-0.802-0.773-1.929
		c-0.001-0.931-0.001-1.985-0.849-2.355l-0.243-0.107l-0.071,0.256c-0.527,1.899-1.87,3.563-4.017,6.092
		c-0.303-0.062-0.549-0.25-0.751-0.575c-1.126-1.819-0.292-6.955,0.36-8.636l0.188-0.48l-0.483,0.18
		c-2.094,0.782-2.47,3.166-2.771,5.08c-0.131,0.832-0.254,1.617-0.497,2.138c-1.359-0.227-2.007-1.027-3.303-3.971l-0.358-0.816
		l-0.082,0.889c-0.195,2.11-4.017,5.468-6.388,5.696c0.315-1.08-0.061-2.151-0.937-2.535l-0.19-0.084l-0.104,0.182
		c-0.121,0.214-0.286,0.433-0.488,0.648c0.313-1.042,1.458-2.386,3.209-3.733l0.636-0.488l-0.8,0.075
		c-2.784,0.268-5.703,2.366-7.524,3.927c0.264-1.056,0.179-2.198-0.26-2.955c-0.343-0.586-0.869-0.923-1.522-0.97l-0.467-0.037
		l0.257,0.393c0.263,0.402,0.278,0.824,0.047,1.254c-0.578,1.071-2.606,2.012-4.343,2.012c-0.358,0-0.688-0.04-0.979-0.121
		c-1.394-0.389-1.387-1.356-1.247-3.176c0.063-0.832,0.135-1.773,0.012-2.774l-0.051-0.416l-0.326,0.267
		c-1.101,0.906-1.206,2.136-1.301,3.22c-0.101,1.171-0.181,2.096-1.397,2.431c-0.338,0.093-0.674,0.143-0.993,0.143
		c-1.234,0-2.138-0.694-2.935-1.307c-0.389-0.298-0.756-0.58-1.127-0.754c-0.786-0.365,0.284-3.591,0.993-5.725
		c0.267-0.803,0.518-1.562,0.695-2.198l0.117-0.415l-0.41,0.134c-1.243,0.408-2.044,2.518-2.819,4.56
		c-0.703,1.857-1.433,3.776-2.304,3.776h-0.001c-0.058,0-0.115-0.008-0.175-0.024c-1.021-0.283-1.168-0.983-1.312-1.657
		c-0.134-0.632-0.265-1.362-1.336-1.219l-0.179,0.024l-0.02,0.18c-0.192,1.797-2.49,2.448-3.987,2.449
		c-0.831,0-1.344-0.186-1.485-0.369c-0.205-0.266-0.264-0.615-0.169-1.011c0.204-0.866,1.07-1.738,2.313-2.334l0.363-0.175
		l-0.334-0.226c-0.506-0.34-1.057-0.514-1.636-0.514c-0.921,0-1.787,0.434-2.482,0.78c-0.67,0.333-1.252,0.622-1.517,0.343
		c-0.276-0.292-0.44-0.802-0.63-1.391c-0.406-1.252-0.91-2.812-2.84-3.683l-0.756-0.341l0.471,0.684
		c2.053,2.971-1.406,6.397-3.104,7.815c-0.495-0.174-0.813-0.55-0.948-1.115c-0.366-1.532,0.675-3.984,1.778-4.993l0.343-0.314
		L583.823,532c-0.159-0.029-0.319-0.044-0.478-0.044c-1.246,0-2.246,0.906-3.127,1.704c-0.783,0.709-1.511,1.373-2.252,1.266
		c-0.722-0.107-0.773-0.803-0.773-1.931c0-0.931,0-1.984-0.847-2.356l-0.243-0.106l-0.071,0.256
		c-0.531,1.906-1.874,3.567-4.018,6.092c-0.304-0.062-0.55-0.251-0.752-0.575c-1.127-1.818-0.291-6.956,0.362-8.636l0.187-0.48
		l-0.482,0.18c-2.095,0.779-2.47,3.164-2.771,5.078c-0.131,0.83-0.255,1.618-0.498,2.139c-1.361-0.228-2.009-1.028-3.303-3.97
		l-0.358-0.818l-0.083,0.888c-0.201,2.188-4.295,5.709-6.633,5.709c-0.168,0-0.321-0.019-0.457-0.057
		c-0.626-0.175-0.992-0.498-1.081-0.96c-0.211-1.087,1.015-2.776,3.277-4.517l0.639-0.49l-0.802,0.077
		c-2.647,0.254-5.455,2.218-7.102,3.57c-0.07-0.801-0.518-1.442-1.203-1.675l-0.196-0.065l-0.087,0.189
		c-0.646,1.405-2.712,2.911-4.759,2.912c-0.338,0-0.67-0.042-0.987-0.123c0.925-1.04,1.109-2.898,0.669-4.152
		c-0.349-0.989-1.031-1.533-1.952-1.533l-0.468,0.006l0.289,0.368c0.313,0.397,0.355,0.84,0.125,1.314
		c-0.581,1.196-2.765,2.327-4.494,2.328c-0.217,0-0.421-0.019-0.61-0.053c-1.424-0.267-1.501-1.23-1.521-3.056
		c-0.009-0.834-0.019-1.779-0.228-2.764l-0.089-0.41l-0.299,0.294c-1.019,0.997-1.019,2.232-1.019,3.32
		c0.001,1.176,0.001,2.104-1.182,2.544c-0.427,0.158-0.852,0.238-1.261,0.238c-1.095,0-1.975-0.562-2.753-1.058
		c-0.413-0.264-0.804-0.513-1.188-0.652c-0.812-0.298-0.027-3.6,0.492-5.784c0.197-0.824,0.382-1.604,0.504-2.255l0.079-0.425
		l-0.397,0.17c-1.202,0.513-1.816,2.685-2.412,4.785c-0.552,1.95-1.123,3.966-2.021,3.966c-0.04,0-0.082-0.004-0.126-0.012
		c-1.041-0.196-1.249-0.879-1.449-1.539c-0.164-0.535-0.349-1.143-1.074-1.143c-0.112,0-0.23,0.015-0.363,0.045L522,529.839
		l-0.003,0.182c-0.04,1.981-2.743,2.805-4.186,2.805c-0.626,0-0.973-0.133-1.087-0.258c-0.227-0.248-0.315-0.592-0.255-0.993
		c0.13-0.881,0.916-1.824,2.103-2.526l0.346-0.203l-0.352-0.197c-0.456-0.251-0.935-0.381-1.422-0.381
		c-1.022,0-1.93,0.557-2.658,1.004c-0.634,0.388-1.186,0.733-1.481,0.473c-0.301-0.267-0.51-0.76-0.751-1.332
		c-0.512-1.211-1.148-2.722-3.146-3.421l-0.782-0.274l0.528,0.64c2.303,2.781-0.847,6.493-2.416,8.054
		c-0.507-0.13-0.856-0.475-1.04-1.025c-0.498-1.495,0.324-4.031,1.336-5.133l0.314-0.342l-0.463-0.043
		c-1.488-0.142-2.533,0.982-3.447,1.965c-0.696,0.75-1.353,1.456-2.065,1.457l-0.067-0.002c-0.727-0.043-0.837-0.729-0.938-1.854
		c-0.08-0.928-0.172-1.979-1.047-2.275l-0.252-0.085l-0.048,0.261c-0.363,1.944-1.557,3.716-3.475,6.415
		c-0.308-0.034-0.569-0.201-0.799-0.509c-1.28-1.716-0.893-6.904-0.386-8.636l0.146-0.494l-0.466,0.221
		c-2.02,0.96-2.186,3.367-2.32,5.302c-0.058,0.836-0.113,1.633-0.31,2.173c-1.376-0.107-2.09-0.85-3.634-3.671l-0.43-0.784
		l-0.005,0.895c-0.012,2.286-4.008,6.271-6.288,6.271c-0.099,0-0.194-0.008-0.285-0.024c-0.643-0.119-1.031-0.41-1.162-0.861
		c-0.304-1.066,0.771-2.854,2.875-4.784l0.592-0.543l-0.789,0.146c-1.057,0.195-2.208,0.688-3.43,1.468
		c-0.101-0.769-0.548-1.371-1.208-1.587l-0.198-0.063l-0.085,0.19c-0.637,1.433-2.708,2.966-4.773,2.966
		c-0.321,0-0.635-0.037-0.938-0.11c0.905-1.045,1.074-2.897,0.628-4.141c-0.354-0.988-1.039-1.531-1.925-1.531l-0.521,0.013
		l0.294,0.363c0.319,0.396,0.365,0.841,0.136,1.322c-0.583,1.219-2.774,2.371-4.51,2.371c-0.198,0-0.389-0.015-0.564-0.046
		c-1.428-0.252-1.514-1.214-1.554-3.038c-0.019-0.834-0.04-1.778-0.261-2.763l-0.093-0.41l-0.296,0.298
		c-1.009,1.01-0.992,2.244-0.98,3.333c0.013,1.176,0.024,2.104-1.151,2.556c-0.438,0.169-0.875,0.254-1.297,0.254
		c-1.077,0-1.953-0.545-2.728-1.028c-0.416-0.259-0.809-0.504-1.194-0.64c-0.817-0.288-0.069-3.597,0.425-5.786
		c0.186-0.828,0.362-1.609,0.478-2.263l0.074-0.425l-0.395,0.172c-1.196,0.528-1.786,2.708-2.357,4.814
		c-0.554,2.046-1.119,4.144-2.102,3.979c-1.044-0.184-1.258-0.864-1.467-1.522c-0.169-0.529-0.357-1.129-1.073-1.129
		c-0.117,0-0.24,0.016-0.377,0.047l-0.177,0.043l-0.002,0.181c-0.016,2.016-2.743,2.853-4.199,2.853
		c-0.598,0-0.932-0.127-1.044-0.246c-0.229-0.246-0.321-0.588-0.267-0.99c0.119-0.883,0.896-1.838,2.075-2.552l0.344-0.209
		l-0.355-0.191c-0.449-0.242-0.917-0.366-1.394-0.366c-1.037,0-1.945,0.574-2.679,1.035c-0.627,0.394-1.178,0.749-1.476,0.49
		c-0.304-0.263-0.517-0.754-0.764-1.321c-0.525-1.206-1.179-2.708-3.186-3.388l-0.787-0.266l0.537,0.634
		c2.336,2.758-0.771,6.506-2.323,8.082c-0.509-0.125-0.862-0.465-1.052-1.015c-0.515-1.49,0.278-4.033,1.28-5.146l0.31-0.347
		l-0.463-0.039c-1.495-0.127-2.523,1.01-3.425,2.005c-0.691,0.761-1.343,1.479-2.063,1.479h-0.055
		c-0.726-0.037-0.846-0.722-0.956-1.845c-0.093-0.926-0.196-1.976-1.073-2.262l-0.252-0.082l-0.046,0.262
		c-0.342,1.951-1.516,3.734-3.4,6.455c-0.311-0.03-0.575-0.196-0.81-0.504c-1.294-1.706-0.965-6.892-0.48-8.626l0.139-0.497
		l-0.462,0.227c-2.008,0.983-2.147,3.394-2.261,5.328c-0.048,0.838-0.094,1.634-0.284,2.177c-1.376-0.093-2.101-0.826-3.677-3.63
		l-0.438-0.777l0.007,0.893c0.007,1.076-0.869,2.631-2.286,4.057c-1.506,1.516-3.187,2.444-4.218,2.265
		c-0.643-0.112-1.036-0.397-1.171-0.849c-0.318-1.063,0.736-2.862,2.818-4.819l0.585-0.548l-0.787,0.154
		c-2.608,0.512-5.212,2.742-6.72,4.248c-0.148-0.788-0.657-1.385-1.359-1.547l-0.203-0.047l-0.066,0.197
		c-0.477,1.384-2.479,3.385-4.853,3.385c-0.198,0-0.396-0.014-0.59-0.045c0.787-1.087,0.807-2.864,0.327-4.035
		c-0.433-1.059-1.195-1.604-2.164-1.496l-0.465,0.051l0.324,0.339c0.371,0.385,0.445,0.851,0.22,1.381
		c-0.597,1.402-3.109,2.828-4.822,2.682c-1.443-0.126-1.615-1.079-1.813-2.896c-0.091-0.828-0.193-1.765-0.498-2.727l-0.128-0.401
		l-0.27,0.322c-0.917,1.095-0.795,2.322-0.687,3.406c0.116,1.17,0.208,2.093-0.927,2.646c-0.52,0.253-1.026,0.376-1.548,0.377
		c-0.954,0-1.79-0.425-2.527-0.8c-0.437-0.223-0.85-0.433-1.245-0.534c-0.839-0.216-0.383-3.578-0.079-5.804
		c0.115-0.84,0.223-1.634,0.278-2.294l0.038-0.43l-0.379,0.206c-1.146,0.628-1.545,2.85-1.93,4.999
		c-0.375,2.082-0.759,4.229-1.749,4.145c-1.055-0.092-1.329-0.751-1.593-1.388c-0.212-0.51-0.433-1.037-1.068-1.037
		c-0.145,0-0.298,0.028-0.473,0.085l-0.171,0.057l0.015,0.181c0.049,0.619-0.168,1.193-0.644,1.706
		c-0.907,0.984-2.536,1.516-3.607,1.516c-0.504,0-0.688-0.119-0.745-0.17c-0.251-0.224-0.374-0.557-0.354-0.963
		c0.043-0.889,0.731-1.905,1.844-2.72l0.325-0.238l-0.369-0.16c-0.388-0.169-0.785-0.252-1.178-0.252
		c-1.143,0-2.073,0.704-2.82,1.272c-0.589,0.445-1.102,0.852-1.428,0.617c-0.326-0.236-0.58-0.707-0.877-1.252
		c-0.627-1.155-1.41-2.596-3.467-3.097l-0.807-0.198l0.591,0.585c2.563,2.542-0.206,6.548-1.614,8.255
		c-0.519-0.081-0.901-0.39-1.137-0.92c-0.644-1.441-0.072-4.043,0.828-5.237l0.28-0.372l-0.467,0.002
		c-1.497,0.005-2.422,1.223-3.238,2.295c-0.637,0.837-1.237,1.628-2.023,1.658c-0.691,0-0.865-0.664-1.071-1.757
		c-0.172-0.913-0.365-1.95-1.266-2.159l-0.259-0.061l-0.023,0.265c-0.172,1.97-1.185,3.849-2.827,6.728
		c-0.335-0.003-0.633-0.168-0.908-0.499c-1.403-1.692-1.502-6.725-1.17-8.484l0.095-0.507l-0.44,0.266
		c-1.915,1.154-1.845,3.564-1.789,5.501c0.025,0.841,0.048,1.639-0.094,2.194c-1.371,0.024-2.158-0.633-3.978-3.296l-0.503-0.737
		l0.082,0.889c0.198,2.117-2.96,6.122-5.229,6.775c0.111-1.12-0.456-2.104-1.388-2.321l-0.203-0.047l-0.067,0.198
		c-0.079,0.231-0.2,0.478-0.358,0.727c0.116-1.08,0.994-2.613,2.469-4.259l0.535-0.598l-0.771,0.222
		c-2.688,0.776-5.172,3.373-6.676,5.243c0.063-1.028-0.196-2.075-0.715-2.749c-0.45-0.586-1.053-0.857-1.761-0.78l-0.464,0.052
		l0.324,0.336c0.371,0.387,0.444,0.852,0.219,1.382c-0.563,1.32-2.817,2.659-4.513,2.688c0.018-0.073,0.037-0.152,0.056-0.218
		l0.145-0.494l-0.465,0.221c-0.222,0.105-0.417,0.23-0.596,0.367c-0.935-0.315-1.091-1.23-1.259-2.777
		c-0.09-0.828-0.193-1.767-0.499-2.729l-0.127-0.4l-0.27,0.321c-0.917,1.095-0.795,2.322-0.687,3.406
		c0.115,1.169,0.206,2.093-0.928,2.646c-0.52,0.253-1.026,0.377-1.548,0.377c-0.954,0-1.789-0.425-2.527-0.799
		c-0.437-0.223-0.85-0.434-1.246-0.534c-0.838-0.217-0.38-3.58-0.077-5.806c0.115-0.839,0.222-1.633,0.279-2.293l0.038-0.43
		l-0.379,0.207c-1.146,0.628-1.545,2.851-1.932,4.997c-0.375,2.085-0.757,4.225-1.75,4.146c-1.056-0.093-1.329-0.752-1.593-1.389
		c-0.211-0.511-0.432-1.038-1.067-1.038c-0.144,0-0.298,0.028-0.472,0.086l-0.172,0.057l0.014,0.181
		c0.048,0.62-0.168,1.192-0.643,1.706c-0.91,0.983-2.538,1.513-3.609,1.513c-0.503,0-0.689-0.117-0.746-0.167
		c-0.251-0.225-0.372-0.56-0.353-0.965c0.043-0.89,0.733-1.906,1.845-2.719l0.325-0.239l-0.37-0.16
		c-0.389-0.169-0.785-0.253-1.178-0.253c-1.141,0-2.073,0.705-2.821,1.272c-0.588,0.447-1.103,0.851-1.427,0.616
		c-0.326-0.235-0.582-0.705-0.876-1.25c-0.628-1.156-1.41-2.597-3.466-3.098l-0.807-0.199l0.59,0.586
		c1.765,1.753,1,4.197-0.107,6.107c-0.029-0.58-0.085-1.19-0.228-1.822l-0.092-0.41l-0.297,0.299
		c-1.008,1.01-0.992,2.243-0.979,3.332c0.003,0.254,0.004,0.493-0.006,0.722c-0.467-0.103-0.823-0.397-1.044-0.895
		c-0.643-1.44-0.072-4.042,0.828-5.237l0.28-0.371l-0.465,0.002c-1.497,0.006-2.42,1.222-3.237,2.293
		c-0.638,0.836-1.24,1.629-2.026,1.658c-0.379,0-0.6-0.204-0.757-0.565c0.147-0.775,0.327-1.567,0.481-2.251
		c0.186-0.828,0.363-1.608,0.478-2.262l0.074-0.426l-0.394,0.173c-0.628,0.277-1.088,1.011-1.467,1.946
		c-0.174-0.26-0.413-0.454-0.75-0.533l-0.26-0.061l-0.023,0.266c-0.171,1.97-1.185,3.85-2.828,6.727c-0.02,0-0.04-0.007-0.06-0.008
		c-0.288-0.296-0.417-0.684-0.539-1.068c-0.168-0.529-0.358-1.129-1.073-1.129c-0.009,0-0.021,0.004-0.03,0.004
		c-0.629-2.215-0.626-5.443-0.373-6.783l0.095-0.506l-0.44,0.265c-1.917,1.152-1.846,3.564-1.79,5.502
		c0.024,0.839,0.047,1.638-0.096,2.193c-0.755,0.016-1.346-0.188-2.046-0.851c0.211-0.172,0.44-0.335,0.69-0.488l0.344-0.208
		l-0.354-0.191c-0.449-0.243-0.917-0.366-1.394-0.366c-0.118,0-0.233,0.01-0.347,0.022c-0.265-0.351-0.551-0.752-0.868-1.217
		l-0.503-0.737l0.083,0.89c0.043,0.458-0.077,1.026-0.324,1.645c-0.254,0.143-0.496,0.292-0.718,0.433
		c-0.626,0.394-1.178,0.748-1.476,0.489c-0.303-0.262-0.516-0.754-0.764-1.321c-0.525-1.207-1.179-2.709-3.184-3.388l-0.788-0.267
		l0.537,0.635c0.735,0.868,0.93,1.835,0.805,2.801c-1.635,0.721-3.157,2.04-4.328,3.261c-0.028-1.449,0.627-3.249,1.427-4.14
		l0.311-0.345l-0.464-0.04c-1.494-0.127-2.521,1.01-3.424,2.004c-0.691,0.762-1.344,1.48-2.063,1.48l-0.054-0.001
		c-0.727-0.036-0.846-0.721-0.957-1.844c-0.092-0.926-0.195-1.975-1.073-2.262l-0.253-0.083l-0.045,0.262
		c-0.232,1.321-0.854,2.573-1.811,4.084c-0.503-0.582-1.167-0.843-1.88-0.7l-0.459,0.092l0.352,0.308
		c0.424,0.371,0.528,0.857,0.307,1.442c-0.115,0.305-0.31,0.612-0.558,0.909c-0.056-0.054-0.11-0.113-0.162-0.183
		c-1.294-1.706-0.965-6.893-0.48-8.626l0.139-0.497l-0.462,0.228c-2.008,0.982-2.147,3.393-2.26,5.327
		c-0.048,0.838-0.095,1.635-0.285,2.176c-1.376-0.092-2.1-0.824-3.676-3.628l-0.438-0.777l0.005,0.891
		c0.008,1.077-0.868,2.633-2.285,4.058c-1.506,1.516-3.187,2.444-4.217,2.265c-0.032-0.006-0.055-0.016-0.084-0.022
		c-0.146-0.958-0.119-2.378-0.066-3.66c0.463-0.625,1.063-1.295,1.797-1.984l0.585-0.549l-0.788,0.154
		c-0.505,0.099-1.01,0.264-1.507,0.475c0.022-0.507,0.039-0.984,0.039-1.403v-0.433l-0.359,0.24
		c-0.603,0.402-0.93,1.282-1.141,2.351c-1.494,0.904-2.829,2.097-3.751,3.02c-0.148-0.789-0.657-1.387-1.359-1.548l-0.204-0.047
		l-0.066,0.196c-0.356,1.03-1.554,2.399-3.123,3.034l-0.314-0.104c-0.321-0.106-0.643-0.161-0.956-0.161
		c-0.278,0-0.536,0.047-0.784,0.118c0.517-1.083,0.479-2.562,0.063-3.582c-0.433-1.059-1.196-1.604-2.165-1.496l-0.465,0.051
		l0.324,0.338c0.371,0.386,0.444,0.851,0.219,1.382c-0.488,1.146-2.253,2.305-3.816,2.611c-0.581-0.525-1.332-0.954-2.387-1.116
		l-0.149-0.023c-0.136-0.44-0.207-1.002-0.281-1.686c-0.092-0.828-0.193-1.766-0.499-2.728l-0.128-0.4l-0.269,0.322
		c-0.917,1.095-0.794,2.321-0.688,3.406c0.117,1.169,0.208,2.093-0.925,2.646c-0.521,0.254-1.027,0.377-1.549,0.377
		c-0.954,0-1.79-0.424-2.526-0.799c-0.437-0.223-0.85-0.433-1.246-0.534c-0.838-0.216-0.382-3.578-0.078-5.805
		c0.115-0.84,0.222-1.634,0.278-2.294l0.038-0.43l-0.379,0.207c-1.146,0.628-1.545,2.85-1.93,4.999
		c-0.375,2.082-0.76,4.228-1.749,4.145c-1.055-0.093-1.328-0.752-1.593-1.388c-0.211-0.51-0.432-1.037-1.068-1.037
		c-0.144,0-0.298,0.027-0.471,0.085l-0.172,0.056l0.015,0.182c0.049,0.619-0.167,1.193-0.643,1.706
		c-0.909,0.983-2.537,1.515-3.609,1.515c-0.502,0-0.688-0.118-0.745-0.169c-0.251-0.225-0.373-0.557-0.353-0.964
		c0.042-0.888,0.732-1.904,1.844-2.72l0.325-0.237l-0.37-0.161c-0.388-0.168-0.785-0.252-1.178-0.252
		c-1.143,0-2.073,0.705-2.821,1.272c-0.588,0.445-1.102,0.853-1.428,0.617c-0.326-0.236-0.581-0.706-0.877-1.251
		c-0.627-1.156-1.41-2.597-3.466-3.098l-0.807-0.198l0.59,0.586c2.564,2.542-0.206,6.548-1.614,8.255
		c-0.518-0.081-0.9-0.391-1.137-0.921c-0.642-1.441-0.072-4.043,0.828-5.237l0.28-0.371l-0.465,0.001
		c-1.498,0.006-2.423,1.223-3.238,2.296c-0.637,0.836-1.238,1.627-2.023,1.657c-0.692,0-0.866-0.664-1.071-1.757
		c-0.172-0.913-0.366-1.949-1.267-2.159l-0.259-0.061l-0.023,0.266c-0.171,1.969-1.185,3.849-2.828,6.728
		c-0.336-0.004-0.632-0.168-0.908-0.5c-1.403-1.692-1.501-6.724-1.169-8.483l0.096-0.508l-0.442,0.267
		c-1.914,1.153-1.844,3.564-1.788,5.5c0.024,0.841,0.047,1.639-0.096,2.195c-1.371,0.023-2.158-0.633-3.977-3.296l-0.503-0.738
		l0.082,0.89c0.198,2.117-2.96,6.122-5.23,6.775c0.111-1.12-0.456-2.104-1.387-2.321l-0.203-0.048l-0.068,0.198
		c-0.08,0.231-0.201,0.478-0.359,0.728c0.116-1.081,0.994-2.613,2.468-4.26l0.535-0.597l-0.771,0.222
		c-2.688,0.775-5.171,3.373-6.675,5.242c0.063-1.028-0.195-2.075-0.715-2.749c-0.45-0.585-1.053-0.857-1.761-0.78l-0.465,0.052
		l0.324,0.336c0.371,0.388,0.444,0.853,0.219,1.383c-0.597,1.402-3.104,2.825-4.823,2.68c-1.444-0.126-1.614-1.078-1.812-2.894
		c-0.09-0.829-0.194-1.768-0.5-2.729l-0.127-0.4l-0.27,0.322c-0.917,1.095-0.795,2.321-0.688,3.405
		c0.116,1.17,0.207,2.094-0.927,2.646c-0.521,0.253-1.027,0.377-1.549,0.377c-0.954,0-1.789-0.425-2.527-0.799
		c-0.438-0.222-0.85-0.433-1.246-0.534c-0.839-0.216-0.38-3.58-0.078-5.805c0.114-0.84,0.222-1.633,0.28-2.293l0.038-0.431
		l-0.378,0.208c-1.146,0.627-1.546,2.85-1.932,4.997c-0.375,2.084-0.758,4.224-1.749,4.146c-1.056-0.093-1.33-0.752-1.594-1.389
		c-0.211-0.511-0.431-1.037-1.066-1.037c-0.143,0-0.298,0.028-0.472,0.085l-0.172,0.058l0.015,0.18
		c0.048,0.62-0.168,1.193-0.643,1.706c-0.91,0.983-2.538,1.514-3.608,1.514c-0.503,0-0.689-0.117-0.746-0.168
		c-0.251-0.225-0.372-0.559-0.352-0.965c0.043-0.889,0.733-1.905,1.845-2.719l0.325-0.239l-0.37-0.159
		c-0.39-0.17-0.786-0.254-1.179-0.254c-1.142,0-2.073,0.705-2.821,1.272c-0.588,0.447-1.103,0.852-1.428,0.617
		c-0.325-0.236-0.581-0.706-0.875-1.251c-0.628-1.155-1.411-2.597-3.467-3.098l-0.807-0.198l0.59,0.586
		c2.563,2.544-0.207,6.548-1.615,8.254c-0.518-0.082-0.9-0.39-1.137-0.921c-0.642-1.44-0.072-4.042,0.828-5.237l0.28-0.371
		l-0.465,0.001c-1.498,0.006-2.421,1.222-3.237,2.293c-0.638,0.837-1.24,1.63-2.025,1.659c-0.691,0-0.865-0.664-1.07-1.756
		c-0.171-0.914-0.365-1.951-1.266-2.161l-0.26-0.061l-0.023,0.266c-0.171,1.97-1.185,3.851-2.828,6.728
		c-0.336-0.005-0.633-0.169-0.908-0.5c-1.404-1.692-1.5-6.724-1.167-8.484l0.095-0.507l-0.441,0.266
		c-1.916,1.152-1.846,3.565-1.789,5.502c0.024,0.84,0.047,1.638-0.096,2.193c-1.336,0.028-2.158-0.632-3.976-3.297l-0.503-0.738
		l0.083,0.89c0.108,1.161-0.803,3.021-2.268,4.63c-1.312,1.44-2.721,2.309-3.663,2.229c-0.649-0.059-1.067-0.307-1.24-0.744
		c-0.408-1.03,0.487-2.916,2.393-5.042l0.536-0.598l-0.771,0.223c-2.557,0.736-4.956,3.185-6.327,4.814
		c-0.217-0.772-0.774-1.321-1.489-1.424l-0.206-0.03l-0.051,0.201c-0.402,1.607-2.655,3.962-5.133,3.799
		c0.658-1.1,0.567-2.777,0.05-3.903c-0.504-1.098-1.387-1.644-2.357-1.45l-0.459,0.093l0.353,0.308
		c0.424,0.37,0.527,0.857,0.307,1.442c-0.548,1.458-2.883,3.001-4.542,3.001c-1.449,0-1.702-0.935-2.056-2.725
		c-0.162-0.817-0.345-1.744-0.733-2.674l-0.162-0.388l-0.241,0.344c-0.818,1.169-0.59,2.382-0.391,3.451
		c0.216,1.156,0.388,2.069-0.694,2.718c-0.586,0.352-1.173,0.521-1.797,0.521c-0.837,0-1.614-0.313-2.3-0.59
		c-0.455-0.183-0.885-0.356-1.289-0.424c-0.854-0.144-0.689-3.532-0.58-5.776c0.041-0.847,0.08-1.646,0.08-2.31v-0.433l-0.359,0.239
		c-1.086,0.727-1.292,2.975-1.491,5.147c-0.192,2.104-0.391,4.282-1.383,4.282c-1.059,0-1.389-0.634-1.708-1.245
		c-0.242-0.465-0.493-0.945-1.064-0.945c-0.167,0-0.347,0.043-0.552,0.13l-0.167,0.071l0.029,0.178
		c0.109,0.654-0.087,1.283-0.581,1.865c-0.872,1.029-2.566,1.722-3.602,1.722c-0.331,0-0.474-0.071-0.53-0.115
		c-0.269-0.201-0.419-0.522-0.435-0.93c-0.034-0.888,0.566-1.962,1.602-2.868l0.304-0.266l-0.382-0.128
		c-0.32-0.106-0.642-0.161-0.956-0.161c-1.256,0-2.191,0.845-2.94,1.523c-0.545,0.492-1.022,0.945-1.369,0.736
		c-0.344-0.206-0.639-0.653-0.981-1.17c-0.726-1.098-1.629-2.464-3.721-2.786l-0.82-0.126l0.638,0.531
		c2.773,2.313,0.361,6.542-0.894,8.363c-0.524-0.036-0.931-0.311-1.212-0.817c-0.764-1.38-0.422-4.021,0.371-5.29l0.247-0.396
		l-0.463,0.042c-1.492,0.136-2.307,1.426-3.027,2.565c-0.562,0.891-1.093,1.731-1.83,1.822c-0.72,0.093-0.954-0.548-1.262-1.651
		c-0.25-0.896-0.533-1.912-1.448-2.044l-0.264-0.038v0.267c0,1.978-0.847,3.938-2.234,6.945c-0.359,0.026-0.698-0.138-1.017-0.49
		c-1.489-1.646-2.001-6.558-1.83-8.278l0.052-0.514l-0.417,0.304c-1.808,1.314-1.53,3.71-1.306,5.636
		c0.097,0.834,0.189,1.626,0.095,2.192c-0.125,0.013-0.241,0.02-0.354,0.02c-1.155,0-1.993-0.637-3.893-2.958l-0.566-0.691
		l0.16,0.879c0.229,1.257-0.667,3.398-2.177,5.208c-1.118,1.339-2.291,2.139-3.138,2.139c-0.652,0-1.089-0.213-1.299-0.634
		c-0.495-0.991,0.232-2.946,1.946-5.23l0.481-0.644l-0.75,0.288c-2.749,1.067-5.403,4.333-7.123,7.273v274.568h649.365V542.042z"/>
	<path fill="#47662B" d="M650,837H0V562.028l0.043-0.074c0.814-1.392,3.747-6.04,7.273-7.396l1.78-0.685l-1.145,1.525
		c-1.615,2.154-2.349,4.031-1.916,4.898c0.057,0.113,0.23,0.459,1.016,0.459c0.742,0,1.852-0.776,2.894-2.023
		c1.431-1.715,2.317-3.796,2.108-4.949l-0.379-2.085l1.344,1.641c1.826,2.231,2.61,2.842,3.647,2.842
		c0.023,0,0.045-0.001,0.068-0.001c0.033-0.503-0.043-1.162-0.124-1.855c-0.234-2.01-0.523-4.507,1.435-5.931l0.989-0.72
		l-0.121,1.218c-0.163,1.629,0.343,6.479,1.749,8.033c0.196,0.217,0.388,0.341,0.583,0.378c1.319-2.868,2.116-4.767,2.116-6.619
		v-0.631l0.625,0.088c1.12,0.161,1.447,1.331,1.709,2.271c0.34,1.22,0.526,1.477,0.916,1.422c0.59-0.073,1.082-0.854,1.602-1.678
		c0.721-1.142,1.619-2.563,3.267-2.711l1.099-0.101l-0.584,0.937c-0.743,1.19-1.057,3.717-0.363,4.969
		c0.196,0.354,0.453,0.562,0.782,0.631c1.182-1.757,3.354-5.685,0.843-7.778l-1.516-1.261l1.95,0.3
		c2.229,0.343,3.215,1.833,3.936,2.921c0.326,0.492,0.601,0.907,0.881,1.076c0.002,0,0.004,0,0.006,0
		c0.213,0,0.605-0.356,0.921-0.641l0.066-0.061c0.747-0.677,1.771-1.605,3.153-1.605c0.347,0,0.702,0.06,1.056,0.177l0.908,0.304
		l-0.721,0.63c-0.965,0.845-1.523,1.822-1.494,2.617c0.012,0.311,0.115,0.542,0.308,0.688l0,0c0,0,0.083,0.05,0.34,0.05
		c0.945,0,2.557-0.661,3.359-1.609c0.432-0.511,0.603-1.05,0.51-1.607l-0.07-0.423l0.394-0.171c0.25-0.105,0.471-0.156,0.678-0.156
		c0.764,0,1.087,0.619,1.346,1.115c0.313,0.601,0.561,1.074,1.427,1.074c0.703,0,0.914-2.309,1.067-3.993
		c0.206-2.25,0.418-4.574,1.63-5.383l0.853-0.569v1.026c0,0.656-0.038,1.441-0.078,2.271c-0.176,3.604-0.069,5.436,0.313,5.5
		c0.438,0.073,0.881,0.251,1.352,0.441c0.662,0.267,1.408,0.567,2.184,0.567c0.565,0,1.099-0.156,1.634-0.477
		c0.854-0.513,0.78-1.136,0.545-2.386c-0.202-1.079-0.452-2.416,0.442-3.694l0.571-0.815l0.383,0.92
		c0.4,0.96,0.587,1.902,0.751,2.734c0.37,1.867,0.586,2.472,1.745,2.472c1.522,0,3.744-1.463,4.245-2.796
		c0.174-0.463,0.105-0.81-0.219-1.093l-0.837-0.731l1.091-0.219c1.11-0.223,2.143,0.401,2.708,1.629
		c0.463,1.008,0.634,2.523,0.169,3.716c2.112-0.158,3.978-2.191,4.318-3.556l0.12-0.479l0.489,0.067
		c0.657,0.095,1.216,0.516,1.544,1.135c1.541-1.761,3.762-3.83,6.139-4.515l1.832-0.526l-1.272,1.418
		c-1.796,2.006-2.69,3.813-2.333,4.715c0.046,0.117,0.188,0.476,0.973,0.544c0.029,0.003,0.061,0.004,0.093,0.004
		c0.843,0,2.109-0.815,3.307-2.129c1.387-1.522,2.287-3.327,2.187-4.386l-0.196-2.112l1.195,1.75
		c1.748,2.564,2.501,3.104,3.455,3.157c0.077-0.499,0.057-1.165,0.037-1.864c-0.058-2.021-0.131-4.534,1.944-5.782l1.048-0.629
		l-0.227,1.201c-0.315,1.668-0.223,6.63,1.1,8.224c0.19,0.229,0.358,0.323,0.493,0.361c1.563-2.742,2.522-4.565,2.683-6.414
		l0.054-0.631l0.616,0.146c1.103,0.257,1.326,1.451,1.506,2.412c0.222,1.188,0.378,1.495,0.758,1.495
		c0.622-0.022,1.179-0.754,1.769-1.528c0.821-1.079,1.838-2.418,3.493-2.423l1.104-0.005l-0.664,0.883
		c-0.844,1.121-1.375,3.61-0.792,4.916c0.164,0.37,0.402,0.6,0.725,0.699c1.33-1.649,3.834-5.372,1.513-7.677l-1.402-1.392
		l1.917,0.472c2.191,0.535,3.045,2.105,3.669,3.253c0.265,0.489,0.515,0.95,0.784,1.146c0.241-0.015,0.645-0.304,1.006-0.579
		c0.83-0.629,1.808-1.37,3.056-1.37c0.437,0,0.875,0.095,1.305,0.28l0.878,0.379l-0.771,0.567c-1.036,0.758-1.676,1.684-1.716,2.478
		c-0.011,0.215,0.023,0.513,0.248,0.713l0,0c0.001,0,0.124,0.087,0.534,0.087c1.004,0,2.527-0.494,3.375-1.412
		c0.413-0.445,0.601-0.938,0.56-1.467l-0.035-0.429l0.41-0.135c0.208-0.067,0.395-0.101,0.571-0.101c0.849,0,1.144,0.713,1.36,1.232
		c0.259,0.625,0.464,1.118,1.328,1.193c0,0,0,0,0,0c0.71,0,1.112-2.237,1.407-3.874c0.402-2.234,0.814-4.531,2.093-5.231
		l0.899-0.493l-0.089,1.022c-0.06,0.677-0.172,1.506-0.281,2.308c-0.479,3.525-0.532,5.358-0.158,5.456
		c0.426,0.109,0.851,0.325,1.299,0.552c0.721,0.365,1.519,0.771,2.395,0.771c0.473,0,0.933-0.113,1.41-0.345
		c0.895-0.437,0.875-1.063,0.75-2.327c-0.107-1.093-0.241-2.446,0.76-3.642l0.641-0.764l0.302,0.95
		c0.316,0.994,0.421,1.947,0.512,2.79c0.207,1.891,0.37,2.51,1.524,2.61c1.558,0.13,3.961-1.216,4.502-2.487
		c0.176-0.413,0.127-0.743-0.155-1.038l-0.771-0.801l1.104-0.123c0.831-0.092,1.531,0.229,2.05,0.903
		c0.411,0.535,0.678,1.278,0.762,2.085c1.603-1.872,3.854-3.987,6.289-4.69l1.831-0.524l-1.27,1.418
		c-0.917,1.024-1.606,2.013-2.006,2.859l0.004,0.001c0.935,0.219,1.576,1.096,1.64,2.171c2.098-0.946,4.755-4.495,4.589-6.286
		l-0.196-2.109l1.195,1.75c1.738,2.547,2.445,3.099,3.455,3.154c0.077-0.498,0.057-1.165,0.037-1.864
		c-0.058-2.02-0.13-4.532,1.942-5.781l1.05-0.633l-0.228,1.204c-0.314,1.668-0.221,6.628,1.102,8.223
		c0.19,0.229,0.358,0.324,0.493,0.36c1.563-2.743,2.522-4.568,2.682-6.413l0.055-0.63l0.615,0.144
		c1.102,0.256,1.326,1.449,1.506,2.409c0.224,1.19,0.38,1.498,0.76,1.498c0.621-0.023,1.178-0.755,1.768-1.53
		c0.819-1.078,1.836-2.417,3.491-2.423l1.104-0.003l-0.664,0.882c-0.843,1.12-1.375,3.609-0.792,4.918
		c0.164,0.368,0.402,0.598,0.725,0.696c1.33-1.648,3.835-5.374,1.513-7.676l-1.402-1.39l1.918,0.468
		c2.195,0.535,3.047,2.106,3.67,3.255c0.279,0.514,0.518,0.952,0.784,1.146c0.201-0.005,0.635-0.299,0.992-0.568l0.058-0.044
		c0.785-0.596,1.763-1.337,3.013-1.337c0.437,0,0.875,0.093,1.304,0.278l0.878,0.383l-0.772,0.564
		c-1.035,0.759-1.676,1.685-1.714,2.479c-0.012,0.215,0.022,0.512,0.247,0.711l0,0c0,0,0.12,0.089,0.533,0.089
		c1.019,0,2.559-0.528,3.375-1.413c0.412-0.446,0.599-0.939,0.558-1.467l-0.035-0.431l0.411-0.134
		c0.207-0.067,0.394-0.101,0.569-0.101c0.849,0,1.145,0.712,1.361,1.232c0.26,0.623,0.464,1.118,1.328,1.193l0,0
		c0.71,0,1.113-2.244,1.408-3.883c0.398-2.224,0.811-4.521,2.09-5.223l0.899-0.491l-0.089,1.019
		c-0.06,0.693-0.177,1.552-0.282,2.311c-0.479,3.522-0.531,5.356-0.156,5.454c0.428,0.109,0.854,0.326,1.305,0.556
		c0.713,0.36,1.513,0.768,2.39,0.768c0.475-0.001,0.937-0.114,1.41-0.345c0.896-0.437,0.876-1.065,0.75-2.329
		c-0.108-1.09-0.243-2.446,0.759-3.643l0.641-0.764l0.303,0.95c0.314,0.988,0.419,1.94,0.512,2.779
		c0.061,0.556,0.119,1.049,0.219,1.448c0.918,0.15,1.697,0.503,2.375,1.078c1.467-0.338,3.016-1.409,3.435-2.395
		c0.175-0.412,0.125-0.743-0.155-1.036l-0.771-0.805l1.105-0.12c1.1-0.126,2.002,0.49,2.494,1.691
		c0.403,0.983,0.446,2.254,0.143,3.281c0.448-0.042,0.891,0.014,1.341,0.163l0.2,0.067c1.429-0.618,2.523-1.892,2.835-2.799
		l0.16-0.467l0.483,0.112c0.646,0.149,1.166,0.617,1.439,1.265c0.846-0.811,2.014-1.82,3.316-2.626
		c0.264-1.256,0.662-2.024,1.248-2.416l0.853-0.569v1.025c0,0.286-0.007,0.6-0.019,0.93c0.382-0.138,0.753-0.242,1.109-0.312
		l1.873-0.367l-1.392,1.305c-0.67,0.629-1.242,1.257-1.702,1.864c-0.042,1.061-0.072,2.342,0.037,3.274
		c0.945,0.045,2.436-0.827,3.792-2.192c1.338-1.346,2.199-2.85,2.193-3.83l-0.014-2.117l1.041,1.845
		c1.496,2.662,2.17,3.3,3.168,3.442c0.12-0.491,0.159-1.155,0.199-1.853c0.117-2.02,0.263-4.53,2.437-5.594l1.099-0.539
		l-0.331,1.179c-0.306,1.097-0.555,3.74-0.323,5.852l0.956-0.191c0.685-0.137,1.347,0.044,1.884,0.506
		c0.912-1.48,1.367-2.552,1.556-3.632l0.109-0.621l0.601,0.194c1.077,0.352,1.196,1.561,1.292,2.532
		c0.121,1.232,0.25,1.539,0.657,1.56l0,0c0.616,0,1.223-0.67,1.865-1.376c0.952-1.051,2.046-2.254,3.686-2.108l1.1,0.093
		l-0.738,0.82c-0.629,0.699-1.134,1.951-1.294,3.107c1.255-1.213,2.483-2.104,3.664-2.654c0.077-0.902-0.175-1.702-0.752-2.382
		l-1.274-1.505l1.869,0.631c2.138,0.726,2.853,2.365,3.373,3.562c0.232,0.533,0.433,0.993,0.681,1.207c0.261,0,0.688-0.261,1.07-0.5
		c0.224-0.142,0.439-0.275,0.662-0.402c0.207-0.546,0.298-1.026,0.264-1.395l-0.197-2.111l1.195,1.751
		c0.272,0.399,0.521,0.751,0.754,1.063c0.587-0.043,1.184,0.094,1.745,0.396l0.843,0.454l-0.818,0.497
		c-0.12,0.071-0.235,0.148-0.354,0.232c0.416,0.329,0.807,0.482,1.285,0.513c0.077-0.499,0.057-1.165,0.037-1.864
		c-0.058-2.021-0.131-4.534,1.945-5.782l1.047-0.63l-0.226,1.203c-0.245,1.297-0.237,4.308,0.309,6.424
		c0.774,0.122,1.002,0.838,1.157,1.328c0.076,0.238,0.146,0.448,0.242,0.629c1.495-2.63,2.412-4.408,2.567-6.21l0.055-0.63
		l0.616,0.145c0.216,0.05,0.409,0.142,0.58,0.273c0.417-0.888,0.88-1.423,1.437-1.669l0.938-0.412l-0.176,1.01
		c-0.111,0.635-0.28,1.386-0.458,2.181l-0.022,0.098c-0.147,0.65-0.316,1.399-0.46,2.139c0.125,0.239,0.258,0.29,0.427,0.29
		c0.622-0.023,1.179-0.755,1.769-1.529c0.821-1.079,1.838-2.417,3.493-2.423l1.104-0.004l-0.664,0.883
		c-0.844,1.12-1.375,3.609-0.792,4.916c0.11,0.25,0.258,0.435,0.445,0.558c0-0.082-0.001-0.165-0.002-0.252
		c-0.014-1.096-0.029-2.456,1.071-3.561l0.705-0.705l0.218,0.973c0.062,0.27,0.105,0.531,0.139,0.78
		c0.93-2.022,0.817-3.625-0.337-4.771l-1.402-1.393l1.917,0.472c2.191,0.534,3.045,2.105,3.669,3.253
		c0.266,0.489,0.516,0.95,0.784,1.146c0.225-0.013,0.644-0.303,1.007-0.579c0.829-0.629,1.808-1.37,3.055-1.37
		c0.437,0,0.875,0.094,1.306,0.279l0.878,0.381l-0.771,0.566c-1.036,0.758-1.677,1.685-1.715,2.479
		c-0.012,0.215,0.023,0.512,0.248,0.713l0,0c0,0,0.124,0.086,0.534,0.086c1.003,0,2.527-0.494,3.375-1.412
		c0.412-0.445,0.6-0.938,0.559-1.466l-0.035-0.429l0.409-0.135c0.208-0.068,0.395-0.102,0.572-0.102
		c0.849,0,1.144,0.713,1.359,1.232c0.26,0.624,0.465,1.119,1.328,1.194c0,0,0,0,0,0c0.71,0,1.112-2.239,1.408-3.875
		c0.401-2.233,0.813-4.53,2.093-5.231l0.899-0.492l-0.091,1.022c-0.06,0.677-0.171,1.505-0.28,2.308
		c-0.48,3.525-0.532,5.357-0.158,5.455c0.426,0.11,0.85,0.325,1.299,0.553c0.72,0.365,1.519,0.771,2.395,0.771
		c0.472,0,0.934-0.113,1.41-0.345c0.895-0.438,0.875-1.063,0.75-2.327c-0.108-1.094-0.241-2.447,0.76-3.643l0.64-0.764l0.303,0.95
		c0.316,0.995,0.42,1.948,0.512,2.79c0.158,1.445,0.299,2.159,0.9,2.451c0.164-0.115,0.331-0.212,0.504-0.295l1.105-0.523
		l-0.278,0.949c1.514-0.214,3.327-1.358,3.796-2.46c0.175-0.412,0.127-0.743-0.156-1.037l-0.771-0.8l1.104-0.124
		c0.833-0.091,1.531,0.229,2.049,0.903c0.411,0.534,0.679,1.277,0.763,2.085c1.604-1.873,3.855-3.987,6.289-4.689l1.831-0.525
		l-1.271,1.418c-0.918,1.023-1.606,2.013-2.006,2.859l0.004,0.001c0.936,0.219,1.576,1.096,1.641,2.172
		c2.099-0.947,4.756-4.496,4.589-6.286l-0.197-2.111l1.196,1.751c1.736,2.548,2.446,3.1,3.454,3.154
		c0.077-0.509,0.057-1.195,0.038-1.864c-0.06-2.02-0.131-4.532,1.943-5.781l1.047-0.633l-0.226,1.203
		c-0.314,1.667-0.222,6.628,1.101,8.224c0.191,0.229,0.357,0.323,0.492,0.36c1.558-2.734,2.52-4.533,2.684-6.413l0.056-0.63
		l0.615,0.145c1.101,0.255,1.325,1.448,1.505,2.408c0.225,1.191,0.381,1.499,0.76,1.499c0.621-0.023,1.179-0.756,1.769-1.532
		c0.818-1.076,1.836-2.416,3.49-2.421l1.105-0.003l-0.665,0.881c-0.844,1.121-1.375,3.61-0.792,4.918
		c0.165,0.369,0.403,0.598,0.726,0.697c1.33-1.649,3.835-5.375,1.514-7.677l-1.402-1.39l1.918,0.468
		c2.195,0.536,3.048,2.107,3.67,3.255c0.28,0.517,0.52,0.952,0.784,1.146c0.219,0.001,0.633-0.298,0.989-0.569l0.061-0.044
		c0.785-0.596,1.762-1.337,3.012-1.337c0.438,0,0.877,0.093,1.305,0.278l0.879,0.382l-0.773,0.564
		c-1.034,0.759-1.676,1.686-1.714,2.479c-0.012,0.214,0.023,0.512,0.247,0.711l0,0c0.001,0,0.121,0.088,0.534,0.088
		c1.019,0,2.559-0.528,3.375-1.412c0.412-0.447,0.601-0.939,0.559-1.467l-0.035-0.431l0.41-0.135
		c0.207-0.066,0.394-0.101,0.57-0.101c0.848,0,1.145,0.713,1.36,1.232c0.26,0.624,0.464,1.118,1.328,1.193l0,0
		c0.71,0,1.114-2.242,1.408-3.88c0.399-2.227,0.81-4.523,2.091-5.225l0.899-0.492l-0.091,1.021c-0.06,0.692-0.177,1.551-0.279,2.31
		c-0.479,3.523-0.532,5.356-0.156,5.453c0.429,0.111,0.854,0.327,1.306,0.557c0.711,0.36,1.511,0.767,2.389,0.767
		c0.475-0.001,0.937-0.113,1.41-0.345c0.896-0.437,0.875-1.064,0.75-2.329c-0.109-1.089-0.244-2.444,0.759-3.641l0.64-0.764
		l0.304,0.949c0.315,0.992,0.42,1.946,0.513,2.789c0.205,1.893,0.369,2.513,1.523,2.613c1.556,0.128,3.959-1.215,4.504-2.489
		c0.174-0.413,0.126-0.743-0.156-1.037l-0.77-0.804l1.104-0.121c1.108-0.126,2.001,0.49,2.495,1.691
		c0.429,1.05,0.509,2.674-0.091,3.883c0.02,0.001,0.039,0.001,0.059,0.001c2.229,0,4.105-1.875,4.551-3.171l0.161-0.466l0.481,0.111
		c0.646,0.149,1.168,0.616,1.44,1.265c1.688-1.624,4.081-3.492,6.507-3.968l1.871-0.366l-1.391,1.303
		c-1.963,1.846-3.009,3.568-2.732,4.496c0.099,0.331,0.4,0.537,0.922,0.628c0.922,0.152,2.509-0.739,3.937-2.177
		c1.338-1.348,2.199-2.85,2.193-3.831l-0.014-2.118l1.04,1.846c1.496,2.662,2.17,3.3,3.169,3.441
		c0.119-0.489,0.158-1.152,0.198-1.851c0.118-2.021,0.265-4.531,2.438-5.595l1.099-0.539l-0.331,1.179
		c-0.459,1.64-0.787,6.746,0.428,8.349c0.133,0.173,0.268,0.284,0.416,0.341c1.789-2.585,2.902-4.293,3.229-6.155l0.108-0.622
		l0.601,0.195c1.075,0.352,1.195,1.56,1.291,2.53c0.12,1.234,0.251,1.541,0.657,1.561l0,0c0.616,0,1.224-0.669,1.864-1.375
		c0.951-1.05,2.036-2.245,3.687-2.108l1.1,0.093l-0.737,0.82c-0.938,1.045-1.683,3.478-1.216,4.831
		c0.132,0.382,0.35,0.63,0.662,0.757c1.469-1.526,4.287-5.019,2.171-7.518l-1.273-1.505l1.868,0.631
		c2.138,0.726,2.853,2.365,3.373,3.562c0.223,0.51,0.433,0.992,0.681,1.208c0.005,0,0.011,0,0.015,0c0.259,0,0.68-0.267,1.053-0.5
		c0.802-0.504,1.754-1.103,2.878-1.103c0.528,0,1.048,0.136,1.546,0.404l0.845,0.454l-0.819,0.496
		c-1.099,0.667-1.817,1.535-1.925,2.322c-0.041,0.31,0.021,0.555,0.184,0.73c0.039,0.035,0.279,0.145,0.812,0.145
		c1.305,0,3.868-0.766,3.881-2.537l0.004-0.43l0.419-0.1c1.28-0.3,1.629,0.675,1.825,1.29c0.206,0.649,0.367,1.159,1.221,1.31
		c0.001,0,0.002,0,0.002,0c0.724,0,1.308-2.156,1.733-3.731c0.595-2.196,1.204-4.45,2.539-5.039l0.938-0.411l-0.176,1.009
		c-0.11,0.63-0.277,1.373-0.454,2.16l-0.026,0.119c-0.782,3.466-0.994,5.288-0.63,5.416c0.422,0.148,0.828,0.402,1.256,0.67
		c0.739,0.462,1.575,0.98,2.561,0.98c0.384,0,0.781-0.078,1.183-0.232c0.93-0.357,0.964-0.984,0.948-2.256
		c-0.014-1.098-0.028-2.457,1.071-3.563l0.704-0.705l0.219,0.972c0.229,1.02,0.252,1.979,0.269,2.825
		c0.042,1.901,0.151,2.532,1.293,2.733c1.593,0.273,4.145-0.92,4.732-2.15c0.178-0.37,0.146-0.684-0.097-0.985l-0.698-0.866
		l1.166-0.026c1.023,0,1.836,0.635,2.232,1.742c0.405,1.125,0.348,2.833-0.374,4.021c2.042,0.211,4.231-1.329,4.867-2.759
		l0.201-0.451l0.469,0.151c0.637,0.207,1.109,0.709,1.323,1.385c1.115-0.665,2.176-1.094,3.16-1.274l1.872-0.343l-1.401,1.284
		c-1.984,1.821-3.053,3.532-2.786,4.464c0.096,0.331,0.396,0.541,0.915,0.638c0.071,0.014,0.147,0.02,0.227,0.02
		c2.109,0,5.96-3.841,5.971-5.956l0.012-2.122l1.019,1.861c1.467,2.681,2.132,3.326,3.13,3.479c0.127-0.499,0.174-1.184,0.22-1.85
		c0.142-2.019,0.314-4.526,2.501-5.566l1.104-0.523l-0.343,1.174c-0.479,1.638-0.865,6.745,0.336,8.356
		c0.128,0.172,0.261,0.283,0.409,0.341c1.823-2.574,2.957-4.295,3.298-6.118l0.115-0.62l0.598,0.2
		c1.073,0.365,1.179,1.576,1.263,2.551c0.108,1.232,0.234,1.54,0.64,1.564l0.061,0.002c0.563-0.001,1.175-0.659,1.821-1.355
		c0.913-0.984,2.066-2.216,3.71-2.065l1.097,0.105l-0.745,0.811c-0.95,1.032-1.723,3.458-1.27,4.817
		c0.128,0.384,0.342,0.636,0.65,0.764c1.486-1.511,4.343-4.971,2.259-7.489l-1.256-1.521l1.86,0.652
		c2.13,0.745,2.824,2.394,3.333,3.597c0.216,0.514,0.421,0.997,0.669,1.217c0.249,0.003,0.695-0.254,1.077-0.489
		c0.79-0.484,1.738-1.067,2.852-1.067c0.541,0,1.071,0.143,1.574,0.42l0.838,0.465l-0.824,0.487
		c-1.104,0.652-1.834,1.512-1.949,2.298c-0.032,0.213-0.027,0.515,0.175,0.732c0.041,0.04,0.292,0.155,0.854,0.155
		c1.289,0,3.833-0.754,3.867-2.493l0.008-0.432l0.421-0.093c0.156-0.035,0.299-0.052,0.434-0.052c0.962,0,1.211,0.822,1.378,1.365
		c0.197,0.648,0.353,1.159,1.204,1.319c0.02,0.004,0.043,0.007,0.066,0.007c0.659,0,1.27-2.158,1.717-3.735
		c0.614-2.173,1.25-4.419,2.592-4.99l0.942-0.402l-0.188,1.008c-0.127,0.676-0.32,1.486-0.507,2.27
		c-0.823,3.459-1.056,5.279-0.692,5.412c0.421,0.154,0.843,0.424,1.251,0.685c0.74,0.472,1.579,1.008,2.581,1.008
		c0.373,0,0.76-0.074,1.151-0.22c0.936-0.348,0.976-0.974,0.976-2.246c-0.002-1.095-0.002-2.456,1.113-3.548l0.71-0.698l0.208,0.975
		c0.216,1.014,0.227,1.973,0.236,2.819c0.021,1.909,0.122,2.542,1.26,2.755c0.172,0.031,0.357,0.047,0.553,0.047
		c1.599-0.001,3.684-1.066,4.208-2.15c0.178-0.366,0.15-0.677-0.088-0.979l-0.688-0.875l1.111-0.013c1.06,0,1.86,0.619,2.257,1.745
		c0.4,1.137,0.329,2.854-0.41,4.037c2.027,0.243,4.25-1.286,4.899-2.702l0.205-0.45l0.469,0.159c0.628,0.213,1.1,0.728,1.309,1.399
		c1.838-1.448,4.397-3.074,6.863-3.311l1.9-0.183l-1.514,1.163c-2.134,1.641-3.346,3.252-3.16,4.204
		c0.065,0.34,0.345,0.573,0.854,0.716c0.106,0.029,0.229,0.044,0.362,0.044c2.184,0,6.14-3.395,6.326-5.42l0.197-2.111l0.852,1.941
		c1.23,2.794,1.837,3.496,2.817,3.735c0.17-0.485,0.277-1.165,0.381-1.825c0.314-1.997,0.705-4.481,2.973-5.327l1.146-0.426
		l-0.442,1.139c-0.62,1.592-1.445,6.648-0.389,8.354c0.114,0.184,0.236,0.305,0.378,0.375c2.041-2.407,3.319-4.022,3.816-5.808
		l0.17-0.611l0.579,0.255c1.036,0.454,1.036,1.67,1.036,2.646c0,1.239,0.099,1.557,0.502,1.616c0.597,0.091,1.26-0.523,1.975-1.17
		c0.94-0.853,1.988-1.801,3.357-1.801c0.177,0,0.356,0.016,0.535,0.05l1.084,0.198l-0.813,0.745
		c-1.037,0.946-2.017,3.294-1.683,4.688c0.092,0.393,0.284,0.662,0.584,0.819c1.61-1.376,4.757-4.576,2.897-7.267l-1.119-1.623
		l1.796,0.81c2.056,0.929,2.606,2.63,3.008,3.872c0.172,0.534,0.332,1.033,0.562,1.274c0.013,0.012,0.05,0.013,0.066,0.013
		c0.231,0,0.662-0.215,1.077-0.422c0.728-0.363,1.629-0.814,2.624-0.814c0.646,0,1.256,0.192,1.814,0.569l0.793,0.534l-0.861,0.415
		c-1.158,0.555-1.96,1.348-2.143,2.121c-0.05,0.209-0.07,0.507,0.112,0.744c0.066,0.076,0.472,0.245,1.233,0.245
		c1.383-0.001,3.503-0.577,3.673-2.165l0.045-0.429l0.427-0.057c1.371-0.192,1.547,0.802,1.68,1.428
		c0.148,0.701,0.259,1.226,1.096,1.458c0.032,0.008,0.063,0.014,0.091,0.014c0.653,0,1.437-2.065,2.008-3.573
		c0.802-2.111,1.63-4.295,3.018-4.748l0.974-0.318l-0.276,0.988c-0.184,0.656-0.445,1.447-0.7,2.211
		c-1.123,3.377-1.514,5.173-1.161,5.337c0.399,0.187,0.777,0.476,1.177,0.78c0.768,0.591,1.624,1.25,2.753,1.25
		c0.288,0,0.595-0.044,0.909-0.131c0.961-0.264,1.057-0.886,1.166-2.152c0.094-1.092,0.212-2.447,1.415-3.438l0.772-0.635
		l0.119,0.991c0.128,1.032,0.057,1.989-0.01,2.835c-0.145,1.898-0.098,2.537,1.018,2.849c0.265,0.072,0.565,0.11,0.894,0.11
		c1.604-0.001,3.542-0.88,4.062-1.846c0.178-0.328,0.167-0.621-0.033-0.929l-0.61-0.932l1.11,0.084
		c0.762,0.057,1.376,0.446,1.772,1.128c0.354,0.611,0.506,1.456,0.436,2.328c1.921-1.548,4.524-3.214,7.047-3.455l1.897-0.182
		l-1.512,1.162c-1.089,0.839-1.947,1.683-2.496,2.442l0.004,0.002c0.879,0.385,1.349,1.365,1.213,2.437
		c2.274-0.54,5.496-3.502,5.666-5.336l0.194-2.109l0.855,1.939c1.229,2.794,1.837,3.497,2.816,3.735
		c0.171-0.486,0.276-1.164,0.38-1.823c0.314-1.998,0.705-4.482,2.974-5.329l1.148-0.429l-0.445,1.141
		c-0.618,1.592-1.443,6.648-0.388,8.354c0.114,0.183,0.236,0.305,0.378,0.375c2.042-2.41,3.32-4.027,3.816-5.808l0.17-0.611
		l0.578,0.255c1.037,0.453,1.037,1.669,1.038,2.646c0.001,1.239,0.099,1.556,0.502,1.615c0.203,0.031,0.414-0.015,0.671-0.148
		l0.759-0.409V837z M0.635,836.365h648.73V542.561c-0.312,0.136-0.6,0.178-0.892,0.138c-1.044-0.154-1.044-1.216-1.044-2.243
		c-0.001-0.988-0.044-1.719-0.569-2.021c-0.56,1.904-1.911,3.588-4.052,6.109l-0.118,0.145l-0.185-0.038
		c-0.389-0.075-0.711-0.319-0.961-0.719c-1.156-1.869-0.407-6.806,0.268-8.733c-1.763,0.789-2.108,2.983-2.389,4.758
		c-0.134,0.853-0.26,1.658-0.522,2.223l-0.101,0.219l-0.238-0.039c-1.531-0.255-2.228-1.206-3.424-3.889
		c-0.493,2.22-4.194,5.456-6.626,5.689l-0.467,0.045l0.132-0.45c0.265-0.906-0.025-1.784-0.689-2.124
		c-0.127,0.21-0.292,0.425-0.49,0.64l-0.934,1.009l0.396-1.315c0.322-1.071,1.41-2.378,3.073-3.701
		c-2.564,0.369-5.229,2.26-7.043,3.814l-0.755,0.647l0.241-0.965c0.251-1.003,0.164-2.045-0.228-2.719
		c-0.26-0.446-0.631-0.713-1.102-0.793c0.238,0.459,0.229,0.946-0.03,1.424c-0.637,1.18-2.753,2.179-4.62,2.18
		c-0.385,0-0.744-0.045-1.064-0.134c-1.71-0.479-1.608-1.813-1.479-3.506c0.06-0.771,0.125-1.639,0.032-2.549
		c-0.885,0.808-0.976,1.867-1.064,2.895c-0.104,1.192-0.199,2.318-1.629,2.711c-0.369,0.101-0.732,0.152-1.078,0.152
		c-1.344,0-2.333-0.76-3.128-1.372c-0.383-0.291-0.732-0.56-1.069-0.718c-0.886-0.412-0.439-2.3,0.827-6.112
		c0.229-0.69,0.465-1.403,0.643-2.012c-1.019,0.502-1.784,2.517-2.462,4.305c-0.836,2.204-1.599,4.275-2.858,3.947
		c-1.21-0.338-1.394-1.204-1.543-1.899c-0.163-0.777-0.292-1.039-0.915-0.978c-0.265,1.951-2.703,2.663-4.297,2.664
		c-0.851,0-1.499-0.185-1.736-0.493c-0.265-0.345-0.343-0.786-0.226-1.278c0.219-0.924,1.091-1.842,2.346-2.479
		c-0.416-0.251-0.864-0.378-1.331-0.378c-0.846,0-1.675,0.414-2.34,0.747c-0.528,0.263-0.981,0.489-1.363,0.489
		c-0.271,0-0.437-0.116-0.527-0.213c-0.327-0.344-0.5-0.886-0.701-1.511c-0.385-1.19-0.818-2.529-2.394-3.357
		c1.851,3.139-1.686,6.607-3.329,7.978l-0.14,0.117l-0.171-0.06c-0.595-0.211-0.992-0.676-1.15-1.341
		c-0.383-1.601,0.604-4.031,1.743-5.179c-1.219-0.139-2.262,0.792-3.161,1.607c-0.848,0.768-1.631,1.47-2.511,1.345
		c-1.046-0.156-1.046-1.219-1.046-2.245c0-0.988-0.04-1.72-0.566-2.021c-0.563,1.91-1.914,3.592-4.054,6.11l-0.12,0.144
		l-0.183-0.038c-0.389-0.076-0.713-0.318-0.96-0.719c-1.158-1.869-0.407-6.806,0.269-8.733c-1.763,0.787-2.109,2.979-2.389,4.753
		c-0.135,0.857-0.261,1.662-0.524,2.229l-0.103,0.218l-0.237-0.039c-1.532-0.257-2.227-1.207-3.423-3.888
		c-0.515,2.35-4.495,5.7-6.905,5.7c-0.198,0-0.378-0.023-0.54-0.067c-0.938-0.262-1.229-0.8-1.308-1.206
		c-0.23-1.183,0.913-2.863,3.149-4.636c-2.539,0.372-5.223,2.31-6.626,3.462l-0.463,0.382l-0.053-0.599
		c-0.06-0.659-0.398-1.168-0.915-1.375c-0.723,1.473-2.879,3.024-5.012,3.025c-0.363,0-0.723-0.045-1.066-0.133l-0.505-0.129
		l0.347-0.39c0.866-0.974,0.99-2.749,0.605-3.836c-0.198-0.565-0.615-1.231-1.478-1.313c0.293,0.458,0.313,0.974,0.058,1.5
		c-0.638,1.312-2.916,2.507-4.78,2.508c-0.233,0-0.459-0.02-0.667-0.058c-1.749-0.328-1.763-1.669-1.781-3.365
		c-0.009-0.779-0.017-1.646-0.189-2.542c-0.811,0.884-0.811,1.947-0.81,2.978c0,1.195,0.002,2.323-1.389,2.842
		c-0.462,0.173-0.923,0.258-1.371,0.258c-1.188,0-2.11-0.588-2.923-1.106c-0.396-0.253-0.771-0.492-1.127-0.622
		c-0.915-0.335-0.636-2.252,0.293-6.155c0.169-0.71,0.344-1.441,0.467-2.067c-0.971,0.587-1.558,2.661-2.078,4.501
		c-0.611,2.159-1.189,4.197-2.327,4.197c-0.058,0-0.116-0.005-0.178-0.016c-1.236-0.231-1.495-1.078-1.702-1.759
		c-0.22-0.723-0.379-1.014-1-0.894c-0.104,2.277-3.122,3.046-4.499,3.046c-0.641,0-1.109-0.129-1.321-0.361
		c-0.294-0.318-0.41-0.753-0.334-1.256c0.14-0.938,0.929-1.929,2.121-2.67c-0.366-0.18-0.748-0.271-1.133-0.271
		c-0.934,0-1.798,0.531-2.492,0.957c-0.547,0.335-0.995,0.611-1.39,0.611c-0.181,0-0.342-0.059-0.467-0.171
		c-0.357-0.315-0.577-0.839-0.834-1.445c-0.485-1.151-1.033-2.446-2.675-3.135c2.115,2.966-1.107,6.728-2.625,8.236l-0.128,0.127
		l-0.175-0.044c-0.608-0.156-1.044-0.583-1.261-1.232c-0.521-1.564,0.251-4.07,1.286-5.313c-1.241-0.06-2.183,0.984-3.013,1.874
		c-0.743,0.802-1.444,1.558-2.295,1.558l-0.081-0.002c-1.059-0.063-1.15-1.121-1.24-2.144c-0.087-0.984-0.192-1.709-0.74-1.966
		c-0.395,1.951-1.596,3.743-3.507,6.438l-0.108,0.152l-0.187-0.021c-0.395-0.044-0.736-0.258-1.019-0.635
		c-1.314-1.765-0.993-6.747-0.488-8.724c-1.689,0.938-1.844,3.155-1.97,4.946c-0.059,0.861-0.113,1.675-0.328,2.262l-0.084,0.227
		l-0.239-0.02c-1.549-0.12-2.323-1.008-3.746-3.577c-0.331,2.606-4.643,6.668-6.928,6.258c-0.957-0.18-1.295-0.689-1.41-1.087
		c-0.331-1.159,0.665-2.934,2.737-4.895c-0.933,0.221-1.944,0.678-3.016,1.36l-0.421,0.269l-0.064-0.495
		c-0.081-0.625-0.423-1.104-0.919-1.299c-0.713,1.501-2.872,3.081-5.029,3.081c-0.343,0-0.684-0.04-1.014-0.119l-0.507-0.122
		l0.341-0.395c0.85-0.979,0.958-2.748,0.569-3.824c-0.206-0.576-0.633-1.257-1.502-1.317c0.302,0.46,0.326,0.979,0.069,1.514
		c-0.639,1.335-2.925,2.552-4.797,2.552c-0.215,0-0.422-0.017-0.619-0.051c-1.751-0.308-1.78-1.648-1.817-3.346
		c-0.016-0.771-0.035-1.639-0.219-2.539c-0.8,0.893-0.788,1.956-0.775,2.985c0.014,1.198,0.027,2.327-1.356,2.859
		c-0.474,0.183-0.948,0.275-1.411,0.275c-1.167,0-2.084-0.57-2.894-1.074c-0.402-0.251-0.78-0.486-1.135-0.611
		c-0.92-0.324-0.662-2.243,0.223-6.155l0.025-0.118c0.159-0.706,0.311-1.379,0.417-1.955c-0.964,0.599-1.527,2.68-2.026,4.525
		c-0.617,2.279-1.224,4.419-2.461,4.208c-1.233-0.217-1.501-1.061-1.716-1.739c-0.229-0.722-0.396-1.004-1.011-0.882
		c-0.077,2.188-2.966,3.098-4.515,3.098c-0.611,0-1.064-0.122-1.274-0.345c-0.298-0.318-0.419-0.751-0.351-1.251
		c0.128-0.941,0.906-1.942,2.092-2.697c-0.361-0.172-0.733-0.26-1.107-0.26c-0.942,0-1.81,0.544-2.505,0.983
		c-0.554,0.349-1.001,0.63-1.397,0.63c-0.177,0-0.335-0.058-0.461-0.166c-0.356-0.31-0.584-0.832-0.847-1.436
		c-0.498-1.145-1.06-2.435-2.711-3.107c2.151,2.946-1.029,6.743-2.531,8.266l-0.126,0.129l-0.174-0.042
		c-0.612-0.15-1.054-0.572-1.276-1.219c-0.539-1.556,0.205-4.072,1.227-5.328c-1.229-0.004-2.171,1.007-2.986,1.907
		c-0.744,0.818-1.442,1.588-2.302,1.588l-0.069-0.002c-1.051-0.052-1.155-1.108-1.256-2.13c-0.098-0.983-0.211-1.706-0.763-1.955
		c-0.372,1.956-1.551,3.763-3.434,6.479l-0.106,0.152l-0.186-0.017c-0.397-0.04-0.744-0.251-1.031-0.628
		c-1.331-1.755-1.066-6.732-0.583-8.713c-1.678,0.958-1.807,3.175-1.912,4.967c-0.05,0.867-0.097,1.682-0.303,2.266l-0.081,0.227
		l-0.24-0.016c-1.549-0.104-2.334-0.981-3.787-3.533c-0.131,1.131-1.009,2.625-2.36,3.983c-1.605,1.616-3.374,2.551-4.496,2.354
		c-0.96-0.167-1.303-0.674-1.421-1.071c-0.345-1.152,0.63-2.939,2.68-4.925c-2.486,0.619-4.966,2.812-6.254,4.095l-0.425,0.425
		l-0.111-0.59c-0.123-0.65-0.513-1.124-1.046-1.28c-0.552,1.469-2.647,3.524-5.123,3.524c-0.217,0-0.432-0.017-0.64-0.049
		l-0.512-0.08l0.304-0.419c0.728-1.004,0.719-2.686,0.291-3.729c-0.245-0.599-0.728-1.313-1.633-1.313
		c-0.012,0-0.021,0.001-0.033,0.001c0.357,0.454,0.415,1.001,0.164,1.59c-0.651,1.531-3.295,3.036-5.142,2.873
		c-1.772-0.154-1.917-1.488-2.1-3.177c-0.085-0.767-0.179-1.631-0.438-2.509c-0.721,0.959-0.615,2.02-0.514,3.044
		c0.119,1.189,0.229,2.314-1.104,2.963c-0.562,0.274-1.113,0.409-1.687,0.41c-1.029,0-1.901-0.442-2.671-0.834
		c-0.425-0.216-0.82-0.417-1.181-0.51c-0.945-0.243-0.855-2.177-0.314-6.149c0.093-0.692,0.198-1.464,0.262-2.107
		c-0.91,0.681-1.289,2.802-1.628,4.684c-0.407,2.27-0.792,4.408-2.005,4.408l-0.082-0.004c-1.249-0.108-1.588-0.926-1.86-1.581
		c-0.301-0.725-0.484-0.965-1.083-0.792c0.036,0.684-0.209,1.314-0.729,1.878c-0.968,1.049-2.702,1.616-3.841,1.616
		c-0.56,0-0.829-0.136-0.957-0.25c-0.325-0.291-0.484-0.711-0.458-1.217c0.045-0.947,0.733-2.012,1.85-2.866
		c-0.303-0.114-0.608-0.172-0.912-0.172c-1.037,0-1.919,0.671-2.629,1.208l-0.061,0.045c-0.499,0.378-0.931,0.704-1.34,0.704
		c-0.15,0-0.286-0.043-0.405-0.129c-0.384-0.277-0.651-0.772-0.965-1.346c-0.602-1.107-1.272-2.344-2.975-2.87
		c2.394,2.746-0.442,6.806-1.807,8.455l-0.115,0.14l-0.179-0.027c-0.621-0.097-1.098-0.479-1.378-1.105
		c-0.671-1.504-0.146-4.074,0.762-5.412c-1.242,0.094-2.041,1.146-2.814,2.163c-0.685,0.9-1.33,1.749-2.264,1.785
		c-1.017,0-1.209-1.024-1.395-2.017c-0.183-0.971-0.358-1.682-0.931-1.881c-0.2,1.976-1.219,3.88-2.857,6.754l-0.093,0.161
		l-0.187-0.002c-0.428-0.005-0.813-0.211-1.149-0.614c-1.473-1.777-1.556-6.667-1.27-8.552c-1.588,1.101-1.524,3.319-1.473,5.114
		c0.025,0.863,0.05,1.681-0.105,2.284l-0.06,0.234l-0.317,0.005c-1.498,0-2.38-0.843-4.004-3.195
		c-0.076,2.274-3.121,6.137-5.466,6.812l-0.45,0.13l0.046-0.466c0.093-0.938-0.354-1.749-1.069-1.961
		c-0.087,0.229-0.208,0.471-0.363,0.718l-0.729,1.161l0.145-1.362c0.12-1.113,0.947-2.599,2.342-4.205
		c-2.454,0.834-4.726,3.183-6.223,5.043l-0.625,0.776l0.061-0.993c0.059-0.968-0.19-1.94-0.65-2.536
		c-0.347-0.451-0.8-0.666-1.304-0.67c0.358,0.455,0.414,1.001,0.163,1.59c-0.606,1.423-2.983,2.85-4.8,2.88l-0.415,0.008
		l0.111-0.442c-0.125,0.07-0.248,0.151-0.37,0.247l-0.134,0.104l-0.161-0.055c-1.185-0.401-1.318-1.626-1.473-3.045
		c-0.083-0.766-0.178-1.629-0.438-2.51c-0.72,0.957-0.616,2.016-0.515,3.041c0.118,1.193,0.228,2.314-1.104,2.964
		c-0.565,0.276-1.117,0.41-1.688,0.41c-1.028,0-1.898-0.441-2.667-0.831c-0.434-0.221-0.827-0.42-1.186-0.513
		c-0.945-0.244-0.855-2.179-0.313-6.15c0.099-0.729,0.201-1.478,0.263-2.105c-0.908,0.681-1.288,2.801-1.626,4.681
		c-0.41,2.274-0.793,4.41-2.01,4.41l-0.078-0.004c-1.25-0.108-1.589-0.926-1.861-1.582c-0.294-0.709-0.488-0.965-1.083-0.792
		c0.035,0.684-0.211,1.315-0.73,1.877c-0.97,1.049-2.704,1.616-3.842,1.616c-0.562,0-0.831-0.137-0.957-0.25
		c-0.325-0.291-0.483-0.711-0.458-1.216c0.046-0.949,0.735-2.013,1.852-2.868c-0.304-0.114-0.61-0.172-0.913-0.172
		c-1.035,0-1.918,0.671-2.629,1.208c-0.548,0.417-0.986,0.75-1.398,0.75c-0.151,0-0.288-0.043-0.407-0.129
		c-0.385-0.28-0.655-0.78-0.968-1.356c-0.597-1.098-1.269-2.335-2.969-2.859c1.322,1.52,1.231,3.678-0.269,6.264l-0.538,0.927
		l-0.054-1.07c-0.021-0.437-0.063-1.005-0.186-1.608c-0.801,0.892-0.788,1.955-0.776,2.984c0.004,0.262,0.004,0.507-0.005,0.74
		l-0.015,0.379l-0.37-0.081c-0.571-0.125-1.008-0.497-1.266-1.075c-0.671-1.503-0.147-4.073,0.761-5.411
		c-1.241,0.094-2.04,1.145-2.814,2.161c-0.687,0.902-1.333,1.75-2.265,1.785c-0.495,0-0.838-0.248-1.061-0.755l-0.04-0.091
		l0.019-0.097c0.149-0.778,0.329-1.574,0.483-2.261l0.022-0.098c0.161-0.715,0.313-1.393,0.421-1.976
		c-0.416,0.258-0.793,0.815-1.148,1.695l-0.225,0.555l-0.333-0.497c-0.125-0.188-0.274-0.308-0.462-0.373
		c-0.201,1.98-1.219,3.883-2.858,6.753l-0.092,0.159l-0.399-0.017l-0.073-0.087c-0.351-0.358-0.496-0.821-0.614-1.193
		c-0.196-0.619-0.335-0.909-0.771-0.909h-0.239l-0.095-0.226c-0.624-2.195-0.639-5.267-0.413-6.732
		c-1.589,1.098-1.525,3.319-1.474,5.115c0.025,0.865,0.049,1.683-0.105,2.282l-0.061,0.233l-0.328,0.006
		c-0.835,0-1.489-0.279-2.184-0.938l-0.264-0.251l0.284-0.228c0.198-0.16,0.394-0.302,0.592-0.429
		c-0.462-0.221-0.952-0.293-1.417-0.24l-0.181,0.022l-0.109-0.146c-0.221-0.293-0.456-0.62-0.711-0.988
		c-0.013,0.435-0.131,0.936-0.355,1.493l-0.042,0.105l-0.098,0.055c-0.25,0.14-0.486,0.285-0.704,0.423
		c-0.547,0.345-0.996,0.627-1.392,0.627c-0.176,0-0.335-0.058-0.461-0.166c-0.356-0.309-0.583-0.831-0.846-1.434
		c-0.5-1.146-1.062-2.437-2.711-3.107c0.591,0.811,0.821,1.753,0.686,2.803l-0.023,0.177l-0.164,0.072
		c-1.341,0.591-2.764,1.664-4.227,3.189l-0.531,0.553l-0.014-0.766c-0.028-1.43,0.563-3.205,1.392-4.223
		c-1.259,0.002-2.169,1.005-2.986,1.905c-0.744,0.82-1.442,1.589-2.302,1.589l-0.07-0.001c-1.052-0.052-1.156-1.108-1.256-2.129
		c-0.097-0.984-0.211-1.707-0.763-1.955c-0.23,1.211-0.768,2.408-1.836,4.094l-0.229,0.36l-0.279-0.323
		c-0.392-0.454-0.883-0.676-1.408-0.621c0.417,0.444,0.509,1.019,0.265,1.668c-0.122,0.324-0.328,0.66-0.611,1l-0.22,0.264
		l-0.246-0.24c-0.065-0.064-0.131-0.136-0.193-0.217c-1.331-1.754-1.065-6.731-0.583-8.714c-1.678,0.959-1.807,3.176-1.911,4.968
		c-0.05,0.864-0.097,1.681-0.304,2.265l-0.08,0.228l-0.24-0.016c-1.549-0.104-2.334-0.981-3.787-3.532
		c-0.127,1.14-0.989,2.602-2.361,3.981c-1.606,1.617-3.38,2.552-4.497,2.354l-0.275-0.08l-0.068-0.207
		c-0.156-1.023-0.119-2.526-0.069-3.722l0.004-0.097l0.058-0.078c0.439-0.594,0.979-1.202,1.608-1.812
		c-0.366,0.093-0.749,0.223-1.141,0.388l-0.463,0.195l0.021-0.501c0.019-0.432,0.035-0.841,0.039-1.212
		c-0.384,0.346-0.669,1.017-0.87,2.044l-0.027,0.137l-0.12,0.073c-1.501,0.909-2.837,2.118-3.69,2.972l-0.425,0.425l-0.112-0.59
		c-0.123-0.65-0.512-1.124-1.045-1.279c-0.407,1.081-1.642,2.488-3.276,3.149l-0.108,0.043l-0.425-0.142
		c-0.519-0.172-0.996-0.199-1.551-0.04l-0.678,0.197l0.304-0.639c0.449-0.939,0.471-2.308,0.055-3.324
		c-0.248-0.606-0.75-1.326-1.666-1.313c0.357,0.455,0.415,1,0.165,1.591c-0.514,1.206-2.33,2.463-4.046,2.799l-0.156,0.03
		l-0.119-0.106c-0.622-0.564-1.35-0.903-2.222-1.038l-0.345-0.053l-0.058-0.19c-0.149-0.481-0.222-1.075-0.294-1.745
		c-0.085-0.773-0.18-1.635-0.438-2.509c-0.721,0.959-0.615,2.019-0.513,3.043c0.119,1.19,0.23,2.313-1.103,2.963
		c-0.563,0.275-1.114,0.409-1.688,0.41c-1.03,0-1.901-0.442-2.67-0.834c-0.427-0.217-0.822-0.417-1.182-0.51
		c-0.946-0.243-0.856-2.179-0.315-6.154c0.093-0.687,0.198-1.458,0.262-2.103c-0.91,0.68-1.289,2.802-1.627,4.684
		c-0.408,2.269-0.792,4.408-2.005,4.408l-0.083-0.004c-1.248-0.108-1.587-0.925-1.86-1.58c-0.303-0.727-0.488-0.966-1.083-0.793
		c0.036,0.683-0.209,1.314-0.729,1.878c-0.969,1.049-2.703,1.616-3.842,1.616c-0.559,0-0.829-0.136-0.956-0.25
		c-0.326-0.291-0.484-0.711-0.459-1.216c0.046-0.948,0.735-2.012,1.851-2.867c-0.303-0.114-0.609-0.172-0.913-0.172
		c-1.036,0-1.919,0.671-2.629,1.208l-0.058,0.044c-0.5,0.379-0.932,0.705-1.342,0.705c-0.15,0-0.287-0.042-0.406-0.128
		c-0.383-0.278-0.654-0.775-0.967-1.352c-0.598-1.103-1.27-2.34-2.971-2.866c2.395,2.746-0.444,6.806-1.807,8.455l-0.115,0.14
		l-0.178-0.027c-0.622-0.097-1.099-0.479-1.377-1.105c-0.67-1.504-0.147-4.074,0.761-5.412c-1.242,0.094-2.04,1.146-2.814,2.163
		c-0.685,0.9-1.33,1.748-2.263,1.785c-1.017,0-1.209-1.024-1.395-2.017c-0.183-0.969-0.359-1.681-0.93-1.881
		c-0.202,1.978-1.22,3.881-2.859,6.754l-0.093,0.161l-0.187-0.002c-0.428-0.005-0.814-0.211-1.149-0.614
		c-1.473-1.777-1.556-6.667-1.27-8.552c-1.588,1.1-1.524,3.319-1.473,5.115c0.025,0.865,0.049,1.683-0.105,2.283l-0.06,0.234
		l-0.317,0.005c-1.498,0-2.379-0.843-4.003-3.195c-0.077,2.274-3.121,6.137-5.467,6.813l-0.45,0.13l0.047-0.467
		c0.094-0.938-0.353-1.748-1.069-1.961c-0.086,0.23-0.209,0.473-0.364,0.719l-0.73,1.159l0.146-1.363
		c0.12-1.113,0.949-2.599,2.342-4.204c-2.454,0.835-4.726,3.184-6.223,5.043l-0.625,0.776l0.06-0.993
		c0.059-0.968-0.19-1.939-0.65-2.535c-0.347-0.452-0.8-0.679-1.304-0.67c0.358,0.455,0.414,0.999,0.164,1.59
		c-0.651,1.528-3.29,3.03-5.141,2.869c-1.771-0.154-1.917-1.487-2.101-3.175c-0.083-0.767-0.178-1.629-0.438-2.511
		c-0.72,0.958-0.616,2.017-0.515,3.041c0.118,1.193,0.229,2.316-1.103,2.965c-0.565,0.276-1.117,0.41-1.688,0.41
		c-1.028,0-1.899-0.441-2.667-0.832c-0.434-0.22-0.827-0.419-1.187-0.512c-0.945-0.244-0.854-2.178-0.313-6.15
		c0.1-0.729,0.201-1.477,0.263-2.104c-0.908,0.68-1.289,2.8-1.627,4.681c-0.409,2.273-0.793,4.409-2.01,4.409l-0.077-0.003
		c-1.25-0.11-1.589-0.927-1.862-1.582c-0.294-0.71-0.488-0.966-1.083-0.793c0.035,0.685-0.211,1.314-0.73,1.878
		c-0.97,1.048-2.703,1.615-3.841,1.615c-0.562,0-0.831-0.136-0.958-0.25c-0.324-0.291-0.482-0.711-0.458-1.217
		c0.047-0.948,0.735-2.012,1.852-2.866c-0.304-0.115-0.61-0.173-0.913-0.173c-1.035,0-1.919,0.672-2.629,1.208
		c-0.548,0.418-0.985,0.75-1.399,0.75c-0.151,0-0.288-0.042-0.406-0.128c-0.386-0.281-0.656-0.78-0.969-1.356
		c-0.597-1.098-1.269-2.335-2.967-2.86c2.392,2.747-0.445,6.805-1.808,8.454l-0.115,0.14l-0.179-0.028
		c-0.623-0.098-1.099-0.48-1.377-1.106c-0.67-1.503-0.147-4.073,0.761-5.41c-1.241,0.094-2.039,1.145-2.813,2.16
		c-0.688,0.902-1.333,1.75-2.266,1.786c-1.017,0-1.208-1.024-1.394-2.015c-0.182-0.971-0.358-1.684-0.931-1.885
		c-0.2,1.981-1.219,3.884-2.858,6.754l-0.092,0.162l-0.187-0.002c-0.428-0.005-0.815-0.211-1.149-0.615
		c-1.473-1.776-1.554-6.668-1.268-8.552c-1.589,1.1-1.525,3.319-1.473,5.116c0.025,0.864,0.049,1.683-0.105,2.283l-0.061,0.232
		l-0.328,0.006c-1.381,0-2.262-0.694-3.991-3.194c-0.034,1.254-0.93,3.006-2.359,4.575c-1.399,1.535-2.884,2.424-3.924,2.33
		c-0.973-0.086-1.356-0.561-1.508-0.942c-0.444-1.121,0.373-2.983,2.245-5.138c-2.424,0.834-4.706,3.23-5.876,4.621l-0.386,0.458
		l-0.158-0.575c-0.179-0.636-0.606-1.073-1.152-1.184c-0.477,1.706-2.816,4.122-5.442,3.961l-0.518-0.034l0.267-0.445
		c0.622-1.04,0.482-2.634,0.035-3.608c-0.409-0.888-1.085-1.367-1.837-1.297c0.418,0.445,0.51,1.019,0.265,1.668
		c-0.596,1.59-3.039,3.208-4.839,3.208c-1.778,0-2.038-1.315-2.367-2.98c-0.15-0.759-0.319-1.612-0.653-2.463
		c-0.635,1.017-0.438,2.062-0.25,3.074c0.221,1.178,0.428,2.288-0.842,3.051c-0.636,0.383-1.278,0.567-1.961,0.567
		c-0.899,0-1.706-0.325-2.418-0.612c-0.44-0.177-0.853-0.343-1.222-0.406c-0.963-0.16-1.04-2.097-0.844-6.103
		c0.039-0.797,0.073-1.512,0.079-2.116c-0.846,0.755-1.041,2.899-1.215,4.803c-0.214,2.353-0.417,4.572-1.7,4.572
		c-1.251,0-1.66-0.784-1.989-1.414c-0.324-0.622-0.532-0.932-1.149-0.697c0.101,0.727-0.122,1.416-0.662,2.054
		c-1.239,1.465-3.877,2.178-4.566,1.655c-0.348-0.261-0.541-0.667-0.56-1.172c-0.036-0.949,0.558-2.068,1.595-3.017
		c-0.24-0.065-0.479-0.101-0.711-0.101c-1.137,0-2.019,0.801-2.727,1.442l-0.066,0.06c-0.481,0.437-0.897,0.812-1.327,0.812
		c-0.127,0-0.246-0.033-0.354-0.099c-0.403-0.241-0.715-0.712-1.076-1.256c-0.697-1.052-1.473-2.226-3.21-2.603
		c2.622,2.529,0.147,6.818-1.067,8.581l-0.103,0.146l-0.18-0.012c-0.628-0.042-1.136-0.382-1.468-0.979
		c-0.798-1.441-0.5-4.048,0.29-5.461c-1.229,0.202-1.934,1.317-2.616,2.397c-0.603,0.955-1.173,1.857-2.06,1.968
		c-1.034,0.132-1.331-0.895-1.605-1.881c-0.266-0.951-0.503-1.646-1.09-1.795c-0.028,1.989-0.878,3.974-2.262,6.974l-0.079,0.171
		l-0.187,0.014c-0.452,0.03-0.889-0.168-1.275-0.596c-1.557-1.72-2.042-6.48-1.926-8.324c-1.488,1.231-1.231,3.439-1.024,5.223
		c0.1,0.861,0.194,1.673,0.093,2.281l-0.04,0.239l-0.24,0.024c-0.136,0.015-0.263,0.021-0.387,0.021
		c-1.232,0-2.105-0.619-3.951-2.846c0.083,1.371-0.801,3.397-2.281,5.171c-1.195,1.432-2.427,2.253-3.381,2.253
		c-0.974,0-1.398-0.438-1.583-0.809c-0.539-1.077,0.113-3.004,1.79-5.313c-2.167,0.966-4.617,3.525-6.624,6.932V836.365z
		 M243.893,535.491c0.112,0.895,0.312,1.681,0.635,2.194c0.119-0.173,0.208-0.343,0.269-0.504c0.173-0.463,0.104-0.811-0.22-1.093
		L243.893,535.491z"/>
	<path fill="#447544" d="M426.973,599.51c-0.085-0.202,0.021-0.396,0.18-0.586c-0.219-0.438-0.547-0.798-0.864-0.961
		c0.109-0.278,0.404-0.404,0.725-0.376l-0.026-0.031c-0.605-0.049-1.39,0.065-1.793-0.49c0.324,0.008,0.756-0.112,1.139-0.307
		l-1.018-1.24c-0.658,0.193-1.21,0.582-1.325,1.314c-0.452-1.111,0.394-1.832,0.395-2.364c0-0.066-0.023-0.119-0.065-0.163
		l-0.004-0.005c-0.299-0.316-1.496-0.227-1.714-1.21c0.305,0.098,0.575,0.127,0.812,0.111l-1.28-1.557l-0.142,0.001
		c-0.01,0.009-0.02,0.013-0.029,0.02c-0.009-0.007-0.014-0.013-0.021-0.018l-64.991,0.542l-2.047,4.093
		c-0.108,0.621-0.363,1.136-0.402,1.548l1.912,0.887c0.626-0.133,1.122-0.482,0.938-0.985c0.59,0.187,0.571,0.957,0.266,1.543
		l1.608,0.746c0.2-0.102,0.374-0.222,0.495-0.353c0.204,0.154,0.264,0.414,0.203,0.674l0.195,0.092
		c0.994-0.374,2.116-0.627,2.985-0.428c-0.874,0.304-1.446,0.67-1.703,1.021l1.894,0.877c0.785-0.256,1.559-0.731,1.778-1.233
		c0.122,1.291,0.271,1.723,0.851,2.003c0.56-0.504,0.872-2.276,2.111-2.322c-0.463,0.562-1.359,2.281-1.244,3.173l0.64,0.296
		c0.935-0.574,1.603-1.028,2.014-1.639c0.478,0.433-0.564,1.491,0.093,1.823c0.656,0.33,1.674-0.855,2.556-0.371
		c-0.562,0.252-1.28,1.073-1.338,1.727l0.86,0.398c0.958-0.475,1.998-1.29,1.668-2.425c0.883,0.814,0.422,1.826,0.648,2.308
		c0.225,0.484,1.494-0.424,2.199,0.489c-0.963,0.124-1.446,0.679-1.297,1.109c0.001,0.005,0.006,0.01,0.007,0.014l1.013,0.468
		c0.571,0.077,1.217-0.034,1.462-0.571c0.682,0.128-0.157,0.885,0.601,1.393c0.755,0.511,2.085-2.447,3.073-2.444
		c-0.611,0.908-2.013,2.499-1.608,2.88c0.146,0.141,0.275,0.356,0.431,0.576l1.624,0.752c0.655-0.247,0.507-1.395,1.414-1.745
		c-0.189,0.949-0.782,1.627-0.541,2.149l1.348,0.624c0.807,0.033,1.629-0.283,1.463-0.917c0.596,0.25,0.476,1.071,0.08,1.632
		l1.67,0.773c0.171-0.077,0.326-0.167,0.44-0.27c0.156,0.142,0.206,0.346,0.175,0.556l0.423,0.195
		c0.389-0.033,0.763-0.021,1.097,0.06c-0.193,0.064-0.366,0.134-0.53,0.202l2.097,0.971c0.18-0.153,0.32-0.317,0.396-0.485
		c0.022,0.273,0.048,0.502,0.078,0.704l1.239,0.574c0.366-0.688,0.79-1.542,1.648-1.564c-0.286,0.337-0.737,1.104-1.024,1.854
		l1.648,0.763c0.305-0.241,0.568-0.488,0.765-0.771c0.269,0.248,0.047,0.691-0.077,1.09l1.213,0.563
		c0.487-0.208,1.015-0.439,1.495-0.168c-0.229,0.098-0.484,0.294-0.713,0.531l1.492,0.69c0.373-0.412,0.581-0.914,0.415-1.508
		c0.697,0.658,0.541,1.427,0.559,1.959l0.021,0.01c0.26-0.25,0.586-0.445,1.042-0.36c-0.195,0.224-0.321,0.448-0.402,0.657
		l0.311,0.145c0.411-0.046,0.876-0.04,1.221,0.35c0.342-0.316,0.573-0.735,0.431-1.188c0.595-0.358,0.476,0.764,1.38,0.636
		c0.903-0.126-0.087-3.214,0.65-3.873c0.152,1.086,0.175,3.204,0.73,3.218c0.554,0.013,1.365,0.545,2.192-0.124
		s-0.397-1.512,0.106-2.506c0.605,1.021,0.487,2.145,1.481,2.005c0.992-0.141,2.259-1.61,1.446-2.141
		c0.78-0.274,1.333,0.938,1.128,1.711c0.448-0.151,0.903-0.304,1.367-0.458c0.317-0.357,0.525-0.784,0.562-1.132
		c0.319,0.002,0.561,0.26,0.636,0.601c0.583-0.974,1.389-1.971,2.271-2.367c-0.595,0.888-0.812,1.592-0.716,2.02
		c0.665-0.205,1.335-0.407,2.002-0.603c0.479-0.679,0.814-1.532,0.688-2.07c0.873,0.959,1.252,1.213,1.885,1.088
		c0.144-0.738-0.675-2.341,0.289-3.124c-0.031,0.674,0.24,2.357,0.776,3.117c0.311-0.077,0.618-0.15,0.92-0.222
		c0.347-0.902,0.565-1.604,0.529-2.283c0.628,0.057,0.457,1.464,1.126,1.403c0.093-0.037,0.182-0.07,0.269-0.103
		c0.196-0.138,0.347-0.389,0.498-0.662c-0.192-0.45-0.772-1.109-0.325-1.831c0.296,0.56,0.69,0.859,1.027,0.921
		c0.116-0.077,0.242-0.14,0.395-0.162c-0.023,0.043-0.045,0.093-0.066,0.143c0.051-0.019,0.097-0.044,0.14-0.079
		c0.35-0.292,0.146-2.213-0.963-2.288c-0.119-0.683,0.886-0.166,1.096-1.054c0.21-0.887-3.028-1.089-3.372-2.014
		c1.065,0.251,3.048,1.001,3.264,0.489c0.216-0.513,1.004-1.073,0.681-2.089c-0.323-1.014-1.552-0.178-2.294-1.01
		c1.171-0.192,2.176,0.328,2.405-0.648s-0.678-2.69-1.468-2.129c0.031-0.93,1.716-0.907,2.212-0.226
		c0.165-0.394,0.153-0.813,0.041-1.203C427.198,599.389,427.083,599.444,426.973,599.51z"/>
</g>
<g id="niche">
	<g id="niche_-_facade_1_">
		<polygon fill="#D83642" points="371.479,598.072 376.924,593.362 391.627,596.731 389.359,602.504 		"/>
		<polygon points="371.652,597.571 389.706,602.033 389.706,602.551 371.479,598.072 		"/>
		<path fill="#4F101A" d="M376.924,593.362l14.703,3.37c0,0,14.429-35.454-3.916-37.927
			C365.49,555.809,376.924,593.362,376.924,593.362"/>
		<path fill="#7A1E29" d="M409.045,606.626l1.339-13.502h0.723l1.821-13.775c0,0,0.938,0.51,0.858-0.344
			c-0.309-3.297,0.677-13.509,2.164-16.979c5.085-0.068,15.804-13.047,15.804-13.047l-3.437,9.826l-0.824,1.03l-1.338,9.172
			l-0.62,0.619l-0.995,10.335l-0.826,0.892c0,0-0.962,7.358-1.272,11.036C417.702,596.629,409.045,606.626,409.045,606.626z"/>
		<path fill="#D83642" d="M416.26,562.103c-16.076-11.955-42.771-18.412-63.934-10.441c0,1.99,0.798,5.348,0.854,5.575l-1.438,0.746
			l1.856,11.543l0.671,0.103l0.824,12.677l0.515,0.207l0.569,12.264l13.913,2.989l-2.681-25.045c0,0,0.41-9.905,10.05-13.056
			c4.834-1.108,11.854-0.187,15.543,4.502c0.426,0.102,1.211,0.226,2.237,0.365c2.916,6.173,1.472,12.892,1.472,12.892
			l-2.679,12.985l-2.611,12.022l17.521,3.849l1.511-12.985l0.552,0.005l1.854-13.604l0.722,0.033l0.824-11.748l1.031,0.204
			C415.436,568.184,415.95,563.443,416.26,562.103z"/>
		<path d="M410.867,592.815c-2.339-0.619-17.109-2.748-17.109-2.748l-2.954,12.71l18.414,4.398c0,0,11.647-13.879,13.466-15.253
			c0.483-3.849,1.41-9.722,1.614-12.093C420.588,584.056,415.229,589.725,410.867,592.815z M408.821,606.086l-17.469-3.581
			l2.753-11.69c0,0,14.424,1.692,15.97,2.31C409.148,597.969,408.821,606.086,408.821,606.086z M422.133,591.647l-12.297,13.813
			c0,0-0.688-4.399,0.754-11.612c4.329-4.122,13.166-13.026,13.166-13.026L422.133,591.647z"/>
		<path d="M413.786,579.624l-17.143-2.615l-3.161,13.677c0,0,17.006,1.718,17.729,2.954c2.576-3.193,13.604-13.539,13.604-13.539
			l0.927-10.474L413.786,579.624z M410.798,592.68c-2.783-0.996-16.766-2.268-16.766-2.268l2.958-12.656l15.634,2.237
			C412.624,579.992,411.313,591.305,410.798,592.68z M424.093,579.934c0,0-9.998,9.585-12.782,12.884
			c0.446-3.195,1.822-12.505,1.822-12.505l12.092-10.066L424.093,579.934z"/>
		<path d="M415.202,567.565c-3.063-0.025-18.704-2.972-19.936-3.391c2.753,7.755,0.897,13.525,0.897,13.525l17.656,2.611
			l12.436-10.994l1.373-10.1c-0.29,0.313-5.471,5.836-11.886,8.374C415.611,567.644,415.337,567.516,415.202,567.565z
			 M413.271,579.417c-4.225,0-16.352-2.336-16.352-2.336s1.099-8.518-1.306-12.161c3.367,0.276,18.593,3.186,18.593,3.186
			S412.962,575.604,413.271,579.417z M425.706,569.043c0,0-9.345,8.21-11.816,10.374c-0.206-2.473,0.31-9.138,0.824-11.337
			c0.257,0.052,0.541,0.104,0.901,0.104c6.313-2.783,11.673-8.142,11.673-8.142L425.706,569.043z"/>
		<polygon points="427.288,560.042 428.318,558.805 432.166,548.979 431.479,549.736 427.906,558.736 426.876,559.974 		"/>
		<path fill="#7A1E29" d="M371.222,597.969c0,0-3.093-20.68-2.955-24.734s1.374-13.88,14.771-14.084
			c-10.427,0.84-9.241,21.864-6.115,34.212C374.725,594.734,371.222,597.969,371.222,597.969z"/>
		<path d="M373.362,561.174l-20.591-3.915l-1.374,0.517l2.062,11.954l0.517,0.067l0.961,12.711l0.412,0.275l0.894,12.298
			l12.643,2.338l-12.3-2.646l-0.825-11.783l12.848,3.326l1.307,11.439l1.719,0.411l5.29-4.807c0,0-6.723-31.837,5.608-34.144
			c0.192-0.002,0.381-0.007,0.575-0.002C378.824,558.688,375.679,559.595,373.362,561.174z M353.186,557.671l4.42,0.88l-5.21-0.64
			L353.186,557.671z M353.906,569.249l-1.992-10.993l7.42,0.754l13.507,2.533c-4.133,3.168-5.365,8.528-5.678,10.976
			L353.906,569.249z M355.35,582.098l-0.892-12.022l12.649,2.938c-0.002,0.027-0.005,0.059-0.008,0.084l1.445,12.67L355.35,582.098z
			 M376.375,593.224c-1.122,0.871-4.266,3.599-4.847,4.103c-1.2-4.099-3.123-19.261-3.193-23.129
			c-0.137-7.628,4.058-14.893,14.19-14.979C369.927,561.12,376.1,590.271,376.375,593.224z"/>
		<path d="M416.472,560.962c-0.689,2.315-1.241,6.604-1.241,6.604s-18.929-3.126-21.814-3.813
			c-4.811-6.185-15.46-6.321-20.475-2.681c-4.537-0.412-19.72-4.054-19.72-4.054s-1.031-4.26-0.498-5.508
			c-0.27,0.095-0.54,0.185-0.807,0.284c0,2.063,0.858,5.463,0.858,5.463s17.829,3.882,20.44,4.432
			c3.298-3.299,14.703-3.985,19.788,2.473c2.885,0.686,22.64,4.019,22.64,4.019s0.584-4.568,1.271-6.905
			C416.769,561.171,416.617,561.068,416.472,560.962z"/>
		<path fill="#E54559" d="M367.099,573.097c-0.103-5.429,3.249-16.152,15.975-14.807c12.677,1.34,15.873,9.069,13.708,19.066
			s-5.979,25.559-5.979,25.559l-1.443-0.41c0,0,3.76-14.794,5.979-25.147c2.164-10.1-2.165-16.8-12.573-17.623
			c-9.907-0.786-14.663,6.181-14.498,13.432c0.166,7.249,3.213,24.906,3.213,24.906l-1.564-0.313
			C369.915,597.759,367.201,578.525,367.099,573.097z"/>
		<path d="M383.073,558.29c-12.726-1.346-16.077,9.378-15.975,14.807s2.816,24.662,2.816,24.662l1.564,0.313
			c0,0-2.868-16.318-2.938-24.562c-0.061-7.252,4.315-14.562,14.223-13.776c10.409,0.825,14.737,7.524,12.574,17.623
			c-2.218,10.355-5.979,25.147-5.979,25.147l1.444,0.411c0,0,3.813-15.563,5.978-25.56
			C398.946,567.358,395.75,559.63,383.073,558.29z M396.472,576.635c-1.778,10.074-5.874,25.56-5.874,25.56l-0.619-0.411
			c0,0,3.656-14.794,5.875-25.147c2.164-10.1-2.68-16.49-13.089-17.314c-9.907-0.783-14.12,5.771-14.595,12.951
			c-0.477,7.234,2.897,24.976,2.897,24.976l-0.763-0.091c0,0-2.793-19.454-2.793-24.884c0-3.676,2.836-14.915,15.563-13.57
			C395.75,560.042,398.018,567.874,396.472,576.635z"/>
		<path fill="#447544" d="M355.469,597.604l53.32,16.385v-9.263c-0.323,0.295-0.684,0.544-0.994,0.729
			c-0.914-0.412-0.083-2.042,0.632-2.521c-0.952-0.329-1.755,1.014-2.457,0.796c-0.702-0.217,0.146-1.438-0.399-1.782
			c-0.336,0.749-1.007,1.35-1.993,2.207c-0.987-0.245-0.16-2.976,0.298-3.771c-1.216,0.253-1.224,2.052-1.689,2.645
			c-0.621-0.179-0.839-0.579-1.176-1.831c-0.246,0.991-2.4,2.223-3.231,1.848c-0.833-0.375-0.419-1.289,1.177-2.174
			c-0.965-0.053-2.14,0.463-3.104,1.063c0.091-0.336-0.006-0.678-0.288-0.825c-0.414,0.629-1.692,1.248-2.666,0.713
			c0.728-0.423,0.925-2.096,0.004-2.224c0.479,0.844-1.32,1.57-2.267,1.237c-0.945-0.33-0.327-1.274-0.396-2.459
			c-0.905,0.65-0.202,1.96-1.242,2.176c-1.044,0.218-1.521-0.626-2.007-0.894c-0.487-0.268,0.463-2.159,0.825-3.193
			c-0.956,0.247-1.492,3.445-2.354,3.144c-0.86-0.302-0.242-1.244-0.935-1.198c-0.188,1.096-2.122,1.098-2.376,0.717
			c-0.253-0.378,0.074-1.038,0.973-1.401c-0.913-0.704-1.913,0.493-2.252,0.085c-0.34-0.41-0.15-1.505-1.209-2.07
			c0.729,1.226-0.586,2.505-1.49,3.158c-0.945-0.331-0.258-2.025,0.412-2.564c-0.977-0.246-1.661,1.159-2.38,1.005
			c-0.718-0.154,0.022-1.443-0.551-1.74c-0.271,0.775-0.886,1.432-1.794,2.371c-1.008-0.159-0.418-2.951-0.031-3.784
			c-1.188,0.358-1.042,2.152-1.455,2.781c-0.634-0.125-0.886-0.504-1.331-1.724c-0.158,1.01-2.198,2.424-3.058,2.123
			c-0.861-0.301-0.53-1.249,0.983-2.268c-0.487,0.016-1.017,0.182-1.536,0.428c0.06-0.317-0.044-0.624-0.311-0.759
			c-0.406,0.634-1.679,1.265-2.656,0.744c0.723-0.432,0.901-2.106-0.021-2.226c0.487,0.839-1.303,1.585-2.254,1.265
			s-0.344-1.271-0.425-2.454c-0.896,0.66-0.18,1.964-1.218,2.19c-1.04,0.229-1.527-0.61-2.018-0.872
			c-0.489-0.262,0.439-2.164,0.79-3.203c-0.953,0.257-1.453,3.462-2.317,3.17c-0.865-0.291-0.256-1.242-0.948-1.186
			c-0.092,0.57-0.025,0.849-0.585,0.935V597.604L355.469,597.604z"/>
	</g>
	<g id="niche_-_toit_1_">
		<path fill="#E54559" d="M346.761,539.84c0.688-4.261,2.394-8.384,4.53-10.892c0.485-3.194,2.121-7.429,4.637-9.777
			c-0.097-3.174,3.486-9.831,4.992-10.383c-0.761-2.271,3.567-8.593,5.561-11.271c15.459,3.572,46.585,7.284,63.073,3.433
			c-1.305,15.116-5.526,40.591-7.557,48.786C398.636,533.795,368.798,533.393,346.761,539.84z"/>
		<path fill="#7A1E29" d="M435.842,528.969c-0.207-0.053-1.031-0.258-1.031-0.258s0.309-0.207,0.463-0.465
			c-0.323-0.072-1.436-8.568-1.441-8.605l0.36-0.36c0,0-1.1-3.321-1.546-8.039c-0.379-0.211-1.288-0.206-1.288-0.206
			s0.67-0.335,0.876-0.618c-1.186-2.524-1.854-7.004-1.96-7.009c0.122-0.383,0.413-1.804,0.413-1.804l-1.134-0.654
			c-0.516,3.645-1.992,9.349-1.408,11.854c0.79,0.446-1.512,4.143-1.804,11.829c-1.015,0.572-2.56,11.138-2.508,12.143
			c0.979,0.359,1.881,0.85,1.881,0.85l-2.161,0.153c0,0-2.726,8.451-1.556,11.957c1.129,3.392,2.661-8.606,14.823-13.141
			C436.82,536.595,434.657,532.782,435.842,528.969z"/>
		<path fill="#721621" d="M349.716,550.084l2.337,1.574c0,0,15.637-5.119,32.36-2.664c20.718,3.041,32.227,12.972,32.227,12.972
			l2.146-1.021c0,0-16.302-11.7-35.402-14.497C363.166,543.49,349.716,550.084,349.716,550.084z"/>
		<path d="M428.357,513.084c0.006-0.008,0.009-0.019,0.012-0.027c0-0.011,0-0.02,0-0.03c0.419,0.026,0.915,0.068,1.393,0.02
			c-0.723-2.165,0.927-11.44,0.927-11.44l-1.065-0.995c-11.817,2.953-27.038,0.824-42.084,0.205
			c-7.418-0.304-12.127-1.441-21.06-3.848c-1.907,2.669-5.694,8.432-6.214,11.83c-1.921,2.816-4.303,6.698-4.738,10.02
			c-0.037,0-0.074,0-0.11,0c-1.906,2.668-3.927,6.655-4.445,10.055c-2.006,2.939-4.293,7.815-4.564,11.227
			c33.058-9.945,62.192,0.017,76,9.911c0.244-0.018,1.031-0.754,1.442-0.962c-0.205-0.55-0.825-6.871,2.129-11.544
			c0,0-0.524-0.175-1.056-0.355l0.61-0.436v-0.004l0.007-0.004c0.295-2.617,0.763-8.046,1.95-11.655
			c0.172-0.055,0.412-0.055,0.67-0.105c-0.118-1.115,1.117-9.531,1.65-10.973C429.671,513.473,428.94,513.187,428.357,513.084z
			 M429.728,501.438l0.651,0.373c0,0-1.569,8.76-0.963,10.925c-0.432,0.054-0.973,0.064-1.271,0.067
			C427.984,508.531,429.755,503.795,429.728,501.438z M366.687,497.725c6.322,1.923,13.951,3.404,21.368,3.71
			c15.048,0.619,28.927,2.747,41.294-0.205c-0.027,0.131-0.026,0.109,0.001,0.016c0.172,2.009-1.236,7.025-1.375,9.294
			c-0.04,0.678-0.157,1.832-0.151,2.44c-3.935-0.549-20.138-2.604-38.531-3.849c-10.17-0.687-18.159-1.604-28.17-0.687
			C361.672,504.869,364.663,500.556,366.687,497.725z M360.934,509.187c6.979-1.295,16.884-0.469,28.701,0.355
			c14.381,1.004,29.803,2.207,38.614,3.778c-1.167,3.435-1.786,9.516-1.906,11.312c-11.699-1.907-23.173-4.957-38.702-5.814
			c-3.897-0.216-17.933,0.344-31.467-0.068C356.655,514.695,359.403,510.435,360.934,509.187z M355.762,519.436
			c6.817,0,27.886-0.335,32.018-0.138c16.988,0.807,28.171,4.053,38.143,5.548c-0.662,3.209-2.173,8.843-2.293,11.826
			c-6.278-2.137-20.928-6.268-41.414-8.441c-9.778-1.039-20.377-0.632-30.389,0.285
			C352.189,525.068,353.738,522.268,355.762,519.436z M347.31,539.12c0.276-3.47,1.993-7.042,4.328-9.858
			c6.979-1.295,20.098-1.938,31.743-0.483c8.606,1.076,17.093,2.468,24.195,3.909c3.774,1.043,14.252,3.804,15.977,5.092
			c-1.269,3.063-2.332,7.755-1.801,11.219C408.22,540.15,382.455,530.565,347.31,539.12z M423.577,548.937
			c-0.119,0.061-1.327,0.212-1.415,0.256c-0.824-2.957,0.366-8.715,1.676-11.275c0.707,0.02,1.733-0.167,1.75-0.163
			C422.633,542.427,423.371,548.387,423.577,548.937z M423.835,537.677c-0.928-0.721-7.962-3.014-12.511-4.195
			c2.797,0.435,10.577,2.728,14.082,4.066C425.311,537.604,424.501,537.695,423.835,537.677z M425.303,536.499l-0.758,0.522
			c-0.387-0.132-0.703-0.24-0.709-0.246c0.43-3.532,1.598-9.683,2.404-11.792c-0.001-0.002,0.993,0.005,0.997,0.018
			C426.141,528.361,425.619,533.675,425.303,536.499z M427.923,524.707c-0.159,0.06-0.825,0.119-1.235,0.014
			c-0.019-2.362,0.479-7.403,1.89-11.313c0.172,0.062,0.979,0.268,1.004,0.517C429.176,515.862,427.905,522.699,427.923,524.707z"/>
		<path fill="#F96484" d="M411.57,533.555c0,0,9.096,2.421,12.29,4.122c0.635-0.001,1.494-0.129,1.494-0.129
			S419.712,535.178,411.57,533.555z"/>
		<path display="none" d="M475.969,469.735c-0.424-0.162-1.27-0.487-1.27-0.487l0.952-0.813c0,0-1.164-9.809-1.587-13.169
			c-0.952-0.217-1.322-0.316-1.322-0.316l1.481-0.659c0,0-1.853-6.395-2.539-13.657c-0.583-0.325-1.27-0.65-1.27-0.65
			s0.476-0.542,0.793-0.976c-1.48-4.552-2.592-10.665-3.649-14.079c-0.37,0.211-0.317,0.793-0.317,0.793s1.745,8.626,3.226,13.124
			c-0.316,0.429-0.78,1.266-0.78,1.266s0.676,0.653,1.257,0.975c1.005,7.436,2.274,12.673,2.274,12.673l-1.349,1.428
			c0,0,1.031,0.396,1.468,0.635c0.427,3.32,1.573,12.178,1.573,12.178l-1.27,1.27c0,0,1.164,0.78,1.588,0.941
			c0.105,3.052,1.401,8.305,1.401,8.305l0.872-0.08C477.502,478.437,476.075,472.824,475.969,469.735z"/>
		<path fill="#721621" d="M429.953,505.644c0,0,0.798,5.055,1.539,5.334c-0.013,3.166,1.636,8.479,1.465,8.64
			c-0.172,0.16,1.095,9.161,1.095,9.161l-1.101,0.022l-3.448-19.88L429.953,505.644z"/>
		<path fill="#721621" d="M434.228,537.506c0.188-0.047,0.442-0.224,1.382-0.519c0,0-1.644-2.363-1.102-7.381
			c-0.557-0.141-1.449-0.175-1.449-0.175S433.746,537.093,434.228,537.506z"/>
		<path d="M418.637,560.612l-2.274,0.941c0,0-12.285-10.467-33.391-13.158c-17.782-2.268-31.056,2.954-31.056,2.954l-2.543-1.615
			c-1.254,0.357-1.03,0.411-1.03,0.411l3.573,1.924c0,0,13.328-5.119,31.263-2.853c21.283,2.692,33.368,13.571,33.368,13.571
			l3.113-1.513C419.66,561.278,419.3,561.036,418.637,560.612z"/>
		<path d="M429.486,508.612c0,0,0.179,0.872,0.516,2.698c0.334,1.825,0.896,6.202,1.563,8.69c0.666,2.491,1.048,7.33,1.495,9.12
			c0.444,1.794,0.761,6.89,1.441,8.178c0.103,0.195-0.448,0.205-0.448,0.205s-0.771-5.805-1.252-8.278
			c-0.489-2.508-0.774-6.334-1.442-9.275c-0.671-2.942-1.177-6.949-1.494-8.623c-0.276-1.442-0.207-1.785-0.361-2.404
			C429.502,508.511,429.486,508.612,429.486,508.612z"/>
		<path d="M432.95,528.803l0.028,0.168c0.971-0.027,1.855-0.034,2.543-0.016c-0.053,0.063-0.601,0.329-1.074,0.482
			c-0.209-0.068-0.714-0.112-1.41-0.133l0.021,0.127c0.542,0.023,0.966,0.07,1.215,0.147c-0.112,2.187,0.203,5.226,1.135,7.497
			c0.067-0.029,0.134-0.06,0.2-0.089c-0.938-2.137-1.343-5.565-1.101-7.38c0.504-0.164,1.179-0.552,1.193-0.554
			c-0.698,3.074,0.304,6.134,0.944,7.564c0.076-0.019,0.146-0.032,0.215-0.044c-0.644-1.515-1.64-4.729-0.942-7.794
			c0,0-0.413,0.009-0.834,0.015l0.32-0.461v-0.002l0.004-0.004c-0.445-1.917-1.472-5.858-1.537-8.701
			c0.106-0.081,0.278-0.141,0.445-0.241c-0.363-0.755-1.594-6.994-1.577-8.144c-0.226-0.316-0.812-0.335-1.247-0.263
			c0-0.008,0-0.014,0-0.023c-0.002-0.007-0.005-0.013-0.008-0.02c0.301-0.088,0.663-0.179,0.986-0.334
			c-0.816-1.048-1.696-5.491-2.048-7.406l-0.106,0.555c0.364,1.964,1.128,5.72,1.834,6.72c-0.29,0.146-0.668,0.289-0.878,0.365
			c-0.73-1.835-0.984-3.978-1.215-5.739l-0.105,0.549c0.208,1.377,0.393,2.801,0.633,3.636c0.14,0.489,0.347,1.33,0.503,1.759
			c-0.299,0.062-0.697,0.145-1.178,0.247l0.029,0.161c0.533-0.101,1.046-0.193,1.535-0.273c0.036,2.711,1.118,7.15,1.482,8.447
			c-0.516,0.093-1.034,0.184-1.554,0.271l0.038,0.22c0.431-0.076,0.855-0.153,1.274-0.235c0.334,2.426,0.676,6.774,1.337,8.906
			C433.714,528.784,433.344,528.792,432.95,528.803z M431.727,511.151c0.136,0,0.755-0.057,0.836,0.111
			c0.199,1.469,1.012,6.603,1.525,8.013c-0.098,0.082-0.551,0.29-0.869,0.318C432.617,517.935,431.706,514.258,431.727,511.151z
			 M432.972,519.892c-0.001-0.002,0.701-0.245,0.705-0.236c0.067,2.641,1.027,6.516,1.509,8.585l-0.402,0.558
			c-0.307,0.003-0.558,0.006-0.563,0.003C433.642,526.204,432.93,521.58,432.972,519.892z"/>
		<path fill="#7A1E29" d="M437.25,536.269c-4.26,1.305-8.382,3.571-14.359,13.33c3.091,5.908,1.58,8.793,0.453,11.725
			c0.729-0.498,7.312-11.041,9.784-13.099c2.475-2.058,6.391-5.636,6.391-5.636C440.229,541.06,440.204,537.712,437.25,536.269z"/>
		<path fill="#D83642" d="M418.891,560.565c-2.051-2.225-17.369-11.653-32.623-14.128c-15.252-2.473-22.261-1.099-35.041,2.198
			c-6.351,2.647-10.786-3.75-4.819-8.229c15.538-6.13,49.663-9.014,75.548,10.131C426.256,553.719,424.195,563.338,418.891,560.565z
			"/>
		<path d="M437.25,536.269c-4.26,1.305-8.382,3.571-14.359,13.33c-31.467-18.88-61.016-15.297-77.031-9.665
			c-7.245,4.705-2.465,12.549,5.369,10.008c7.832-2.542,20.231-5.147,34.011-2.681c13.811,2.474,27.827,9.484,32.912,13.607
			c3.14,2.545,3.848,1.372,5.193,0.455c0.73-0.498,7.313-11.04,9.784-13.098c2.475-2.059,6.391-5.636,6.391-5.636
			C440.229,541.06,440.204,537.712,437.25,536.269z M418.891,560.565c-2.051-2.225-17.369-11.653-32.623-14.128
			c-15.252-2.473-22.261-1.099-35.041,2.198c-6.351,2.647-10.786-3.75-4.819-8.229c15.538-6.13,49.663-9.014,75.548,10.131
			C426.256,553.719,424.195,563.338,418.891,560.565z M439.312,542.178c-3.022,2.06-10.443,7.83-14.565,16.353
			c0.686-3.023,0.342-6.044-1.375-8.657c5.29-9.757,11.545-13.057,14.016-13.055C438.899,537.368,440.137,539.842,439.312,542.178z"
			/>
	</g>
</g>
</svg>
