<?xml version="1.0" encoding="utf-8"?>
<!DOCTYPE svg PUBLIC "-//W3C//DTD SVG 1.1//EN" "http://www.w3.org/Graphics/SVG/1.1/DTD/svg11.dtd">
<svg version="1.1" id="Calque_1" xmlns="http://www.w3.org/2000/svg" xmlns:xlink="http://www.w3.org/1999/xlink" x="0px" y="0px"
	 width="11px" height="106px" viewBox="0 0 11 106" enable-background="new 0 0 11 106" xml:space="preserve">
<g>
	<path fill="#EC2227" d="M10.542,80c0-1.708-0.714-3.234-1.834-4.243V5.5H2.597v70.008C1.305,76.504,0.458,78.143,0.458,80
		s0.846,3.496,2.138,4.492V105.5h6.111V84.243C9.828,83.234,10.542,81.708,10.542,80z"/>
	<path fill="#010101" d="M9.167,106H2.139V84.744C0.795,83.609,0,81.855,0,80s0.795-3.609,2.139-4.744V5h7.028v70.528
		C10.335,76.667,11,78.283,11,80s-0.665,3.333-1.833,4.473V106z M3.055,105H8.25V84.008l0.166-0.15
		c1.06-0.954,1.667-2.36,1.667-3.857s-0.607-2.903-1.667-3.857l-0.166-0.15V6H3.055v69.767l-0.194,0.149
		C1.644,76.854,0.917,78.382,0.917,80s0.727,3.146,1.945,4.084l0.194,0.149V105z"/>
</g>
</svg>
