<?xml version="1.0" encoding="utf-8"?>
<!DOCTYPE svg PUBLIC "-//W3C//DTD SVG 1.1//EN" "http://www.w3.org/Graphics/SVG/1.1/DTD/svg11.dtd">
<svg version="1.1" id="silouhette-chat" xmlns="http://www.w3.org/2000/svg" xmlns:xlink="http://www.w3.org/1999/xlink" x="0px"
	 y="0px" width="51px" height="80px" viewBox="0 30 51 80" enable-background="new 0 30 51 80" xml:space="preserve">
<path fill="#ECE5DE" d="M4.236,74.253c-3.554,8.438-5.491,21.055,0.158,28.162c-2.354,1.267-2.4,4.086-0.547,5.648
	c5.831,4.92,22.001-3.781,26.423-2.552c4.421,1.229,9.874,1.324,10.819,0.448c0.949-0.876,0.943-6.259-5.786-4.647
	c2.233-4.236,1.685-10.841-1.595-12.664c2.219-1.567,4.572-6.092,4.51-9.932c0.907-0.768,2.278-2.589,2.278-6.559
	c0.67-0.504,1.135-1.957,0.41-2.961c0.559-0.781-0.892-1.419-2.733-2.871c0.729-0.137,1.875-1.079,2.004-1.275
	c-0.725-0.223-1.821-0.729-2.688-1.595c0.352-0.293,1.033-0.562,2.005-0.685c-0.585-0.418-0.851-1.683-0.639-2.186
	c5.973-1.508,9.726-5.824,10.842-7.107c-0.613-0.168-2.272-0.291-3.28-1.184c0.447-0.057,1.043-0.607,1.322-0.775
	c-0.614-0.279-1.368-0.601-2.095-1.048c1.675-2.065,5.135-4.179,3.462-10.433c-2.125-0.167-5.643-1.289-8.155,0.273
	c-1.23-1.504-6.742-4.967-12.208-3.6c-0.446-3.238-4.795-5.633-9.317-6.414c-1.563,2.402-1.17,8.697-0.5,10.707
	c-0.557,0.335-1.686,0.593-1.686,0.593s0.635,0.95,1.64,1.231c-1.619,0.278-3.38,0.488-4.441-0.237c0,1.003,0.319,2.779,1.753,3.517
	c-1.206,4.273,2.862,9.852,7.541,11.745C16.992,60.039,8.571,63.953,4.236,74.253z"/>
<path fill="#272B33" d="M50.472,53.39c-0.615-0.169-1.953-0.56-2.958-1.451c0.444-0.056,0.892-0.335,1.171-0.503
	c-0.614-0.279-1.45-0.559-2.178-1.004c1.676-2.065,4.855-4.633,3.183-10.887c-2.123-0.166-6.157-1.377-8.67,0.186
	c-1.768-2.717-7.91-4.596-12.096-3.59c-0.446-3.238-5.525-5.359-10.047-6.141c-1.563,2.4-1.786,8.932-1.116,10.939
	c-0.558,0.335-1.62,0.335-1.62,0.335s0.614,1.116,1.62,1.396c-1.62,0.279-3.125-0.166-4.186-0.893
	c-0.391,0.948,0.782,2.289,0.782,2.289s-0.349,1.176,0.835,2.087c-0.911,2.415,2.56,9.856,7.238,11.751
	C0.082,61.415-3.973,94.427,3.301,101.96c-2.343,1.275-3.989,4.267-2.212,5.904c6.57,6.066,24.842-2.848,29.263-1.618
	c4.423,1.23,10.028,0.82,10.975-0.058c0.949-0.874,1.314-6.971-5.416-5.359c4.868-6.613-0.522-11.632-1.386-12.223
	c2.22-1.567,4.09-6.024,4.03-9.864c0.906-0.768,2.427-2.57,2.427-6.542c0.67-0.503,1.004-2.122,0.279-3.128
	c0.559-0.779-0.726-2.282-2.487-2.768c0.894,0,1.966-1.333,2.098-1.529c-0.726-0.223-1.899-0.725-3.183-1.34
	c0.812-0.018,1.602-0.29,2.239-0.746c-0.881-0.303-0.852-1.218-0.621-1.766C45.28,59.418,49.354,54.673,50.472,53.39z
	 M38.773,62.569c-1.032,0.395-1.822,0.577-2.702,0.638c1.244,0.881,2.301,1.504,2.952,1.715c-0.116,0.188-1.314,1.113-2.115,1.113
	c1.656,1.379,3.619,2.602,3.117,3.342c0.651,0.953,0.27,2.418-0.334,2.895c0,3.77-1.524,5.398-2.338,6.125
	c0.047,3.275-1.619,7.816-3.403,9.786c-1.556-1.144-4.106-1.866-7.142-1.502c6.073,0.608,12.755,4.253,7.76,15.216
	c6.044-1.528,6.753,2.399,5.901,3.23c-0.85,0.834-6.549,0.747-10.522-0.42c-3.973-1.169-20.716,7.946-26.616,2.19
	c-1.337-1.303-0.79-2.97,0.656-4.186c0.702,0.728,1.385,1.161,2.023,1.365c0.273-0.022,0.137-0.022,0.387-0.068
	c-9.893-6.557-6.39-43.472,20.724-45.569l2.106-1.254c-0.947-0.021-2.484,0.092-4.836,0.443c-6.018-3.367-9.2-8.355-7.971-11.749
	c-1.139-0.547-1.12-1.562-1.343-2.564c0.954,0.688,3.334,0.265,4.789,0c-0.903-0.266-1.671-1.56-1.671-1.56s1.282-0.462,1.782-0.779
	c-1.113-1.782-1.626-7.188-0.223-9.467c4.062,0.742,7.774,3.113,8.174,6.187c3.243-0.821,11.952-1.247,14.685,7.819
	c0.229-1.504-0.419-3.25-1.236-4.747c2.271-0.632,5.296,0.075,6.889,0.208c1.501,5.935-2.394,8.063-3.899,10.023
	c0.654,0.425,1.677,0.291,2.228,0.557c-0.25,0.16-1.271,1.06-1.67,1.113c0.902,0.848,3.012,1.065,3.564,1.227
	c-1.003,1.219-4.769,4.584-10.135,6.014C37.985,61.111,37.923,61.962,38.773,62.569z"/>
</svg>
