<?xml version="1.0" encoding="utf-8"?>
<!DOCTYPE svg PUBLIC "-//W3C//DTD SVG 1.1//EN" "http://www.w3.org/Graphics/SVG/1.1/DTD/svg11.dtd">
<svg version="1.1" id="silouhette-chien03" xmlns="http://www.w3.org/2000/svg" xmlns:xlink="http://www.w3.org/1999/xlink" x="0px"
	 y="0px" width="168px" height="95px" viewBox="0 0 168 95" enable-background="new 0 0 168 95" xml:space="preserve">
<path fill="#BFAD95" d="M165.982,20.988c0.124-2.473-9.943-2.303-17.5-3.667c-3.607-0.651-4.337-6.411-7.667-5.5
	c-4.368-2.547-12.813-0.821-19,3c-9.494,11.99-14.25,17.906-22.79,24.078c-3.377-2.505-4.452,0.758-12.569,1.199
	c-25.752-10.71-48.962-6.423-51.458-6.423c-2.494,0-15.412-9.779-16.85-10.854c-1.438-1.073-9.59-15.463-12.667-19
	C2.148-0.012-2.067,2.85,1.148,6.488C3.1,8.697,12.405,26.038,13.482,27.321c1.077,1.281,10.285,7.614,13.268,9.709
	c0.147,0.587,0.252,2.638,0.398,3.958c-3.324,2.15-5.667,5.333-5.5,12.333c-0.317,3.174-2.219,6.21-2,9.834
	c-7.5,3.166-8.333,8.333-6.073,10.724c1.027,2.642,0,8.657,0,11.152c-2.641,2.348-1.174,4.988,0,5.282
	c-0.44,1.026,1.021,3.1,2.196,3.833c1.079,0.444,3.744,0.444,5.457-0.063c0.901-0.267-0.257-5.01-0.698-6.917
	c-0.521-2.261,0.425-9.934,2.143-12.406c2.49-3.587,5.933-3.076,7.694-4.982c2.238,0.303,4.114-1.594,6.497-4.266
	c0.756,1.371,1.389,2.605,1.515,3.362c0.425,2.554-1.702,7.091-0.709,8.935c0.993,1.844,10.919,6.239,11.487,11.771
	c0.993,1.56,2.836,1.56,3.262,1.135c1.418,1.418,3.404,0.567,4.113,0.283c2.552,1.135,8.496-2.614-1.418-6.098
	c-5.247-1.844-7.297-8.659-7.658-12.055c-0.492-4.619,2.083-6.721,2.482-10.107c11.62,4.101,27.777,7.281,32.163,8.94
	c0.052,0.048,0.104,0.095,0.159,0.14c-1.463,1.616-2.682,3.872-2.836,5.004c-1.692,0.085-2.285,1.607-1.27,2.454
	c-7.784,4.062-5.922,8.63-4.908,8.885c-0.169,0.592,0.169,1.861,1.27,2.453c1.015,2.878,6.769,1.861,6.43,0.255
	c-0.338-1.608,0.254-3.724-1.185-4.569c0.423-1.862,6.769-5.416,8.716-6.771c1.416-0.984,2.387-2.922,3.069-4.908
	c4.496,0.425,9.048,0.055,10.468-0.972c0.699,1.269,1.904,1.649,1.841,3.236c4.507,3.935,9.956,10.53,10.218,11.932
	c0.381,2.03,2.031,2.22,2.729,0.634c4.252,1.27-0.316,4.823,7.41,3.211c1.665,0.788,4.969,0.581,5.791,0.343
	c0.572-0.166,1.629-1.407,1.227-2.18c0.334-0.074,0.604-1.108,0.437-1.411c-0.602-1.088-1.718-2.01-3.346-2.182
	c-5.546-0.583-6.896-3.374-8.804-5.869c-0.146-3.374-4.695-5.429-3.67-10.857c2.346-3.682,4.428-4.654,4.309-6.761
	c4.159-3.755,2.569-6.525,5.992-10.089c2.386,2.462,4.965,4.609,9,7.333c2.174,1.468,8.295,3.007,10.5,2.167
	c1.713-0.652,4.877-1.353,4.667-4.5c-0.21-3.149-4.142-5.617-4.667-9.5c-0.348-2.573-1.409-6.328-3.5-9.333
	c1.7-4.704,10.936-1.788,12.334-5.666c5.823-0.91,11.077-5.912,10.333-8.834C165.907,24.592,165.852,23.604,165.982,20.988z"/>
<path fill="#272B33" d="M166.797,20.732c0.124-2.473-10.494-2.729-18.051-4.093c-3.607-0.651-3.264-9.151-8.598-4.984
	c-4.666-4-13.152-1.213-19.34,2.608c-9.494,11.99-12.326,17.892-21.66,24.392c-4.5-2.667-7.333,0.666-12.666,0.833
	c-16.667-9-46.167-8.333-50.834-6.5c-2.321,0.912-16.062-9.093-17.5-10.167c-1.438-1.073-9.59-15.463-12.667-19
	C2.148-0.012-2.067,2.85,1.148,6.488C3.1,8.697,12.447,26.33,13.523,27.613c1.077,1.281,9.642,7.53,12.625,9.625
	c0.147,0.587,0.854,2.43,1,3.75c-3.5,1.5-6.25,5.25-5.5,12.333c-0.317,3.174-2.219,6.21-2,9.834
	c-7.5,3.166-8.333,8.333-6.073,10.724c1.027,2.642,0,8.657,0,11.152c-2.641,2.348-1.174,4.988,0,5.282
	c-0.44,1.026,1.021,3.1,2.196,3.833c1.079,0.444,3.744,0.444,5.457-0.063c0.901-0.267-0.257-5.01-0.698-6.917
	c-0.521-2.261,0.425-9.934,2.143-12.406c2.49-3.587,5.933-3.076,7.694-4.982c2.238,0.303,4.114-1.594,6.497-4.266
	c0.756,1.371,1.389,2.605,1.515,3.362c0.425,2.554-1.702,7.091-0.709,8.935c0.993,1.844,10.919,6.239,11.487,11.771
	c0.993,1.56,2.836,1.56,3.262,1.135c1.418,1.418,3.404,0.567,4.113,0.283c2.552,1.135,8.496-2.614-1.418-6.098
	c-5.247-1.844-7.297-8.659-7.658-12.055c-0.492-4.619,2.083-6.721,2.482-10.107c10.96,5.001,23.96,8.001,32.46,8.501
	c-1.486,1.046-2.82,4.451-2.975,5.583c-1.692,0.085-2.285,1.607-1.27,2.454c-7.784,4.062-5.922,8.63-4.908,8.885
	c-0.169,0.592,0.169,1.861,1.27,2.453c1.015,2.878,6.769,1.861,6.43,0.255c-0.338-1.608,0.254-3.724-1.185-4.569
	c0.423-1.862,6.769-5.416,8.716-6.771c1.416-0.984,2.387-2.922,3.069-4.908c4.496,0.425,9.048,0.055,10.468-0.972
	c0.699,1.269,1.904,1.649,1.841,3.236c4.507,3.935,9.956,10.53,10.218,11.932c0.381,2.03,2.031,2.22,2.729,0.634
	c4.252,1.27-0.316,4.823,7.41,3.211c1.665,0.788,4.969,0.581,5.791,0.343c0.572-0.166,1.629-1.407,1.227-2.18
	c0.334-0.074,0.604-1.108,0.437-1.411c-0.602-1.088-1.718-2.01-3.346-2.182c-5.546-0.583-6.896-3.374-8.804-5.869
	c-0.146-3.374-4.695-5.429-3.67-10.857c2.346-3.682,4.428-4.654,4.309-6.761c4.159-3.755,2.369-5.565,5.792-9.129
	c2.386,2.462,4.386,4.218,8.421,6.941c2.174,1.468,10.074,2.938,12.279,2.099c1.713-0.652,4.512-1.784,4.302-4.932
	c-0.21-3.149-4.302-5.982-4.827-9.865c-0.348-2.573-0.974-5.513-3.064-8.519c1.7-4.704,10.201-1.45,11.6-5.328
	c5.823-0.91,12.324-5.522,10.555-9.645C166.305,24.637,166.666,23.348,166.797,20.732z M87.885,78.767
	c-1.789,1.303-9.002,5.739-9.391,7.531c1.322,0.814,1.296,2.599,1.607,4.146c0.311,1.547-4.068,2.414-5.002-0.355
	c-1.012-0.57-1.323-1.791-1.167-2.361c-0.934-0.245-1.835-4.205,5.323-8.115c-0.934-0.813-0.795-2.287,0.762-2.369
	c0.129-0.999,1.382-3.943,3.007-5.381c1.846,1.218,4.734,2.345,7.931,2.697C90.198,76.293,89.059,77.913,87.885,78.767z
	 M163.315,24.821c2.5,3.334-4.032,7.795-9.636,8.662c-0.631,4.356-8.606,0.731-11.9,4.228c-0.874-0.992-2.932-2.986-4.213-3.971
	c-5.877-4.513-5.682-9.153-6.031-11.853c-0.137,0.476-0.35,1.518-0.512,1.476c0.25,3.5,1.14,8.715,6.494,13.216
	c4.617,3.884,7.137,8.187,7.205,11.6c0.092,4.456,4.352,7.268,4.549,10.229s-2.06,3.165-3.674,3.778
	c-2.076,0.789-8.376-0.618-10.494-1.889c-7.871-4.723-10.494-10.18-13.434-16.266c-1.765-3.657-5.334-7.469-4.989-11.161
	c-1.112,3.572,1.675,7.73,4.15,11.896c1.968,3.311,3.079,7.003,4.317,8.973c-3.539,3.587-2,6.083-6.334,8.75
	c0,2.5-2.02,4.37-4.166,7.333c-0.989,5.17,3.834,8.833,3.551,11.949c1.836,2.375,3.295,5.473,8.632,6.028
	c1.565,0.163,2.975,0.742,3.552,1.777c0.163,0.288,0.195,0.945-0.125,1.015c0.301,0.534-0.451,1.312-1.016,1.46
	c-0.564,0.149-3.348,0.116-4.951-0.634c-6.346,1.269-3.587-2.092-7.678-3.301c-0.672,1.512-1.665,1.427-2.031-0.508
	c-0.252-1.333-5.311-7.422-9.646-11.17c0.061-1.51-1.806-1.661-2.367-4.195c-0.298-1.346-2.605-1.325-3.979-1.727
	c-1.016-0.296-1.819-3.3-4.443-3.724c2.962,1.566,2.455,3.47,3.47,4.357c0.899,0.788,2.665-0.168,3.849,1.594
	c-5.254,2.118-16.066,0.243-17.316-3.007c-21.5-2.5-29.625-6.25-39.351-10.125c1.226,1.125,2.351,1.75,3.542,2.344
	c-0.13,3.729-2.641,6.357-2,11.056c0.45,3.301,2.964,10.919,7.446,12.524c8.47,3.031,4.561,5.581,2.37,4.569
	c-0.583,0.303-2.302,0.992-3.554-0.339c-0.338,0.431-1.892,0.64-2.792-0.846c-0.714-5.377-10.257-9.915-11.169-11.678
	c-0.912-1.762,1.313-5.986,0.847-8.461c-0.137-0.724-0.918-2.405-1.801-4.194c0.821-0.926,3.721-4.505,5.468-7.864
	c-2.419,3.225-5.134,6.386-6.719,7.827c-2.217,2.016-4.465,4.294-6.509,4.02c-1.694,1.817-5.791,1.853-8.187,5.267
	c-1.652,2.356-2.851,11.111-2.348,13.264c0.423,1.817,1.565,5.966,0.698,6.22c-1.648,0.483-2.642,0.423-3.681,0
	c-1.129-0.698-2.052-2.661-1.629-3.64c-1.129-0.28-2.689-2.121-0.148-4.356c0-2.376,0.861-9.225-0.127-11.74
	c-1.835-1.537-1.854-6.764,6.629-9.198c-0.211-3.452,1.76-7.072,2.065-10.095c-1.798-9.803,3.202-10.803,5.702-12.303
	c-0.141-1.258-0.833-3.084-0.75-5.25c-2.87-1.996-12.018-8.444-13.837-11.004S3.955,9.148,2.148,6.238
	C0.413,3.441,2,2.189,4.855,4.854c1.42,1.326,10.683,17.559,12.375,18.997c1.692,1.438,14.692,10.916,17.092,10.916
	s17.958-4.953,52.023,6.234c7.878-0.424,8.796-2.348,12.632-0.27c6.754-4.005,14.758-13.118,23.253-25.229
	c5.954-3.64,13.714-4.942,17.917-2.516c3.5-2.833,4.628,4.526,8.1,5.147c7.271,1.299,16.955,0.956,17.158,3.306
	C165.564,23.25,164.366,24.128,163.315,24.821z"/>
</svg>
