<?xml version="1.0" encoding="utf-8"?>
<!DOCTYPE svg PUBLIC "-//W3C//DTD SVG 1.1//EN" "http://www.w3.org/Graphics/SVG/1.1/DTD/svg11.dtd">
<svg version="1.1" id="silouhette-chat" xmlns="http://www.w3.org/2000/svg" xmlns:xlink="http://www.w3.org/1999/xlink" x="0px"
	 y="0px" width="70px" height="110px" viewBox="0 0 70 110" enable-background="new 0 0 70 110" xml:space="preserve">
<path fill="#ECE5DE" d="M5.812,60.713C0.937,72.291-1.721,89.6,6.029,99.35c-3.23,1.738-3.292,5.605-0.75,7.75
	c8,6.75,30.184-5.189,36.25-3.5c6.067,1.686,13.547,1.816,14.845,0.613c1.302-1.201,1.295-8.586-7.938-6.375
	c3.063-5.813,2.313-14.875-2.188-17.375c3.045-2.15,6.271-8.357,6.188-13.625c1.244-1.053,3.125-3.553,3.125-9
	c0.92-0.689,1.557-2.683,0.563-4.062c0.767-1.071-1.223-1.946-3.75-3.938c1-0.188,2.571-1.48,2.75-1.75
	c-0.995-0.306-2.5-1-3.688-2.188c0.482-0.402,1.417-0.771,2.75-0.938c-0.802-0.574-1.167-2.309-0.875-3
	c8.194-2.068,13.344-7.99,14.875-9.75c-0.843-0.231-3.12-0.4-4.5-1.625c0.611-0.078,1.429-0.833,1.813-1.063
	c-0.843-0.384-1.878-0.824-2.875-1.438c2.299-2.833,7.045-5.734,4.75-14.313c-2.914-0.229-7.741-1.769-11.188,0.375
	c-1.688-2.063-9.25-6.813-16.75-4.938c-0.612-4.443-6.578-7.729-12.782-8.801C24.51,3.705,25.048,12.343,25.967,15.1
	c-0.765,0.459-2.313,0.813-2.313,0.813s0.871,1.304,2.25,1.688c-2.222,0.383-4.638,0.671-6.093-0.324
	c0,1.375,0.438,3.813,2.405,4.824c-1.655,5.864,3.927,13.516,10.345,16.114C23.312,41.213,11.76,46.581,5.812,60.713z"/>
<path fill="#272B33" d="M69.244,32.089c-0.843-0.231-2.679-0.767-4.059-1.991c0.611-0.077,1.225-0.459,1.608-0.689
	c-0.843-0.383-1.99-0.766-2.987-1.379c2.299-2.833,6.662-6.355,4.367-14.934c-2.914-0.229-8.448-1.891-11.895,0.253
	c-2.427-3.727-10.853-6.304-16.597-4.925C39.07,3.982,32.102,1.072,25.897,0c-2.145,3.292-2.45,12.253-1.531,15.009
	c-0.765,0.459-2.222,0.459-2.222,0.459s0.843,1.532,2.222,1.915c-2.222,0.383-4.288-0.229-5.743-1.224
	c-0.536,1.3,1.073,3.14,1.073,3.14s-0.479,1.612,1.146,2.862c-1.25,3.313,3.512,13.524,9.93,16.122
	C0.112,43.1-5.451,88.391,4.529,98.725c-3.215,1.75-5.473,5.854-3.036,8.102c9.014,8.322,34.082-3.908,40.148-2.221
	c6.067,1.688,13.758,1.125,15.056-0.078c1.302-1.201,1.804-9.564-7.429-7.354c6.678-9.074-0.716-15.957-1.902-16.77
	c3.045-2.15,5.611-8.264,5.528-13.531c1.244-1.053,3.33-3.527,3.33-8.977c0.92-0.689,1.377-2.911,0.383-4.29
	c0.767-1.071-0.994-3.132-3.411-3.799c1.225,0,2.697-1.827,2.876-2.097c-0.995-0.305-2.604-0.994-4.366-1.838
	c1.115-0.023,2.199-0.398,3.073-1.023c-1.208-0.417-1.168-1.671-0.852-2.423C62.122,40.36,67.713,33.85,69.244,32.089z
	 M53.196,44.683c-1.416,0.542-2.5,0.792-3.708,0.875c1.708,1.208,3.156,2.064,4.05,2.354c-0.159,0.256-1.803,1.527-2.902,1.527
	c2.271,1.891,4.966,3.568,4.277,4.584c0.894,1.309,0.369,3.318-0.458,3.972c0,5.172-2.092,7.406-3.209,8.404
	c0.066,4.492-2.221,10.723-4.668,13.424c-2.134-1.568-5.632-2.559-9.799-2.059c8.333,0.834,17.5,5.834,10.647,20.875
	c8.292-2.098,9.266,3.291,8.098,4.432c-1.167,1.143-8.987,1.025-14.437-0.576c-5.45-1.604-28.421,10.902-36.516,3.004
	c-1.834-1.787-1.084-4.072,0.899-5.74c0.964,0.996,1.901,1.59,2.776,1.871c0.375-0.031,0.188-0.031,0.531-0.094
	C-4.795,92.541,0.01,41.895,37.21,39.018l2.889-1.721c-1.298-0.029-3.407,0.127-6.635,0.609
	c-8.256-4.621-12.622-11.464-10.935-16.12c-1.563-0.75-1.537-2.143-1.843-3.518c1.308,0.944,4.575,0.363,6.57,0
	c-1.238-0.364-2.292-2.14-2.292-2.14s1.759-0.633,2.444-1.069c-1.527-2.445-2.231-9.862-0.305-12.988
	c5.573,1.019,10.665,4.271,11.215,8.488c4.447-1.128,16.397-1.711,20.147,10.727c0.313-2.063-0.576-4.458-1.695-6.512
	c3.114-0.867,7.264,0.104,9.449,0.285c2.061,8.142-3.283,11.063-5.349,13.752c0.898,0.582,2.3,0.4,3.057,0.764
	c-0.344,0.219-1.743,1.454-2.292,1.527c1.238,1.162,4.133,1.462,4.89,1.682c-1.376,1.672-6.543,6.289-13.905,8.251
	C52.113,42.683,52.03,43.85,53.196,44.683z"/>
</svg>
