<?xml version="1.0" encoding="utf-8"?>
<!DOCTYPE svg PUBLIC "-//W3C//DTD SVG 1.1//EN" "http://www.w3.org/Graphics/SVG/1.1/DTD/svg11.dtd">
<svg version="1.1" id="sihlouette_chiens" xmlns="http://www.w3.org/2000/svg" xmlns:xlink="http://www.w3.org/1999/xlink" x="0px"
	 y="0px" width="600px" height="190px" viewBox="0 0 600 190" enable-background="new 0 0 600 190" xml:space="preserve">
<path opacity="0.1" fill="#35364F" d="M593.76,154.918c0.549,0.955-8.469,0.934-14.969,1.496c-3.098,0.27-2.688,2.507-5.822,2.169
	c-3.414,1.012-11.258,0.381-17.498-1.077c-10.797-4.632-16.215-6.922-25.102-9.305c-2.535,0.991-3.879,0.124-11.266-0.022
	c-29.908,4.329-42.924,2.279-45.164,2.289c-2.24,0.009-11.652,3.92-12.697,4.351c-1.045,0.43-5.074,6.162-7.005,7.578
	c-2.085,1.538-6.483,0.424-4.461-1.035c1.231-0.884,5.604-7.793,6.281-8.304c0.677-0.513,7.522-3.049,9.738-3.886
	c0.001-0.233-0.356-1.043-0.516-1.565c-3.469-0.839-6.286-2.09-7.692-4.857c-0.994-1.252-3.391-2.449-4-3.882
	c-7.514-1.239-10.354-0.533-8.835-1.483c0.342-1.045-1.947-3.425-2.507-4.412c-2.945-0.928-2.197-1.975-1.189-2.091
	c-0.635-0.406,0.238-1.226,1.148-1.516c0.889-0.176,3.332-0.176,5.016,0.024c0.885,0.105,0.879,1.98,0.902,2.734
	c0.027,0.894,3.516,1.178,5.629,2.152c3.061,1.414,6.078,1.207,8.099,1.958c1.968-0.123,4.087,0.623,6.833,1.672
	c0.389-0.542,0.695-1.029,0.643-1.328c-0.166-1.007-3.088-2.793-2.585-3.521c0.505-0.728,5.864-2.467,5.2-4.644
	c0.574-0.613,3.178-1.531,3.658-1.363c0.998-0.559,2.994-0.225,3.703-0.113c2.098-0.445,8.324,2.858-0.006,4.23
	c-4.396,0.729-2.975,2.497-2.576,3.835c0.545,1.819,3.332,2.643,4.42,3.975c9.674-1.632,23.688-2.905,27.332-3.56
	c0.039-0.02-0.84-0.038-0.797-0.056c-1.66-0.632-3.232-1.514-3.604-1.957c-1.557-0.031-2.41-0.629-1.66-0.961
	c-7.939-1.588-8.098-3.38-7.225-3.48c-0.275-0.232-0.229-0.73,0.656-0.963c0.338-1.128,6.732-0.73,6.75-0.101
	c0.02,0.631,0.992,1.459-0.15,1.789c0.768,0.73,8.197,2.118,10.246,2.646c1.49,0.386,2.764,1.143,3.785,1.919
	c4.006-0.172,8.225-0.032,9.721,0.367c0.385-0.495,1.408-0.646,1.037-1.266c3.336-1.54,7.029-2.283,6.996-2.829
	c-0.045-0.792,1.428-2.699,2.373-2.082c3.646-0.495-1.221-1.879,6.166-1.252c1.375-0.307,4.441,0.69,5.238,0.783
	c0.555,0.064,1.758,1.463,1.535,1.764c0.32,0.029,0.762,0.431,0.666,0.549c-0.346,0.422-1.193,1.699-2.65,1.767
	c-4.955,0.229-5.656,0.399-6.918,1.373c0.514,1.315-3.232,0.287-1.25,2.401c2.84,1.432,4.918,1.808,5.213,2.628
	c4.488,1.455,3.578,2.536,7.352,3.916c1.689-0.964,3.619-1.805,6.762-2.871c1.695-0.574,6.959-1.183,9.115-0.86
	c1.672,0.249,4.666,0.515,5.051,1.736s-2.717,2.188-2.477,3.695c0.162,1-0.104,2.461-1.43,3.634
	c2.396,1.82,10.16,0.659,12.121,2.157c5.391,0.332,10.994,2.248,10.848,3.382C593.051,153.523,593.176,153.906,593.76,154.918z"/>
<path opacity="0.1" fill="#35364F" d="M430.514,179.355c-11.594-0.765-15.76-0.907-17.905,0.416
	c-1.815,0.081-9.952,0.376-14.942,0.178c-4.094,2.093-6.746,4.514-8.055,4.493c-1.307-0.021-2.529-2.664,0.699-5.229
	c1.402-1.002,2.336-3.061,1.85-4.436c-1.912-0.489-6.066-8.4-4.223-9.956c-2.186-1.027-4.708-2.829-3.814-4.263
	c-29.488-7.062-43.722-20.701-42.146-26.169c-4.532,0.271-2.574-1.465-11.133-3.072c-2.002,0.339-7.254-1.102-15.841-0.097
	c-8.587,1.005-12.04-3.887-9.208-5.125c2.232-0.331,26.611-1.135,31.36-0.314c1.387,0.038,1.498-0.308,4.518,1.146
	c3.299-0.791,2.278-0.761,4.641-1.676c5.363,0.002,26.422,0.165,27.339,3.524c0.917,3.361-2.138,4.096-12.86,4.096
	c3.416,0.628,17.027,4.536,17.613,8.326c4.379,0.042,11.543,0.57,15.498,1.638c-0.029-3.385-1.764-8.677,2.094-8.771
	c3.043-1.082-1.066-2.476-1.307-4.035c2.713-0.943,12.905-0.781,12.905-0.781s3.195,4.215-1.522,3.872
	c-3.412,1.144,0.26,9.271-0.029,12.372c16.758,5.992,11.029,13.792,7.986,15.935c3.661,2.735,2.836,8.209,0.248,9.661
	c4.228,0.548,17.097,3.632,15.038,5.289C431.492,176.982,432.51,178.71,430.514,179.355z"/>
<path opacity="0.1" fill="#35364F" d="M335.021,163.632c-4.503,0.677-8.543,2.186-9.17,3.214c-0.391,0.641,0.828,2.507-1.404,3.468
	c-4.09,1.767-11.276,2.931-15.956,2.619c-7.055-0.471-21.269-4.931-22.245-9.129c-2.638-0.079-5.11-1.268-5.276-2.347
	c-10.356-0.752-33.348-8.397-37.785-14.396c-7.004-1.059-13.816-5.665-14.808-7.013c-3.819-0.466-4.852-3.406-10.456-4.046
	c-8.028-0.92-40.071,5.297-43.4,1.269c-0.826-0.998,3.381-3.711,7.63-3.75c17.885-0.162,36.325-5.967,47.627-6.578
	c11.301-0.61,55.085-2.413,57.121,1.832c0.506,1.057-0.75,4.397-6.24,4.815c-1.428,0.108-1.955,2.369,0.104,3.38
	c1.477,0.725,0.822,2.742,2.844,3.895c1.378,0.786,6.463,4.52,8.557,5.854c2.055,0.567,11.782,2.597,11.611,8.131
	c0.498,0.053,2.083-0.363,4.596-0.186c-1.43,0.422-1.301,1.116-0.796,1.318c0.59,0.235,1.76-0.113,4.195,0.202
	c-1.685,0.505-1.638,1.106-1.509,1.341c1.938-0.223,6.638,0.875,6.843,1.67c6.726-0.479,11.882-0.451,12.021,0.295
	c1.813-0.056,2.525,1.491,3.398,2.076C334.789,162.121,335.855,163.507,335.021,163.632z"/>
<path opacity="0.1" fill="#35364F" d="M133.879,131.072c3.254,1.328,5.66,4.153-0.175,5.279c4.381,1.619,8.089,6.146,8.366,6.513
	c1.682-0.806,2.575-0.166,3.112,0.534c1.333-0.458,2.812,0.075,2.98,0.865c0.26,0.953,0.513,1.354,0.863,2.311
	c1.177,3.212-1.57,3.928-3.927,4.194c-0.49,1.362-2.139,2.988-3.404,3.479c0.491,0.445,1.544,0.643,2.902,0.551
	c-0.327,0.752-2.362,0.579-2.735,0.94c0.563,0.443,1.379,0.858,2.587,0.931c-0.6,0.619-3.037-0.039-3.522,0.258
	c0.371,0.5,0.955,0.598,2.37,0.78c-0.55,0.42-2.022,0.399-3.205,0.446c0.501,0.325,0.432,0.3,0.562,0.892
	c-1.528-0.233-1.916-0.33-2.901-0.241c-2.652,1.194-3.274,2.238-1.922,4.011c1.228,1.611,3.038,2.266,6.547,2.766
	c3.175,0.451,5.726,1.557,4.373,2.622c1.273,0.263,1.791,0.979,0.591,1.616c-1.365,0.432-5.365,0.479-6.7,0.486
	c0.663,0.528,0.371,0.859-1.087,1.138c-1.053,0.873-2.489,1.655-4.313,2.459c-2.477,0.184-4.07,0.245-5.51,0.293
	c0.743,1.032,0.084,2.883-1.062,3.655c-1.403,0.949-2.533-0.357-3.35-1.962c-0.244-0.479-0.894-1.058-1.087-1.859
	c-0.931-0.216-1.769-0.563-2.524-0.992c-1.073,0.673-1.809,1.526-2.762,2.083c-3.586,2.106-2.77-1.659-2.981-2.44
	c-0.414-1.537-2.285-3.141-1.842-4.712c0.183-0.646,0.767-1.192,1.418-1.72c-2.029-1.353-3.917-10.453-2.033-13.206
	c0.388-3.145,2.031-8.465-3.655-13.278c-2.641-2.234-5.6-3.201-5.311-6.1c-1.38-0.347-8.583,2.029-12.524,1.832
	c-2.792-0.141-9.775,0-12.226-2.225c-2.169-1.969,9.823-1.199,10.58-1.242c34.33-13.639,54.313-3.812,55.023-3.815
	C144.86,135.189,135.374,130.894,133.879,131.072z"/>
<path opacity="0.1" fill="#35364F" d="M66.958,164.401c0.734,1.784-1.312,3.105-4.068,3.914c0.622,0.979,0.444,2.689-0.891,3.728
	c1.68,1.146,1.431,1.623,0.743,2.363c1.975,0.999,1.325,3.088-0.01,3.737c0.686,0.702,1.286,3.365,0.947,4.308
	c1.244-0.166,1.851-0.352,2.297,0.537c2.389,1.19,5.908,4.218,0.738,4.55c-1.456,0.865-3.334,0.98-5.869,0.938
	c-6.436,1.338-8.159-0.219-8.929-1.034c-6.366,0.256-13.47-2.16-14.414-3.118c-4.127,0.443-7.469,0.835-9.313-1.719
	c-1.264-0.41-2.96-1.128-3.053-2.18c-1.178-0.396-3.012-2.36,5.226-3.508c1.139-0.828,1.553-1.222,2.189,0.76
	c1.507-0.519,2.417-0.293,3.357-0.38c1.701-0.804,4.248-4.343,2.96-5.436c-0.459-0.391-3.952-2.969-6.103-3.946
	c-7.836-2.346-7.35-7.865-8.866-11.592c-5.79-2.956-4.111-4.473-4.034-5.314c-6.648-1.503-8.277-2.544-8.491-5.129
	c-5.803,0.917-10.237-2.154-8.552-8.552c-1.528-1.527-0.626-4.484,0.305-5.804c31.157-21.994,72.089-0.611,71.478,3.36
	c0.585,2.173-5.587,4.393-9.164,4.276c1.832,4.275,1.222,6.719-3.971,8.858c1.448,2.228,2.902,4.704,0.75,6.502
	C62.914,158.566,66.068,162.244,66.958,164.401z"/>
<path fill="#BFAD95" d="M579.477,64.704c0.113-2.266-9.111-2.11-16.037-3.36c-3.305-0.597-3.975-5.875-7.025-5.041
	c-4.004-2.333-11.742-0.751-17.412,2.749c-8.701,10.987-13.059,16.409-20.883,22.065c-3.096-2.295-4.012-0.255-11.449,0.148
	c-32.809-9.815-44.938-4.937-47.225-4.937c-2.285,0-14.123-8.962-15.441-9.945c-1.316-0.983-8.787-14.17-11.605-17.412
	c-3.057-3.511-6.918-0.89-3.973,2.444c1.788,2.024,10.314,17.915,11.303,19.091c0.986,1.174,9.426,6.979,12.158,8.897
	c0.135,0.538,0.23,2.418,0.365,3.627c-3.047,1.972-5.192,4.887-5.04,11.301c-0.292,2.909-2.033,5.692-1.833,9.013
	c-6.873,2.901-7.637,7.637-5.564,9.827c0.941,2.42,0,7.933,0,10.22c-2.422,2.151-1.076,4.571,0,4.841
	c-0.404,0.94,0.936,2.84,2.012,3.513c0.988,0.405,3.432,0.405,5.001-0.059c0.825-0.244-0.235-4.592-0.64-6.338
	c-0.477-2.073,0.389-9.103,1.965-11.369c2.281-3.288,5.436-2.818,7.049-4.565c2.052,0.277,3.77-1.461,5.955-3.909
	c0.692,1.256,1.272,2.387,1.387,3.08c0.391,2.341-1.559,6.499-0.648,8.188s10.006,5.716,10.527,10.785
	c0.908,1.43,2.598,1.43,2.988,1.04c1.299,1.299,3.119,0.521,3.768,0.259c2.34,1.04,7.785-2.394-1.299-5.587
	c-4.807-1.689-6.688-7.935-7.018-11.047c-0.449-4.232,1.91-6.159,2.273-9.263c10.65,3.76,25.455,6.673,29.473,8.194
	c0.049,0.042,0.098,0.086,0.148,0.127c-1.342,1.482-2.459,3.549-2.6,4.585c-1.549,0.079-2.094,1.474-1.164,2.251
	c-7.135,3.721-5.426,7.906-4.498,8.141c-0.152,0.542,0.156,1.706,1.164,2.249c0.932,2.636,6.203,1.705,5.895,0.232
	c-0.311-1.474,0.232-3.411-1.086-4.187c0.387-1.708,6.203-4.964,7.988-6.205c1.297-0.902,2.186-2.678,2.811-4.498
	c4.121,0.39,8.293,0.05,9.594-0.89c0.641,1.161,1.744,1.511,1.686,2.966c4.131,3.604,9.125,9.648,9.363,10.934
	c0.35,1.859,1.861,2.033,2.502,0.58c3.896,1.163-0.291,4.421,6.789,2.942c1.525,0.724,4.553,0.533,5.307,0.315
	c0.525-0.152,1.494-1.291,1.125-1.998c0.307-0.067,0.553-1.017,0.398-1.294c-0.551-0.997-1.572-1.842-3.064-1.999
	c-5.082-0.533-6.32-3.091-8.066-5.379c-0.135-3.09-4.303-4.973-3.363-9.949c2.148-3.373,4.057-4.265,3.947-6.194
	c3.811-3.441,2.354-5.98,5.492-9.246c2.186,2.258,4.549,4.225,8.246,6.721c1.992,1.344,7.602,2.755,9.623,1.985
	c1.568-0.599,4.469-1.239,4.275-4.124c-0.191-2.886-3.795-5.147-4.275-8.705c-0.32-2.357-1.293-5.8-3.209-8.554
	c1.559-4.31,10.021-1.639,11.305-5.192c5.334-0.834,10.148-5.418,9.467-8.096C579.408,68.005,579.357,67.1,579.477,64.704z"/>
<path fill="#272B33" d="M580.223,64.469c0.113-2.266-9.617-2.501-16.541-3.751c-3.307-0.597-2.99-8.386-7.879-4.568
	c-4.275-3.665-12.053-1.111-17.723,2.392c-8.699,10.987-11.295,16.395-19.848,22.351c-4.125-2.442-6.723,0.61-11.607,0.765
	c-15.275-8.247-42.309-7.637-46.584-5.957c-2.128,0.836-14.719-8.333-16.037-9.316c-1.316-0.983-8.787-14.17-11.605-17.412
	c-3.057-3.511-6.918-0.89-3.973,2.444c1.788,2.024,10.354,18.183,11.341,19.359c0.985,1.174,8.837,6.9,11.569,8.819
	c0.134,0.538,0.781,2.228,0.916,3.437c-3.207,1.375-5.727,4.812-5.04,11.301c-0.292,2.909-2.033,5.692-1.833,9.013
	c-6.873,2.901-7.637,7.637-5.564,9.827c0.941,2.42,0,7.933,0,10.22c-2.422,2.151-1.076,4.571,0,4.841
	c-0.404,0.94,0.936,2.84,2.012,3.513c0.988,0.405,3.432,0.405,5.001-0.059c0.825-0.244-0.235-4.592-0.64-6.338
	c-0.477-2.073,0.389-9.103,1.965-11.369c2.281-3.288,5.436-2.818,7.049-4.565c2.052,0.277,3.77-1.461,5.955-3.909
	c0.692,1.256,1.272,2.387,1.387,3.08c0.391,2.341-1.559,6.499-0.648,8.188s10.006,5.716,10.527,10.785
	c0.908,1.43,2.598,1.43,2.988,1.04c1.299,1.299,3.119,0.521,3.768,0.259c2.34,1.04,7.785-2.394-1.299-5.587
	c-4.807-1.689-6.688-7.935-7.018-11.047c-0.449-4.232,1.91-6.159,2.273-9.263c10.045,4.584,21.957,7.333,29.748,7.792
	c-1.363,0.957-2.586,4.078-2.727,5.114c-1.549,0.079-2.094,1.474-1.164,2.251c-7.135,3.721-5.426,7.906-4.498,8.141
	c-0.152,0.542,0.156,1.706,1.164,2.249c0.932,2.636,6.203,1.705,5.895,0.232c-0.311-1.474,0.232-3.411-1.086-4.187
	c0.387-1.708,6.203-4.964,7.988-6.205c1.297-0.902,2.186-2.678,2.811-4.498c4.121,0.39,8.293,0.05,9.594-0.89
	c0.641,1.161,1.744,1.511,1.686,2.966c4.131,3.604,9.125,9.648,9.363,10.934c0.35,1.859,1.861,2.033,2.502,0.58
	c3.896,1.163-0.291,4.421,6.789,2.942c1.525,0.724,4.553,0.533,5.307,0.315c0.525-0.152,1.494-1.291,1.125-1.998
	c0.307-0.067,0.553-1.017,0.398-1.294c-0.551-0.997-1.572-1.842-3.064-1.999c-5.082-0.533-6.32-3.091-8.066-5.379
	c-0.135-3.09-4.303-4.973-3.363-9.949c2.148-3.373,4.057-4.265,3.947-6.194c3.811-3.441,2.172-5.102,5.307-8.365
	c2.188,2.255,4.02,3.863,7.719,6.36c1.992,1.345,9.23,2.692,11.252,1.923c1.57-0.598,4.135-1.634,3.941-4.52
	c-0.191-2.885-3.941-5.482-4.424-9.04c-0.318-2.357-0.893-5.053-2.809-7.807c1.559-4.311,9.35-1.328,10.631-4.884
	c5.336-0.834,11.293-5.06,9.672-8.837C579.771,68.047,580.104,66.866,580.223,64.469z M507.91,117.652
	c-1.641,1.194-8.25,5.258-8.605,6.901c1.211,0.746,1.186,2.381,1.473,3.8c0.285,1.417-3.729,2.212-4.584-0.326
	c-0.926-0.522-1.213-1.642-1.07-2.164c-0.855-0.225-1.682-3.853,4.877-7.437c-0.855-0.746-0.729-2.096,0.699-2.171
	c0.119-0.916,1.268-3.613,2.756-4.931c1.691,1.115,4.338,2.147,7.266,2.472C510.029,115.384,508.986,116.87,507.91,117.652z
	 M577.031,68.215c2.291,3.056-3.693,7.144-8.828,7.938c-0.578,3.993-7.887,0.671-10.904,3.875c-0.803-0.908-2.688-2.736-3.861-3.639
	c-5.385-4.136-5.207-8.388-5.527-10.861c-0.125,0.437-0.32,1.39-0.469,1.353c0.229,3.207,1.043,7.986,5.951,12.109
	c4.23,3.561,6.539,7.504,6.602,10.632c0.084,4.083,3.988,6.66,4.17,9.373c0.18,2.713-1.889,2.899-3.367,3.462
	c-1.902,0.723-7.678-0.565-9.617-1.731c-7.213-4.327-9.617-9.328-12.311-14.905c-1.617-3.353-4.887-6.844-4.572-10.229
	c-1.018,3.273,1.535,7.084,3.803,10.902c1.805,3.033,2.822,6.417,3.957,8.222c-3.242,3.288-1.832,5.575-5.805,8.019
	c0,2.29-1.85,4.005-3.816,6.721c-0.908,4.737,3.514,8.094,3.254,10.95c1.682,2.176,3.02,5.015,7.908,5.523
	c1.436,0.149,2.727,0.68,3.256,1.628c0.148,0.265,0.18,0.866-0.113,0.931c0.275,0.488-0.414,1.201-0.932,1.338
	c-0.518,0.138-3.068,0.106-4.537-0.58c-5.814,1.161-3.287-1.917-7.035-3.024c-0.617,1.385-1.527,1.307-1.861-0.466
	c-0.23-1.223-4.867-6.802-8.84-10.236c0.055-1.384-1.656-1.523-2.17-3.845c-0.273-1.232-2.387-1.215-3.646-1.582
	c-0.93-0.271-1.668-3.024-4.07-3.413c2.713,1.436,2.25,3.181,3.178,3.993c0.826,0.723,2.443-0.154,3.527,1.46
	c-4.813,1.942-14.723,0.224-15.867-2.754c-19.703-2.291-27.148-5.728-36.062-9.279c1.124,1.031,2.155,1.604,3.247,2.148
	c-0.121,3.417-2.42,5.826-1.834,10.13c0.412,3.025,2.717,10.007,6.824,11.479c7.76,2.778,4.18,5.113,2.17,4.187
	c-0.535,0.277-2.109,0.909-3.258-0.31c-0.309,0.394-1.732,0.585-2.557-0.775c-0.656-4.927-9.4-9.087-10.236-10.701
	s1.203-5.486,0.775-7.754c-0.125-0.663-0.842-2.205-1.65-3.844c0.754-0.848,3.41-4.128,5.012-7.205
	c-2.218,2.954-4.705,5.85-6.159,7.171c-2.03,1.847-4.091,3.937-5.964,3.683c-1.553,1.667-5.307,1.699-7.502,4.828
	c-1.515,2.158-2.611,10.183-2.152,12.154c0.389,1.664,1.434,5.466,0.64,5.699c-1.511,0.443-2.422,0.388-3.372,0
	c-1.036-0.64-1.881-2.438-1.492-3.334c-1.035-0.259-2.465-1.944-0.137-3.994c0-2.177,0.789-8.453-0.116-10.758
	c-1.683-1.409-1.698-6.198,6.075-8.429c-0.193-3.164,1.611-6.48,1.891-9.252c-1.646-8.982,2.936-9.898,5.227-11.273
	c-0.129-1.152-0.764-2.826-0.687-4.812c-2.632-1.829-11.013-7.738-12.681-10.083c-1.667-2.347-9.49-15.199-11.146-17.866
	c-1.591-2.563-0.136-3.71,2.481-1.269c1.302,1.215,9.788,16.09,11.341,17.409c1.551,1.317,13.463,10.003,15.662,10.003
	s16.457-4.539,47.674,5.713c7.219-0.388,8.061-2.151,11.576-0.247c6.189-3.67,13.523-12.021,21.309-23.118
	c5.455-3.337,12.566-4.53,16.418-2.306c3.207-2.597,4.24,4.146,7.424,4.716c6.662,1.19,15.537,0.877,15.723,3.03
	C579.094,66.777,577.994,67.582,577.031,68.215z"/>
<path fill="#888D9E" d="M421.623,15.138c-11.785,1.345-16.035,1.511-18.443-1.707c-1.879-0.269-10.279-1.292-15.372-1.025
	c-4.556-5.094-7.694-10.899-9.036-10.899c-1.341,0-2.143,6.167,1.612,12.333c1.607,2.416,2.912,7.306,2.644,10.521
	c-1.874,1.073-4.782,19.518-2.644,23.271c-2.054,2.314-4.313,6.437-3.163,9.86c-28.66,15.06-40.501,46.188-37.911,59.087
	c-4.591-0.92-2.308,3.269-10.572,6.48c-2.067-0.917-9.407-0.94-14-1.171c-2.292-2.298-4.597-3.464-7.351-2.086
	c-2.756,1.379-3.539,4.52-0.459,7.585c2.293,0.92,23.875,2.067,28.468,0.458c1.378,0,4.132-1.15,6.888-4.364
	c3.443,2.068-0.166,3.902,2.358,6.199c5.358,0.347,22.99,1.037,29.213,0.347c0-1.425-0.671-2.683-1.87-3.501
	c-0.012-0.015-0.02-0.026-0.03-0.042c-0.027-0.013-0.052-0.021-0.079-0.031c-0.518-0.333-1.121-0.598-1.824-0.748
	c0-2.766-4.754-3.198-11.469-2.224c3.31-1.261,16.137-11.777,16.096-20.676c4.397,0.158,11.516-0.667,15.326-2.954
	c0.507,8.003-0.402,20.417,3.477,20.877c3.214,2.754,2.066,5.97,2.066,9.648c2.855,2.414,12.879,0.515,12.879,0.515
	s0.232-3.456-4.437-2.938c-3.587-2.936-1.41-26.323-2.173-33.691c16.026-13.284,9.072-32.104,5.656-37.338
	c3.309-6.305,1.637-19.32-1.23-22.877c4.236-1.11,16.945-7.866,14.593-11.89C422.978,20.816,423.768,16.75,421.623,15.138z"/>
<path fill="#272B33" d="M422.17,14.915c-11.781,1.345-16.34,0.804-18.75-2.414c-1.877-0.268-9.908-1.07-15-0.804
	c-4.557-5.094-8.307-10.19-9.648-10.19c-1.341,0-2.143,6.167,1.612,12.333c1.607,2.416,1.607,8.051,1.339,11.265
	c-1.874,1.074-3.478,18.773-1.339,22.526c-4.188,2.006-5.48,5.467-4.331,8.891c-28.66,15.06-40.568,46.434-37.98,59.332
	c-4.59-0.922-1.07,3.993-9.335,7.205c-2.067-0.917-9.407-0.94-14-1.171c-2.292-2.298-4.597-3.464-7.351-2.086
	c-2.756,1.379-3.539,4.52-0.459,7.585c2.293,0.92,23.875,2.067,28.468,0.458c1.378,0,4.132-1.15,6.888-4.364
	c3.443,2.068-0.166,3.902,2.358,6.199c5.358,0.347,22.99,1.037,29.213,0.347c0-1.425-0.671-2.683-1.87-3.501
	c-0.012-0.015-0.02-0.026-0.03-0.042c-0.027-0.013-0.052-0.021-0.079-0.031c-0.518-0.333-1.121-0.598-1.824-0.748
	c0-2.766-4.754-3.198-11.469-2.224c3.31-1.261,16.137-11.777,16.096-20.676c4.397,0.158,11.516-0.667,15.326-2.954
	c0.507,8.003-0.402,20.417,3.477,20.877c3.214,2.754,2.066,5.97,2.066,9.648c2.855,2.414,12.879,0.515,12.879,0.515
	s0.232-3.456-4.437-2.938c-3.587-2.936-1.41-26.323-2.173-33.691c16.026-13.284,9.072-32.104,5.656-37.338
	c3.309-6.305,1.637-19.32-1.23-22.877c4.236-1.11,16.945-7.866,14.593-11.89C422.978,20.816,424.316,16.526,422.17,14.915z
	 M418.89,21.798c0.685,5.123-9.394,10.075-15.369,11.442c3.657,6.127,5.464,16.223,1.563,23.816
	c4.243,6.582,9.425,22.507-3.062,35.399c0.031-1.772,0.229-3.766,0.541-5.141l-1.651,2.426c-0.417,2.425-0.752,5.699-0.492,8.711
	c0.89,10.289-0.89,26.167,2.245,30.135c2.017-0.059,3.977,0.402,4.493,1.668c-2.362,0.403-6.97,0.922-10.372-0.576
	c0-3.6,1.175-7.557-1.9-10.255c-4.107-0.273-2.748-17.754-2.85-20.337c-0.102-2.579-1.271-6.352-3.175-7.621
	c-2.228-1.483,1.017-7.874-1.017-14.098c0.254,6.098-2.794,12.7-0.761,14.733c2.351,2.35,2.667,4.065,2.609,6.211
	c-4.344,2.092-10.577,3.331-15.236,2.427c-1.459-4.996-9.352-5.693-11.836-4.421c7.118,0.088,10.125,2.85,10.024,5.704
	c-0.288,8.075-7.156,17.05-18.673,23.318c1.271-0.339,2.71-0.68,3.896-1.188c5.927-0.676,10.28-0.835,10.807,1.317
	c-2.089-0.349-5.79-0.063-7.927,0.292c6.434-0.168,10.773,0.459,11.206,3.398c-5.952,0.677-21.498-0.181-26.62-0.519
	c-2.414-2.249,1.47-4.235-2.854-7.088c-2.633,3.146-6.623,6.099-7.939,6.099c-3.283,0.692-23.71,0.241-25.905-0.659
	c-2.42-1.554-3.103-4.432-0.468-5.787c2.248-0.864,3.809-0.223,6.003,2.026c4.323-0.347,10.073,0.21,14.393,1.246
	c9.613-2.136,5.911-9.096,12.453-6.193c-6.832-19.47,17.93-52.769,38.253-60.454c-2.903-3.757,0-7.515,3.173-9.465
	c-2.047-3.674-1.412-20.573,1.611-23.802c-0.806-3.428-0.604-6.452-0.806-9.279c-3.589-6.033-5.421-11.764-4.14-11.764
	c1.283,0,3.819,4.759,8.174,9.749c4.869-0.264,12.906,0.407,14.699,0.672c2.307,3.147,7.386,4.458,19.129,2.391
	C423.16,17.909,420.943,20.486,418.89,21.798z"/>
<path fill="#DDD6CC" d="M318.123,46.826c-4.951-0.9-9.892-3.778-11.094-6.048c-0.75-1.416-0.535-5.881-3.344-7.755
	c-5.162-3.441-13.168-5.028-17.78-3.608c-6.95,2.137-18.918,14.426-17.499,24.136c-2.638,0.567-4.465,3.629-4.013,6.113
	c-10.08,3.207-28.866,23.826-29.783,38.03c-6.415,3.359-10.504,14.703-10.691,17.883c-3.546,1.564-2.816,8.348-8.032,10.537
	c-7.464,3.136-36.519,4.808-39.695,8.693c-0.94,1.146,1.234,2.074,5.498,1.604c17.944-1.981,41.975-4.195,43.299-4.812
	c2.024-0.942,4.472-1.914,5.738-2.638c0.208,0.104,0.384,0.23,0.539,0.376c0.002,0.004,0.005,0.011,0.009,0.015
	c0.096,0.108,0.183,0.199,0.263,0.282c1.077,1.369,0.979,3.695,4.902,3.782c3.234,0.071,27.464,0.239,30.594-0.152
	c3.756,1.408,5.869-1.174,5.791-2.66c2.582,0.156,5.789,0.548,7.667-0.233c3.052,0.547,5.169,0.71,5.868-1.488
	c0.549-1.72-0.703-5.32-6.416-5.555c-1.484-0.062-3.286-5.164-1.799-7.747c1.068-1.854-0.725-6.383,0.651-9.287
	c0.938-1.983,3.943-11.219,5.3-14.557c1.749-1.582,10.415-7.577,7.159-20.243c0.476-0.188,2.312,0.542,4.754-0.223
	c-1.681-0.765-1.937-2.376-1.538-2.909c0.466-0.627,1.844,0.008,4.135-1.063c-1.986-0.915-2.272-2.303-2.272-2.859
	c2.087,0.231,6.246-2.956,6.015-4.812c7.084,0.134,12.299-0.671,12.033-2.409c1.871-0.132,1.753-3.798,2.322-5.273
	C318.705,50.341,319.04,46.99,318.123,46.826z M267.033,124.659c-0.783,0.233-1.721,0.625-2.738,1.017
	c-2.504-0.315-5.738,0.023-9.494,0.857c2.047-0.613,6.703-6.046,7.665-8.715c0.026-0.045,0.056-0.09,0.083-0.136
	c1.344,0.927,2.479,1.353,2.79,3.426C265.609,122.918,266.342,124.009,267.033,124.659z"/>
<path fill="#272B33" d="M318.123,46.826c-4.951-0.9-9.892-3.778-11.094-6.048c-0.75-1.416-0.535-5.881-3.344-7.755
	c-5.162-3.441-13.168-5.028-17.78-3.608c-6.95,2.137-18.918,14.426-17.499,24.136c-2.638,0.567-5.086,2.918-4.634,5.401
	c-12.896,5.064-26.106,22.399-30.383,38.59c-6.415,3.359-9.282,14.855-9.47,18.035c-3.546,1.564-2.816,8.348-8.032,10.537
	c-7.464,3.136-40.765,4.416-41.105,9.495c-0.108,1.617,1.266,1.825,5.529,1.354c17.944-1.981,43.44-3.975,44.764-4.593
	c2.024-0.941,4.385-2.686,5.651-3.409c0.208,0.104,0.384,0.23,0.539,0.376c0.002,0.004,0.005,0.011,0.009,0.015
	c0.096,0.108,0.183,0.199,0.263,0.282c1.077,1.369,0.979,3.695,4.902,3.782c3.234,0.071,27.464,0.239,30.594-0.152
	c3.756,1.408,5.869-1.174,5.791-2.66c2.582,0.156,5.789,0.548,7.667-0.233c3.052,0.547,5.169,0.71,5.868-1.488
	c0.549-1.72-0.703-5.32-6.416-5.555c-1.484-0.062-3.286-5.164-1.799-7.747c1.068-1.854-0.725-6.383,0.651-9.287
	c0.938-1.983,3.943-11.219,5.3-14.557c1.749-1.582,10.415-7.577,7.159-20.243c0.476-0.188,2.312,0.542,4.754-0.223
	c-1.681-0.765-1.937-2.376-1.538-2.909c0.466-0.627,1.844,0.008,4.135-1.063c-1.986-0.915-2.272-2.303-2.272-2.859
	c2.087,0.231,6.246-2.956,6.015-4.812c6.871,0.801,11.76-0.192,12.033-2.409c2.093-0.074,2.779-3.594,2.626-5.121
	C319.451,51.638,319.04,46.99,318.123,46.826z M315.915,51.838c0.135,1.872-0.129,4.695-2.872,4.582
	c-0.159,2.633-7.353,2.405-10.608,1.541c0.403-3.405-0.822-6.957-1.825-7.957c-1.337-1.338,0.269-6.686-3.341-6.952
	c2.941,2.005,1.07,5.881,2.404,7.752c1.34,1.874,1.605,8.69,0.403,10.427c0,0-0.009,0.021-0.021,0.049
	c-1.044,1.174-2.656,2.156-4.924,2.093c-2.944-0.085-3.533-6.331-5.351-7.89c-1.869-1.603-4.813-1.736-4.813-1.736
	s1.738,0.4,3.746,2.272c2.478,2.313,0.766,6.585,5.882,8.688c0.187,0.3,0.495,1.676,2.022,2.287
	c-1.984,0.61-3.016-0.253-3.666,0.458c-0.406,0.444-0.152,2.289,0.765,3.054c-1.681,0.306-2.901,0.154-3.817-0.305
	c3.082,12.314-4.885,19.472-7.18,20.619c-0.939,4.172-3.758,12.337-4.968,14.538c-1.498,2.728,0.181,8.013-0.782,9.832
	c-0.705,1.33,0.088,8.935,2.581,9.154c2.661,0.234,5.868,0.938,5.79,3.99c-0.056,2.238-2.311,1.142-4.93,0.937
	c-1.643,0.863-4.85,1.017-7.196,0.08c0.155-2.658-2.302-4.874-4.618-4.614c-0.951-1.285-2.359-4.036-2.58-5.558
	c-0.193-1.317-1.508-2.121-2.758-2.774c5.109-15.338-5.535-19.404-12.955-18.322l1.447,0.56
	c15.674,0.688,13.695,18.439-0.289,29.458c5.007-1.175,8.919-2.112,12.988-1.565c1.408-0.626,4.46-1.563,6.416,0
	c3.07,2.456,0.104,7.616-3.6,5.79c-2.457,0.752-25.992-0.347-29.055-0.261c-5.089,0.143-4.585-2.488-6.472-4.02
	c-1.398-2.003-3.069-4.767-2.474-8.875l-0.25-0.426c-0.814,3.037-0.424,6.745,1.508,9.216c-1.382,0.745-3.706,1.855-5.355,2.644
	c-1.253,0.6-23.949,2.873-40.94,4.801c-4.037,0.458-5.495,0.796-6.006-0.419c-1.041-2.47,29.582-4.303,38.965-7.98
	c5.008-1.964,4.467-9.277,7.825-10.798c0.177-3.094,3.411-15.078,9.902-17.445c4.582-16.188,17.792-35.204,30.546-38.488
	c-0.423-2.257,0.871-6.015,4.736-5.93c-3.407-7.948,9.459-21.48,16.041-23.561c4.367-1.38,11.6,0.181,16.489,3.527
	c2.655,1.818,2.352,5.925,3.061,7.301c1.14,2.209,6.341,5.238,11.03,6.116C317.688,47.889,318.225,50.166,315.915,51.838z
	 M267.033,124.659c-0.783,0.233-1.721,0.625-2.738,1.017c-2.504-0.315-5.738,0.023-9.494,0.857c2.047-0.613,6.703-6.046,7.665-8.715
	c0.026-0.045,0.056-0.09,0.083-0.136c1.344,0.927,2.479,1.353,2.79,3.426C265.609,122.918,266.342,124.009,267.033,124.659z"/>
<path fill="#BB9486" d="M132.403,124.335c2.97-3.342,4.765-10.148-1.344-12.363c4.047-4.123,6.789-15.038,6.989-15.922
	c1.871,1.761,2.632,0.185,3.022-1.503c1.444,0.97,2.819-0.404,2.819-2.274c0.058-2.269,0.226-3.235,0.375-5.513
	c0.499-7.666-2.437-9.112-4.88-9.533c-0.793-3.159-2.821-6.83-4.211-7.866c0.4-1.092,1.425-1.65,2.822-1.557
	c-0.497-1.74-2.523-1.146-2.981-1.957c0.474-1.094,1.211-2.145,2.422-2.423c-0.745-1.398-3.075,0.372-3.633-0.279
	c0.266-1.207,0.838-1.491,2.236-2.052c-0.652-0.932-2.143-0.744-3.355-0.744c0.438-0.811,0.373-0.746,0.373-2.145
	c-1.501,0.693-1.875,0.956-2.896,0.841c-2.964-2.541-3.83-4.919-2.854-9.199c0.89-3.889,2.589-5.6,6.057-7.125
	c3.14-1.382,5.501-4.238,3.886-6.599c1.243-0.747,1.615-2.484,0.249-3.854c-1.491-0.868-5.591-0.559-6.958-0.435
	c0.56-1.305,0.188-2.05-1.366-2.548c-1.273-1.925-2.919-3.603-4.97-5.279c-2.578-0.161-4.225-0.131-5.711-0.086
	c0.524-2.486-0.576-6.721-1.93-8.394c-1.659-2.047-2.516,1.118-2.982,4.937c-0.139,1.142-0.67,2.559-0.683,4.443
	c-0.904,0.602-1.681,1.495-2.354,2.577c-1.255-1.446-2.21-3.347-3.316-4.536c-4.175-4.481-2.447,4.149-2.477,5.982
	c-0.062,3.603-1.594,7.514-0.77,11.105c0.339,1.479,1.064,2.687,1.854,3.841c-1.75,3.34-1.521,24.606,1.037,30.82
	c1.128,7.264,4.028,19.482-0.58,31.112c-2.132,5.383-3.685,11.704-2.712,18.4c-1.302,0.897-6.872,4.953-10.773,5.674
	c-2.762,0.513-10.854-0.946-12.835,1.067c-2.496,2.532,10.127,2.103,10.896,2.151c4.446,0.294,11.214-2.338,15.321-4.049
	c0,0,3.017,2.071,4.485,3.231c-0.882,1.367-1.877,3.479-0.261,4.721c11.803-0.868,20.749,4.97,20.5,2.237
	c4.97-0.247,1.367-3.23-0.745-3.729c0.497-2.236-6.709-0.993-10.25-2.298c2.924-0.299,6.761-2.201,8.262-4.286
	c0.695-0.966,1.135-2.162,1.33-3.467c0.015,0,0.03-0.004,0.045-0.006l-0.381,1.734c0.459-0.284,7.503,2.382,8.552,2.63
	c0.27,1.486,6.121,0.491,6.833,0.452C146.222,126.722,133.941,124.648,132.403,124.335z"/>
<path fill="#010101" d="M133.106,124.089c2.306-2.111,4.979-9.448-1.207-12.581c4.047-6.186,5.908-13.561,6.269-15.15
	c0.146,0.648,2.705,1.45,3.17-1.383c1.405,0.771,3.238-1.405,2.971-3.391c-0.304-1.088-0.187-2.387,0.19-5.194
	c0.994-7.368-3.589-9.2-4.811-9.545c-0.15-2.601-2.943-6.629-4.062-7.597c0.395-0.769,2.871-1.039,2.871-1.039
	s-0.193-2.087-3.045-2.43c0.615-1.957,2.539-2.102,2.539-2.102s-0.184-1.595-3.747-0.753c0.146-1.214,2.368-1.66,2.368-1.66
	s-1.352-1.666-3.325-1.297c0.144-0.356,0.141-2.579,0.141-2.579s-2.267,1.527-3.008,1.277c-2.739-1.8-3.642-4.834-2.75-8.737
	c0.817-3.573,2.292-5.306,5.843-6.868c2.294-1.008,4.015-2.675,4.494-4.351c0.247-0.868,0.159-1.719-0.257-2.484
	c0.538-0.43,0.886-1.043,0.97-1.726c0.108-0.885-0.232-1.77-0.958-2.494l-0.075-0.058c-1.339-0.783-4.732-0.524-6.835-0.363
	c0.311-0.683-0.397-2.674-1.553-2.732c-1.413-2.217-4.951-5.209-4.951-5.209s-3.958-0.219-5.345-0.195
	c-0.202-4.971-2.818-9.532-3.685-8.899c-0.867,0.636-2.046,5.543-2.108,6.6c-0.051,0.861-0.648,2.371-0.679,3.556
	c-0.762,0.543-1.432,1.28-2.024,2.155c-2.267-3.039-4.255-6.082-5.559-5.473c-1.117,0.524-0.564,7.207-0.569,7.536
	c-0.023,1.349-0.252,2.717-0.494,4.167c-0.391,2.328-0.793,4.735-0.266,7.03c0.336,1.462,1.032,2.667,1.791,3.794
	c-1.739,4.134-1.592,25.101,0.94,31.333c1.431,3.522,3.863,22.662,0.427,28.936c-3.513,6.415-4.677,15.788-3.856,19.921
	c-3.504,2.566-6.5,5.117-10.165,5.759c-3.728,0.652-13.372-1.39-13.372,2.143c0,1.771,12.01,1.659,12.938,1.732
	c1.771,0.141,9.965-2.224,14.177-3.854c0,0,3.395,2.266,3.681,2.488c-1.676,2.768-0.601,4.81,0.119,5.017
	c4.354-0.864,12.275,0.741,15.956,1.885c2.096,0.654,4.035,1.298,4.695,0.362c1.602-0.129,2.505-0.455,2.573-1.246
	c0.14-1.63-1.896-2.818-3.354-3.03c-0.232-1.257-2.594-1.639-4.986-1.488c-1.491,0.091-2.776-0.19-3.82-0.562
	c3.188-0.328,5.882-2.443,7.12-4.161c0.346-0.479,0.63-1.021,0.859-1.604c0.634,0.03,7.622,2.446,8.095,2.584
	c0.316,0.654,2.375,1.457,6.755,0.62c0.524-0.101,0.958-1.436,0.68-1.983C143.957,126.974,140.107,125.445,133.106,124.089z
	 M143.545,87.155c-0.209,1.42-0.134,4.187,0,4.696c0.048,2.177-1.638,3.162-2.022,2.318c0.634-3.69,0.374-9.699,0.365-9.781
	c-0.209-1.965-0.979-3.512-2.276-4.616c0.153-0.94,0.229-1.552,0-2.162C141.369,77.991,144.576,80.167,143.545,87.155z
	 M114.068,20.734c0.153-0.458,0.565-4.643,1.514-5.368c0.493-0.378,3.012,4.794,2.339,7.983c-1.705-0.534-3.44,0-4.625,0.897
	C113.362,23.349,113.757,21.666,114.068,20.734z M137.88,92.169c-1.181,0.373-1.727-1.229-1.651-1.513
	c0.202-0.756,0.522-4.128,0-4.819c-0.75-0.991-6.704,1.38-8.672,2.342c-2.671,1.305-5.963,1.172-8.696-0.567l1.056,1.49
	c3.292,1.242,5.205,1.525,8.324,0.063c3.12-1.462,6.906-2.774,7.188-2.459c0.701,0.783-0.497,4.103-0.352,4.743
	c0.261,1.156,0.962,1.842,1.871,1.861l0.011,0.041c0.167,0.636-0.11,1.362,0.209,2.066c-2.52,11.515-5.345,15.404-8.324,18.153
	h1.222c0.466-0.411,0.993-0.917,1.451-1.374c5.269,3.284,3.093,9.551,0.037,12.232c8.525,1.211,12.217,3.546,12.767,4.623
	c0.142,0.277-0.873,0.859-1.043,0.881c-5.052,0.62-4.531-0.338-4.582-0.61c0,0-8.298-2.639-9.012-2.749
	c0.588-1.986,0.461-4.118-0.24-6.454c-1.04-3.461-3.022-5.688-5.941-6.798l-1.398,0.514c3.449,0.233,5.524,4.451,6.205,6.323
	c3.054,8.399-3.36,12.065-10.034,12.852c1.361,0.394,5.04,1.516,6.948,1.452c4.091-0.132,4.2,0.843,4.458,1.432
	c1.935-0.013,3.46,1.449,3.191,2.258c-0.267,0.807-2.02,0.324-2.731,0.335c-0.479,0.851-2.234,0.069-4.124-0.458
	c-3.735-1.048-8.558-2.287-15.12-1.834c-0.94-0.822-0.058-2.868,0.966-4.246c-2.421-1.321-5.517-3.587-6.398-5.08
	c-2.618-4.438-1.747-12.91,2.682-22.608c3.002-6.572,1.792-23.609,0-29.324c-2.203-7.02-3.607-21.202-1.68-29.324
	c0.044,0.063,2.376,3.965,2.597,5.65l-0.153-2.749c-0.687-1.416-2.461-5.251-2.461-5.251c-0.6-0.94-1.753-2.517-2.019-3.671
	c-0.493-2.149,0.356-3.616,0.734-5.872c0.236-1.414,0.344-3.371,0.368-4.772c0.006-0.374-0.742-6.132,0-6.424
	c1.867-0.73,3.125,6.294,6.79,6.791l1.318-0.269c-1.052-0.18-1.899-0.794-2.645-1.607c0.464-0.711,2.858-2.563,3.459-2.856
	c1.951-0.957,9.108,0.006,9.108,0.006s3.049,2.614,5.093,4.956c1.491,0.229,1.503,2.337,1.101,2.891
	c2.267-0.182,6.371-0.663,7.509,0.134c1.099,1.129,0.534,3.14-0.551,3.438c0.655,0.487,0.801,1.724,0.572,2.5
	c-1.336,4.524-8.653,2.59-10.696,10.581c-1.07,4.185,0.038,7.991,3.244,10.737c0,0,2.442-0.784,3.187-1.653
	c0.063,1.303-1.104,2.708-1.104,2.708s2.128-0.808,3.838,0.15c-2.361,0.805-2.15,2.638-2.15,2.638s2.443-0.643,3.375-0.146
	c-1.834,0.366-2.421,2.788-2.421,2.788s3.239,0.286,3.302,1.468c-1.326-0.232-3.337,0.593-3.375,1.541
	c1.652,0.729,4.25,5.5,4.27,9.829c-3.032-1.857-7.592-1.609-11.844-1.006c0.395-0.654,0.892-1.09,1.451-1.399l0.497-0.996
	c-1.926,0.56-2.92,2.3-3.242,3.343c6.472-1.106,9.981-0.877,12.948,1.382c0,0,2.138,0.614,2.34,4.13
	c0.201,3.516,0.194,6.381-0.275,8.946C139.702,98.638,137.941,94.468,137.88,92.169z M92.511,132.616
	c-1.071,0.104-12.604,0.369-12.243-1.131c0.512-2.133,10.902-0.879,11.918-1.046c4.516-0.74,8.565-3.724,11.267-5.572
	c0.279,1.263,1.722,3.658,2.342,4.106C101.34,130.7,96.68,132.207,92.511,132.616z M129.353,127.517
	c0.003-0.007,0.005-0.014,0.008-0.02l0.007,0.013C129.363,127.514,129.359,127.514,129.353,127.517z"/>
<path fill="#AD8660" d="M63.186,64.955c0.487-4.229-1.789-7.263-4.716-9.055c0.488-2.327,0.054-6.34-1.463-8.726
	c1.544-2.763,1.219-3.873,0.406-5.581c1.87-2.439,0.895-7.316-0.569-8.78c0.597-1.679,0.813-7.967,0.325-10.163
	c1.3,0.326,1.951,0.732,2.276-1.379c2.276-2.927,5.446-10.245,0.081-10.734c-1.626-1.948-3.577-2.111-6.179-1.868
	c-6.829-2.766-8.359,0.975-9.024,2.927c-6.585-0.243-13.495,5.771-14.308,8.048c-4.309-0.813-7.804-1.544-9.268,4.472
	c-1.228,1.015-2.846,2.763-2.764,5.202c-1.139,0.976-2.683,5.611,5.934,7.887c1.301,1.87,1.789,2.765,2.113-1.868
	c1.626,1.136,2.521,0.567,3.496,0.73c1.87,1.787,5.041,9.918,3.902,12.519c-0.405,0.927-3.549,7.073-5.583,9.433
	c-7.588,5.743-6.178,18.535-7.1,27.233c-5.365,7.019-3.415,10.487-3.197,12.438c-11.166,6.288-8.781,20.16-4.878,25.473
	c-5.705,1.657-10.379,6.804-9.647,10.136c0.149,0.679,5.935-1.036,7.316-1.627c-3.032,1.249-7.967,8.401-3.306,9.16
	c0.163,0.649,2.412,2.953,8.997,0.84c4.309,2.031,9.268-2.031,9.349-4.634c0.088-2.827-0.162-5.772,1.22-8.293
	c5.121-0.568,13.17,0.083,19.186,0.896c0.525,2.104,0.489,7.806,0.163,10.08c-1.871,3.901-0.867,8.156,5.746,7.29
	c3.468,1.082,7.612-0.269,9.322-3.688c1.626-0.649,2.736-2.059-0.108-8.154c3.494,0.403,3.16,1.304,6.828,0.323
	c1.138,0.246,5.285,0.894,5.203-1.626c1.626-0.73-0.008-3.474-1.382-4.064c-1.218-3.82-7.073-4.362-10.649-4.036
	c4.877-4.444,10.73-19.943,0.568-24.822c1.138-5.286,0.787-8.4-1.653-12.573C59.933,78.83,62.596,70.066,63.186,64.955z"/>
<path fill="#010101" d="M73.765,131.448c-2.756-4.053-5.807-7.014-10.768-6.872c3.214-3.7,10.272-18.622-0.458-23.826
	c1.409-5.962-0.004-10.43-2.28-12.602c0.217-5.525,0.629-10.543,2.819-19.509c2.276-9.322-2.524-12.41-4.067-12.974
	c0.193-1.18,0.17-2.4,0.038-3.583c-0.274-2.454-1.64-4.106-0.819-6.357c0.38-1.042,0.471-2.088,0.123-3.149
	c-0.45-1.374,0.105-1.488,0.394-2.874c0.371-1.782-0.063-4.773-1.033-6.457c-0.813-1.409,1.138-5.203,0.061-9.932
	c2.617,0.624,5.095-7.279,5.174-9.349c0.135-3.517-4.932-5.87-7.981-5.87c-3.977,0-8.639-2.585-10.765,2.439
	c-0.5,1.178-3.043,0.835-4.277,1.223c-2.148,0.669-4.169,1.756-5.991,3.071c-1.558,1.124-3.296,2.523-4.204,4.265
	c-1.856-0.35-3.92-0.805-5.769-0.167c-1.674,0.578-2.681,2.054-3.263,3.655c-0.732,2.018-2.284,3.623-2.983,5.624
	c-1.243,3.556-1.678,5.84,2.252,8.01c1.842,1.014,3.119,1.102,4.536,2.586c1.625,1.707,1.898-1.953,1.956-2.647
	c1.641,0.809,2.643-0.181,3.683,1.53c0.878,1.447,4.32,7.002,2.585,11.663c-1.148,3.086-3.542,7.396-7.154,10.188
	c-6.38,4.931-4.973,23.244-5.34,26.023c-1.801,1.728-5.688,6.228-3.627,11.756c-9.54,3.902-10.18,18.612-5.499,25.522
	c-3.441,1.184-6.196,3.703-7.896,7.001c-2.311,4.477,0.107,4.933,4.375,3.257c-3.259,2.642-4.585,6.71-0.875,8.168
	c2.385,2.277,5.926,2.442,9.647,0.759c3.668,0.011,5.483,1.757,8.609-2.096c2.076-2.561,1.239-6.511,2.176-9.509
	c0.862-2.762,14.95-0.867,17.182-0.572c1.604,3.438-0.608,12.17,0.344,15.121c0.939,2.909,4.139,3.12,7.027,2.478
	c4.443,1.407,8.346-1.193,9.51-3.72c3.316-1.133,1.432-5.836,0.511-7.952C64.598,136.254,78.173,137.932,73.765,131.448z
	 M3.463,132.965c-0.634-4.856,6.366-8.579,10.1-9.556c-6.201-7.729-4.141-21.927,4.236-25.301c-1.221-5.654,1.105-9.708,2.95-11.818
	c-0.638,6.897-2.974,36.574-10.292,44.626C7.37,132.079,4.978,133.133,3.463,132.965z M62.095,140.75
	c0.021,2.054-1.637,2.51-2.704,3.438c-1.107,2.214-4.986,3.145-7.479,1.951c-8.129,1.518-5.688-3.901-5.388-7.137
	c0.091-0.991,0.597-7.785-0.148-9.455c-0.446-2.796-1.249-5.316,0.334-10.289c1.499-4.712,1.409-11.057-0.042-16.118
	c0.292,7.002,0.063,10.476-1.655,15.363c-1.531,4.355-1.388,7.058-0.955,9.66c-5.854-0.782-11.631-1.356-15.579-0.458
	c1.672-3.175,0.018-11.257,0.153-15.731c0.11-5.338,1.492-11.246,2.418-16.479c-2.046,4.509-3.66,11.573-3.766,16.612
	c-0.067,5.121,1.272,13.365-1.062,16.581c-2.335,3.217-0.254,7.317-1.882,9.817c-2.653,4.071-5.12,2.199-9.067,3.082
	c-2.493,1.192-6.656,0.525-8.346-1.084c-2.29-0.395-1.012-4.944,2.918-7.146c8.968-5.712,12.696-41.514,12.83-48.258
	c0.293-3.858-1.94-19.495,4.582-24.441c3.144-2.383,4.734-7.145,6.362-11.242c1.406-3.537-0.424-7.891-2.041-11.087
	c-0.45-0.892-1.051-2.28-1.971-2.746c-1.506-0.248-2.227,0.197-3.495-0.821c-1.631-8.622-4.834-15.249,1.464-12.231
	c-0.257,0.503-2.163,0.299-2.385,0.363c0.178,0.165,1.458,1.981,2.016,2.085c-0.462,0.608-0.848,0.775-1.898,0.997
	c1.026,0.556,1.832,1.477,3.04,0.994c-0.625-0.08-1.334-0.462-1.936-0.83c1.11-0.301,1.326-0.737,2.138-1.658
	c-0.844-0.078-1.572-0.11-2.385-0.703c0.82-0.324,2.083-0.642,2.095-1.783c-4.112-1.599-5.879-0.714-4.381,5.434
	c0.469,1.924,0.933,5.32,1.697,7.544c-0.049,1.051-0.073,2.147-0.396,3.132c-2.065-2.294-6.724-2.326-7.529-5.838
	c-0.629-2.749,2.004-6.254,3.203-8.291c1.217-5.002,4.84-4.649,9.201-3.827c0.175,0.031,2.356-3.881,6.407-5.98
	c2.382-1.234,5.317-2.18,8.022-2.08c0.42,0.015,1.223-2.346,1.661-2.79c1.855-1.885,4.895-1.038,7.018-0.177
	c1.42,0.22,2.78-0.247,4.218,0.362c3.981,1.694,5.503,4.018,3.528,8.365c-0.921,2.027-2.002,5.561-4.39,4.139
	c-3.417-3.266-3.131-11.279-6.838-11.787c-3.473-0.476-3.505,4.41-1.012,2.188c0,0.922-0.181,1.089-0.538,1.688
	c0.704,0.189,1.2,0.245,1.863,0.023c0.001,0.734-0.354,1.863-0.883,2.208c1.215-0.296,1.634-1.749,1.38-2.926
	c-0.524,0.329-1.326,0.387-1.657,0.275c0.107-0.387,0.387-1.464,0.055-1.932c-0.371,0.629-0.809,0.675-1.409,0.832
	c-0.758-1.245,1.466-2.256,2.293-1.883c3.724,1.246,3.728,11.339,6.897,12.001c0.366,1.879,0.315,3.845,0.233,5.741
	c-0.056,1.296-0.67,3.401-0.497,4.609c0.194,1.362,1.402,2.656,1.517,4.345c0.146,2.179-1.267,3.433-0.566,5.317
	c0.671,1.811-0.393,2.95-0.472,4.4c-1.682,1.655-4.278,3.334-7.903,4.416c1.897,0.164,6.124-0.815,8.36-2.914
	c0.867,3.143,1.152,4.958,0.612,7.377c1.542,1.398,6.247,3.699,3.97,12.478c-1.72,6.637-2.481,8.592-3.513,20.161
	c-1.031,11.569-3.974,34.483,2.291,47.805C61.343,137.836,62.081,139.224,62.095,140.75z M60.858,134.125
	c-4.861-13.685-1.985-32.802-0.915-44.971c2.526,3.695,2.066,8.345,0.967,12.437c11.381,4.662,3.035,21.68-1.402,24.79
	c2.735-0.294,5.619-0.396,8.251,0.554c1.547,0.558,5.357,4.032,5.373,5.845C73.167,136.646,64.262,134.584,60.858,134.125z"/>
</svg>
