<?xml version="1.0" encoding="utf-8"?>
<!DOCTYPE svg PUBLIC "-//W3C//DTD SVG 1.1//EN" "http://www.w3.org/Graphics/SVG/1.1/DTD/svg11.dtd">
<svg version="1.1" id="silouhette-chien01" xmlns="http://www.w3.org/2000/svg" xmlns:xlink="http://www.w3.org/1999/xlink" x="0px"
	 y="0px" width="160px" height="120px" viewBox="0 0 160 120" enable-background="new 0 0 160 120" xml:space="preserve">
<path fill="#DDD6CC" d="M157.428,21.567c-5.402-0.982-10.794-4.124-12.107-6.601c-0.817-1.545-0.584-6.418-3.647-8.463
	c-5.633-3.754-14.369-5.486-19.402-3.938c-7.585,2.332-20.646,15.743-19.096,26.339c-2.879,0.618-4.874,3.961-4.38,6.671
	c-11,3.5-31.5,26-32.5,41.5c-7,3.666-11.462,16.046-11.667,19.517c-3.87,1.707-3.073,9.108-8.765,11.498
	c-8.146,3.421-39.851,5.246-43.318,9.485c-1.025,1.253,1.347,2.264,6,1.75c19.582-2.162,45.805-4.577,47.25-5.25
	c2.208-1.028,4.88-2.09,6.262-2.878c0.227,0.112,0.419,0.252,0.588,0.409c0.003,0.005,0.006,0.012,0.01,0.017
	c0.104,0.119,0.199,0.219,0.286,0.308c1.175,1.494,1.068,4.033,5.349,4.128c3.53,0.078,29.971,0.261,33.387-0.166
	c4.098,1.537,6.404-1.281,6.318-2.903c2.818,0.171,6.318,0.599,8.368-0.256c3.33,0.598,5.641,0.775,6.403-1.623
	c0.598-1.877-0.768-5.806-7.001-6.062c-1.619-0.067-3.587-5.636-1.964-8.454c1.166-2.023-0.79-6.965,0.711-10.135
	c1.024-2.164,4.303-12.242,5.783-15.885c1.908-1.727,11.366-8.27,7.813-22.09c0.52-0.207,2.521,0.59,5.188-0.243
	c-1.834-0.834-2.112-2.592-1.678-3.175c0.509-0.683,2.012,0.008,4.512-1.159c-2.168-1-2.479-2.515-2.479-3.122
	c2.277,0.253,6.816-3.226,6.564-5.25c7.73,0.146,13.42-0.732,13.131-2.628c2.04-0.145,1.913-4.146,2.533-5.756
	C158.063,25.402,158.429,21.747,157.428,21.567z M101.676,106.502c-0.854,0.255-1.879,0.683-2.988,1.109
	c-2.732-0.343-6.262,0.025-10.359,0.936c2.232-0.67,7.313-6.597,8.364-9.51c0.028-0.048,0.06-0.097,0.089-0.147
	c1.467,1.012,2.705,1.476,3.045,3.737C100.122,104.604,100.923,105.794,101.676,106.502z"/>
<path fill="#272B33" d="M157.428,21.567c-5.402-0.982-10.794-4.124-12.107-6.601c-0.817-1.545-0.584-6.418-3.647-8.463
	c-5.633-3.754-14.369-5.486-19.402-3.938c-7.585,2.332-20.646,15.743-19.096,26.339c-2.879,0.618-5.552,3.185-5.058,5.895
	C84.045,40.326,69.628,59.243,64.961,76.91c-7,3.666-10.129,16.212-10.334,19.683c-3.87,1.707-3.073,9.108-8.765,11.498
	c-8.146,3.421-44.484,4.818-44.856,10.36c-0.118,1.766,1.381,1.993,6.034,1.479c19.582-2.162,47.404-4.339,48.849-5.012
	c2.208-1.028,4.785-2.933,6.167-3.721c0.227,0.112,0.419,0.252,0.588,0.409c0.003,0.005,0.006,0.012,0.01,0.017
	c0.104,0.119,0.199,0.219,0.286,0.308c1.175,1.494,1.068,4.033,5.349,4.128c3.53,0.078,29.971,0.261,33.387-0.166
	c4.098,1.537,6.404-1.281,6.318-2.903c2.818,0.171,6.318,0.599,8.368-0.256c3.33,0.598,5.641,0.775,6.403-1.623
	c0.598-1.877-0.768-5.806-7.001-6.062c-1.619-0.067-3.587-5.636-1.964-8.454c1.166-2.023-0.79-6.965,0.711-10.135
	c1.024-2.164,4.303-12.242,5.783-15.885c1.908-1.727,11.366-8.27,7.813-22.09c0.52-0.207,2.521,0.59,5.188-0.243
	c-1.834-0.834-2.112-2.592-1.678-3.175c0.509-0.683,2.012,0.008,4.512-1.159c-2.168-1-2.479-2.515-2.479-3.122
	c2.277,0.253,6.816-3.226,6.564-5.25c7.498,0.873,12.831-0.21,13.131-2.628c2.283-0.082,3.033-3.923,2.867-5.59
	C158.878,26.819,158.429,21.747,157.428,21.567z M155.021,27.037c0.146,2.043-0.143,5.123-3.136,5
	c-0.173,2.873-8.023,2.625-11.576,1.683c0.44-3.718-0.898-7.593-1.991-8.685c-1.46-1.458,0.292-7.294-3.646-7.586
	c3.21,2.188,1.167,6.419,2.625,8.459c1.46,2.045,1.751,9.484,0.438,11.38c0,0-0.01,0.021-0.023,0.052
	c-1.139,1.282-2.897,2.354-5.373,2.283c-3.213-0.091-3.855-6.908-5.837-8.608c-2.041-1.749-5.252-1.896-5.252-1.896
	s1.896,0.438,4.087,2.48c2.703,2.524,0.836,7.187,6.418,9.48c0.204,0.328,0.541,1.829,2.207,2.496c-2.166,0.667-3.29-0.274-4,0.5
	c-0.443,0.484-0.166,2.499,0.834,3.333c-1.834,0.333-3.166,0.167-4.166-0.333c3.363,13.438-5.329,21.249-7.834,22.5
	c-1.024,4.554-4.102,13.464-5.421,15.866c-1.636,2.976,0.196,8.744-0.854,10.728c-0.769,1.451,0.096,9.75,2.817,9.99
	c2.904,0.256,6.404,1.024,6.318,4.354c-0.062,2.443-2.522,1.245-5.379,1.023c-1.794,0.94-5.294,1.109-7.854,0.086
	c0.17-2.901-2.511-5.319-5.039-5.036c-1.038-1.401-2.574-4.404-2.816-6.063c-0.211-1.438-1.645-2.314-3.008-3.027
	c5.574-16.738-6.041-21.176-14.138-19.994L85,78.114c17.104,0.75,14.945,20.12-0.315,32.144c5.464-1.28,9.733-2.305,14.173-1.707
	c1.537-0.684,4.867-1.707,7.002,0c3.351,2.681,0.114,8.311-3.928,6.318c-2.682,0.82-28.364-0.378-31.707-0.284
	c-5.553,0.155-5.004-2.716-7.063-4.388c-1.526-2.185-3.349-5.2-2.699-9.684l-0.272-0.465c-0.889,3.314-0.463,7.36,1.645,10.058
	c-1.508,0.813-4.044,2.022-5.843,2.884c-1.368,0.654-26.134,3.135-44.676,5.238c-4.405,0.5-5.996,0.87-6.554-0.456
	c-1.135-2.696,32.281-4.696,42.521-8.71c5.465-2.143,4.875-10.122,8.539-11.783c0.193-3.375,3.722-16.453,10.805-19.036
	c5-17.667,19.417-38.417,33.334-42c-0.462-2.464,0.95-6.565,5.169-6.472c-3.719-8.674,10.322-23.441,17.505-25.71
	c4.765-1.506,12.658,0.197,17.993,3.849c2.899,1.985,2.567,6.466,3.341,7.968c1.243,2.409,6.92,5.717,12.036,6.674
	C156.953,22.727,157.537,25.21,155.021,27.037z M101.676,106.502c-0.854,0.255-1.879,0.683-2.988,1.109
	c-2.732-0.343-6.262,0.025-10.359,0.936c2.232-0.67,7.313-6.597,8.364-9.51c0.028-0.048,0.06-0.097,0.089-0.147
	c1.467,1.012,2.705,1.476,3.045,3.737C100.122,104.604,100.923,105.794,101.676,106.502z"/>
</svg>
