<?xml version="1.0" encoding="utf-8"?>
<!DOCTYPE svg PUBLIC "-//W3C//DTD SVG 1.1//EN" "http://www.w3.org/Graphics/SVG/1.1/DTD/svg11.dtd">
<svg version="1.1" id="silouhette-chien02" xmlns="http://www.w3.org/2000/svg" xmlns:xlink="http://www.w3.org/1999/xlink" x="0px" y="0px"
	 width="129px" height="142px" viewBox="0 0 129 142" enable-background="new 0 0 129 142" xml:space="preserve">
<path fill="#888D9E" d="M127.325,14.877c-12.859,1.466-17.498,1.647-20.127-1.864c-2.049-0.292-11.217-1.41-16.772-1.118
	C85.454,6.335,82.028,0,80.563,0c-1.462,0-2.338,6.73,1.76,13.459c1.754,2.636,3.178,7.972,2.885,11.48
	c-2.045,1.172-5.219,21.299-2.885,25.395c-2.24,2.525-4.706,7.022-3.451,10.759C47.596,77.526,34.675,111.496,37.5,125.572
	c-5.01-1.004-2.518,3.565-11.537,7.071c-2.256-1.002-10.265-1.026-15.277-1.278c-2.502-2.507-5.016-3.78-8.021-2.276
	c-3.007,1.507-3.861,4.933-0.501,8.278c2.503,1.003,26.054,2.255,31.065,0.499c1.503,0,4.511-1.255,7.517-4.763
	c3.758,2.257-0.181,4.259,2.574,6.766c5.847,0.378,25.088,1.132,31.879,0.378c0-1.555-0.731-2.928-2.041-3.82
	c-0.012-0.018-0.021-0.028-0.033-0.047c-0.029-0.013-0.057-0.023-0.086-0.033c-0.564-0.363-1.223-0.651-1.99-0.816
	c0-3.017-5.188-3.489-12.515-2.427c3.611-1.376,17.609-12.852,17.564-22.563c4.799,0.174,12.566-0.727,16.725-3.222
	c0.554,8.732-0.439,22.278,3.793,22.78c3.509,3.006,2.256,6.516,2.256,10.53c3.115,2.635,14.055,0.562,14.055,0.562
	s0.252-3.771-4.842-3.207c-3.913-3.202-1.539-28.725-2.371-36.765c17.488-14.497,9.9-35.033,6.173-40.744
	c3.61-6.881,1.786-21.084-1.343-24.965c4.623-1.211,18.49-8.585,15.924-12.976C128.805,21.072,129.665,16.635,127.325,14.877z"/>
<path fill="#272B33" d="M127.924,14.632c-12.858,1.467-17.832,0.878-20.462-2.634c-2.048-0.291-10.813-1.169-16.369-0.878
	C86.12,5.562,82.028,0,80.563,0c-1.462,0-2.338,6.73,1.76,13.459c1.754,2.636,1.754,8.784,1.461,12.293
	c-2.044,1.172-3.795,20.486-1.461,24.582c-4.569,2.188-5.98,5.964-4.727,9.7c-31.276,16.434-44.271,50.67-41.445,64.746
	c-5.01-1.005-1.169,4.357-10.188,7.863c-2.256-1.002-10.265-1.026-15.277-1.278c-2.502-2.507-5.016-3.78-8.021-2.276
	c-3.007,1.507-3.861,4.933-0.501,8.278c2.503,1.003,26.054,2.255,31.065,0.499c1.503,0,4.511-1.255,7.517-4.763
	c3.758,2.257-0.181,4.259,2.574,6.766c5.847,0.378,25.088,1.132,31.879,0.378c0-1.555-0.731-2.928-2.041-3.82
	c-0.012-0.018-0.021-0.028-0.033-0.047c-0.029-0.013-0.057-0.023-0.086-0.033c-0.564-0.363-1.223-0.651-1.99-0.816
	c0-3.017-5.188-3.489-12.515-2.427c3.611-1.376,17.609-12.852,17.564-22.563c4.799,0.174,12.566-0.727,16.725-3.222
	c0.554,8.732-0.439,22.278,3.793,22.78c3.509,3.006,2.256,6.516,2.256,10.53c3.115,2.635,14.055,0.562,14.055,0.562
	s0.252-3.771-4.842-3.207c-3.913-3.202-1.539-28.725-2.371-36.765c17.488-14.497,9.9-35.033,6.173-40.744
	c3.61-6.881,1.786-21.084-1.343-24.965c4.623-1.211,18.49-8.585,15.924-12.976C128.805,21.072,130.265,16.39,127.924,14.632z
	 M124.343,22.144c0.746,5.591-10.249,10.995-16.771,12.487c3.99,6.685,5.963,17.702,1.705,25.989
	c4.631,7.182,10.285,24.562-3.342,38.63c0.036-1.934,0.25-4.11,0.592-5.61l-1.803,2.647c-0.454,2.646-0.82,6.219-0.537,9.506
	c0.971,11.229-0.97,28.555,2.45,32.884c2.2-0.064,4.339,0.439,4.904,1.821c-2.579,0.439-7.606,1.006-11.319-0.629
	c0-3.929,1.281-8.246-2.073-11.191c-4.483-0.298-2.999-19.374-3.11-22.191c-0.11-2.815-1.386-6.932-3.464-8.317
	c-2.433-1.619,1.108-8.593-1.11-15.385c0.277,6.654-3.049,13.86-0.83,16.078c2.564,2.565,2.91,4.436,2.848,6.778
	c-4.739,2.283-11.543,3.635-16.627,2.648c-1.592-5.452-10.206-6.214-12.917-4.825c7.769,0.097,11.049,3.11,10.94,6.225
	c-0.313,8.813-7.809,18.606-20.377,25.445c1.386-0.369,2.958-0.74,4.252-1.294c6.467-0.738,11.22-0.913,11.794,1.438
	c-2.28-0.381-6.319-0.069-8.652,0.318c7.022-0.185,11.756,0.501,12.229,3.709c-6.494,0.738-23.459-0.197-29.049-0.567
	c-2.635-2.453,1.603-4.621-3.113-7.733c-2.874,3.433-7.228,6.654-8.665,6.654c-3.583,0.756-25.873,0.264-28.268-0.719
	c-2.641-1.696-3.386-4.837-0.51-6.314c2.453-0.943,4.156-0.244,6.55,2.21c4.716-0.378,10.992,0.229,15.708,1.359
	c10.49-2.33,6.448-9.926,13.587-6.758c-7.454-21.245,19.567-57.584,41.745-65.971c-3.168-4.1,0-8.2,3.463-10.328
	c-2.233-4.01-1.541-22.45,1.758-25.974c-0.879-3.74-0.658-7.042-0.879-10.125c-3.915-6.585-5.916-12.838-4.518-12.838
	c1.401,0,4.168,5.193,8.92,10.638c5.313-0.286,14.084,0.445,16.041,0.732c2.517,3.437,8.06,4.866,20.873,2.609
	C129.004,17.899,126.583,20.713,124.343,22.144z"/>
</svg>
