<?xml version="1.0" encoding="utf-8"?>
<!DOCTYPE svg PUBLIC "-//W3C//DTD SVG 1.1//EN" "http://www.w3.org/Graphics/SVG/1.1/DTD/svg11.dtd">
<svg version="1.1" id="Calque_1" xmlns="http://www.w3.org/2000/svg" xmlns:xlink="http://www.w3.org/1999/xlink" x="0px" y="0px"
	 width="250px" height="140px" viewBox="0 2.333 250 140" enable-background="new 0 2.333 250 140" xml:space="preserve">
<g id="Toque">
	<path fill="#282B33" stroke="#000000" stroke-miterlimit="10" d="M2.121,72.299L138.755,6.948l108.578,108.05
		c0,0-60.16,26.806-62.112,26.273C188.462,61.131,65.854,62.9,64.162,127.278C58.327,123.389,2.121,72.299,2.121,72.299z"/>
	<path opacity="0.2" enable-background="new    " d="M64.314,124.343c0.694-5.225,5.196-8.043,13.562-4.382
		c21.495-15.209,89.438-7.941,107.214,21.452c0.473-14.574-1.056-25.063-2.76-35.804c-4.769-30.082-44.971-43.26-83.878-36.711
		c-22.318,3.757-30.976,20.551-32.463,29.71C64.54,107.53,63.432,117.935,64.314,124.343z"/>
	
		<linearGradient id="SVGID_1_" gradientUnits="userSpaceOnUse" x1="-340.6797" y1="611.4121" x2="-219.5029" y2="611.4121" gradientTransform="matrix(1 0 0 1 404.6797 -507.9209)">
		<stop  offset="0" style="stop-color:#35373F"/>
		<stop  offset="0.1485" style="stop-color:#434853"/>
		<stop  offset="0.995" style="stop-color:#161A22"/>
	</linearGradient>
	<path fill="url(#SVGID_1_)" stroke="#000000" stroke-miterlimit="10" d="M64.314,123.5c0.694-5.226,5.196-8.888,13.562-5.226
		c21.495-15.208,89.438-7.099,107.214,22.297c0.473-14.574-1.056-25.063-2.76-35.805c-4.769-30.08-44.971-43.259-83.878-36.71
		c-22.318,3.757-30.976,20.55-32.463,29.709C64.54,106.687,63.432,117.091,64.314,123.5z"/>
	<polygon fill="#4B4F59" stroke="#000000" stroke-miterlimit="10" points="247.55,115 247.55,110.437 138.741,3.333 138.459,9.021 	
		"/>
	<polygon fill="#797F89" stroke="#000000" stroke-miterlimit="10" points="2,72.004 2,68.165 138.741,3.333 138.459,9.518 	"/>
	<path fill="#282B33" stroke="#000000" stroke-miterlimit="10" d="M76.896,109.879c-6.217-2.66-9.947-0.606-12.266,2.252
		c-0.31,4.458-0.311,7.763,0.126,10.927c0.695-5.225,5.195-8.888,13.561-5.225c21.496-15.208,89.438-7.1,107.214,22.297
		c0.11-3.398,0.108-6.569,0.023-9.579C165.852,102.486,98.487,94.953,76.896,109.879z"/>
</g>
<g id="Medaille">
	<path fill="#CC4256" stroke="#000000" stroke-miterlimit="10" d="M150.35,53.873c0,0-4.019-1.713-7.728-2.886
		c0.629,10.312-2.022,49.356-4.896,61.839c9.009-3.627,16.722-1.021,16.722-1.021L150.35,53.873z"/>
	<path fill="#CC4256" stroke="#000000" stroke-miterlimit="10" d="M159.481,52.197c1.634,26.752,7.208,49.351,10.849,58.638
		c0,0-7.397-2.064-11.126,0.961c0,0-6.489-55.829-5.524-58.407C154.639,50.812,157.846,25.442,159.481,52.197z"/>
	<path fill="#FFFFFF" stroke="#000000" stroke-miterlimit="10" d="M153.888,29.923c-1.192-4.087,1.576-20.62-4.068-16.745
		c3.301,0.184,2.461,12.753,1.114,17.03C151.637,30.237,153.888,29.923,153.888,29.923z"/>
	<path fill="#FFFFFF" stroke="#000000" stroke-miterlimit="10" d="M151.856,122.035c-5.431-30.508-5.732-66.364-5.329-73.522
		c2.635,1.936,7.04,1.879,10.993,1.426c-1.859,10.814-0.206,54.98,7.685,70.863C159.723,120.297,155.349,120.774,151.856,122.035z"
		/>
	<path fill="#CC4256" stroke="#000000" stroke-miterlimit="10" d="M139.044,38.699c-1.316,8.342,3.047,15.957,9.739,17.015
		c6.698,1.053,13.19-4.853,14.505-13.192c1.313-8.341-3.049-15.957-9.741-17.011C146.85,24.455,140.358,30.36,139.044,38.699z"/>
	<path fill="#B32026" stroke="#000000" stroke-miterlimit="10" d="M141.076,39.796c-1.245,7.89,2.938,15.102,9.342,16.112
		c6.411,1.009,12.607-4.567,13.848-12.458c1.248-7.888-2.938-15.101-9.343-16.112C148.521,26.33,142.319,31.909,141.076,39.796z"/>
	<path fill="#FFFFFF" stroke="#000000" stroke-miterlimit="10" d="M144.563,40.746c-0.988,6.248,2.189,11.938,7.092,12.712
		c4.907,0.771,9.68-3.663,10.662-9.914c0.986-6.247-2.189-11.938-7.095-12.71C150.32,30.06,145.546,34.499,144.563,40.746z"/>
	<path fill="#B32026" stroke="#000000" stroke-miterlimit="10" d="M147.575,41.227c-0.76,4.833,1.479,9.2,4.999,9.753
		c3.519,0.554,6.989-2.911,7.748-7.743c0.762-4.833-1.479-9.2-4.993-9.755C151.813,32.926,148.335,36.395,147.575,41.227z"/>
	<path fill="#FFFFFF" stroke="#000000" stroke-miterlimit="10" d="M150.656,41.056c-0.629,3.355,0.591,6.573,2.723,7.182
		c2.128,0.616,4.367-1.607,4.994-4.962c0.629-3.354-0.59-6.573-2.72-7.184C153.521,35.477,151.281,37.702,150.656,41.056z"/>
</g>
</svg>
